<svg xmlns="http://www.w3.org/2000/svg" xmlns:xlink="http://www.w3.org/1999/xlink" viewBox="0 0 1500 1500">  <g id="sky">
<rect width="1500" height="1499.86" style="fill: #fffae3"/>
</g>  <g id="pattern">
<path d="M1442.34,1500l57.66-56.34v-6.2L1436,1500h-1v-81.65l65-64.86v-6.76l-65,65v-82.56l65-63.51v-6.2L1435,1323v-82.62l65-64.86v-6.76l-65,65v-82.56l65-63.51v-6.2L1435,1145v-82.62l65-64.86v-6.76l-65,65V973.17l65-63.51v-6.2L1435,967V884.35l65-64.86v-6.76l-65,65V795.17l65-63.51v-6.2L1435,789V706.35l65-64.86v-6.76l-65,65V617.17l65-63.51v-6.2L1435,611V528.35l65-64.86v-6.76l-65,65V439.17l65-63.51v-6.2L1435,433V350.35l65-64.86v-6.76l-65,65V261.17l65-63.51v-6.2L1435,255V172.35l65-64.86v-6.76l-65,65V83.17l65-63.51v-6.2L1435,77V0h-3V77l-80-77h-9.27L1264,77V0h-3V77l-80-77h-9.27L1093,77V0h-3V77l-80-77h-9.27L922,77V0h-3V77l-80-77h-9.27L751,77V0h-3V77l-80-77h-9.27L580,77V0h-3V77L497.05,0h-9.27L409,77V0h-3V77L326.05,0h-9.27L238,77V0h-3V77L155.05,0h-8.27L68,77V0H65V77L0,14.4v6.17L65,83.18v82.64l-34.22-33L0,102.83v6.48L28.72,137,65,172.36V255L0,192.4v6.17l65,62.61v82.64l-34.22-33L0,280.83v6.48L28.72,315,65,350.36V433L0,370.4v6.17l65,62.61v82.64l-34.22-33L0,458.83v6.48L28.72,493,65,528.36V611L0,548.4v6.17l65,62.61v82.64l-34.22-33L0,636.83v6.48L28.72,671,65,706.36V789L0,726.4v6.17l65,62.61v82.64l-34.22-33L0,814.83v6.48L28.72,849,65,884.36V967L0,904.4v6.17l65,62.61v82.64l-34.22-33L0,992.83v6.48L28.72,1027,65,1062.36V1145L0,1082.4v6.17l65,62.61v82.64l-34.22-33L0,1170.83v6.48L28.72,1205,65,1240.36V1323L0,1260.4v6.17l65,62.61v82.64l-34.22-33L0,1348.83v6.48L28.72,1383,65,1418.36V1500H64L0,1438.4v6.17L57.55,1500H1442.34Zm-1293.09,0H75.34l73.91-72.22Zm0-78.42L69,1500H68v-81.65l81.25-81.07Zm0-93v1.87L68,1411.73v-82.56l81.25-79.39Zm0-85L68,1323v-82.62l81.25-81.07Zm0-93v1.87L68,1233.73v-82.56l81.25-79.39Zm0-85L68,1145v-82.62l81.25-81.07Zm0-93v1.87L68,1055.73V973.17l81.25-79.39Zm0-85L68,967V884.35l81.25-81.07Zm0-93v1.87L68,877.73V795.17l81.25-79.39Zm0-85L68,789V706.35l81.25-81.07Zm0-93v1.87L68,699.73V617.17l81.25-79.39Zm0-85L68,611V528.35l81.25-81.07Zm0-93v1.87L68,521.73V439.17l81.25-79.39Zm0-85L68,433V350.35l81.25-81.07Zm0-93v1.87L68,343.73V261.17l81.25-79.39Zm0-85L68,255V172.35l81.25-81.07Zm0-93v1.87L68,165.73V83.17L149.25,3.78ZM153.75,1500v-71.09l73.8,71.09Zm81.25,0H234l-80.2-77.25v-83.11l45,43.36L235,1418.36Zm0-88.18-34.22-33-47-45.83v-82.08L235,1329.18Zm0-88.81-81.25-78.26v-83.11l45,43.36L235,1240.36Zm0-89.19-34.22-33-47-45.83v-82.08L235,1151.18Zm0-88.81-81.25-78.26V983.64l45,43.36L235,1062.36Zm0-89.19-34.22-33-47-45.83V894.91L235,973.18ZM235,967l-81.25-78.26V805.64l45,43.36L235,884.36Zm0-89.19-34.22-33-47-45.83V716.91L235,795.18ZM235,789l-81.25-78.26V627.64l45,43.36L235,706.36Zm0-89.19-34.22-33-47-45.83V538.91L235,617.18ZM235,611l-81.25-78.26V449.64l45,43.36L235,528.36Zm0-89.19-34.22-33-47-45.83V360.91L235,439.18ZM235,433l-81.25-78.26V271.64l45,43.36L235,350.36Zm0-89.19-34.22-33-47-45.83V182.91L235,261.18ZM235,255l-81.25-78.26V93.64l45,43.36L235,172.36Zm0-89.19-34.22-33L153.75,87V4.91L235,83.18ZM320.25,1500H245.34l74.91-73.2Zm0-79.39L239,1500h-1v-81.65l82.25-82.07Zm0-92v.87L238,1411.73v-82.56l82.25-80.37Zm0-86L238,1323v-82.62l82.25-82.07Zm0-92v.87L238,1233.73v-82.56l82.25-80.37Zm0-86L238,1145v-82.62l82.25-82.07Zm0-92v.87L238,1055.73V973.17l82.25-80.37Zm0-86L238,967V884.35l82.25-82.07Zm0-92v.87L238,877.73V795.17l82.25-80.37Zm0-86L238,789V706.35l82.25-82.07Zm0-92v.87L238,699.73V617.17l82.25-80.37Zm0-86L238,611V528.35l82.25-82.07Zm0-92v.87L238,521.73V439.17l82.25-80.37Zm0-86L238,433V350.35l82.25-82.07Zm0-92v.87L238,343.73V261.17l82.25-80.37Zm0-86L238,255V172.35l82.25-82.07Zm0-92v.87L238,165.73V83.17L320.25,2.8ZM323.75,1500v-72l74.8,72Zm82.25,0H405l-81.2-78.22v-83.1l46,44.32L406,1418.36Zm0-88.18-34.22-33-48-46.8V1250L406,1329.18Zm0-88.81-82.25-79.23v-83.1l46,44.32L406,1240.36Zm0-89.19-34.22-33-48-46.8V1072L406,1151.18Zm0-88.81-82.25-79.23v-83.1l46,44.32L406,1062.36Zm0-89.19-34.22-33-48-46.8V894L406,973.18ZM406,967l-82.25-79.23v-83.1l46,44.32L406,884.36Zm0-89.19-34.22-33-48-46.8V716L406,795.18ZM406,789l-82.25-79.23v-83.1l46,44.32L406,706.36Zm0-89.19-34.22-33-48-46.8V538L406,617.18ZM406,611l-82.25-79.23v-83.1l46,44.32L406,528.36Zm0-89.19-34.22-33-48-46.8V360L406,439.18ZM406,433l-82.25-79.23v-83.1l46,44.32L406,350.36Zm0-89.19-34.22-33-48-46.8V182L406,261.18ZM406,255l-82.25-79.23V92.68l46,44.32L406,172.36Zm0-89.19-34.22-33-48-46.8V4L406,83.18ZM491.25,1500H416.34l74.91-73.2Zm0-79.39L410,1500h-1v-81.65l82.25-82.07Zm0-92v.87L409,1411.73v-82.56l82.25-80.37Zm0-86L409,1323v-82.62l82.25-82.07Zm0-92v.87L409,1233.73v-82.56l82.25-80.37Zm0-86L409,1145v-82.62l82.25-82.07Zm0-92v.87L409,1055.73V973.17l82.25-80.37Zm0-86L409,967V884.35l82.25-82.07Zm0-92v.87L409,877.73V795.17l82.25-80.37Zm0-86L409,789V706.35l82.25-82.07Zm0-92v.87L409,699.73V617.17l82.25-80.37Zm0-86L409,611V528.35l82.25-82.07Zm0-92v.87L409,521.73V439.17l82.25-80.37Zm0-86L409,433V350.35l82.25-82.07Zm0-92v.87L409,343.73V261.17l82.25-80.37Zm0-86L409,255V172.35l82.25-82.07Zm0-92v.87L409,165.73V83.17L491.25,2.8ZM494.75,1500v-72l74.8,72Zm82.25,0h-1l-81.2-78.22v-83.1l46,44.32L577,1418.36Zm0-88.18-34.22-33-48-46.8V1250L577,1329.18Zm0-88.81-82.25-79.23v-83.1l46,44.32L577,1240.36Zm0-89.19-34.22-33-48-46.8V1072L577,1151.18Zm0-88.81-82.25-79.23v-83.1l46,44.32L577,1062.36Zm0-89.19-34.22-33-48-46.8V894L577,973.18ZM577,967l-82.25-79.23v-83.1l46,44.32L577,884.36Zm0-89.19-34.22-33-48-46.8V716L577,795.18ZM577,789l-82.25-79.23v-83.1l46,44.32L577,706.36Zm0-89.19-34.22-33-48-46.8V538L577,617.18ZM577,611l-82.25-79.23v-83.1l46,44.32L577,528.36Zm0-89.19-34.22-33-48-46.8V360L577,439.18ZM577,433l-82.25-79.23v-83.1l46,44.32L577,350.36Zm0-89.19-34.22-33-48-46.8V182L577,261.18ZM577,255l-82.25-79.23V92.68l46,44.32L577,172.36Zm0-89.19-34.22-33-48-46.8V4L577,83.18ZM662.25,1500H587.34l74.91-73.2Zm0-79.39L581,1500h-1v-81.65l82.25-82.07Zm0-92v.87L580,1411.73v-82.56l82.25-80.37Zm0-86L580,1323v-82.62l82.25-82.07Zm0-92v.87L580,1233.73v-82.56l82.25-80.37Zm0-86L580,1145v-82.62l82.25-82.07Zm0-92v.87L580,1055.73V973.17l82.25-80.37Zm0-86L580,967V884.35l82.25-82.07Zm0-92v.87L580,877.73V795.17l82.25-80.37Zm0-86L580,789V706.35l82.25-82.07Zm0-92v.87L580,699.73V617.17l82.25-80.37Zm0-86L580,611V528.35l82.25-82.07Zm0-92v.87L580,521.73V439.17l82.25-80.37Zm0-86L580,433V350.35l82.25-82.07Zm0-92v.87L580,343.73V261.17l82.25-80.37Zm0-86L580,255V172.35l82.25-82.07Zm0-92v.87L580,165.73V83.17L662.25,2.8ZM665.75,1500v-72l74.8,72Zm82.25,0h-1l-81.2-78.22v-83.1l46,44.32L748,1418.36Zm0-88.18-34.22-33-48-46.8V1250L748,1329.18Zm0-88.81-82.25-79.23v-83.1l46,44.32L748,1240.36Zm0-89.19-34.22-33-48-46.8V1072L748,1151.18Zm0-88.81-82.25-79.23v-83.1l46,44.32L748,1062.36Zm0-89.19-34.22-33-48-46.8V894L748,973.18ZM748,967l-82.25-79.23v-83.1l46,44.32L748,884.36Zm0-89.19-34.22-33-48-46.8V716L748,795.18ZM748,789l-82.25-79.23v-83.1l46,44.32L748,706.36Zm0-89.19-34.22-33-48-46.8V538L748,617.18ZM748,611l-82.25-79.23v-83.1l46,44.32L748,528.36Zm0-89.19-34.22-33-48-46.8V360L748,439.18ZM748,433l-82.25-79.23v-83.1l46,44.32L748,350.36Zm0-89.19-34.22-33-48-46.8V182L748,261.18ZM748,255l-82.25-79.23V92.68l46,44.32L748,172.36Zm0-89.19-34.22-33-48-46.8V4L748,83.18ZM833.25,1500H758.34l74.91-73.2Zm0-79.39L752,1500h-1v-81.65l82.25-82.07Zm0-92v.87L751,1411.73v-82.56l82.25-80.37Zm0-86L751,1323v-82.62l82.25-82.07Zm0-92v.87L751,1233.73v-82.56l82.25-80.37Zm0-86L751,1145v-82.62l82.25-82.07Zm0-92v.87L751,1055.73V973.17l82.25-80.37Zm0-86L751,967V884.35l82.25-82.07Zm0-92v.87L751,877.73V795.17l82.25-80.37Zm0-86L751,789V706.35l82.25-82.07Zm0-92v.87L751,699.73V617.17l82.25-80.37Zm0-86L751,611V528.35l82.25-82.07Zm0-92v.87L751,521.73V439.17l82.25-80.37Zm0-86L751,433V350.35l82.25-82.07Zm0-92v.87L751,343.73V261.17l82.25-80.37Zm0-86L751,255V172.35l82.25-82.07Zm0-92v.87L751,165.73V83.17L833.25,2.8ZM836.75,1500v-72l74.8,72Zm82.25,0h-1l-81.2-78.22v-83.1l46,44.32L919,1418.36Zm0-88.18-34.22-33-48-46.8V1250L919,1329.18Zm0-88.81-82.25-79.23v-83.1l46,44.32L919,1240.36Zm0-89.19-34.22-33-48-46.8V1072L919,1151.18Zm0-88.81-82.25-79.23v-83.1l46,44.32L919,1062.36Zm0-89.19-34.22-33-48-46.8V894L919,973.18ZM919,967l-82.25-79.23v-83.1l46,44.32L919,884.36Zm0-89.19-34.22-33-48-46.8V716L919,795.18ZM919,789l-82.25-79.23v-83.1l46,44.32L919,706.36Zm0-89.19-34.22-33-48-46.8V538L919,617.18ZM919,611l-82.25-79.23v-83.1l46,44.32L919,528.36Zm0-89.19-34.22-33-48-46.8V360L919,439.18ZM919,433l-82.25-79.23v-83.1l46,44.32L919,350.36Zm0-89.19-34.22-33-48-46.8V182L919,261.18ZM919,255l-82.25-79.23V92.68l46,44.32L919,172.36Zm0-89.19-34.22-33-48-46.8V4L919,83.18ZM1004.25,1500H929.34l74.91-73.2Zm0-79.39L923,1500h-1v-81.65l82.25-82.07Zm0-92v.87L922,1411.73v-82.56l82.25-80.37Zm0-86L922,1323v-82.62l82.25-82.07Zm0-92v.87L922,1233.73v-82.56l82.25-80.37Zm0-86L922,1145v-82.62l82.25-82.07Zm0-92v.87L922,1055.73V973.17l82.25-80.37Zm0-86L922,967V884.35l82.25-82.07Zm0-92v.87L922,877.73V795.17l82.25-80.37Zm0-86L922,789V706.35l82.25-82.07Zm0-92v.87L922,699.73V617.17l82.25-80.37Zm0-86L922,611V528.35l82.25-82.07Zm0-92v.87L922,521.73V439.17l82.25-80.37Zm0-86L922,433V350.35l82.25-82.07Zm0-92v.87L922,343.73V261.17l82.25-80.37Zm0-86L922,255V172.35l82.25-82.07Zm0-92v.87L922,165.73V83.17L1004.25,2.8Zm3.5,1417.39v-72l74.8,72Zm82.25,0h-1l-81.2-78.22v-83.1l46,44.32,36.28,35.36Zm0-88.18-34.22-33-48-46.8V1250l82.25,79.23Zm0-88.81-82.25-79.23v-83.1l46,44.32,36.28,35.36Zm0-89.19-34.22-33-48-46.8V1072l82.25,79.23Zm0-88.81-82.25-79.23v-83.1l46,44.32,36.28,35.36Zm0-89.19-34.22-33-48-46.8V894L1090,973.18Zm0-88.81-82.25-79.23v-83.1l46,44.32L1090,884.36Zm0-89.19-34.22-33-48-46.8V716L1090,795.18Zm0-88.81-82.25-79.23v-83.1l46,44.32L1090,706.36Zm0-89.19-34.22-33-48-46.8V538L1090,617.18Zm0-88.81-82.25-79.23v-83.1l46,44.32L1090,528.36Zm0-89.19-34.22-33-48-46.8V360L1090,439.18Zm0-88.81-82.25-79.23v-83.1l46,44.32L1090,350.36Zm0-89.19-34.22-33-48-46.8V182L1090,261.18Zm0-88.81-82.25-79.23V92.68l46,44.32L1090,172.36Zm0-89.19-34.22-33-48-46.8V4L1090,83.18ZM1175.25,1500h-74.91l74.91-73.2Zm0-79.39L1094,1500h-1v-81.65l82.25-82.07Zm0-92v.87L1093,1411.73v-82.56l82.25-80.37Zm0-86L1093,1323v-82.62l82.25-82.07Zm0-92v.87L1093,1233.73v-82.56l82.25-80.37Zm0-86L1093,1145v-82.62l82.25-82.07Zm0-92v.87L1093,1055.73V973.17l82.25-80.37Zm0-86L1093,967V884.35l82.25-82.07Zm0-92v.87L1093,877.73V795.17l82.25-80.37Zm0-86L1093,789V706.35l82.25-82.07Zm0-92v.87L1093,699.73V617.17l82.25-80.37Zm0-86L1093,611V528.35l82.25-82.07Zm0-92v.87L1093,521.73V439.17l82.25-80.37Zm0-86L1093,433V350.35l82.25-82.07Zm0-92v.87L1093,343.73V261.17l82.25-80.37Zm0-86L1093,255V172.35l82.25-82.07Zm0-92v.87L1093,165.73V83.17L1175.25,2.8Zm3.5,1417.39v-72l74.8,72Zm82.25,0h-1l-81.2-78.22v-83.1l46,44.32,36.28,35.36Zm0-88.18-34.22-33-48-46.8V1250l82.25,79.23Zm0-88.81-82.25-79.23v-83.1l46,44.32,36.28,35.36Zm0-89.19-34.22-33-48-46.8V1072l82.25,79.23Zm0-88.81-82.25-79.23v-83.1l46,44.32,36.28,35.36Zm0-89.19-34.22-33-48-46.8V894L1261,973.18Zm0-88.81-82.25-79.23v-83.1l46,44.32L1261,884.36Zm0-89.19-34.22-33-48-46.8V716L1261,795.18Zm0-88.81-82.25-79.23v-83.1l46,44.32L1261,706.36Zm0-89.19-34.22-33-48-46.8V538L1261,617.18Zm0-88.81-82.25-79.23v-83.1l46,44.32L1261,528.36Zm0-89.19-34.22-33-48-46.8V360L1261,439.18Zm0-88.81-82.25-79.23v-83.1l46,44.32L1261,350.36Zm0-89.19-34.22-33-48-46.8V182L1261,261.18Zm0-88.81-82.25-79.23V92.68l46,44.32L1261,172.36Zm0-89.19-34.22-33-48-46.8V4L1261,83.18ZM1346.25,1500h-74.91l74.91-73.2Zm0-79.39L1265,1500h-1v-81.65l82.25-82.07Zm0-92v.87L1264,1411.73v-82.56l82.25-80.37Zm0-86L1264,1323v-82.62l82.25-82.07Zm0-92v.87L1264,1233.73v-82.56l82.25-80.37Zm0-86L1264,1145v-82.62l82.25-82.07Zm0-92v.87L1264,1055.73V973.17l82.25-80.37Zm0-86L1264,967V884.35l82.25-82.07Zm0-92v.87L1264,877.73V795.17l82.25-80.37Zm0-86L1264,789V706.35l82.25-82.07Zm0-92v.87L1264,699.73V617.17l82.25-80.37Zm0-86L1264,611V528.35l82.25-82.07Zm0-92v.87L1264,521.73V439.17l82.25-80.37Zm0-86L1264,433V350.35l82.25-82.07Zm0-92v.87L1264,343.73V261.17l82.25-80.37Zm0-86L1264,255V172.35l82.25-82.07Zm0-92v.87L1264,165.73V83.17L1346.25,2.8Zm3.5,1417.39v-72l74.8,72Zm82.25,0h-1l-81.2-78.22v-83.1l46,44.32,36.28,35.36Zm0-88.18-34.22-33-48-46.8V1250l82.25,79.23Zm0-88.81-82.25-79.23v-83.1l46,44.32,36.28,35.36Zm0-89.19-34.22-33-48-46.8V1072l82.25,79.23Zm0-88.81-82.25-79.23v-83.1l46,44.32,36.28,35.36Zm0-89.19-34.22-33-48-46.8V894L1432,973.18Zm0-88.81-82.25-79.23v-83.1l46,44.32L1432,884.36Zm0-89.19-34.22-33-48-46.8V716L1432,795.18Zm0-88.81-82.25-79.23v-83.1l46,44.32L1432,706.36Zm0-89.19-34.22-33-48-46.8V538L1432,617.18Zm0-88.81-82.25-79.23v-83.1l46,44.32L1432,528.36Zm0-89.19-34.22-33-48-46.8V360L1432,439.18Zm0-88.81-82.25-79.23v-83.1l46,44.32L1432,350.36Zm0-89.19-34.22-33-48-46.8V182L1432,261.18Zm0-88.81-82.25-79.23V92.68l46,44.32L1432,172.36Zm0-89.19-34.22-33-48-46.8V4L1432,83.18Z" style="fill: #050505;opacity: 0.18"/>
</g>  <g id="base">
<rect y="1330.87" width="1500" height="168.98" style="fill: #debf8c"/>
</g>  <g id="land">
<rect x="0.46" y="1028.55" width="1500.11" height="302.58" style="fill: #d33e20"/>
</g>  <g id="city">
    <polygon points="502 493 548 443 587 493 587 1018 502 1018 502 493" style="fill: #fff3a9"/>
    <polygon points="1273.44 1026.83 1273.08 948.02 1200.28 922.85 1119.74 930.66 1038.95 890.22 974.14 881.5 931.46 908.1 923.46 917.64 882.68 930.66 871.11 958.33 875.25 1024.93 1273.44 1026.83" style="fill: #cccbca;stroke: #000;stroke-miterlimit: 10;stroke-width: 3px"/>
    <line x1="0.12" y1="1028.95" x2="1500.12" y2="1028.95" style="fill: #ffc0f9;stroke: #000;stroke-miterlimit: 10;stroke-width: 3px"/>
    <path d="M1157,652.5h-42s-1-13-11-13-9,10-9,10-7-25-28-25-30,26-30,26-16-4-20,2-3,17-3,17H978" style="fill: none;stroke: #000;stroke-miterlimit: 10;stroke-width: 3px"/>
    <path d="M147.92,476.81s9.23-16.19,21.61-17.59S187.36,477,187.36,477s6.52-12.93,17-14.58,21.52,14.35,21.52,14.35" style="fill: none;stroke: #000;stroke-miterlimit: 10;stroke-width: 3px"/>
    <path d="M846.15,240.08l8.27,2.23-5.5,1.48a8.52,8.52,0,0,0-6,6l-1.48,5.5-1.76-6.54a6.66,6.66,0,0,0-4.7-4.7l-6.54-1.76,6.48-1.75a6.73,6.73,0,0,0,4.77-4.77l1.75-6.48,2.23,8.27A3.53,3.53,0,0,0,846.15,240.08Z" style="fill: none;stroke: #000;stroke-miterlimit: 10;stroke-width: 2px"/>
    <path d="M305.15,306.08l8.27,2.23-5.5,1.48a8.52,8.52,0,0,0-6,6l-1.48,5.5-1.76-6.54a6.66,6.66,0,0,0-4.7-4.7l-6.54-1.76,6.48-1.75a6.73,6.73,0,0,0,4.77-4.77l1.75-6.48,2.23,8.27A3.53,3.53,0,0,0,305.15,306.08Z" style="fill: none;stroke: #000;stroke-miterlimit: 10;stroke-width: 2px"/>
    <path d="M1147.15,722.08l8.27,2.23-5.5,1.48a8.52,8.52,0,0,0-6,6l-1.48,5.5-1.76-6.54a6.66,6.66,0,0,0-4.7-4.7l-6.54-1.76,6.48-1.75a6.73,6.73,0,0,0,4.77-4.77l1.75-6.48,2.23,8.27A3.53,3.53,0,0,0,1147.15,722.08Z" style="fill: none;stroke: #000;stroke-miterlimit: 10;stroke-width: 2px"/>
    <path d="M1168.36,423.37s.71-9.26,7.84-9.26,6.41,7.12,6.41,7.12,5-17.82,20-17.82S1224,422,1224,422s11.41-2.85,14.26,1.42,2.14,12.12,2.14,12.12" style="fill: none;stroke: #000;stroke-miterlimit: 10;stroke-width: 3px"/>
    <path d="M586.15,319.08l8.27,2.23-5.5,1.48a8.52,8.52,0,0,0-6,6l-1.48,5.5-1.76-6.54a6.66,6.66,0,0,0-4.7-4.7l-6.54-1.76,6.48-1.75a6.73,6.73,0,0,0,4.77-4.77l1.75-6.48,2.23,8.27A3.53,3.53,0,0,0,586.15,319.08Z" style="fill: none;stroke: #000;stroke-miterlimit: 10;stroke-width: 2px"/>
    <path d="M396.15,453.08l8.27,2.23-5.5,1.48a8.52,8.52,0,0,0-6,6l-1.48,5.5-1.76-6.54a6.66,6.66,0,0,0-4.7-4.7l-6.54-1.76,6.48-1.75a6.73,6.73,0,0,0,4.77-4.77l1.75-6.48,2.23,8.27A3.53,3.53,0,0,0,396.15,453.08Z" style="fill: none;stroke: #000;stroke-miterlimit: 10;stroke-width: 2px"/>
    <path d="M1285.15,671.08l8.27,2.23-5.5,1.48a8.52,8.52,0,0,0-6,6l-1.48,5.5-1.76-6.54a6.66,6.66,0,0,0-4.7-4.7l-6.54-1.76,6.48-1.75a6.73,6.73,0,0,0,4.77-4.77l1.75-6.48,2.23,8.27A3.53,3.53,0,0,0,1285.15,671.08Z" style="fill: none;stroke: #000;stroke-miterlimit: 10;stroke-width: 2px"/>
    <g>
      <polygon points="310 1028.81 310 682.51 439.39 579.76 439.39 1028.81 310 1028.81" style="fill: #2eaecc;stroke: #000;stroke-miterlimit: 10;stroke-width: 3px"/>
      <polygon points="357.57 646.36 357.57 488.43 366.95 464.98 376.6 440.86 439.39 486.53 439.39 579.76 357.57 646.36" style="fill: #2eaecc;stroke: #000;stroke-miterlimit: 10;stroke-width: 3px"/>
      <polyline points="391.82 457.99 374.69 473.21 374.69 830.93 437.48 973.63" style="fill: none;stroke: #000;stroke-miterlimit: 10;stroke-width: 3px"/>
      <polyline points="310 973.63 392.35 871.05 439.39 779.96 310 682.51" style="fill: none;stroke: #000;stroke-miterlimit: 10;stroke-width: 3px"/>
      <polyline points="357.57 488.43 374.69 537.31 357.57 586.23 374.69 631.14 437.48 678.71 374.69 731.5 310 785.89 374.69 830.93 311.9 872.79 389.92 973.63 439.39 873.85 391.82 781.46 376.6 737.69" style="fill: none;stroke: #000;stroke-miterlimit: 10;stroke-width: 3px"/>
      <polyline points="433.68 779.55 391.82 779.55 374.69 830.93" style="fill: none;stroke: #000;stroke-miterlimit: 10;stroke-width: 3px"/>
      <polyline points="310 872.79 391.82 872.79 391.82 973.63" style="fill: none;stroke: #000;stroke-miterlimit: 10;stroke-width: 3px"/>
      <line x1="391.82" y1="786.88" x2="391.82" y2="864.96" style="fill: #2eaecc;stroke: #000;stroke-miterlimit: 10;stroke-width: 3px"/>
      <polyline points="435.58 577.86 374.69 537.9 437.48 492.24" style="fill: #2eaecc;stroke: #000;stroke-miterlimit: 10;stroke-width: 2px"/>
      <line x1="369.94" y1="449.42" x2="369.94" y2="346.68" style="fill: #2eaecc;stroke: #000;stroke-miterlimit: 10;stroke-width: 2px"/>
      <line x1="388.96" y1="346.68" x2="391.06" y2="451.38" style="fill: #2eaecc;stroke: #000;stroke-miterlimit: 10;stroke-width: 2px"/>
    </g>
    <g>
      <rect x="1320.61" y="575.88" width="129.39" height="452.85" style="fill: #60d82e;stroke: #000;stroke-miterlimit: 10;stroke-width: 3px"/>
      <rect x="1325.37" y="477.89" width="119.87" height="97.04" style="fill: #60d82e;stroke: #000;stroke-miterlimit: 10;stroke-width: 3px"/>
      <rect x="1327.27" y="382.75" width="116.07" height="95.14" style="fill: #60d82e;stroke: #000;stroke-miterlimit: 10;stroke-width: 3px"/>
      <polygon points="1441.44 382.75 1332.98 382.75 1338.69 331.38 1435.73 331.38 1441.44 382.75" style="fill: #60d82e;stroke: #000;stroke-miterlimit: 10;stroke-width: 3px"/>
      <polyline points="1348.2 293.32 1357.72 259.07 1412.9 259.07 1422.41 293.32" style="fill: #60d82e;stroke: #000;stroke-miterlimit: 10;stroke-width: 3px"/>
      <polyline points="1344.4 306.64 1344.4 295.22 1428.12 295.22 1428.12 306.64" style="fill: #60d82e;stroke: #000;stroke-miterlimit: 10;stroke-width: 3px"/>
      <polyline points="1338.69 327.57 1338.69 306.64 1433.83 306.64 1433.83 327.57" style="fill: #60d82e;stroke: #000;stroke-miterlimit: 10;stroke-width: 3px"/>
      <line x1="1371.99" y1="260.02" x2="1368.18" y2="292.37" style="fill: #60d82e;stroke: #000;stroke-miterlimit: 10;stroke-width: 3px"/>
      <line x1="1380.55" y1="297.13" x2="1380.55" y2="331.38" style="fill: #60d82e;stroke: #000;stroke-miterlimit: 10;stroke-width: 3px"/>
      <line x1="1373.91" y1="331.38" x2="1373.91" y2="380.85" style="fill: #60d82e;stroke: #000;stroke-miterlimit: 10;stroke-width: 3px"/>
      <line x1="1369.13" y1="386.55" x2="1369.13" y2="475.98" style="fill: #60d82e;stroke: #000;stroke-miterlimit: 10;stroke-width: 3px"/>
      <line x1="1369.13" y1="481.69" x2="1369.13" y2="573.02" style="fill: #60d82e;stroke: #000;stroke-miterlimit: 10;stroke-width: 2px"/>
      <line x1="1368.18" y1="296.17" x2="1368.18" y2="306.64" style="fill: #60d82e;stroke: #000;stroke-miterlimit: 10;stroke-width: 2px"/>
      <line x1="1362.47" y1="309.49" x2="1362.47" y2="326.62" style="fill: #60d82e;stroke: #000;stroke-miterlimit: 10;stroke-width: 2px"/>
      <polyline points="1360.57 332.33 1355.78 382.75 1354.86 475.03" style="fill: #60d82e;stroke: #000;stroke-miterlimit: 10;stroke-width: 2px"/>
      <line x1="1385.31" y1="334.23" x2="1385.31" y2="475.03" style="fill: #60d82e;stroke: #000;stroke-miterlimit: 10;stroke-width: 2px"/>
      <line x1="1430.62" y1="331.38" x2="1430.62" y2="382.75" style="fill: #60d82e;stroke: #000;stroke-miterlimit: 10;stroke-width: 2px"/>
      <line x1="1432.88" y1="385.6" x2="1432.88" y2="475.03" style="fill: #60d82e;stroke: #000;stroke-miterlimit: 10;stroke-width: 2px"/>
      <line x1="1351.06" y1="480.74" x2="1351.06" y2="572.07" style="fill: #60d82e;stroke: #000;stroke-miterlimit: 10;stroke-width: 2px"/>
      <line x1="1387.21" y1="480.74" x2="1387.21" y2="1026.83" style="fill: #60d82e;stroke: #000;stroke-miterlimit: 10;stroke-width: 2px"/>
      <line x1="1436.68" y1="1024.93" x2="1436.68" y2="477.89" style="fill: #60d82e;stroke: #000;stroke-miterlimit: 10;stroke-width: 2px"/>
      <line x1="1387.21" y1="488.49" x2="1434.78" y2="488.49" style="fill: #60d82e;stroke: #000;stroke-miterlimit: 10;stroke-width: 2px"/>
      <line x1="1387.21" y1="499.64" x2="1434.78" y2="499.64" style="fill: #60d82e;stroke: #000;stroke-miterlimit: 10;stroke-width: 2px"/>
      <line x1="1368.18" y1="488.35" x2="1326.32" y2="488.35" style="fill: #60d82e;stroke: #000;stroke-miterlimit: 10;stroke-width: 2px"/>
      <line x1="1326.32" y1="499.64" x2="1368.18" y2="499.64" style="fill: #60d82e;stroke: #000;stroke-miterlimit: 10;stroke-width: 2px"/>
      <line x1="1364.38" y1="577.78" x2="1364.38" y2="1024.93" style="fill: #60d82e;stroke: #000;stroke-miterlimit: 10;stroke-width: 2px"/>
      <line x1="1351.06" y1="1026.83" x2="1351.06" y2="577.78" style="fill: #60d82e;stroke: #000;stroke-miterlimit: 10;stroke-width: 2px"/>
      <line x1="1320.61" y1="589.56" x2="1364.38" y2="589.56" style="fill: #60d82e;stroke: #000;stroke-miterlimit: 10;stroke-width: 2px"/>
      <line x1="1320.61" y1="600.71" x2="1364.38" y2="600.71" style="fill: #60d82e;stroke: #000;stroke-miterlimit: 10;stroke-width: 2px"/>
      <line x1="1387.21" y1="588.12" x2="1436.68" y2="588.12" style="fill: #60d82e;stroke: #000;stroke-miterlimit: 10;stroke-width: 2px"/>
      <line x1="1387.21" y1="600.71" x2="1434.78" y2="600.71" style="fill: #60d82e;stroke: #000;stroke-miterlimit: 10;stroke-width: 2px"/>
      <line x1="1320.61" y1="759.34" x2="1366.28" y2="759.34" style="fill: #60d82e;stroke: #000;stroke-miterlimit: 10;stroke-width: 2px"/>
      <line x1="1364.38" y1="771.21" x2="1320.61" y2="771.21" style="fill: #60d82e;stroke: #000;stroke-miterlimit: 10;stroke-width: 2px"/>
      <line x1="1387.21" y1="760.78" x2="1436.68" y2="760.78" style="fill: #60d82e;stroke: #000;stroke-miterlimit: 10;stroke-width: 2px"/>
      <line x1="1387.21" y1="771.21" x2="1436.68" y2="771.21" style="fill: #60d82e;stroke: #000;stroke-miterlimit: 10;stroke-width: 2px"/>
      <line x1="1392.92" y1="956.43" x2="1392.92" y2="1024.93" style="fill: #60d82e;stroke: #000;stroke-miterlimit: 10;stroke-width: 2px"/>
      <line x1="1398.63" y1="956.43" x2="1398.63" y2="1024.93" style="fill: #60d82e;stroke: #000;stroke-miterlimit: 10;stroke-width: 2px"/>
      <line x1="1406.24" y1="956.43" x2="1406.24" y2="1026.83" style="fill: #60d82e;stroke: #000;stroke-miterlimit: 10;stroke-width: 2px"/>
      <line x1="1411.94" y1="956.43" x2="1411.94" y2="1026.83" style="fill: #60d82e;stroke: #000;stroke-miterlimit: 10;stroke-width: 2px"/>
      <line x1="1419.56" y1="956.43" x2="1419.56" y2="1024.93" style="fill: #60d82e;stroke: #000;stroke-miterlimit: 10;stroke-width: 2px"/>
      <line x1="1425.26" y1="958.33" x2="1425.26" y2="1024.93" style="fill: #60d82e;stroke: #000;stroke-miterlimit: 10;stroke-width: 2px"/>
      <line x1="1430.97" y1="958.33" x2="1430.97" y2="1026.83" style="fill: #60d82e;stroke: #000;stroke-miterlimit: 10;stroke-width: 2px"/>
      <line x1="1379.6" y1="261.92" x2="1379.6" y2="292.37" style="fill: #60d82e;stroke: #000;stroke-miterlimit: 10;stroke-width: 2px"/>
      <path d="M1386.26,260c1,1.9,1,32.35,1,32.35" style="fill: #60d82e;stroke: #000;stroke-miterlimit: 10;stroke-width: 2px"/>
      <line x1="1394.32" y1="260.02" x2="1394.82" y2="294.27" style="fill: #60d82e;stroke: #000;stroke-miterlimit: 10;stroke-width: 2px"/>
      <line x1="1402.43" y1="261.92" x2="1402.43" y2="294.27" style="fill: #60d82e;stroke: #000;stroke-miterlimit: 10;stroke-width: 2px"/>
      <line x1="1408.21" y1="259.07" x2="1410.04" y2="294.27" style="fill: #60d82e;stroke: #000;stroke-miterlimit: 10;stroke-width: 2px"/>
      <line x1="1364.38" y1="260.02" x2="1358.67" y2="294.27" style="fill: #60d82e;stroke: #000;stroke-miterlimit: 10;stroke-width: 2px"/>
    </g>
    <g>
      <rect x="536.76" y="415.45" width="19.22" height="36.52" style="fill: #fff3a9;stroke: #ce1800;stroke-miterlimit: 10;stroke-width: 3px"/>
      <polyline points="496.4 523.07 496.4 496.17 538.69 453.88" style="fill: #fff3a9;stroke: #ce1800;stroke-miterlimit: 10;stroke-width: 3px"/>
      <polyline points="596.35 523.07 596.35 498.09 555.98 451.96" style="fill: #fff3a9;stroke: #ce1800;stroke-miterlimit: 10;stroke-width: 3px"/>
      <line x1="496.4" y1="496.17" x2="596.34" y2="496.17" style="fill: #fff3a9;stroke: #ce1800;stroke-miterlimit: 10;stroke-width: 3px"/>
      <line x1="496.4" y1="512.16" x2="596.34" y2="512.16" style="fill: #fff3a9;stroke: #ce1800;stroke-miterlimit: 10;stroke-width: 3px"/>
      <polyline points="550.36 453.88 566.96 496.17 566.96 961.28" style="fill: #fff3a9;stroke: #ce1800;stroke-miterlimit: 10;stroke-width: 3px"/>
      <polygon points="609.8 1028.55 482.95 1028.55 482.95 981.28 482.95 961.28 609.8 961.28 609.8 1028.55" style="fill: #fff3a9;stroke: #ce1800;stroke-miterlimit: 10;stroke-width: 3px"/>
      <line x1="605.95" y1="980.5" x2="482.95" y2="980.5" style="fill: #fff3a9;stroke: #ce1800;stroke-miterlimit: 10;stroke-width: 3px"/>
      <line x1="502.17" y1="1026.62" x2="502.17" y2="980.5" style="fill: #fff3a9;stroke: #ce1800;stroke-miterlimit: 10;stroke-width: 3px"/>
      <line x1="518.76" y1="1027.58" x2="518.76" y2="980.5" style="fill: #fff3a9;stroke: #ce1800;stroke-miterlimit: 10;stroke-width: 3px"/>
      <line x1="536.76" y1="1026.62" x2="536.76" y2="980.5" style="fill: #fff3a9;stroke: #ce1800;stroke-miterlimit: 10;stroke-width: 3px"/>
      <line x1="554.06" y1="1024.7" x2="554.06" y2="980.5" style="fill: #fff3a9;stroke: #ce1800;stroke-miterlimit: 10;stroke-width: 3px"/>
      <line x1="573.28" y1="1026.62" x2="573.28" y2="980.5" style="fill: #fff3a9;stroke: #ce1800;stroke-miterlimit: 10;stroke-width: 3px"/>
      <line x1="592.5" y1="1026.62" x2="592.5" y2="980.5" style="fill: #fff3a9;stroke: #ce1800;stroke-miterlimit: 10;stroke-width: 3px"/>
      <rect x="482.95" y="523.07" width="73.03" height="434.36" style="fill: #fff3a9;stroke: #ce1800;stroke-miterlimit: 10;stroke-width: 3px"/>
      <rect x="577.13" y="523.07" width="32.67" height="438.2" style="fill: #fff3a9;stroke: #ce1800;stroke-miterlimit: 10;stroke-width: 3px"/>
      <rect x="496.4" y="711.42" width="53.81" height="244.09" style="fill: #fff3a9;stroke: #ce1800;stroke-miterlimit: 10;stroke-width: 3px"/>
      <polygon points="538.69 557.67 538.69 544.22 506.86 544.22 506.01 557.67 496.4 558.06 496.4 703.74 546.37 703.74 546.37 559.08 538.69 557.67" style="fill: #fff3a9;stroke: #ce1800;stroke-miterlimit: 10;stroke-width: 3px"/>
      <g>
        <line x1="506.97" y1="600.91" x2="506.97" y2="681.63" style="fill: #fff3a9;stroke: #ce1800;stroke-miterlimit: 10;stroke-width: 2px"/>
        <line x1="516.58" y1="589.38" x2="516.58" y2="681.63" style="fill: #fff3a9;stroke: #ce1800;stroke-miterlimit: 10;stroke-width: 2px"/>
        <line x1="522.35" y1="581.69" x2="522.35" y2="681.63" style="fill: #fff3a9;stroke: #ce1800;stroke-miterlimit: 10;stroke-width: 2px"/>
        <line x1="531.96" y1="589.38" x2="531.96" y2="681.63" style="fill: #fff3a9;stroke: #ce1800;stroke-miterlimit: 10;stroke-width: 2px"/>
        <line x1="537.73" y1="600.91" x2="537.73" y2="681.63" style="fill: #fff3a9;stroke: #ce1800;stroke-miterlimit: 10;stroke-width: 2px"/>
      </g>
      <line x1="512.74" y1="727.76" x2="512.74" y2="825.78" style="fill: #fff3a9;stroke: #ce1800;stroke-miterlimit: 10;stroke-width: 2px"/>
      <line x1="522.35" y1="725.84" x2="522.35" y2="825.78" style="fill: #fff3a9;stroke: #ce1800;stroke-miterlimit: 10;stroke-width: 2px"/>
      <line x1="531.96" y1="727.76" x2="531.96" y2="825.78" style="fill: #fff3a9;stroke: #ce1800;stroke-miterlimit: 10;stroke-width: 2px"/>
      <line x1="522.35" y1="854.61" x2="522.35" y2="948.78" style="fill: #fff3a9;stroke: #ce1800;stroke-miterlimit: 10;stroke-width: 2px"/>
      <line x1="593.46" y1="727.76" x2="593.46" y2="825.78" style="fill: #fff3a9;stroke: #ce1800;stroke-miterlimit: 10;stroke-width: 2px"/>
      <polyline points="593.46 662.3 593.46 691.24 593.46 581.69 593.46 611.21" style="fill: #fff3a9;stroke: #ce1800;stroke-miterlimit: 10;stroke-width: 2px"/>
      <polygon points="585.77 702.78 601.15 702.78 601.15 558.63 599.23 558.63 599.23 543.25 589.62 543.25 589.62 560.55 585.77 560.55 585.77 702.78" style="fill: #fff3a9;stroke: #ce1800;stroke-miterlimit: 10;stroke-width: 3px"/>
      <rect x="585.77" y="714.31" width="17.3" height="246.01" style="fill: #fff3a9;stroke: #ce1800;stroke-miterlimit: 10;stroke-width: 2px"/>
      <line x1="510.82" y1="499.05" x2="510.82" y2="512.16" style="fill: #fff3a9;stroke: #ce1800;stroke-miterlimit: 10;stroke-width: 3px"/>
      <line x1="504.49" y1="512.16" x2="504.49" y2="523.07" style="fill: #fff3a9;stroke: #ce1800;stroke-miterlimit: 10;stroke-width: 3px"/>
      <line x1="589.5" y1="512.16" x2="589.5" y2="520.19" style="fill: #fff3a9;stroke: #ce1800;stroke-miterlimit: 10;stroke-width: 3px"/>
      <line x1="585.77" y1="496.17" x2="586.74" y2="511.54" style="fill: #fff3a9;stroke: #ce1800;stroke-miterlimit: 10;stroke-width: 3px"/>
      <polyline points="576.16 493.28 576.16 481.75 516.58 481.75 516.58 496.17" style="fill: #fff3a9;stroke: #ce1800;stroke-miterlimit: 10;stroke-width: 3px"/>
      <line x1="593.46" y1="852.69" x2="593.46" y2="950.71" style="fill: #fff3a9;stroke: #ce1800;stroke-miterlimit: 10;stroke-width: 2px"/>
      <line x1="545.41" y1="326.08" x2="545.41" y2="412.56" style="fill: #fff3a9;stroke: #ce1800;stroke-miterlimit: 10;stroke-width: 2px"/>
    </g>
    <g>
      <path d="M998.25,872.51s30,5.21,41,7.81,60.07,20,65.53,22.57,10,20,10,20l-16.38,14.75S1072,915.91,1056.49,902s-45.5-25.17-68.25-28.64-42.77,6.08-57.33,19.09-15.47,45.13-15.47,45.13l33.67,18.23-12.74-20s9.1-25.17,15.47-30.38,17.29-19.09,35.49-18.22,56.42,10.41,61,13,15.47,10.41,15.47,10.41" style="fill: #fff7ab;stroke: #000;stroke-miterlimit: 10;stroke-width: 3px"/>
      <path d="M1206.65,917.64s11.83-3.47,17.29-5.2,13.65-7.82,13.65-7.82-30.94-13.88-47.32-13c-13,.68-29.42.28-39.74,2.68a22,22,0,0,0-6.67,2.52c-8.19,5.21-20.93,13.89-22.75,20.83l-1.82,5.21h3.64s10-21.7,28.21-24.3,39.13-2.6,44.59,3.47,7.28,8.68,7.28,11.28S1206.65,917.64,1206.65,917.64Z" style="fill: #fff7ab;stroke: #000;stroke-miterlimit: 10;stroke-width: 3px"/>
      <path d="M1093.81,896.81s34.58-1.73,38.22-1.73,13.65-.87,13.65-.87" style="fill: #fff7ab;stroke: #000;stroke-miterlimit: 10;stroke-width: 3px"/>
      <path d="M1057.4,957.57s41.87-13.89,51-18.23,33.67-14.75,48.23-14.75,41.86,6.07,49.14,6.94,30,8.68,35.49,11.28,21.84,9.55,21.84,9.55l21.84.87-1.82-2.61s-1.82.87-10-2.6-25.48-14.75-25.48-14.75-17.29-10.42-29.12-13S1193,915,1183.9,915s-37.31-.87-47.32,1.74-21.84,6.07-21.84,6.07l-16.38,14.75-41,17.36Z" style="fill: #fff7ab;stroke: #000;stroke-miterlimit: 10;stroke-width: 3px"/>
      <polyline points="1289.46 974.92 1198.46 940.21 1187.54 935.87" style="fill: #fff7ab;stroke: #000;stroke-miterlimit: 10;stroke-width: 3px"/>
      <path d="M1143.86,903.76s19.11.86,27.3,1.73,29.12,4.34,29.12,4.34" style="fill: #fff7ab;stroke: #000;stroke-miterlimit: 10;stroke-width: 3px"/>
      <path d="M1156.6,898.55s33.67,3.47,37.31,4.34" style="fill: #fff7ab;stroke: #000;stroke-miterlimit: 10;stroke-width: 3px"/>
      <path d="M1135.67,908.1s52.78,3.47,57.33,4.34a101.69,101.69,0,0,1,10,2.6" style="fill: #fff7ab;stroke: #000;stroke-miterlimit: 10;stroke-width: 3px"/>
      <line x1="1128.89" y1="913.33" x2="1146.59" y2="913.3" style="fill: #fff7ab;stroke: #000;stroke-miterlimit: 10;stroke-width: 3px"/>
      <path d="M896.33,944.55h-18.2s-3.64-17.36-2.73-19.1,1.82-6.94,5.46-6.94,15.47,7.81,15.47,7.81Z" style="fill: #fff7ab;stroke: #000;stroke-miterlimit: 10;stroke-width: 3px"/>
      <line x1="882.68" y1="917.64" x2="915.44" y2="917.64" style="fill: #fff7ab;stroke: #000;stroke-miterlimit: 10;stroke-width: 3px"/>
      <polyline points="887.9 921.27 904.52 934.13 917.26 940.21" style="fill: #fff7ab;stroke: #000;stroke-miterlimit: 10;stroke-width: 3px"/>
      <line x1="979.14" y1="888.13" x2="979.14" y2="981.87" style="fill: #fff7ab;stroke: #000;stroke-miterlimit: 10;stroke-width: 3px"/>
      <line x1="1009" y1="890.22" x2="1009" y2="986.21" style="fill: #fff7ab;stroke: #000;stroke-miterlimit: 10;stroke-width: 3px"/>
      <line x1="1031.01" y1="895.08" x2="1031.01" y2="973.19" style="fill: #fff7ab;stroke: #000;stroke-miterlimit: 10;stroke-width: 3px"/>
      <line x1="1049.12" y1="900.29" x2="1049.12" y2="1006.17" style="fill: #fff7ab;stroke: #000;stroke-miterlimit: 10;stroke-width: 3px"/>
      <line x1="1065.59" y1="910.7" x2="1065.59" y2="950.62" style="fill: #fff7ab;stroke: #000;stroke-miterlimit: 10;stroke-width: 3px"/>
      <line x1="965.49" y1="894.21" x2="965.49" y2="984.47" style="fill: #fff7ab;stroke: #000;stroke-miterlimit: 10;stroke-width: 3px"/>
      <line x1="956.21" y1="900.29" x2="956.21" y2="992.28" style="fill: #fff7ab;stroke: #000;stroke-miterlimit: 10;stroke-width: 3px"/>
      <line x1="935.46" y1="973.19" x2="1081.07" y2="973.19" style="fill: #fff7ab;stroke: #000;stroke-miterlimit: 10;stroke-width: 3px"/>
      <line x1="935.46" y1="989.68" x2="1081.07" y2="989.68" style="fill: #fff7ab;stroke: #000;stroke-miterlimit: 10;stroke-width: 3px"/>
      <line x1="1049.12" y1="974.92" x2="1049.12" y2="1003.57" style="fill: #fff7ab;stroke: #000;stroke-miterlimit: 10;stroke-width: 3px"/>
      <line x1="1065.59" y1="974.92" x2="1065.59" y2="1006.17" style="fill: #fff7ab;stroke: #000;stroke-miterlimit: 10;stroke-width: 3px"/>
      <line x1="1009" y1="977.53" x2="1009" y2="1006.17" style="fill: #fff7ab;stroke: #000;stroke-miterlimit: 10;stroke-width: 3px"/>
      <line x1="979.14" y1="977.53" x2="979.14" y2="1006.17" style="fill: #fff7ab;stroke: #000;stroke-miterlimit: 10;stroke-width: 3px"/>
      <line x1="965.49" y1="974.92" x2="965.49" y2="1006.17" style="fill: #fff7ab;stroke: #000;stroke-miterlimit: 10;stroke-width: 3px"/>
      <line x1="956.21" y1="973.19" x2="956.21" y2="1006.17" style="fill: #fff7ab;stroke: #000;stroke-miterlimit: 10;stroke-width: 3px"/>
      <polyline points="946.5 973.19 946.38 1008.2 946.38 1025.26" style="fill: #fff7ab;stroke: #000;stroke-miterlimit: 10;stroke-width: 3px"/>
      <polyline points="904.52 1006.17 854.47 1006.17 1093.81 1006.17 1093.81 1025.26" style="fill: none;stroke: #000;stroke-miterlimit: 10;stroke-width: 3px"/>
      <polyline points="1266.71 1025.26 1263.1 1025.26 854.47 1025.26" style="fill: #fff7ab;stroke: #000;stroke-miterlimit: 10;stroke-width: 3px"/>
      <line x1="1263.07" y1="964.51" x2="1263.07" y2="1025.26" style="fill: #fff7ab;stroke: #000;stroke-miterlimit: 10;stroke-width: 3px"/>
      <polyline points="1235.77 1008.77 1204.83 1008.77 1204.83 992.28 1237.59 992.28" style="fill: none;stroke: #000;stroke-miterlimit: 10;stroke-width: 3px"/>
      <polyline points="1230.31 988.81 1230.31 954.96 1168.43 954.96 1168.43 1010.51 1134.76 1010.51" style="fill: none;stroke: #000;stroke-miterlimit: 10;stroke-width: 3px"/>
      <path d="M1187.54,972.32s16.38-6.07,24.57-5.21,22.75,5.21,26.39,6.08,11.83,1.73,11.83,1.73" style="fill: none;stroke: #000;stroke-miterlimit: 10;stroke-width: 3px"/>
      <line x1="1134.76" y1="955.83" x2="1168.43" y2="955.83" style="fill: #fff7ab;stroke: #000;stroke-miterlimit: 10;stroke-width: 3px"/>
      <line x1="1167.52" y1="974.92" x2="1134.76" y2="974.92" style="fill: #fff7ab;stroke: #000;stroke-miterlimit: 10;stroke-width: 3px"/>
      <line x1="1167.52" y1="992.28" x2="1134.76" y2="992.28" style="fill: #fff7ab;stroke: #000;stroke-miterlimit: 10;stroke-width: 3px"/>
      <line x1="854.47" y1="989.68" x2="902.7" y2="989.68" style="fill: #fff7ab;stroke: #000;stroke-miterlimit: 10;stroke-width: 3px"/>
      <line x1="854.47" y1="974.92" x2="902.7" y2="974.92" style="fill: #fff7ab;stroke: #000;stroke-miterlimit: 10;stroke-width: 3px"/>
      <line x1="854.47" y1="957.57" x2="902.7" y2="957.57" style="fill: #fff7ab;stroke: #000;stroke-miterlimit: 10;stroke-width: 3px"/>
      <polyline points="868.12 1025.26 868.12 950.62 879.04 944.55" style="fill: #fff7ab;stroke: #000;stroke-miterlimit: 10;stroke-width: 3px"/>
      <line x1="1229.86" y1="1010.07" x2="1229.86" y2="1025.26" style="fill: #fff7ab;stroke: #000;stroke-miterlimit: 10;stroke-width: 3px"/>
      <line x1="1167.97" y1="1010.07" x2="1167.97" y2="1025.26" style="fill: #fff7ab;stroke: #000;stroke-miterlimit: 10;stroke-width: 3px"/>
      <line x1="1075.15" y1="1007.47" x2="1075.15" y2="1025.26" style="fill: #fff7ab;stroke: #000;stroke-miterlimit: 10;stroke-width: 3px"/>
      <line x1="1056.95" y1="1007.47" x2="1056.95" y2="1025.26" style="fill: #fff7ab;stroke: #000;stroke-miterlimit: 10;stroke-width: 3px"/>
      <line x1="1041.29" y1="1006.17" x2="1041.29" y2="1025.26" style="fill: #fff7ab;stroke: #000;stroke-miterlimit: 10;stroke-width: 3px"/>
      <line x1="1024.19" y1="1007.47" x2="1024.19" y2="1025.26" style="fill: #fff7ab;stroke: #000;stroke-miterlimit: 10;stroke-width: 3px"/>
      <line x1="1003.26" y1="1007.47" x2="1003.26" y2="1026.41" style="fill: #fff7ab;stroke: #000;stroke-miterlimit: 10;stroke-width: 3px"/>
      <line x1="917.71" y1="1007.47" x2="917.71" y2="1026.41" style="fill: #fff7ab;stroke: #000;stroke-miterlimit: 10;stroke-width: 3px"/>
      <line x1="931.45" y1="1006.17" x2="931.45" y2="1025.26" style="fill: #fff7ab;stroke: #000;stroke-miterlimit: 10;stroke-width: 3px"/>
      <line x1="939.55" y1="1007.47" x2="939.55" y2="1025.26" style="fill: #fff7ab;stroke: #000;stroke-miterlimit: 10;stroke-width: 3px"/>
      <line x1="959.57" y1="1007.47" x2="959.57" y2="1025.26" style="fill: #fff7ab;stroke: #000;stroke-miterlimit: 10;stroke-width: 3px"/>
      <line x1="974.14" y1="1007.47" x2="974.14" y2="1025.26" style="fill: #fff7ab;stroke: #000;stroke-miterlimit: 10;stroke-width: 3px"/>
      <line x1="988.7" y1="1007.47" x2="988.7" y2="1025.26" style="fill: #fff7ab;stroke: #000;stroke-miterlimit: 10;stroke-width: 3px"/>
    </g>
    <g>
      <path d="M87.72,979.21s6.7,12.73,10,16.08,2,0,6,8,22.11,24.12,22.11,24.12H321.57s-2.68-2.68-6-2.68-1.34-3.35-1.34-3.35,10.72-10,18.09-15.41,26.81-19.43,26.81-19.43-49.25,12.4-62.65,15.08-16.08,2-16.08,2S263.61,1005,254.9,1005c-.94,0-2.52,0-4.58,0-16.93.11-66.44.65-66.44.65l-12.06.67s-20.11-4-26.14-12.06-11.39-14.75-11.39-14.75Z" style="fill: #c69c6d;stroke: #000;stroke-miterlimit: 10;stroke-width: 3px"/>
      <path d="M114.19,966.14h136s-8.71-8-15.41-8.71-103.86,0-103.86,0S120.89,958.1,114.19,966.14Z" style="fill: #c69c6d;stroke: #000;stroke-miterlimit: 10;stroke-width: 3px"/>
      <line x1="199.6" y1="967.45" x2="199.29" y2="1005.51" style="fill: none;stroke: #000;stroke-miterlimit: 10;stroke-width: 3px"/>
      <line x1="223.6" y1="967.45" x2="223.6" y2="1005.45" style="fill: none;stroke: #000;stroke-miterlimit: 10;stroke-width: 3px"/>
      <line x1="250.6" y1="966.45" x2="250.21" y2="1005.68" style="fill: none;stroke: #000;stroke-miterlimit: 10;stroke-width: 3px"/>
      <line x1="160.6" y1="966.45" x2="161.6" y2="1002.95" style="fill: none;stroke: #000;stroke-miterlimit: 10;stroke-width: 3px"/>
      <line x1="179.86" y1="966.14" x2="179.86" y2="1005.68" style="fill: none;stroke: #000;stroke-miterlimit: 10;stroke-width: 3px"/>
      <line x1="133.6" y1="965.45" x2="133.62" y2="978.87" style="fill: none;stroke: #000;stroke-miterlimit: 10;stroke-width: 3px"/>
      <line x1="114.19" y1="966.14" x2="114.19" y2="978.87" style="fill: none;stroke: #000;stroke-miterlimit: 10;stroke-width: 3px"/>
      <line x1="134.1" y1="978.95" x2="250.6" y2="977.95" style="fill: none;stroke: #000;stroke-miterlimit: 10;stroke-width: 3px"/>
      <line x1="145.68" y1="994.29" x2="250.21" y2="994.29" style="fill: none;stroke: #000;stroke-miterlimit: 10;stroke-width: 3px"/>
      <line x1="250.21" y1="975.62" x2="279.31" y2="1004.72" style="fill: none;stroke: #000;stroke-miterlimit: 10;stroke-width: 3px"/>
      <polyline points="252.22 986.91 269.64 1004.34 252.22 990.26 260.93 1004.72" style="fill: none;stroke: #000;stroke-linecap: round;stroke-linejoin: round;stroke-width: 3px"/>
      <polyline points="256.28 981.69 256.28 990.98 261.13 995.82 261.13 987.59 269.12 995.58 269.12 1005.01" style="fill: none;stroke: #000;stroke-miterlimit: 10;stroke-width: 3px"/>
      <line x1="94.41" y1="979.21" x2="94.41" y2="960.46" style="fill: none;stroke: #000;stroke-miterlimit: 10;stroke-width: 3px"/>
      <g>
        <path d="M72.49,888.51S56.66,914.89,56.66,933,65,966.14,65,966.14l45.22-9.79s-7.54-11.31-6-24.88,6-21.85,6-21.85Z" style="fill: #ed1c24;stroke: #000;stroke-miterlimit: 10;stroke-width: 3px"/>
        <line x1="95.64" y1="901.48" x2="95.64" y2="876.45" style="fill: none;stroke: #000;stroke-miterlimit: 10;stroke-width: 3px"/>
        <line x1="64.53" y1="904.06" x2="104.14" y2="931.47" style="fill: none;stroke: #000;stroke-miterlimit: 10;stroke-width: 3px"/>
        <line x1="104.14" y1="938.83" x2="56.66" y2="926.56" style="fill: none;stroke: #000;stroke-miterlimit: 10;stroke-width: 3px"/>
        <path d="M106,947.36s-11.11-1.68-20.71-3.83c-5.93-1.33-28.64-3.47-28.64-3.47" style="fill: none;stroke: #000;stroke-miterlimit: 10;stroke-width: 3px"/>
        <path d="M107.79,951.89s-39.47,2-47.76,2.79" style="fill: none;stroke: #000;stroke-miterlimit: 10;stroke-width: 3px"/>
      </g>
      <path d="M226.09,953.41s20.77-5.36,34.84-4,36.86,2,36.86,2-.67-4.69,0-20.1-1.34-37.52-4-41.54S269,877.7,269,877.7,266.6,881,254.6,886c-12.32,5.13-15,5-15,5l1.9,17.57-4.69,15.41-2,11.39Z" style="fill: #ed1c24;stroke: #000;stroke-miterlimit: 10;stroke-width: 3px"/>
      <path d="M234.6,935s24.32-1,35,.37,27.91,3.2,27.91,3.2" style="fill: none;stroke: #000;stroke-miterlimit: 10;stroke-width: 3px"/>
      <polyline points="236.81 923.93 279.02 923.93 297.79 931.3" style="fill: none;stroke: #000;stroke-miterlimit: 10;stroke-width: 3px"/>
      <path d="M241.5,908.52c4,.67,39.45,6.23,40.88,6.7C287.6,917,297.55,922,297.55,922" style="fill: none;stroke: #000;stroke-miterlimit: 10;stroke-width: 3px"/>
      <polyline points="254.6 885.95 287.07 901.82 297.38 910.5" style="fill: none;stroke: #000;stroke-miterlimit: 10;stroke-width: 3px"/>
      <line x1="286.61" y1="1003.33" x2="286.6" y2="951.45" style="fill: none;stroke: #000;stroke-miterlimit: 10;stroke-width: 3px"/>
      <line x1="286.4" y1="885.45" x2="286.4" y2="863.62" style="fill: none;stroke: #000;stroke-miterlimit: 10;stroke-width: 3px"/>
      <polygon points="327.94 927.95 313.87 949.39 311.86 990.26 356.75 979.54 348.71 949.39 327.94 927.95" style="fill: #ed1c24;stroke: #000;stroke-miterlimit: 10;stroke-width: 3px"/>
      <line x1="314.1" y1="948.95" x2="349.1" y2="949.39" style="fill: none;stroke: #000;stroke-miterlimit: 10;stroke-width: 3px"/>
      <path d="M313.6,959c3,0,38.06,1.51,38.06,1.51" style="fill: none;stroke: #000;stroke-miterlimit: 10;stroke-width: 3px"/>
      <path d="M312.6,982c5-1,42-9,42-9s-37-2-41-2" style="fill: none;stroke: #000;stroke-linejoin: round;stroke-width: 3px"/>
      <line x1="337.26" y1="992.02" x2="337.6" y2="924.45" style="fill: none;stroke: #000;stroke-miterlimit: 10;stroke-width: 3px"/>
      <path d="M118.21,995.63s-2,8,0,9.38a18.13,18.13,0,0,0,5.36,2h4.69Z"/>
      <path d="M139.65,1012.38l2.68,4.69h10v-2.68S145.68,1008.36,139.65,1012.38Z"/>
      <path d="M169.14,1019.08c-.17,1.49,13.4.67,13.4.67s0-4.69-5.36-4.69S169.81,1013.05,169.14,1019.08Z"/>
      <path d="M198,1018.41l12.06,1.34,1.34-4.69a17.85,17.85,0,0,0-9.38-1.34C196.61,1014.39,198,1018.41,198,1018.41Z"/>
      <path d="M226.09,1019.75h14.07l1.34-3.35s-8-1.34-10.05-1.34S222.74,1015.73,226.09,1019.75Z"/>
      <path d="M258.92,1019.75h10.72s2-4-5.36-4.69S258.92,1019.75,258.92,1019.75Z"/>
    </g>
  </g>  <g id="faceBody">
    <g>
      <path d="M765,1154.26s-4.5-20.23,7.5-22.23,26,0,26,0,13-4,16-1,7,2,12-1-37-237-37-237" style="fill: none;stroke: #000;stroke-miterlimit: 10;stroke-width: 3px"/>
      <path d="M640.56,1131s-29.09,18.86-17.12,23.92,23,.11,25-.88,12-1,12,0,16.5-.63,16.5-.63S655.61,1119.06,640.56,1131Z" style="fill: #fff;stroke: #000;stroke-miterlimit: 10;stroke-width: 3px"/>
      <path d="M868.31,1124.62s19,5.9,46.19,7.41c36,2,149-15.3,144-9-8,10-29,11-85,21s-103.79-13.39-103.79-13.39Z" style="fill: #fff;stroke: #000;stroke-miterlimit: 10;stroke-width: 3px"/>
      <path d="M672.5,753s-21,7-24,11-6,21-6,21-7,33-8,35-16,110-18,113-13,32-15,38-12,20-14,26-32,77-32,77,0,12,7,10,70-137,70-152,10-52,10-55,7-72,7-72l19-13" style="fill: #fff;stroke: #000;stroke-miterlimit: 10;stroke-width: 3px"/>
      <g>
        <path d="M692.5,673.43l-60-12s-46-13-55-58c-5.15-25.74-15-111-15-111s24-160,32-171,5-32,18-36,18,8,25,28,10,45,10,45l7,37,3,52,10,3s19-12,43-12c12.54,0,50,4,50,4l47,8,17-52,28-65s16-36,23-33,15,26,15,26l9,52v27l10,50v72l-10,66s-29,66-60,74-69,9-69,14,9,24,9,24l8,35,68-7,56-15,24-116,20-58s14-10,22-8-2,48-15,73c-10.24,19.7-18,80-18,80l-17,52-66,14-63,14,53,283,23,105s-107,2-194-4c-8.23-.57-44-41-39-51s26-357,31-362,22-50,22-50Z" style="fill: #fff;stroke: #000;stroke-miterlimit: 10;stroke-width: 3px"/>
        <path d="M603,329.43s10-28,18-22,28,87,28,87v69s-32-6-46,0L574.84,475.5Z" style="fill: #f50"/>
        <path d="M827.24,455.26c-1-3,27.46-92.87,27.46-92.87s18.39-55.55,23.28-44.7,14.52,57.56,14.52,57.56-3,33.31-.06,39.33,3.65,72-.36,75S827.24,455.26,827.24,455.26Z" style="fill: #f50"/>
        <path d="M765,1154.66s-4.5-20.23,7.5-22.23,26,0,26,0,13-4,16-1,7,2,12-1-37-237-37-237" style="fill: none;stroke: #000;stroke-miterlimit: 10;stroke-width: 3px"/>
        <path d="M640.56,1131.39s-29.09,18.86-17.12,23.92,23,.11,25-.89,12-.94,12,.06,16.5-.63,16.5-.63S655.61,1119.46,640.56,1131.39Z" style="fill: #fff;stroke: #000;stroke-miterlimit: 10;stroke-width: 3px"/>
        <path d="M868.31,1125s19,5.9,46.19,7.41c36,2,149-15.3,144-9-8,10-29,11-85,21S869.71,1131,869.71,1131Z" style="fill: #fff;stroke: #000;stroke-miterlimit: 10;stroke-width: 3px"/>
        <path d="M672.5,753.43s-21,7-24,11-6,21-6,21-7,33-8,35-16,110-18,113-13,32-15,38-12,20-14,26-32,77-32,77,0,12,7,10,70-137,70-152,10-52,10-55,7-72,7-72l19-13" style="fill: #fff;stroke: #000;stroke-miterlimit: 10;stroke-width: 3px"/>
      </g>
    </g>
  </g>  <g id="bell">
    <path d="M690,713s27,14,46,13,46-18,46-18" style="fill: none;stroke: #ff4200;stroke-miterlimit: 10;stroke-width: 6px"/>
    <g>
      <path d="M757.66,749.68s-5-17-9.35-22.46-12.68-10.29-15.2-10-9.16,7-12.68,17.32,1,12,1,12l10.75.69s1.39,5.83,0,5.44A131,131,0,0,1,717,747.4s5.89,9.81,13.64,13.78c.52.27,0,1.92,0,1.92l-15.52-4.83s10.19,10.08,13.15,11.45c.71.33-.57,2.82-.57,2.82l-13.11-5.71,10.9,11.84-.39,1.24-12.56-5.54s-1.37,1.48,3.12,5.6a23.5,23.5,0,0,0,7.62,4.83l-.46,1.49L712,783.17s1.61,4.59,3.17,6.44,5.15,3,5.15,3l-1.19.49a77.32,77.32,0,0,0-10.28.64c-4.77.69-16.38,9.29-16.38,9.29s19.29,2.45,21.31,2.81,27.64,10.77,27.64,10.77-.82-10-7.38-15.29-7.69-4.78-7.69-4.78l.86-1.8a5.52,5.52,0,0,0,3.12-.11c1.69-.56,9.46-3.06,9.46-3.06l-10.39-3.42.54-1.74s.54.9,2.63,1,8.87-2.15,8.87-2.15l-10-4h0a22,22,0,0,0,5,.57c2.45-.06,10.72-3.21,10.72-3.21l-12.71-3.68.86-1.8s3-.27,5.45-.32,10.77-2.38,10.77-2.38l-14.11-4,0-2.24a69.22,69.22,0,0,0,7.28.06c1.89-.23,11.58-4,11.58-4l-15.42-3.25L742,749.7s10.78,3.35,11.69,3.36S757.66,749.68,757.66,749.68Z" style="fill: #7c9da5;stroke: #000;stroke-miterlimit: 10;stroke-width: 2px"/>
      <path d="M755.08,750.87s-2.81-15.78-6.72-20.92-10.91-11-13.22-10.65-8.45,6.79-11.82,16.73-.48,9.53-.48,9.53l10.54.66s0,.93.08,2.17a33.76,33.76,0,0,1-.12,5.93c-.37,1.19-13.31-4.15-13.31-4.15s11.74,11,12.24,11.14-.61,3.73-.61,3.73l-13.42-4.7s11.41,8.52,11.76,9.15-1.48,4.77-1.48,4.77l-11-5.26,9.85,9.08-1,3.1L715,776.07s-.32.16,3.35,3.4a26,26,0,0,0,6.87,4.49l-.78,3.42-9.8-3s1.67,2.61,3.05,4.35,4.66,2.76,4.66,2.76l-.82,2.62a68.65,68.65,0,0,0-10.91.53c-4.36.74-13.81,7.21-13.81,7.21s17.54,2.06,19.38,2.37S739.27,815,739.27,815s-1.22-8.49-7.12-13.46-6.64-5.21-6.64-5.21l.71-3.18s3.67.62,5.22.06,4.73-1.93,4.73-1.93L728.06,789l1.11-3.58a20.91,20.91,0,0,0,4.42.85c1.91.07,6.17-1.22,6.17-1.22l-10-3.12.92-2.07a32.65,32.65,0,0,0,6.57,1c2.24-.09,7.87-2.26,7.87-2.26l-12.21-3.28,1.51-4a43,43,0,0,0,6.91.83,64.83,64.83,0,0,0,7.89-1.46l-13.31-4.14L737,763s6.25,1.16,8,.91,8.67-3.06,8.67-3.06l-14.29-3.66,2.42-8.66s10.87,3.12,11.7,3.12A2.85,2.85,0,0,0,755.08,750.87Z" style="fill: #b9e0ec"/>
      <ellipse cx="740.84" cy="737.29" rx="3.75" ry="4.47" transform="translate(-183.2 1225.75) rotate(-72.72)" style="fill: none;stroke: #fff;stroke-miterlimit: 10;stroke-width: 3px"/>
    </g>
  </g>  <g id="nose">
    <path d="M726.57,548.76c-3.83,1.15-13,3-7,8s14,13,14,13v20l-16.25.5s12.46,5.61,18,6c5.91.43,21-5,21-5l-18.75-1.5v-24s13-7,15-9S746.57,542.76,726.57,548.76Z"/>
  </g>  <g id="eyes">
    <path d="M906.86,539.69s6.78,19.75-13.09,23.52-76.94,3-89.17-2.54-26.76-16-26.76-16,37.12-26.46,73.29-22.86S905.63,533.73,906.86,539.69Z" style="fill: #03a3db;stroke: #000;stroke-miterlimit: 10"/>
    <path d="M841.43,538.33s-8.29,23.94.49,26.91,16.18-22,16.18-22,8.68-23.87-2.9-20.86S841.43,538.33,841.43,538.33Z"/>
    <path d="M602.2,539.19s27.19,16,55,14,43-11,43-11" style="fill: none;stroke: #000;stroke-miterlimit: 10;stroke-width: 2px"/>
  </g>  <g id="luckyItem">
    <g>
      <path d="M459.22,1094.43c-3.87-3.82-10.25-57.84-10.25-57.84s-21.59-14.18-29.89-27.82-8-21-11.34-24.28S368.83,980,368.83,980s-3.71-7-3.71-13-1.35-41.7-1.35-41.7-7.37-24.22-4-25.31,41.09-3.65,43.3-4.75,11.91-7.91,16.34-15.55,4.77-15.27,9.31-21.55c1.27-1.77-5.46-72.57-5.46-72.57s52.14,20.46,59.47,28.92c3.72,4.29,72.67-14.73,104.22-10.91s84.37,20.89,106,46,22.21,40.76,26.08,53.31a167.84,167.84,0,0,1,5.46,26.74h0L725.49,910s9.51-13.23,18.37-15.41,27.57-2.46,32,9-11,30.27-11,33,9.19,14.33,9.19,14.33l-14.31,8.46-11.07-11.46s-13.28,4.36-17.71,5.45-5.1,1.22-5.1,1.22-10,37.25-22.19,52.53-27.29,27.28-28.38,31.1c-.61,2.17-9.27,54-9.27,54l-61.66-1.09,1.09-20.19s-10.64,1.36-39.42-.27-40.17-3.1-40.17-3.1l-4,25Z"/>
      <path d="M468.52,1080.9c-3.78-3.77-11.32-50.65-11.32-50.65s-21-14-29.1-27.48-7.81-20.75-11.05-24-35.56-9.7-35.56-9.7-5.93-1.62-5.93-7.55V914.12s-3.23-6.47,0-7.54,35.57-6.47,37.72-7.55,10.78-16.16,15.09-23.71,14-16.7,14-18.86-9.7-59.81-9.7-59.81,46.88,23.71,51.73,26.4S545.3,808,576,811.74s86.22,15.62,107.23,40.41,28.56,41,32.34,53.35a118.26,118.26,0,0,1,4.31,25.86l12.93-1.61-3.77-15.63s4.85-9.7,13.47-11.85,20.48-3.78,24.79,7.54-9.7,20.48-9.7,23.17,10.78,15.63,10.78,15.63L759.77,954,749,942.68s-12.94,4.31-17.25,5.39-13.47,1.08-13.47,1.08-5.93,34.49-17.78,49.57-29.64,30.18-30.18,32.34-9.7,49.57-9.7,49.57h-48.5L610,1058s-10.78,7.54-38.8,5.93-51.73-4.31-51.73-4.31l-3.77,24.24Z" style="fill: #ffd7e9"/>
      <circle cx="455.58" cy="891.22" r="14.28" style="fill: #6d1f00;stroke: #000;stroke-miterlimit: 10;stroke-width: 3px"/>
      <path d="M511.36,853.77s30.17-12.4,49.57-12.4,58.2,10.78,58.2,10.78,8.62,2.16,10.78-2.69.54-10.78-2.7-13.48-44.72-11.85-66.28-12.93-56,12.4-56,12.4-8.08,8.08-4.85,14S511.36,853.77,511.36,853.77Z" style="fill: #fff;stroke: #000;stroke-miterlimit: 10;stroke-width: 3px"/>
      <path d="M741.45,915.74s1.08,10.78,4.85,10.78,10.78-10.78,10.78-12.94S752.23,910.89,741.45,915.74Z"/>
      <g>
        <circle cx="565.89" cy="767.18" r="66.58" style="fill: #ff5b00"/>
        <circle cx="565.38" cy="766.75" r="50.62" style="fill: #ffce00"/>
      </g>
    </g>
    <path d="M529.75,1091.82s-4,14.72,4.35,17.83,51.25-29.83,58.48-44.94-13.3-15.3-26.86-1.15S537.29,1077.92,529.75,1091.82Z" style="fill: #fff;stroke: #000;stroke-miterlimit: 10;stroke-width: 3px"/>
  </g><g id="luckyCaption">
  <path d="M577.41,1269.93c1.16-.64,2.25-1.35,3.35-2a2.4,2.4,0,0,1,1.15-.39,2,2,0,0,1,1.68,1.16,3.48,3.48,0,0,1,.32,1.29,2.32,2.32,0,0,1-1.09,1.86c-1.68,1-3.48,2.13-5.41,3.16v20.53c0,4.51-1.93,5.86-6.64,5.86a26.31,26.31,0,0,1-4.7-.45,2.07,2.07,0,0,1-1.86-2.25,3.13,3.13,0,0,1,.06-.71,1.88,1.88,0,0,1,1.93-1.67,2.61,2.61,0,0,1,.65.06,17.91,17.91,0,0,0,3.35.39c2.06,0,2.44-.32,2.44-2.25v-17.07c-2.06,1-4.12,1.94-6,2.71a3,3,0,0,1-1.22.26,2.1,2.1,0,0,1-2.06-1.68,3.51,3.51,0,0,1-.2-1.09,1.92,1.92,0,0,1,1.42-1.87c2.64-1,5.41-2.19,8.11-3.41v-13.13h-7.27c-1.16,0-1.81-1-1.81-2.26s.65-2.19,1.81-2.19h7.27V1244c0-1.29.84-1.93,2.38-1.93s2.39.64,2.39,1.93v10.81h6c1.15,0,1.8.91,1.8,2.19s-.65,2.26-1.8,2.26h-6Zm9-21.11c-1.23,0-1.87-1-1.87-2.26s.64-2.25,1.87-2.25H615c3.93,0,5.93,2,5.86,5.34a65.85,65.85,0,0,1-1.87,15c-1.28,4.32-3.41,5.28-7.85,5.28a37.29,37.29,0,0,1-6.51-.51,2.1,2.1,0,0,1-1.8-2.13,2.38,2.38,0,0,1,.07-.7,2,2,0,0,1,2-1.81,1.52,1.52,0,0,1,.52.07,27.5,27.5,0,0,0,5.15.51c2.51,0,3.35-.64,3.93-2.9a54.47,54.47,0,0,0,1.41-11.9c0-1.23-.51-1.74-2.06-1.74H602.13c-1,11.78-4.89,18.8-13,23.24a3.26,3.26,0,0,1-1.61.45,2.29,2.29,0,0,1-2-1.22,2.74,2.74,0,0,1-.39-1.36,2.1,2.1,0,0,1,1.29-1.93c7-3.86,10.05-8.82,10.82-19.18Zm27.81,25.56c3.87,0,5.54,1.48,5.54,5.27v15.13c0,3.8-1.67,5.28-5.54,5.28h-21.5c-3.87,0-5.54-1.48-5.54-5.28v-15.13c0-3.79,1.67-5.27,5.54-5.27Zm-1.35,21.11c1.35,0,2-.32,2-1.8v-12.94c0-1.48-.65-1.8-2-1.8H594c-1.35,0-2,.32-2,1.8v12.94c0,1.48.65,1.8,2,1.8Z"/>
  <path d="M668.33,1278.5a52.33,52.33,0,0,1-8.5-10.11,207.82,207.82,0,0,1-26.53,2.12c-1.74-.06-2.64-1-2.64-2.25v-.19a2.08,2.08,0,0,1,2.25-2.32,199,199,0,0,0,24.21-1.8,64.85,64.85,0,0,1-3.67-6.89,168.55,168.55,0,0,1-20.41,1.35,2.36,2.36,0,0,1-2.58-2.38,2.22,2.22,0,0,1,2.32-2.38,164.88,164.88,0,0,0,18.48-1.1c-.77-1.74-1.48-3.67-2.25-5.54a2.27,2.27,0,0,1-.26-1.09,2.16,2.16,0,0,1,1.8-2.06,7.07,7.07,0,0,1,1-.13,2.42,2.42,0,0,1,2.39,2c.7,2.12,1.54,4.25,2.32,6.24a125.06,125.06,0,0,0,16.48-3.41,3.18,3.18,0,0,1,1-.19,2,2,0,0,1,2.12,1.74,4.54,4.54,0,0,1,.13.9,2.1,2.1,0,0,1-1.67,2.12,156.85,156.85,0,0,1-16.1,3.41,55.63,55.63,0,0,0,3.61,6.76c5-.84,10-1.86,14.36-3a5.8,5.8,0,0,1,1-.13,2,2,0,0,1,2.25,1.67,4.8,4.8,0,0,1,.13.84c0,1.16-.71,1.8-2.06,2.25-3.67.9-7.92,1.8-12.88,2.64a77.16,77.16,0,0,0,9.59,11.52,3.41,3.41,0,0,1,1.29,2.58,2.9,2.9,0,0,1-2.7,2.9,7,7,0,0,1-3.09-1,36.38,36.38,0,0,0-16.36-3.54c-11.2,0-14.68,3.28-14.68,7.46,0,4.57,4.57,6.76,14.87,6.76a58.13,58.13,0,0,0,16.55-2.44,3.68,3.68,0,0,1,1.16-.2,2.26,2.26,0,0,1,2.32,1.87,4.53,4.53,0,0,1,.13,1,2.52,2.52,0,0,1-1.93,2.51,64.25,64.25,0,0,1-18.55,2.44c-13.2,0-20.09-4.31-20.09-11.71,0-7,6.12-12.11,20.09-12.11a32.87,32.87,0,0,1,14.75,3.29Z"/>
  <path d="M695.62,1258.35a66.27,66.27,0,0,1-6,4.5,2.16,2.16,0,0,1-3.15-.77,3.18,3.18,0,0,1-.39-1.48,2,2,0,0,1,1-1.8,51.91,51.91,0,0,0,6.76-4.9,38.78,38.78,0,0,0-4.64-6.82,2.37,2.37,0,0,1-.51-1.35,2,2,0,0,1,1-1.68,2.81,2.81,0,0,1,1.61-.58,1.93,1.93,0,0,1,1.55.78,44.12,44.12,0,0,1,4.44,6.43,45.15,45.15,0,0,0,5.8-7,2,2,0,0,1,1.73-1,2.56,2.56,0,0,1,1.55.58,2.12,2.12,0,0,1,1,1.74,2.41,2.41,0,0,1-.45,1.35,67.74,67.74,0,0,1-7.54,8.63c2.9,6.82,3.87,14.74,3.87,26.13,0,7.09-.84,12.17-1.8,15.07a6.36,6.36,0,0,1-6.44,4.76,16.14,16.14,0,0,1-5.93-.84,1.78,1.78,0,0,1-1.28-1.86,3.58,3.58,0,0,1,.19-1.1,1.94,1.94,0,0,1,1.87-1.54,1.85,1.85,0,0,1,.57.06,10.65,10.65,0,0,0,3.61.71c1.61,0,2.64-.77,3.28-3a52.06,52.06,0,0,0,1.23-12.36c0-2.26-.07-4.38-.13-6.31a45.83,45.83,0,0,1-8.56,8.37,2.29,2.29,0,0,1-1.42.57,2.33,2.33,0,0,1-1.87-1.09,2.6,2.6,0,0,1-.51-1.48,2.34,2.34,0,0,1,1-1.93,45.08,45.08,0,0,0,10.81-10.49A43,43,0,0,0,695.62,1258.35Zm24.54,1.73c0,1.23-.84,1.81-2.32,1.81s-2.32-.58-2.32-1.81v-5.34h-8.18c-1.15,0-1.8-.9-1.8-2.12s.65-2.26,1.8-2.26h8.18v-6c0-1.22,1-1.87,2.32-1.87s2.32.65,2.32,1.87v6h11v-6.11c0-1.16.9-1.81,2.25-1.81s2.39.65,2.39,1.81v6.11h8.75c1.23,0,1.81,1,1.81,2.26s-.58,2.12-1.81,2.12h-8.75V1260c0,1.22-.91,1.87-2.39,1.87s-2.25-.65-2.25-1.87v-5.28h-11Zm18.61,4c3.6,0,5.34,1.55,5.34,5V1295c0,3.34-1.74,4.89-5.34,4.89H713c-3.55,0-5.28-1.55-5.28-4.89V1269.1c0-3.48,1.73-5,5.28-5Zm-15.65,4.38H714.3c-1.22,0-1.87.39-1.87,1.61v8.76h10.69Zm0,14.55H712.43v10.75c0,1.23.65,1.61,1.87,1.61h8.82Zm16.23-12.94c0-1.22-.65-1.61-1.87-1.61h-9.66v10.37h11.53Zm-1.87,25.3c1.22,0,1.87-.38,1.87-1.61V1283H727.82v12.36Z"/>
  <path d="M778.17,1279.07c-2.25,6.64-4.12,9.53-6.37,11.66a10.54,10.54,0,0,1-7.41,2.83c-6.69,0-12-6.5-12-17.32,0-16,11.21-27.62,28.78-27.62,15.2,0,25.25,9.92,25.25,24.08,0,9.08-3.93,16-10.63,20.22a34.64,34.64,0,0,1-13.52,4.63,2.7,2.7,0,0,1-.71.07,2.49,2.49,0,0,1-2.7-2.26,2,2,0,0,1-.07-.64,2.5,2.5,0,0,1,2.32-2.51c4.7-.65,9.66-2.26,12.88-4.64,4.06-3,7-8.24,7-15,0-10.88-7.15-18.8-18.55-19.18C781.84,1263.17,780.43,1272.19,778.17,1279.07Zm-20.6-2.89c0,7.72,3.28,11.78,6.69,11.78a5.93,5.93,0,0,0,4.32-1.87c1.42-1.35,2.9-4.12,4.44-8.82a96.3,96.3,0,0,0,4.06-23.69C765.29,1254.68,757.57,1263.69,757.57,1276.18Z"/>
  <path d="M822.67,1284c0-3,.12-5.79.38-8.56a72.36,72.36,0,0,1-7.34,6.69,2.51,2.51,0,0,1-1.48.52,2.64,2.64,0,0,1-2.51-2.58,2.45,2.45,0,0,1,1-2c6.44-4.44,14.23-12.68,17.32-18.86a1.62,1.62,0,0,0,.26-.84c0-.45-.39-.71-1.16-.71h-14c-1.16,0-1.81-.9-1.81-2.19s.65-2.25,1.81-2.25h7.4v-9.14c0-1.16,1-1.8,2.45-1.8s2.51.64,2.51,1.8v9.14h4.18c2.52,0,4.13,1.42,4.13,3.6a7.35,7.35,0,0,1-.71,2.84,60.3,60.3,0,0,1-6.7,10,49.75,49.75,0,0,0,8.18,6.82,2.2,2.2,0,0,1,1.22,1.93,2.72,2.72,0,0,1-.51,1.48,2.16,2.16,0,0,1-3.16.58,54.5,54.5,0,0,1-7.08-6.63c.26,3.22.38,5.79.38,8.88v17.64c0,1.16-1,1.81-2.44,1.81s-2.38-.71-2.38-1.81Zm27.49-12.81c-.26,15-4.7,24.27-15.07,30.07a2.92,2.92,0,0,1-1.48.51,2.42,2.42,0,0,1-2.06-1.22,2.55,2.55,0,0,1-.45-1.48,2.29,2.29,0,0,1,1.16-1.94c9.21-5.15,12.94-12.23,13.2-25.94h-1.93c-3.86,0-5.54-1.48-5.54-5.09v-15.32c0-3.67,1.68-5.21,5.54-5.21h20.35c3.79,0,5.53,1.54,5.53,5.21v15.32c0,3.61-1.74,5.09-5.53,5.09h-3.55v23.37c0,1.48.52,1.74,3.61,1.74,2.7,0,3.61-.45,4.06-1.87a41.46,41.46,0,0,0,.71-7.15,1.84,1.84,0,0,1,2.06-1.86H871c1.42.06,2.19.71,2.19,1.93v.13c-.07,3.92-.52,7.66-1.55,10a4.56,4.56,0,0,1-1.86,2.12,12.69,12.69,0,0,1-6.06,1.16h-1.09c-5.86-.06-7-1.41-7-4.7v-24.91Zm12.49-4.44c1.23,0,1.93-.45,1.93-1.87V1252c0-1.48-.7-1.81-1.93-1.81h-17.9c-1.29,0-1.93.33-1.93,1.81v12.87c0,1.42.64,1.87,1.93,1.87Z"/>
  <path d="M894.91,1253.2c2.64,0,4.12,1.67,4.12,3.73a6.11,6.11,0,0,1-.51,2.32,54.07,54.07,0,0,1-7,10.68,34.58,34.58,0,0,0,5.41,4.57,2.39,2.39,0,0,1,1.16,2,2.22,2.22,0,0,1-.39,1.22,2.07,2.07,0,0,1-1.8,1.1,2.41,2.41,0,0,1-1.42-.52,39.3,39.3,0,0,1-4.25-3.92c.2,2.63.39,5.53.39,8.62v17.45c0,1.16-1,1.8-2.38,1.8s-2.45-.71-2.45-1.8V1284c0-2.51.13-5.35.39-8.18a50.9,50.9,0,0,1-6.38,5.73,2.73,2.73,0,0,1-1.67.58,2.44,2.44,0,0,1-1.93-1.09,2.9,2.9,0,0,1-.52-1.55,2.06,2.06,0,0,1,1-1.8c7.08-4.83,13.91-12.49,16.74-18.54a1.71,1.71,0,0,0,.2-.71c0-.45-.33-.77-1-.77H879.39c-1.16,0-1.8-.9-1.8-2.26s.64-2.18,1.8-2.18h6.5v-9.15c0-1.16,1-1.8,2.39-1.8s2.44.64,2.44,1.8v9.15Zm5.67-4.38c-1.16,0-1.74-1-1.74-2.19s.58-2.13,1.74-2.13h34c1.15,0,1.73.91,1.73,2.13s-.58,2.19-1.73,2.19Zm29.1,24.27c3.8,0,5.47,1.41,5.47,5v17.26c0,3.6-1.67,5.08-5.47,5.08H904.89c-3.8,0-5.41-1.48-5.41-5.08V1278c0-3.54,1.61-5,5.41-5Zm-22.34-4.25c-3.48,0-5.09-1.35-5.09-4.64v-6.11c0-3.35,1.61-4.7,5.15-4.7H927c3.67,0,5.28,1.35,5.28,4.7v6.11c0,3.29-1.61,4.64-5.28,4.64Zm7.47,8.24h-8.89c-1.22,0-1.87.32-1.87,1.67v5.67h10.76Zm0,11.2H904.05v6.25c0,1.41.65,1.73,1.87,1.73h8.89Zm-6.12-30.84c-1.22,0-1.8.39-1.8,1.48v4.45c0,1.09.58,1.41,1.73,1.41h17.07c1.29,0,1.87-.32,1.87-1.41v-4.45c0-1.09-.58-1.48-1.87-1.48Zm21.83,21.31c0-1.35-.58-1.67-1.8-1.67h-9.53v7.34h11.33Zm-1.8,17.51c1.22,0,1.8-.32,1.8-1.73v-6.25H919.19v8Z"/>
</g>  <g id="weather">
    <g>
      <path d="M1274.08,237.92s-15.14,18.38-29.83,13.91-22.4-23.3-22.4-23.3-28.84,6.4-36.56-12.43-.74-33.19,7.43-37.21,23.18-2,23.18-2A19.91,19.91,0,0,1,1230.71,161c13.17-3.37,19,2.49,19,2.49s8-14.23,23-12.26,21.21,13,21.21,13a30.47,30.47,0,0,1,24.7,5.79c11.53,9.14,5.21,18.5,5.21,18.5s13.17-3.37,16.87,7.3-7.63,19.37-7.63,19.37,3.69,10.66-2.3,17.51-18.5,5.22-18.5,5.22-.31,8.41-12.73,12.74S1274.08,237.92,1274.08,237.92Z" style="fill: #004070"/>
      <path d="M1205.59,241.48s-15.14,18.38-29.82,13.91-22.41-23.3-22.41-23.3-28.84,6.4-36.55-12.43-.74-33.19,7.42-37.21,23.18-2.06,23.18-2.06a19.91,19.91,0,0,1,14.81-15.87c13.17-3.37,19,2.49,19,2.49s8-14.23,23-12.26,21.21,13,21.21,13a30.49,30.49,0,0,1,24.7,5.78c11.53,9.15,5.21,18.51,5.21,18.51s13.17-3.37,16.87,7.3-7.63,19.36-7.63,19.36,3.69,10.67-2.3,17.52-18.5,5.21-18.5,5.21-.3,8.42-12.73,12.74S1205.59,241.48,1205.59,241.48Z" style="fill: #004070"/>
      <path d="M1202.23,233.83s-15.14,18.38-29.83,13.91-22.4-23.31-22.4-23.31-28.84,6.41-36.56-12.42-.74-33.19,7.43-37.22,23.18-2,23.18-2a19.93,19.93,0,0,1,14.81-15.88c13.17-3.36,19,2.49,19,2.49s8-14.22,23-12.26,21.21,13,21.21,13a30.45,30.45,0,0,1,24.7,5.78c11.53,9.15,5.21,18.5,5.21,18.5s13.17-3.36,16.86,7.3-7.63,19.37-7.63,19.37,3.7,10.67-2.29,17.52-18.5,5.21-18.5,5.21-.31,8.41-12.73,12.74S1202.23,233.83,1202.23,233.83Z" style="fill: #005086"/>
      <path d="M1336.47,222.7s-18.72,22.73-36.88,17.2-27.7-28.81-27.7-28.81-35.66,7.92-45.2-15.37-.91-41,9.18-46,28.66-2.53,28.66-2.53,2-15.48,18.31-19.64,23.52,3.09,23.52,3.09,9.86-17.6,28.43-15.16,26.22,16,26.22,16,16.29-4.16,30.54,7.15,6.44,22.88,6.44,22.88,16.29-4.16,20.85,9-9.43,23.94-9.43,23.94,4.57,13.19-2.84,21.66-22.88,6.45-22.88,6.45-.37,10.4-15.73,15.75S1336.47,222.7,1336.47,222.7Z" style="fill: #0063b4"/>
      <polygon points="1300.61 214.4 1329.88 296.83 1354.37 278.91 1379.31 331.47 1381.69 245.61 1343.61 260.99 1336.44 196.48 1300.61 214.4" style="fill: #004173"/>
      <path d="M1270.72,230.27s-15.14,18.38-29.83,13.91-22.4-23.3-22.4-23.3-28.84,6.4-36.56-12.43-.74-33.19,7.42-37.21,23.18-2.06,23.18-2.06a19.93,19.93,0,0,1,14.81-15.88c13.17-3.36,19,2.5,19,2.5s8-14.23,23-12.26,21.21,13,21.21,13a30.45,30.45,0,0,1,24.7,5.78c11.53,9.15,5.21,18.5,5.21,18.5s13.17-3.36,16.86,7.31-7.63,19.36-7.63,19.36,3.7,10.67-2.29,17.52-18.51,5.21-18.51,5.21-.3,8.41-12.72,12.74S1270.72,230.27,1270.72,230.27Z" style="fill: #005086"/>
      <path d="M1240.93,191.31s-15.14,18.38-29.82,13.91-22.41-23.3-22.41-23.3-28.84,6.4-36.55-12.43-.75-33.19,7.42-37.21,23.18-2.06,23.18-2.06a19.93,19.93,0,0,1,14.81-15.88c13.17-3.36,19,2.5,19,2.5s8-14.23,23-12.26,21.21,13,21.21,13a30.45,30.45,0,0,1,24.7,5.78c11.53,9.15,5.21,18.5,5.21,18.5s13.17-3.36,16.87,7.31-7.63,19.36-7.63,19.36,3.69,10.67-2.3,17.52-18.5,5.21-18.5,5.21-.3,8.41-12.73,12.74S1240.93,191.31,1240.93,191.31Z" style="fill: #004070"/>
      <path d="M1237.57,183.65s-15.14,18.39-29.83,13.91-22.4-23.3-22.4-23.3-28.84,6.41-36.56-12.43-.74-33.19,7.42-37.21,23.19-2.05,23.19-2.05a19.91,19.91,0,0,1,14.81-15.88c13.16-3.37,19,2.49,19,2.49s8-14.23,23-12.26,21.21,13,21.21,13a30.47,30.47,0,0,1,24.7,5.79c11.53,9.15,5.21,18.5,5.21,18.5s13.17-3.37,16.86,7.3-7.63,19.37-7.63,19.37,3.7,10.66-2.29,17.52-18.51,5.21-18.51,5.21-.3,8.41-12.72,12.74S1237.57,183.65,1237.57,183.65Z" style="fill: #0063b4"/>
      <path d="M1340.63,232.17s-18.72,22.72-36.88,17.19-27.7-28.81-27.7-28.81-35.66,7.92-45.2-15.36-.91-41,9.18-46,28.66-2.54,28.66-2.54,2-15.47,18.31-19.63,23.52,3.08,23.52,3.08,9.86-17.59,28.42-15.16,26.23,16,26.23,16,16.28-4.16,30.54,7.15,6.44,22.87,6.44,22.87,16.29-4.16,20.85,9-9.43,24-9.43,24,4.57,13.18-2.84,21.66-22.88,6.44-22.88,6.44-.37,10.4-15.73,15.75S1340.63,232.17,1340.63,232.17Z" style="fill: #004070"/>
      <polygon points="1304.31 205.82 1333.59 288.26 1358.07 270.34 1375.99 316.93 1379.58 238.08 1347.32 252.42 1340.15 187.9 1304.31 205.82" style="fill: #ffb000"/>
      <path d="M1298.06,180.46s14.87,23.79,32.72,20.82,29.74-23.8,29.74-23.8,32.72,11.9,44.61-8.92,5.95-38.66-3-44.61-26.77-6-26.77-6,0-14.87-14.87-20.82-22.61,0-22.61,0-7.13-17.85-25-17.85-26.77,11.9-26.77,11.9-14.87-6-29.74,3S1247.5,115,1247.5,115s-14.88-5.94-20.82,6,5.94,23.8,5.94,23.8-5.94,11.89,0,20.82,20.82,8.92,20.82,8.92-.93,9.87,12.92,16.83S1298.06,180.46,1298.06,180.46Z" style="fill: #004070"/>
      <path d="M1293.84,172s14.87,23.8,32.71,20.82,29.75-23.79,29.75-23.79,32.71,11.89,44.61-8.93,5.95-38.66-3-44.61-26.77-6-26.77-6,0-14.87-14.87-20.82-22.61,0-22.61,0-7.14-17.85-25-17.85-26.77,11.9-26.77,11.9-14.87-6-29.74,3-8.93,20.82-8.93,20.82-14.87-5.95-20.82,5.94,6,23.8,6,23.8-6,11.9,0,20.82,20.82,8.92,20.82,8.92-.93,9.88,12.92,16.84S1293.84,172,1293.84,172Z" style="fill: #008fe5"/>
      <path d="M1204.4,230.72s-11.79,11.79-31.45,7.86-27.53-27.52-23.59-43.25,11.79-19.66,19.66-23.59,19.22,0,19.22,0,8.3-39.32,43.69-39.32S1283,171.74,1283,171.74s31.46-3.93,39.32,15.73,3.93,43.25-19.66,47.18-31.45-7.87-31.45-7.87-7.15,13.41-29.14,12.6A100.51,100.51,0,0,1,1204.4,230.72Z" style="fill: #004070"/>
      <path d="M1202,223.7s-11.8,11.79-31.46,7.86S1143,204,1147,188.31s11.8-19.66,19.66-23.59,19.23,0,19.23,0,8.29-39.32,43.68-39.32,51.12,39.32,51.12,39.32,31.45-3.93,39.32,15.73,3.93,43.25-19.66,47.18-31.46-7.86-31.46-7.86-7.15,13.4-29.13,12.59A100.51,100.51,0,0,1,1202,223.7Z" style="fill: #18a6ed"/>
      <g>
        <path d="M1251.57,245s-17.51,20.89-14,36.72,17.51,16.73,22.73,14c4.56-2.39,9.42-10.19,7.66-22.49S1251.57,245,1251.57,245Z" style="fill: #006ac1"/>
        <path d="M1250.49,246.79s-15.74,19.24-12.24,35,15.78,15,21,12.24c4.53-2.37,8.74-8.74,7-21S1250.49,246.79,1250.49,246.79Z" style="fill: #00d1ff"/>
        <path d="M1241.78,282.76c-2.48-12.33,6.55-27,9.43-31.25-.72-.84-1.17-1.32-1.17-1.32s-13.23,17.21-10.29,31.29c1.2,5.71,3.61,9,6.35,10.68C1244.23,290.17,1242.67,287.16,1241.78,282.76Z" style="fill: #abf3ff"/>
      </g>
      <g>
        <path d="M1188.16,256.06s-15.19,19.5-12.55,34.58,14.43,16.18,18.89,13.68c3.9-2.19,8.16-9.49,6.92-21.2S1188.16,256.06,1188.16,256.06Z" style="fill: #006ac1"/>
        <path d="M1187.21,257.79s-13.66,18-11,32.95,13,14.48,17.45,12c3.87-2.17,7.55-8.14,6.32-19.78S1187.21,257.79,1187.21,257.79Z" style="fill: #00d1ff"/>
        <path d="M1179.14,291.75c-1.84-11.74,6.07-25.46,8.59-29.47-.59-.81-1-1.27-1-1.27s-11.51,16.08-9.32,29.48c.89,5.44,2.86,8.57,5.14,10.25C1181.05,298.82,1179.8,295.94,1179.14,291.75Z" style="fill: #abf3ff"/>
      </g>
      <g>
        <path d="M1154.75,225.19s-11.12,14.29-9.19,25.33,10.57,11.85,13.84,10c2.85-1.6,6-7,5.07-15.53S1154.75,225.19,1154.75,225.19Z" style="fill: #006ac1"/>
        <path d="M1154.06,226.45s-10,13.16-8.09,24.14,9.54,10.61,12.79,8.79c2.83-1.6,5.53-6,4.63-14.49S1154.06,226.45,1154.06,226.45Z" style="fill: #00d1ff"/>
        <path d="M1148.15,251.33c-1.35-8.6,4.44-18.65,6.29-21.59-.44-.59-.71-.93-.71-.93s-8.43,11.78-6.82,21.6c.65,4,2.1,6.28,3.76,7.51A13.89,13.89,0,0,1,1148.15,251.33Z" style="fill: #abf3ff"/>
      </g>
      <g>
        <path d="M1285.39,299.18s-9.32,12-7.7,21.21,8.85,9.93,11.59,8.39c2.39-1.34,5-5.82,4.24-13S1285.39,299.18,1285.39,299.18Z" style="fill: #006ac1"/>
        <path d="M1284.81,300.24s-8.39,11-6.77,20.21,8,8.88,10.7,7.36c2.37-1.34,4.63-5,3.88-12.13S1284.81,300.24,1284.81,300.24Z" style="fill: #00d1ff"/>
        <path d="M1279.86,321.07c-1.13-7.2,3.72-15.62,5.26-18.07-.36-.5-.59-.78-.59-.78s-7,9.86-5.71,18.08c.55,3.34,1.76,5.26,3.15,6.29A11.6,11.6,0,0,1,1279.86,321.07Z" style="fill: #abf3ff"/>
      </g>
    </g>
  </g>
<g id="generation">
  <path d="M47.6,1246.22c0-3.48-.13-6-.39-8.8H57.92a73.58,73.58,0,0,0-.39,8.74v4.92H66v-6.17a64.11,64.11,0,0,0-.39-7.56H76.12a66.51,66.51,0,0,0-.33,7.43v6.3h8.35v-6.37a59.07,59.07,0,0,0-.33-7.36H94.39a60.29,60.29,0,0,0-.4,7.43v6.3h.59a61.13,61.13,0,0,0,7.69-.39v9.85a64.08,64.08,0,0,0-7.69-.39H94v13.6c0,1.77.07,4.07.26,6.56-1.9-.13-3.54-.19-5.71-.19H71.91c-2.16,0-3.94.06-6.11.19.14-1.7.2-3.67.2-5.91v-14.25H57.53v26.4H90a82.81,82.81,0,0,0,9.53-.39v13.18c-3.22-.33-42-.63-42-.63H47.14c.33-3.35.46-6.77.46-10.45v-28.11a66.38,66.38,0,0,0-7.42.39v-9.85a64.51,64.51,0,0,0,7.42.39Zm28.19,13.93v10.9h8.35v-10.9Z"/>
  <path d="M113.7,1275.58c0-3.54,0-4.92.13-7a40.72,40.72,0,0,1-4.93,5.91,44.23,44.23,0,0,0-4.14-11.43,55,55,0,0,0,11.57-18.4,35.46,35.46,0,0,0,2.43-8.34l10.25,3.35a118,118,0,0,1-5.26,13.14v37.57a70,70,0,0,0,.4,8.15H113.3a68.43,68.43,0,0,0,.4-8.15Zm33.84-12.15a51.68,51.68,0,0,0,3.81,13.93,29.77,29.77,0,0,0,4.46,7.16,6,6,0,0,0,1.91,1.57c.85,0,1.64-4.13,2.1-11.23a34.94,34.94,0,0,0,8.68,5.65c-.86,7.49-1.91,11.43-3.82,14.52a6.85,6.85,0,0,1-6,3.55c-3.35,0-6.64-2.11-10.38-6.64-5.59-6.83-9.2-16-10.91-28l-5.19.33a55.58,55.58,0,0,0-6.63.65l-.07-10c1.91.07,2.1.07,2.82.07,1.06,0,3.42-.07,4.54-.13l3.55-.2c-.27-3.94-.27-3.94-.46-11.5a35.07,35.07,0,0,0-.4-5.58l11-.2a31.47,31.47,0,0,0-.33,5.59c0,3.74.07,6.3.4,11l9.19-.52a77.24,77.24,0,0,0-8.73-10.64l8-5.39a82.72,82.72,0,0,1,9.59,10.64l-7.22,5.26,1.77-.07a61,61,0,0,0,7.75-.85l.07,10.24a23.16,23.16,0,0,0-2.83-.13,36.24,36.24,0,0,0-4.2.2Z"/>
  <text transform="translate(200 1290)" style="font-size: 90px;font-family: DoulosSIL, Doulos SIL">15</text>
</g>  <g id="_5element" data-name="5element">
    <circle cx="1006.37" cy="286.97" r="19.97" style="fill: #fa0"/>
    <g>
      <path d="M1016.46,355.06a1.06,1.06,0,0,1-.92.35A40.46,40.46,0,0,1,1013,359h13v2.41H985.6V359h12.51a23.16,23.16,0,0,0-2.2-4.13l2.24-.79h-6v-8.47h27.21v8.47H1014Zm8.6-14.18v2.28H986.52v-2.28Zm-4-15.58v13.12H990.47V325.3h9.22v-3.65l3.38.22c0,.31-.26.53-.79.57v2.86h6.58v-3.65l3.43.22c0,.31-.26.53-.83.57v2.86Zm-27.88,2.19v3.25h6.54v-3.25Zm0,5.4v3.34h6.54v-3.34Zm1.76,14.88v4.17h21.51v-4.17Zm15.23,11.15a33.8,33.8,0,0,0,3-4.83H998.33a19.45,19.45,0,0,1,2.59,4.83l-.22.09h9.61Zm-1.28-31.43h-6.58v3.25h6.58Zm0,5.4h-6.58v3.34h6.58Zm9.4-2.15v-3.25h-6.8v3.25Zm0,5.49v-3.34h-6.8v3.34Z"/>
      <path d="M1004.81,372.86c-.09.53-.62.75-1.45.79-.48,2.46-1.27,6.72-1.8,9.35,2-.22,3.77-.39,4.87-.39,6.67-.09,9,4.34,9,10.93a34.48,34.48,0,0,1-1.49,9.83c-1.37,4.48-4.18,6.63-7.82,6.63-1.8,0-4.17-.75-7.94-3.82a16.71,16.71,0,0,0,1.18-2.68c3.51,2.72,5.36,3.34,6.72,3.34,2.5,0,4-1.58,4.87-4.39a33.18,33.18,0,0,0,1.4-9c0-5-1.66-8-6-7.95a51.58,51.58,0,0,0-5.36.44c-2.19,9-4.78,16.64-9,23.71l-2.9-1.41c4.26-6.8,6.68-13.6,8.74-21.95-2.24.27-5.44.66-7.81,1.06l-.27-3.07c2.15-.27,5.75-.66,8.69-1,.66-3.21,1.37-7.16,1.89-11ZM1025.13,394a26.32,26.32,0,0,0-9.87-15l2.37-1.84c4.65,3.29,9.26,9.35,10.66,15.63Z"/>
    </g>
  </g>
<g id="manekiPower">
  <text transform="translate(205.81 1456.78)" style="font-size: 121.63294982910156px;fill: #070707;font-family: DoulosSIL, Doulos SIL">553,514</text>
  <ellipse cx="82.99" cy="1415.19" rx="49.5" ry="49.5"/>
  <polygon points="82.92 1378.7 99.5 1378.7 81.54 1414.62 99.5 1414.62 68.55 1454.33 83.19 1421.63 67.58 1422.06 82.92 1378.7" style="fill: #fff"/>
  <text text-anchor="middle" transform="translate(1005 447.47)" style="font-size: 37.49140930175781px;font-family:DoulosSIL, Doulos SIL">7</text>
</g><g id="tokenID">
<text text-anchor="end" transform="translate(1450 1298.55)" style="font-size: 49px;font-family: DoulosSIL, Doulos SIL">121</text>
</g>  <g id="logo">
    <path d="M412.51,140.41l-34.29.33-.26-2-.63-.18a104.29,104.29,0,0,1-14.72-5.72l-6.77,1.86c-.39.11-1,.25-3.32.81-3.36.81-9,2.16-15.29,3.74l-10.12,2.54s-3.56-10.09-3.59-10.19c-8.45,2.14-19,3.94-27.51,3.94-6.05,0-10.75-.93-14.39-2.84-1.07-.56-2.33-1.25-3.68-2.09l-.9,4-36.89-4.45.16-1-28.76,8.94-2.28-3.49-17.92,10.06-3.65-7.14a56.94,56.94,0,0,1-17,2.6,34,34,0,0,1-16-3.76l-1,5.35-42.15-7L113,123c.36-3.14.68-8.21,1-15.11l-14.18.69c1,5.49,2.33,12,4,19.37l2.89,12.81-41.83,7.75L61.46,138c-1.72-5.28-3.28-13.16-4.79-24.07a213.34,213.34,0,0,1-2.21-27.48c0-12,1.43-21.08,4.36-27.81C64.76,45,75.72,43.57,80.15,43.57c6.68,0,13.58,3.14,21.71,9.88l.28.23L105.65,57l1.86-1.85C115,47.55,121.65,44,128.5,44a26.65,26.65,0,0,1,23.1,12.34l.16-1.75,10.41-.14h1.68c30.77,0,40.88,4.13,45.53,8.57L225.26,63c1.22-.41,2.52-.8,3.86-1.16a65.15,65.15,0,0,1,13.67-2.24c.91-.05,1.81-.07,2.68-.07,10.49,0,19.06,3.24,25.49,9.63q.6.6,1.17,1.23A43.53,43.53,0,0,1,288.77,61a47.66,47.66,0,0,1,14.08-2.21,43.39,43.39,0,0,1,13,2,39.18,39.18,0,0,1,4.72,1.84c.16-1.15.34-2.36.53-3.62l1.79-12.14,41.85,8.73-2.84,11.7c-.2.83-.39,1.64-.58,2.44,5.07-2,9.61-3.7,13.55-4.93l4.28-15.3,10.47,2.16c2.91.6,25,6.41,33.22,8.48l-1.53,21.43,13.1,2.19c5.27.87,9.86-3.72,9.86-3.72.29-.83,1.27-16.34,1.6-17.1,5.78-13.26,16.46-14.7,20.78-14.7,6.5,0,13.2,3,21.09,9.59L488,58l3.25,3c.59-.58,1.15-1.13,1.66-1.66,7.26-7.32,13.74-10.73,20.41-10.73,12.26,0,21.77,7.08,26.09,19.42a41.63,41.63,0,0,1,1.43,5,45.4,45.4,0,0,1,5-1.87A46,46,0,0,1,559.48,69,42,42,0,0,1,572.09,71a35,35,0,0,1,9.77,4.8l1-.76c8.11-6,18.49-9.1,30.88-9.1,10.36,0,19.45,2.39,27.07,7.12.84-1.54,1.75-3.08,2.71-4.62l5-8L685,75.07l30.1-15.29,5.54,8.45a108.18,108.18,0,0,1,8.83,15.55,48.93,48.93,0,0,1,4.48,19.9c0,10.81-2.82,19.88-8.39,26.95-6.51,8.33-16.15,12.74-27.86,12.74a37.7,37.7,0,0,1-16-3.38,35.11,35.11,0,0,1-14.48,3c-8.78,0-16.16-2.45-22-7.3l-.55.46c-8.13,6.62-18.24,10-30.08,10s-21.81-2.61-29.85-7.78c-8.42,2.55-21.74,5.24-31.78,5.24-5.87,0-10.45-.91-14-2.77-.15-.07-.29-.15-.43-.23l-.55,2.89-41.08-6.78,1.33-11.7c.34-3,.65-7.81.93-14.36l-13.24.65c.95,5.25,2.23,11.42,3.82,18.47l2.84,12.57-40.76,7.55-2.65-8.15L432,144.3ZM236.19,100.59a94.65,94.65,0,0,0,4.44,15.5l1.3,3.34.2-1.19a83.12,83.12,0,0,0,.94-17.53c0-.93-.11-1.69-.19-2.3A17.16,17.16,0,0,0,236.19,100.59ZM608.66,106a12.36,12.36,0,0,0,4.86.84,11.57,11.57,0,0,0,4.67-.76,13.87,13.87,0,0,0-5.55-.92A7.61,7.61,0,0,0,608.66,106ZM679,88.07A42.34,42.34,0,0,0,674.9,95l14.64-.81c-.87-1.25-2-2.84-3.44-4.86l-4-5.54Z" style="fill: #0702b0"/>
    <path d="M401.41,92.58s16.63,9.5,28.33,8.82,28.32-12.21,28.32-12.21" style="fill: none;stroke: #ff2000;stroke-miterlimit: 10;stroke-width: 6px"/>
    <path d="M383.35,129.21c-.61-4.59-.66-12.3-.16-23.56a241,241,0,0,1,2.07-24.37l.05-.32-7.94-1.76L384,55.66l5.29,1.08c3.39.69,10.4,2.39,21.41,5.17l5.75,1.46L412.13,79.1l1.33.17-.92,5.88c-1.61,10.22-2.41,24.74-2.38,43.15v5.76L384,134.3Z" style="fill: #0702b0"/>
    <path d="M409.29,67.54l-3.31,12-21.35-4.71,3.51-12.43Q393,63.44,409.29,67.54Zm-4.94,60.77-15.24.14q-.84-6.31-.12-22.54a236.41,236.41,0,0,1,2-23.73l15.8,2.07Q404.31,100.1,404.35,128.31Z" style="fill: url(#Sky_2)"/>
    <path d="M387.08,113.63l-5.81,13.23a98.76,98.76,0,0,1-15.54-6.21q-7.51-3.7-14.93-7.52.6,3.3,2.5,9.82c-.73.2-8.85,2.09-18.54,4.49-4.14-11.62-5-24.44-5-36.66,0-9.56,1.16-18,3-30.67l18.42,3.81Q346.69,82.35,347,89.58q4-3.42,16.64-8.62a163.15,163.15,0,0,1,17.54-6.32L387,88l-14.83,4.61q-11.13,4-14.24,8,3.81,2.7,13.94,7.12A152.18,152.18,0,0,0,387.08,113.63Z" style="fill: url(#Sky_2-2)"/>
    <path d="M296,129.19c-5.15,0-9-.71-11.84-2.18-7.06-3.68-14.77-9.06-18.47-21.09-2.73-8.87-1.22-17.44,4.5-25.49a37.72,37.72,0,0,1,20.21-14.5,42.69,42.69,0,0,1,12.5-2,38.5,38.5,0,0,1,11.41,1.73c9.31,2.94,15.61,9,18.26,17.65,1.7,5.54,1.44,10.63-.79,15.12l-.07.14a18,18,0,0,1-2.68,3.77l4,19.93-5,1.54C319.64,126.43,306.06,129.19,296,129.19Z" style="fill: #0702b0"/>
    <path d="M327,85.07q1.89,6.14-.45,10.83t-8.68,6.55q-7.75,2.39-30.29,3.13c7.43,7.08,27.22,1.48,35.91-1.19l2.81,13.92c-10.35,3.19-32.14,7.37-39.48,3.55-6.85-3.57-12.63-8-15.6-17.64q-3.27-10.64,3.68-20.43a31.94,31.94,0,0,1,17.19-12.31,34.07,34.07,0,0,1,20.49-.22Q323.83,74.82,327,85.07Zm-14.67,3.46c-.67-2.17-2.64-3.48-5.93-3.94a19.87,19.87,0,0,0-18.55,8.22q20.1-1.14,23.45-2.18c.7-.21,1.12-.45,1.25-.7S312.55,89.3,312.31,88.53Z" style="fill: url(#Sky_2-3)"/>
    <path d="M210.76,127.16c-3.32-5-5.95-12-8-21.34a126.14,126.14,0,0,1-3.08-21.49c-.1-2-.06-5.4.1-10.43l.19-5.6,25.58-.08c1.36-.49,2.81-.94,4.38-1.35a60.11,60.11,0,0,1,12.62-2.06c10.13-.51,18.23,2.15,24.06,7.9s8.83,13.49,9.33,23.43a98.92,98.92,0,0,1-2.49,26.46l-1.14,5.12-26-3.11,1-6a87.67,87.67,0,0,0,1-18.78C248.05,94.4,247,93,247,93l-.09-.13c-.46-.64-2.07-1-4.2-.86-4.57.23-9,2-13.55,5.25a105.08,105.08,0,0,0,5.5,20.41l2.3,5.83-23.8,7.33Z" style="fill: #0702b0"/>
    <path d="M270.12,96.43a92.78,92.78,0,0,1-2.35,24.91L253,119.57a92.78,92.78,0,0,0,1.1-20q-.36-7.31-2.52-10.11-2.58-3.57-9.19-3.25-10,.51-19.54,8.62a114.62,114.62,0,0,0,6.38,25L215.61,124q-4.35-6.61-7.2-19.41A119.62,119.62,0,0,1,205.46,84q-.14-2.7.11-9.94l15,0,.16,3.3q3.57-3,10.7-4.85a54.1,54.1,0,0,1,11.45-1.88q12.71-.64,19.68,6.23T270.12,96.43Z" style="fill: url(#linear-gradient)"/>
    <path d="M189.47,129.88a52.37,52.37,0,0,1-20,4,28.22,28.22,0,0,1-19.68-7.51,25.59,25.59,0,0,1-8.41-19.49c0-10.12,3.77-18.18,11.21-24l1.11-.82,1.94-22.27,5.25-.07h1.62c36.34,0,41.22,5.95,42.83,7.9,5.2,6.33,4.3,23.63,3.64,31.08v9.06c0,3.19,1.11,6.91,3.3,11l2.67,5-22.26,12.38Z" style="fill: #0702b0"/>
    <path d="M207.19,121.52l-12,6.7-3.08-6A47.41,47.41,0,0,1,169.51,128a22.48,22.48,0,0,1-15.76-6,19.88,19.88,0,0,1-6.52-15.21q0-12.4,9-19.38c5.43-4.23,12.49-5.64,21.1-6.34A27.26,27.26,0,0,1,192,83.89l.12,14.43c-3.8-1.75-11-3.7-14.79-3.7q-6.88,0-11.23,2.9a11.19,11.19,0,0,0-5,9.78,6.43,6.43,0,0,0,2.35,5,7.67,7.67,0,0,0,5.35,2.18q10,0,15.76-4.71t6.07-13.41s2.18-13.25-.23-16.65C186,73.52,160,77.59,160,77.59l1-12.07s34.77-.45,39.88,5.78c4.32,5.26,2.32,27.12,2.32,27.12v9.33Q203.21,114,207.19,121.52Z" style="fill: url(#Sky_2-4)"/>
    <path d="M64.72,135.63c-1.62-4.95-3.13-12.5-4.6-23.06a205.33,205.33,0,0,1-2.18-26.68c0-11.16,1.28-19.49,3.91-25.47C66.31,50.31,73.92,48.8,78.07,48.8c5.33,0,11.12,2.72,18.23,8.56l.15.12,7.44,6.86c2.27-2.15,4.25-4.07,5.9-5.72,6.38-6.38,11.81-9.36,17.08-9.36,10.26,0,17.94,5.72,21.61,16.11,2,5.52,3,13,3,22.74,0,18.22-.8,31.31-2.46,40l-1.23,6.49-31.51-5.15L117,123c.52-4.56,1-12.88,1.36-24.73,0-.25,0-.5,0-.75l-2.53,3.72-21.33,1-2.17-2.68c-.69-.87-1.34-1.65-2-2.36.65,5.89,2.28,15.54,5.88,31.35l1.58,6.9-31.28,5.74Z" style="fill: #0702b0"/>
    <path d="M149.89,87.53q0,26.44-2.34,38.73l-18.61-3q.81-7.14,1.4-25.28.58-19.18-.11-19.19-2.46,0-12.88,15.33l-14.51.7q-9.24-11.46-13-11.46-1.41,0-1.41,7.6,0,10.42,6.44,38.62l-18.49,3.39q-2.22-6.78-4.33-21.88A197.86,197.86,0,0,1,70,85.3Q70,55,83.29,55q5.38,0,13.93,7l11.94,11q6.56-6.09,10.65-10.18,7.38-7.38,12.29-7.38,11.11,0,15.21,11.59Q149.89,74.19,149.89,87.53Z" style="fill: url(#Sky_2-5)"/>
    <path d="M701.4,137a31.56,31.56,0,0,1-16.16-4.09,29.57,29.57,0,0,1-14.66,3.76c-10,0-17.7-3.59-23-10.67l0,0C643.21,120,641,112.34,641,103.1c0-10.2,3.57-21,10.63-32.15L654.14,67l28,11.18L677.86,84a50.08,50.08,0,0,0-5.78,10.26,27.58,27.58,0,0,0-2.44,10,7.76,7.76,0,0,0,.94,4.05l.06.09.06.1a2.61,2.61,0,0,0,.44.62,1,1,0,0,0,.09-.15,6,6,0,0,0,.72-3.15v-5.31l23.65-1.3,1.42,3.91c1.27,3.48,2.86,5.74,4.05,5.74.23,0,.72,0,1.59-1.1a4.4,4.4,0,0,0,1.11-2.94,19.81,19.81,0,0,0-2.52-9.73c-.27-.47-1.5-2.46-6.83-9.82L690.56,80,717,66.7l2.75,4.15a101.62,101.62,0,0,1,8.43,14.68,42.73,42.73,0,0,1,4,17.57c0,9.47-2.42,17.32-7.2,23.34C719.45,133.43,711.52,137,701.4,137Z" style="fill: #0702b0"/>
    <path d="M726.57,103.1q0,12.32-6,19.85-6.65,8.43-19.18,8.42-9.54,0-16.08-5.21A24,24,0,0,1,670.58,131q-12.21,0-18.52-8.42-5.43-7.43-5.43-19.52,0-13.74,9.75-29.15l17,6.76a54.66,54.66,0,0,0-6.43,11.42A32.59,32.59,0,0,0,664,104.32a13,13,0,0,0,1.78,7,6.13,6.13,0,0,0,5.54,3.55A5.32,5.32,0,0,0,676,112a11.53,11.53,0,0,0,1.55-6.09l14.19-.78q3.43,9.42,9.32,9.42a7.48,7.48,0,0,0,6-3.21,10,10,0,0,0,2.33-6.43,25.55,25.55,0,0,0-3.21-12.42q-1.11-2-7.21-10.42L715,74a98.39,98.39,0,0,1,8,13.85A37.22,37.22,0,0,1,726.57,103.1Z" style="fill: url(#New_Gradient_Swatch_2)"/>
    <path d="M455.32,137.28c-1.57-4.78-3-12.06-4.45-22.26a199.7,199.7,0,0,1-2.09-25.77c0-10.77,1.23-18.81,3.77-24.58,4.3-9.77,11.66-11.23,15.66-11.23,5.14,0,10.74,2.63,17.6,8.27l.15.12,7.18,6.62c2.2-2.08,4.1-3.93,5.7-5.52,6.16-6.17,11.4-9,16.49-9,9.91,0,17.32,5.53,20.87,15.55,1.92,5.33,2.86,12.53,2.86,22,0,17.6-.78,30.23-2.38,38.63l-1.19,6.26-30.42-5,.71-6.2c.5-4.4.94-12.43,1.31-23.87l0-.73-2.45,3.59-20.6,1L482,102.52c-.67-.84-1.3-1.6-1.88-2.29.63,5.69,2.19,15,5.68,30.28l1.52,6.66-30.2,5.55Z" style="fill: #0702b0"/>
    <path d="M532.51,91.4q0,25.55-2.26,37.4l-18-2.93q.79-6.9,1.36-24.41.55-18.54-.12-18.53-2.37,0-12.43,14.8l-14,.68q-8.93-11.07-12.54-11.08-1.37,0-1.36,7.35,0,10,6.22,37.29l-17.86,3.28q-2.15-6.56-4.18-21.14a191.24,191.24,0,0,1-2-24.86Q455.32,60,468.21,60q5.19,0,13.45,6.78l11.52,10.62q6.33-5.88,10.29-9.83,7.11-7.12,11.86-7.12,10.74,0,14.69,11.19Q532.51,78.52,532.51,91.4Z" style="fill: url(#New_Gradient_Swatch_2-2)"/>
    <path d="M617.45,139.79c-11.06,0-20.34-2.44-27.61-7.26-9.1-6.13-13.7-15-13.7-26.51S580.45,85.37,589,79.11c7.16-5.29,16.49-8,27.72-8,10.56,0,19.58,2.68,26.81,8l0,0c8.41,6.26,12.68,15,12.68,25.89s-4.06,19.6-12.06,26.09C637,136.87,628,139.79,617.45,139.79Zm-1.89-41a12.62,12.62,0,0,0-7.59,2,5.57,5.57,0,0,0-2.55,5.09c0,1.64.45,3,2.61,4.22a16.81,16.81,0,0,0,8.42,1.92,15.67,15.67,0,0,0,8.34-1.92,5,5,0,0,0,2.79-4.78c0-1.52-.36-3.14-3-4.65A18.44,18.44,0,0,0,615.56,98.77Z" style="fill: #0702b0"/>
    <path d="M650.6,105q0,13.64-10,21.73-9.21,7.42-23.17,7.43-15,0-24.51-6.32-11.19-7.55-11.2-21.84,0-14.64,10.54-22.4,9.32-6.87,24.39-6.87,14.08,0,23.51,6.87Q650.59,91.39,650.6,105Zm-17.41.33q0-6.21-5.88-9.53a23.82,23.82,0,0,0-11.75-2.66,18.13,18.13,0,0,0-10.86,3.1,11.11,11.11,0,0,0-4.88,9.65,9.9,9.9,0,0,0,5.43,9.09,22.26,22.26,0,0,0,11.2,2.66q6.87,0,11.31-2.77A10.57,10.57,0,0,0,633.19,105.35Z" style="fill: url(#New_Gradient_Swatch_2-3)"/>
    <path d="M555.23,137.24c-5,0-8.71-.69-11.43-2.11-6.81-3.55-14.25-8.74-17.83-20.36-2.63-8.57-1.17-16.85,4.34-24.62a36.53,36.53,0,0,1,19.52-14,41,41,0,0,1,12.07-1.88,37.23,37.23,0,0,1,11,1.67c9,2.84,15.07,8.73,17.63,17,1.64,5.34,1.38,10.25-.77,14.59l-.07.14a17,17,0,0,1-2.58,3.64L591,130.6l-4.86,1.49C578.11,134.57,565,137.24,555.23,137.24Z" style="fill: #0702b0"/>
    <path d="M585.19,94.63q1.81,5.93-.43,10.46t-8.38,6.33q-7.5,2.31-29.25,3c7.17,6.84,26.28,1.43,34.67-1.15l2.71,13.44c-10,3.08-31,7.12-38.12,3.43-6.61-3.45-12.19-7.73-15.06-17q-3.15-10.26,3.55-19.72a30.88,30.88,0,0,1,16.6-11.89,32.92,32.92,0,0,1,19.78-.21Q582.14,84.74,585.19,94.63ZM571,98q-1-3.15-5.73-3.81a19.19,19.19,0,0,0-17.91,7.94Q566.79,101,570,100a2.1,2.1,0,0,0,1.21-.68A2.7,2.7,0,0,0,571,98Z" style="fill: url(#New_Gradient_Swatch_2-4)"/>
    <g>
      <g>
        <g>
          <g>
            <path d="M475.38,131.52c-1.25-1.47-4.4-2.48-9.09-2.73a39.8,39.8,0,0,0-73.23,28.47c-6.79,6.28-10.55,12.31-7.68,15.68,2.53,3,11.43,2.58,16.53,2.08a39.79,39.79,0,0,0,69.43-32C474.54,140.68,479.31,136.14,475.38,131.52Z" style="fill: #ffd404"/>
            <path d="M428.46,192.46A43.35,43.35,0,0,1,400.35,179c-14,1.05-16.89-2.41-17.89-3.58-2.81-3.31-3.85-9.34,6.46-19.5a43.23,43.23,0,0,1-.41-10.48,43.62,43.62,0,0,1,80-20.31c4.71.5,8,1.81,9.78,3.91a9.28,9.28,0,0,1,2.32,7.22c-.42,3.44-2.79,6.3-5.21,8.39a43,43,0,0,1,.07,7.86A43.67,43.67,0,0,1,428.46,192.46ZM403.51,171l1.29,1.5a36,36,0,0,0,63.06-20.63,36.46,36.46,0,0,0-.3-8.34l-.35-2.31,1.9-1.37c2.72-2,3.8-3.63,3.91-4.54,0-.17.08-.58-.54-1.31-.35-.32-2.15-1.18-6.4-1.41L464,132.5l-1-1.77a36,36,0,0,0-66.18,25.73l.78.47-1.77,2.93c-7.38,6.83-7.75,10.34-7.53,10.6.55.49,4.06,1.65,13.24.75Z" style="fill: #0000b2"/>
          </g>
          <path d="M394.17,161.26l-3.3-6.44c.48-.52,11.85-12.95,33.08-20.73a170.54,170.54,0,0,1,41.71-9.21l.55,7.63a128.59,128.59,0,0,0-39.5,7.24C407.36,146.84,394.27,161.15,394.17,161.26Z" style="fill: #0000b2"/>
        </g>
        <g>
          <path d="M430,165.64a42.83,42.83,0,0,0,4.38,9.32,10.72,10.72,0,1,0-6.37,1.33,48.44,48.44,0,0,1-3.85-8.84Z" style="fill: #0000b2"/>
          <path d="M447.69,181.81l.12-.1s-2.21,1.62-7.58-.91c-2.22-1.05-4.19-3.32-5.81-5.84a10.61,10.61,0,0,1-6.15,1.36l-.22,0c2.22,3.92,5.38,8.07,9.57,10a19.68,19.68,0,0,0,6.85,2c4.73.39,7.15-1.78,7.5-2.12Z" style="fill: #0000b2"/>
          <path d="M434.42,175a42.83,42.83,0,0,1-4.38-9.32l-5.84,1.81a48.44,48.44,0,0,0,3.85,8.84l.22,0A10.61,10.61,0,0,0,434.42,175Z" style="fill: #0000b2"/>
        </g>
      </g>
      <circle cx="423.61" cy="103.73" r="6.89" style="fill: #0000b2"/>
    </g>
  </g>
  <defs>
    <linearGradient id="Sky_2" data-name="Sky 2" x1="406.87" y1="58.34" x2="378.85" y2="155.96" gradientUnits="userSpaceOnUse">
      <stop offset="0" stop-color="#c6e0f5"/>
      <stop offset="0.06" stop-color="#bdddf4"/>
      <stop offset="0.15" stop-color="#a3d4f1"/>
      <stop offset="0.28" stop-color="#7ac7eb"/>
      <stop offset="0.42" stop-color="#40b3e4"/>
      <stop offset="0.57" stop-color="#009edc"/>
      <stop offset="0.87" stop-color="#0077c3"/>
      <stop offset="0.99" stop-color="#005d9b"/>
    </linearGradient>
    <linearGradient id="Sky_2-2" x1="361.62" y1="50.01" x2="354.97" y2="154.01" xlink:href="#Sky_2"/>
    <linearGradient id="Sky_2-3" x1="316.67" y1="61.44" x2="282.63" y2="143.26" xlink:href="#Sky_2"/>
    <linearGradient id="linear-gradient" x1="238.54" y1="60.55" x2="236.14" y2="160.36" gradientUnits="userSpaceOnUse">
      <stop offset="0" stop-color="#c6e0f5"/>
      <stop offset="0.06" stop-color="#bdddf4"/>
      <stop offset="0.15" stop-color="#a3d4f1"/>
      <stop offset="0.28" stop-color="#7ac7eb"/>
      <stop offset="0.42" stop-color="#40b3e4"/>
      <stop offset="0.57" stop-color="#009edc"/>
      <stop offset="0.87" stop-color="#0077c3"/>
    </linearGradient>
    <linearGradient id="Sky_2-4" x1="179.56" y1="61.4" x2="176.38" y2="132.23" xlink:href="#Sky_2"/>
    <linearGradient id="Sky_2-5" x1="98.28" y1="49.18" x2="128.81" y2="163.35" xlink:href="#Sky_2"/>
    <radialGradient id="New_Gradient_Swatch_2" data-name="New Gradient Swatch 2" cx="776.17" cy="46.5" r="423.59" gradientTransform="translate(0 -0.42)" gradientUnits="userSpaceOnUse">
      <stop offset="0" stop-color="#fff700"/>
      <stop offset="0.06" stop-color="#ffea00"/>
      <stop offset="0.24" stop-color="#ffc800"/>
      <stop offset="0.42" stop-color="#ffad00"/>
      <stop offset="0.61" stop-color="#ff9a00"/>
      <stop offset="0.8" stop-color="#ff8f00"/>
      <stop offset="1" stop-color="#ff8b00"/>
    </radialGradient>
    <radialGradient id="New_Gradient_Swatch_2-2" cx="514.22" cy="57.74" r="243.37" xlink:href="#New_Gradient_Swatch_2"/>
    <radialGradient id="New_Gradient_Swatch_2-3" cx="594.62" cy="68.98" r="233.37" xlink:href="#New_Gradient_Swatch_2"/>
    <radialGradient id="New_Gradient_Swatch_2-4" cx="581.66" cy="56.88" r="327.4" xlink:href="#New_Gradient_Swatch_2"/>
  </defs><g id="baseWish">
<rect y="1331.49" width="1500" height="168.98" style="fill: #ffefdc"/>
<path d="M1426.08,1371.31v1.6c0,10.61-.41,18.13-1.59,24a35.9,35.9,0,0,1-5.88,14.38c-.15.2-.82-.31-.72-.57a63.29,63.29,0,0,0,2.89-13.6,175.41,175.41,0,0,0,.93-19.73c0-5.1-.06-7.31-.26-9.84,2.42,1,2.83,1.24,5.35,2.53H1438c2-2.53,2.42-2.84,2.84-2.84s.87.31,2.62,1.91c.83.72,1.09,1.18,1.09,1.59s-.21.52-.78.52h-5a31.35,31.35,0,0,1-4.44,6h4.18c1.28-1.65,1.7-2,2.11-2s.93.31,2.47,1.6c.72.61,1,.92,1,1.33s-.31.83-1.29,1.65v2c0,5.31.16,9.64.16,10.82s-.83,1.65-2.37,1.65c-1.39,0-1.91-.36-1.91-1.6h-1.39v9c0,2.32.11,6.24.11,7.63a4.19,4.19,0,0,1-1.29,3.14,4.93,4.93,0,0,1-3.4,1.24c-.72,0-.88-.21-1-1.29-.1-1.55-1.24-2.52-3.71-3.14-.26,0-.26-.57,0-.57,1.7,0,3.3,0,4.17,0,.62,0,.83-.2.88-1v-15h-1c0,1.13-.83,1.65-2.32,1.65-1.24,0-1.91-.36-1.91-1.29,0-2,.26-4.38.26-12.41q0-3-.15-6a32.22,32.22,0,0,1,4.32,2.58h.62a38.85,38.85,0,0,0,.46-6Zm5.26,28.33c-2.06,4.79-4.95,8.81-7.73,10.82-.21.16-.72-.15-.57-.36a38,38,0,0,0,3.71-9,23.38,23.38,0,0,0,.88-4.69c4.07,1.13,5,1.59,5,2.26C1432.68,1399.08,1432.37,1399.39,1431.34,1399.64Zm7.31-21.17H1432v5.72h6.64Zm-6.64,13.14h6.64v-6.24H1432Zm9.94,15.55c-1.75,0-2.11-.92-2.27-4a14.36,14.36,0,0,0-1.8-6.39.23.23,0,0,1,.36-.26c4.28,2.58,6.18,5.1,6.18,7.78C1444.42,1406,1443.44,1407.16,1442,1407.16Zm11.13,1.6c-5,3.2-7.94,4.28-13.24,5-.26,0-.41-.52-.16-.62a33.56,33.56,0,0,0,7.83-5.36,10.94,10.94,0,0,0,2.58-3.29c3.45,1.75,5.36,3,5.36,3.55S1455,1409,1453.08,1408.76Zm5.3-37.24a44.87,44.87,0,0,1-4.74,6.9h5.62c1.8-2.06,2.21-2.37,2.62-2.37s1,.31,2.89,1.8c.88.72,1.19,1.08,1.19,1.5,0,.61-.42,1.08-1.55,1.65v3.65c0,9.64.21,16.07.21,18.24,0,1.39-1.19,1.85-2.68,1.85-1.29,0-2-.36-2-1.44v-.88h-9.84v.67c0,1-1.18,1.6-2.58,1.6-1.23,0-2-.51-2-1.29,0-2.47.25-4.94.25-14.88,0-4.18,0-8.4-.31-12.62a51.16,51.16,0,0,1,5.16,2.52h1.54c.21-2.32.41-4.59.52-6.9h-4a19.7,19.7,0,0,0-3.25.31l-.56-1.91a17.17,17.17,0,0,0,3.71.41H1460c2-2.68,2.63-3.09,3-3.09s1,.41,2.93,2.16c.83.78,1.24,1.24,1.24,1.6s-.15.52-.67.52Zm1.6,8.08h-9.84v6.24H1460Zm-9.84,13.6H1460V1387h-9.84Zm0,8H1460v-6.85h-9.84Zm14.17,12.47c-.72,0-1.34-.36-1.91-1.39-2-3.66-3.19-5-5.82-6.65-.21-.15,0-.57.21-.51,6.74,1,9.89,2.88,9.89,5.92A2.41,2.41,0,0,1,1464.31,1413.71Z"/>
<path d="M1449.42,1435.49c3.71,1.14,5.3,1.91,5.3,2.53s-.51.93-2.31,1a29.46,29.46,0,0,1-4,3.24h9.32c2.63-3.09,3.25-3.5,3.61-3.5s1,.41,3.45,2.42c1.08.93,1.49,1.39,1.49,1.75s-.15.52-.67.52H1425a41.84,41.84,0,0,0-4.74.31l-.57-1.91a34.38,34.38,0,0,0,5.26.41h9.58c-.52-.3-.82-.92-1.13-2.26a8.58,8.58,0,0,0-2-4c-.16-.2.1-.46.36-.41,4.63.77,6.39,2.16,6.39,4.43a2.27,2.27,0,0,1-1.45,2.21h9.64a34.81,34.81,0,0,0,1.39-3.86,29.69,29.69,0,0,0,.67-2.94h-20.66a38.3,38.3,0,0,0-4.43.31l-.57-1.9a31.33,31.33,0,0,0,5,.41h12.11V1432a27.88,27.88,0,0,0-.31-3.81c6.18.57,6.74,1.13,6.74,1.7s-.56.93-1.64,1.34v3h10.2c2.52-3,3.14-3.4,3.5-3.4s1,.41,3.5,2.37c1.14.93,1.55,1.34,1.55,1.7s-.16.51-.67.51ZM1427.27,1467c0,4-1.86,6.9-4.64,6.9a2.42,2.42,0,0,1-2.57-2.62c0-1.19.51-1.86,2.11-2.58a6,6,0,0,0,4-5.62c0-.25.52-.3.57,0A14,14,0,0,1,1427.27,1467Zm4.79-7.37c0,1.19-1,1.81-2.68,1.81s-2.32-.52-2.32-1.6c0-1.6.26-3.19.26-9.69,0-1.75,0-3.55-.21-5.35a36.86,36.86,0,0,1,5.51,2.42h19.89c1.8-2,2.21-2.27,2.63-2.27s.92.31,2.93,1.91c.93.77,1.24,1.13,1.24,1.54s-.31.83-1.49,1.5v1.59c0,4.12.2,7,.2,7.89,0,1.33-1,2-2.88,2-1.34,0-1.91-.51-1.91-1.7v-.25h-21.17Zm3.91,9.94c0,1.34.73,1.5,6.7,1.5,4.74,0,7.06-.26,8-.93.77-.57,1.18-1.34,2.52-5,.1-.26.67-.21.67.05,0,1.18,0,2.78,0,3.76,0,.82,0,1,1.08,1.54a1.64,1.64,0,0,1,.88,1.39c0,1.19-.93,2-3.15,2.53-2.06.46-5.35.67-10.82.67-8.55,0-10.56-.88-10.56-4.54,0-.77.06-1.39.06-4.63a33.46,33.46,0,0,0-.21-3.87c6,.67,6.44.78,6.44,1.6,0,.46-.36.77-1.55,1.29Zm17.26-21.17h-21.17v4.23h21.17Zm-21.17,9.84h21.17v-4.43h-21.17Zm13.6,10.1c-1.34,0-1.65-.41-2.78-3a11,11,0,0,0-3.25-4.12.27.27,0,0,1,.21-.47c5.41,1,8.09,2.74,8.09,5.16A2.28,2.28,0,0,1,1445.66,1468.31Zm16.64,5.2c-1.44,0-1.81-.41-2.73-3.4a12.55,12.55,0,0,0-3.76-6.33c-.21-.16,0-.52.31-.47,5.66,1.39,8.8,3.87,8.8,7.06C1464.92,1472.22,1463.84,1473.51,1462.3,1473.51Z"/>
<path d="M251.68,1500.47H0v-169H251.68l47.8,82.72a7.4,7.4,0,0,1-.08,7.55Z" style="fill: #ff3600"/>
<path d="M148.22,1363.94c-.52,2.71-.62,4.9-.62,11.26,0,24.5,2.18,35.24,9.38,46,7.09,10.53,17.31,17.72,32.63,23.15a71,71,0,0,0-10.21,16.16c-12.1-5.43-18.36-9.6-25.24-16.48s-10.84-12.93-14.59-22.52c-4.07,10.32-7.82,16.27-14.18,22.63s-14.29,11.57-25.13,16.47a65.55,65.55,0,0,0-10.32-15.43c16.16-5.84,26.9-14,32.94-24.92,5.84-10.63,7.72-22,7.72-46.4,0-5.21-.1-7.19-.63-9.9Zm-54.43,44.42a50.93,50.93,0,0,0,7.82-15.44,88.75,88.75,0,0,0,3.55-15l15.85,5.63a117.33,117.33,0,0,1-5,18,74.34,74.34,0,0,1-7.4,15.43Zm61-.94a119.42,119.42,0,0,0,13.55-30l16.16,7.19A191,191,0,0,1,168.86,1416Z" style="fill: #fff"/>
 </g></svg>