<svg xmlns="http://www.w3.org/2000/svg" xmlns:xlink="http://www.w3.org/1999/xlink" viewBox="0 0 1500 1500">  <g id="sky">
<rect width="1500" height="1499.86" style="fill: #d573f9"/>
</g>  <g id="pattern"><path d="M1390,1500h5v-77.66l46.14,26.64-12.1,51h5.16l11.47-48.4,51,29.42-11,19h5.8l5.66-9.73V1500h3V0h-5.52l1.14.66-97.79,168.08L1437.84,0h-5.15L1394,163.19V0h-5V164.27L1347.91,0h-5.17l42,167.82L1288.4.58l1-.58h-8.55l1.14.66L1184.2,168.74,1224.21,0h-5.15l-38.7,163.19V0h-5V164.27L1134.28,0h-5.17l42,167.82L1074.78.58l1-.58h-7.61L970.57,167.74,1010.34,0h-5.15L966.73,162.19V0h-5V163.26L920.9,0h-5.17l41.71,166.82L861.39,0h-6.86L756.94,167.74,796.71,0h-5.15L753.1,162.19V0h-5V163.26L707.27,0H702.1l41.71,166.82L647.76,0h-7.44l-97,166.74L582.85,0h-5.16L539.47,161.18V0h-5V162.26L493.89,0h-5.16l41.45,165.81L434.71,0h-8l-97,166.74L369.22,0h-5.16L325.84,161.18V0h-5V162.26L280.26,0H275.1l41.45,165.81L221.08,0h-8.6L116.05,165.73,155.35,0H150.2l-38,160.18V0h-5V161.26L66.89,0H61.72l41.2,164.81L8,0H0V8L.64,6.9V117.82l-.64.37V369.62l.22.13-.22.37v10L.64,379V490.2l-.64.36v6.09l.89-.51V717.9L0,714.35v24.06l.23.13-.23.39v10l1.64-2.82V857L0,857.94V864l.89-.51V1085L0,1081.43v26.79l1.22.7L0,1111v10l1.64-2.82v111.2l-1.64,1v6.09l1.89-1.09v221.75L0,1449.51v27.8l1.22.7L0,1480.11v10l1.64-2.82V1500H7.07v-13l7.48,13h5.79L7.75,1478.14l47.55-27.46L67.63,1500H72.8l-13-51.92,48.38-27.94V1500h5v-80.67L159.35,1446l-12.81,54h5.16l12.19-51.41,51,29.42-12.79,22h5.8l7.41-12.74V1500h5.43v-12l6.91,12h5.78l-12.13-21.07,47.61-27.49L281,1500h5.17l-12.79-51.16,48.44-28V1500h5v-79.66L373,1447l-12.57,53h5.15l12-50.41,51,29.42-12.21,21h5.8l6.83-11.74V1500h5.43v-12l6.91,12H447l-12-20.86,47.55-27.45L494.64,1500h5.17l-12.73-50.92,48.38-27.94V1500h5v-79.66L586.61,1447,574,1500h5.15l12-50.41,51,29.42-12.21,21h5.8l6.83-11.74V1500H648v-11l6.34,11h5.78l-11.55-20.07,47.61-27.48L708,1500h5.17l-12.54-50.16,48.44-28V1500h5v-78.66L800.24,1448l-12.33,52h5.15l11.71-49.41,51,29.43-11.63,20h5.8l6.25-10.73V1500h5.42v-11l6.34,11h5.78l-11.43-19.86,47.55-27.45L921.65,1500h5.16l-12.47-49.92,48.38-27.93V1500h5v-78.66l46.14,26.64-12.34,52h5.16l11.71-49.41,51,29.43-11.63,20h5.8l6.25-10.73V1500h5.42v-10l5.76,10h5.78l-11-19.06,47.61-27.49L1135,1500h5.17l-12.29-49.16,48.45-28V1500h5v-77.66L1227.5,1449l-12.1,51h5.16l11.47-48.4,51,29.42-11,19h5.8l5.66-9.73V1500h5.43v-10l5.76,10h5.78l-10.85-18.85,47.55-27.46,11.57,46.31h5.17l-12.23-48.91,48.39-27.94ZM1495.62,372.76l-97.79,168.08,46.83-197.51Zm-.33-23.95L1446.9,155.27l48.39-27.94ZM1496,382V493.2l-97.42,56.25Zm-52.71,147.72L1492,724.46l-96.29-167.24ZM1398.83,1280l46.83-197.51,51,29.42ZM1497,1121.18v111.2l-97.42,56.25Zm-101.88-76.35V933.36l96.13,167ZM1496.29,1088l-48.38-193.54,48.38-27.94Zm-4.28,3.55-96.17-167,47.55-27.46Zm-2.69-361.71-94.16-54.37V566.28Zm6.31,11.72-96.8,166.37,46.36-195.5Zm-55-31.74L1395,902.37V683.45Zm.48,370.08L1395,1274.46v-221.2Zm-45,337V1305.46l96.13,167Zm.56-120.54,47.61-27.48L1493,1463.63Zm100.57,163.69-48.44-193.78,48.44-28ZM1497,860l-97.18,56.1,97.18-167Zm-.75-139.11-48.44-193.78,48.44-28Zm-.25-711V120.83l-97.18,56.11Zm-53.65,148L1491,352.36l-96.17-167Zm-48.24,36.31,96.13,167-96.13-55.5ZM1394,314.08l46.14,26.64L1394,535.29Zm-104.58,797.77,47.61-27.49,48.68,194.73Zm95.32,175.62-95.89-55.37V1120.92Zm-1-739.18-95.89-55.36V381.74ZM1288.4,372.67,1336,345.19l48.68,194.72Zm45.35,152.83-46.07,194.33V498.9Zm-44.91,223.32,96.13,167-96.13-55.5Zm1.3-7.79,47.25-27.27L1385.7,907Zm99.17,183.35-97.8,168.08L1338.35,895Zm.42,9.25v111.2l-97.43,56.25Zm-48.2,148.12,48.45-28v221.76Zm.38-370.6L1390,683.39V903.44ZM1389.73,676l-95.93,55.39,95.93-164.88Zm-.62-118.4-97.6,167.74,46.78-197.26L1389,557.38Zm-.13-21.28-48.45-193.78,48.45-28Zm-.26-230.71L1291.3,361.9l97.42-167.45Zm-.41-120.45-97.8,168.09,46.83-197.51ZM1287.84,9.64l96.13,167-96.13-55.5ZM1282,372.76,1184.2,540.84,1231,343.33Zm-.33-23.95-48.39-193.54,48.39-27.94Zm.75,33.2V493.2L1185,549.45ZM1229.7,529.73l48.68,194.73-96.29-167.24Zm48.68,561.81-96.17-167,47.55-27.46Zm-44.1-197.09,48.38-27.94V1088Zm41.41-164.62-94.16-54.37V566.28Zm6.31,11.72-96.8,166.37,46.36-195.5Zm-55-31.74-45.66,192.56V683.45Zm-45.49,223.55,96.13,167-96.13-55.5ZM1283,1111.93,1185.2,1280,1232,1082.51Zm.41,9.25v111.2L1186,1288.63Zm-97.18-205.07,97.18-167V860Zm96.43-195.21-48.44-193.78,48.44-28Zm-.25-711V120.83l-97.18,56.11Zm-53.65,148,48.62,194.48-96.17-167Zm-48.24,36.31,96.14,167-96.14-55.5Zm-104.74,917.66,47.61-27.49,48.68,194.73ZM1170.24,1286l-95-54.86V1120.92Zm-1-739.17-95-54.87V381.74Zm-94.46-174.12,47.6-27.48,48.69,194.72Zm100.34,184.59-97.23,167.12L1124.45,528Zm-55.2-31.88-45.87,193.45V498.9Zm3.62,187.5L1172.07,907l-96-166.72Zm-48.33,35.94,95.53,165.92-95.53-55.16ZM1175.37,923.9l-97.48,167.56,46.68-196.89Zm.73,8.73v111.2l-97.43,56.24Zm-48.2,149.12,48.45-28v221.76Zm.16-371.48,48.29-27.88V903.44Zm48-144.72V676l-96.81,55.9Zm-.75-29.19L1126.9,342.58l48.45-28Zm-.25-231.71-97.43,56.25,97.43-167.45Zm-.73-119.92-97.49,167.55,46.69-196.88ZM1074.21,9.64l95.53,165.92-95.53-55.15Zm-5.85,362.11L970.57,539.84l46.83-197.51Zm-.33-23.94-48.38-193.54L1068,126.33Zm.75,33.19V492.2l-97.42,56.25Zm-52.71,147.73,48.68,194.72L968.46,556.21Zm48.68,561.81-96.17-167,47.55-27.45Zm-44.1-197.1L1069,865.51V1087Zm41.41-164.61L967.9,674.46V565.28Zm6.31,11.71-96.8,166.38,46.36-195.5Zm-55-31.74L967.73,901.36V682.44ZM967.9,932.36l96.13,167-96.13-55.5Zm101.47,178.57L971.57,1279l46.83-197.5Zm.42,9.25v111.2l-97.43,56.25ZM972.61,915.11l97.18-167V859ZM1069,719.9l-48.44-193.78,48.44-28Zm-.25-711V119.83l-97.18,56.1Zm-53.65,148,48.62,194.49-96.17-167Zm-48.24,36.31,96.14,167-96.14-55.5ZM862.15,1110.85l47.61-27.49,48.68,194.73Zm95.33,175.61-95.9-55.36V1119.91Zm-1-739.17-95.89-55.37V380.74ZM861.15,371.67l47.6-27.49,48.69,194.73ZM906.5,524.5,860.42,718.83V497.9ZM861.58,747.82l96.14,167-96.14-55.51Zm1.31-7.79,47.24-27.28L958.44,906Zm99.16,183.35-97.79,168.08L911.09,894Zm.42,9.25v111.2l-97.42,56.24Zm-48.2,148.12,48.45-28v221.76Zm.38-370.6,48.07-27.76V902.44ZM962.47,675l-95.93,55.39,95.93-164.88Zm-.62-118.41L864.26,724.38,911,527.12l50.68,29.26Zm-.13-21.27L913.27,341.57l48.45-28Zm-.25-230.71L864,360.9l97.43-167.45Zm-.42-120.45-97.8,168.08,46.83-197.5ZM860.58,8.64l96.13,167-96.13-55.5Zm-5.85,363.11L756.94,539.84l46.83-197.51Zm-.33-23.94L806,154.27l48.38-27.94Zm.75,33.19V492.2l-97.42,56.25ZM802.44,528.73l48.68,194.72L754.83,556.21Zm48.68,561.81L755,923.5l47.55-27.45ZM807,893.44l48.38-27.93V1087Zm41.41-164.61-94.16-54.37V565.28Zm6.31,11.71-96.8,166.38,46.36-195.5Zm-55-31.74L754.11,901.36V682.44ZM754.27,932.36l96.13,167-96.13-55.5Zm101.47,178.57L757.94,1279l46.83-197.5Zm.42,9.25v111.2l-97.43,56.25ZM759,915.11l97.18-167V859ZM855.4,719.9,807,526.12l48.44-28Zm-.25-711V119.83L758,175.93Zm-53.65,148,48.62,194.49L754,184.33Zm-48.24,36.31,96.14,167-96.14-55.5ZM648.52,1110.85l47.61-27.49,48.68,194.73ZM743,1285l-95-54.86V1119.91Zm-1-739.18-95-54.86V380.74ZM647.52,371.67l47.61-27.49,48.68,194.73ZM747.86,556.25,650.63,723.38,697.19,527Zm-55.2-31.87L646.79,717.82V497.9Zm3.62,187.5L744.81,906l-96-166.71ZM648,747.82l95.53,165.91L648,858.58ZM748.11,922.9l-97.48,167.56,46.68-196.89Zm.73,8.72v111.2l-97.42,56.25Zm-48.19,149.13,48.44-28v221.76Zm.15-371.48,48.29-27.88V902.44Zm48-144.73V675L652,730.93Zm-.75-29.18L699.64,341.57l48.45-28Zm-.25-231.71-97.43,56.24,97.43-167.44Zm-.73-119.93L649.62,351.28l46.69-196.89ZM647,8.64l95.53,165.92L647,119.4ZM641.1,370.75,543.31,538.83l46.83-197.5Zm-.33-23.95L592.39,153.26l48.38-27.93Zm.75,33.2V491.2L544.1,547.45ZM588.81,527.72l48.68,194.73L541.2,555.21Zm48.68,561.81-96.17-167,47.55-27.45Zm-44.1-197.09,48.38-27.94V1086ZM634.8,727.82l-94.16-54.36V564.28Zm6.31,11.72-96.8,166.37,46.36-195.49Zm-55-31.74L540.48,900.36V681.44Zm-45.5,223.56,96.13,167-96.13-55.51Zm101.47,178.57L544.31,1278l46.84-197.51Zm.42,9.25v111.2l-97.43,56.24ZM545.35,914.11l97.18-167V858ZM641.77,718.9,593.33,525.12l48.44-28Zm-.25-711V118.82l-97.18,56.11Zm-53.65,148,48.62,194.49-96.17-167Zm-48.23,36.31,96.13,167-96.13-55.5ZM434.89,1109.84l47.61-27.48,48.68,194.73Zm95.33,175.62-95.89-55.36V1118.91Zm-1-739.18-95.89-55.36V379.73ZM433.89,370.67l47.61-27.49,48.68,194.73ZM479.24,523.5,433.16,717.82V496.9ZM434.33,746.82l96.13,167-96.13-55.5Zm1.3-7.79,47.24-27.28L531.18,905Zm99.16,183.35L437,1090.46,483.83,893Zm.42,9.24v111.2l-97.42,56.25ZM487,1079.75l48.44-28v221.75Zm.37-370.61,48.07-27.75V901.44ZM535.21,674l-95.93,55.38,95.93-164.88Zm-.61-118.41L437,723.38l46.77-197.26,50.68,29.25Zm-.14-21.27L486,340.57l48.45-28Zm-.25-230.71-97.43,56.24,97.43-167.44Zm-.42-120.45L436,351.28l46.83-197.5ZM433.32,7.64l96.13,167-96.13-55.5Zm-5.84,363.11-97.8,168.08,46.83-197.5Zm-.34-23.95L378.76,153.26l48.38-27.93Zm.76,33.2V491.2l-97.43,56.25ZM375.18,527.72l48.69,194.73-96.3-167.24Zm48.69,561.81-96.18-167,47.55-27.45ZM379.76,892.44l48.39-27.94V1086Zm41.41-164.62L327,673.46V564.28Zm6.31,11.72-96.8,166.37L377,710.42Zm-55-31.74L326.85,900.36V681.44ZM327,931.36l96.13,167L327,1042.82Zm101.47,178.57L330.68,1278l46.84-197.51Zm.42,9.25v111.2l-97.43,56.24ZM331.72,914.11l97.18-167V858ZM428.15,718.9,379.7,525.12l48.45-28Zm-.25-711V118.82l-97.19,56.11Zm-53.66,148,48.62,194.49-96.17-167ZM326,192.18l96.13,167L326,303.65ZM221.26,1109.84l47.61-27.48,48.68,194.73ZM315.72,1284l-95-54.87V1118.91Zm-1-739.18-95-54.86V379.73ZM220.26,370.67l47.61-27.49,48.68,194.73ZM320.6,555.25,223.37,722.37,269.93,526Zm-55.2-31.87L219.53,716.82V496.9ZM269,710.87,317.55,905l-96-166.72Zm-48.32,36,95.52,165.91L220.7,857.58ZM320.86,921.9l-97.49,167.55,46.68-196.88Zm.72,8.72v111.2l-97.42,56.25Zm-48.19,149.13,48.44-28v221.75Zm.15-371.48,48.29-27.88V901.44Zm48-144.73V674l-96.81,55.89Zm-.75-29.18L272.38,340.57l48.45-28Zm-.25-231.72-97.43,56.25,97.43-167.45Zm-.73-119.92L222.37,350.28l46.68-196.89ZM219.69,7.64l95.53,165.91L219.69,118.4Zm-5.84,362.11-97.8,168.08,46.83-197.51Zm-.34-23.95L165.13,152.26l48.38-27.94Zm.76,33.2V490.2l-97.43,56.24ZM161.55,526.72l48.69,194.73L114,554.21Zm48.69,561.81-96.17-167L161.61,894ZM166.13,891.44l48.39-27.94V1085Zm41.41-164.62-94.16-54.37V563.27Zm6.31,11.72L117.06,904.91l46.35-195.49Zm-55-31.74L113.22,899.36V680.44Zm-45.5,223.56,96.13,167-96.13-55.5Zm101.47,178.56L117.06,1277l46.83-197.51Zm.42,9.25v111.2l-97.43,56.25ZM118.09,913.11l97.18-167V857ZM214.52,717.9,166.07,524.11l48.45-28Zm-.25-711V117.82l-97.18,56.11Zm-53.66,148,48.62,194.48-96.17-167Zm-48.23,36.31,96.13,167-96.13-55.51ZM7.63,1108.84l47.61-27.49,48.68,194.73ZM103,1284.46,7.07,1229.09V1117.91Zm-1-739.18L6.06,489.92V378.73ZM6.63,369.66l47.61-27.48,48.68,194.73ZM52,522.5,5.9,716.82V495.89ZM7.07,745.81l96.13,167L7.07,857.28ZM8.37,738l47.24-27.27L103.92,904Zm99.16,183.35L9.74,1089.45,56.57,892Zm.42,9.25v111.2l-97.42,56.25ZM59.76,1078.75l48.44-28v221.75Zm.37-370.61,48.07-27.75v220ZM108,673,12,728.42,108,563.54Zm-.61-118.4L9.74,722.37,56.51,525.11l50.68,29.26Zm-.14-21.28L58.75,339.57l48.45-28ZM107,302.64,9.53,358.89,107,191.44Zm-.42-120.44L8.74,350.28,55.57,152.77ZM6.06,6.64l96.14,167L6.06,118.1ZM4.9,123.52,51,150.15,4.9,344.72Zm1,739.17L52,889.33,5.9,1083.9Zm1,593.31V1235.07L53,1261.67Zm50.61-191.71,50.67,29.26.15.25-97.6,167.75ZM109,1413.64l-97.18,56.1,97.18-167Zm3.26-881.36V311.07l46.13,26.64Zm1,518,46.13,26.63-46.13,194.57Zm1.16,363.67V1302.45l96.14,167Zm.57-120.54,47.61-27.48,48.68,194.73Zm100.57,163.69-48.45-193.78,48.45-28Zm3-1332.85,46,26.55-46,194Zm1,739.18,46,26.55-46,194Zm1,592.6V1236.07l45.87,26.49Zm50.41-190.83,50.67,29.26-97.24,167.12Zm51.64,148.75-97.42,56.24,97.42-167.44Zm3.26-880.64V312.07L372,338.71Zm1,518L373,1077.89l-46.13,194.57ZM328,1414.92V1303.45l96.13,167Zm.57-120.53,47.61-27.49,48.68,194.73Zm100.57,163.69L380.7,1264.29l48.45-28Zm3-1333.56,46.13,26.64L432.16,345.73Zm1,739.18,46.14,26.63L433.16,1084.9Zm1,593.3V1236.07l46.08,26.61Zm50.61-191.71,50.68,29.26.15.26L438,1462.55Zm51.44,149.35L439,1470.75l97.18-167Zm3.26-881.36V312.07l46.14,26.64Zm1,518,46.13,26.64-46.13,194.57Zm1.16,363.67V1303.45l96.13,167Zm.57-120.53,47.61-27.49,48.68,194.73Zm100.57,163.69-48.45-193.79,48.45-28Zm3-1332.86,46,26.56-46,194Zm1,739.18,46,26.55-46,194Zm1,592.6V1237.08l45.87,26.48Zm50.4-190.82,50.68,29.25-97.24,167.12Zm51.65,148.74-97.42,56.25,97.42-167.45Zm3.26-880.64V313.08l46.14,26.63Zm1,518,46.13,26.64-46.13,194.57Zm1.16,363.67V1304.46l96.13,167Zm.57-120.53,47.6-27.49,48.69,194.73Zm100.57,163.69L808,1265.3l48.45-28Zm3-1333.56,46.13,26.64L859.42,346.73Zm1,739.18,46.13,26.64-46.13,194.57Zm1,593.3V1237.08l46.08,26.6ZM912,1266.3l50.68,29.25.15.26-97.6,167.75Zm51.44,149.34-97.18,56.11,97.18-167Zm3.26-881.36V313.08l46.14,26.63Zm1,518,46.14,26.64-46.14,194.57Zm1.17,363.67V1304.46l96.13,167Zm.56-120.53,47.61-27.49,48.69,194.73ZM1070,1459.08l-48.45-193.78,48.45-28Zm3-1332.85,46,26.55-46,194Zm1,739.17L1120,892l-46,194Zm1,592.6V1238.08l45.87,26.48Zm50.4-190.82,50.67,29.25-97.23,167.13Zm51.65,148.74-97.42,56.25,97.42-167.45Zm3.26-880.63V314.08l46.14,26.64Zm1,518,46.14,26.63-46.14,194.57Zm1.17,363.67V1305.46l96.13,167Zm.56-120.54,47.61-27.48,48.68,194.72Zm100.58,163.69-48.45-193.78,48.45-28Zm3-1333.55,46.14,26.63-46.14,194.57Zm1,739.17,46.13,26.64-46.13,194.57Zm1,593.31V1238.08l46.08,26.6Zm50.61-191.71,50.68,29.26.15.25-97.6,167.75Zm-45.74,205.45,97.18-167v110.92Z" 
style="fill:#00a651;opacity: 0.18 "/>
</g>  <g id="base">
<rect y="1330.87" width="1500" height="168.98" style="fill: #fff200"/>
</g>  <g id="land">
<rect x="0.46" y="1028.55" width="1500.11" height="302.58" style="fill: #73aaf9"/>
</g>  <g id="city">
    <line x1="0.12" y1="1028.95" x2="1500.12" y2="1028.95" style="fill: #ffc0f9;stroke: #000;stroke-miterlimit: 10;stroke-width: 3px"/>
    <path d="M1259,464.5h-42s-1-13-11-13-9,10-9,10-7-25-28-25-30,26-30,26-16-4-20,2-3,17-3,17h-36" style="fill: none;stroke: #000;stroke-miterlimit: 10;stroke-width: 3px"/>
    <path d="M226.92,323.81s9.23-16.19,21.61-17.59S266.36,324,266.36,324s6.52-12.93,17-14.58,21.52,14.35,21.52,14.35" style="fill: none;stroke: #000;stroke-miterlimit: 10;stroke-width: 3px"/>
    <path d="M846.15,240.08l8.27,2.23-5.5,1.48a8.52,8.52,0,0,0-6,6l-1.48,5.5-1.76-6.54a6.66,6.66,0,0,0-4.7-4.7l-6.54-1.76,6.48-1.75a6.73,6.73,0,0,0,4.77-4.77l1.75-6.48,2.23,8.27A3.53,3.53,0,0,0,846.15,240.08Z" style="fill: none;stroke: #000;stroke-miterlimit: 10;stroke-width: 2px"/>
    <path d="M492.15,172.08l8.27,2.23-5.5,1.48a8.52,8.52,0,0,0-6,6l-1.48,5.5-1.76-6.54a6.66,6.66,0,0,0-4.7-4.7l-6.54-1.76,6.48-1.75a6.73,6.73,0,0,0,4.77-4.77l1.75-6.48,2.23,8.27A3.53,3.53,0,0,0,492.15,172.08Z" style="fill: none;stroke: #000;stroke-miterlimit: 10;stroke-width: 2px"/>
    <path d="M1260.15,370.08l8.27,2.23-5.5,1.48a8.52,8.52,0,0,0-6,6l-1.48,5.5-1.76-6.54a6.66,6.66,0,0,0-4.7-4.7l-6.54-1.76,6.48-1.75a6.73,6.73,0,0,0,4.77-4.77l1.75-6.48,2.23,8.27A3.53,3.53,0,0,0,1260.15,370.08Z" style="fill: none;stroke: #000;stroke-miterlimit: 10;stroke-width: 2px"/>
    <path d="M427.36,355.37s.71-9.26,7.84-9.26,6.41,7.12,6.41,7.12,5-17.82,20-17.82S483,354,483,354s11.41-2.85,14.26,1.42,2.14,12.12,2.14,12.12" style="fill: none;stroke: #000;stroke-miterlimit: 10;stroke-width: 3px"/>
    <path d="M573.15,522.08l8.27,2.23-5.5,1.48a8.52,8.52,0,0,0-6,6l-1.48,5.5-1.76-6.54a6.66,6.66,0,0,0-4.7-4.7l-6.54-1.76,6.48-1.75a6.73,6.73,0,0,0,4.77-4.77l1.75-6.48,2.23,8.27A3.53,3.53,0,0,0,573.15,522.08Z" style="fill: none;stroke: #000;stroke-miterlimit: 10;stroke-width: 2px"/>
    <path d="M396.15,453.08l8.27,2.23-5.5,1.48a8.52,8.52,0,0,0-6,6l-1.48,5.5-1.76-6.54a6.66,6.66,0,0,0-4.7-4.7l-6.54-1.76,6.48-1.75a6.73,6.73,0,0,0,4.77-4.77l1.75-6.48,2.23,8.27A3.53,3.53,0,0,0,396.15,453.08Z" style="fill: none;stroke: #000;stroke-miterlimit: 10;stroke-width: 2px"/>
    <path d="M1148.15,280.08l8.27,2.23-5.5,1.48a8.52,8.52,0,0,0-6,6l-1.48,5.5-1.76-6.54a6.66,6.66,0,0,0-4.7-4.7l-6.54-1.76,6.48-1.75a6.73,6.73,0,0,0,4.77-4.77l1.75-6.48,2.23,8.27A3.53,3.53,0,0,0,1148.15,280.08Z" style="fill: none;stroke: #000;stroke-miterlimit: 10;stroke-width: 2px"/>
    <g>
      <polyline points="306.62 748.49 321.88 654.58 414.63 654.58 425.19 748.49" style="fill: #ffc299;stroke: #000;stroke-miterlimit: 10;stroke-width: 3px"/>
      <polygon points="126.42 1027.31 606.57 1027.31 606.57 967.43 588.96 938.09 147.55 938.09 126.42 967.43 126.42 1027.31" style="fill: #ffc299;stroke: #000;stroke-miterlimit: 10;stroke-width: 3px"/>
      <line x1="516.76" y1="937.5" x2="516.76" y2="1027.31" style="fill: #ffc299;stroke: #000;stroke-miterlimit: 10;stroke-width: 3px"/>
      <line x1="428.66" y1="938.09" x2="428.66" y2="1027.31" style="fill: #ffc299;stroke: #000;stroke-miterlimit: 10;stroke-width: 3px"/>
      <line x1="303.03" y1="938.09" x2="303.03" y2="1027.31" style="fill: #ffc299;stroke: #000;stroke-miterlimit: 10;stroke-width: 3px"/>
      <line x1="218.08" y1="1027.31" x2="218.08" y2="938.09" style="fill: #ffc299;stroke: #000;stroke-miterlimit: 10;stroke-width: 3px"/>
      <line x1="127.01" y1="966.85" x2="607.15" y2="966.85" style="fill: #ffc299;stroke: #000;stroke-miterlimit: 10;stroke-width: 3px"/>
      <rect x="154.01" y="989.15" width="9.39" height="12.91" style="fill: #ffc299;stroke: #000;stroke-miterlimit: 10;stroke-width: 3px"/>
      <rect x="188.05" y="989.15" width="11.74" height="12.91" style="fill: #ffc299;stroke: #000;stroke-miterlimit: 10;stroke-width: 3px"/>
      <path d="M229.14,1018.5v-34s5.87-10.57,9.39-10.57,8.22,9.39,8.22,9.39v35.22Z" style="fill: #ffc299;stroke: #000;stroke-miterlimit: 10;stroke-width: 3px"/>
      <polyline points="257.31 973.89 273.75 993.85 308.97 993.85" style="fill: #ffc299;stroke: #000;stroke-miterlimit: 10;stroke-width: 3px"/>
      <line x1="325.4" y1="966.85" x2="325.4" y2="1027.31" style="fill: #ffc299;stroke: #000;stroke-miterlimit: 10;stroke-width: 3px"/>
      <polyline points="428.66 993.85 459.24 993.85 481.31 966.85" style="fill: #ffc299;stroke: #000;stroke-miterlimit: 10;stroke-width: 3px"/>
      <rect x="533.2" y="989.15" width="11.74" height="12.91" style="fill: #ffc299;stroke: #000;stroke-miterlimit: 10;stroke-width: 3px"/>
      <rect x="570.76" y="989.15" width="8.22" height="12.91" style="fill: #ffc299;stroke: #000;stroke-miterlimit: 10;stroke-width: 3px"/>
      <g>
        <path d="M526.15,899.93s-8.22-9.39-9.39-17.61,34-32.87,34-32.87,35.22,27,35.22,32.87c0,12.92-11.74,16.44-11.74,16.44Z" style="fill: #8cc63f;stroke: #000;stroke-miterlimit: 10;stroke-width: 3px"/>
        <rect x="530.26" y="899.35" width="39.91" height="11.74" style="fill: #ffc299;stroke: #000;stroke-miterlimit: 10;stroke-width: 3px"/>
        <rect x="530.26" y="911.09" width="39.91" height="25.83" style="fill: #ffc299;stroke: #000;stroke-miterlimit: 10;stroke-width: 3px"/>
        <line x1="550.32" y1="804.25" x2="550.32" y2="850.04" style="fill: #ffc299;stroke: #000;stroke-miterlimit: 10;stroke-width: 3px"/>
        <line x1="543.86" y1="811.3" x2="556.77" y2="811.3" style="fill: #ffc299;stroke: #000;stroke-miterlimit: 10;stroke-width: 2px"/>
        <circle cx="550.32" cy="831.55" r="3.23" style="fill: #ffc299;stroke: #000;stroke-miterlimit: 10;stroke-width: 3px"/>
        <line x1="544.93" y1="853.72" x2="544.93" y2="899.35" style="fill: #ffc299;stroke: #000;stroke-miterlimit: 10;stroke-width: 3px"/>
        <line x1="556.09" y1="853.72" x2="556.09" y2="899.15" style="fill: #ffc299;stroke: #000;stroke-miterlimit: 10;stroke-width: 3px"/>
        <line x1="564.75" y1="860.61" x2="564.75" y2="897" style="fill: #ffc299;stroke: #000;stroke-miterlimit: 10;stroke-width: 3px"/>
        <line x1="573.21" y1="867.85" x2="573.21" y2="899.35" style="fill: #ffc299;stroke: #000;stroke-miterlimit: 10;stroke-width: 3px"/>
        <line x1="536.03" y1="860.61" x2="536.03" y2="899.35" style="fill: #ffc299;stroke: #000;stroke-miterlimit: 10;stroke-width: 3px"/>
        <line x1="527.52" y1="867.85" x2="527.52" y2="899.35" style="fill: #ffc299;stroke: #000;stroke-miterlimit: 10;stroke-width: 3px"/>
      </g>
      <g>
        <path d="M158.7,901.11s-8.21-9.4-9.39-17.61,34.05-32.87,34.05-32.87,35.21,27,35.21,32.87c0,12.91-11.73,16.43-11.73,16.43Z" style="fill: #7ac943;stroke: #000;stroke-miterlimit: 10;stroke-width: 3px"/>
        <rect x="162.81" y="900.52" width="39.91" height="11.74" style="fill: #ffc299;stroke: #000;stroke-miterlimit: 10;stroke-width: 3px"/>
        <rect x="162.81" y="912.26" width="39.91" height="25.83" style="fill: #ffc299;stroke: #000;stroke-miterlimit: 10;stroke-width: 3px"/>
        <line x1="182.87" y1="805.43" x2="182.87" y2="851.21" style="fill: #ffc299;stroke: #000;stroke-miterlimit: 10;stroke-width: 3px"/>
        <line x1="176.41" y1="812.47" x2="189.32" y2="812.47" style="fill: #ffc299;stroke: #000;stroke-miterlimit: 10;stroke-width: 2px"/>
        <circle cx="182.87" cy="832.72" r="3.23" style="fill: #ffc299;stroke: #000;stroke-miterlimit: 10;stroke-width: 3px"/>
        <line x1="177.49" y1="854.89" x2="177.49" y2="900.52" style="fill: #ffc299;stroke: #000;stroke-miterlimit: 10;stroke-width: 3px"/>
        <line x1="188.64" y1="854.89" x2="188.64" y2="900.32" style="fill: #ffc299;stroke: #000;stroke-miterlimit: 10;stroke-width: 3px"/>
        <line x1="197.3" y1="861.79" x2="197.3" y2="898.17" style="fill: #ffc299;stroke: #000;stroke-miterlimit: 10;stroke-width: 3px"/>
        <line x1="205.77" y1="869.02" x2="205.77" y2="900.52" style="fill: #ffc299;stroke: #000;stroke-miterlimit: 10;stroke-width: 3px"/>
        <line x1="168.58" y1="861.79" x2="168.58" y2="900.52" style="fill: #ffc299;stroke: #000;stroke-miterlimit: 10;stroke-width: 3px"/>
        <line x1="160.07" y1="869.02" x2="160.07" y2="900.52" style="fill: #ffc299;stroke: #000;stroke-miterlimit: 10;stroke-width: 3px"/>
      </g>
      <g>
        <rect x="215.05" y="928.11" width="88.05" height="8.22" style="fill: #ffc299;stroke: #000;stroke-miterlimit: 10;stroke-width: 3px"/>
        <rect x="218.57" y="919.89" width="84.52" height="8.22" style="fill: #ffc299;stroke: #000;stroke-miterlimit: 10;stroke-width: 3px"/>
        <rect x="223.27" y="911.67" width="79.83" height="7.04" style="fill: #ffc299;stroke: #000;stroke-miterlimit: 10;stroke-width: 3px"/>
        <rect x="223.27" y="838.89" width="79.83" height="70.44" style="fill: #ffc299;stroke: #000;stroke-miterlimit: 10;stroke-width: 3px"/>
        <path d="M249.1,837.71V827.15s1.17-10.57,11.74-10.57,12.91,10.57,12.91,10.57v10.56" style="fill: #8cc63f;stroke: #000;stroke-miterlimit: 10;stroke-width: 3px"/>
        <path d="M223.27,838.3V827.73s1.17-10.56,11.74-10.56,12.91,10.56,12.91,10.56V838.3" style="fill: #8cc63f;stroke: #000;stroke-miterlimit: 10;stroke-width: 3px"/>
        <path d="M276.1,837.13V826.56S277.27,816,287.84,816s12.91,10.57,12.91,10.57v10.57" style="fill: #8cc63f;stroke: #000;stroke-miterlimit: 10;stroke-width: 3px"/>
        <polyline points="222.68 908.74 235.6 838.89 249.69 906.39 263.19 838.89 276.69 906.39 290.77 840.65 302.51 908.74" style="fill: #c69c6d;stroke: #000;stroke-linejoin: round;stroke-width: 3px"/>
        <polyline points="235.6 817.17 235.6 779.6 290.77 779.6 290.77 814.82" style="fill: #ffc299;stroke: #000;stroke-miterlimit: 10;stroke-width: 3px"/>
        <polyline points="244.4 813.06 244.4 787.23 253.79 787.23 253.79 810.71" style="fill: #ffc299;stroke: #000;stroke-miterlimit: 10;stroke-width: 3px"/>
        <polyline points="259.66 813.06 259.66 787.23 264.36 787.23" style="fill: #ffc299;stroke: #000;stroke-miterlimit: 10;stroke-width: 3px"/>
        <polyline points="273.75 787.23 278.45 787.23 278.45 813.06" style="fill: #ffc299;stroke: #000;stroke-miterlimit: 10;stroke-width: 3px"/>
        <polygon points="229.14 768.45 296.06 768.45 291.36 780.19 236.18 780.19 229.14 768.45" style="fill: #ffc299;stroke: #000;stroke-miterlimit: 10;stroke-width: 3px"/>
        <path d="M294.88,768.45s9.39-11.74,12.92-16.44,4.69-12.91,2.34-18.78-46.95-44.61-46.95-44.61l-48.14,41.09s-5.87,12.91,0,21.13,14.09,17.61,14.09,17.61" style="fill: #3fa9f5;stroke: #000;stroke-miterlimit: 10;stroke-width: 3px"/>
        <line x1="262.7" y1="630.51" x2="262.7" y2="688.03" style="fill: #ffc299;stroke: #000;stroke-miterlimit: 10;stroke-width: 3px"/>
        <line x1="255.55" y1="637.55" x2="268.47" y2="637.55" style="fill: #ffc299;stroke: #000;stroke-miterlimit: 10;stroke-width: 2px"/>
        <circle cx="262.7" cy="662.5" r="3.23" style="fill: #ffc299;stroke: #000;stroke-miterlimit: 10;stroke-width: 3px"/>
        <path d="M278.45,702.71s18.78,22.22,18.78,30.52c0,10.57-2.35,12.91-5.87,17.61-5.5,7.34-13.87,17.61-13.87,17.61" style="fill: #fff;stroke: #000;stroke-linejoin: round;stroke-width: 3px"/>
        <path d="M246.75,702.71S228,724.93,228,733.23c0,10.57,2.34,12.91,5.87,17.61,5.5,7.34,13.87,17.61,13.87,17.61" style="fill: #fff;stroke: #000;stroke-linejoin: round;stroke-width: 3px"/>
        <path d="M259.66,692.14s-11.74,20-15.26,28.18-4.69,9.39-3.52,15.26,12.91,31.7,12.91,31.7" style="fill: #3fa9f5;stroke: #000;stroke-miterlimit: 10;stroke-width: 3px"/>
        <path d="M265.53,692.14s11.74,20,15.26,28.18,4.7,9.39,3.53,15.26-12.92,31.7-12.92,31.7" style="fill: #3fa9f5;stroke: #000;stroke-miterlimit: 10;stroke-width: 3px"/>
        <path d="M262,691s-8.8,22.89-8.8,40.5,8.21,37,8.21,37,9.4-20.54,9.4-35.81S263.19,691,263.19,691" style="fill: #fff;stroke: #000;stroke-linejoin: round;stroke-width: 3px"/>
      </g>
      <g>
        <rect x="428.5" y="928.11" width="88.05" height="8.22" transform="translate(945.05 1864.43) rotate(-180)" style="fill: #ffc299;stroke: #000;stroke-miterlimit: 10;stroke-width: 3px"/>
        <rect x="428.5" y="919.89" width="84.52" height="8.22" transform="translate(941.52 1848) rotate(-180)" style="fill: #ffc299;stroke: #000;stroke-miterlimit: 10;stroke-width: 3px"/>
        <rect x="428.5" y="911.67" width="79.83" height="7.04" transform="translate(936.83 1830.39) rotate(-180)" style="fill: #ffc299;stroke: #000;stroke-miterlimit: 10;stroke-width: 3px"/>
        <rect x="428.5" y="838.89" width="79.83" height="70.44" transform="translate(936.83 1748.21) rotate(-180)" style="fill: #ffc299;stroke: #000;stroke-miterlimit: 10;stroke-width: 3px"/>
        <path d="M482.5,837.71V827.15s-1.17-10.57-11.74-10.57-12.91,10.57-12.91,10.57v10.56" style="fill: #7ac943;stroke: #000;stroke-miterlimit: 10;stroke-width: 3px"/>
        <path d="M508.33,838.3V827.73s-1.17-10.56-11.74-10.56-12.91,10.56-12.91,10.56V838.3" style="fill: #7ac943;stroke: #000;stroke-miterlimit: 10;stroke-width: 3px"/>
        <path d="M455.5,837.13V826.56S454.33,816,443.76,816s-12.91,10.57-12.91,10.57v10.57" style="fill: #7ac943;stroke: #000;stroke-miterlimit: 10;stroke-width: 3px"/>
        <polyline points="508.92 908.74 496 838.89 481.92 906.39 468.41 838.89 454.91 906.39 440.83 840.65 429.09 908.74" style="fill: #a67c52;stroke: #000;stroke-linejoin: round;stroke-width: 3px"/>
        <polyline points="496 817.17 496 779.6 440.83 779.6 440.83 814.82" style="fill: #ffc299;stroke: #000;stroke-miterlimit: 10;stroke-width: 3px"/>
        <polyline points="487.2 813.06 487.2 787.23 477.81 787.23 477.81 810.71" style="fill: #ffc299;stroke: #000;stroke-miterlimit: 10;stroke-width: 3px"/>
        <polyline points="471.94 813.06 471.94 787.23 467.24 787.23" style="fill: #ffc299;stroke: #000;stroke-miterlimit: 10;stroke-width: 3px"/>
        <polyline points="457.85 787.23 453.15 787.23 453.15 813.06" style="fill: #ffc299;stroke: #000;stroke-miterlimit: 10;stroke-width: 3px"/>
        <polygon points="502.46 768.45 435.54 768.45 440.24 780.19 495.42 780.19 502.46 768.45" style="fill: #ffc299;stroke: #000;stroke-miterlimit: 10;stroke-width: 3px"/>
        <path d="M436.72,768.45S427.33,756.71,423.8,752s-4.69-12.91-2.34-18.78,47-44.61,47-44.61l48.14,41.09s5.87,12.91,0,21.13-14.09,17.61-14.09,17.61" style="fill: #f7931e;stroke: #000;stroke-miterlimit: 10;stroke-width: 3px"/>
        <line x1="468.9" y1="630.51" x2="468.9" y2="688.03" style="fill: #ffc299;stroke: #000;stroke-miterlimit: 10;stroke-width: 3px"/>
        <line x1="476.05" y1="637.55" x2="463.13" y2="637.55" style="fill: #ffc299;stroke: #000;stroke-miterlimit: 10;stroke-width: 2px"/>
        <circle cx="468.9" cy="662.5" r="3.23" style="fill: #ffc299;stroke: #000;stroke-miterlimit: 10;stroke-width: 3px"/>
        <path d="M453.15,702.71s-18.78,22.22-18.78,30.52c0,10.57,2.35,12.91,5.87,17.61,5.5,7.34,13.87,17.61,13.87,17.61" style="fill: #7ac943;stroke: #000;stroke-linejoin: round;stroke-width: 3px"/>
        <path d="M484.85,702.71s18.78,22.22,18.78,30.52c0,10.57-2.34,12.91-5.87,17.61-5.5,7.34-13.87,17.61-13.87,17.61" style="fill: #7ac943;stroke: #000;stroke-linejoin: round;stroke-width: 3px"/>
        <path d="M466.07,692.14s-11.74,20-15.26,28.18-4.7,9.39-3.53,15.26,12.92,31.7,12.92,31.7" style="fill: #f7931e;stroke: #000;stroke-miterlimit: 10;stroke-width: 3px"/>
        <path d="M471.94,692.14s11.74,20,15.26,28.18,4.69,9.39,3.52,15.26-12.91,31.7-12.91,31.7" style="fill: #f7931e;stroke: #000;stroke-miterlimit: 10;stroke-width: 3px"/>
        <path d="M469.59,691s8.8,22.89,8.8,40.5-8.21,37-8.21,37-9.4-20.54-9.4-35.81S468.41,691,468.41,691" style="fill: #7ac943;stroke: #000;stroke-linejoin: round;stroke-width: 3px"/>
      </g>
      <rect x="302.51" y="811.3" width="125.61" height="124.44" style="fill: #ff9a55;stroke: #000;stroke-miterlimit: 10;stroke-width: 3px"/>
      <path d="M333.14,861.78h3.31a9.5,9.5,0,0,1,9.5,9.5v39.81a0,0,0,0,1,0,0H323.64a0,0,0,0,1,0,0V871.28A9.5,9.5,0,0,1,333.14,861.78Z" style="fill: #ffc299;stroke: #000;stroke-miterlimit: 10;stroke-width: 3px"/>
      <path d="M364.25,862.37h3.31a9.5,9.5,0,0,1,9.5,9.5v39.81a0,0,0,0,1,0,0H354.75a0,0,0,0,1,0,0V871.87A9.5,9.5,0,0,1,364.25,862.37Z" style="fill: #ffc299;stroke: #000;stroke-miterlimit: 10;stroke-width: 3px"/>
      <path d="M397.12,862.37h3.31a9.5,9.5,0,0,1,9.5,9.5v39.81a0,0,0,0,1,0,0H387.62a0,0,0,0,1,0,0V871.87A9.5,9.5,0,0,1,397.12,862.37Z" style="fill: #ffc299;stroke: #000;stroke-miterlimit: 10;stroke-width: 3px"/>
      <line x1="303.1" y1="911.67" x2="428.5" y2="911.67" style="fill: #ffc299;stroke: #000;stroke-miterlimit: 10;stroke-width: 3px"/>
      <rect x="313.67" y="835.36" width="104.48" height="18.78" style="fill: #ffc299;stroke: #000;stroke-miterlimit: 10;stroke-width: 3px"/>
      <rect x="319.54" y="748.49" width="42.26" height="61.05" style="fill: #ffc299;stroke: #000;stroke-miterlimit: 10;stroke-width: 3px"/>
      <rect x="373.54" y="748.49" width="41.09" height="61.05" style="fill: #ffc299;stroke: #000;stroke-miterlimit: 10;stroke-width: 3px"/>
      <rect x="386.45" y="780.19" width="14.09" height="23.48" style="fill: #ffc299;stroke: #000;stroke-miterlimit: 10;stroke-width: 3px"/>
      <rect x="334.8" y="780.19" width="12.91" height="23.48" style="fill: #ffc299;stroke: #000;stroke-miterlimit: 10;stroke-width: 3px"/>
      <line x1="311.37" y1="748.49" x2="420.5" y2="748.49" style="fill: #ffc299;stroke: #000;stroke-miterlimit: 10;stroke-width: 3px"/>
      <path d="M425.19,759.06v51.65" style="fill: #ffc299;stroke: #000;stroke-miterlimit: 10;stroke-width: 3px"/>
      <line x1="308" y1="810.71" x2="308" y2="752.01" style="fill: #ffc299;stroke: #000;stroke-miterlimit: 10;stroke-width: 3px"/>
      <polyline points="325.4 652.23 355.93 563.01 361.8 563.01 375.88 563.01 411.1 652.23" style="fill: #ffc299;stroke: #000;stroke-miterlimit: 10;stroke-width: 3px"/>
      <line x1="343.38" y1="652.23" x2="361.8" y2="563.01" style="fill: #ffc299;stroke: #000;stroke-miterlimit: 10;stroke-width: 3px"/>
      <line x1="367.08" y1="652.23" x2="368.25" y2="563.01" style="fill: #ffc299;stroke: #000;stroke-miterlimit: 10;stroke-width: 3px"/>
      <line x1="388.05" y1="652.23" x2="373.54" y2="563.01" style="fill: #ffc299;stroke: #000;stroke-miterlimit: 10;stroke-width: 3px"/>
      <path d="M319.54,743.8s1.17-20,15.26-18.79,15.26,18.79,15.26,18.79" style="fill: none;stroke: #000;stroke-miterlimit: 10;stroke-width: 3px"/>
      <path d="M351.23,743.8s1.18-20,15.26-18.79,15.26,18.79,15.26,18.79" style="fill: none;stroke: #000;stroke-miterlimit: 10;stroke-width: 3px"/>
      <path d="M382.93,743.8s1.17-20,15.26-18.79,15.26,18.79,15.26,18.79" style="fill: none;stroke: #000;stroke-miterlimit: 10;stroke-width: 3px"/>
      <g>
        <path d="M319.54,726.19s1.17-20,15.26-18.79,15.26,18.79,15.26,18.79" style="fill: none;stroke: #000;stroke-miterlimit: 10;stroke-width: 3px"/>
        <path d="M351.23,726.19s1.18-20,15.26-18.79,15.26,18.79,15.26,18.79" style="fill: none;stroke: #000;stroke-miterlimit: 10;stroke-width: 3px"/>
        <path d="M382.93,726.19s1.17-20,15.26-18.79,15.26,18.79,15.26,18.79" style="fill: none;stroke: #000;stroke-miterlimit: 10;stroke-width: 3px"/>
      </g>
      <g>
        <path d="M322.47,707.4s1.14-19.95,14.78-18.78S352,707.4,352,707.4" style="fill: none;stroke: #000;stroke-miterlimit: 10;stroke-width: 3px"/>
        <path d="M353.18,707.4s1.13-19.95,14.78-18.78,14.79,18.78,14.79,18.78" style="fill: none;stroke: #000;stroke-miterlimit: 10;stroke-width: 3px"/>
        <path d="M383.88,707.4s1.14-19.95,14.79-18.78,14.78,18.78,14.78,18.78" style="fill: none;stroke: #000;stroke-miterlimit: 10;stroke-width: 3px"/>
      </g>
      <g>
        <path d="M324.82,686.27s1.05-20,13.73-18.78,13.74,18.78,13.74,18.78" style="fill: none;stroke: #000;stroke-miterlimit: 10;stroke-width: 3px"/>
        <path d="M353.35,686.27s1-20,13.73-18.78,13.74,18.78,13.74,18.78" style="fill: none;stroke: #000;stroke-miterlimit: 10;stroke-width: 3px"/>
        <path d="M381.87,686.27s1.06-20,13.74-18.78,13.73,18.78,13.73,18.78" style="fill: none;stroke: #000;stroke-miterlimit: 10;stroke-width: 3px"/>
      </g>
      <ellipse cx="366.49" cy="553.03" rx="17.02" ry="9.39" style="fill: #ffc299;stroke: #000;stroke-miterlimit: 10;stroke-width: 3px"/>
      <path d="M366.49,530.14a19.18,19.18,0,0,1-8.88-2.58,14.39,14.39,0,0,1-6.38-8c-3.52-10.57,16.44-31.7,16.44-31.7s18.78,23.48,18.78,29.35S379.41,530.14,366.49,530.14Z" style="fill: #fcee21;stroke: #000;stroke-miterlimit: 10;stroke-width: 3px"/>
      <line x1="357.1" y1="544.22" x2="357.1" y2="527.79" style="fill: #ffc299;stroke: #000;stroke-miterlimit: 10;stroke-width: 3px"/>
      <line x1="377.06" y1="544.22" x2="377.06" y2="528.1" style="fill: #ffc299;stroke: #000;stroke-miterlimit: 10;stroke-width: 3px"/>
      <line x1="367.67" y1="487.87" x2="367.67" y2="450.31" style="fill: #ffc299;stroke: #000;stroke-miterlimit: 10;stroke-width: 3px"/>
      <line x1="357.1" y1="462.05" x2="377.06" y2="462.05" style="fill: #ffc299;stroke: #000;stroke-miterlimit: 10;stroke-width: 3px"/>
    </g>
    <g>
      <path d="M892,1026.81V623.29s32.63-30.46,79.4-34.81,46.76,0,46.76,0v438.33Z" style="fill: #8d98ff;stroke: #000;stroke-miterlimit: 10;stroke-width: 3px"/>
      <polyline points="1052.98 586.31 1029.05 596.1 1029.05 1026.81 1052.98 1026.81 1052.98 586.31" style="fill: #8d98ff;stroke: #000;stroke-miterlimit: 10;stroke-width: 3px"/>
      <line x1="1018.17" y1="1026.81" x2="1029.05" y2="1026.81" style="fill: #8d98ff;stroke: #000;stroke-miterlimit: 10;stroke-width: 3px"/>
      <line x1="1018.17" y1="588.48" x2="1029.05" y2="596.1" style="fill: #8d98ff;stroke: #000;stroke-miterlimit: 10;stroke-width: 3px"/>
      <line x1="1053.52" y1="1007.23" x2="892.01" y2="1007.23" style="fill: #8d98ff;stroke: #000;stroke-miterlimit: 10;stroke-width: 3px"/>
      <line x1="1053.52" y1="993.09" x2="892.01" y2="993.09" style="fill: #8d98ff;stroke: #000;stroke-miterlimit: 10;stroke-width: 3px"/>
      <line x1="1053.52" y1="975.69" x2="892.01" y2="975.69" style="fill: #8d98ff;stroke: #000;stroke-miterlimit: 10;stroke-width: 3px"/>
      <line x1="1053.52" y1="961.55" x2="892.01" y2="961.55" style="fill: #8d98ff;stroke: #000;stroke-miterlimit: 10;stroke-width: 3px"/>
      <path d="M892,640.68s33.65-25.17,63.62-31c36.44-7.07,62.54-2,62.54-2l9.25,6.38L1053,605.2" style="fill: #8d98ff;stroke: #000;stroke-miterlimit: 10;stroke-width: 3px"/>
      <path d="M892,655.91s33.65-25.18,63.62-31c36.44-7.07,62.54-2,62.54-2l9.25,6.38,25.56-8.84" style="fill: #8d98ff;stroke: #000;stroke-miterlimit: 10;stroke-width: 3px"/>
      <path d="M892,672.23s33.65-25.18,63.62-31c36.44-7.07,62.54-2,62.54-2l10.34,6.38,24.47-8.83" style="fill: #8d98ff;stroke: #000;stroke-miterlimit: 10;stroke-width: 3px"/>
      <path d="M892,688.54s33.65-23,63.62-28.82c36.44-7.07,62.54-4.2,62.54-4.2l10.34,7.47,24.47-8.84" style="fill: #8d98ff;stroke: #000;stroke-miterlimit: 10;stroke-width: 3px"/>
      <path d="M892,703.77s33.65-21.92,63.62-27.73c36.44-7.07,62.54-3.12,62.54-3.12l10.34,7.47,24.47-8.84" style="fill: #8d98ff;stroke: #000;stroke-miterlimit: 10;stroke-width: 3px"/>
      <path d="M892,717.91s33.65-19.74,63.62-25.56c36.44-7.07,62.54-3.11,62.54-3.11l10.34,7.46,24.47-8.83" style="fill: #8d98ff;stroke: #000;stroke-miterlimit: 10;stroke-width: 3px"/>
      <path d="M892,734.22s33.65-19.74,63.62-25.55c36.44-7.07,62.54-2,62.54-2l10.34,7.47,24.47-8.84" style="fill: #8d98ff;stroke: #000;stroke-miterlimit: 10;stroke-width: 3px"/>
      <path d="M892,748.36s33.65-16.47,63.62-22.29c36.44-7.07,62.54-2,62.54-2l10.34,5.29,24.47-9.92" style="fill: #8d98ff;stroke: #000;stroke-miterlimit: 10;stroke-width: 3px"/>
      <path d="M890.92,764.68s33.25-19.21,63.63-22.29c37.52-3.81,62.54-.95,62.54-.95l10.33,4.21,24.47-4.49" style="fill: #8d98ff;stroke: #000;stroke-miterlimit: 10;stroke-width: 3px"/>
      <path d="M890.92,779.9s33.25-18.12,63.63-21.2c37.52-3.81,62.54-.94,62.54-.94l10.33,4.2,24.47-4.48" style="fill: #8d98ff;stroke: #000;stroke-miterlimit: 10;stroke-width: 3px"/>
      <path d="M890.92,796.22S924.17,778.1,954.55,775c37.52-3.8,62.54-.94,62.54-.94l10.33,4.21,24.47-1.23" style="fill: #8d98ff;stroke: #000;stroke-miterlimit: 10;stroke-width: 3px"/>
      <path d="M890.92,811.44s33.25-18.12,63.63-21.2c37.52-3.8,62.54-.94,62.54-.94l10.33,4.2,24.47-1.22" style="fill: #8d98ff;stroke: #000;stroke-miterlimit: 10;stroke-width: 3px"/>
      <path d="M890.92,827.76s33.25-18.12,63.63-21.2c37.52-3.81,62.54-.94,62.54-.94l10.33,4.2,24.47-1.23" style="fill: #8d98ff;stroke: #000;stroke-miterlimit: 10;stroke-width: 3px"/>
      <path d="M890.92,843s33.25-14.86,63.63-17.94c37.52-3.81,62.54-2,62.54-2l10.33,3.11,24.47-1.22" style="fill: #8d98ff;stroke: #000;stroke-miterlimit: 10;stroke-width: 3px"/>
      <path d="M890.92,857.13s33.25-12.69,63.63-15.77c37.52-3.81,62.54-2,62.54-2l10.33,3.12,24.47-1.23" style="fill: #8d98ff;stroke: #000;stroke-miterlimit: 10;stroke-width: 3px"/>
      <path d="M892,871.27s33.25-11.6,63.62-14.68c37.53-3.81,62.54-.94,62.54-.94l10.34,3.11,24.47-.13" style="fill: #8d98ff;stroke: #000;stroke-miterlimit: 10;stroke-width: 3px"/>
      <path d="M890.92,887.58S924.17,876,954.55,872.9c37.52-3.8,62.54,1.24,62.54,1.24l10.33,2,24.47-1.23" style="fill: #8d98ff;stroke: #000;stroke-miterlimit: 10;stroke-width: 3px"/>
      <path d="M892,902.81s33.25-9.42,63.62-12.5c37.53-3.81,62.54,1.23,62.54,1.23l10.34.94,24.47-.14" style="fill: #8d98ff;stroke: #000;stroke-miterlimit: 10;stroke-width: 3px"/>
      <path d="M892,917s33.25-6.16,63.62-9.24c37.53-3.81,62.54,1.23,62.54,1.23l10.34-.14,24.47-1.23" style="fill: #8d98ff;stroke: #000;stroke-miterlimit: 10;stroke-width: 3px"/>
      <path d="M893.09,931.09s33.13-5.81,63.63-7.07c39.7-1.63,62.54.15,62.54.15l10.34,2,24.47-.14" style="fill: #8d98ff;stroke: #000;stroke-miterlimit: 10;stroke-width: 3px"/>
      <path d="M892,946.31s33.12-3.66,63.62-4.88c40.79-1.64,62.54.14,62.54.14l10.34,2,24.47-1.22" style="fill: #8d98ff;stroke: #000;stroke-miterlimit: 10;stroke-width: 3px"/>
    </g>
    <g>
      <path d="M1361,768.13l84.27-6.34s7.69-55,10.69-75,0-79,0-79l-68-23" style="fill: #03a6d8;stroke: #000;stroke-miterlimit: 10;stroke-width: 3px"/>
      <path d="M1342.92,626.81l45-42s56,163,64,203,16,102,12,138-13,98-13,98-41-126-47-142-37-91-42-110-12-47-14-69S1342.92,626.81,1342.92,626.81Z" style="fill: #03a6d8;stroke: #000;stroke-miterlimit: 10;stroke-width: 3px"/>
      <path d="M1361.92,779.81s-21,100-19,134,19,114,19,114h89" style="fill: #03a6d8;stroke: #000;stroke-miterlimit: 10;stroke-width: 3px"/>
      <line x1="1358.03" y1="1008.81" x2="1444.92" y2="1004.81" style="fill: #03a6d8;stroke: #000;stroke-miterlimit: 10;stroke-width: 3px"/>
      <polyline points="1354.52 990.75 1436.38 979.28 1456.37 985.01" style="fill: none;stroke: #000;stroke-miterlimit: 10;stroke-width: 3px"/>
      <polyline points="1459.81 959.3 1427.73 952.91 1350.81 970.55" style="fill: none;stroke: #000;stroke-miterlimit: 10;stroke-width: 3px"/>
      <path d="M1347.35,949.94c-.43-.13,72.08-22.2,72.08-22.2l43.65,5.41" style="fill: none;stroke: #000;stroke-miterlimit: 10;stroke-width: 3px"/>
      <polyline points="1464.98 909.11 1411.14 902.8 1344.49 929.95" style="fill: none;stroke: #000;stroke-miterlimit: 10;stroke-width: 3px"/>
      <polyline points="1342.92 902.94 1402.13 877.16 1463.08 881.76" style="fill: none;stroke: #000;stroke-miterlimit: 10;stroke-width: 3px"/>
      <polyline points="1463.08 856.48 1392.41 852.73 1344.49 882.13" style="fill: none;stroke: #000;stroke-miterlimit: 10;stroke-width: 3px"/>
      <polyline points="1347.97 858.25 1383.82 831.17 1459.51 833.66" style="fill: none;stroke: #000;stroke-miterlimit: 10;stroke-width: 3px"/>
      <polyline points="1455.97 810.1 1375.24 809.23 1353.03 828.49" style="fill: none;stroke: #000;stroke-miterlimit: 10;stroke-width: 3px"/>
      <line x1="1366.81" y1="786.72" x2="1450.92" y2="787.81" style="fill: #03a6d8;stroke: #000;stroke-miterlimit: 10;stroke-width: 3px"/>
      <line x1="1356.11" y1="748.65" x2="1436.99" y2="734.15" style="fill: #03a6d8;stroke: #000;stroke-miterlimit: 10;stroke-width: 3px"/>
      <polyline points="1353.03 730.41 1429.42 709.97 1450.92 720.12" style="fill: none;stroke: #000;stroke-miterlimit: 10;stroke-width: 3px"/>
      <line x1="1454.54" y1="696.16" x2="1422.97" y2="683.81" style="fill: #03a6d8;stroke: #000;stroke-miterlimit: 10;stroke-width: 3px"/>
      <line x1="1413.92" y1="654.81" x2="1457.01" y2="672.63" style="fill: #03a6d8;stroke: #000;stroke-miterlimit: 10;stroke-width: 3px"/>
      <line x1="1455.98" y1="646.6" x2="1404.5" y2="629.26" style="fill: #03a6d8;stroke: #000;stroke-miterlimit: 10;stroke-width: 3px"/>
      <line x1="1396.55" y1="605.06" x2="1456.65" y2="625.65" style="fill: #03a6d8;stroke: #000;stroke-miterlimit: 10;stroke-width: 3px"/>
      <line x1="1344.07" y1="646.6" x2="1396.55" y2="615.35" style="fill: #03a6d8;stroke: #000;stroke-miterlimit: 10;stroke-width: 3px"/>
      <line x1="1407.04" y1="641.43" x2="1343.92" y2="668.81" style="fill: #03a6d8;stroke: #000;stroke-miterlimit: 10;stroke-width: 3px"/>
      <line x1="1346.89" y1="689.99" x2="1415.12" y2="665.83" style="fill: #03a6d8;stroke: #000;stroke-miterlimit: 10;stroke-width: 3px"/>
      <line x1="1422.97" y1="689.86" x2="1348.72" y2="709.96" style="fill: #03a6d8;stroke: #000;stroke-miterlimit: 10;stroke-width: 3px"/>
    </g>
    <g>
      <line x1="1099.49" y1="836.15" x2="1099.49" y2="928.58" style="fill: #b0f0ff;stroke: #000;stroke-miterlimit: 10;stroke-width: 3px"/>
      <line x1="1081.92" y1="934.81" x2="1092.92" y2="939.81" style="fill: #b0f0ff;stroke: #000;stroke-miterlimit: 10;stroke-width: 3px"/>
      <g>
        <polyline points="1100.42 645.31 1100.42 634.31 1136.42 621.31 1136.42 634.31 1161.62 654.74 1173.42 664.31 1173.42 749.31" style="fill: #b0f0ff;stroke: #000;stroke-miterlimit: 10;stroke-width: 3px"/>
        <polygon points="1092.92 1028.81 1092.92 939.81 1141.92 928.81 1181.92 945.81 1181.92 1028.81 1092.92 1028.81" style="fill: #b0f0ff;stroke: #000;stroke-miterlimit: 10;stroke-width: 3px"/>
        <line x1="1141.92" y1="988.51" x2="1181.92" y2="996.92" style="fill: #b0f0ff;stroke: #000;stroke-miterlimit: 10;stroke-width: 3px"/>
        <polyline points="1092.92 947.95 1141.92 947.95 1181.92 967.59" style="fill: #b0f0ff;stroke: #000;stroke-miterlimit: 10;stroke-width: 3px"/>
        <polyline points="1129.92 820.81 1169.92 856.81 1169.92 935.81 1129.92 917.81" style="fill: #b0f0ff;stroke: #000;stroke-miterlimit: 10;stroke-width: 3px"/>
        <polyline points="1134.92 823.81 1140.92 820.81 1178.92 850.81 1169.92 853.81" style="fill: #b0f0ff;stroke: #000;stroke-miterlimit: 10;stroke-width: 3px"/>
        <polyline points="1091.92 834.81 1091.92 749.81 1141.92 729.81 1141.92 820.81" style="fill: #b0f0ff;stroke: #000;stroke-miterlimit: 10;stroke-width: 3px"/>
        <polyline points="1141.92 729.81 1178.92 755.81 1178.92 851.81" style="fill: #b0f0ff;stroke: #000;stroke-miterlimit: 10;stroke-width: 3px"/>
        <line x1="1142.92" y1="757.81" x2="1178.92" y2="782.31" style="fill: #b0f0ff;stroke: #000;stroke-miterlimit: 10;stroke-width: 3px"/>
        <line x1="1142.92" y1="786.97" x2="1178.92" y2="813.7" style="fill: #b0f0ff;stroke: #000;stroke-miterlimit: 10;stroke-width: 3px"/>
        <line x1="1156.92" y1="739.81" x2="1156.92" y2="831.8" style="fill: #b0f0ff;stroke: #000;stroke-miterlimit: 10;stroke-width: 3px"/>
        <line x1="1169.92" y1="749.26" x2="1167.84" y2="842.06" style="fill: #b0f0ff;stroke: #000;stroke-miterlimit: 10;stroke-width: 3px"/>
        <polyline points="1088.92 745.81 1133.92 723.81 1137.92 727.81 1091.42 749.31 1087.42 747.31 1087.42 654.31 1136.42 634.31 1136.42 723.31" style="fill: #b0f0ff;stroke: #000;stroke-miterlimit: 10;stroke-width: 3px"/>
        <polyline points="1162.42 652.31 1162.42 642.31 1137.42 621.31" style="fill: #b0f0ff;stroke: #000;stroke-miterlimit: 10;stroke-width: 3px"/>
        <line x1="1105.92" y1="649.89" x2="1106.42" y2="734.31" style="fill: #b0f0ff;stroke: #000;stroke-miterlimit: 10;stroke-width: 3px"/>
        <line x1="1120.8" y1="642.43" x2="1120.8" y2="727.81" style="fill: #b0f0ff;stroke: #000;stroke-miterlimit: 10;stroke-width: 3px"/>
        <line x1="1087.92" y1="715.81" x2="1136.42" y2="697.16" style="fill: #b0f0ff;stroke: #000;stroke-miterlimit: 10;stroke-width: 3px"/>
        <line x1="1087.42" y1="681.93" x2="1136.42" y2="664.72" style="fill: #b0f0ff;stroke: #000;stroke-miterlimit: 10;stroke-width: 3px"/>
        <polygon points="1081.92 841.81 1081.92 868.43 1081.92 934.81 1129.92 917.81 1129.92 853.73 1129.92 820.81 1081.92 841.81" style="fill: #b0f0ff;stroke: #000;stroke-miterlimit: 10;stroke-width: 3px"/>
        <line x1="1083.92" y1="902.81" x2="1129.92" y2="883.12" style="fill: #b0f0ff;stroke: #000;stroke-miterlimit: 10;stroke-width: 3px"/>
        <line x1="1081.92" y1="868.81" x2="1129.92" y2="853.81" style="fill: #b0f0ff;stroke: #000;stroke-miterlimit: 10;stroke-width: 3px"/>
        <line x1="1119.21" y1="825.49" x2="1118.92" y2="917.81" style="fill: #b0f0ff;stroke: #000;stroke-miterlimit: 10;stroke-width: 3px"/>
        <line x1="1141.92" y1="928.81" x2="1141.92" y2="1030.31" style="fill: #b0f0ff;stroke: #000;stroke-miterlimit: 10;stroke-width: 3px"/>
        <line x1="1157.6" y1="935.47" x2="1157.6" y2="1028.81" style="fill: #b0f0ff;stroke: #000;stroke-miterlimit: 10;stroke-width: 3px"/>
        <line x1="1169.59" y1="940.57" x2="1169.59" y2="1028.81" style="fill: #b0f0ff;stroke: #000;stroke-miterlimit: 10;stroke-width: 3px"/>
      </g>
      <g>
        <polyline points="1214.42 556.31 1214.42 545.31 1250.42 532.31 1250.42 545.31 1275.62 565.74 1287.42 575.31 1287.42 660.31" style="fill: #b0f0ff;stroke: #000;stroke-miterlimit: 10;stroke-width: 3px"/>
        <polygon points="1206.92 939.81 1206.92 850.81 1255.92 839.81 1295.92 856.81 1288.92 951.81 1251.42 939.32 1206.92 939.81" style="fill: #b0f0ff;stroke: #000;stroke-miterlimit: 10;stroke-width: 3px"/>
        <line x1="1255.92" y1="839.81" x2="1255.92" y2="941.31" style="fill: #b0f0ff;stroke: #000;stroke-miterlimit: 10;stroke-width: 3px"/>
        <line x1="1271.6" y1="846.47" x2="1271.6" y2="943.81" style="fill: #b0f0ff;stroke: #000;stroke-miterlimit: 10;stroke-width: 3px"/>
        <path d="M1283.59,851.57v97.24c0-4.35.33,80,.33,80h-35" style="fill: none;stroke: #000;stroke-miterlimit: 10;stroke-width: 3px"/>
        <line x1="1255.92" y1="899.51" x2="1295.92" y2="907.92" style="fill: #b0f0ff;stroke: #000;stroke-miterlimit: 10;stroke-width: 3px"/>
        <line x1="1255.92" y1="858.95" x2="1295.92" y2="878.59" style="fill: #b0f0ff;stroke: #000;stroke-miterlimit: 10;stroke-width: 3px"/>
        <polygon points="1195.92 752.81 1195.92 779.43 1195.92 845.81 1243.92 828.81 1243.92 764.73 1243.92 731.81 1195.92 752.81" style="fill: #b0f0ff;stroke: #000;stroke-miterlimit: 10;stroke-width: 3px"/>
        <line x1="1197.92" y1="813.81" x2="1243.92" y2="794.12" style="fill: #b0f0ff;stroke: #000;stroke-miterlimit: 10;stroke-width: 3px"/>
        <line x1="1195.92" y1="779.81" x2="1243.92" y2="764.81" style="fill: #b0f0ff;stroke: #000;stroke-miterlimit: 10;stroke-width: 3px"/>
        <line x1="1233.21" y1="736.49" x2="1232.92" y2="828.81" style="fill: #b0f0ff;stroke: #000;stroke-miterlimit: 10;stroke-width: 3px"/>
        <polyline points="1243.92 731.81 1283.92 767.81 1283.92 846.81 1243.92 828.81" style="fill: #b0f0ff;stroke: #000;stroke-miterlimit: 10;stroke-width: 3px"/>
        <polyline points="1248.92 734.81 1254.92 731.81 1292.92 761.81 1283.92 764.81" style="fill: #b0f0ff;stroke: #000;stroke-miterlimit: 10;stroke-width: 3px"/>
        <polyline points="1205.92 745.81 1205.92 660.81 1255.92 640.81 1255.92 731.81" style="fill: #b0f0ff;stroke: #000;stroke-miterlimit: 10;stroke-width: 3px"/>
        <polyline points="1255.92 640.81 1292.92 666.81 1292.92 762.81" style="fill: #b0f0ff;stroke: #000;stroke-miterlimit: 10;stroke-width: 3px"/>
        <line x1="1256.92" y1="668.81" x2="1292.92" y2="693.31" style="fill: #b0f0ff;stroke: #000;stroke-miterlimit: 10;stroke-width: 3px"/>
        <line x1="1256.92" y1="697.97" x2="1292.92" y2="724.7" style="fill: #b0f0ff;stroke: #000;stroke-miterlimit: 10;stroke-width: 3px"/>
        <line x1="1270.92" y1="650.81" x2="1270.92" y2="742.8" style="fill: #b0f0ff;stroke: #000;stroke-miterlimit: 10;stroke-width: 3px"/>
        <line x1="1283.92" y1="660.26" x2="1281.84" y2="753.06" style="fill: #b0f0ff;stroke: #000;stroke-miterlimit: 10;stroke-width: 3px"/>
        <polyline points="1202.92 656.81 1247.92 634.81 1251.92 638.81 1205.42 660.31 1201.42 658.31 1201.42 565.31 1250.42 545.31 1250.42 634.31" style="fill: #b0f0ff;stroke: #000;stroke-miterlimit: 10;stroke-width: 3px"/>
        <polyline points="1276.42 563.31 1276.42 553.31 1251.42 532.31" style="fill: #b0f0ff;stroke: #000;stroke-miterlimit: 10;stroke-width: 3px"/>
        <line x1="1219.92" y1="560.89" x2="1220.42" y2="645.31" style="fill: #b0f0ff;stroke: #000;stroke-miterlimit: 10;stroke-width: 3px"/>
        <line x1="1234.8" y1="553.43" x2="1234.8" y2="638.81" style="fill: #b0f0ff;stroke: #000;stroke-miterlimit: 10;stroke-width: 3px"/>
        <line x1="1201.92" y1="626.81" x2="1250.42" y2="608.16" style="fill: #b0f0ff;stroke: #000;stroke-miterlimit: 10;stroke-width: 3px"/>
        <line x1="1201.42" y1="592.93" x2="1250.42" y2="575.72" style="fill: #b0f0ff;stroke: #000;stroke-miterlimit: 10;stroke-width: 3px"/>
      </g>
      <line x1="1195.92" y1="845.81" x2="1206.92" y2="850.81" style="fill: #b0f0ff;stroke: #000;stroke-miterlimit: 10;stroke-width: 3px"/>
      <polygon points="1200.92 1028.81 1200.92 966.73 1200.92 940.81 1248.92 940.81 1248.92 1028.81 1200.92 1028.81" style="fill: #b0f0ff;stroke: #000;stroke-miterlimit: 10;stroke-width: 3px"/>
      <line x1="1243.92" y1="966.81" x2="1200.92" y2="966.81" style="fill: #b0f0ff;stroke: #000;stroke-miterlimit: 10;stroke-width: 3px"/>
      <line x1="1245.92" y1="998.81" x2="1201.42" y2="998.81" style="fill: #b0f0ff;stroke: #000;stroke-miterlimit: 10;stroke-width: 3px"/>
      <line x1="1216.92" y1="943.81" x2="1216.92" y2="1026.81" style="fill: #b0f0ff;stroke: #000;stroke-miterlimit: 10;stroke-width: 3px"/>
      <line x1="1232.92" y1="942.24" x2="1232.92" y2="1026.81" style="fill: #b0f0ff;stroke: #000;stroke-miterlimit: 10;stroke-width: 3px"/>
    </g>
    <g>
      <rect x="67.8" y="442.81" width="41" height="50" style="fill: #ff7bac;stroke: #000;stroke-miterlimit: 10;stroke-width: 3px"/>
      <rect x="73.8" y="492.81" width="29" height="17" style="fill: #ff7bac;stroke: #000;stroke-miterlimit: 10;stroke-width: 3px"/>
      <rect x="79.8" y="509.81" width="17" height="61" style="fill: #ff7bac;stroke: #000;stroke-miterlimit: 10;stroke-width: 3px"/>
      <rect x="75.3" y="568.81" width="26" height="26" style="fill: #ff7bac;stroke: #000;stroke-miterlimit: 10;stroke-width: 3px"/>
      <rect x="70.3" y="594.81" width="36" height="25" style="fill: #ff7bac;stroke: #000;stroke-miterlimit: 10;stroke-width: 3px"/>
      <polygon points="99.3 619.81 73.3 619.81 69.3 867.81 67.3 908.4 61.3 1027.81 115.3 1027.81 106.3 908.81 106.3 870.49 99.3 619.81" style="fill: #ff7bac;stroke: #000;stroke-miterlimit: 10;stroke-width: 3px"/>
      <line x1="61.3" y1="870.81" x2="115.3" y2="870.81" style="fill: #ff7bac;stroke: #000;stroke-miterlimit: 10;stroke-width: 3px"/>
      <line x1="62.8" y1="799.81" x2="113.8" y2="799.81" style="fill: #ff7bac;stroke: #000;stroke-miterlimit: 10;stroke-width: 3px"/>
      <line x1="65.8" y1="788.81" x2="110.8" y2="788.81" style="fill: #ff7bac;stroke: #000;stroke-miterlimit: 10;stroke-width: 3px"/>
      <line x1="66.8" y1="772.81" x2="109.8" y2="772.81" style="fill: #ff7bac;stroke: #000;stroke-miterlimit: 10;stroke-width: 3px"/>
      <line x1="65.8" y1="757.81" x2="110.8" y2="757.81" style="fill: #ff7bac;stroke: #000;stroke-miterlimit: 10;stroke-width: 3px"/>
      <line x1="74.3" y1="500.11" x2="102.3" y2="500.11" style="fill: #ff7bac;stroke: #000;stroke-miterlimit: 10;stroke-width: 3px"/>
      <line x1="67.8" y1="478.07" x2="108.8" y2="478.07" style="fill: #ff7bac;stroke: #000;stroke-miterlimit: 10;stroke-width: 3px"/>
      <line x1="68.3" y1="466.32" x2="108.3" y2="466.32" style="fill: #ff7bac;stroke: #000;stroke-miterlimit: 10;stroke-width: 3px"/>
      <line x1="68.3" y1="453.69" x2="108.3" y2="453.69" style="fill: #ff7bac;stroke: #000;stroke-miterlimit: 10;stroke-width: 3px"/>
      <rect x="79.3" y="418.81" width="18" height="24" style="fill: #ff7bac;stroke: #000;stroke-miterlimit: 10;stroke-width: 3px"/>
      <line x1="88.3" y1="416.81" x2="88.3" y2="268.81" style="fill: #ff7bac;stroke: #000;stroke-miterlimit: 10;stroke-width: 2px"/>
      <line x1="82.8" y1="300.31" x2="93.8" y2="300.31" style="fill: #ff7bac;stroke: #000;stroke-miterlimit: 10;stroke-width: 2px"/>
      <line x1="82.3" y1="326.31" x2="94.3" y2="326.31" style="fill: #ff7bac;stroke: #000;stroke-miterlimit: 10;stroke-width: 2px"/>
      <line x1="82.3" y1="351.31" x2="94.3" y2="351.31" style="fill: #ff7bac;stroke: #000;stroke-miterlimit: 10;stroke-width: 2px"/>
      <line x1="81.8" y1="388.31" x2="94.8" y2="388.31" style="fill: #ff7bac;stroke: #000;stroke-miterlimit: 10;stroke-width: 2px"/>
    </g>
    <path d="M1427.41,333.12l8.27,2.23-5.5,1.48a8.52,8.52,0,0,0-6,6l-1.48,5.5-1.76-6.54a6.68,6.68,0,0,0-4.7-4.7l-6.54-1.76,6.48-1.75a6.76,6.76,0,0,0,4.78-4.77l1.74-6.48,2.23,8.27A3.55,3.55,0,0,0,1427.41,333.12Z" style="fill: none;stroke: #000;stroke-miterlimit: 10;stroke-width: 2px"/>
  </g>  <g id="faceBody">
    <g>
      <path d="M694.5,672.85l-63-9s-44-26-52-51c-3.69-11.52-7.16-46-9.84-69-3.13-27-5.16-52-5.16-52s-19-47-23-60c-12-39,2-130,2-130s65,47,83,70c12.4,15.85,48,63,48,63l14,12,47-7,27,2,40,8s19-43.84,49-83c31.6-41.26,81.28-77.84,82-74,12,64-22,203-22,203v31l-3,19.7s3.55,56.61-3,66.3c-23,34-39,41-83,59-29.63,12.13-50,8-50,13s9,20,9,20l8,35,68-7,56-15,24-116,20-58s14-10,22-8-2,48-15,73c-10.24,19.7-18,80-18,80l-17,52-66,14-63,14,53,283,23,105s-107,2-194-4c-8.23-.56-44-41-39-51s26-357,31-362,22-50,22-50Z" style="fill: #fff;stroke: #000;stroke-miterlimit: 10;stroke-width: 3px"/>
      <path d="M767,1154.09s-4.5-20.24,7.5-22.24,26,0,26,0,13-4,16-1,7,2,12-1-37-237-37-237" style="fill: none;stroke: #000;stroke-miterlimit: 10;stroke-width: 3px"/>
      <path d="M642.56,1130.81s-29.09,18.86-17.12,23.92,23,.11,25-.88,12-.94,12,.06,16.5-.63,16.5-.63S657.61,1118.89,642.56,1130.81Z" style="fill: #fff;stroke: #000;stroke-miterlimit: 10;stroke-width: 3px"/>
      <path d="M870.31,1124.44s19,5.9,46.19,7.41c36,2,149-15.29,144-9-8,10-29,11-85,21s-103.79-13.38-103.79-13.38Z" style="fill: #fff;stroke: #000;stroke-miterlimit: 10;stroke-width: 3px"/>
      <path d="M674.5,752.85s-21,7-24,11-6,21-6,21-7,33-8,35-16,110-18,113-13,32-15,38-12,20-14,26-32,77-32,77,0,12,7,10,70-137,70-152,10-52,10-55,7-72,7-72l19-13" style="fill: #fff;stroke: #000;stroke-miterlimit: 10;stroke-width: 3px"/>
      <path d="M575.89,352.83a9.79,9.79,0,0,0-17.33,5.79c-1,21.52-1.57,50.52,1.44,60.73,3.43,11.65,15.77,36,23.2,50.13a9.78,9.78,0,0,0,14.68,3.18c6.06-4.76,14.67-10.63,24.12-14.31,8.52-3.31,22-5.73,33.79-7.36a9.78,9.78,0,0,0,4.62-17.46c-17.25-13.19-40.9-31.67-49.41-40.18C603.05,385.4,587.68,367.13,575.89,352.83Z" style="fill: #f50"/>
      <path d="M838.68,454a9.28,9.28,0,0,1-5.43-15c11-13.35,27.15-33.41,29.75-38.62,4-8,45-62,51-67s-2,54-9,73c-4.81,13.07-11,39.83-14.47,55.29A9.29,9.29,0,0,1,877.35,468c-6.84-3.38-15.5-7.48-21.35-9.61A126.78,126.78,0,0,0,838.68,454Z" style="fill: #f50"/>
    </g>
  </g>  <g id="bell">
    <path d="M690,713s27,14,46,13,46-18,46-18" style="fill: none;stroke: #ff4200;stroke-miterlimit: 10;stroke-width: 6px"/>
    <g>
      <path d="M755.82,741.14a32.18,32.18,0,1,0,16.35,28A32.06,32.06,0,0,0,755.82,741.14Z" style="fill: #ffd400;stroke: #000;stroke-miterlimit: 10;stroke-width: 3px"/>
      <circle cx="737.6" cy="769.66" r="30.25" style="fill: #f50"/>
      <circle cx="734" cy="764.61" r="31.33" style="fill: #ffd400;stroke: #000;stroke-miterlimit: 10;stroke-width: 3px"/>
      <path d="M731.83,732.92s-.72-5,3.61-5,3.6,5.76,3.6,5.76" style="fill: none;stroke: #000;stroke-miterlimit: 10;stroke-width: 2px"/>
      <polygon points="730.39 752.73 730.39 754.89 742.14 754.89 728.74 767.91 723.24 762.41 721.71 763.94 727.19 769.41 718.84 777.52 720.34 779.07 728.71 770.94 734.31 776.54 735.84 775.01 730.26 769.44 744.44 755.67 744.44 768.22 746.6 768.22 746.6 752.73 730.39 752.73" style="fill: #f50"/>
      <polygon points="729.67 750.57 729.67 752.73 741.42 752.73 728.01 765.75 722.52 760.25 720.99 761.78 726.47 767.25 718.12 775.36 719.62 776.91 727.99 768.78 733.59 774.38 735.12 772.85 729.54 767.28 743.72 753.5 743.72 766.05 745.88 766.05 745.88 750.57 729.67 750.57" style="fill: #020202"/>
    </g>
  </g>  <g id="nose">
    <path d="M726.57,548.76c-3.83,1.15-13,3-7,8s9.47,9.3,11.75,13.5c2.38,4.4,2.48,7.41-1,11-2.83,2.92-15,1-15,1s12.46,5.61,18,6c5.91.43,21-5,21-5s-11.81-.54-15-4c-4.07-4.41-4.59-7.19-1-12,2.61-3.5,12.25-8.5,14.25-10.5S746.57,542.76,726.57,548.76Z"/>
  </g>  <g id="eyes">
    <path d="M779.18,553.92s-4.45-14.73,14-23c29-13,77,0,89,6s26.12,17,26.12,17-38.12,25-74.12,20S780.18,559.92,779.18,553.92Z" style="fill: #03a3db;stroke: #000;stroke-miterlimit: 10"/>
    <path d="M568.51,544.49c2.44,4.67,67.67,16.43,80.67,15.43s35-10,34-15-19-27-57-27C614.14,517.92,557.84,524.05,568.51,544.49Z" style="fill: #03a3db;stroke: #000;stroke-miterlimit: 10"/>
    <path d="M817.18,548.92s-.72,25.31,5.14,25.66,5.86-25.66,5.86-25.66,1-25.35-5.51-19.18S817.18,548.92,817.18,548.92Z"/>
    <path d="M645.5,527.21s-4.32,14.09-3.32,18.62-3.36,15.83,3.32,16.51,15.68-2.94,12.68-8.37S657.82,519.44,645.5,527.21Z"/>
  </g>  <g id="luckyItem">
    <g>
      <polygon points="367.59 840.02 415.59 816.02 457.59 1088.02 470.59 1083.02 531.59 1076.02 539.59 1075.02 550.59 1073.02 615.59 1085.02 620.09 1078.52 628.09 1042.52 647.09 978.52 685.09 830.52 694.59 795.02 694.59 768.02 688.59 763.02 680.59 774.02 596.09 930.52 584.09 950.52 535.09 907.52 494.09 944.52 438.09 796.52 424.09 787.52 417.09 787.52 404.09 793.52 362.09 831.52 363.09 840.52 367.59 840.02"/>
      <polygon points="366.59 833.02 390.59 811.02 398.59 804.02 415.59 793.02 418.59 791.02 418.59 804.02 416.59 807.02 372.59 833.02 370.59 835.02 366.59 833.02" style="fill: #fff"/>
      <polygon points="431.59 797.02 419.59 806.02 420.59 791.02 431.59 797.02" style="fill: #fff"/>
      <polygon points="420.59 807.02 448.59 990.02 454.59 990.02 489.59 949.02 432.59 798.02 420.59 807.02" style="fill: #deffff"/>
      <polygon points="459.59 988.02 533.59 913.02 546.59 924.02 603.59 981.02 572.59 967.02 459.59 988.02" style="fill: #deffff"/>
      <path d="M441.59,995l106,7,16-26s4-3,5,0-12,28-12,28l90-5-4.25-4.51L622.59,990l-48-20-77,14S442.59,992,441.59,995Z" style="fill: #ace6ef;stroke: #000;stroke-miterlimit: 10;stroke-width: 3px"/>
      <path d="M686.59,771s-19,38-22,45-42,83-48,93-13,22-13,22l-16,31,17,17,18,9,13,3s42-157,48-175S687.59,777,686.59,771Z" style="fill: #deffff"/>
      <polygon points="448.59 1002.02 460.59 1081.02 534.59 1070.02 536.59 1045.02 448.59 1002.02" style="fill: #fff"/>
      <polygon points="452.59 1000.02 536.59 1004.02 536.59 1041.02 452.59 1000.02" style="fill: #fff"/>
      <polygon points="539.59 1004.02 539.59 1041.02 568.59 1007.02 539.59 1004.02" style="fill: #fff"/>
      <polygon points="539.59 1047.02 539.59 1067.02 612.59 1080.02 613.59 1076.02 624.59 1032.02 630.59 1006.02 539.59 1047.02" style="fill: #fff"/>
      <polygon points="539.59 1043.02 572.59 1007.02 629.59 1002.02 627.59 1005.02 539.59 1043.02" style="fill: #fff"/>
    </g>
    <path d="M529.75,1091.82s-4,14.72,4.35,17.83,51.25-29.83,58.48-44.94-13.3-15.3-26.86-1.15S537.29,1077.92,529.75,1091.82Z" style="fill: #fff;stroke: #000;stroke-miterlimit: 10;stroke-width: 3px"/>
  </g><g id="luckyCaption">
  <path d="M577.41,1269.93c1.16-.64,2.25-1.35,3.35-2a2.4,2.4,0,0,1,1.15-.39,2,2,0,0,1,1.68,1.16,3.48,3.48,0,0,1,.32,1.29,2.32,2.32,0,0,1-1.09,1.86c-1.68,1-3.48,2.13-5.41,3.16v20.53c0,4.51-1.93,5.86-6.64,5.86a26.31,26.31,0,0,1-4.7-.45,2.07,2.07,0,0,1-1.86-2.25,3.13,3.13,0,0,1,.06-.71,1.88,1.88,0,0,1,1.93-1.67,2.61,2.61,0,0,1,.65.06,17.91,17.91,0,0,0,3.35.39c2.06,0,2.44-.32,2.44-2.25v-17.07c-2.06,1-4.12,1.94-6,2.71a3,3,0,0,1-1.22.26,2.1,2.1,0,0,1-2.06-1.68,3.51,3.51,0,0,1-.2-1.09,1.92,1.92,0,0,1,1.42-1.87c2.64-1,5.41-2.19,8.11-3.41v-13.13h-7.27c-1.16,0-1.81-1-1.81-2.26s.65-2.19,1.81-2.19h7.27V1244c0-1.29.84-1.93,2.38-1.93s2.39.64,2.39,1.93v10.81h6c1.15,0,1.8.91,1.8,2.19s-.65,2.26-1.8,2.26h-6Zm9-21.11c-1.23,0-1.87-1-1.87-2.26s.64-2.25,1.87-2.25H615c3.93,0,5.93,2,5.86,5.34a65.85,65.85,0,0,1-1.87,15c-1.28,4.32-3.41,5.28-7.85,5.28a37.29,37.29,0,0,1-6.51-.51,2.1,2.1,0,0,1-1.8-2.13,2.38,2.38,0,0,1,.07-.7,2,2,0,0,1,2-1.81,1.52,1.52,0,0,1,.52.07,27.5,27.5,0,0,0,5.15.51c2.51,0,3.35-.64,3.93-2.9a54.47,54.47,0,0,0,1.41-11.9c0-1.23-.51-1.74-2.06-1.74H602.13c-1,11.78-4.89,18.8-13,23.24a3.26,3.26,0,0,1-1.61.45,2.29,2.29,0,0,1-2-1.22,2.74,2.74,0,0,1-.39-1.36,2.1,2.1,0,0,1,1.29-1.93c7-3.86,10.05-8.82,10.82-19.18Zm27.81,25.56c3.87,0,5.54,1.48,5.54,5.27v15.13c0,3.8-1.67,5.28-5.54,5.28h-21.5c-3.87,0-5.54-1.48-5.54-5.28v-15.13c0-3.79,1.67-5.27,5.54-5.27Zm-1.35,21.11c1.35,0,2-.32,2-1.8v-12.94c0-1.48-.65-1.8-2-1.8H594c-1.35,0-2,.32-2,1.8v12.94c0,1.48.65,1.8,2,1.8Z"/>
  <path d="M668.33,1278.5a52.33,52.33,0,0,1-8.5-10.11,207.82,207.82,0,0,1-26.53,2.12c-1.74-.06-2.64-1-2.64-2.25v-.19a2.08,2.08,0,0,1,2.25-2.32,199,199,0,0,0,24.21-1.8,64.85,64.85,0,0,1-3.67-6.89,168.55,168.55,0,0,1-20.41,1.35,2.36,2.36,0,0,1-2.58-2.38,2.22,2.22,0,0,1,2.32-2.38,164.88,164.88,0,0,0,18.48-1.1c-.77-1.74-1.48-3.67-2.25-5.54a2.27,2.27,0,0,1-.26-1.09,2.16,2.16,0,0,1,1.8-2.06,7.07,7.07,0,0,1,1-.13,2.42,2.42,0,0,1,2.39,2c.7,2.12,1.54,4.25,2.32,6.24a125.06,125.06,0,0,0,16.48-3.41,3.18,3.18,0,0,1,1-.19,2,2,0,0,1,2.12,1.74,4.54,4.54,0,0,1,.13.9,2.1,2.1,0,0,1-1.67,2.12,156.85,156.85,0,0,1-16.1,3.41,55.63,55.63,0,0,0,3.61,6.76c5-.84,10-1.86,14.36-3a5.8,5.8,0,0,1,1-.13,2,2,0,0,1,2.25,1.67,4.8,4.8,0,0,1,.13.84c0,1.16-.71,1.8-2.06,2.25-3.67.9-7.92,1.8-12.88,2.64a77.16,77.16,0,0,0,9.59,11.52,3.41,3.41,0,0,1,1.29,2.58,2.9,2.9,0,0,1-2.7,2.9,7,7,0,0,1-3.09-1,36.38,36.38,0,0,0-16.36-3.54c-11.2,0-14.68,3.28-14.68,7.46,0,4.57,4.57,6.76,14.87,6.76a58.13,58.13,0,0,0,16.55-2.44,3.68,3.68,0,0,1,1.16-.2,2.26,2.26,0,0,1,2.32,1.87,4.53,4.53,0,0,1,.13,1,2.52,2.52,0,0,1-1.93,2.51,64.25,64.25,0,0,1-18.55,2.44c-13.2,0-20.09-4.31-20.09-11.71,0-7,6.12-12.11,20.09-12.11a32.87,32.87,0,0,1,14.75,3.29Z"/>
  <path d="M695.62,1258.35a66.27,66.27,0,0,1-6,4.5,2.16,2.16,0,0,1-3.15-.77,3.18,3.18,0,0,1-.39-1.48,2,2,0,0,1,1-1.8,51.91,51.91,0,0,0,6.76-4.9,38.78,38.78,0,0,0-4.64-6.82,2.37,2.37,0,0,1-.51-1.35,2,2,0,0,1,1-1.68,2.81,2.81,0,0,1,1.61-.58,1.93,1.93,0,0,1,1.55.78,44.12,44.12,0,0,1,4.44,6.43,45.15,45.15,0,0,0,5.8-7,2,2,0,0,1,1.73-1,2.56,2.56,0,0,1,1.55.58,2.12,2.12,0,0,1,1,1.74,2.41,2.41,0,0,1-.45,1.35,67.74,67.74,0,0,1-7.54,8.63c2.9,6.82,3.87,14.74,3.87,26.13,0,7.09-.84,12.17-1.8,15.07a6.36,6.36,0,0,1-6.44,4.76,16.14,16.14,0,0,1-5.93-.84,1.78,1.78,0,0,1-1.28-1.86,3.58,3.58,0,0,1,.19-1.1,1.94,1.94,0,0,1,1.87-1.54,1.85,1.85,0,0,1,.57.06,10.65,10.65,0,0,0,3.61.71c1.61,0,2.64-.77,3.28-3a52.06,52.06,0,0,0,1.23-12.36c0-2.26-.07-4.38-.13-6.31a45.83,45.83,0,0,1-8.56,8.37,2.29,2.29,0,0,1-1.42.57,2.33,2.33,0,0,1-1.87-1.09,2.6,2.6,0,0,1-.51-1.48,2.34,2.34,0,0,1,1-1.93,45.08,45.08,0,0,0,10.81-10.49A43,43,0,0,0,695.62,1258.35Zm24.54,1.73c0,1.23-.84,1.81-2.32,1.81s-2.32-.58-2.32-1.81v-5.34h-8.18c-1.15,0-1.8-.9-1.8-2.12s.65-2.26,1.8-2.26h8.18v-6c0-1.22,1-1.87,2.32-1.87s2.32.65,2.32,1.87v6h11v-6.11c0-1.16.9-1.81,2.25-1.81s2.39.65,2.39,1.81v6.11h8.75c1.23,0,1.81,1,1.81,2.26s-.58,2.12-1.81,2.12h-8.75V1260c0,1.22-.91,1.87-2.39,1.87s-2.25-.65-2.25-1.87v-5.28h-11Zm18.61,4c3.6,0,5.34,1.55,5.34,5V1295c0,3.34-1.74,4.89-5.34,4.89H713c-3.55,0-5.28-1.55-5.28-4.89V1269.1c0-3.48,1.73-5,5.28-5Zm-15.65,4.38H714.3c-1.22,0-1.87.39-1.87,1.61v8.76h10.69Zm0,14.55H712.43v10.75c0,1.23.65,1.61,1.87,1.61h8.82Zm16.23-12.94c0-1.22-.65-1.61-1.87-1.61h-9.66v10.37h11.53Zm-1.87,25.3c1.22,0,1.87-.38,1.87-1.61V1283H727.82v12.36Z"/>
  <path d="M778.17,1279.07c-2.25,6.64-4.12,9.53-6.37,11.66a10.54,10.54,0,0,1-7.41,2.83c-6.69,0-12-6.5-12-17.32,0-16,11.21-27.62,28.78-27.62,15.2,0,25.25,9.92,25.25,24.08,0,9.08-3.93,16-10.63,20.22a34.64,34.64,0,0,1-13.52,4.63,2.7,2.7,0,0,1-.71.07,2.49,2.49,0,0,1-2.7-2.26,2,2,0,0,1-.07-.64,2.5,2.5,0,0,1,2.32-2.51c4.7-.65,9.66-2.26,12.88-4.64,4.06-3,7-8.24,7-15,0-10.88-7.15-18.8-18.55-19.18C781.84,1263.17,780.43,1272.19,778.17,1279.07Zm-20.6-2.89c0,7.72,3.28,11.78,6.69,11.78a5.93,5.93,0,0,0,4.32-1.87c1.42-1.35,2.9-4.12,4.44-8.82a96.3,96.3,0,0,0,4.06-23.69C765.29,1254.68,757.57,1263.69,757.57,1276.18Z"/>
  <path d="M822.67,1284c0-3,.12-5.79.38-8.56a72.36,72.36,0,0,1-7.34,6.69,2.51,2.51,0,0,1-1.48.52,2.64,2.64,0,0,1-2.51-2.58,2.45,2.45,0,0,1,1-2c6.44-4.44,14.23-12.68,17.32-18.86a1.62,1.62,0,0,0,.26-.84c0-.45-.39-.71-1.16-.71h-14c-1.16,0-1.81-.9-1.81-2.19s.65-2.25,1.81-2.25h7.4v-9.14c0-1.16,1-1.8,2.45-1.8s2.51.64,2.51,1.8v9.14h4.18c2.52,0,4.13,1.42,4.13,3.6a7.35,7.35,0,0,1-.71,2.84,60.3,60.3,0,0,1-6.7,10,49.75,49.75,0,0,0,8.18,6.82,2.2,2.2,0,0,1,1.22,1.93,2.72,2.72,0,0,1-.51,1.48,2.16,2.16,0,0,1-3.16.58,54.5,54.5,0,0,1-7.08-6.63c.26,3.22.38,5.79.38,8.88v17.64c0,1.16-1,1.81-2.44,1.81s-2.38-.71-2.38-1.81Zm27.49-12.81c-.26,15-4.7,24.27-15.07,30.07a2.92,2.92,0,0,1-1.48.51,2.42,2.42,0,0,1-2.06-1.22,2.55,2.55,0,0,1-.45-1.48,2.29,2.29,0,0,1,1.16-1.94c9.21-5.15,12.94-12.23,13.2-25.94h-1.93c-3.86,0-5.54-1.48-5.54-5.09v-15.32c0-3.67,1.68-5.21,5.54-5.21h20.35c3.79,0,5.53,1.54,5.53,5.21v15.32c0,3.61-1.74,5.09-5.53,5.09h-3.55v23.37c0,1.48.52,1.74,3.61,1.74,2.7,0,3.61-.45,4.06-1.87a41.46,41.46,0,0,0,.71-7.15,1.84,1.84,0,0,1,2.06-1.86H871c1.42.06,2.19.71,2.19,1.93v.13c-.07,3.92-.52,7.66-1.55,10a4.56,4.56,0,0,1-1.86,2.12,12.69,12.69,0,0,1-6.06,1.16h-1.09c-5.86-.06-7-1.41-7-4.7v-24.91Zm12.49-4.44c1.23,0,1.93-.45,1.93-1.87V1252c0-1.48-.7-1.81-1.93-1.81h-17.9c-1.29,0-1.93.33-1.93,1.81v12.87c0,1.42.64,1.87,1.93,1.87Z"/>
  <path d="M894.91,1253.2c2.64,0,4.12,1.67,4.12,3.73a6.11,6.11,0,0,1-.51,2.32,54.07,54.07,0,0,1-7,10.68,34.58,34.58,0,0,0,5.41,4.57,2.39,2.39,0,0,1,1.16,2,2.22,2.22,0,0,1-.39,1.22,2.07,2.07,0,0,1-1.8,1.1,2.41,2.41,0,0,1-1.42-.52,39.3,39.3,0,0,1-4.25-3.92c.2,2.63.39,5.53.39,8.62v17.45c0,1.16-1,1.8-2.38,1.8s-2.45-.71-2.45-1.8V1284c0-2.51.13-5.35.39-8.18a50.9,50.9,0,0,1-6.38,5.73,2.73,2.73,0,0,1-1.67.58,2.44,2.44,0,0,1-1.93-1.09,2.9,2.9,0,0,1-.52-1.55,2.06,2.06,0,0,1,1-1.8c7.08-4.83,13.91-12.49,16.74-18.54a1.71,1.71,0,0,0,.2-.71c0-.45-.33-.77-1-.77H879.39c-1.16,0-1.8-.9-1.8-2.26s.64-2.18,1.8-2.18h6.5v-9.15c0-1.16,1-1.8,2.39-1.8s2.44.64,2.44,1.8v9.15Zm5.67-4.38c-1.16,0-1.74-1-1.74-2.19s.58-2.13,1.74-2.13h34c1.15,0,1.73.91,1.73,2.13s-.58,2.19-1.73,2.19Zm29.1,24.27c3.8,0,5.47,1.41,5.47,5v17.26c0,3.6-1.67,5.08-5.47,5.08H904.89c-3.8,0-5.41-1.48-5.41-5.08V1278c0-3.54,1.61-5,5.41-5Zm-22.34-4.25c-3.48,0-5.09-1.35-5.09-4.64v-6.11c0-3.35,1.61-4.7,5.15-4.7H927c3.67,0,5.28,1.35,5.28,4.7v6.11c0,3.29-1.61,4.64-5.28,4.64Zm7.47,8.24h-8.89c-1.22,0-1.87.32-1.87,1.67v5.67h10.76Zm0,11.2H904.05v6.25c0,1.41.65,1.73,1.87,1.73h8.89Zm-6.12-30.84c-1.22,0-1.8.39-1.8,1.48v4.45c0,1.09.58,1.41,1.73,1.41h17.07c1.29,0,1.87-.32,1.87-1.41v-4.45c0-1.09-.58-1.48-1.87-1.48Zm21.83,21.31c0-1.35-.58-1.67-1.8-1.67h-9.53v7.34h11.33Zm-1.8,17.51c1.22,0,1.8-.32,1.8-1.73v-6.25H919.19v8Z"/>
</g>  <g id="weather">
    <g>
      <path d="M1307.16,129.93l4.76,9.65a1.91,1.91,0,0,0,1.43,1l10.65,1.54a1.91,1.91,0,0,1,1,3.25l-7.7,7.51a1.9,1.9,0,0,0-.55,1.68l1.82,10.61a1.9,1.9,0,0,1-2.76,2l-9.52-5a1.91,1.91,0,0,0-1.77,0l-9.52,5a1.9,1.9,0,0,1-2.76-2l1.81-10.61a1.87,1.87,0,0,0-.54-1.68l-7.71-7.51a1.91,1.91,0,0,1,1.06-3.25l10.64-1.54a1.92,1.92,0,0,0,1.44-1l4.76-9.65A1.9,1.9,0,0,1,1307.16,129.93Z" style="fill: #ff6d00"/>
      <path d="M1352.48,69.38l3.91,7.93a1.56,1.56,0,0,0,1.18.85l8.75,1.27a1.57,1.57,0,0,1,.86,2.67l-6.33,6.17a1.61,1.61,0,0,0-.45,1.38l1.5,8.71a1.56,1.56,0,0,1-2.27,1.65l-7.82-4.11a1.57,1.57,0,0,0-1.46,0l-7.82,4.11a1.56,1.56,0,0,1-2.27-1.65l1.5-8.71a1.58,1.58,0,0,0-.45-1.38L1335,82.1a1.56,1.56,0,0,1,.87-2.67l8.74-1.27a1.56,1.56,0,0,0,1.18-.85l3.91-7.93A1.56,1.56,0,0,1,1352.48,69.38Z" style="fill: #ff6d00"/>
      <path d="M1409.07,154.91l3.23,6.55a1.3,1.3,0,0,0,1,.7l7.22,1.05a1.29,1.29,0,0,1,.71,2.2l-5.22,5.1a1.24,1.24,0,0,0-.37,1.14l1.23,7.19a1.29,1.29,0,0,1-1.87,1.36l-6.46-3.4a1.33,1.33,0,0,0-1.2,0l-6.46,3.4a1.29,1.29,0,0,1-1.87-1.36l1.23-7.19a1.29,1.29,0,0,0-.37-1.14l-5.23-5.1a1.29,1.29,0,0,1,.72-2.2l7.22-1.05a1.28,1.28,0,0,0,1-.7l3.23-6.55A1.29,1.29,0,0,1,1409.07,154.91Z" style="fill: #ff6d00"/>
      <g>
        <path d="M1352.69,167.29c-1.91,42.47-32.82,80.91-75.77,80.91a80,80,0,0,1-80-80c0-39.88,28.7-80,66.88-86-1.1,0-8.25,0-9.35,0-53.47,0-90.27,50.36-90.27,103.83S1207.55,288,1261,288s102-39.28,96.82-101.95C1356.9,174.57,1353.36,171.9,1352.69,167.29Z" style="fill: #ff6d00"/>
        <path d="M1352.42,163.61A80,80,0,1,1,1259.93,81c-1.1,0-2.19-.06-3.3-.06a96.82,96.82,0,1,0,96.81,96.81A98,98,0,0,0,1352.42,163.61Z" style="fill: #ffec00;stroke: #ff6d00;stroke-miterlimit: 10"/>
      </g>
      <path d="M1305.57,125.4l4.77,9.65a1.89,1.89,0,0,0,1.43,1l10.64,1.54a1.91,1.91,0,0,1,1.06,3.25l-7.7,7.51a1.89,1.89,0,0,0-.55,1.68l1.82,10.61a1.9,1.9,0,0,1-2.76,2l-9.53-5a1.85,1.85,0,0,0-1.77,0l-9.52,5a1.9,1.9,0,0,1-2.76-2l1.82-10.61a1.92,1.92,0,0,0-.55-1.68l-7.7-7.51a1.91,1.91,0,0,1,1-3.25l10.65-1.54a1.91,1.91,0,0,0,1.43-1l4.76-9.65A1.9,1.9,0,0,1,1305.57,125.4Z" style="fill: #ffda00;stroke: #ff6d00;stroke-miterlimit: 10"/>
      <path d="M1350,65.79l3.91,7.93a1.56,1.56,0,0,0,1.18.85l8.75,1.27a1.56,1.56,0,0,1,.86,2.67l-6.33,6.17a1.59,1.59,0,0,0-.45,1.38l1.5,8.71a1.56,1.56,0,0,1-2.27,1.65l-7.82-4.12a1.63,1.63,0,0,0-1.46,0L1340,96.42a1.56,1.56,0,0,1-2.27-1.65l1.5-8.71a1.56,1.56,0,0,0-.45-1.38l-6.33-6.17a1.56,1.56,0,0,1,.87-2.67l8.74-1.27a1.56,1.56,0,0,0,1.18-.85l3.91-7.93A1.56,1.56,0,0,1,1350,65.79Z" style="fill: #ffda00;stroke: #ff6d00;stroke-miterlimit: 10"/>
      <path d="M1406.55,152.25l3.23,6.55a1.28,1.28,0,0,0,1,.7l7.23,1.05a1.29,1.29,0,0,1,.71,2.2l-5.22,5.1a1.24,1.24,0,0,0-.37,1.14l1.23,7.19a1.29,1.29,0,0,1-1.87,1.36l-6.46-3.39a1.27,1.27,0,0,0-1.2,0l-6.46,3.39a1.29,1.29,0,0,1-1.88-1.36l1.24-7.19a1.29,1.29,0,0,0-.37-1.14l-5.23-5.1a1.29,1.29,0,0,1,.72-2.2l7.22-1.05a1.28,1.28,0,0,0,1-.7l3.23-6.55A1.29,1.29,0,0,1,1406.55,152.25Z" style="fill: #ffda00;stroke: #ff6d00;stroke-miterlimit: 10"/>
    </g>
  </g>
<g id="generation">
  <path d="M47.6,1246.22c0-3.48-.13-6-.39-8.8H57.92a73.58,73.58,0,0,0-.39,8.74v4.92H66v-6.17a64.11,64.11,0,0,0-.39-7.56H76.12a66.51,66.51,0,0,0-.33,7.43v6.3h8.35v-6.37a59.07,59.07,0,0,0-.33-7.36H94.39a60.29,60.29,0,0,0-.4,7.43v6.3h.59a61.13,61.13,0,0,0,7.69-.39v9.85a64.08,64.08,0,0,0-7.69-.39H94v13.6c0,1.77.07,4.07.26,6.56-1.9-.13-3.54-.19-5.71-.19H71.91c-2.16,0-3.94.06-6.11.19.14-1.7.2-3.67.2-5.91v-14.25H57.53v26.4H90a82.81,82.81,0,0,0,9.53-.39v13.18c-3.22-.33-42-.63-42-.63H47.14c.33-3.35.46-6.77.46-10.45v-28.11a66.38,66.38,0,0,0-7.42.39v-9.85a64.51,64.51,0,0,0,7.42.39Zm28.19,13.93v10.9h8.35v-10.9Z"/>
  <path d="M113.7,1275.58c0-3.54,0-4.92.13-7a40.72,40.72,0,0,1-4.93,5.91,44.23,44.23,0,0,0-4.14-11.43,55,55,0,0,0,11.57-18.4,35.46,35.46,0,0,0,2.43-8.34l10.25,3.35a118,118,0,0,1-5.26,13.14v37.57a70,70,0,0,0,.4,8.15H113.3a68.43,68.43,0,0,0,.4-8.15Zm33.84-12.15a51.68,51.68,0,0,0,3.81,13.93,29.77,29.77,0,0,0,4.46,7.16,6,6,0,0,0,1.91,1.57c.85,0,1.64-4.13,2.1-11.23a34.94,34.94,0,0,0,8.68,5.65c-.86,7.49-1.91,11.43-3.82,14.52a6.85,6.85,0,0,1-6,3.55c-3.35,0-6.64-2.11-10.38-6.64-5.59-6.83-9.2-16-10.91-28l-5.19.33a55.58,55.58,0,0,0-6.63.65l-.07-10c1.91.07,2.1.07,2.82.07,1.06,0,3.42-.07,4.54-.13l3.55-.2c-.27-3.94-.27-3.94-.46-11.5a35.07,35.07,0,0,0-.4-5.58l11-.2a31.47,31.47,0,0,0-.33,5.59c0,3.74.07,6.3.4,11l9.19-.52a77.24,77.24,0,0,0-8.73-10.64l8-5.39a82.72,82.72,0,0,1,9.59,10.64l-7.22,5.26,1.77-.07a61,61,0,0,0,7.75-.85l.07,10.24a23.16,23.16,0,0,0-2.83-.13,36.24,36.24,0,0,0-4.2.2Z"/>
  <text transform="translate(200 1290)" style="font-size: 90px;font-family: DoulosSIL, Doulos SIL">15</text>
</g>  <g id="_5element" data-name="5element">
    <circle cx="1006.37" cy="286.97" r="19.97" style="fill: #fa0"/>
    <g>
      <path d="M1016.46,355.06a1.06,1.06,0,0,1-.92.35A40.46,40.46,0,0,1,1013,359h13v2.41H985.6V359h12.51a23.16,23.16,0,0,0-2.2-4.13l2.24-.79h-6v-8.47h27.21v8.47H1014Zm8.6-14.18v2.28H986.52v-2.28Zm-4-15.58v13.12H990.47V325.3h9.22v-3.65l3.38.22c0,.31-.26.53-.79.57v2.86h6.58v-3.65l3.43.22c0,.31-.26.53-.83.57v2.86Zm-27.88,2.19v3.25h6.54v-3.25Zm0,5.4v3.34h6.54v-3.34Zm1.76,14.88v4.17h21.51v-4.17Zm15.23,11.15a33.8,33.8,0,0,0,3-4.83H998.33a19.45,19.45,0,0,1,2.59,4.83l-.22.09h9.61Zm-1.28-31.43h-6.58v3.25h6.58Zm0,5.4h-6.58v3.34h6.58Zm9.4-2.15v-3.25h-6.8v3.25Zm0,5.49v-3.34h-6.8v3.34Z"/>
      <path d="M1004.81,372.86c-.09.53-.62.75-1.45.79-.48,2.46-1.27,6.72-1.8,9.35,2-.22,3.77-.39,4.87-.39,6.67-.09,9,4.34,9,10.93a34.48,34.48,0,0,1-1.49,9.83c-1.37,4.48-4.18,6.63-7.82,6.63-1.8,0-4.17-.75-7.94-3.82a16.71,16.71,0,0,0,1.18-2.68c3.51,2.72,5.36,3.34,6.72,3.34,2.5,0,4-1.58,4.87-4.39a33.18,33.18,0,0,0,1.4-9c0-5-1.66-8-6-7.95a51.58,51.58,0,0,0-5.36.44c-2.19,9-4.78,16.64-9,23.71l-2.9-1.41c4.26-6.8,6.68-13.6,8.74-21.95-2.24.27-5.44.66-7.81,1.06l-.27-3.07c2.15-.27,5.75-.66,8.69-1,.66-3.21,1.37-7.16,1.89-11ZM1025.13,394a26.32,26.32,0,0,0-9.87-15l2.37-1.84c4.65,3.29,9.26,9.35,10.66,15.63Z"/>
    </g>
  </g>
<g id="manekiPower">
  <text transform="translate(205.81 1456.78)" style="font-size: 121.63294982910156px;fill: #070707;font-family: DoulosSIL, Doulos SIL">477,034</text>
  <ellipse cx="82.99" cy="1415.19" rx="49.5" ry="49.5"/>
  <polygon points="82.92 1378.7 99.5 1378.7 81.54 1414.62 99.5 1414.62 68.55 1454.33 83.19 1421.63 67.58 1422.06 82.92 1378.7" style="fill: #fff"/>
  <text text-anchor="middle" transform="translate(1005 447.47)" style="font-size: 37.49140930175781px;font-family:DoulosSIL, Doulos SIL">10</text>
</g><g id="tokenID">
<text text-anchor="end" transform="translate(1450 1298.55)" style="font-size: 49px;font-family: DoulosSIL, Doulos SIL">122</text>
</g>  <g id="logo">
    <path d="M412.51,140.41l-34.29.33-.26-2-.63-.18a104.29,104.29,0,0,1-14.72-5.72l-6.77,1.86c-.39.11-1,.25-3.32.81-3.36.81-9,2.16-15.29,3.74l-10.12,2.54s-3.56-10.09-3.59-10.19c-8.45,2.14-19,3.94-27.51,3.94-6.05,0-10.75-.93-14.39-2.84-1.07-.56-2.33-1.25-3.68-2.09l-.9,4-36.89-4.45.16-1-28.76,8.94-2.28-3.49-17.92,10.06-3.65-7.14a56.94,56.94,0,0,1-17,2.6,34,34,0,0,1-16-3.76l-1,5.35-42.15-7L113,123c.36-3.14.68-8.21,1-15.11l-14.18.69c1,5.49,2.33,12,4,19.37l2.89,12.81-41.83,7.75L61.46,138c-1.72-5.28-3.28-13.16-4.79-24.07a213.34,213.34,0,0,1-2.21-27.48c0-12,1.43-21.08,4.36-27.81C64.76,45,75.72,43.57,80.15,43.57c6.68,0,13.58,3.14,21.71,9.88l.28.23L105.65,57l1.86-1.85C115,47.55,121.65,44,128.5,44a26.65,26.65,0,0,1,23.1,12.34l.16-1.75,10.41-.14h1.68c30.77,0,40.88,4.13,45.53,8.57L225.26,63c1.22-.41,2.52-.8,3.86-1.16a65.15,65.15,0,0,1,13.67-2.24c.91-.05,1.81-.07,2.68-.07,10.49,0,19.06,3.24,25.49,9.63q.6.6,1.17,1.23A43.53,43.53,0,0,1,288.77,61a47.66,47.66,0,0,1,14.08-2.21,43.39,43.39,0,0,1,13,2,39.18,39.18,0,0,1,4.72,1.84c.16-1.15.34-2.36.53-3.62l1.79-12.14,41.85,8.73-2.84,11.7c-.2.83-.39,1.64-.58,2.44,5.07-2,9.61-3.7,13.55-4.93l4.28-15.3,10.47,2.16c2.91.6,25,6.41,33.22,8.48l-1.53,21.43,13.1,2.19c5.27.87,9.86-3.72,9.86-3.72.29-.83,1.27-16.34,1.6-17.1,5.78-13.26,16.46-14.7,20.78-14.7,6.5,0,13.2,3,21.09,9.59L488,58l3.25,3c.59-.58,1.15-1.13,1.66-1.66,7.26-7.32,13.74-10.73,20.41-10.73,12.26,0,21.77,7.08,26.09,19.42a41.63,41.63,0,0,1,1.43,5,45.4,45.4,0,0,1,5-1.87A46,46,0,0,1,559.48,69,42,42,0,0,1,572.09,71a35,35,0,0,1,9.77,4.8l1-.76c8.11-6,18.49-9.1,30.88-9.1,10.36,0,19.45,2.39,27.07,7.12.84-1.54,1.75-3.08,2.71-4.62l5-8L685,75.07l30.1-15.29,5.54,8.45a108.18,108.18,0,0,1,8.83,15.55,48.93,48.93,0,0,1,4.48,19.9c0,10.81-2.82,19.88-8.39,26.95-6.51,8.33-16.15,12.74-27.86,12.74a37.7,37.7,0,0,1-16-3.38,35.11,35.11,0,0,1-14.48,3c-8.78,0-16.16-2.45-22-7.3l-.55.46c-8.13,6.62-18.24,10-30.08,10s-21.81-2.61-29.85-7.78c-8.42,2.55-21.74,5.24-31.78,5.24-5.87,0-10.45-.91-14-2.77-.15-.07-.29-.15-.43-.23l-.55,2.89-41.08-6.78,1.33-11.7c.34-3,.65-7.81.93-14.36l-13.24.65c.95,5.25,2.23,11.42,3.82,18.47l2.84,12.57-40.76,7.55-2.65-8.15L432,144.3ZM236.19,100.59a94.65,94.65,0,0,0,4.44,15.5l1.3,3.34.2-1.19a83.12,83.12,0,0,0,.94-17.53c0-.93-.11-1.69-.19-2.3A17.16,17.16,0,0,0,236.19,100.59ZM608.66,106a12.36,12.36,0,0,0,4.86.84,11.57,11.57,0,0,0,4.67-.76,13.87,13.87,0,0,0-5.55-.92A7.61,7.61,0,0,0,608.66,106ZM679,88.07A42.34,42.34,0,0,0,674.9,95l14.64-.81c-.87-1.25-2-2.84-3.44-4.86l-4-5.54Z" style="fill: #0702b0"/>
    <path d="M401.41,92.58s16.63,9.5,28.33,8.82,28.32-12.21,28.32-12.21" style="fill: none;stroke: #ff2000;stroke-miterlimit: 10;stroke-width: 6px"/>
    <path d="M383.35,129.21c-.61-4.59-.66-12.3-.16-23.56a241,241,0,0,1,2.07-24.37l.05-.32-7.94-1.76L384,55.66l5.29,1.08c3.39.69,10.4,2.39,21.41,5.17l5.75,1.46L412.13,79.1l1.33.17-.92,5.88c-1.61,10.22-2.41,24.74-2.38,43.15v5.76L384,134.3Z" style="fill: #0702b0"/>
    <path d="M409.29,67.54l-3.31,12-21.35-4.71,3.51-12.43Q393,63.44,409.29,67.54Zm-4.94,60.77-15.24.14q-.84-6.31-.12-22.54a236.41,236.41,0,0,1,2-23.73l15.8,2.07Q404.31,100.1,404.35,128.31Z" style="fill: url(#Sky_2)"/>
    <path d="M387.08,113.63l-5.81,13.23a98.76,98.76,0,0,1-15.54-6.21q-7.51-3.7-14.93-7.52.6,3.3,2.5,9.82c-.73.2-8.85,2.09-18.54,4.49-4.14-11.62-5-24.44-5-36.66,0-9.56,1.16-18,3-30.67l18.42,3.81Q346.69,82.35,347,89.58q4-3.42,16.64-8.62a163.15,163.15,0,0,1,17.54-6.32L387,88l-14.83,4.61q-11.13,4-14.24,8,3.81,2.7,13.94,7.12A152.18,152.18,0,0,0,387.08,113.63Z" style="fill: url(#Sky_2-2)"/>
    <path d="M296,129.19c-5.15,0-9-.71-11.84-2.18-7.06-3.68-14.77-9.06-18.47-21.09-2.73-8.87-1.22-17.44,4.5-25.49a37.72,37.72,0,0,1,20.21-14.5,42.69,42.69,0,0,1,12.5-2,38.5,38.5,0,0,1,11.41,1.73c9.31,2.94,15.61,9,18.26,17.65,1.7,5.54,1.44,10.63-.79,15.12l-.07.14a18,18,0,0,1-2.68,3.77l4,19.93-5,1.54C319.64,126.43,306.06,129.19,296,129.19Z" style="fill: #0702b0"/>
    <path d="M327,85.07q1.89,6.14-.45,10.83t-8.68,6.55q-7.75,2.39-30.29,3.13c7.43,7.08,27.22,1.48,35.91-1.19l2.81,13.92c-10.35,3.19-32.14,7.37-39.48,3.55-6.85-3.57-12.63-8-15.6-17.64q-3.27-10.64,3.68-20.43a31.94,31.94,0,0,1,17.19-12.31,34.07,34.07,0,0,1,20.49-.22Q323.83,74.82,327,85.07Zm-14.67,3.46c-.67-2.17-2.64-3.48-5.93-3.94a19.87,19.87,0,0,0-18.55,8.22q20.1-1.14,23.45-2.18c.7-.21,1.12-.45,1.25-.7S312.55,89.3,312.31,88.53Z" style="fill: url(#Sky_2-3)"/>
    <path d="M210.76,127.16c-3.32-5-5.95-12-8-21.34a126.14,126.14,0,0,1-3.08-21.49c-.1-2-.06-5.4.1-10.43l.19-5.6,25.58-.08c1.36-.49,2.81-.94,4.38-1.35a60.11,60.11,0,0,1,12.62-2.06c10.13-.51,18.23,2.15,24.06,7.9s8.83,13.49,9.33,23.43a98.92,98.92,0,0,1-2.49,26.46l-1.14,5.12-26-3.11,1-6a87.67,87.67,0,0,0,1-18.78C248.05,94.4,247,93,247,93l-.09-.13c-.46-.64-2.07-1-4.2-.86-4.57.23-9,2-13.55,5.25a105.08,105.08,0,0,0,5.5,20.41l2.3,5.83-23.8,7.33Z" style="fill: #0702b0"/>
    <path d="M270.12,96.43a92.78,92.78,0,0,1-2.35,24.91L253,119.57a92.78,92.78,0,0,0,1.1-20q-.36-7.31-2.52-10.11-2.58-3.57-9.19-3.25-10,.51-19.54,8.62a114.62,114.62,0,0,0,6.38,25L215.61,124q-4.35-6.61-7.2-19.41A119.62,119.62,0,0,1,205.46,84q-.14-2.7.11-9.94l15,0,.16,3.3q3.57-3,10.7-4.85a54.1,54.1,0,0,1,11.45-1.88q12.71-.64,19.68,6.23T270.12,96.43Z" style="fill: url(#linear-gradient)"/>
    <path d="M189.47,129.88a52.37,52.37,0,0,1-20,4,28.22,28.22,0,0,1-19.68-7.51,25.59,25.59,0,0,1-8.41-19.49c0-10.12,3.77-18.18,11.21-24l1.11-.82,1.94-22.27,5.25-.07h1.62c36.34,0,41.22,5.95,42.83,7.9,5.2,6.33,4.3,23.63,3.64,31.08v9.06c0,3.19,1.11,6.91,3.3,11l2.67,5-22.26,12.38Z" style="fill: #0702b0"/>
    <path d="M207.19,121.52l-12,6.7-3.08-6A47.41,47.41,0,0,1,169.51,128a22.48,22.48,0,0,1-15.76-6,19.88,19.88,0,0,1-6.52-15.21q0-12.4,9-19.38c5.43-4.23,12.49-5.64,21.1-6.34A27.26,27.26,0,0,1,192,83.89l.12,14.43c-3.8-1.75-11-3.7-14.79-3.7q-6.88,0-11.23,2.9a11.19,11.19,0,0,0-5,9.78,6.43,6.43,0,0,0,2.35,5,7.67,7.67,0,0,0,5.35,2.18q10,0,15.76-4.71t6.07-13.41s2.18-13.25-.23-16.65C186,73.52,160,77.59,160,77.59l1-12.07s34.77-.45,39.88,5.78c4.32,5.26,2.32,27.12,2.32,27.12v9.33Q203.21,114,207.19,121.52Z" style="fill: url(#Sky_2-4)"/>
    <path d="M64.72,135.63c-1.62-4.95-3.13-12.5-4.6-23.06a205.33,205.33,0,0,1-2.18-26.68c0-11.16,1.28-19.49,3.91-25.47C66.31,50.31,73.92,48.8,78.07,48.8c5.33,0,11.12,2.72,18.23,8.56l.15.12,7.44,6.86c2.27-2.15,4.25-4.07,5.9-5.72,6.38-6.38,11.81-9.36,17.08-9.36,10.26,0,17.94,5.72,21.61,16.11,2,5.52,3,13,3,22.74,0,18.22-.8,31.31-2.46,40l-1.23,6.49-31.51-5.15L117,123c.52-4.56,1-12.88,1.36-24.73,0-.25,0-.5,0-.75l-2.53,3.72-21.33,1-2.17-2.68c-.69-.87-1.34-1.65-2-2.36.65,5.89,2.28,15.54,5.88,31.35l1.58,6.9-31.28,5.74Z" style="fill: #0702b0"/>
    <path d="M149.89,87.53q0,26.44-2.34,38.73l-18.61-3q.81-7.14,1.4-25.28.58-19.18-.11-19.19-2.46,0-12.88,15.33l-14.51.7q-9.24-11.46-13-11.46-1.41,0-1.41,7.6,0,10.42,6.44,38.62l-18.49,3.39q-2.22-6.78-4.33-21.88A197.86,197.86,0,0,1,70,85.3Q70,55,83.29,55q5.38,0,13.93,7l11.94,11q6.56-6.09,10.65-10.18,7.38-7.38,12.29-7.38,11.11,0,15.21,11.59Q149.89,74.19,149.89,87.53Z" style="fill: url(#Sky_2-5)"/>
    <path d="M701.4,137a31.56,31.56,0,0,1-16.16-4.09,29.57,29.57,0,0,1-14.66,3.76c-10,0-17.7-3.59-23-10.67l0,0C643.21,120,641,112.34,641,103.1c0-10.2,3.57-21,10.63-32.15L654.14,67l28,11.18L677.86,84a50.08,50.08,0,0,0-5.78,10.26,27.58,27.58,0,0,0-2.44,10,7.76,7.76,0,0,0,.94,4.05l.06.09.06.1a2.61,2.61,0,0,0,.44.62,1,1,0,0,0,.09-.15,6,6,0,0,0,.72-3.15v-5.31l23.65-1.3,1.42,3.91c1.27,3.48,2.86,5.74,4.05,5.74.23,0,.72,0,1.59-1.1a4.4,4.4,0,0,0,1.11-2.94,19.81,19.81,0,0,0-2.52-9.73c-.27-.47-1.5-2.46-6.83-9.82L690.56,80,717,66.7l2.75,4.15a101.62,101.62,0,0,1,8.43,14.68,42.73,42.73,0,0,1,4,17.57c0,9.47-2.42,17.32-7.2,23.34C719.45,133.43,711.52,137,701.4,137Z" style="fill: #0702b0"/>
    <path d="M726.57,103.1q0,12.32-6,19.85-6.65,8.43-19.18,8.42-9.54,0-16.08-5.21A24,24,0,0,1,670.58,131q-12.21,0-18.52-8.42-5.43-7.43-5.43-19.52,0-13.74,9.75-29.15l17,6.76a54.66,54.66,0,0,0-6.43,11.42A32.59,32.59,0,0,0,664,104.32a13,13,0,0,0,1.78,7,6.13,6.13,0,0,0,5.54,3.55A5.32,5.32,0,0,0,676,112a11.53,11.53,0,0,0,1.55-6.09l14.19-.78q3.43,9.42,9.32,9.42a7.48,7.48,0,0,0,6-3.21,10,10,0,0,0,2.33-6.43,25.55,25.55,0,0,0-3.21-12.42q-1.11-2-7.21-10.42L715,74a98.39,98.39,0,0,1,8,13.85A37.22,37.22,0,0,1,726.57,103.1Z" style="fill: url(#New_Gradient_Swatch_2)"/>
    <path d="M455.32,137.28c-1.57-4.78-3-12.06-4.45-22.26a199.7,199.7,0,0,1-2.09-25.77c0-10.77,1.23-18.81,3.77-24.58,4.3-9.77,11.66-11.23,15.66-11.23,5.14,0,10.74,2.63,17.6,8.27l.15.12,7.18,6.62c2.2-2.08,4.1-3.93,5.7-5.52,6.16-6.17,11.4-9,16.49-9,9.91,0,17.32,5.53,20.87,15.55,1.92,5.33,2.86,12.53,2.86,22,0,17.6-.78,30.23-2.38,38.63l-1.19,6.26-30.42-5,.71-6.2c.5-4.4.94-12.43,1.31-23.87l0-.73-2.45,3.59-20.6,1L482,102.52c-.67-.84-1.3-1.6-1.88-2.29.63,5.69,2.19,15,5.68,30.28l1.52,6.66-30.2,5.55Z" style="fill: #0702b0"/>
    <path d="M532.51,91.4q0,25.55-2.26,37.4l-18-2.93q.79-6.9,1.36-24.41.55-18.54-.12-18.53-2.37,0-12.43,14.8l-14,.68q-8.93-11.07-12.54-11.08-1.37,0-1.36,7.35,0,10,6.22,37.29l-17.86,3.28q-2.15-6.56-4.18-21.14a191.24,191.24,0,0,1-2-24.86Q455.32,60,468.21,60q5.19,0,13.45,6.78l11.52,10.62q6.33-5.88,10.29-9.83,7.11-7.12,11.86-7.12,10.74,0,14.69,11.19Q532.51,78.52,532.51,91.4Z" style="fill: url(#New_Gradient_Swatch_2-2)"/>
    <path d="M617.45,139.79c-11.06,0-20.34-2.44-27.61-7.26-9.1-6.13-13.7-15-13.7-26.51S580.45,85.37,589,79.11c7.16-5.29,16.49-8,27.72-8,10.56,0,19.58,2.68,26.81,8l0,0c8.41,6.26,12.68,15,12.68,25.89s-4.06,19.6-12.06,26.09C637,136.87,628,139.79,617.45,139.79Zm-1.89-41a12.62,12.62,0,0,0-7.59,2,5.57,5.57,0,0,0-2.55,5.09c0,1.64.45,3,2.61,4.22a16.81,16.81,0,0,0,8.42,1.92,15.67,15.67,0,0,0,8.34-1.92,5,5,0,0,0,2.79-4.78c0-1.52-.36-3.14-3-4.65A18.44,18.44,0,0,0,615.56,98.77Z" style="fill: #0702b0"/>
    <path d="M650.6,105q0,13.64-10,21.73-9.21,7.42-23.17,7.43-15,0-24.51-6.32-11.19-7.55-11.2-21.84,0-14.64,10.54-22.4,9.32-6.87,24.39-6.87,14.08,0,23.51,6.87Q650.59,91.39,650.6,105Zm-17.41.33q0-6.21-5.88-9.53a23.82,23.82,0,0,0-11.75-2.66,18.13,18.13,0,0,0-10.86,3.1,11.11,11.11,0,0,0-4.88,9.65,9.9,9.9,0,0,0,5.43,9.09,22.26,22.26,0,0,0,11.2,2.66q6.87,0,11.31-2.77A10.57,10.57,0,0,0,633.19,105.35Z" style="fill: url(#New_Gradient_Swatch_2-3)"/>
    <path d="M555.23,137.24c-5,0-8.71-.69-11.43-2.11-6.81-3.55-14.25-8.74-17.83-20.36-2.63-8.57-1.17-16.85,4.34-24.62a36.53,36.53,0,0,1,19.52-14,41,41,0,0,1,12.07-1.88,37.23,37.23,0,0,1,11,1.67c9,2.84,15.07,8.73,17.63,17,1.64,5.34,1.38,10.25-.77,14.59l-.07.14a17,17,0,0,1-2.58,3.64L591,130.6l-4.86,1.49C578.11,134.57,565,137.24,555.23,137.24Z" style="fill: #0702b0"/>
    <path d="M585.19,94.63q1.81,5.93-.43,10.46t-8.38,6.33q-7.5,2.31-29.25,3c7.17,6.84,26.28,1.43,34.67-1.15l2.71,13.44c-10,3.08-31,7.12-38.12,3.43-6.61-3.45-12.19-7.73-15.06-17q-3.15-10.26,3.55-19.72a30.88,30.88,0,0,1,16.6-11.89,32.92,32.92,0,0,1,19.78-.21Q582.14,84.74,585.19,94.63ZM571,98q-1-3.15-5.73-3.81a19.19,19.19,0,0,0-17.91,7.94Q566.79,101,570,100a2.1,2.1,0,0,0,1.21-.68A2.7,2.7,0,0,0,571,98Z" style="fill: url(#New_Gradient_Swatch_2-4)"/>
    <g>
      <g>
        <g>
          <g>
            <path d="M475.38,131.52c-1.25-1.47-4.4-2.48-9.09-2.73a39.8,39.8,0,0,0-73.23,28.47c-6.79,6.28-10.55,12.31-7.68,15.68,2.53,3,11.43,2.58,16.53,2.08a39.79,39.79,0,0,0,69.43-32C474.54,140.68,479.31,136.14,475.38,131.52Z" style="fill: #ffd404"/>
            <path d="M428.46,192.46A43.35,43.35,0,0,1,400.35,179c-14,1.05-16.89-2.41-17.89-3.58-2.81-3.31-3.85-9.34,6.46-19.5a43.23,43.23,0,0,1-.41-10.48,43.62,43.62,0,0,1,80-20.31c4.71.5,8,1.81,9.78,3.91a9.28,9.28,0,0,1,2.32,7.22c-.42,3.44-2.79,6.3-5.21,8.39a43,43,0,0,1,.07,7.86A43.67,43.67,0,0,1,428.46,192.46ZM403.51,171l1.29,1.5a36,36,0,0,0,63.06-20.63,36.46,36.46,0,0,0-.3-8.34l-.35-2.31,1.9-1.37c2.72-2,3.8-3.63,3.91-4.54,0-.17.08-.58-.54-1.31-.35-.32-2.15-1.18-6.4-1.41L464,132.5l-1-1.77a36,36,0,0,0-66.18,25.73l.78.47-1.77,2.93c-7.38,6.83-7.75,10.34-7.53,10.6.55.49,4.06,1.65,13.24.75Z" style="fill: #0000b2"/>
          </g>
          <path d="M394.17,161.26l-3.3-6.44c.48-.52,11.85-12.95,33.08-20.73a170.54,170.54,0,0,1,41.71-9.21l.55,7.63a128.59,128.59,0,0,0-39.5,7.24C407.36,146.84,394.27,161.15,394.17,161.26Z" style="fill: #0000b2"/>
        </g>
        <g>
          <path d="M430,165.64a42.83,42.83,0,0,0,4.38,9.32,10.72,10.72,0,1,0-6.37,1.33,48.44,48.44,0,0,1-3.85-8.84Z" style="fill: #0000b2"/>
          <path d="M447.69,181.81l.12-.1s-2.21,1.62-7.58-.91c-2.22-1.05-4.19-3.32-5.81-5.84a10.61,10.61,0,0,1-6.15,1.36l-.22,0c2.22,3.92,5.38,8.07,9.57,10a19.68,19.68,0,0,0,6.85,2c4.73.39,7.15-1.78,7.5-2.12Z" style="fill: #0000b2"/>
          <path d="M434.42,175a42.83,42.83,0,0,1-4.38-9.32l-5.84,1.81a48.44,48.44,0,0,0,3.85,8.84l.22,0A10.61,10.61,0,0,0,434.42,175Z" style="fill: #0000b2"/>
        </g>
      </g>
      <circle cx="423.61" cy="103.73" r="6.89" style="fill: #0000b2"/>
    </g>
  </g>
  <defs>
    <linearGradient id="Sky_2" data-name="Sky 2" x1="406.87" y1="58.34" x2="378.85" y2="155.96" gradientUnits="userSpaceOnUse">
      <stop offset="0" stop-color="#c6e0f5"/>
      <stop offset="0.06" stop-color="#bdddf4"/>
      <stop offset="0.15" stop-color="#a3d4f1"/>
      <stop offset="0.28" stop-color="#7ac7eb"/>
      <stop offset="0.42" stop-color="#40b3e4"/>
      <stop offset="0.57" stop-color="#009edc"/>
      <stop offset="0.87" stop-color="#0077c3"/>
      <stop offset="0.99" stop-color="#005d9b"/>
    </linearGradient>
    <linearGradient id="Sky_2-2" x1="361.62" y1="50.01" x2="354.97" y2="154.01" xlink:href="#Sky_2"/>
    <linearGradient id="Sky_2-3" x1="316.67" y1="61.44" x2="282.63" y2="143.26" xlink:href="#Sky_2"/>
    <linearGradient id="linear-gradient" x1="238.54" y1="60.55" x2="236.14" y2="160.36" gradientUnits="userSpaceOnUse">
      <stop offset="0" stop-color="#c6e0f5"/>
      <stop offset="0.06" stop-color="#bdddf4"/>
      <stop offset="0.15" stop-color="#a3d4f1"/>
      <stop offset="0.28" stop-color="#7ac7eb"/>
      <stop offset="0.42" stop-color="#40b3e4"/>
      <stop offset="0.57" stop-color="#009edc"/>
      <stop offset="0.87" stop-color="#0077c3"/>
    </linearGradient>
    <linearGradient id="Sky_2-4" x1="179.56" y1="61.4" x2="176.38" y2="132.23" xlink:href="#Sky_2"/>
    <linearGradient id="Sky_2-5" x1="98.28" y1="49.18" x2="128.81" y2="163.35" xlink:href="#Sky_2"/>
    <radialGradient id="New_Gradient_Swatch_2" data-name="New Gradient Swatch 2" cx="776.17" cy="46.5" r="423.59" gradientTransform="translate(0 -0.42)" gradientUnits="userSpaceOnUse">
      <stop offset="0" stop-color="#fff700"/>
      <stop offset="0.06" stop-color="#ffea00"/>
      <stop offset="0.24" stop-color="#ffc800"/>
      <stop offset="0.42" stop-color="#ffad00"/>
      <stop offset="0.61" stop-color="#ff9a00"/>
      <stop offset="0.8" stop-color="#ff8f00"/>
      <stop offset="1" stop-color="#ff8b00"/>
    </radialGradient>
    <radialGradient id="New_Gradient_Swatch_2-2" cx="514.22" cy="57.74" r="243.37" xlink:href="#New_Gradient_Swatch_2"/>
    <radialGradient id="New_Gradient_Swatch_2-3" cx="594.62" cy="68.98" r="233.37" xlink:href="#New_Gradient_Swatch_2"/>
    <radialGradient id="New_Gradient_Swatch_2-4" cx="581.66" cy="56.88" r="327.4" xlink:href="#New_Gradient_Swatch_2"/>
  </defs></svg>