<svg xmlns="http://www.w3.org/2000/svg" xmlns:xlink="http://www.w3.org/1999/xlink" viewBox="0 0 1500 1500">  <g id="sky">
<rect width="1500" height="1499.86" style="fill: #112a3f"/>
</g>  <g id="pattern">
<path d="M0,0H0V1500H1500V0H0ZM0,0ZM0,0ZM0,0ZM0,0ZM0,0ZM0,0ZM0,0ZM0,0ZM0,0ZM0,0ZM0,0ZM0,0ZM0,0ZM0,0ZM0,0ZM0,0ZM0,0ZM0,0ZM0,0ZM0,0ZM0,0ZM0,0ZM0,0ZM0,0ZM0,0ZM0,0ZM0,0ZM0,0ZM0,0ZM0,0ZM0,0ZM0,0ZM0,0ZM0,0ZM0,0ZM0,0ZM0,0ZM0,0ZM0,0ZM0,0ZM0,0ZM0,0ZM0,0ZM0,0ZM0,0ZM0,0ZM0,0ZM0,0ZM0,0ZM0,0ZM0,0ZM0,0ZM0,0ZM0,0ZM0,0ZM0,0ZM0,0ZM0,0ZM0,0ZM0,0ZM0,0ZM0,0ZM0,0ZM0,0ZM0,0ZM0,0ZM0,0ZM0,0ZM0,0ZM0,0ZM0,0ZM0,0ZM0,0ZM0,0ZM0,0ZM0,0ZM0,0ZM0,0ZM0,0ZM0,0ZM0,0ZM0,0ZM0,0ZM0,0ZM0,0ZM0,0ZM0,0ZM0,0ZM0,0ZM0,0ZM0,0ZM0,0ZM0,0ZM0,0ZM0,0ZM0,0ZM0,0ZM0,0ZM0,0ZM0,0ZM0,0ZM0,0ZM0,0ZM0,0ZM0,0ZM0,0ZM0,0ZM0,0ZM0,0ZM0,0ZM0,0ZM0,0ZM0,0ZM0,0ZM0,0ZM0,0ZM0,0ZM0,0ZM0,0ZM0,0ZM0,0ZM0,0ZM0,0ZM0,0ZM0,0ZM0,0ZM0,0ZM0,0ZM0,0ZM0,0ZM0,0ZM0,0ZM0,0ZM0,0ZM0,0ZM0,0ZM0,0ZM0,0ZM0,0ZM0,0ZM0,0ZM0,0ZM0,0ZM0,0ZM0,0ZM0,0ZM0,0ZM0,0ZM0,0ZM0,0ZM0,0ZM0,0ZM0,0ZM0,0ZM0,0ZM0,0ZM0,0ZM0,0ZM0,0ZM0,0ZM0,0ZM0,0ZM0,0ZM0,0ZM0,0ZM0,0ZM0,0ZM0,0ZM0,0ZM0,0ZM0,0ZM0,0ZM0,0ZM0,0ZM0,0ZM0,0ZM0,0ZM0,0ZM0,0ZM0,0ZM0,0ZM0,0ZM0,0ZM0,0ZM0,0ZM0,0ZM0,0ZM0,0ZM0,0ZM0,0ZM0,0ZM0,0ZM0,0ZM0,0ZM0,0ZM0,0ZM0,0ZM0,0ZM0,0ZM0,0ZM0,0ZM0,0ZM0,0ZM0,0ZM0,0ZM0,0ZM0,0ZM0,0ZM0,0ZM0,0ZM0,0ZM0,0ZM0,0ZM0,0ZM0,0ZM0,0ZM0,0ZM0,0ZM0,0ZM0,0ZM0,0ZM0,0ZM0,0ZM0,0ZM0,0ZM0,0ZM0,0ZM0,0ZM0,0ZM0,0ZM0,0ZM0,0ZM0,0ZM0,0ZM0,0ZM0,0ZM0,0ZM0,0ZM0,0ZM0,0ZM0,0ZM0,0ZM0,0ZM0,0ZM0,0ZM0,0ZM0,0ZM0,0ZM0,0ZM0,0ZM0,0ZM0,0ZM0,0ZM0,0ZM0,0ZM0,0ZM0,0ZM0,0ZM0,0ZM0,0ZM0,0ZM0,0ZM0,0ZM0,0ZM0,0ZM0,0ZM0,0ZM0,0ZM0,0ZM0,0ZM0,0ZM0,0ZM0,0ZM0,0ZM0,0ZM0,0ZM0,0ZM0,0ZM0,0ZM0,0ZM0,0ZM0,0ZM0,0ZM0,0ZM0,0ZM0,0ZM0,0ZM0,0ZM0,0ZM0,0ZM0,0ZM0,0ZM0,0ZM0,0ZM0,0ZM0,0ZM0,0ZM0,0ZM0,0ZM0,0ZM0,0ZM0,0ZM0,0ZM0,0ZM0,0ZM0,0ZM0,0ZM0,0ZM0,0ZM0,0ZM0,0ZM0,0ZM0,0ZM0,0ZM0,0ZM0,0ZM0,0ZM0,0ZM0,0ZM0,0ZM0,0ZM0,0ZM0,0ZM0,0ZM0,0ZM0,0ZM0,0ZM0,0ZM0,0ZM0,0ZM0,0ZM0,0ZM0,0ZM0,0ZM0,0ZM0,0ZM0,0ZM0,0ZM0,0ZM0,0ZM0,0ZM0,0ZM0,0ZM0,0ZM0,0ZM0,0ZM0,0ZM0,0ZM0,0ZM0,0ZM0,0ZM0,0ZM0,0ZM0,0ZM0,0ZM0,0ZM0,0ZM0,0ZM0,0ZM0,0Z" style="fill: #cccccc;opacity: 0.18"/>
</g>  <g id="base">
<rect y="1330.87" width="1500" height="168.98" style="fill: #2e3192"/>
</g>  <g id="land">
<rect x="0.46" y="1028.55" width="1500.11" height="302.58" style="fill: #d33e20"/>
</g>  <g id="city">
    <polygon points="1116 977 1036.87 977 1037 824 969 825 968.72 977 882.98 977 884 826 811 826 809.6 977 733 977 737 755 1096 755 1096 812 1122 817 1116 977" style="fill: #cccbc6"/>
    <polygon points="347 1029 226 1029 226 666 240 649 240 443 246 440 246 380 275 380 312 380 312 405 321 405 321 644 333 665 333 804 345 807 347 1029" style="fill: #afac9a;stroke: #000;stroke-miterlimit: 10;stroke-width: 4px"/>
    <line x1="0.12" y1="1028.95" x2="1500.12" y2="1028.95" style="fill: #ffc0f9;stroke: #000;stroke-miterlimit: 10;stroke-width: 3px"/>
    <path d="M1262,600.5h-42s-1-13-11-13-9,10-9,10-7-25-28-25-30,26-30,26-16-4-20,2-3,17-3,17h-36" style="fill: none;stroke: #000;stroke-miterlimit: 10;stroke-width: 3px"/>
    <path d="M384.92,247.81s9.23-16.19,21.61-17.59S424.36,248,424.36,248s6.52-12.93,17-14.58,21.52,14.35,21.52,14.35" style="fill: none;stroke: #000;stroke-miterlimit: 10;stroke-width: 3px"/>
    <path d="M1443.15,343.08l8.27,2.23-5.5,1.48a8.52,8.52,0,0,0-6,6l-1.48,5.5-1.76-6.54a6.66,6.66,0,0,0-4.7-4.7l-6.54-1.76,6.48-1.75a6.73,6.73,0,0,0,4.77-4.77l1.75-6.48,2.23,8.27A3.53,3.53,0,0,0,1443.15,343.08Z" style="fill: none;stroke: #000;stroke-miterlimit: 10;stroke-width: 2px"/>
    <path d="M105.15,545.08l8.27,2.23-5.5,1.48a8.52,8.52,0,0,0-6,6l-1.48,5.5-1.76-6.54a6.66,6.66,0,0,0-4.7-4.7l-6.54-1.76,6.48-1.75a6.73,6.73,0,0,0,4.77-4.77l1.75-6.48,2.23,8.27A3.53,3.53,0,0,0,105.15,545.08Z" style="fill: none;stroke: #000;stroke-miterlimit: 10;stroke-width: 2px"/>
    <path d="M1287.15,369.08l8.27,2.23-5.5,1.48a8.52,8.52,0,0,0-6,6l-1.48,5.5-1.76-6.54a6.66,6.66,0,0,0-4.7-4.7l-6.54-1.76,6.48-1.75a6.73,6.73,0,0,0,4.77-4.77l1.75-6.48,2.23,8.27A3.53,3.53,0,0,0,1287.15,369.08Z" style="fill: none;stroke: #000;stroke-miterlimit: 10;stroke-width: 2px"/>
    <path d="M86.36,323.37s.71-9.26,7.84-9.26,6.41,7.12,6.41,7.12,5-17.82,20-17.82S142,322,142,322s11.41-2.85,14.26,1.42,2.14,12.12,2.14,12.12" style="fill: none;stroke: #000;stroke-miterlimit: 10;stroke-width: 3px"/>
    <path d="M1080.15,330.08l8.27,2.23-5.5,1.48a8.52,8.52,0,0,0-6,6l-1.48,5.5-1.76-6.54a6.66,6.66,0,0,0-4.7-4.7l-6.54-1.76,6.48-1.75a6.73,6.73,0,0,0,4.77-4.77l1.75-6.48,2.23,8.27A3.53,3.53,0,0,0,1080.15,330.08Z" style="fill: none;stroke: #000;stroke-miterlimit: 10;stroke-width: 2px"/>
    <path d="M718.15,455.08l8.27,2.23-5.5,1.48a8.52,8.52,0,0,0-6,6l-1.48,5.5-1.76-6.54a6.66,6.66,0,0,0-4.7-4.7l-6.54-1.76,6.48-1.75a6.73,6.73,0,0,0,4.77-4.77l1.75-6.48,2.23,8.27A3.53,3.53,0,0,0,718.15,455.08Z" style="fill: none;stroke: #000;stroke-miterlimit: 10;stroke-width: 2px"/>
    <path d="M1384.15,585.08l8.27,2.23-5.5,1.48a8.52,8.52,0,0,0-6,6l-1.48,5.5-1.76-6.54a6.66,6.66,0,0,0-4.7-4.7l-6.54-1.76,6.48-1.75a6.73,6.73,0,0,0,4.77-4.77l1.75-6.48,2.23,8.27A3.53,3.53,0,0,0,1384.15,585.08Z" style="fill: none;stroke: #000;stroke-miterlimit: 10;stroke-width: 2px"/>
    <path d="M1076.25,453.6l8.27,2.23-5.5,1.48a8.52,8.52,0,0,0-6,6l-1.48,5.5-1.76-6.54a6.68,6.68,0,0,0-4.7-4.7l-6.54-1.76,6.48-1.75a6.73,6.73,0,0,0,4.77-4.77l1.75-6.48,2.23,8.27A3.53,3.53,0,0,0,1076.25,453.6Z" style="fill: none;stroke: #000;stroke-miterlimit: 10;stroke-width: 2px"/>
    <g>
      <polygon points="461.09 318.57 506.55 318.57 506.55 1029.06 406.11 1029.06 406.11 754.32 428.85 754.69 428.85 747.29 416.16 746.24 416.16 737.78 409.81 737.78 409.81 727.21 412.99 727.21 412.99 716.63 410.87 705 411.93 693.37 437.3 693.37 437.3 677.51 419.33 677.51 419.33 669.06 408.54 669.4 408.76 661.65 409.81 657.43 406.11 646.5 406.11 444.92 422.5 444.92 422.5 435.4 426.73 435.4 426.73 418.48 436.25 418.48 436.25 408.97 439.42 408.97 439.42 401.57 439.42 392.05 444.7 392.05 444.7 378.31 447.88 378.31 447.88 369.85 460.56 369.85 461.09 318.57" style="fill: #00e7ff;stroke: #000;stroke-miterlimit: 10;stroke-width: 3px"/>
      <line x1="501.45" y1="317.52" x2="501.45" y2="1028" style="fill: #00e7ff;stroke: #000;stroke-miterlimit: 10"/>
      <line x1="492.45" y1="317.52" x2="492.45" y2="1028" style="fill: #00e7ff;stroke: #000;stroke-miterlimit: 10"/>
      <line x1="487.94" y1="317.52" x2="487.94" y2="1028" style="fill: #00e7ff;stroke: #000;stroke-miterlimit: 10"/>
      <line x1="483.44" y1="317.52" x2="483.44" y2="1028" style="fill: #00e7ff;stroke: #000;stroke-miterlimit: 10"/>
      <line x1="478.94" y1="317.52" x2="478.94" y2="1028" style="fill: #00e7ff;stroke: #000;stroke-miterlimit: 10"/>
      <line x1="474.44" y1="317.52" x2="474.44" y2="1028" style="fill: #00e7ff;stroke: #000;stroke-miterlimit: 10"/>
      <line x1="469.93" y1="317.52" x2="469.93" y2="1028" style="fill: #00e7ff;stroke: #000;stroke-miterlimit: 10"/>
      <line x1="465.43" y1="317.52" x2="465.43" y2="1028" style="fill: #00e7ff;stroke: #000;stroke-miterlimit: 10"/>
      <line x1="460.93" y1="317.52" x2="460.93" y2="1028" style="fill: #00e7ff;stroke: #000;stroke-miterlimit: 10"/>
      <line x1="456.43" y1="369.32" x2="456.43" y2="1028" style="fill: #00e7ff;stroke: #000;stroke-miterlimit: 10"/>
      <line x1="451.92" y1="369.32" x2="451.92" y2="1028" style="fill: #00e7ff;stroke: #000;stroke-miterlimit: 10"/>
      <line x1="447.42" y1="369.32" x2="447.42" y2="1028" style="fill: #00e7ff;stroke: #000;stroke-miterlimit: 10"/>
      <line x1="442.92" y1="391.52" x2="442.92" y2="1028" style="fill: #00e7ff;stroke: #000;stroke-miterlimit: 10"/>
      <line x1="438.42" y1="391.52" x2="438.42" y2="1028" style="fill: #00e7ff;stroke: #000;stroke-miterlimit: 10"/>
      <line x1="433.91" y1="417.96" x2="433.91" y2="1028" style="fill: #00e7ff;stroke: #000;stroke-miterlimit: 10"/>
      <line x1="429.41" y1="417.96" x2="429.41" y2="1028" style="fill: #00e7ff;stroke: #000;stroke-miterlimit: 10"/>
      <line x1="424.91" y1="417.96" x2="424.91" y2="1028" style="fill: #00e7ff;stroke: #000;stroke-miterlimit: 10"/>
      <line x1="420.41" y1="443.33" x2="420.41" y2="1028" style="fill: #00e7ff;stroke: #000;stroke-miterlimit: 10"/>
      <line x1="415.9" y1="443.33" x2="415.9" y2="1028" style="fill: #00e7ff;stroke: #000;stroke-miterlimit: 10"/>
      <line x1="411.4" y1="443.33" x2="411.4" y2="1028" style="fill: #00e7ff;stroke: #000;stroke-miterlimit: 10"/>
      <g>
        <g>
          <line x1="478.01" y1="624.12" x2="505.5" y2="624.12" style="fill: #00e7ff;stroke: #000;stroke-miterlimit: 10;stroke-width: 5px"/>
          <line x1="450.52" y1="629.94" x2="478.01" y2="629.94" style="fill: #00e7ff;stroke: #000;stroke-miterlimit: 10;stroke-width: 5px"/>
          <line x1="450.52" y1="665.88" x2="469.55" y2="665.88" style="fill: #00e7ff;stroke: #000;stroke-miterlimit: 10;stroke-width: 5px"/>
          <line x1="460.03" y1="642.62" x2="486.47" y2="642.62" style="fill: #00e7ff;stroke: #000;stroke-miterlimit: 10;stroke-width: 5px"/>
          <line x1="469.55" y1="657.43" x2="488.58" y2="657.43" style="fill: #00e7ff;stroke: #000;stroke-miterlimit: 10;stroke-width: 5px"/>
          <line x1="434.66" y1="622.54" x2="450.52" y2="622.54" style="fill: #00e7ff;stroke: #000;stroke-miterlimit: 10;stroke-width: 5px"/>
          <line x1="442.06" y1="603.51" x2="478.01" y2="603.51" style="fill: #00e7ff;stroke: #000;stroke-miterlimit: 10;stroke-width: 5px"/>
          <line x1="479.07" y1="596.56" x2="504.97" y2="596.56" style="fill: #00e7ff;stroke: #000;stroke-miterlimit: 10;stroke-width: 10px"/>
          <line x1="451.92" y1="608.35" x2="471.14" y2="608.35" style="fill: #00e7ff;stroke: #000;stroke-miterlimit: 10;stroke-width: 5px"/>
          <line x1="424.91" y1="629.94" x2="433.91" y2="629.94" style="fill: #00e7ff;stroke: #000;stroke-miterlimit: 10;stroke-width: 5px"/>
          <line x1="449.99" y1="635.22" x2="460.03" y2="635.22" style="fill: #00e7ff;stroke: #000;stroke-miterlimit: 10;stroke-width: 5px"/>
          <line x1="434.66" y1="652.47" x2="451.92" y2="652.47" style="fill: #00e7ff;stroke: #000;stroke-miterlimit: 10;stroke-width: 5px"/>
          <line x1="408.8" y1="649.2" x2="424.91" y2="649.2" style="fill: #00e7ff;stroke: #000;stroke-miterlimit: 10;stroke-width: 5px"/>
          <line x1="416.86" y1="660.31" x2="429.41" y2="660.31" style="fill: #00e7ff;stroke: #000;stroke-miterlimit: 10;stroke-width: 5px"/>
          <line x1="410.87" y1="683.86" x2="447.42" y2="683.86" style="fill: #00e7ff;stroke: #000;stroke-miterlimit: 10;stroke-width: 16px"/>
          <line x1="460.03" y1="693.97" x2="411.93" y2="693.97" style="fill: #00e7ff;stroke: #000;stroke-miterlimit: 10;stroke-width: 4px"/>
          <line x1="431.49" y1="705.53" x2="410.87" y2="705.53" style="fill: #00e7ff;stroke: #000;stroke-miterlimit: 10;stroke-width: 4px"/>
          <line x1="434.66" y1="713.58" x2="442.59" y2="713.58" style="fill: #00e7ff;stroke: #000;stroke-miterlimit: 10;stroke-width: 4px"/>
          <line x1="471.14" y1="683.86" x2="478.01" y2="683.86" style="fill: #00e7ff;stroke: #000;stroke-miterlimit: 10;stroke-width: 4px"/>
          <polyline points="487.94 574.36 499.66 574.36 504.44 574.36" style="fill: #00e7ff;stroke: #000;stroke-miterlimit: 10;stroke-width: 4px"/>
          <line x1="499.15" y1="590.29" x2="499.15" y2="577.6" style="fill: #00e7ff;stroke: #000;stroke-miterlimit: 10;stroke-width: 10px"/>
          <line x1="411.93" y1="710.82" x2="424.91" y2="710.82" style="fill: #00e7ff;stroke: #000;stroke-miterlimit: 10;stroke-width: 10px"/>
        </g>
        <line x1="452.27" y1="407.99" x2="478.94" y2="407.99" style="fill: #00e7ff;stroke: #000;stroke-miterlimit: 10;stroke-width: 6px"/>
        <line x1="465.43" y1="396.04" x2="465.43" y2="407.99" style="fill: #00e7ff;stroke: #000;stroke-miterlimit: 10;stroke-width: 6px"/>
      </g>
      <line x1="464.26" y1="308" x2="464.26" y2="317.52" style="fill: #00e7ff;stroke: #000;stroke-miterlimit: 10;stroke-width: 3px"/>
      <line x1="503.91" y1="308" x2="503.91" y2="317.52" style="fill: #00e7ff;stroke: #000;stroke-miterlimit: 10;stroke-width: 3px"/>
      <path d="M483.82,315.93s2.65-4.76,6.88-4.76,6.25,6.35,6.25,6.35V1028" style="fill: #00e7ff;stroke: #000;stroke-miterlimit: 10"/>
    </g>
    <g>
      <path d="M1221.3,721.72l8.15,57,3,3v11l3.38,2.53v4.22l4.21,5.49v4.64l6.75,7.17v6.75l5.49,6.75v27.42l3.8,8.86v15.19a6.2,6.2,0,0,1,5.06,2.95,74,74,0,0,1,3.8,8.86l-3,5.06v9.29l3,5.9s4.64,5.49,5.06,7.6v3h-2.53l.42,4.22s7.17,6.33,7.17,7.59-3.8,2.53-3.8,2.53,11.39,11,11,11.82a19.09,19.09,0,0,1-3,2.95v3.8s8.86,6.32,9.7,8.43,0,8,0,8l-.84,2.53c3,2.11,8,2.11,8,2.11l3.8,7.17v6.75l-1.26,3,7.59,1.27,3.8,4.22V1010H1305v6.33h13.5v11.81H1138.32v-8.86h17.3v-7.17h-10.13v-7.59l2.53-3,6.33-2.95-.42-4.64-2.32-2.32a12,12,0,0,1,3.16-8.23c3.38-3.37,6.33-2.11,6.33-2.11l1.69-5.06h-3.38s.85-7.59,1.69-8.86,3-3,6.75-5.06,3.38-7.17,3.38-7.17l-1.69-5.07,3.37-5.06,2.11-4.22-2.11-3.37s4.65-3.38,5.91-7.18-.84-5.9-.84-5.9l3.79-7.6,3.8-4.21V902.38l-3-4.64-2.11-2.53s2.11-5.91,3.8-8a30.37,30.37,0,0,1,5.48-4.64l.84-10.12-2.11-1.69,3-2.11,1.69-10.13V841.21l-2.11-9.71s2.11-5.48,5.06-7.17,4.22-1.69,4.22-1.69l-.42-3.79-3-.42,7.17-8.86-1.68-5.07,2.11-3.37,3-3.8,1.69-6.33.84-9.7,3.8-3.37,5.54-56.16A1,1,0,0,1,1221.3,721.72Z" style="fill: #ffc373;stroke: #000;stroke-miterlimit: 10;stroke-width: 3px"/>
      <line x1="1169.78" y1="949.9" x2="1281.96" y2="949.9" style="fill: #ffec00;stroke: #000;stroke-miterlimit: 10;stroke-width: 3px"/>
      <line x1="1163.07" y1="976.12" x2="1288.36" y2="976.12" style="fill: #ffec00;stroke: #000;stroke-miterlimit: 10;stroke-width: 3px"/>
      <line x1="1155.14" y1="993.8" x2="1297.81" y2="993.8" style="fill: #ffec00;stroke: #000;stroke-miterlimit: 10;stroke-width: 3px"/>
      <line x1="1172.83" y1="937.1" x2="1270.99" y2="937.1" style="fill: #ffec00;stroke: #000;stroke-miterlimit: 10;stroke-width: 3px"/>
      <line x1="1177.7" y1="924.3" x2="1267.94" y2="924.3" style="fill: #ffec00;stroke: #000;stroke-miterlimit: 10;stroke-width: 3px"/>
      <line x1="1185.63" y1="912.71" x2="1264.89" y2="912.71" style="fill: #ffec00;stroke: #000;stroke-miterlimit: 10;stroke-width: 3px"/>
      <line x1="1185.63" y1="902.35" x2="1261.84" y2="902.35" style="fill: #ffec00;stroke: #000;stroke-miterlimit: 10;stroke-width: 3px"/>
      <line x1="1182.58" y1="897.47" x2="1261.84" y2="897.47" style="fill: #ffec00;stroke: #000;stroke-miterlimit: 10;stroke-width: 3px"/>
      <line x1="1189.9" y1="882.84" x2="1255.74" y2="882.84" style="fill: #ffec00;stroke: #000;stroke-miterlimit: 10;stroke-width: 3px"/>
      <line x1="1189.9" y1="872.47" x2="1255.74" y2="872.47" style="fill: #ffec00;stroke: #000;stroke-miterlimit: 10;stroke-width: 3px"/>
      <line x1="1190.2" y1="877.69" x2="1255.74" y2="877.69" style="fill: #ffec00;stroke: #000;stroke-miterlimit: 10;stroke-width: 3px"/>
      <line x1="1191.73" y1="868.81" x2="1255.74" y2="868.81" style="fill: #ffec00;stroke: #000;stroke-miterlimit: 10;stroke-width: 3px"/>
      <line x1="1192.14" y1="864.68" x2="1255.74" y2="864.68" style="fill: #ffec00;stroke: #000;stroke-miterlimit: 10;stroke-width: 3px"/>
      <path d="M1192.74,861c2-.14,59.35,0,59.35,0" style="fill: #ffec00;stroke: #000;stroke-miterlimit: 10;stroke-width: 3px"/>
      <line x1="1192.95" y1="858.45" x2="1252.09" y2="858.45" style="fill: #ffec00;stroke: #000;stroke-miterlimit: 10;stroke-width: 3px"/>
      <line x1="1191.73" y1="831.62" x2="1252.09" y2="831.62" style="fill: #ffec00;stroke: #000;stroke-miterlimit: 10;stroke-width: 3px"/>
      <line x1="1192.95" y1="835.56" x2="1252.09" y2="835.56" style="fill: #ffec00;stroke: #000;stroke-miterlimit: 10;stroke-width: 3px"/>
      <line x1="1199.65" y1="818.82" x2="1246.6" y2="818.82" style="fill: #ffec00;stroke: #000;stroke-miterlimit: 10;stroke-width: 3px"/>
      <line x1="1204.53" y1="807.24" x2="1239.28" y2="807.24" style="fill: #ffec00;stroke: #000;stroke-miterlimit: 10;stroke-width: 3px"/>
      <line x1="1207.58" y1="797.48" x2="1235.62" y2="797.48" style="fill: #ffec00;stroke: #000;stroke-miterlimit: 10;stroke-width: 3px"/>
      <line x1="1213.68" y1="777.97" x2="1229.53" y2="777.97" style="fill: #ffec00;stroke: #000;stroke-miterlimit: 10;stroke-width: 3px"/>
      <line x1="1214.43" y1="771.89" x2="1228.39" y2="771.89" style="fill: #ffec00;stroke: #000;stroke-miterlimit: 10;stroke-width: 3px"/>
      <line x1="1214.97" y1="766.45" x2="1227.69" y2="766.45" style="fill: #ffec00;stroke: #000;stroke-miterlimit: 10;stroke-width: 3px"/>
      <line x1="1215.56" y1="760.48" x2="1226.14" y2="760.48" style="fill: #ffec00;stroke: #000;stroke-miterlimit: 10;stroke-width: 3px"/>
      <line x1="1216.05" y1="755.46" x2="1225.18" y2="755.46" style="fill: #ffec00;stroke: #000;stroke-miterlimit: 10;stroke-width: 3px"/>
      <line x1="1216.55" y1="750.47" x2="1225.18" y2="750.47" style="fill: #ffec00;stroke: #000;stroke-miterlimit: 10;stroke-width: 3px"/>
      <line x1="1217.07" y1="745.14" x2="1223.94" y2="745.14" style="fill: #ffec00;stroke: #000;stroke-miterlimit: 10;stroke-width: 3px"/>
      <path d="M1347.81,846.87s-1.83,3.65-3.66,1.83,0-14.64,0-14.64-6.1-7.92-7.32-15.85.61-24.39,5.49-27.44,7.32-6.09,9.15-6.7,0-4.27,3-6.1,4.88-6.1,9.15-5.49,17.07,0,17.07,0,14,14.64,15.24,16.47,6.1,5.48,6.1,11v7.32s-.9.29-2.11.58c-2.26.53-5.63,1-6.43-.58-1.21-2.44-9.14-6.71-12.8-3.66s-9.75,3-11.58,7.31-3.66,13.42-4.88,14-5.49,0-5.49-1.83,1.22-6.71-1.83-7.93-6.7-1.83-7.31,1.22.61,12.8.61,14.63.61,8.54,0,10.37-1.83,8.53-1.22,9.14,1.22,4.27,4.27,4.27,4.87-.61,6.09-2.44,3-6.7,2.44-7.92" style="fill: #ffec00;stroke: #000;stroke-miterlimit: 10;stroke-width: 3px"/>
      <path d="M1400.24,810.89s1.22,11.59,0,14a6,6,0,0,1-3,3.05l1.83,11s1.22,1.22-1.83,2.44l-3,1.22v5.49l-1.82,1.82-1.83,3.66V856s0,1.22-3.66,1.83-9.76,1.22-9.76,1.22v6.71c0,1.22-.61,2.44,1.22,3.65L1391.1,878c1.83,1.22,5.48,5.49,7.92,9.76s7.32,14,7.93,17.07-4.27,22.56-4.88,25.6-1.22,15.25,0,19.51,7.32,17.08,9.76,19.51,12.19,11.59,14,12.81,12.8,2.44,13.41,4.27a11.58,11.58,0,0,0,2.44,3.65l9.15,1.22v4.88l7.92,1.83V1003l3,13.41v12.19H1328.3v-26.21s-3-9.76-3.66-11.59-5.49-18.9-6.1-22-3.66-20.12-3.66-23.16V884.06s1.22-6.71,3.66-9.15,8.54-7.31,11-7.92,6.09-.61,8.53-2.44,4.27-6.71,4.88-7.93,1.22-7.92,1.22-7.92" style="fill: #ffec00;stroke: #000;stroke-miterlimit: 10;stroke-width: 3px"/>
      <path d="M1377.07,822.48s7.32-3.66,10.37-4.27,5.49,3,5.49,3" style="fill: #ffec00;stroke: #000;stroke-miterlimit: 10;stroke-width: 3px"/>
      <path d="M1382,824.31s4.27,4.27,6.1,3.05a6.16,6.16,0,0,1,3-1.22" style="fill: #ffec00;stroke: #000;stroke-miterlimit: 10;stroke-width: 3px"/>
      <line x1="1389.27" y1="841.38" x2="1394.14" y2="842.6" style="fill: #ffec00;stroke: #000;stroke-miterlimit: 10;stroke-width: 3px"/>
      <path d="M1370.37,742s-9.15,17.68-9.15,20.73v9.69l19.51.06V762.12S1373.41,744.44,1370.37,742Z" style="fill: #ffec00;stroke: #000;stroke-miterlimit: 10;stroke-width: 3px"/>
      <path d="M1346.59,894.42s.61,66.46,0,68.29,37.19,17.68,42.68,19.51,28,8.53,33.53,9.14" style="fill: #ffec00;stroke: #000;stroke-miterlimit: 10;stroke-width: 3px"/>
      <path d="M1391.1,878.57s-3,13.41-14,18.9-30.37,11-30.37,11" style="fill: #ffec00;stroke: #000;stroke-miterlimit: 10;stroke-width: 3px"/>
      <path d="M1389.27,892s11.58,9.15,12.8,11.59,4.25,7.28,4.25,7.28" style="fill: #ffec00;stroke: #000;stroke-miterlimit: 10;stroke-width: 3px"/>
      <path d="M1389.27,901.13s.61,20.12-8.54,29.26" style="fill: #ffec00;stroke: #000;stroke-miterlimit: 10;stroke-width: 3px"/>
      <path d="M1379.51,901.13s-18.9,12.8-28,14.63" style="fill: #ffec00;stroke: #000;stroke-miterlimit: 10;stroke-width: 3px"/>
    </g>
    <g>
      <polygon points="702.99 1028.53 702.99 978.84 979.49 978.84 1003.9 978.84 1012.04 978.84 1029.87 978.84 1133.82 978.84 1133.82 1028.53 702.99 1028.53" style="fill: #6cd803;stroke: #000;stroke-miterlimit: 10;stroke-width: 3px"/>
      <path d="M808.9,825.2v0Z" style="fill: none;stroke: #000;stroke-miterlimit: 10;stroke-width: 3px"/>
      <polygon points="1094.59 813.68 1094.59 756.15 736.33 756.15 736.33 977.78 818.67 977.78 837.83 977.78 856.36 977.78 862.77 977.78 878.44 977.78 968.42 977.78 968.42 824.15 1037.06 824.15 1037.06 977.78 1119.44 977.78 1119.44 813.68 1094.59 813.68" style="fill: none;stroke: #000;stroke-miterlimit: 10;stroke-width: 3px"/>
      <polyline points="808.9 826.26 885.39 826.26 885.39 979.9" style="fill: none;stroke: #000;stroke-miterlimit: 10;stroke-width: 3px"/>
      <line x1="1029.87" y1="765.06" x2="1029.87" y2="812.78" style="fill: none;stroke: #000;stroke-miterlimit: 10;stroke-width: 9px"/>
      <circle cx="1071.71" cy="795.78" r="6.86" style="fill: none;stroke: #000;stroke-miterlimit: 10;stroke-width: 3px"/>
      <line x1="1078.58" y1="818.34" x2="1121.07" y2="818.34" style="fill: none;stroke: #000;stroke-miterlimit: 10;stroke-width: 9px"/>
      <g>
        <line x1="738.25" y1="756.23" x2="738.25" y2="759.23" style="fill: none;stroke: #000;stroke-miterlimit: 10;stroke-width: 3px"/>
        <line x1="738.25" y1="765.28" x2="738.25" y2="967.91" style="fill: none;stroke: #000;stroke-miterlimit: 10;stroke-width: 3px;stroke-dasharray: 6.048741340637207,6.048741340637207"/>
        <line x1="738.25" y1="970.94" x2="738.25" y2="973.94" style="fill: none;stroke: #000;stroke-miterlimit: 10;stroke-width: 3px"/>
      </g>
      <g>
        <line x1="746.39" y1="756.23" x2="746.39" y2="759.23" style="fill: none;stroke: #000;stroke-miterlimit: 10;stroke-width: 3px"/>
        <line x1="746.39" y1="765.28" x2="746.39" y2="967.91" style="fill: none;stroke: #000;stroke-miterlimit: 10;stroke-width: 3px;stroke-dasharray: 6.048741340637207,6.048741340637207"/>
        <line x1="746.39" y1="970.94" x2="746.39" y2="973.94" style="fill: none;stroke: #000;stroke-miterlimit: 10;stroke-width: 3px"/>
      </g>
      <g>
        <line x1="754.52" y1="756.23" x2="754.52" y2="759.23" style="fill: none;stroke: #000;stroke-miterlimit: 10;stroke-width: 3px"/>
        <line x1="754.52" y1="765.28" x2="754.52" y2="967.91" style="fill: none;stroke: #000;stroke-miterlimit: 10;stroke-width: 3px;stroke-dasharray: 6.048741340637207,6.048741340637207"/>
        <line x1="754.52" y1="970.94" x2="754.52" y2="973.94" style="fill: none;stroke: #000;stroke-miterlimit: 10;stroke-width: 3px"/>
      </g>
      <g>
        <line x1="762.66" y1="756.23" x2="762.66" y2="759.23" style="fill: none;stroke: #000;stroke-miterlimit: 10;stroke-width: 3px"/>
        <line x1="762.66" y1="765.28" x2="762.66" y2="967.91" style="fill: none;stroke: #000;stroke-miterlimit: 10;stroke-width: 3px;stroke-dasharray: 6.048741340637207,6.048741340637207"/>
        <line x1="762.66" y1="970.94" x2="762.66" y2="973.94" style="fill: none;stroke: #000;stroke-miterlimit: 10;stroke-width: 3px"/>
      </g>
      <g>
        <line x1="770.8" y1="756.23" x2="770.8" y2="759.23" style="fill: none;stroke: #000;stroke-miterlimit: 10;stroke-width: 3px"/>
        <line x1="770.8" y1="765.28" x2="770.8" y2="967.91" style="fill: none;stroke: #000;stroke-miterlimit: 10;stroke-width: 3px;stroke-dasharray: 6.048741340637207,6.048741340637207"/>
        <line x1="770.8" y1="970.94" x2="770.8" y2="973.94" style="fill: none;stroke: #000;stroke-miterlimit: 10;stroke-width: 3px"/>
      </g>
      <g>
        <line x1="778.93" y1="756.23" x2="778.93" y2="759.23" style="fill: none;stroke: #000;stroke-miterlimit: 10;stroke-width: 3px"/>
        <line x1="778.93" y1="765.28" x2="778.93" y2="967.91" style="fill: none;stroke: #000;stroke-miterlimit: 10;stroke-width: 3px;stroke-dasharray: 6.048741340637207,6.048741340637207"/>
        <line x1="778.93" y1="970.94" x2="778.93" y2="973.94" style="fill: none;stroke: #000;stroke-miterlimit: 10;stroke-width: 3px"/>
      </g>
      <g>
        <line x1="787.07" y1="756.23" x2="787.07" y2="759.23" style="fill: none;stroke: #000;stroke-miterlimit: 10;stroke-width: 3px"/>
        <line x1="787.07" y1="765.28" x2="787.07" y2="967.91" style="fill: none;stroke: #000;stroke-miterlimit: 10;stroke-width: 3px;stroke-dasharray: 6.048741340637207,6.048741340637207"/>
        <line x1="787.07" y1="970.94" x2="787.07" y2="973.94" style="fill: none;stroke: #000;stroke-miterlimit: 10;stroke-width: 3px"/>
      </g>
      <g>
        <line x1="795.2" y1="756.23" x2="795.2" y2="759.23" style="fill: none;stroke: #000;stroke-miterlimit: 10;stroke-width: 3px"/>
        <line x1="795.2" y1="765.28" x2="795.2" y2="967.91" style="fill: none;stroke: #000;stroke-miterlimit: 10;stroke-width: 3px;stroke-dasharray: 6.048741340637207,6.048741340637207"/>
        <line x1="795.2" y1="970.94" x2="795.2" y2="973.94" style="fill: none;stroke: #000;stroke-miterlimit: 10;stroke-width: 3px"/>
      </g>
      <g>
        <line x1="803.34" y1="756.23" x2="803.34" y2="759.23" style="fill: none;stroke: #000;stroke-miterlimit: 10;stroke-width: 3px"/>
        <line x1="803.34" y1="765.28" x2="803.34" y2="967.91" style="fill: none;stroke: #000;stroke-miterlimit: 10;stroke-width: 3px;stroke-dasharray: 6.048741340637207,6.048741340637207"/>
        <line x1="803.34" y1="970.94" x2="803.34" y2="973.94" style="fill: none;stroke: #000;stroke-miterlimit: 10;stroke-width: 3px"/>
      </g>
      <g>
        <g>
          <line x1="890.29" y1="756.23" x2="890.29" y2="759.23" style="fill: none;stroke: #000;stroke-miterlimit: 10;stroke-width: 3px"/>
          <line x1="890.29" y1="765.34" x2="890.29" y2="969.85" style="fill: none;stroke: #000;stroke-miterlimit: 10;stroke-width: 3px;stroke-dasharray: 6.104779243469238,6.104779243469238"/>
          <line x1="890.29" y1="972.9" x2="890.29" y2="975.9" style="fill: none;stroke: #000;stroke-miterlimit: 10;stroke-width: 3px"/>
        </g>
        <g>
          <line x1="898.43" y1="756.23" x2="898.43" y2="759.23" style="fill: none;stroke: #000;stroke-miterlimit: 10;stroke-width: 3px"/>
          <line x1="898.43" y1="765.34" x2="898.43" y2="969.85" style="fill: none;stroke: #000;stroke-miterlimit: 10;stroke-width: 3px;stroke-dasharray: 6.104779243469238,6.104779243469238"/>
          <line x1="898.43" y1="972.9" x2="898.43" y2="975.9" style="fill: none;stroke: #000;stroke-miterlimit: 10;stroke-width: 3px"/>
        </g>
        <g>
          <line x1="906.56" y1="756.23" x2="906.56" y2="759.23" style="fill: none;stroke: #000;stroke-miterlimit: 10;stroke-width: 3px"/>
          <line x1="906.56" y1="765.34" x2="906.56" y2="969.85" style="fill: none;stroke: #000;stroke-miterlimit: 10;stroke-width: 3px;stroke-dasharray: 6.104779243469238,6.104779243469238"/>
          <line x1="906.56" y1="972.9" x2="906.56" y2="975.9" style="fill: none;stroke: #000;stroke-miterlimit: 10;stroke-width: 3px"/>
        </g>
        <g>
          <line x1="914.7" y1="756.23" x2="914.7" y2="759.23" style="fill: none;stroke: #000;stroke-miterlimit: 10;stroke-width: 3px"/>
          <line x1="914.7" y1="765.34" x2="914.7" y2="969.85" style="fill: none;stroke: #000;stroke-miterlimit: 10;stroke-width: 3px;stroke-dasharray: 6.104779243469238,6.104779243469238"/>
          <line x1="914.7" y1="972.9" x2="914.7" y2="975.9" style="fill: none;stroke: #000;stroke-miterlimit: 10;stroke-width: 3px"/>
        </g>
        <g>
          <line x1="922.83" y1="756.23" x2="922.83" y2="759.23" style="fill: none;stroke: #000;stroke-miterlimit: 10;stroke-width: 3px"/>
          <line x1="922.83" y1="765.34" x2="922.83" y2="969.85" style="fill: none;stroke: #000;stroke-miterlimit: 10;stroke-width: 3px;stroke-dasharray: 6.104779243469238,6.104779243469238"/>
          <line x1="922.83" y1="972.9" x2="922.83" y2="975.9" style="fill: none;stroke: #000;stroke-miterlimit: 10;stroke-width: 3px"/>
        </g>
        <g>
          <line x1="930.97" y1="756.23" x2="930.97" y2="759.23" style="fill: none;stroke: #000;stroke-miterlimit: 10;stroke-width: 3px"/>
          <line x1="930.97" y1="765.34" x2="930.97" y2="969.85" style="fill: none;stroke: #000;stroke-miterlimit: 10;stroke-width: 3px;stroke-dasharray: 6.104779243469238,6.104779243469238"/>
          <line x1="930.97" y1="972.9" x2="930.97" y2="975.9" style="fill: none;stroke: #000;stroke-miterlimit: 10;stroke-width: 3px"/>
        </g>
        <g>
          <line x1="939.11" y1="756.23" x2="939.11" y2="759.23" style="fill: none;stroke: #000;stroke-miterlimit: 10;stroke-width: 3px"/>
          <line x1="939.11" y1="765.34" x2="939.11" y2="969.85" style="fill: none;stroke: #000;stroke-miterlimit: 10;stroke-width: 3px;stroke-dasharray: 6.104779243469238,6.104779243469238"/>
          <line x1="939.11" y1="972.9" x2="939.11" y2="975.9" style="fill: none;stroke: #000;stroke-miterlimit: 10;stroke-width: 3px"/>
        </g>
        <g>
          <line x1="947.24" y1="756.23" x2="947.24" y2="759.23" style="fill: none;stroke: #000;stroke-miterlimit: 10;stroke-width: 3px"/>
          <line x1="947.24" y1="765.34" x2="947.24" y2="969.85" style="fill: none;stroke: #000;stroke-miterlimit: 10;stroke-width: 3px;stroke-dasharray: 6.104779243469238,6.104779243469238"/>
          <line x1="947.24" y1="972.9" x2="947.24" y2="975.9" style="fill: none;stroke: #000;stroke-miterlimit: 10;stroke-width: 3px"/>
        </g>
        <g>
          <line x1="955.38" y1="756.23" x2="955.38" y2="759.23" style="fill: none;stroke: #000;stroke-miterlimit: 10;stroke-width: 3px"/>
          <line x1="955.38" y1="765.34" x2="955.38" y2="969.85" style="fill: none;stroke: #000;stroke-miterlimit: 10;stroke-width: 3px;stroke-dasharray: 6.104779243469238,6.104779243469238"/>
          <line x1="955.38" y1="972.9" x2="955.38" y2="975.9" style="fill: none;stroke: #000;stroke-miterlimit: 10;stroke-width: 3px"/>
        </g>
        <g>
          <line x1="963.51" y1="756.23" x2="963.51" y2="759.23" style="fill: none;stroke: #000;stroke-miterlimit: 10;stroke-width: 3px"/>
          <line x1="963.51" y1="765.34" x2="963.51" y2="969.85" style="fill: none;stroke: #000;stroke-miterlimit: 10;stroke-width: 3px;stroke-dasharray: 6.104779243469238,6.104779243469238"/>
          <line x1="963.51" y1="972.9" x2="963.51" y2="975.9" style="fill: none;stroke: #000;stroke-miterlimit: 10;stroke-width: 3px"/>
        </g>
      </g>
      <g>
        <g>
          <line x1="810.53" y1="762.11" x2="810.53" y2="765.11" style="fill: none;stroke: #000;stroke-miterlimit: 10;stroke-width: 3px"/>
          <line x1="810.53" y1="771.57" x2="810.53" y2="819.96" style="fill: none;stroke: #000;stroke-miterlimit: 10;stroke-width: 3px;stroke-dasharray: 6.452179908752441,6.452179908752441"/>
          <line x1="810.53" y1="823.18" x2="810.53" y2="826.18" style="fill: none;stroke: #000;stroke-miterlimit: 10;stroke-width: 3px"/>
        </g>
        <g>
          <line x1="818.67" y1="762.11" x2="818.67" y2="765.11" style="fill: none;stroke: #000;stroke-miterlimit: 10;stroke-width: 3px"/>
          <line x1="818.67" y1="771.57" x2="818.67" y2="819.96" style="fill: none;stroke: #000;stroke-miterlimit: 10;stroke-width: 3px;stroke-dasharray: 6.452179908752441,6.452179908752441"/>
          <line x1="818.67" y1="823.18" x2="818.67" y2="826.18" style="fill: none;stroke: #000;stroke-miterlimit: 10;stroke-width: 3px"/>
        </g>
        <g>
          <line x1="826.8" y1="762.11" x2="826.8" y2="765.11" style="fill: none;stroke: #000;stroke-miterlimit: 10;stroke-width: 3px"/>
          <line x1="826.8" y1="771.57" x2="826.8" y2="819.96" style="fill: none;stroke: #000;stroke-miterlimit: 10;stroke-width: 3px;stroke-dasharray: 6.452179908752441,6.452179908752441"/>
          <line x1="826.8" y1="823.18" x2="826.8" y2="826.18" style="fill: none;stroke: #000;stroke-miterlimit: 10;stroke-width: 3px"/>
        </g>
        <g>
          <line x1="834.94" y1="762.11" x2="834.94" y2="765.11" style="fill: none;stroke: #000;stroke-miterlimit: 10;stroke-width: 3px"/>
          <line x1="834.94" y1="771.57" x2="834.94" y2="819.96" style="fill: none;stroke: #000;stroke-miterlimit: 10;stroke-width: 3px;stroke-dasharray: 6.452179908752441,6.452179908752441"/>
          <line x1="834.94" y1="823.18" x2="834.94" y2="826.18" style="fill: none;stroke: #000;stroke-miterlimit: 10;stroke-width: 3px"/>
        </g>
        <g>
          <line x1="843.07" y1="762.11" x2="843.07" y2="765.11" style="fill: none;stroke: #000;stroke-miterlimit: 10;stroke-width: 3px"/>
          <line x1="843.07" y1="771.57" x2="843.07" y2="819.96" style="fill: none;stroke: #000;stroke-miterlimit: 10;stroke-width: 3px;stroke-dasharray: 6.452179908752441,6.452179908752441"/>
          <line x1="843.07" y1="823.18" x2="843.07" y2="826.18" style="fill: none;stroke: #000;stroke-miterlimit: 10;stroke-width: 3px"/>
        </g>
        <g>
          <line x1="851.21" y1="762.11" x2="851.21" y2="765.11" style="fill: none;stroke: #000;stroke-miterlimit: 10;stroke-width: 3px"/>
          <line x1="851.21" y1="771.57" x2="851.21" y2="819.96" style="fill: none;stroke: #000;stroke-miterlimit: 10;stroke-width: 3px;stroke-dasharray: 6.452179908752441,6.452179908752441"/>
          <line x1="851.21" y1="823.18" x2="851.21" y2="826.18" style="fill: none;stroke: #000;stroke-miterlimit: 10;stroke-width: 3px"/>
        </g>
        <g>
          <line x1="859.35" y1="762.11" x2="859.35" y2="765.11" style="fill: none;stroke: #000;stroke-miterlimit: 10;stroke-width: 3px"/>
          <line x1="859.35" y1="771.57" x2="859.35" y2="819.96" style="fill: none;stroke: #000;stroke-miterlimit: 10;stroke-width: 3px;stroke-dasharray: 6.452179908752441,6.452179908752441"/>
          <line x1="859.35" y1="823.18" x2="859.35" y2="826.18" style="fill: none;stroke: #000;stroke-miterlimit: 10;stroke-width: 3px"/>
        </g>
        <g>
          <line x1="867.48" y1="762.11" x2="867.48" y2="765.11" style="fill: none;stroke: #000;stroke-miterlimit: 10;stroke-width: 3px"/>
          <line x1="867.48" y1="771.57" x2="867.48" y2="819.96" style="fill: none;stroke: #000;stroke-miterlimit: 10;stroke-width: 3px;stroke-dasharray: 6.452179908752441,6.452179908752441"/>
          <line x1="867.48" y1="823.18" x2="867.48" y2="826.18" style="fill: none;stroke: #000;stroke-miterlimit: 10;stroke-width: 3px"/>
        </g>
        <g>
          <line x1="875.62" y1="762.11" x2="875.62" y2="765.11" style="fill: none;stroke: #000;stroke-miterlimit: 10;stroke-width: 3px"/>
          <line x1="875.62" y1="771.57" x2="875.62" y2="819.96" style="fill: none;stroke: #000;stroke-miterlimit: 10;stroke-width: 3px;stroke-dasharray: 6.452179908752441,6.452179908752441"/>
          <line x1="875.62" y1="823.18" x2="875.62" y2="826.18" style="fill: none;stroke: #000;stroke-miterlimit: 10;stroke-width: 3px"/>
        </g>
        <g>
          <line x1="883.75" y1="762.11" x2="883.75" y2="765.11" style="fill: none;stroke: #000;stroke-miterlimit: 10;stroke-width: 3px"/>
          <line x1="883.75" y1="771.57" x2="883.75" y2="819.96" style="fill: none;stroke: #000;stroke-miterlimit: 10;stroke-width: 3px;stroke-dasharray: 6.452179908752441,6.452179908752441"/>
          <line x1="883.75" y1="823.18" x2="883.75" y2="826.18" style="fill: none;stroke: #000;stroke-miterlimit: 10;stroke-width: 3px"/>
        </g>
      </g>
      <g>
        <g>
          <line x1="971.36" y1="762.11" x2="971.36" y2="765.11" style="fill: none;stroke: #000;stroke-miterlimit: 10;stroke-width: 3px"/>
          <line x1="971.36" y1="771.2" x2="971.36" y2="816.87" style="fill: none;stroke: #000;stroke-miterlimit: 10;stroke-width: 3px;stroke-dasharray: 6.088973522186279,6.088973522186279"/>
          <line x1="971.36" y1="819.91" x2="971.36" y2="822.91" style="fill: none;stroke: #000;stroke-miterlimit: 10;stroke-width: 3px"/>
        </g>
        <g>
          <line x1="979.49" y1="762.11" x2="979.49" y2="765.11" style="fill: none;stroke: #000;stroke-miterlimit: 10;stroke-width: 3px"/>
          <line x1="979.49" y1="771.2" x2="979.49" y2="816.87" style="fill: none;stroke: #000;stroke-miterlimit: 10;stroke-width: 3px;stroke-dasharray: 6.088973522186279,6.088973522186279"/>
          <line x1="979.49" y1="819.91" x2="979.49" y2="822.91" style="fill: none;stroke: #000;stroke-miterlimit: 10;stroke-width: 3px"/>
        </g>
        <g>
          <line x1="987.63" y1="762.11" x2="987.63" y2="765.11" style="fill: none;stroke: #000;stroke-miterlimit: 10;stroke-width: 3px"/>
          <line x1="987.63" y1="771.2" x2="987.63" y2="816.87" style="fill: none;stroke: #000;stroke-miterlimit: 10;stroke-width: 3px;stroke-dasharray: 6.088973522186279,6.088973522186279"/>
          <line x1="987.63" y1="819.91" x2="987.63" y2="822.91" style="fill: none;stroke: #000;stroke-miterlimit: 10;stroke-width: 3px"/>
        </g>
        <g>
          <line x1="995.77" y1="762.11" x2="995.77" y2="765.11" style="fill: none;stroke: #000;stroke-miterlimit: 10;stroke-width: 3px"/>
          <line x1="995.77" y1="771.2" x2="995.77" y2="816.87" style="fill: none;stroke: #000;stroke-miterlimit: 10;stroke-width: 3px;stroke-dasharray: 6.088973522186279,6.088973522186279"/>
          <line x1="995.77" y1="819.91" x2="995.77" y2="822.91" style="fill: none;stroke: #000;stroke-miterlimit: 10;stroke-width: 3px"/>
        </g>
        <g>
          <line x1="1003.9" y1="762.11" x2="1003.9" y2="765.11" style="fill: none;stroke: #000;stroke-miterlimit: 10;stroke-width: 3px"/>
          <line x1="1003.9" y1="771.2" x2="1003.9" y2="816.87" style="fill: none;stroke: #000;stroke-miterlimit: 10;stroke-width: 3px;stroke-dasharray: 6.088973522186279,6.088973522186279"/>
          <line x1="1003.9" y1="819.91" x2="1003.9" y2="822.91" style="fill: none;stroke: #000;stroke-miterlimit: 10;stroke-width: 3px"/>
        </g>
        <g>
          <line x1="1012.04" y1="762.11" x2="1012.04" y2="765.11" style="fill: none;stroke: #000;stroke-miterlimit: 10;stroke-width: 3px"/>
          <line x1="1012.04" y1="771.2" x2="1012.04" y2="816.87" style="fill: none;stroke: #000;stroke-miterlimit: 10;stroke-width: 3px;stroke-dasharray: 6.088973522186279,6.088973522186279"/>
          <line x1="1012.04" y1="819.91" x2="1012.04" y2="822.91" style="fill: none;stroke: #000;stroke-miterlimit: 10;stroke-width: 3px"/>
        </g>
        <g>
          <line x1="1020.17" y1="762.11" x2="1020.17" y2="765.11" style="fill: none;stroke: #000;stroke-miterlimit: 10;stroke-width: 3px"/>
          <line x1="1020.17" y1="771.2" x2="1020.17" y2="816.87" style="fill: none;stroke: #000;stroke-miterlimit: 10;stroke-width: 3px;stroke-dasharray: 6.088973522186279,6.088973522186279"/>
          <line x1="1020.17" y1="819.91" x2="1020.17" y2="822.91" style="fill: none;stroke: #000;stroke-miterlimit: 10;stroke-width: 3px"/>
        </g>
      </g>
      <g>
        <line x1="1041.38" y1="756.23" x2="1041.38" y2="759.23" style="fill: none;stroke: #000;stroke-miterlimit: 10;stroke-width: 3px"/>
        <line x1="1041.38" y1="765.34" x2="1041.38" y2="969.85" style="fill: none;stroke: #000;stroke-miterlimit: 10;stroke-width: 3px;stroke-dasharray: 6.104779243469238,6.104779243469238"/>
        <line x1="1041.38" y1="972.9" x2="1041.38" y2="975.9" style="fill: none;stroke: #000;stroke-miterlimit: 10;stroke-width: 3px"/>
      </g>
      <g>
        <line x1="1049.52" y1="756.23" x2="1049.52" y2="759.23" style="fill: none;stroke: #000;stroke-miterlimit: 10;stroke-width: 3px"/>
        <line x1="1049.52" y1="765.34" x2="1049.52" y2="969.85" style="fill: none;stroke: #000;stroke-miterlimit: 10;stroke-width: 3px;stroke-dasharray: 6.104779243469238,6.104779243469238"/>
        <line x1="1049.52" y1="972.9" x2="1049.52" y2="975.9" style="fill: none;stroke: #000;stroke-miterlimit: 10;stroke-width: 3px"/>
      </g>
      <g>
        <line x1="1057.66" y1="756.23" x2="1057.66" y2="759.23" style="fill: none;stroke: #000;stroke-miterlimit: 10;stroke-width: 3px"/>
        <line x1="1057.66" y1="765.34" x2="1057.66" y2="969.85" style="fill: none;stroke: #000;stroke-miterlimit: 10;stroke-width: 3px;stroke-dasharray: 6.104779243469238,6.104779243469238"/>
        <line x1="1057.66" y1="972.9" x2="1057.66" y2="975.9" style="fill: none;stroke: #000;stroke-miterlimit: 10;stroke-width: 3px"/>
      </g>
      <g>
        <line x1="1064.92" y1="809.19" x2="1064.92" y2="812.19" style="fill: none;stroke: #000;stroke-miterlimit: 10;stroke-width: 3px"/>
        <line x1="1064.92" y1="818.14" x2="1064.92" y2="969.92" style="fill: none;stroke: #000;stroke-miterlimit: 10;stroke-width: 3px;stroke-dasharray: 5.952287673950195,5.952287673950195"/>
        <line x1="1064.92" y1="972.9" x2="1064.92" y2="975.9" style="fill: none;stroke: #000;stroke-miterlimit: 10;stroke-width: 3px"/>
      </g>
      <g>
        <line x1="1073.06" y1="809.19" x2="1073.06" y2="812.19" style="fill: none;stroke: #000;stroke-miterlimit: 10;stroke-width: 3px"/>
        <line x1="1073.06" y1="818.14" x2="1073.06" y2="969.92" style="fill: none;stroke: #000;stroke-miterlimit: 10;stroke-width: 3px;stroke-dasharray: 5.952287673950195,5.952287673950195"/>
        <line x1="1073.06" y1="972.9" x2="1073.06" y2="975.9" style="fill: none;stroke: #000;stroke-miterlimit: 10;stroke-width: 3px"/>
      </g>
      <g>
        <line x1="1081.19" y1="809.19" x2="1081.19" y2="812.19" style="fill: none;stroke: #000;stroke-miterlimit: 10;stroke-width: 3px"/>
        <line x1="1081.19" y1="818.14" x2="1081.19" y2="969.92" style="fill: none;stroke: #000;stroke-miterlimit: 10;stroke-width: 3px;stroke-dasharray: 5.952287673950195,5.952287673950195"/>
        <line x1="1081.19" y1="972.9" x2="1081.19" y2="975.9" style="fill: none;stroke: #000;stroke-miterlimit: 10;stroke-width: 3px"/>
      </g>
      <g>
        <line x1="1089.04" y1="756.23" x2="1089.04" y2="759.23" style="fill: none;stroke: #000;stroke-miterlimit: 10;stroke-width: 3px"/>
        <line x1="1089.04" y1="765.34" x2="1089.04" y2="969.85" style="fill: none;stroke: #000;stroke-miterlimit: 10;stroke-width: 3px;stroke-dasharray: 6.104779243469238,6.104779243469238"/>
        <line x1="1089.04" y1="972.9" x2="1089.04" y2="975.9" style="fill: none;stroke: #000;stroke-miterlimit: 10;stroke-width: 3px"/>
      </g>
      <g>
        <line x1="1096.3" y1="818.34" x2="1096.3" y2="821.34" style="fill: none;stroke: #000;stroke-miterlimit: 10;stroke-width: 3px"/>
        <line x1="1096.3" y1="827.48" x2="1096.3" y2="971.79" style="fill: none;stroke: #000;stroke-miterlimit: 10;stroke-width: 3px;stroke-dasharray: 6.140810966491699,6.140810966491699"/>
        <line x1="1096.3" y1="974.86" x2="1096.3" y2="977.86" style="fill: none;stroke: #000;stroke-miterlimit: 10;stroke-width: 3px"/>
      </g>
      <g>
        <line x1="1104.44" y1="818.34" x2="1104.44" y2="821.34" style="fill: none;stroke: #000;stroke-miterlimit: 10;stroke-width: 3px"/>
        <line x1="1104.44" y1="827.48" x2="1104.44" y2="971.79" style="fill: none;stroke: #000;stroke-miterlimit: 10;stroke-width: 3px;stroke-dasharray: 6.140810966491699,6.140810966491699"/>
        <line x1="1104.44" y1="974.86" x2="1104.44" y2="977.86" style="fill: none;stroke: #000;stroke-miterlimit: 10;stroke-width: 3px"/>
      </g>
      <g>
        <line x1="1112.57" y1="818.34" x2="1112.57" y2="821.34" style="fill: none;stroke: #000;stroke-miterlimit: 10;stroke-width: 3px"/>
        <line x1="1112.57" y1="827.48" x2="1112.57" y2="971.79" style="fill: none;stroke: #000;stroke-miterlimit: 10;stroke-width: 3px;stroke-dasharray: 6.140810966491699,6.140810966491699"/>
        <line x1="1112.57" y1="974.86" x2="1112.57" y2="977.86" style="fill: none;stroke: #000;stroke-miterlimit: 10;stroke-width: 3px"/>
      </g>
      <g>
        <line x1="1080.54" y1="762.11" x2="1080.54" y2="765.11" style="fill: none;stroke: #000;stroke-miterlimit: 10;stroke-width: 3px"/>
        <line x1="1080.54" y1="770.96" x2="1080.54" y2="779.73" style="fill: none;stroke: #000;stroke-miterlimit: 10;stroke-width: 3px;stroke-dasharray: 5.845259666442871,5.845259666442871"/>
        <line x1="1080.54" y1="782.65" x2="1080.54" y2="785.65" style="fill: none;stroke: #000;stroke-miterlimit: 10;stroke-width: 3px"/>
      </g>
      <g>
        <line x1="1073.35" y1="762.11" x2="1073.35" y2="765.11" style="fill: none;stroke: #000;stroke-miterlimit: 10;stroke-width: 3px"/>
        <line x1="1073.35" y1="770.96" x2="1073.35" y2="779.73" style="fill: none;stroke: #000;stroke-miterlimit: 10;stroke-width: 3px;stroke-dasharray: 5.845259666442871,5.845259666442871"/>
        <line x1="1073.35" y1="782.65" x2="1073.35" y2="785.65" style="fill: none;stroke: #000;stroke-miterlimit: 10;stroke-width: 3px"/>
      </g>
      <g>
        <line x1="1065.5" y1="762.11" x2="1065.5" y2="765.11" style="fill: none;stroke: #000;stroke-miterlimit: 10;stroke-width: 3px"/>
        <line x1="1065.5" y1="770.96" x2="1065.5" y2="779.73" style="fill: none;stroke: #000;stroke-miterlimit: 10;stroke-width: 3px;stroke-dasharray: 5.845259666442871,5.845259666442871"/>
        <line x1="1065.5" y1="782.65" x2="1065.5" y2="785.65" style="fill: none;stroke: #000;stroke-miterlimit: 10;stroke-width: 3px"/>
      </g>
      <rect x="1039.35" y="988.97" width="7.85" height="29.42" style="fill: none;stroke: #000;stroke-miterlimit: 10;stroke-width: 3px"/>
      <rect x="1056.84" y="988.97" width="7.85" height="29.42" style="fill: none;stroke: #000;stroke-miterlimit: 10;stroke-width: 3px"/>
      <rect x="1074.33" y="988.97" width="7.85" height="29.42" style="fill: none;stroke: #000;stroke-miterlimit: 10;stroke-width: 3px"/>
    </g>
    <g>
      <path d="M165.82,1009.55s-9,1-11-1-4-8-4-8l-4-19-4-20s-5-1-6-2-2-4-2-4-2-2-2-3v-14s1-1,5-2,6,0,6,0l13-25,9-16,3,1,6,1-12,42Z" style="fill: #ff7bac;stroke: #000;stroke-miterlimit: 10;stroke-width: 3px"/>
      <path d="M142.82,958.55v-6a75.68,75.68,0,0,1,2-16,29.54,29.54,0,0,0,6,3c3,1,11,0,11,0" style="fill: #fcee21;stroke: #000;stroke-miterlimit: 10;stroke-width: 3px"/>
      <path d="M143.37,989.82s-7.47-14.71-11.8-17.9-16.93-6.46-17.89-6.71c0,0,6.84-6.49,11.93-6.2s12.88-1.83,12.88-1.83" style="fill: blue;stroke: #000;stroke-miterlimit: 10;stroke-width: 3px"/>
      <path d="M135.82,973.55l-6,15a20,20,0,0,0,1.87,1.61c1.32,1,3,2,4.13,1.39,2-1,6-12,6-12" style="fill: #00ff12;stroke: #000;stroke-miterlimit: 10;stroke-width: 3px"/>
      <polygon points="125.82 1006.55 131.82 990.55 135.82 991.55 129.82 1008.55 125.82 1006.55" style="fill: #00ff12;stroke: #000;stroke-miterlimit: 10;stroke-width: 3px"/>
      <circle cx="130.32" cy="1006.05" r="13.5" style="fill: #00ff12;stroke: #000;stroke-miterlimit: 10;stroke-width: 3px"/>
      <circle cx="130.57" cy="1005.8" r="17.75" style="fill: #fcee21;stroke: #000;stroke-miterlimit: 10;stroke-width: 12px"/>
      <path d="M152.32,879.05s4,10,6,12,15,5,23,5,44-3,54-2c2.87.29,7.38.58,12.36.84,12.38.66,27.64,1.16,27.64,1.16l112-3a38.72,38.72,0,0,0,3-10c1-6,2-12,0-16s-6-5-11-6-134,9-134,9l-69,8-3-13s0-5-5-4-2,13-2,13v5Z" style="fill: #ccc;stroke: #000;stroke-miterlimit: 10;stroke-width: 3px"/>
      <line x1="247.82" y1="966.05" x2="247.82" y2="895.55" style="fill: #00ff12;stroke: #000;stroke-miterlimit: 10;stroke-width: 3px"/>
      <path d="M258.82,965.55v25h28s14-10,17-15a35.19,35.19,0,0,0,4-10h75v22h4v15h-31s0-8-23-11-30,8-30,8-6-1-9-3-8,6-8,6l-3,17-33-5h-82l-2-5V985.92l81-.37,1-20Z" style="fill: #ff7bac;stroke: #000;stroke-miterlimit: 10;stroke-width: 3px"/>
      <line x1="381.82" y1="893.55" x2="381.82" y2="965.55" style="fill: #00ff12;stroke: #000;stroke-miterlimit: 10;stroke-width: 3px"/>
      <polyline points="184.32 936.05 170.32 929.05 166.39 927.06" style="fill: #00ff12;stroke: #000;stroke-miterlimit: 10;stroke-width: 3px"/>
      <polyline points="163.44 954.01 174.82 955.55 190.82 962.55 203.82 965.55 207.82 965.55 214.82 964.55 237.82 964.55 247.82 965.55" style="fill: none;stroke: #000;stroke-miterlimit: 10;stroke-width: 3px"/>
      <polyline points="186.82 952.55 201.82 961.55 201.82 965.09" style="fill: #00ff12;stroke: #000;stroke-miterlimit: 10;stroke-width: 3px"/>
      <path d="M381.82,945.55h-65s-9,2-8,7,6,9,12,9h61" style="fill: blue;stroke: #000;stroke-miterlimit: 10;stroke-width: 3px"/>
      <circle cx="323.8" cy="1010.08" r="9.02" style="fill: #00ff12;stroke: #000;stroke-miterlimit: 10;stroke-width: 3px"/>
      <circle cx="327.32" cy="1002.05" r="22" style="fill: #fcee21;stroke: #000;stroke-miterlimit: 10;stroke-width: 12px"/>
    </g>
    <g>
      <polygon points="267.94 865.39 271.12 865.19 271.12 807.99 299.61 807.99 299.61 863.35 302.79 863.14 302.79 804.82 267.94 804.82 267.94 865.39"/>
      <path d="M228.7,867.92V667.18L240,649.08V443.23h9.05V407.61h60.17v.56h9V644.49l.69,1.31h-1.25V862.18l3.17-.2V649.44L329.59,666V807.42h14.7v53.05l3.17-.21v-56h-14.7v-139l-11.31-21.49V405H312.4V380.12H282.81v-25H280.2V329.68h-2.11v25.44h-3.74v25H245.89v59.94h-9V648.17l-11.31,18.1V868.13Zm20.36-484.63h60.17v21.14h-4.18V387.36h-3.18v17.07h-7V386.79H291.7v17.64h-8.14V387.36h-3.17v17.07h-7V386.79h-3.17v17.64h-5.88V387.36h-3.17v17.07h-7V386.79H251v17.64h-1.92Z"/>
      <path d="M250.27,442.89l-6.08,19.44V866.92l3.17-.2V462.81l5.24-16.75h8.56v26h10.29v183l-10.29,15.09V865.83l3.17-.21V671.17l15.38-22.56,15.38,22.56V803h3.17V670.19L288.57,656h1.77v-185h10.18V446.06h7.38l4.15,15.59v400.9l3.18-.21V461.23l-4.9-18.34h-13v24.88h-2.48V454.19l-4.53-7v-22.4H270.21v22.95l-4.53,6.41V468.9h-1.35v-26ZM273.38,428h13.79v14.33l-6.27-9.69-7.52,10.65Zm-4.53,27.2L273.2,449h.18v-.25l7.4-10.49,6.39,9.87v.16h.11l4.42,6.83v12.65h-4.53V653.93L279.71,643l-5.09,7.47V468.9h-5.77Z"/>
    </g>
  </g>  <g id="faceBody">
    <g>
      <path d="M693.5,673.5l-58-25s-49-20-57-45-15-111-15-111,24-160,32-171,5-32,18-36,18,8,25,28,10,45,10,45l7,37,3,52,10,3,43-12,50,4,47,8,17-52,28-65s16-36,23-33,15,26,15,26l9,52v27l10,50v72l-10,66s-53,59-84,67-45,20-45,25,9,20,9,20l8,35,68-7,56-15,24-116,20-58s14-10,22-8-2,48-15,73c-10.24,19.7-18,80-18,80l-17,52-66,14-63,14,53,283,23,105s-107,2-194-4c-8.23-.57-44-41-39-51s26-357,31-362,22-50,22-50Z" style="fill: #fff;stroke: #000;stroke-miterlimit: 10;stroke-width: 3px"/>
      <path d="M604,329.5s10-28,18-22,28,87,28,87v69s-32-6-46,0l-28.16,12.07Z" style="fill: #f50"/>
      <path d="M828.24,455.33c-1-3,27.46-92.86,27.46-92.86s18.39-55.55,23.28-44.71,14.52,57.56,14.52,57.56-3,33.32-.06,39.33,3.65,72-.36,75S828.24,455.33,828.24,455.33Z" style="fill: #f50"/>
      <path d="M766,1154.73s-4.5-20.23,7.5-22.23,26,0,26,0,13-4,16-1,7,2,12-1-37-237-37-237" style="fill: none;stroke: #000;stroke-miterlimit: 10;stroke-width: 3px"/>
      <path d="M641.56,1131.46s-29.09,18.86-17.12,23.92,23,.11,25-.88,12-.94,12,.06,16.5-.63,16.5-.63S656.61,1119.53,641.56,1131.46Z" style="fill: #fff;stroke: #000;stroke-miterlimit: 10;stroke-width: 3px"/>
      <path d="M869.31,1125.09s19,5.9,46.19,7.41c36,2,149-15.3,144-9-8,10-29,11-85,21s-103.79-13.38-103.79-13.38Z" style="fill: #fff;stroke: #000;stroke-miterlimit: 10;stroke-width: 3px"/>
      <path d="M673.5,753.5s-21,7-24,11-6,21-6,21-7,33-8,35-16,110-18,113-13,32-15,38-12,20-14,26-32,77-32,77,0,12,7,10,70-137,70-152,10-52,10-55,7-72,7-72l19-13" style="fill: #fff;stroke: #000;stroke-miterlimit: 10;stroke-width: 3px"/>
    </g>
  </g>  <g id="bell">
    <path d="M690,713s27,14,46,13,46-18,46-18" style="fill: none;stroke: #ff4200;stroke-miterlimit: 10;stroke-width: 6px"/>
    <g>
      <path d="M715.39,749.29c.87-14,27.63-32,27.63-32s7.16,8.68,9,12.16,1.81,3.49,3.83,21S746,798,746,798s-6.84,12.41-6.76,17.68,16.38,36.64,16.38,36.64l-14.06.22c-7,.11-19.29,2.05-19.29,2.05s12.67-32.7,12.59-38S722,781.69,722,781.69,714.69,760.72,715.39,749.29Z" style="stroke: #000;stroke-miterlimit: 10;stroke-width: 3px"/>
      <path d="M723.73,851.94c2.86-1,28.78-.44,28.78-.44s-33.41-76.28-35-92.54c-2.33-23.72,25.56-38.21,25.56-38.21s15.92,6.79,8.23,52.09C748,792.34,723.73,851.94,723.73,851.94Z" style="fill: #00c600"/>
      <path d="M725.91,747.37s8.7-5.4,17.54-2" style="fill: none;stroke: #000;stroke-miterlimit: 10"/>
      <circle cx="734.5" cy="734.94" r="4.39" style="fill: none;stroke: #000;stroke-miterlimit: 10"/>
      <path d="M732,746.4s-3.43,5.32.11,7,3.49-1.81,3.49-1.81,3.56,3.46,3.51-.05a7.72,7.72,0,0,0-1.84-5.24" style="fill: none;stroke: #000;stroke-miterlimit: 10"/>
      <path d="M731.85,848.3s-.25-15.8,3.29-14.1,2,12.27,2,12.27,1.46-19.35,5.11-10.62,3.7,12.24,3.7,12.24" style="fill: none;stroke: #000;stroke-miterlimit: 10"/>
    </g>
  </g>  <g id="nose">
    <path d="M726.57,548.94c-3.83,1.15-13,3-7,8s7.17,8.59,9,13c1.91,4.62,3.74,15.15,2,20-1.06,2.94-5.61,7.09-9,9.91a.77.77,0,0,0,.76,1.32l8.51-3.19a8.55,8.55,0,0,1,5.56-.15l10.19,3.22a1.09,1.09,0,0,0,1-1.88c-2.82-2.28-6-5.14-7-7.23-3-6.16-1.46-20.2,2-26,2.24-3.75,8-7,10-9S746.57,542.94,726.57,548.94Z"/>
  </g>  <g id="eyes">
    <path d="M777.13,534.69s-4.46-14.73,14-23c29-13,77,0,89,6s26.23,9.21,26.12,17c-.12,8-29.12,18-71.12,28C800.91,570.84,778.13,540.69,777.13,534.69Z" style="fill: #03a3db;stroke: #000;stroke-miterlimit: 10"/>
    <path d="M566.45,525.26c2.44,4.67,32.47,25.56,73.68,32.43,12,2,39-2,41-32,.33-5.09-19-27-57-27C612.08,498.69,555.78,504.82,566.45,525.26Z" style="fill: #03a3db;stroke: #000;stroke-miterlimit: 10"/>
    <path d="M812.13,529.69s2.27,25.31,8.13,25.66,9.87-25.66,9.87-25.66-3-25.35-9.52-19.18S812.13,529.69,812.13,529.69Z"/>
    <path d="M643.44,508s-7.31,14.09-6.31,18.62-.37,17.83,6.31,18.51a11.58,11.58,0,0,0,12.69-10.37C657.63,522.19,655.76,500.21,643.44,508Z"/>
  </g>  <g id="luckyItem">
    <g>
      <path d="M438.71,853.82s-2.2-15-5.2-20-8-13-11-14-13-4-18,1-10,15-12,15-6,4-9,0-1-15,1-19,7-12,11-13,19-4,23-1,13,13,13,13-9-31-10-31-9-12-13-12-10-1-12-4-1-7,3-11,9-8,13-8,16,5,19,11,7,12,7,18,3,51,3,51,4-14,6-16,5-4,9-2,8,8,9,11,2,11,1,12-7,7-10,6-8-1-8-3-2-.66-2-.66l-2,16.66Z" style="fill: #020202"/>
      <path d="M374.12,876.77S366.56,886,365,895.32c-2,12-3.08,121.56-2.52,128.2s29.35,33.23,42.64,39.88,52.05,22.15,75.31,22.7,57.6,1.11,76.43-3.87,37.66-10.52,53.16-14.4,37.66-10,55.38-19.38,36.28-23.59,39.6-29.13,22.89-64.89,24-66,11.72-1.79,21.69-5.67,16.61-13.84,18.27-18.27a178.67,178.67,0,0,0,5-17.17c.55-2.77,28.79-42.64,28.79-42.64s-21.6-4.43-42.09,0-27.13,7.2-30.45,12.18S720.79,895,720.79,895s-8.86-14.95-22.7-22.15-35.45-18.83-39.88-16.61-10,5.54-7.75,12.18,16.06,46,18.83,50.95,15.5,16.62,19.93,19.38,3.33,9.42.56,12.74-7.2,15.51-9.42,17.72-18.82,11.08-26,7.76-9.42-3.88-11.08-10-10-50.4-12.18-59.26-7.76-28.24-23.82-38.21-40.42-19.38-48.73-21.6-49.84-5.54-75.87-4.43-60.36,10-69.78,12.74S374.12,876.77,374.12,876.77Z" style="fill: #020202"/>
      <path d="M368.85,1023.8s1.67-130.14,9.42-140.66,31.57-24.37,62-29.91,103-7.75,121.84,0,52.61,17.72,62,43.75,11.08,72.55,18.83,80.3,36.55,2.22,42.09-8.86,16.62-23.26,14.95-28.24-23.26-11.63-28.24-27.69-28.24-57-7.2-50.4,52.06,29.35,53.72,42.65,7.75-22.16,30.46-28.25,47.07-3.32,47.07-3.32-27.14,34.33-27.14,41-8.86,29.91-25.47,29.91h-21s-16.66,67.55-27.69,79.74C684,1035.43,368.85,1023.8,368.85,1023.8Z" style="fill: #039ae5"/>
      <path d="M493.76,1081c54.38,1.92,138-23.61,152-28.52,22-7.75,47.79-25.63,47.79-25.63s-32,11-148,11c-43.33,0-173-11-173-11s15.73,12.62,34.42,24.8S462.44,1079.86,493.76,1081Z" style="fill: #fff;stroke: #020202;stroke-miterlimit: 10"/>
      <ellipse cx="446.51" cy="856.68" rx="20" ry="8.57" transform="matrix(0.99, -0.16, 0.16, 0.99, -133.94, 84.44)" style="fill: #020202;stroke: #020202;stroke-miterlimit: 10"/>
      <circle cx="423.4" cy="984.76" r="15.51" style="fill: #020202;stroke: #020202;stroke-miterlimit: 10"/>
      <path d="M420.08,986.42a7.77,7.77,0,0,1,6.19-7.6,6.64,6.64,0,1,0-5.44,10.91A7.69,7.69,0,0,1,420.08,986.42Z" style="fill: #fff;stroke: #020202;stroke-miterlimit: 10"/>
      <path d="M501.1,1010s-3.56-4.76,8.92-4.76,29.83,6.54,39.88,19.91,19,36.56,0,49-46.37,12.48-49.34,0,7.73-16,8.91-29.73S492.18,1014.76,501.1,1010Z" style="fill: #039ae5;stroke: #020202;stroke-miterlimit: 10;stroke-width: 4px"/>
      <path d="M440.51,852.82s-4-27-15-34-30,2-31,7-11,12-10,2,9-22,14-22,14-2,19,0,17,17,17,17l-11-39s-12-17-16-14-13-4-8-8,11-14,20-7,15,11,16,25,3,39,3,39l2,20s5-17,7-21a7.14,7.14,0,0,1,10-3c3,2,8,10,6,14s-10,8-10,1-1-10-1-10-2-2-4,6-4,28-4,28Z" style="fill: #cffeff;stroke: #020202;stroke-miterlimit: 10"/>
    </g>
    <path d="M529.75,1091.82s-4,14.72,4.35,17.83,51.25-29.83,58.48-44.94-13.3-15.3-26.86-1.15S537.29,1077.92,529.75,1091.82Z" style="fill: #fff;stroke: #000;stroke-miterlimit: 10;stroke-width: 3px"/>
  </g><g id="luckyCaption">
  <path d="M577.41,1269.93c1.16-.64,2.25-1.35,3.35-2a2.4,2.4,0,0,1,1.15-.39,2,2,0,0,1,1.68,1.16,3.48,3.48,0,0,1,.32,1.29,2.32,2.32,0,0,1-1.09,1.86c-1.68,1-3.48,2.13-5.41,3.16v20.53c0,4.51-1.93,5.86-6.64,5.86a26.31,26.31,0,0,1-4.7-.45,2.07,2.07,0,0,1-1.86-2.25,3.13,3.13,0,0,1,.06-.71,1.88,1.88,0,0,1,1.93-1.67,2.61,2.61,0,0,1,.65.06,17.91,17.91,0,0,0,3.35.39c2.06,0,2.44-.32,2.44-2.25v-17.07c-2.06,1-4.12,1.94-6,2.71a3,3,0,0,1-1.22.26,2.1,2.1,0,0,1-2.06-1.68,3.51,3.51,0,0,1-.2-1.09,1.92,1.92,0,0,1,1.42-1.87c2.64-1,5.41-2.19,8.11-3.41v-13.13h-7.27c-1.16,0-1.81-1-1.81-2.26s.65-2.19,1.81-2.19h7.27V1244c0-1.29.84-1.93,2.38-1.93s2.39.64,2.39,1.93v10.81h6c1.15,0,1.8.91,1.8,2.19s-.65,2.26-1.8,2.26h-6Zm9-21.11c-1.23,0-1.87-1-1.87-2.26s.64-2.25,1.87-2.25H615c3.93,0,5.93,2,5.86,5.34a65.85,65.85,0,0,1-1.87,15c-1.28,4.32-3.41,5.28-7.85,5.28a37.29,37.29,0,0,1-6.51-.51,2.1,2.1,0,0,1-1.8-2.13,2.38,2.38,0,0,1,.07-.7,2,2,0,0,1,2-1.81,1.52,1.52,0,0,1,.52.07,27.5,27.5,0,0,0,5.15.51c2.51,0,3.35-.64,3.93-2.9a54.47,54.47,0,0,0,1.41-11.9c0-1.23-.51-1.74-2.06-1.74H602.13c-1,11.78-4.89,18.8-13,23.24a3.26,3.26,0,0,1-1.61.45,2.29,2.29,0,0,1-2-1.22,2.74,2.74,0,0,1-.39-1.36,2.1,2.1,0,0,1,1.29-1.93c7-3.86,10.05-8.82,10.82-19.18Zm27.81,25.56c3.87,0,5.54,1.48,5.54,5.27v15.13c0,3.8-1.67,5.28-5.54,5.28h-21.5c-3.87,0-5.54-1.48-5.54-5.28v-15.13c0-3.79,1.67-5.27,5.54-5.27Zm-1.35,21.11c1.35,0,2-.32,2-1.8v-12.94c0-1.48-.65-1.8-2-1.8H594c-1.35,0-2,.32-2,1.8v12.94c0,1.48.65,1.8,2,1.8Z"/>
  <path d="M668.33,1278.5a52.33,52.33,0,0,1-8.5-10.11,207.82,207.82,0,0,1-26.53,2.12c-1.74-.06-2.64-1-2.64-2.25v-.19a2.08,2.08,0,0,1,2.25-2.32,199,199,0,0,0,24.21-1.8,64.85,64.85,0,0,1-3.67-6.89,168.55,168.55,0,0,1-20.41,1.35,2.36,2.36,0,0,1-2.58-2.38,2.22,2.22,0,0,1,2.32-2.38,164.88,164.88,0,0,0,18.48-1.1c-.77-1.74-1.48-3.67-2.25-5.54a2.27,2.27,0,0,1-.26-1.09,2.16,2.16,0,0,1,1.8-2.06,7.07,7.07,0,0,1,1-.13,2.42,2.42,0,0,1,2.39,2c.7,2.12,1.54,4.25,2.32,6.24a125.06,125.06,0,0,0,16.48-3.41,3.18,3.18,0,0,1,1-.19,2,2,0,0,1,2.12,1.74,4.54,4.54,0,0,1,.13.9,2.1,2.1,0,0,1-1.67,2.12,156.85,156.85,0,0,1-16.1,3.41,55.63,55.63,0,0,0,3.61,6.76c5-.84,10-1.86,14.36-3a5.8,5.8,0,0,1,1-.13,2,2,0,0,1,2.25,1.67,4.8,4.8,0,0,1,.13.84c0,1.16-.71,1.8-2.06,2.25-3.67.9-7.92,1.8-12.88,2.64a77.16,77.16,0,0,0,9.59,11.52,3.41,3.41,0,0,1,1.29,2.58,2.9,2.9,0,0,1-2.7,2.9,7,7,0,0,1-3.09-1,36.38,36.38,0,0,0-16.36-3.54c-11.2,0-14.68,3.28-14.68,7.46,0,4.57,4.57,6.76,14.87,6.76a58.13,58.13,0,0,0,16.55-2.44,3.68,3.68,0,0,1,1.16-.2,2.26,2.26,0,0,1,2.32,1.87,4.53,4.53,0,0,1,.13,1,2.52,2.52,0,0,1-1.93,2.51,64.25,64.25,0,0,1-18.55,2.44c-13.2,0-20.09-4.31-20.09-11.71,0-7,6.12-12.11,20.09-12.11a32.87,32.87,0,0,1,14.75,3.29Z"/>
  <path d="M695.62,1258.35a66.27,66.27,0,0,1-6,4.5,2.16,2.16,0,0,1-3.15-.77,3.18,3.18,0,0,1-.39-1.48,2,2,0,0,1,1-1.8,51.91,51.91,0,0,0,6.76-4.9,38.78,38.78,0,0,0-4.64-6.82,2.37,2.37,0,0,1-.51-1.35,2,2,0,0,1,1-1.68,2.81,2.81,0,0,1,1.61-.58,1.93,1.93,0,0,1,1.55.78,44.12,44.12,0,0,1,4.44,6.43,45.15,45.15,0,0,0,5.8-7,2,2,0,0,1,1.73-1,2.56,2.56,0,0,1,1.55.58,2.12,2.12,0,0,1,1,1.74,2.41,2.41,0,0,1-.45,1.35,67.74,67.74,0,0,1-7.54,8.63c2.9,6.82,3.87,14.74,3.87,26.13,0,7.09-.84,12.17-1.8,15.07a6.36,6.36,0,0,1-6.44,4.76,16.14,16.14,0,0,1-5.93-.84,1.78,1.78,0,0,1-1.28-1.86,3.58,3.58,0,0,1,.19-1.1,1.94,1.94,0,0,1,1.87-1.54,1.85,1.85,0,0,1,.57.06,10.65,10.65,0,0,0,3.61.71c1.61,0,2.64-.77,3.28-3a52.06,52.06,0,0,0,1.23-12.36c0-2.26-.07-4.38-.13-6.31a45.83,45.83,0,0,1-8.56,8.37,2.29,2.29,0,0,1-1.42.57,2.33,2.33,0,0,1-1.87-1.09,2.6,2.6,0,0,1-.51-1.48,2.34,2.34,0,0,1,1-1.93,45.08,45.08,0,0,0,10.81-10.49A43,43,0,0,0,695.62,1258.35Zm24.54,1.73c0,1.23-.84,1.81-2.32,1.81s-2.32-.58-2.32-1.81v-5.34h-8.18c-1.15,0-1.8-.9-1.8-2.12s.65-2.26,1.8-2.26h8.18v-6c0-1.22,1-1.87,2.32-1.87s2.32.65,2.32,1.87v6h11v-6.11c0-1.16.9-1.81,2.25-1.81s2.39.65,2.39,1.81v6.11h8.75c1.23,0,1.81,1,1.81,2.26s-.58,2.12-1.81,2.12h-8.75V1260c0,1.22-.91,1.87-2.39,1.87s-2.25-.65-2.25-1.87v-5.28h-11Zm18.61,4c3.6,0,5.34,1.55,5.34,5V1295c0,3.34-1.74,4.89-5.34,4.89H713c-3.55,0-5.28-1.55-5.28-4.89V1269.1c0-3.48,1.73-5,5.28-5Zm-15.65,4.38H714.3c-1.22,0-1.87.39-1.87,1.61v8.76h10.69Zm0,14.55H712.43v10.75c0,1.23.65,1.61,1.87,1.61h8.82Zm16.23-12.94c0-1.22-.65-1.61-1.87-1.61h-9.66v10.37h11.53Zm-1.87,25.3c1.22,0,1.87-.38,1.87-1.61V1283H727.82v12.36Z"/>
  <path d="M778.17,1279.07c-2.25,6.64-4.12,9.53-6.37,11.66a10.54,10.54,0,0,1-7.41,2.83c-6.69,0-12-6.5-12-17.32,0-16,11.21-27.62,28.78-27.62,15.2,0,25.25,9.92,25.25,24.08,0,9.08-3.93,16-10.63,20.22a34.64,34.64,0,0,1-13.52,4.63,2.7,2.7,0,0,1-.71.07,2.49,2.49,0,0,1-2.7-2.26,2,2,0,0,1-.07-.64,2.5,2.5,0,0,1,2.32-2.51c4.7-.65,9.66-2.26,12.88-4.64,4.06-3,7-8.24,7-15,0-10.88-7.15-18.8-18.55-19.18C781.84,1263.17,780.43,1272.19,778.17,1279.07Zm-20.6-2.89c0,7.72,3.28,11.78,6.69,11.78a5.93,5.93,0,0,0,4.32-1.87c1.42-1.35,2.9-4.12,4.44-8.82a96.3,96.3,0,0,0,4.06-23.69C765.29,1254.68,757.57,1263.69,757.57,1276.18Z"/>
  <path d="M822.67,1284c0-3,.12-5.79.38-8.56a72.36,72.36,0,0,1-7.34,6.69,2.51,2.51,0,0,1-1.48.52,2.64,2.64,0,0,1-2.51-2.58,2.45,2.45,0,0,1,1-2c6.44-4.44,14.23-12.68,17.32-18.86a1.62,1.62,0,0,0,.26-.84c0-.45-.39-.71-1.16-.71h-14c-1.16,0-1.81-.9-1.81-2.19s.65-2.25,1.81-2.25h7.4v-9.14c0-1.16,1-1.8,2.45-1.8s2.51.64,2.51,1.8v9.14h4.18c2.52,0,4.13,1.42,4.13,3.6a7.35,7.35,0,0,1-.71,2.84,60.3,60.3,0,0,1-6.7,10,49.75,49.75,0,0,0,8.18,6.82,2.2,2.2,0,0,1,1.22,1.93,2.72,2.72,0,0,1-.51,1.48,2.16,2.16,0,0,1-3.16.58,54.5,54.5,0,0,1-7.08-6.63c.26,3.22.38,5.79.38,8.88v17.64c0,1.16-1,1.81-2.44,1.81s-2.38-.71-2.38-1.81Zm27.49-12.81c-.26,15-4.7,24.27-15.07,30.07a2.92,2.92,0,0,1-1.48.51,2.42,2.42,0,0,1-2.06-1.22,2.55,2.55,0,0,1-.45-1.48,2.29,2.29,0,0,1,1.16-1.94c9.21-5.15,12.94-12.23,13.2-25.94h-1.93c-3.86,0-5.54-1.48-5.54-5.09v-15.32c0-3.67,1.68-5.21,5.54-5.21h20.35c3.79,0,5.53,1.54,5.53,5.21v15.32c0,3.61-1.74,5.09-5.53,5.09h-3.55v23.37c0,1.48.52,1.74,3.61,1.74,2.7,0,3.61-.45,4.06-1.87a41.46,41.46,0,0,0,.71-7.15,1.84,1.84,0,0,1,2.06-1.86H871c1.42.06,2.19.71,2.19,1.93v.13c-.07,3.92-.52,7.66-1.55,10a4.56,4.56,0,0,1-1.86,2.12,12.69,12.69,0,0,1-6.06,1.16h-1.09c-5.86-.06-7-1.41-7-4.7v-24.91Zm12.49-4.44c1.23,0,1.93-.45,1.93-1.87V1252c0-1.48-.7-1.81-1.93-1.81h-17.9c-1.29,0-1.93.33-1.93,1.81v12.87c0,1.42.64,1.87,1.93,1.87Z"/>
  <path d="M894.91,1253.2c2.64,0,4.12,1.67,4.12,3.73a6.11,6.11,0,0,1-.51,2.32,54.07,54.07,0,0,1-7,10.68,34.58,34.58,0,0,0,5.41,4.57,2.39,2.39,0,0,1,1.16,2,2.22,2.22,0,0,1-.39,1.22,2.07,2.07,0,0,1-1.8,1.1,2.41,2.41,0,0,1-1.42-.52,39.3,39.3,0,0,1-4.25-3.92c.2,2.63.39,5.53.39,8.62v17.45c0,1.16-1,1.8-2.38,1.8s-2.45-.71-2.45-1.8V1284c0-2.51.13-5.35.39-8.18a50.9,50.9,0,0,1-6.38,5.73,2.73,2.73,0,0,1-1.67.58,2.44,2.44,0,0,1-1.93-1.09,2.9,2.9,0,0,1-.52-1.55,2.06,2.06,0,0,1,1-1.8c7.08-4.83,13.91-12.49,16.74-18.54a1.71,1.71,0,0,0,.2-.71c0-.45-.33-.77-1-.77H879.39c-1.16,0-1.8-.9-1.8-2.26s.64-2.18,1.8-2.18h6.5v-9.15c0-1.16,1-1.8,2.39-1.8s2.44.64,2.44,1.8v9.15Zm5.67-4.38c-1.16,0-1.74-1-1.74-2.19s.58-2.13,1.74-2.13h34c1.15,0,1.73.91,1.73,2.13s-.58,2.19-1.73,2.19Zm29.1,24.27c3.8,0,5.47,1.41,5.47,5v17.26c0,3.6-1.67,5.08-5.47,5.08H904.89c-3.8,0-5.41-1.48-5.41-5.08V1278c0-3.54,1.61-5,5.41-5Zm-22.34-4.25c-3.48,0-5.09-1.35-5.09-4.64v-6.11c0-3.35,1.61-4.7,5.15-4.7H927c3.67,0,5.28,1.35,5.28,4.7v6.11c0,3.29-1.61,4.64-5.28,4.64Zm7.47,8.24h-8.89c-1.22,0-1.87.32-1.87,1.67v5.67h10.76Zm0,11.2H904.05v6.25c0,1.41.65,1.73,1.87,1.73h8.89Zm-6.12-30.84c-1.22,0-1.8.39-1.8,1.48v4.45c0,1.09.58,1.41,1.73,1.41h17.07c1.29,0,1.87-.32,1.87-1.41v-4.45c0-1.09-.58-1.48-1.87-1.48Zm21.83,21.31c0-1.35-.58-1.67-1.8-1.67h-9.53v7.34h11.33Zm-1.8,17.51c1.22,0,1.8-.32,1.8-1.73v-6.25H919.19v8Z"/>
</g>  <g id="weather">
    <g>
      <path d="M1423,218.59c-4.56-13.18-20.85-9-20.85-9s7.81-11.57-6.44-22.88-30.54-7.15-30.54-7.15-7.66-13.59-26.23-16-28.42,15.16-28.42,15.16-7.24-7.24-23.52-3.08a24,24,0,0,0-16.59,14,21.5,21.5,0,0,0-14.2,5.06c-5.48.14-11.67.88-16.18,3.1-.44.22-.89.47-1.33.74a31.11,31.11,0,0,0-8,1,20,20,0,0,0-7.57,3.67,30.09,30.09,0,0,0-18.91-9.88c-15-2-23,12.26-23,12.26s-5.85-5.86-19-2.49A19.91,19.91,0,0,0,1147.41,219s-15-2-23.18,2.05-15.14,18.38-7.42,37.21,36.55,12.43,36.55,12.43,7.72,18.83,22.41,23.3,29.82-13.91,29.82-13.91,13.05,17,25.47,12.66a23.53,23.53,0,0,0,8.09-4.55,24.26,24.26,0,0,0,5.1,2.25c14.69,4.47,29.83-13.92,29.83-13.92s13.05,17,25.47,12.66a30,30,0,0,0,3.47-1.46l.73.25c18.16,5.52,36.88-17.2,36.88-17.2s16.13,21,31.49,15.64,15.73-15.75,15.73-15.75,15.48,2,22.88-6.44,2.84-21.66,2.84-21.66S1427.57,231.78,1423,218.59Z" style="fill: #29abe2"/>
      <path d="M1418.84,209.13c-4.56-13.19-20.85-9-20.85-9s7.82-11.56-6.44-22.87-30.54-7.15-30.54-7.15-7.66-13.6-26.22-16-28.43,15.16-28.43,15.16-7.23-7.25-23.52-3.08A24.19,24.19,0,0,0,1265.53,182a21,21,0,0,0-10.11,3.21c-6.14-.08-14.08.44-19.55,3.13a18,18,0,0,0-4,2.74,32.92,32.92,0,0,0-4.53.85,20.26,20.26,0,0,0-7.57,3.66,30,30,0,0,0-18.9-9.87c-15-2-23,12.26-23,12.26s-5.85-5.86-19-2.5a19.93,19.93,0,0,0-14.81,15.88s-15-2-23.18,2.06-15.14,18.38-7.43,37.21S1150,263,1150,263s7.71,18.83,22.4,23.3,29.83-13.91,29.83-13.91,13,17,25.47,12.65a23.8,23.8,0,0,0,8.09-4.54,24.29,24.29,0,0,0,5.1,2.24c14.69,4.47,29.83-13.91,29.83-13.91s13,17,25.47,12.66a27.16,27.16,0,0,0,5.39-2.54c17.51,3.4,34.89-17.69,34.89-17.69s16.13,21,31.49,15.65,15.73-15.75,15.73-15.75,15.48,2,22.88-6.45,2.84-21.66,2.84-21.66S1423.41,222.32,1418.84,209.13Z" style="fill: #d9f7ff;stroke: #29abe2;stroke-miterlimit: 10;stroke-width: 2px"/>
      <g>
        <path d="M1312.42,236.39s-9.05,9.05-24.12,6-21.1-21.1-18.09-33.16,9-15.07,15.08-18.08,14.74,0,14.74,0,6.36-30.15,33.49-30.15,39.19,30.15,39.19,30.15,25.85-8.17,31.88,6.9,1.27,38.31-16.81,41.33-24.12-6-24.12-6-11.44,13-28.29,12.4S1312.42,236.39,1312.42,236.39Z" style="fill: #29abe2"/>
        <path d="M1310.58,231s-9,9.05-24.12,6-21.1-21.1-18.08-33.16,9-15.07,15.07-18.08,14.74,0,14.74,0,6.36-30.15,33.49-30.15,39.19,30.15,39.19,30.15,24.11-3,30.14,12.06,3,33.15-15.07,36.17-24.12-6-24.12-6-9.6,13.72-26.45,13.11S1310.58,231,1310.58,231Z" style="fill: #fff"/>
      </g>
      <path d="M1240.93,229.89s-15.14,18.38-29.82,13.91-22.41-23.3-22.41-23.3-28.84,6.4-36.55-12.43-.75-33.19,7.42-37.21,23.18-2.06,23.18-2.06a19.91,19.91,0,0,1,14.81-15.87c13.17-3.37,19,2.49,19,2.49s8-14.23,23-12.26,21.21,13,21.21,13a30.49,30.49,0,0,1,24.7,5.78c11.53,9.15,5.21,18.51,5.21,18.51s13.17-3.37,16.87,7.3-7.63,19.36-7.63,19.36,3.69,10.67-2.3,17.52-18.5,5.21-18.5,5.21-.3,8.42-12.73,12.74S1240.93,229.89,1240.93,229.89Z" style="fill: #29abe2"/>
      <path d="M1237.57,222.24s-15.14,18.38-29.83,13.91-22.4-23.31-22.4-23.31-28.84,6.41-36.56-12.42-.74-33.19,7.42-37.22,23.19-2,23.19-2a19.93,19.93,0,0,1,14.81-15.88c13.16-3.36,19,2.49,19,2.49s8-14.22,23-12.26,21.21,13,21.21,13a30.45,30.45,0,0,1,24.7,5.78c11.53,9.15,5.21,18.5,5.21,18.5s13.17-3.36,16.86,7.3-7.63,19.37-7.63,19.37,3.7,10.67-2.29,17.52-18.51,5.21-18.51,5.21-.3,8.41-12.72,12.74S1237.57,222.24,1237.57,222.24Z" style="fill: #e4f2f7;stroke: #29abe2;stroke-miterlimit: 10;stroke-width: 2px"/>
      <path d="M1273.89,204s16.81,22.84,37,20,33.61-22.84,33.61-22.84,37,11.42,50.43-8.56,6.73-37.12-3.36-42.83-30.26-5.71-30.26-5.71,0-14.27-16.81-20-25.55,0-25.55,0S1310.87,107,1290.7,107s-30.26,11.42-30.26,11.42-16.81-5.71-33.62,2.85-10.08,20-10.08,20-16.81-5.71-23.54,5.71,6.73,22.84,6.73,22.84-6.73,11.42,0,20,23.53,8.57,23.53,8.57-1.06,9.47,14.6,16.16S1273.89,204,1273.89,204Z" style="fill: #29abe2"/>
      <path d="M1270.73,196s16.6,22.83,36.53,20,33.21-22.84,33.21-22.84,36.53,11.42,49.82-8.56,6.64-37.1-3.32-42.8-29.89-5.71-29.89-5.71,0-14.27-16.61-20-25.24,0-25.24,0-8-17.12-27.9-17.12-29.89,11.41-29.89,11.41-16.61-5.7-33.21,2.86-10,20-10,20-16.6-5.7-23.24,5.71,6.64,22.83,6.64,22.83-6.64,11.42,0,20,23.25,8.56,23.25,8.56-1.05,9.47,14.42,16.15S1270.73,196,1270.73,196Z" style="fill: #edf9fb;stroke: #29abe2;stroke-miterlimit: 10;stroke-width: 2px"/>
      <path d="M1204.8,253.14s-9,9.05-24.11,6-21.11-21.1-18.09-33.16,9-15.07,15.07-18.08,14.74,0,14.74,0,6.36-30.15,33.49-30.15,39.19,30.15,39.19,30.15,24.12-3,30.15,12,3,33.16-15.08,36.18-24.11-6-24.11-6-5.49,10.27-22.34,9.66A77.09,77.09,0,0,1,1204.8,253.14Z" style="fill: #29abe2"/>
      <path d="M1203,247.76s-9,9.05-24.11,6-21.1-21.1-18.09-33.16,9-15.07,15.07-18.09,14.74,0,14.74,0,6.37-30.14,33.5-30.14,39.18,30.14,39.18,30.14,24.12-3,30.15,12.06,3,33.16-15.07,36.18-24.12-6-24.12-6-5.48,10.27-22.33,9.66A77.1,77.1,0,0,1,1203,247.76Z" style="fill: #fff;stroke: #29abe2;stroke-miterlimit: 10;stroke-width: 3px"/>
    </g>
  </g>
<g id="generation">
  <path d="M47.6,1246.22c0-3.48-.13-6-.39-8.8H57.92a73.58,73.58,0,0,0-.39,8.74v4.92H66v-6.17a64.11,64.11,0,0,0-.39-7.56H76.12a66.51,66.51,0,0,0-.33,7.43v6.3h8.35v-6.37a59.07,59.07,0,0,0-.33-7.36H94.39a60.29,60.29,0,0,0-.4,7.43v6.3h.59a61.13,61.13,0,0,0,7.69-.39v9.85a64.08,64.08,0,0,0-7.69-.39H94v13.6c0,1.77.07,4.07.26,6.56-1.9-.13-3.54-.19-5.71-.19H71.91c-2.16,0-3.94.06-6.11.19.14-1.7.2-3.67.2-5.91v-14.25H57.53v26.4H90a82.81,82.81,0,0,0,9.53-.39v13.18c-3.22-.33-42-.63-42-.63H47.14c.33-3.35.46-6.77.46-10.45v-28.11a66.38,66.38,0,0,0-7.42.39v-9.85a64.51,64.51,0,0,0,7.42.39Zm28.19,13.93v10.9h8.35v-10.9Z"/>
  <path d="M113.7,1275.58c0-3.54,0-4.92.13-7a40.72,40.72,0,0,1-4.93,5.91,44.23,44.23,0,0,0-4.14-11.43,55,55,0,0,0,11.57-18.4,35.46,35.46,0,0,0,2.43-8.34l10.25,3.35a118,118,0,0,1-5.26,13.14v37.57a70,70,0,0,0,.4,8.15H113.3a68.43,68.43,0,0,0,.4-8.15Zm33.84-12.15a51.68,51.68,0,0,0,3.81,13.93,29.77,29.77,0,0,0,4.46,7.16,6,6,0,0,0,1.91,1.57c.85,0,1.64-4.13,2.1-11.23a34.94,34.94,0,0,0,8.68,5.65c-.86,7.49-1.91,11.43-3.82,14.52a6.85,6.85,0,0,1-6,3.55c-3.35,0-6.64-2.11-10.38-6.64-5.59-6.83-9.2-16-10.91-28l-5.19.33a55.58,55.58,0,0,0-6.63.65l-.07-10c1.91.07,2.1.07,2.82.07,1.06,0,3.42-.07,4.54-.13l3.55-.2c-.27-3.94-.27-3.94-.46-11.5a35.07,35.07,0,0,0-.4-5.58l11-.2a31.47,31.47,0,0,0-.33,5.59c0,3.74.07,6.3.4,11l9.19-.52a77.24,77.24,0,0,0-8.73-10.64l8-5.39a82.72,82.72,0,0,1,9.59,10.64l-7.22,5.26,1.77-.07a61,61,0,0,0,7.75-.85l.07,10.24a23.16,23.16,0,0,0-2.83-.13,36.24,36.24,0,0,0-4.2.2Z"/>
  <text transform="translate(200 1290)" style="font-size: 90px;font-family: DoulosSIL, Doulos SIL">9</text>
</g>  <g id="_5element" data-name="5element">
    <path d="M1006.37,265.62s-17.12,15.74-14.84,28.77c2.08,11.87,10.42,13.09,16.08,13.11,7.94,0,13-8.79,13.13-17.83a43.46,43.46,0,0,0-3-16.17s-3.8,3.28-6.63,1.94S1006.37,265.62,1006.37,265.62Z" style="fill: #ed1c24"/>
    <g>
      <path d="M987.7,338.54v-3.72h37.08v3.72h-11.85v16.77a1.12,1.12,0,0,0,.34.84c0,.12.05.17.16.17h4.75a8.31,8.31,0,0,0,2.37-.17,2.14,2.14,0,0,0,.5-.84,10.68,10.68,0,0,0,.51-3.56,17.57,17.57,0,0,0,4.24,1,20.89,20.89,0,0,1-1.36,5.25,4.1,4.1,0,0,1-1.69,1.69,13.89,13.89,0,0,1-3.73.34h-5.08a11.15,11.15,0,0,1-3.21-.34,2.9,2.9,0,0,1-1.19-1.19,3,3,0,0,1-.68-2.2V338.54h-5.92q-.51,8.29-1.53,11.52a13.91,13.91,0,0,1-3.89,5.92q-2,2.37-8.81,5.59a2.9,2.9,0,0,0-.42-1,2.75,2.75,0,0,1-.42-.84,17,17,0,0,0-1.7-1.86,29.08,29.08,0,0,0,8-4.24,13,13,0,0,0,3.56-5.42,48.92,48.92,0,0,0,1.18-9.65Zm4.06-9.82v-4.06h27.77v4.06Z"/>
      <path d="M995.62,370.41l4.06,1.86L998,375h25.23v3.39H995.45a44.6,44.6,0,0,1-6.94,7.28,23,23,0,0,0-2.71-3.39c1.46-1.24,3.16-2.82,5.08-4.74A48.46,48.46,0,0,0,995.62,370.41Zm10.16,29.29q2,1.53,7.11,5.25l-2.37,3.56q-1.86-1.69-8-6.1l-5.42,3.9a49.09,49.09,0,0,1-6.09,3.72q-1-1.35-2.71-3.39a42.9,42.9,0,0,0,6.77-3.72q1.86-1.19,4.07-2.71-2.55-1.53-4.83-2.79c-1.52-.85-2.4-1.33-2.62-1.44l2.37-3.05q2.37,1.19,8.29,4.74c2.48-2.48,4.35-4.46,5.59-5.93l3.39,2.37-2.63,2.63Zm9.82-9.14H989.35V387h30.48q-.33,7.11-.33,9.32a39.42,39.42,0,0,0,.5,6.77,6,6,0,0,0,1,2.54.48.48,0,0,0,.34.17.73.73,0,0,0,.51-.17c0-.11.22-1.3.67-3.56a26.76,26.76,0,0,0,3.73,2c-.79,2.82-1.53,4.63-2.2,5.42a3.06,3.06,0,0,1-2.37,1.19,4.47,4.47,0,0,1-2.71-1,8.16,8.16,0,0,1-2-2.88,13.85,13.85,0,0,1-1.19-5.08c-.23-2.93-.34-4.79-.34-5.58C1015.43,394,1015.49,392.14,1015.6,390.56Zm-21-6.27v-3.38h25.74v3.38Z"/>
    </g>
  </g>
<g id="manekiPower">
  <text transform="translate(205.81 1456.78)" style="font-size: 121.63294982910156px;fill: #070707;font-family: DoulosSIL, Doulos SIL">403,436</text>
  <ellipse cx="82.99" cy="1415.19" rx="49.5" ry="49.5"/>
  <polygon points="82.92 1378.7 99.5 1378.7 81.54 1414.62 99.5 1414.62 68.55 1454.33 83.19 1421.63 67.58 1422.06 82.92 1378.7" style="fill: #fff"/>
  <text text-anchor="middle" transform="translate(1005 447.47)" style="font-size: 37.49140930175781px;font-family:DoulosSIL, Doulos SIL">6</text>
</g><g id="tokenID">
<text text-anchor="end" transform="translate(1450 1298.55)" style="font-size: 49px;font-family: DoulosSIL, Doulos SIL">29</text>
</g>  <g id="logo">
    <path d="M412.51,140.41l-34.29.33-.26-2-.63-.18a104.29,104.29,0,0,1-14.72-5.72l-6.77,1.86c-.39.11-1,.25-3.32.81-3.36.81-9,2.16-15.29,3.74l-10.12,2.54s-3.56-10.09-3.59-10.19c-8.45,2.14-19,3.94-27.51,3.94-6.05,0-10.75-.93-14.39-2.84-1.07-.56-2.33-1.25-3.68-2.09l-.9,4-36.89-4.45.16-1-28.76,8.94-2.28-3.49-17.92,10.06-3.65-7.14a56.94,56.94,0,0,1-17,2.6,34,34,0,0,1-16-3.76l-1,5.35-42.15-7L113,123c.36-3.14.68-8.21,1-15.11l-14.18.69c1,5.49,2.33,12,4,19.37l2.89,12.81-41.83,7.75L61.46,138c-1.72-5.28-3.28-13.16-4.79-24.07a213.34,213.34,0,0,1-2.21-27.48c0-12,1.43-21.08,4.36-27.81C64.76,45,75.72,43.57,80.15,43.57c6.68,0,13.58,3.14,21.71,9.88l.28.23L105.65,57l1.86-1.85C115,47.55,121.65,44,128.5,44a26.65,26.65,0,0,1,23.1,12.34l.16-1.75,10.41-.14h1.68c30.77,0,40.88,4.13,45.53,8.57L225.26,63c1.22-.41,2.52-.8,3.86-1.16a65.15,65.15,0,0,1,13.67-2.24c.91-.05,1.81-.07,2.68-.07,10.49,0,19.06,3.24,25.49,9.63q.6.6,1.17,1.23A43.53,43.53,0,0,1,288.77,61a47.66,47.66,0,0,1,14.08-2.21,43.39,43.39,0,0,1,13,2,39.18,39.18,0,0,1,4.72,1.84c.16-1.15.34-2.36.53-3.62l1.79-12.14,41.85,8.73-2.84,11.7c-.2.83-.39,1.64-.58,2.44,5.07-2,9.61-3.7,13.55-4.93l4.28-15.3,10.47,2.16c2.91.6,25,6.41,33.22,8.48l-1.53,21.43,13.1,2.19c5.27.87,9.86-3.72,9.86-3.72.29-.83,1.27-16.34,1.6-17.1,5.78-13.26,16.46-14.7,20.78-14.7,6.5,0,13.2,3,21.09,9.59L488,58l3.25,3c.59-.58,1.15-1.13,1.66-1.66,7.26-7.32,13.74-10.73,20.41-10.73,12.26,0,21.77,7.08,26.09,19.42a41.63,41.63,0,0,1,1.43,5,45.4,45.4,0,0,1,5-1.87A46,46,0,0,1,559.48,69,42,42,0,0,1,572.09,71a35,35,0,0,1,9.77,4.8l1-.76c8.11-6,18.49-9.1,30.88-9.1,10.36,0,19.45,2.39,27.07,7.12.84-1.54,1.75-3.08,2.71-4.62l5-8L685,75.07l30.1-15.29,5.54,8.45a108.18,108.18,0,0,1,8.83,15.55,48.93,48.93,0,0,1,4.48,19.9c0,10.81-2.82,19.88-8.39,26.95-6.51,8.33-16.15,12.74-27.86,12.74a37.7,37.7,0,0,1-16-3.38,35.11,35.11,0,0,1-14.48,3c-8.78,0-16.16-2.45-22-7.3l-.55.46c-8.13,6.62-18.24,10-30.08,10s-21.81-2.61-29.85-7.78c-8.42,2.55-21.74,5.24-31.78,5.24-5.87,0-10.45-.91-14-2.77-.15-.07-.29-.15-.43-.23l-.55,2.89-41.08-6.78,1.33-11.7c.34-3,.65-7.81.93-14.36l-13.24.65c.95,5.25,2.23,11.42,3.82,18.47l2.84,12.57-40.76,7.55-2.65-8.15L432,144.3ZM236.19,100.59a94.65,94.65,0,0,0,4.44,15.5l1.3,3.34.2-1.19a83.12,83.12,0,0,0,.94-17.53c0-.93-.11-1.69-.19-2.3A17.16,17.16,0,0,0,236.19,100.59ZM608.66,106a12.36,12.36,0,0,0,4.86.84,11.57,11.57,0,0,0,4.67-.76,13.87,13.87,0,0,0-5.55-.92A7.61,7.61,0,0,0,608.66,106ZM679,88.07A42.34,42.34,0,0,0,674.9,95l14.64-.81c-.87-1.25-2-2.84-3.44-4.86l-4-5.54Z" style="fill: #0702b0"/>
    <path d="M401.41,92.58s16.63,9.5,28.33,8.82,28.32-12.21,28.32-12.21" style="fill: none;stroke: #ff2000;stroke-miterlimit: 10;stroke-width: 6px"/>
    <path d="M383.35,129.21c-.61-4.59-.66-12.3-.16-23.56a241,241,0,0,1,2.07-24.37l.05-.32-7.94-1.76L384,55.66l5.29,1.08c3.39.69,10.4,2.39,21.41,5.17l5.75,1.46L412.13,79.1l1.33.17-.92,5.88c-1.61,10.22-2.41,24.74-2.38,43.15v5.76L384,134.3Z" style="fill: #0702b0"/>
    <path d="M409.29,67.54l-3.31,12-21.35-4.71,3.51-12.43Q393,63.44,409.29,67.54Zm-4.94,60.77-15.24.14q-.84-6.31-.12-22.54a236.41,236.41,0,0,1,2-23.73l15.8,2.07Q404.31,100.1,404.35,128.31Z" style="fill: url(#Sky_2)"/>
    <path d="M387.08,113.63l-5.81,13.23a98.76,98.76,0,0,1-15.54-6.21q-7.51-3.7-14.93-7.52.6,3.3,2.5,9.82c-.73.2-8.85,2.09-18.54,4.49-4.14-11.62-5-24.44-5-36.66,0-9.56,1.16-18,3-30.67l18.42,3.81Q346.69,82.35,347,89.58q4-3.42,16.64-8.62a163.15,163.15,0,0,1,17.54-6.32L387,88l-14.83,4.61q-11.13,4-14.24,8,3.81,2.7,13.94,7.12A152.18,152.18,0,0,0,387.08,113.63Z" style="fill: url(#Sky_2-2)"/>
    <path d="M296,129.19c-5.15,0-9-.71-11.84-2.18-7.06-3.68-14.77-9.06-18.47-21.09-2.73-8.87-1.22-17.44,4.5-25.49a37.72,37.72,0,0,1,20.21-14.5,42.69,42.69,0,0,1,12.5-2,38.5,38.5,0,0,1,11.41,1.73c9.31,2.94,15.61,9,18.26,17.65,1.7,5.54,1.44,10.63-.79,15.12l-.07.14a18,18,0,0,1-2.68,3.77l4,19.93-5,1.54C319.64,126.43,306.06,129.19,296,129.19Z" style="fill: #0702b0"/>
    <path d="M327,85.07q1.89,6.14-.45,10.83t-8.68,6.55q-7.75,2.39-30.29,3.13c7.43,7.08,27.22,1.48,35.91-1.19l2.81,13.92c-10.35,3.19-32.14,7.37-39.48,3.55-6.85-3.57-12.63-8-15.6-17.64q-3.27-10.64,3.68-20.43a31.94,31.94,0,0,1,17.19-12.31,34.07,34.07,0,0,1,20.49-.22Q323.83,74.82,327,85.07Zm-14.67,3.46c-.67-2.17-2.64-3.48-5.93-3.94a19.87,19.87,0,0,0-18.55,8.22q20.1-1.14,23.45-2.18c.7-.21,1.12-.45,1.25-.7S312.55,89.3,312.31,88.53Z" style="fill: url(#Sky_2-3)"/>
    <path d="M210.76,127.16c-3.32-5-5.95-12-8-21.34a126.14,126.14,0,0,1-3.08-21.49c-.1-2-.06-5.4.1-10.43l.19-5.6,25.58-.08c1.36-.49,2.81-.94,4.38-1.35a60.11,60.11,0,0,1,12.62-2.06c10.13-.51,18.23,2.15,24.06,7.9s8.83,13.49,9.33,23.43a98.92,98.92,0,0,1-2.49,26.46l-1.14,5.12-26-3.11,1-6a87.67,87.67,0,0,0,1-18.78C248.05,94.4,247,93,247,93l-.09-.13c-.46-.64-2.07-1-4.2-.86-4.57.23-9,2-13.55,5.25a105.08,105.08,0,0,0,5.5,20.41l2.3,5.83-23.8,7.33Z" style="fill: #0702b0"/>
    <path d="M270.12,96.43a92.78,92.78,0,0,1-2.35,24.91L253,119.57a92.78,92.78,0,0,0,1.1-20q-.36-7.31-2.52-10.11-2.58-3.57-9.19-3.25-10,.51-19.54,8.62a114.62,114.62,0,0,0,6.38,25L215.61,124q-4.35-6.61-7.2-19.41A119.62,119.62,0,0,1,205.46,84q-.14-2.7.11-9.94l15,0,.16,3.3q3.57-3,10.7-4.85a54.1,54.1,0,0,1,11.45-1.88q12.71-.64,19.68,6.23T270.12,96.43Z" style="fill: url(#linear-gradient)"/>
    <path d="M189.47,129.88a52.37,52.37,0,0,1-20,4,28.22,28.22,0,0,1-19.68-7.51,25.59,25.59,0,0,1-8.41-19.49c0-10.12,3.77-18.18,11.21-24l1.11-.82,1.94-22.27,5.25-.07h1.62c36.34,0,41.22,5.95,42.83,7.9,5.2,6.33,4.3,23.63,3.64,31.08v9.06c0,3.19,1.11,6.91,3.3,11l2.67,5-22.26,12.38Z" style="fill: #0702b0"/>
    <path d="M207.19,121.52l-12,6.7-3.08-6A47.41,47.41,0,0,1,169.51,128a22.48,22.48,0,0,1-15.76-6,19.88,19.88,0,0,1-6.52-15.21q0-12.4,9-19.38c5.43-4.23,12.49-5.64,21.1-6.34A27.26,27.26,0,0,1,192,83.89l.12,14.43c-3.8-1.75-11-3.7-14.79-3.7q-6.88,0-11.23,2.9a11.19,11.19,0,0,0-5,9.78,6.43,6.43,0,0,0,2.35,5,7.67,7.67,0,0,0,5.35,2.18q10,0,15.76-4.71t6.07-13.41s2.18-13.25-.23-16.65C186,73.52,160,77.59,160,77.59l1-12.07s34.77-.45,39.88,5.78c4.32,5.26,2.32,27.12,2.32,27.12v9.33Q203.21,114,207.19,121.52Z" style="fill: url(#Sky_2-4)"/>
    <path d="M64.72,135.63c-1.62-4.95-3.13-12.5-4.6-23.06a205.33,205.33,0,0,1-2.18-26.68c0-11.16,1.28-19.49,3.91-25.47C66.31,50.31,73.92,48.8,78.07,48.8c5.33,0,11.12,2.72,18.23,8.56l.15.12,7.44,6.86c2.27-2.15,4.25-4.07,5.9-5.72,6.38-6.38,11.81-9.36,17.08-9.36,10.26,0,17.94,5.72,21.61,16.11,2,5.52,3,13,3,22.74,0,18.22-.8,31.31-2.46,40l-1.23,6.49-31.51-5.15L117,123c.52-4.56,1-12.88,1.36-24.73,0-.25,0-.5,0-.75l-2.53,3.72-21.33,1-2.17-2.68c-.69-.87-1.34-1.65-2-2.36.65,5.89,2.28,15.54,5.88,31.35l1.58,6.9-31.28,5.74Z" style="fill: #0702b0"/>
    <path d="M149.89,87.53q0,26.44-2.34,38.73l-18.61-3q.81-7.14,1.4-25.28.58-19.18-.11-19.19-2.46,0-12.88,15.33l-14.51.7q-9.24-11.46-13-11.46-1.41,0-1.41,7.6,0,10.42,6.44,38.62l-18.49,3.39q-2.22-6.78-4.33-21.88A197.86,197.86,0,0,1,70,85.3Q70,55,83.29,55q5.38,0,13.93,7l11.94,11q6.56-6.09,10.65-10.18,7.38-7.38,12.29-7.38,11.11,0,15.21,11.59Q149.89,74.19,149.89,87.53Z" style="fill: url(#Sky_2-5)"/>
    <path d="M701.4,137a31.56,31.56,0,0,1-16.16-4.09,29.57,29.57,0,0,1-14.66,3.76c-10,0-17.7-3.59-23-10.67l0,0C643.21,120,641,112.34,641,103.1c0-10.2,3.57-21,10.63-32.15L654.14,67l28,11.18L677.86,84a50.08,50.08,0,0,0-5.78,10.26,27.58,27.58,0,0,0-2.44,10,7.76,7.76,0,0,0,.94,4.05l.06.09.06.1a2.61,2.61,0,0,0,.44.62,1,1,0,0,0,.09-.15,6,6,0,0,0,.72-3.15v-5.31l23.65-1.3,1.42,3.91c1.27,3.48,2.86,5.74,4.05,5.74.23,0,.72,0,1.59-1.1a4.4,4.4,0,0,0,1.11-2.94,19.81,19.81,0,0,0-2.52-9.73c-.27-.47-1.5-2.46-6.83-9.82L690.56,80,717,66.7l2.75,4.15a101.62,101.62,0,0,1,8.43,14.68,42.73,42.73,0,0,1,4,17.57c0,9.47-2.42,17.32-7.2,23.34C719.45,133.43,711.52,137,701.4,137Z" style="fill: #0702b0"/>
    <path d="M726.57,103.1q0,12.32-6,19.85-6.65,8.43-19.18,8.42-9.54,0-16.08-5.21A24,24,0,0,1,670.58,131q-12.21,0-18.52-8.42-5.43-7.43-5.43-19.52,0-13.74,9.75-29.15l17,6.76a54.66,54.66,0,0,0-6.43,11.42A32.59,32.59,0,0,0,664,104.32a13,13,0,0,0,1.78,7,6.13,6.13,0,0,0,5.54,3.55A5.32,5.32,0,0,0,676,112a11.53,11.53,0,0,0,1.55-6.09l14.19-.78q3.43,9.42,9.32,9.42a7.48,7.48,0,0,0,6-3.21,10,10,0,0,0,2.33-6.43,25.55,25.55,0,0,0-3.21-12.42q-1.11-2-7.21-10.42L715,74a98.39,98.39,0,0,1,8,13.85A37.22,37.22,0,0,1,726.57,103.1Z" style="fill: url(#New_Gradient_Swatch_2)"/>
    <path d="M455.32,137.28c-1.57-4.78-3-12.06-4.45-22.26a199.7,199.7,0,0,1-2.09-25.77c0-10.77,1.23-18.81,3.77-24.58,4.3-9.77,11.66-11.23,15.66-11.23,5.14,0,10.74,2.63,17.6,8.27l.15.12,7.18,6.62c2.2-2.08,4.1-3.93,5.7-5.52,6.16-6.17,11.4-9,16.49-9,9.91,0,17.32,5.53,20.87,15.55,1.92,5.33,2.86,12.53,2.86,22,0,17.6-.78,30.23-2.38,38.63l-1.19,6.26-30.42-5,.71-6.2c.5-4.4.94-12.43,1.31-23.87l0-.73-2.45,3.59-20.6,1L482,102.52c-.67-.84-1.3-1.6-1.88-2.29.63,5.69,2.19,15,5.68,30.28l1.52,6.66-30.2,5.55Z" style="fill: #0702b0"/>
    <path d="M532.51,91.4q0,25.55-2.26,37.4l-18-2.93q.79-6.9,1.36-24.41.55-18.54-.12-18.53-2.37,0-12.43,14.8l-14,.68q-8.93-11.07-12.54-11.08-1.37,0-1.36,7.35,0,10,6.22,37.29l-17.86,3.28q-2.15-6.56-4.18-21.14a191.24,191.24,0,0,1-2-24.86Q455.32,60,468.21,60q5.19,0,13.45,6.78l11.52,10.62q6.33-5.88,10.29-9.83,7.11-7.12,11.86-7.12,10.74,0,14.69,11.19Q532.51,78.52,532.51,91.4Z" style="fill: url(#New_Gradient_Swatch_2-2)"/>
    <path d="M617.45,139.79c-11.06,0-20.34-2.44-27.61-7.26-9.1-6.13-13.7-15-13.7-26.51S580.45,85.37,589,79.11c7.16-5.29,16.49-8,27.72-8,10.56,0,19.58,2.68,26.81,8l0,0c8.41,6.26,12.68,15,12.68,25.89s-4.06,19.6-12.06,26.09C637,136.87,628,139.79,617.45,139.79Zm-1.89-41a12.62,12.62,0,0,0-7.59,2,5.57,5.57,0,0,0-2.55,5.09c0,1.64.45,3,2.61,4.22a16.81,16.81,0,0,0,8.42,1.92,15.67,15.67,0,0,0,8.34-1.92,5,5,0,0,0,2.79-4.78c0-1.52-.36-3.14-3-4.65A18.44,18.44,0,0,0,615.56,98.77Z" style="fill: #0702b0"/>
    <path d="M650.6,105q0,13.64-10,21.73-9.21,7.42-23.17,7.43-15,0-24.51-6.32-11.19-7.55-11.2-21.84,0-14.64,10.54-22.4,9.32-6.87,24.39-6.87,14.08,0,23.51,6.87Q650.59,91.39,650.6,105Zm-17.41.33q0-6.21-5.88-9.53a23.82,23.82,0,0,0-11.75-2.66,18.13,18.13,0,0,0-10.86,3.1,11.11,11.11,0,0,0-4.88,9.65,9.9,9.9,0,0,0,5.43,9.09,22.26,22.26,0,0,0,11.2,2.66q6.87,0,11.31-2.77A10.57,10.57,0,0,0,633.19,105.35Z" style="fill: url(#New_Gradient_Swatch_2-3)"/>
    <path d="M555.23,137.24c-5,0-8.71-.69-11.43-2.11-6.81-3.55-14.25-8.74-17.83-20.36-2.63-8.57-1.17-16.85,4.34-24.62a36.53,36.53,0,0,1,19.52-14,41,41,0,0,1,12.07-1.88,37.23,37.23,0,0,1,11,1.67c9,2.84,15.07,8.73,17.63,17,1.64,5.34,1.38,10.25-.77,14.59l-.07.14a17,17,0,0,1-2.58,3.64L591,130.6l-4.86,1.49C578.11,134.57,565,137.24,555.23,137.24Z" style="fill: #0702b0"/>
    <path d="M585.19,94.63q1.81,5.93-.43,10.46t-8.38,6.33q-7.5,2.31-29.25,3c7.17,6.84,26.28,1.43,34.67-1.15l2.71,13.44c-10,3.08-31,7.12-38.12,3.43-6.61-3.45-12.19-7.73-15.06-17q-3.15-10.26,3.55-19.72a30.88,30.88,0,0,1,16.6-11.89,32.92,32.92,0,0,1,19.78-.21Q582.14,84.74,585.19,94.63ZM571,98q-1-3.15-5.73-3.81a19.19,19.19,0,0,0-17.91,7.94Q566.79,101,570,100a2.1,2.1,0,0,0,1.21-.68A2.7,2.7,0,0,0,571,98Z" style="fill: url(#New_Gradient_Swatch_2-4)"/>
    <g>
      <g>
        <g>
          <g>
            <path d="M475.38,131.52c-1.25-1.47-4.4-2.48-9.09-2.73a39.8,39.8,0,0,0-73.23,28.47c-6.79,6.28-10.55,12.31-7.68,15.68,2.53,3,11.43,2.58,16.53,2.08a39.79,39.79,0,0,0,69.43-32C474.54,140.68,479.31,136.14,475.38,131.52Z" style="fill: #ffd404"/>
            <path d="M428.46,192.46A43.35,43.35,0,0,1,400.35,179c-14,1.05-16.89-2.41-17.89-3.58-2.81-3.31-3.85-9.34,6.46-19.5a43.23,43.23,0,0,1-.41-10.48,43.62,43.62,0,0,1,80-20.31c4.71.5,8,1.81,9.78,3.91a9.28,9.28,0,0,1,2.32,7.22c-.42,3.44-2.79,6.3-5.21,8.39a43,43,0,0,1,.07,7.86A43.67,43.67,0,0,1,428.46,192.46ZM403.51,171l1.29,1.5a36,36,0,0,0,63.06-20.63,36.46,36.46,0,0,0-.3-8.34l-.35-2.31,1.9-1.37c2.72-2,3.8-3.63,3.91-4.54,0-.17.08-.58-.54-1.31-.35-.32-2.15-1.18-6.4-1.41L464,132.5l-1-1.77a36,36,0,0,0-66.18,25.73l.78.47-1.77,2.93c-7.38,6.83-7.75,10.34-7.53,10.6.55.49,4.06,1.65,13.24.75Z" style="fill: #0000b2"/>
          </g>
          <path d="M394.17,161.26l-3.3-6.44c.48-.52,11.85-12.95,33.08-20.73a170.54,170.54,0,0,1,41.71-9.21l.55,7.63a128.59,128.59,0,0,0-39.5,7.24C407.36,146.84,394.27,161.15,394.17,161.26Z" style="fill: #0000b2"/>
        </g>
        <g>
          <path d="M430,165.64a42.83,42.83,0,0,0,4.38,9.32,10.72,10.72,0,1,0-6.37,1.33,48.44,48.44,0,0,1-3.85-8.84Z" style="fill: #0000b2"/>
          <path d="M447.69,181.81l.12-.1s-2.21,1.62-7.58-.91c-2.22-1.05-4.19-3.32-5.81-5.84a10.61,10.61,0,0,1-6.15,1.36l-.22,0c2.22,3.92,5.38,8.07,9.57,10a19.68,19.68,0,0,0,6.85,2c4.73.39,7.15-1.78,7.5-2.12Z" style="fill: #0000b2"/>
          <path d="M434.42,175a42.83,42.83,0,0,1-4.38-9.32l-5.84,1.81a48.44,48.44,0,0,0,3.85,8.84l.22,0A10.61,10.61,0,0,0,434.42,175Z" style="fill: #0000b2"/>
        </g>
      </g>
      <circle cx="423.61" cy="103.73" r="6.89" style="fill: #0000b2"/>
    </g>
  </g>
  <defs>
    <linearGradient id="Sky_2" data-name="Sky 2" x1="406.87" y1="58.34" x2="378.85" y2="155.96" gradientUnits="userSpaceOnUse">
      <stop offset="0" stop-color="#c6e0f5"/>
      <stop offset="0.06" stop-color="#bdddf4"/>
      <stop offset="0.15" stop-color="#a3d4f1"/>
      <stop offset="0.28" stop-color="#7ac7eb"/>
      <stop offset="0.42" stop-color="#40b3e4"/>
      <stop offset="0.57" stop-color="#009edc"/>
      <stop offset="0.87" stop-color="#0077c3"/>
      <stop offset="0.99" stop-color="#005d9b"/>
    </linearGradient>
    <linearGradient id="Sky_2-2" x1="361.62" y1="50.01" x2="354.97" y2="154.01" xlink:href="#Sky_2"/>
    <linearGradient id="Sky_2-3" x1="316.67" y1="61.44" x2="282.63" y2="143.26" xlink:href="#Sky_2"/>
    <linearGradient id="linear-gradient" x1="238.54" y1="60.55" x2="236.14" y2="160.36" gradientUnits="userSpaceOnUse">
      <stop offset="0" stop-color="#c6e0f5"/>
      <stop offset="0.06" stop-color="#bdddf4"/>
      <stop offset="0.15" stop-color="#a3d4f1"/>
      <stop offset="0.28" stop-color="#7ac7eb"/>
      <stop offset="0.42" stop-color="#40b3e4"/>
      <stop offset="0.57" stop-color="#009edc"/>
      <stop offset="0.87" stop-color="#0077c3"/>
    </linearGradient>
    <linearGradient id="Sky_2-4" x1="179.56" y1="61.4" x2="176.38" y2="132.23" xlink:href="#Sky_2"/>
    <linearGradient id="Sky_2-5" x1="98.28" y1="49.18" x2="128.81" y2="163.35" xlink:href="#Sky_2"/>
    <radialGradient id="New_Gradient_Swatch_2" data-name="New Gradient Swatch 2" cx="776.17" cy="46.5" r="423.59" gradientTransform="translate(0 -0.42)" gradientUnits="userSpaceOnUse">
      <stop offset="0" stop-color="#fff700"/>
      <stop offset="0.06" stop-color="#ffea00"/>
      <stop offset="0.24" stop-color="#ffc800"/>
      <stop offset="0.42" stop-color="#ffad00"/>
      <stop offset="0.61" stop-color="#ff9a00"/>
      <stop offset="0.8" stop-color="#ff8f00"/>
      <stop offset="1" stop-color="#ff8b00"/>
    </radialGradient>
    <radialGradient id="New_Gradient_Swatch_2-2" cx="514.22" cy="57.74" r="243.37" xlink:href="#New_Gradient_Swatch_2"/>
    <radialGradient id="New_Gradient_Swatch_2-3" cx="594.62" cy="68.98" r="233.37" xlink:href="#New_Gradient_Swatch_2"/>
    <radialGradient id="New_Gradient_Swatch_2-4" cx="581.66" cy="56.88" r="327.4" xlink:href="#New_Gradient_Swatch_2"/>
  </defs><g id="baseWish">
      <rect y="1331.49" width="1500" height="168.98" style="fill: #ffefdc"/>
      <path d="M1426.08,1371.31v1.6c0,10.61-.41,18.13-1.59,24a35.9,35.9,0,0,1-5.88,14.38c-.15.2-.82-.31-.72-.57a63.29,63.29,0,0,0,2.89-13.6,175.41,175.41,0,0,0,.93-19.73c0-5.1-.06-7.31-.26-9.84,2.42,1,2.83,1.24,5.35,2.53H1438c2-2.53,2.42-2.84,2.84-2.84s.87.31,2.62,1.91c.83.72,1.09,1.18,1.09,1.59s-.21.52-.78.52h-5a31.35,31.35,0,0,1-4.44,6h4.18c1.28-1.65,1.7-2,2.11-2s.93.31,2.47,1.6c.72.61,1,.92,1,1.33s-.31.83-1.29,1.65v2c0,5.31.16,9.64.16,10.82s-.83,1.65-2.37,1.65c-1.39,0-1.91-.36-1.91-1.6h-1.39v9c0,2.32.11,6.24.11,7.63a4.19,4.19,0,0,1-1.29,3.14,4.93,4.93,0,0,1-3.4,1.24c-.72,0-.88-.21-1-1.29-.1-1.55-1.24-2.52-3.71-3.14-.26,0-.26-.57,0-.57,1.7,0,3.3,0,4.17,0,.62,0,.83-.2.88-1v-15h-1c0,1.13-.83,1.65-2.32,1.65-1.24,0-1.91-.36-1.91-1.29,0-2,.26-4.38.26-12.41q0-3-.15-6a32.22,32.22,0,0,1,4.32,2.58h.62a38.85,38.85,0,0,0,.46-6Zm5.26,28.33c-2.06,4.79-4.95,8.81-7.73,10.82-.21.16-.72-.15-.57-.36a38,38,0,0,0,3.71-9,23.38,23.38,0,0,0,.88-4.69c4.07,1.13,5,1.59,5,2.26C1432.68,1399.08,1432.37,1399.39,1431.34,1399.64Zm7.31-21.17H1432v5.72h6.64Zm-6.64,13.14h6.64v-6.24H1432Zm9.94,15.55c-1.75,0-2.11-.92-2.27-4a14.36,14.36,0,0,0-1.8-6.39.23.23,0,0,1,.36-.26c4.28,2.58,6.18,5.1,6.18,7.78C1444.42,1406,1443.44,1407.16,1442,1407.16Zm11.13,1.6c-5,3.2-7.94,4.28-13.24,5-.26,0-.41-.52-.16-.62a33.56,33.56,0,0,0,7.83-5.36,10.94,10.94,0,0,0,2.58-3.29c3.45,1.75,5.36,3,5.36,3.55S1455,1409,1453.08,1408.76Zm5.3-37.24a44.87,44.87,0,0,1-4.74,6.9h5.62c1.8-2.06,2.21-2.37,2.62-2.37s1,.31,2.89,1.8c.88.72,1.19,1.08,1.19,1.5,0,.61-.42,1.08-1.55,1.65v3.65c0,9.64.21,16.07.21,18.24,0,1.39-1.19,1.85-2.68,1.85-1.29,0-2-.36-2-1.44v-.88h-9.84v.67c0,1-1.18,1.6-2.58,1.6-1.23,0-2-.51-2-1.29,0-2.47.25-4.94.25-14.88,0-4.18,0-8.4-.31-12.62a51.16,51.16,0,0,1,5.16,2.52h1.54c.21-2.32.41-4.59.52-6.9h-4a19.7,19.7,0,0,0-3.25.31l-.56-1.91a17.17,17.17,0,0,0,3.71.41H1460c2-2.68,2.63-3.09,3-3.09s1,.41,2.93,2.16c.83.78,1.24,1.24,1.24,1.6s-.15.52-.67.52Zm1.6,8.08h-9.84v6.24H1460Zm-9.84,13.6H1460V1387h-9.84Zm0,8H1460v-6.85h-9.84Zm14.17,12.47c-.72,0-1.34-.36-1.91-1.39-2-3.66-3.19-5-5.82-6.65-.21-.15,0-.57.21-.51,6.74,1,9.89,2.88,9.89,5.92A2.41,2.41,0,0,1,1464.31,1413.71Z"/>
      <path d="M1449.42,1435.49c3.71,1.14,5.3,1.91,5.3,2.53s-.51.93-2.31,1a29.46,29.46,0,0,1-4,3.24h9.32c2.63-3.09,3.25-3.5,3.61-3.5s1,.41,3.45,2.42c1.08.93,1.49,1.39,1.49,1.75s-.15.52-.67.52H1425a41.84,41.84,0,0,0-4.74.31l-.57-1.91a34.38,34.38,0,0,0,5.26.41h9.58c-.52-.3-.82-.92-1.13-2.26a8.58,8.58,0,0,0-2-4c-.16-.2.1-.46.36-.41,4.63.77,6.39,2.16,6.39,4.43a2.27,2.27,0,0,1-1.45,2.21h9.64a34.81,34.81,0,0,0,1.39-3.86,29.69,29.69,0,0,0,.67-2.94h-20.66a38.3,38.3,0,0,0-4.43.31l-.57-1.9a31.33,31.33,0,0,0,5,.41h12.11V1432a27.88,27.88,0,0,0-.31-3.81c6.18.57,6.74,1.13,6.74,1.7s-.56.93-1.64,1.34v3h10.2c2.52-3,3.14-3.4,3.5-3.4s1,.41,3.5,2.37c1.14.93,1.55,1.34,1.55,1.7s-.16.51-.67.51ZM1427.27,1467c0,4-1.86,6.9-4.64,6.9a2.42,2.42,0,0,1-2.57-2.62c0-1.19.51-1.86,2.11-2.58a6,6,0,0,0,4-5.62c0-.25.52-.3.57,0A14,14,0,0,1,1427.27,1467Zm4.79-7.37c0,1.19-1,1.81-2.68,1.81s-2.32-.52-2.32-1.6c0-1.6.26-3.19.26-9.69,0-1.75,0-3.55-.21-5.35a36.86,36.86,0,0,1,5.51,2.42h19.89c1.8-2,2.21-2.27,2.63-2.27s.92.31,2.93,1.91c.93.77,1.24,1.13,1.24,1.54s-.31.83-1.49,1.5v1.59c0,4.12.2,7,.2,7.89,0,1.33-1,2-2.88,2-1.34,0-1.91-.51-1.91-1.7v-.25h-21.17Zm3.91,9.94c0,1.34.73,1.5,6.7,1.5,4.74,0,7.06-.26,8-.93.77-.57,1.18-1.34,2.52-5,.1-.26.67-.21.67.05,0,1.18,0,2.78,0,3.76,0,.82,0,1,1.08,1.54a1.64,1.64,0,0,1,.88,1.39c0,1.19-.93,2-3.15,2.53-2.06.46-5.35.67-10.82.67-8.55,0-10.56-.88-10.56-4.54,0-.77.06-1.39.06-4.63a33.46,33.46,0,0,0-.21-3.87c6,.67,6.44.78,6.44,1.6,0,.46-.36.77-1.55,1.29Zm17.26-21.17h-21.17v4.23h21.17Zm-21.17,9.84h21.17v-4.43h-21.17Zm13.6,10.1c-1.34,0-1.65-.41-2.78-3a11,11,0,0,0-3.25-4.12.27.27,0,0,1,.21-.47c5.41,1,8.09,2.74,8.09,5.16A2.28,2.28,0,0,1,1445.66,1468.31Zm16.64,5.2c-1.44,0-1.81-.41-2.73-3.4a12.55,12.55,0,0,0-3.76-6.33c-.21-.16,0-.52.31-.47,5.66,1.39,8.8,3.87,8.8,7.06C1464.92,1472.22,1463.84,1473.51,1462.3,1473.51Z"/>
    <path d="M251.68,1500.47H0v-169H251.68l47.8,82.72a7.4,7.4,0,0,1-.08,7.55Z" style="fill: #ffb600"/>
    <path d="M125,1402.83c-4.07,0-7.19.1-10.74.42v-5a116.25,116.25,0,0,1-17,8.34,77.87,77.87,0,0,0-7.82-15.32,87.79,87.79,0,0,0,28-14.18c6.05-4.59,10.64-9.28,13.24-13.66h17.83c3.86,5.42,7.2,8.65,13.45,13.34a80.51,80.51,0,0,0,28,13.77,81.58,81.58,0,0,0-7.2,16.36,111.43,111.43,0,0,1-18-9v5.32a102.08,102.08,0,0,0-10.84-.42h-6.46v6.78h23.77a99.68,99.68,0,0,0,12.3-.53v15.44a91.68,91.68,0,0,0-12.51-.63h-8.24l13.45,4.69a115.37,115.37,0,0,1-8,14.81h5.43a107.56,107.56,0,0,0,13-.63v15.64a133.22,133.22,0,0,0-13.45-.62H107a139.58,139.58,0,0,0-14.18.62v-15.64a131.39,131.39,0,0,0,14.07.63h3.23a60.3,60.3,0,0,0-7.29-15l13.45-4.48H108.6a105.41,105.41,0,0,0-12.51.63v-15.44a94.19,94.19,0,0,0,12.61.53h22.53v-6.78Zm6.26,21.06H118.09c3,4.9,4.48,8,7.51,15.43l-13,4.07h18.67Zm20.64-34.72a65.66,65.66,0,0,1-12.2-11.78,64.57,64.57,0,0,1-12,11.78Zm13.87,54.22L153,1439.11c4.38-6.77,5.63-9.17,7.71-15.22H147.39v19.5Z" style="fill: #fff"/>
   </g></svg>