<svg xmlns="http://www.w3.org/2000/svg" xmlns:xlink="http://www.w3.org/1999/xlink" viewBox="0 0 1500 1500">  <g id="sky">
<rect width="1500" height="1499.86" style="fill: #333333"/>
</g>  <g id="pattern">
<path d="M0,0H0V1500H1500V0H0ZM0,0ZM0,0ZM0,0ZM0,0ZM0,0ZM0,0ZM0,0ZM0,0ZM0,0ZM0,0ZM0,0ZM0,0ZM0,0ZM0,0ZM0,0ZM0,0ZM0,0ZM0,0ZM0,0ZM0,0ZM0,0ZM0,0ZM0,0ZM0,0ZM0,0ZM0,0ZM0,0ZM0,0ZM0,0ZM0,0ZM0,0ZM0,0ZM0,0ZM0,0ZM0,0ZM0,0ZM0,0ZM0,0ZM0,0ZM0,0ZM0,0ZM0,0ZM0,0ZM0,0ZM0,0ZM0,0ZM0,0ZM0,0ZM0,0ZM0,0ZM0,0ZM0,0ZM0,0ZM0,0ZM0,0ZM0,0ZM0,0ZM0,0ZM0,0ZM0,0ZM0,0ZM0,0ZM0,0ZM0,0ZM0,0ZM0,0ZM0,0ZM0,0ZM0,0ZM0,0ZM0,0ZM0,0ZM0,0ZM0,0ZM0,0ZM0,0ZM0,0ZM0,0ZM0,0ZM0,0ZM0,0ZM0,0ZM0,0ZM0,0ZM0,0ZM0,0ZM0,0ZM0,0ZM0,0ZM0,0ZM0,0ZM0,0ZM0,0ZM0,0ZM0,0ZM0,0ZM0,0ZM0,0ZM0,0ZM0,0ZM0,0ZM0,0ZM0,0ZM0,0ZM0,0ZM0,0ZM0,0ZM0,0ZM0,0ZM0,0ZM0,0ZM0,0ZM0,0ZM0,0ZM0,0ZM0,0ZM0,0ZM0,0ZM0,0ZM0,0ZM0,0ZM0,0ZM0,0ZM0,0ZM0,0ZM0,0ZM0,0ZM0,0ZM0,0ZM0,0ZM0,0ZM0,0ZM0,0ZM0,0ZM0,0ZM0,0ZM0,0ZM0,0ZM0,0ZM0,0ZM0,0ZM0,0ZM0,0ZM0,0ZM0,0ZM0,0ZM0,0ZM0,0ZM0,0ZM0,0ZM0,0ZM0,0ZM0,0ZM0,0ZM0,0ZM0,0ZM0,0ZM0,0ZM0,0ZM0,0ZM0,0ZM0,0ZM0,0ZM0,0ZM0,0ZM0,0ZM0,0ZM0,0ZM0,0ZM0,0ZM0,0ZM0,0ZM0,0ZM0,0ZM0,0ZM0,0ZM0,0ZM0,0ZM0,0ZM0,0ZM0,0ZM0,0ZM0,0ZM0,0ZM0,0ZM0,0ZM0,0ZM0,0ZM0,0ZM0,0ZM0,0ZM0,0ZM0,0ZM0,0ZM0,0ZM0,0ZM0,0ZM0,0ZM0,0ZM0,0ZM0,0ZM0,0ZM0,0ZM0,0ZM0,0ZM0,0ZM0,0ZM0,0ZM0,0ZM0,0ZM0,0ZM0,0ZM0,0ZM0,0ZM0,0ZM0,0ZM0,0ZM0,0ZM0,0ZM0,0ZM0,0ZM0,0ZM0,0ZM0,0ZM0,0ZM0,0ZM0,0ZM0,0ZM0,0ZM0,0ZM0,0ZM0,0ZM0,0ZM0,0ZM0,0ZM0,0ZM0,0ZM0,0ZM0,0ZM0,0ZM0,0ZM0,0ZM0,0ZM0,0ZM0,0ZM0,0ZM0,0ZM0,0ZM0,0ZM0,0ZM0,0ZM0,0ZM0,0ZM0,0ZM0,0ZM0,0ZM0,0ZM0,0ZM0,0ZM0,0ZM0,0ZM0,0ZM0,0ZM0,0ZM0,0ZM0,0ZM0,0ZM0,0ZM0,0ZM0,0ZM0,0ZM0,0ZM0,0ZM0,0ZM0,0ZM0,0ZM0,0ZM0,0ZM0,0ZM0,0ZM0,0ZM0,0ZM0,0ZM0,0ZM0,0ZM0,0ZM0,0ZM0,0ZM0,0ZM0,0ZM0,0ZM0,0ZM0,0ZM0,0ZM0,0ZM0,0ZM0,0ZM0,0ZM0,0ZM0,0ZM0,0ZM0,0ZM0,0ZM0,0ZM0,0ZM0,0ZM0,0ZM0,0ZM0,0ZM0,0ZM0,0ZM0,0ZM0,0ZM0,0ZM0,0ZM0,0ZM0,0ZM0,0ZM0,0ZM0,0ZM0,0ZM0,0ZM0,0ZM0,0ZM0,0ZM0,0ZM0,0ZM0,0ZM0,0ZM0,0ZM0,0ZM0,0ZM0,0ZM0,0ZM0,0ZM0,0ZM0,0ZM0,0ZM0,0ZM0,0ZM0,0ZM0,0ZM0,0ZM0,0ZM0,0ZM0,0ZM0,0ZM0,0ZM0,0ZM0,0ZM0,0ZM0,0ZM0,0ZM0,0ZM0,0ZM0,0ZM0,0ZM0,0ZM0,0ZM0,0Z" style="fill: #d573f9;opacity: 0.18"/>
</g>  <g id="base">
<rect y="1330.87" width="1500" height="168.98" style="fill: #ffe1e1"/>
</g>  <g id="land">
<rect x="0.46" y="1028.55" width="1500.11" height="302.58" style="fill: #624a66"/>
</g>  <g id="city">
    <line x1="0.12" y1="1028.95" x2="1500.12" y2="1028.95" style="fill: #ffc0f9;stroke: #000;stroke-miterlimit: 10;stroke-width: 3px"/>
    <path d="M1259,464.5h-42s-1-13-11-13-9,10-9,10-7-25-28-25-30,26-30,26-16-4-20,2-3,17-3,17h-36" style="fill: none;stroke: #000;stroke-miterlimit: 10;stroke-width: 3px"/>
    <path d="M226.92,323.81s9.23-16.19,21.61-17.59S266.36,324,266.36,324s6.52-12.93,17-14.58,21.52,14.35,21.52,14.35" style="fill: none;stroke: #000;stroke-miterlimit: 10;stroke-width: 3px"/>
    <path d="M846.15,240.08l8.27,2.23-5.5,1.48a8.52,8.52,0,0,0-6,6l-1.48,5.5-1.76-6.54a6.66,6.66,0,0,0-4.7-4.7l-6.54-1.76,6.48-1.75a6.73,6.73,0,0,0,4.77-4.77l1.75-6.48,2.23,8.27A3.53,3.53,0,0,0,846.15,240.08Z" style="fill: none;stroke: #000;stroke-miterlimit: 10;stroke-width: 2px"/>
    <path d="M492.15,172.08l8.27,2.23-5.5,1.48a8.52,8.52,0,0,0-6,6l-1.48,5.5-1.76-6.54a6.66,6.66,0,0,0-4.7-4.7l-6.54-1.76,6.48-1.75a6.73,6.73,0,0,0,4.77-4.77l1.75-6.48,2.23,8.27A3.53,3.53,0,0,0,492.15,172.08Z" style="fill: none;stroke: #000;stroke-miterlimit: 10;stroke-width: 2px"/>
    <path d="M1260.15,370.08l8.27,2.23-5.5,1.48a8.52,8.52,0,0,0-6,6l-1.48,5.5-1.76-6.54a6.66,6.66,0,0,0-4.7-4.7l-6.54-1.76,6.48-1.75a6.73,6.73,0,0,0,4.77-4.77l1.75-6.48,2.23,8.27A3.53,3.53,0,0,0,1260.15,370.08Z" style="fill: none;stroke: #000;stroke-miterlimit: 10;stroke-width: 2px"/>
    <path d="M427.36,355.37s.71-9.26,7.84-9.26,6.41,7.12,6.41,7.12,5-17.82,20-17.82S483,354,483,354s11.41-2.85,14.26,1.42,2.14,12.12,2.14,12.12" style="fill: none;stroke: #000;stroke-miterlimit: 10;stroke-width: 3px"/>
    <path d="M573.15,522.08l8.27,2.23-5.5,1.48a8.52,8.52,0,0,0-6,6l-1.48,5.5-1.76-6.54a6.66,6.66,0,0,0-4.7-4.7l-6.54-1.76,6.48-1.75a6.73,6.73,0,0,0,4.77-4.77l1.75-6.48,2.23,8.27A3.53,3.53,0,0,0,573.15,522.08Z" style="fill: none;stroke: #000;stroke-miterlimit: 10;stroke-width: 2px"/>
    <path d="M396.15,453.08l8.27,2.23-5.5,1.48a8.52,8.52,0,0,0-6,6l-1.48,5.5-1.76-6.54a6.66,6.66,0,0,0-4.7-4.7l-6.54-1.76,6.48-1.75a6.73,6.73,0,0,0,4.77-4.77l1.75-6.48,2.23,8.27A3.53,3.53,0,0,0,396.15,453.08Z" style="fill: none;stroke: #000;stroke-miterlimit: 10;stroke-width: 2px"/>
    <path d="M1148.15,280.08l8.27,2.23-5.5,1.48a8.52,8.52,0,0,0-6,6l-1.48,5.5-1.76-6.54a6.66,6.66,0,0,0-4.7-4.7l-6.54-1.76,6.48-1.75a6.73,6.73,0,0,0,4.77-4.77l1.75-6.48,2.23,8.27A3.53,3.53,0,0,0,1148.15,280.08Z" style="fill: none;stroke: #000;stroke-miterlimit: 10;stroke-width: 2px"/>
    <g>
      <polyline points="306.62 748.49 321.88 654.58 414.63 654.58 425.19 748.49" style="fill: #ffc299;stroke: #000;stroke-miterlimit: 10;stroke-width: 3px"/>
      <polygon points="126.42 1027.31 606.57 1027.31 606.57 967.43 588.96 938.09 147.55 938.09 126.42 967.43 126.42 1027.31" style="fill: #ffc299;stroke: #000;stroke-miterlimit: 10;stroke-width: 3px"/>
      <line x1="516.76" y1="937.5" x2="516.76" y2="1027.31" style="fill: #ffc299;stroke: #000;stroke-miterlimit: 10;stroke-width: 3px"/>
      <line x1="428.66" y1="938.09" x2="428.66" y2="1027.31" style="fill: #ffc299;stroke: #000;stroke-miterlimit: 10;stroke-width: 3px"/>
      <line x1="303.03" y1="938.09" x2="303.03" y2="1027.31" style="fill: #ffc299;stroke: #000;stroke-miterlimit: 10;stroke-width: 3px"/>
      <line x1="218.08" y1="1027.31" x2="218.08" y2="938.09" style="fill: #ffc299;stroke: #000;stroke-miterlimit: 10;stroke-width: 3px"/>
      <line x1="127.01" y1="966.85" x2="607.15" y2="966.85" style="fill: #ffc299;stroke: #000;stroke-miterlimit: 10;stroke-width: 3px"/>
      <rect x="154.01" y="989.15" width="9.39" height="12.91" style="fill: #ffc299;stroke: #000;stroke-miterlimit: 10;stroke-width: 3px"/>
      <rect x="188.05" y="989.15" width="11.74" height="12.91" style="fill: #ffc299;stroke: #000;stroke-miterlimit: 10;stroke-width: 3px"/>
      <path d="M229.14,1018.5v-34s5.87-10.57,9.39-10.57,8.22,9.39,8.22,9.39v35.22Z" style="fill: #ffc299;stroke: #000;stroke-miterlimit: 10;stroke-width: 3px"/>
      <polyline points="257.31 973.89 273.75 993.85 308.97 993.85" style="fill: #ffc299;stroke: #000;stroke-miterlimit: 10;stroke-width: 3px"/>
      <line x1="325.4" y1="966.85" x2="325.4" y2="1027.31" style="fill: #ffc299;stroke: #000;stroke-miterlimit: 10;stroke-width: 3px"/>
      <polyline points="428.66 993.85 459.24 993.85 481.31 966.85" style="fill: #ffc299;stroke: #000;stroke-miterlimit: 10;stroke-width: 3px"/>
      <rect x="533.2" y="989.15" width="11.74" height="12.91" style="fill: #ffc299;stroke: #000;stroke-miterlimit: 10;stroke-width: 3px"/>
      <rect x="570.76" y="989.15" width="8.22" height="12.91" style="fill: #ffc299;stroke: #000;stroke-miterlimit: 10;stroke-width: 3px"/>
      <g>
        <path d="M526.15,899.93s-8.22-9.39-9.39-17.61,34-32.87,34-32.87,35.22,27,35.22,32.87c0,12.92-11.74,16.44-11.74,16.44Z" style="fill: #8cc63f;stroke: #000;stroke-miterlimit: 10;stroke-width: 3px"/>
        <rect x="530.26" y="899.35" width="39.91" height="11.74" style="fill: #ffc299;stroke: #000;stroke-miterlimit: 10;stroke-width: 3px"/>
        <rect x="530.26" y="911.09" width="39.91" height="25.83" style="fill: #ffc299;stroke: #000;stroke-miterlimit: 10;stroke-width: 3px"/>
        <line x1="550.32" y1="804.25" x2="550.32" y2="850.04" style="fill: #ffc299;stroke: #000;stroke-miterlimit: 10;stroke-width: 3px"/>
        <line x1="543.86" y1="811.3" x2="556.77" y2="811.3" style="fill: #ffc299;stroke: #000;stroke-miterlimit: 10;stroke-width: 2px"/>
        <circle cx="550.32" cy="831.55" r="3.23" style="fill: #ffc299;stroke: #000;stroke-miterlimit: 10;stroke-width: 3px"/>
        <line x1="544.93" y1="853.72" x2="544.93" y2="899.35" style="fill: #ffc299;stroke: #000;stroke-miterlimit: 10;stroke-width: 3px"/>
        <line x1="556.09" y1="853.72" x2="556.09" y2="899.15" style="fill: #ffc299;stroke: #000;stroke-miterlimit: 10;stroke-width: 3px"/>
        <line x1="564.75" y1="860.61" x2="564.75" y2="897" style="fill: #ffc299;stroke: #000;stroke-miterlimit: 10;stroke-width: 3px"/>
        <line x1="573.21" y1="867.85" x2="573.21" y2="899.35" style="fill: #ffc299;stroke: #000;stroke-miterlimit: 10;stroke-width: 3px"/>
        <line x1="536.03" y1="860.61" x2="536.03" y2="899.35" style="fill: #ffc299;stroke: #000;stroke-miterlimit: 10;stroke-width: 3px"/>
        <line x1="527.52" y1="867.85" x2="527.52" y2="899.35" style="fill: #ffc299;stroke: #000;stroke-miterlimit: 10;stroke-width: 3px"/>
      </g>
      <g>
        <path d="M158.7,901.11s-8.21-9.4-9.39-17.61,34.05-32.87,34.05-32.87,35.21,27,35.21,32.87c0,12.91-11.73,16.43-11.73,16.43Z" style="fill: #7ac943;stroke: #000;stroke-miterlimit: 10;stroke-width: 3px"/>
        <rect x="162.81" y="900.52" width="39.91" height="11.74" style="fill: #ffc299;stroke: #000;stroke-miterlimit: 10;stroke-width: 3px"/>
        <rect x="162.81" y="912.26" width="39.91" height="25.83" style="fill: #ffc299;stroke: #000;stroke-miterlimit: 10;stroke-width: 3px"/>
        <line x1="182.87" y1="805.43" x2="182.87" y2="851.21" style="fill: #ffc299;stroke: #000;stroke-miterlimit: 10;stroke-width: 3px"/>
        <line x1="176.41" y1="812.47" x2="189.32" y2="812.47" style="fill: #ffc299;stroke: #000;stroke-miterlimit: 10;stroke-width: 2px"/>
        <circle cx="182.87" cy="832.72" r="3.23" style="fill: #ffc299;stroke: #000;stroke-miterlimit: 10;stroke-width: 3px"/>
        <line x1="177.49" y1="854.89" x2="177.49" y2="900.52" style="fill: #ffc299;stroke: #000;stroke-miterlimit: 10;stroke-width: 3px"/>
        <line x1="188.64" y1="854.89" x2="188.64" y2="900.32" style="fill: #ffc299;stroke: #000;stroke-miterlimit: 10;stroke-width: 3px"/>
        <line x1="197.3" y1="861.79" x2="197.3" y2="898.17" style="fill: #ffc299;stroke: #000;stroke-miterlimit: 10;stroke-width: 3px"/>
        <line x1="205.77" y1="869.02" x2="205.77" y2="900.52" style="fill: #ffc299;stroke: #000;stroke-miterlimit: 10;stroke-width: 3px"/>
        <line x1="168.58" y1="861.79" x2="168.58" y2="900.52" style="fill: #ffc299;stroke: #000;stroke-miterlimit: 10;stroke-width: 3px"/>
        <line x1="160.07" y1="869.02" x2="160.07" y2="900.52" style="fill: #ffc299;stroke: #000;stroke-miterlimit: 10;stroke-width: 3px"/>
      </g>
      <g>
        <rect x="215.05" y="928.11" width="88.05" height="8.22" style="fill: #ffc299;stroke: #000;stroke-miterlimit: 10;stroke-width: 3px"/>
        <rect x="218.57" y="919.89" width="84.52" height="8.22" style="fill: #ffc299;stroke: #000;stroke-miterlimit: 10;stroke-width: 3px"/>
        <rect x="223.27" y="911.67" width="79.83" height="7.04" style="fill: #ffc299;stroke: #000;stroke-miterlimit: 10;stroke-width: 3px"/>
        <rect x="223.27" y="838.89" width="79.83" height="70.44" style="fill: #ffc299;stroke: #000;stroke-miterlimit: 10;stroke-width: 3px"/>
        <path d="M249.1,837.71V827.15s1.17-10.57,11.74-10.57,12.91,10.57,12.91,10.57v10.56" style="fill: #8cc63f;stroke: #000;stroke-miterlimit: 10;stroke-width: 3px"/>
        <path d="M223.27,838.3V827.73s1.17-10.56,11.74-10.56,12.91,10.56,12.91,10.56V838.3" style="fill: #8cc63f;stroke: #000;stroke-miterlimit: 10;stroke-width: 3px"/>
        <path d="M276.1,837.13V826.56S277.27,816,287.84,816s12.91,10.57,12.91,10.57v10.57" style="fill: #8cc63f;stroke: #000;stroke-miterlimit: 10;stroke-width: 3px"/>
        <polyline points="222.68 908.74 235.6 838.89 249.69 906.39 263.19 838.89 276.69 906.39 290.77 840.65 302.51 908.74" style="fill: #c69c6d;stroke: #000;stroke-linejoin: round;stroke-width: 3px"/>
        <polyline points="235.6 817.17 235.6 779.6 290.77 779.6 290.77 814.82" style="fill: #ffc299;stroke: #000;stroke-miterlimit: 10;stroke-width: 3px"/>
        <polyline points="244.4 813.06 244.4 787.23 253.79 787.23 253.79 810.71" style="fill: #ffc299;stroke: #000;stroke-miterlimit: 10;stroke-width: 3px"/>
        <polyline points="259.66 813.06 259.66 787.23 264.36 787.23" style="fill: #ffc299;stroke: #000;stroke-miterlimit: 10;stroke-width: 3px"/>
        <polyline points="273.75 787.23 278.45 787.23 278.45 813.06" style="fill: #ffc299;stroke: #000;stroke-miterlimit: 10;stroke-width: 3px"/>
        <polygon points="229.14 768.45 296.06 768.45 291.36 780.19 236.18 780.19 229.14 768.45" style="fill: #ffc299;stroke: #000;stroke-miterlimit: 10;stroke-width: 3px"/>
        <path d="M294.88,768.45s9.39-11.74,12.92-16.44,4.69-12.91,2.34-18.78-46.95-44.61-46.95-44.61l-48.14,41.09s-5.87,12.91,0,21.13,14.09,17.61,14.09,17.61" style="fill: #3fa9f5;stroke: #000;stroke-miterlimit: 10;stroke-width: 3px"/>
        <line x1="262.7" y1="630.51" x2="262.7" y2="688.03" style="fill: #ffc299;stroke: #000;stroke-miterlimit: 10;stroke-width: 3px"/>
        <line x1="255.55" y1="637.55" x2="268.47" y2="637.55" style="fill: #ffc299;stroke: #000;stroke-miterlimit: 10;stroke-width: 2px"/>
        <circle cx="262.7" cy="662.5" r="3.23" style="fill: #ffc299;stroke: #000;stroke-miterlimit: 10;stroke-width: 3px"/>
        <path d="M278.45,702.71s18.78,22.22,18.78,30.52c0,10.57-2.35,12.91-5.87,17.61-5.5,7.34-13.87,17.61-13.87,17.61" style="fill: #fff;stroke: #000;stroke-linejoin: round;stroke-width: 3px"/>
        <path d="M246.75,702.71S228,724.93,228,733.23c0,10.57,2.34,12.91,5.87,17.61,5.5,7.34,13.87,17.61,13.87,17.61" style="fill: #fff;stroke: #000;stroke-linejoin: round;stroke-width: 3px"/>
        <path d="M259.66,692.14s-11.74,20-15.26,28.18-4.69,9.39-3.52,15.26,12.91,31.7,12.91,31.7" style="fill: #3fa9f5;stroke: #000;stroke-miterlimit: 10;stroke-width: 3px"/>
        <path d="M265.53,692.14s11.74,20,15.26,28.18,4.7,9.39,3.53,15.26-12.92,31.7-12.92,31.7" style="fill: #3fa9f5;stroke: #000;stroke-miterlimit: 10;stroke-width: 3px"/>
        <path d="M262,691s-8.8,22.89-8.8,40.5,8.21,37,8.21,37,9.4-20.54,9.4-35.81S263.19,691,263.19,691" style="fill: #fff;stroke: #000;stroke-linejoin: round;stroke-width: 3px"/>
      </g>
      <g>
        <rect x="428.5" y="928.11" width="88.05" height="8.22" transform="translate(945.05 1864.43) rotate(-180)" style="fill: #ffc299;stroke: #000;stroke-miterlimit: 10;stroke-width: 3px"/>
        <rect x="428.5" y="919.89" width="84.52" height="8.22" transform="translate(941.52 1848) rotate(-180)" style="fill: #ffc299;stroke: #000;stroke-miterlimit: 10;stroke-width: 3px"/>
        <rect x="428.5" y="911.67" width="79.83" height="7.04" transform="translate(936.83 1830.39) rotate(-180)" style="fill: #ffc299;stroke: #000;stroke-miterlimit: 10;stroke-width: 3px"/>
        <rect x="428.5" y="838.89" width="79.83" height="70.44" transform="translate(936.83 1748.21) rotate(-180)" style="fill: #ffc299;stroke: #000;stroke-miterlimit: 10;stroke-width: 3px"/>
        <path d="M482.5,837.71V827.15s-1.17-10.57-11.74-10.57-12.91,10.57-12.91,10.57v10.56" style="fill: #7ac943;stroke: #000;stroke-miterlimit: 10;stroke-width: 3px"/>
        <path d="M508.33,838.3V827.73s-1.17-10.56-11.74-10.56-12.91,10.56-12.91,10.56V838.3" style="fill: #7ac943;stroke: #000;stroke-miterlimit: 10;stroke-width: 3px"/>
        <path d="M455.5,837.13V826.56S454.33,816,443.76,816s-12.91,10.57-12.91,10.57v10.57" style="fill: #7ac943;stroke: #000;stroke-miterlimit: 10;stroke-width: 3px"/>
        <polyline points="508.92 908.74 496 838.89 481.92 906.39 468.41 838.89 454.91 906.39 440.83 840.65 429.09 908.74" style="fill: #a67c52;stroke: #000;stroke-linejoin: round;stroke-width: 3px"/>
        <polyline points="496 817.17 496 779.6 440.83 779.6 440.83 814.82" style="fill: #ffc299;stroke: #000;stroke-miterlimit: 10;stroke-width: 3px"/>
        <polyline points="487.2 813.06 487.2 787.23 477.81 787.23 477.81 810.71" style="fill: #ffc299;stroke: #000;stroke-miterlimit: 10;stroke-width: 3px"/>
        <polyline points="471.94 813.06 471.94 787.23 467.24 787.23" style="fill: #ffc299;stroke: #000;stroke-miterlimit: 10;stroke-width: 3px"/>
        <polyline points="457.85 787.23 453.15 787.23 453.15 813.06" style="fill: #ffc299;stroke: #000;stroke-miterlimit: 10;stroke-width: 3px"/>
        <polygon points="502.46 768.45 435.54 768.45 440.24 780.19 495.42 780.19 502.46 768.45" style="fill: #ffc299;stroke: #000;stroke-miterlimit: 10;stroke-width: 3px"/>
        <path d="M436.72,768.45S427.33,756.71,423.8,752s-4.69-12.91-2.34-18.78,47-44.61,47-44.61l48.14,41.09s5.87,12.91,0,21.13-14.09,17.61-14.09,17.61" style="fill: #f7931e;stroke: #000;stroke-miterlimit: 10;stroke-width: 3px"/>
        <line x1="468.9" y1="630.51" x2="468.9" y2="688.03" style="fill: #ffc299;stroke: #000;stroke-miterlimit: 10;stroke-width: 3px"/>
        <line x1="476.05" y1="637.55" x2="463.13" y2="637.55" style="fill: #ffc299;stroke: #000;stroke-miterlimit: 10;stroke-width: 2px"/>
        <circle cx="468.9" cy="662.5" r="3.23" style="fill: #ffc299;stroke: #000;stroke-miterlimit: 10;stroke-width: 3px"/>
        <path d="M453.15,702.71s-18.78,22.22-18.78,30.52c0,10.57,2.35,12.91,5.87,17.61,5.5,7.34,13.87,17.61,13.87,17.61" style="fill: #7ac943;stroke: #000;stroke-linejoin: round;stroke-width: 3px"/>
        <path d="M484.85,702.71s18.78,22.22,18.78,30.52c0,10.57-2.34,12.91-5.87,17.61-5.5,7.34-13.87,17.61-13.87,17.61" style="fill: #7ac943;stroke: #000;stroke-linejoin: round;stroke-width: 3px"/>
        <path d="M466.07,692.14s-11.74,20-15.26,28.18-4.7,9.39-3.53,15.26,12.92,31.7,12.92,31.7" style="fill: #f7931e;stroke: #000;stroke-miterlimit: 10;stroke-width: 3px"/>
        <path d="M471.94,692.14s11.74,20,15.26,28.18,4.69,9.39,3.52,15.26-12.91,31.7-12.91,31.7" style="fill: #f7931e;stroke: #000;stroke-miterlimit: 10;stroke-width: 3px"/>
        <path d="M469.59,691s8.8,22.89,8.8,40.5-8.21,37-8.21,37-9.4-20.54-9.4-35.81S468.41,691,468.41,691" style="fill: #7ac943;stroke: #000;stroke-linejoin: round;stroke-width: 3px"/>
      </g>
      <rect x="302.51" y="811.3" width="125.61" height="124.44" style="fill: #ff9a55;stroke: #000;stroke-miterlimit: 10;stroke-width: 3px"/>
      <path d="M333.14,861.78h3.31a9.5,9.5,0,0,1,9.5,9.5v39.81a0,0,0,0,1,0,0H323.64a0,0,0,0,1,0,0V871.28A9.5,9.5,0,0,1,333.14,861.78Z" style="fill: #ffc299;stroke: #000;stroke-miterlimit: 10;stroke-width: 3px"/>
      <path d="M364.25,862.37h3.31a9.5,9.5,0,0,1,9.5,9.5v39.81a0,0,0,0,1,0,0H354.75a0,0,0,0,1,0,0V871.87A9.5,9.5,0,0,1,364.25,862.37Z" style="fill: #ffc299;stroke: #000;stroke-miterlimit: 10;stroke-width: 3px"/>
      <path d="M397.12,862.37h3.31a9.5,9.5,0,0,1,9.5,9.5v39.81a0,0,0,0,1,0,0H387.62a0,0,0,0,1,0,0V871.87A9.5,9.5,0,0,1,397.12,862.37Z" style="fill: #ffc299;stroke: #000;stroke-miterlimit: 10;stroke-width: 3px"/>
      <line x1="303.1" y1="911.67" x2="428.5" y2="911.67" style="fill: #ffc299;stroke: #000;stroke-miterlimit: 10;stroke-width: 3px"/>
      <rect x="313.67" y="835.36" width="104.48" height="18.78" style="fill: #ffc299;stroke: #000;stroke-miterlimit: 10;stroke-width: 3px"/>
      <rect x="319.54" y="748.49" width="42.26" height="61.05" style="fill: #ffc299;stroke: #000;stroke-miterlimit: 10;stroke-width: 3px"/>
      <rect x="373.54" y="748.49" width="41.09" height="61.05" style="fill: #ffc299;stroke: #000;stroke-miterlimit: 10;stroke-width: 3px"/>
      <rect x="386.45" y="780.19" width="14.09" height="23.48" style="fill: #ffc299;stroke: #000;stroke-miterlimit: 10;stroke-width: 3px"/>
      <rect x="334.8" y="780.19" width="12.91" height="23.48" style="fill: #ffc299;stroke: #000;stroke-miterlimit: 10;stroke-width: 3px"/>
      <line x1="311.37" y1="748.49" x2="420.5" y2="748.49" style="fill: #ffc299;stroke: #000;stroke-miterlimit: 10;stroke-width: 3px"/>
      <path d="M425.19,759.06v51.65" style="fill: #ffc299;stroke: #000;stroke-miterlimit: 10;stroke-width: 3px"/>
      <line x1="308" y1="810.71" x2="308" y2="752.01" style="fill: #ffc299;stroke: #000;stroke-miterlimit: 10;stroke-width: 3px"/>
      <polyline points="325.4 652.23 355.93 563.01 361.8 563.01 375.88 563.01 411.1 652.23" style="fill: #ffc299;stroke: #000;stroke-miterlimit: 10;stroke-width: 3px"/>
      <line x1="343.38" y1="652.23" x2="361.8" y2="563.01" style="fill: #ffc299;stroke: #000;stroke-miterlimit: 10;stroke-width: 3px"/>
      <line x1="367.08" y1="652.23" x2="368.25" y2="563.01" style="fill: #ffc299;stroke: #000;stroke-miterlimit: 10;stroke-width: 3px"/>
      <line x1="388.05" y1="652.23" x2="373.54" y2="563.01" style="fill: #ffc299;stroke: #000;stroke-miterlimit: 10;stroke-width: 3px"/>
      <path d="M319.54,743.8s1.17-20,15.26-18.79,15.26,18.79,15.26,18.79" style="fill: none;stroke: #000;stroke-miterlimit: 10;stroke-width: 3px"/>
      <path d="M351.23,743.8s1.18-20,15.26-18.79,15.26,18.79,15.26,18.79" style="fill: none;stroke: #000;stroke-miterlimit: 10;stroke-width: 3px"/>
      <path d="M382.93,743.8s1.17-20,15.26-18.79,15.26,18.79,15.26,18.79" style="fill: none;stroke: #000;stroke-miterlimit: 10;stroke-width: 3px"/>
      <g>
        <path d="M319.54,726.19s1.17-20,15.26-18.79,15.26,18.79,15.26,18.79" style="fill: none;stroke: #000;stroke-miterlimit: 10;stroke-width: 3px"/>
        <path d="M351.23,726.19s1.18-20,15.26-18.79,15.26,18.79,15.26,18.79" style="fill: none;stroke: #000;stroke-miterlimit: 10;stroke-width: 3px"/>
        <path d="M382.93,726.19s1.17-20,15.26-18.79,15.26,18.79,15.26,18.79" style="fill: none;stroke: #000;stroke-miterlimit: 10;stroke-width: 3px"/>
      </g>
      <g>
        <path d="M322.47,707.4s1.14-19.95,14.78-18.78S352,707.4,352,707.4" style="fill: none;stroke: #000;stroke-miterlimit: 10;stroke-width: 3px"/>
        <path d="M353.18,707.4s1.13-19.95,14.78-18.78,14.79,18.78,14.79,18.78" style="fill: none;stroke: #000;stroke-miterlimit: 10;stroke-width: 3px"/>
        <path d="M383.88,707.4s1.14-19.95,14.79-18.78,14.78,18.78,14.78,18.78" style="fill: none;stroke: #000;stroke-miterlimit: 10;stroke-width: 3px"/>
      </g>
      <g>
        <path d="M324.82,686.27s1.05-20,13.73-18.78,13.74,18.78,13.74,18.78" style="fill: none;stroke: #000;stroke-miterlimit: 10;stroke-width: 3px"/>
        <path d="M353.35,686.27s1-20,13.73-18.78,13.74,18.78,13.74,18.78" style="fill: none;stroke: #000;stroke-miterlimit: 10;stroke-width: 3px"/>
        <path d="M381.87,686.27s1.06-20,13.74-18.78,13.73,18.78,13.73,18.78" style="fill: none;stroke: #000;stroke-miterlimit: 10;stroke-width: 3px"/>
      </g>
      <ellipse cx="366.49" cy="553.03" rx="17.02" ry="9.39" style="fill: #ffc299;stroke: #000;stroke-miterlimit: 10;stroke-width: 3px"/>
      <path d="M366.49,530.14a19.18,19.18,0,0,1-8.88-2.58,14.39,14.39,0,0,1-6.38-8c-3.52-10.57,16.44-31.7,16.44-31.7s18.78,23.48,18.78,29.35S379.41,530.14,366.49,530.14Z" style="fill: #fcee21;stroke: #000;stroke-miterlimit: 10;stroke-width: 3px"/>
      <line x1="357.1" y1="544.22" x2="357.1" y2="527.79" style="fill: #ffc299;stroke: #000;stroke-miterlimit: 10;stroke-width: 3px"/>
      <line x1="377.06" y1="544.22" x2="377.06" y2="528.1" style="fill: #ffc299;stroke: #000;stroke-miterlimit: 10;stroke-width: 3px"/>
      <line x1="367.67" y1="487.87" x2="367.67" y2="450.31" style="fill: #ffc299;stroke: #000;stroke-miterlimit: 10;stroke-width: 3px"/>
      <line x1="357.1" y1="462.05" x2="377.06" y2="462.05" style="fill: #ffc299;stroke: #000;stroke-miterlimit: 10;stroke-width: 3px"/>
    </g>
    <g>
      <path d="M892,1026.81V623.29s32.63-30.46,79.4-34.81,46.76,0,46.76,0v438.33Z" style="fill: #8d98ff;stroke: #000;stroke-miterlimit: 10;stroke-width: 3px"/>
      <polyline points="1052.98 586.31 1029.05 596.1 1029.05 1026.81 1052.98 1026.81 1052.98 586.31" style="fill: #8d98ff;stroke: #000;stroke-miterlimit: 10;stroke-width: 3px"/>
      <line x1="1018.17" y1="1026.81" x2="1029.05" y2="1026.81" style="fill: #8d98ff;stroke: #000;stroke-miterlimit: 10;stroke-width: 3px"/>
      <line x1="1018.17" y1="588.48" x2="1029.05" y2="596.1" style="fill: #8d98ff;stroke: #000;stroke-miterlimit: 10;stroke-width: 3px"/>
      <line x1="1053.52" y1="1007.23" x2="892.01" y2="1007.23" style="fill: #8d98ff;stroke: #000;stroke-miterlimit: 10;stroke-width: 3px"/>
      <line x1="1053.52" y1="993.09" x2="892.01" y2="993.09" style="fill: #8d98ff;stroke: #000;stroke-miterlimit: 10;stroke-width: 3px"/>
      <line x1="1053.52" y1="975.69" x2="892.01" y2="975.69" style="fill: #8d98ff;stroke: #000;stroke-miterlimit: 10;stroke-width: 3px"/>
      <line x1="1053.52" y1="961.55" x2="892.01" y2="961.55" style="fill: #8d98ff;stroke: #000;stroke-miterlimit: 10;stroke-width: 3px"/>
      <path d="M892,640.68s33.65-25.17,63.62-31c36.44-7.07,62.54-2,62.54-2l9.25,6.38L1053,605.2" style="fill: #8d98ff;stroke: #000;stroke-miterlimit: 10;stroke-width: 3px"/>
      <path d="M892,655.91s33.65-25.18,63.62-31c36.44-7.07,62.54-2,62.54-2l9.25,6.38,25.56-8.84" style="fill: #8d98ff;stroke: #000;stroke-miterlimit: 10;stroke-width: 3px"/>
      <path d="M892,672.23s33.65-25.18,63.62-31c36.44-7.07,62.54-2,62.54-2l10.34,6.38,24.47-8.83" style="fill: #8d98ff;stroke: #000;stroke-miterlimit: 10;stroke-width: 3px"/>
      <path d="M892,688.54s33.65-23,63.62-28.82c36.44-7.07,62.54-4.2,62.54-4.2l10.34,7.47,24.47-8.84" style="fill: #8d98ff;stroke: #000;stroke-miterlimit: 10;stroke-width: 3px"/>
      <path d="M892,703.77s33.65-21.92,63.62-27.73c36.44-7.07,62.54-3.12,62.54-3.12l10.34,7.47,24.47-8.84" style="fill: #8d98ff;stroke: #000;stroke-miterlimit: 10;stroke-width: 3px"/>
      <path d="M892,717.91s33.65-19.74,63.62-25.56c36.44-7.07,62.54-3.11,62.54-3.11l10.34,7.46,24.47-8.83" style="fill: #8d98ff;stroke: #000;stroke-miterlimit: 10;stroke-width: 3px"/>
      <path d="M892,734.22s33.65-19.74,63.62-25.55c36.44-7.07,62.54-2,62.54-2l10.34,7.47,24.47-8.84" style="fill: #8d98ff;stroke: #000;stroke-miterlimit: 10;stroke-width: 3px"/>
      <path d="M892,748.36s33.65-16.47,63.62-22.29c36.44-7.07,62.54-2,62.54-2l10.34,5.29,24.47-9.92" style="fill: #8d98ff;stroke: #000;stroke-miterlimit: 10;stroke-width: 3px"/>
      <path d="M890.92,764.68s33.25-19.21,63.63-22.29c37.52-3.81,62.54-.95,62.54-.95l10.33,4.21,24.47-4.49" style="fill: #8d98ff;stroke: #000;stroke-miterlimit: 10;stroke-width: 3px"/>
      <path d="M890.92,779.9s33.25-18.12,63.63-21.2c37.52-3.81,62.54-.94,62.54-.94l10.33,4.2,24.47-4.48" style="fill: #8d98ff;stroke: #000;stroke-miterlimit: 10;stroke-width: 3px"/>
      <path d="M890.92,796.22S924.17,778.1,954.55,775c37.52-3.8,62.54-.94,62.54-.94l10.33,4.21,24.47-1.23" style="fill: #8d98ff;stroke: #000;stroke-miterlimit: 10;stroke-width: 3px"/>
      <path d="M890.92,811.44s33.25-18.12,63.63-21.2c37.52-3.8,62.54-.94,62.54-.94l10.33,4.2,24.47-1.22" style="fill: #8d98ff;stroke: #000;stroke-miterlimit: 10;stroke-width: 3px"/>
      <path d="M890.92,827.76s33.25-18.12,63.63-21.2c37.52-3.81,62.54-.94,62.54-.94l10.33,4.2,24.47-1.23" style="fill: #8d98ff;stroke: #000;stroke-miterlimit: 10;stroke-width: 3px"/>
      <path d="M890.92,843s33.25-14.86,63.63-17.94c37.52-3.81,62.54-2,62.54-2l10.33,3.11,24.47-1.22" style="fill: #8d98ff;stroke: #000;stroke-miterlimit: 10;stroke-width: 3px"/>
      <path d="M890.92,857.13s33.25-12.69,63.63-15.77c37.52-3.81,62.54-2,62.54-2l10.33,3.12,24.47-1.23" style="fill: #8d98ff;stroke: #000;stroke-miterlimit: 10;stroke-width: 3px"/>
      <path d="M892,871.27s33.25-11.6,63.62-14.68c37.53-3.81,62.54-.94,62.54-.94l10.34,3.11,24.47-.13" style="fill: #8d98ff;stroke: #000;stroke-miterlimit: 10;stroke-width: 3px"/>
      <path d="M890.92,887.58S924.17,876,954.55,872.9c37.52-3.8,62.54,1.24,62.54,1.24l10.33,2,24.47-1.23" style="fill: #8d98ff;stroke: #000;stroke-miterlimit: 10;stroke-width: 3px"/>
      <path d="M892,902.81s33.25-9.42,63.62-12.5c37.53-3.81,62.54,1.23,62.54,1.23l10.34.94,24.47-.14" style="fill: #8d98ff;stroke: #000;stroke-miterlimit: 10;stroke-width: 3px"/>
      <path d="M892,917s33.25-6.16,63.62-9.24c37.53-3.81,62.54,1.23,62.54,1.23l10.34-.14,24.47-1.23" style="fill: #8d98ff;stroke: #000;stroke-miterlimit: 10;stroke-width: 3px"/>
      <path d="M893.09,931.09s33.13-5.81,63.63-7.07c39.7-1.63,62.54.15,62.54.15l10.34,2,24.47-.14" style="fill: #8d98ff;stroke: #000;stroke-miterlimit: 10;stroke-width: 3px"/>
      <path d="M892,946.31s33.12-3.66,63.62-4.88c40.79-1.64,62.54.14,62.54.14l10.34,2,24.47-1.22" style="fill: #8d98ff;stroke: #000;stroke-miterlimit: 10;stroke-width: 3px"/>
    </g>
    <g>
      <path d="M1361,768.13l84.27-6.34s7.69-55,10.69-75,0-79,0-79l-68-23" style="fill: #03a6d8;stroke: #000;stroke-miterlimit: 10;stroke-width: 3px"/>
      <path d="M1342.92,626.81l45-42s56,163,64,203,16,102,12,138-13,98-13,98-41-126-47-142-37-91-42-110-12-47-14-69S1342.92,626.81,1342.92,626.81Z" style="fill: #03a6d8;stroke: #000;stroke-miterlimit: 10;stroke-width: 3px"/>
      <path d="M1361.92,779.81s-21,100-19,134,19,114,19,114h89" style="fill: #03a6d8;stroke: #000;stroke-miterlimit: 10;stroke-width: 3px"/>
      <line x1="1358.03" y1="1008.81" x2="1444.92" y2="1004.81" style="fill: #03a6d8;stroke: #000;stroke-miterlimit: 10;stroke-width: 3px"/>
      <polyline points="1354.52 990.75 1436.38 979.28 1456.37 985.01" style="fill: none;stroke: #000;stroke-miterlimit: 10;stroke-width: 3px"/>
      <polyline points="1459.81 959.3 1427.73 952.91 1350.81 970.55" style="fill: none;stroke: #000;stroke-miterlimit: 10;stroke-width: 3px"/>
      <path d="M1347.35,949.94c-.43-.13,72.08-22.2,72.08-22.2l43.65,5.41" style="fill: none;stroke: #000;stroke-miterlimit: 10;stroke-width: 3px"/>
      <polyline points="1464.98 909.11 1411.14 902.8 1344.49 929.95" style="fill: none;stroke: #000;stroke-miterlimit: 10;stroke-width: 3px"/>
      <polyline points="1342.92 902.94 1402.13 877.16 1463.08 881.76" style="fill: none;stroke: #000;stroke-miterlimit: 10;stroke-width: 3px"/>
      <polyline points="1463.08 856.48 1392.41 852.73 1344.49 882.13" style="fill: none;stroke: #000;stroke-miterlimit: 10;stroke-width: 3px"/>
      <polyline points="1347.97 858.25 1383.82 831.17 1459.51 833.66" style="fill: none;stroke: #000;stroke-miterlimit: 10;stroke-width: 3px"/>
      <polyline points="1455.97 810.1 1375.24 809.23 1353.03 828.49" style="fill: none;stroke: #000;stroke-miterlimit: 10;stroke-width: 3px"/>
      <line x1="1366.81" y1="786.72" x2="1450.92" y2="787.81" style="fill: #03a6d8;stroke: #000;stroke-miterlimit: 10;stroke-width: 3px"/>
      <line x1="1356.11" y1="748.65" x2="1436.99" y2="734.15" style="fill: #03a6d8;stroke: #000;stroke-miterlimit: 10;stroke-width: 3px"/>
      <polyline points="1353.03 730.41 1429.42 709.97 1450.92 720.12" style="fill: none;stroke: #000;stroke-miterlimit: 10;stroke-width: 3px"/>
      <line x1="1454.54" y1="696.16" x2="1422.97" y2="683.81" style="fill: #03a6d8;stroke: #000;stroke-miterlimit: 10;stroke-width: 3px"/>
      <line x1="1413.92" y1="654.81" x2="1457.01" y2="672.63" style="fill: #03a6d8;stroke: #000;stroke-miterlimit: 10;stroke-width: 3px"/>
      <line x1="1455.98" y1="646.6" x2="1404.5" y2="629.26" style="fill: #03a6d8;stroke: #000;stroke-miterlimit: 10;stroke-width: 3px"/>
      <line x1="1396.55" y1="605.06" x2="1456.65" y2="625.65" style="fill: #03a6d8;stroke: #000;stroke-miterlimit: 10;stroke-width: 3px"/>
      <line x1="1344.07" y1="646.6" x2="1396.55" y2="615.35" style="fill: #03a6d8;stroke: #000;stroke-miterlimit: 10;stroke-width: 3px"/>
      <line x1="1407.04" y1="641.43" x2="1343.92" y2="668.81" style="fill: #03a6d8;stroke: #000;stroke-miterlimit: 10;stroke-width: 3px"/>
      <line x1="1346.89" y1="689.99" x2="1415.12" y2="665.83" style="fill: #03a6d8;stroke: #000;stroke-miterlimit: 10;stroke-width: 3px"/>
      <line x1="1422.97" y1="689.86" x2="1348.72" y2="709.96" style="fill: #03a6d8;stroke: #000;stroke-miterlimit: 10;stroke-width: 3px"/>
    </g>
    <g>
      <line x1="1099.49" y1="836.15" x2="1099.49" y2="928.58" style="fill: #b0f0ff;stroke: #000;stroke-miterlimit: 10;stroke-width: 3px"/>
      <line x1="1081.92" y1="934.81" x2="1092.92" y2="939.81" style="fill: #b0f0ff;stroke: #000;stroke-miterlimit: 10;stroke-width: 3px"/>
      <g>
        <polyline points="1100.42 645.31 1100.42 634.31 1136.42 621.31 1136.42 634.31 1161.62 654.74 1173.42 664.31 1173.42 749.31" style="fill: #b0f0ff;stroke: #000;stroke-miterlimit: 10;stroke-width: 3px"/>
        <polygon points="1092.92 1028.81 1092.92 939.81 1141.92 928.81 1181.92 945.81 1181.92 1028.81 1092.92 1028.81" style="fill: #b0f0ff;stroke: #000;stroke-miterlimit: 10;stroke-width: 3px"/>
        <line x1="1141.92" y1="988.51" x2="1181.92" y2="996.92" style="fill: #b0f0ff;stroke: #000;stroke-miterlimit: 10;stroke-width: 3px"/>
        <polyline points="1092.92 947.95 1141.92 947.95 1181.92 967.59" style="fill: #b0f0ff;stroke: #000;stroke-miterlimit: 10;stroke-width: 3px"/>
        <polyline points="1129.92 820.81 1169.92 856.81 1169.92 935.81 1129.92 917.81" style="fill: #b0f0ff;stroke: #000;stroke-miterlimit: 10;stroke-width: 3px"/>
        <polyline points="1134.92 823.81 1140.92 820.81 1178.92 850.81 1169.92 853.81" style="fill: #b0f0ff;stroke: #000;stroke-miterlimit: 10;stroke-width: 3px"/>
        <polyline points="1091.92 834.81 1091.92 749.81 1141.92 729.81 1141.92 820.81" style="fill: #b0f0ff;stroke: #000;stroke-miterlimit: 10;stroke-width: 3px"/>
        <polyline points="1141.92 729.81 1178.92 755.81 1178.92 851.81" style="fill: #b0f0ff;stroke: #000;stroke-miterlimit: 10;stroke-width: 3px"/>
        <line x1="1142.92" y1="757.81" x2="1178.92" y2="782.31" style="fill: #b0f0ff;stroke: #000;stroke-miterlimit: 10;stroke-width: 3px"/>
        <line x1="1142.92" y1="786.97" x2="1178.92" y2="813.7" style="fill: #b0f0ff;stroke: #000;stroke-miterlimit: 10;stroke-width: 3px"/>
        <line x1="1156.92" y1="739.81" x2="1156.92" y2="831.8" style="fill: #b0f0ff;stroke: #000;stroke-miterlimit: 10;stroke-width: 3px"/>
        <line x1="1169.92" y1="749.26" x2="1167.84" y2="842.06" style="fill: #b0f0ff;stroke: #000;stroke-miterlimit: 10;stroke-width: 3px"/>
        <polyline points="1088.92 745.81 1133.92 723.81 1137.92 727.81 1091.42 749.31 1087.42 747.31 1087.42 654.31 1136.42 634.31 1136.42 723.31" style="fill: #b0f0ff;stroke: #000;stroke-miterlimit: 10;stroke-width: 3px"/>
        <polyline points="1162.42 652.31 1162.42 642.31 1137.42 621.31" style="fill: #b0f0ff;stroke: #000;stroke-miterlimit: 10;stroke-width: 3px"/>
        <line x1="1105.92" y1="649.89" x2="1106.42" y2="734.31" style="fill: #b0f0ff;stroke: #000;stroke-miterlimit: 10;stroke-width: 3px"/>
        <line x1="1120.8" y1="642.43" x2="1120.8" y2="727.81" style="fill: #b0f0ff;stroke: #000;stroke-miterlimit: 10;stroke-width: 3px"/>
        <line x1="1087.92" y1="715.81" x2="1136.42" y2="697.16" style="fill: #b0f0ff;stroke: #000;stroke-miterlimit: 10;stroke-width: 3px"/>
        <line x1="1087.42" y1="681.93" x2="1136.42" y2="664.72" style="fill: #b0f0ff;stroke: #000;stroke-miterlimit: 10;stroke-width: 3px"/>
        <polygon points="1081.92 841.81 1081.92 868.43 1081.92 934.81 1129.92 917.81 1129.92 853.73 1129.92 820.81 1081.92 841.81" style="fill: #b0f0ff;stroke: #000;stroke-miterlimit: 10;stroke-width: 3px"/>
        <line x1="1083.92" y1="902.81" x2="1129.92" y2="883.12" style="fill: #b0f0ff;stroke: #000;stroke-miterlimit: 10;stroke-width: 3px"/>
        <line x1="1081.92" y1="868.81" x2="1129.92" y2="853.81" style="fill: #b0f0ff;stroke: #000;stroke-miterlimit: 10;stroke-width: 3px"/>
        <line x1="1119.21" y1="825.49" x2="1118.92" y2="917.81" style="fill: #b0f0ff;stroke: #000;stroke-miterlimit: 10;stroke-width: 3px"/>
        <line x1="1141.92" y1="928.81" x2="1141.92" y2="1030.31" style="fill: #b0f0ff;stroke: #000;stroke-miterlimit: 10;stroke-width: 3px"/>
        <line x1="1157.6" y1="935.47" x2="1157.6" y2="1028.81" style="fill: #b0f0ff;stroke: #000;stroke-miterlimit: 10;stroke-width: 3px"/>
        <line x1="1169.59" y1="940.57" x2="1169.59" y2="1028.81" style="fill: #b0f0ff;stroke: #000;stroke-miterlimit: 10;stroke-width: 3px"/>
      </g>
      <g>
        <polyline points="1214.42 556.31 1214.42 545.31 1250.42 532.31 1250.42 545.31 1275.62 565.74 1287.42 575.31 1287.42 660.31" style="fill: #b0f0ff;stroke: #000;stroke-miterlimit: 10;stroke-width: 3px"/>
        <polygon points="1206.92 939.81 1206.92 850.81 1255.92 839.81 1295.92 856.81 1288.92 951.81 1251.42 939.32 1206.92 939.81" style="fill: #b0f0ff;stroke: #000;stroke-miterlimit: 10;stroke-width: 3px"/>
        <line x1="1255.92" y1="839.81" x2="1255.92" y2="941.31" style="fill: #b0f0ff;stroke: #000;stroke-miterlimit: 10;stroke-width: 3px"/>
        <line x1="1271.6" y1="846.47" x2="1271.6" y2="943.81" style="fill: #b0f0ff;stroke: #000;stroke-miterlimit: 10;stroke-width: 3px"/>
        <path d="M1283.59,851.57v97.24c0-4.35.33,80,.33,80h-35" style="fill: none;stroke: #000;stroke-miterlimit: 10;stroke-width: 3px"/>
        <line x1="1255.92" y1="899.51" x2="1295.92" y2="907.92" style="fill: #b0f0ff;stroke: #000;stroke-miterlimit: 10;stroke-width: 3px"/>
        <line x1="1255.92" y1="858.95" x2="1295.92" y2="878.59" style="fill: #b0f0ff;stroke: #000;stroke-miterlimit: 10;stroke-width: 3px"/>
        <polygon points="1195.92 752.81 1195.92 779.43 1195.92 845.81 1243.92 828.81 1243.92 764.73 1243.92 731.81 1195.92 752.81" style="fill: #b0f0ff;stroke: #000;stroke-miterlimit: 10;stroke-width: 3px"/>
        <line x1="1197.92" y1="813.81" x2="1243.92" y2="794.12" style="fill: #b0f0ff;stroke: #000;stroke-miterlimit: 10;stroke-width: 3px"/>
        <line x1="1195.92" y1="779.81" x2="1243.92" y2="764.81" style="fill: #b0f0ff;stroke: #000;stroke-miterlimit: 10;stroke-width: 3px"/>
        <line x1="1233.21" y1="736.49" x2="1232.92" y2="828.81" style="fill: #b0f0ff;stroke: #000;stroke-miterlimit: 10;stroke-width: 3px"/>
        <polyline points="1243.92 731.81 1283.92 767.81 1283.92 846.81 1243.92 828.81" style="fill: #b0f0ff;stroke: #000;stroke-miterlimit: 10;stroke-width: 3px"/>
        <polyline points="1248.92 734.81 1254.92 731.81 1292.92 761.81 1283.92 764.81" style="fill: #b0f0ff;stroke: #000;stroke-miterlimit: 10;stroke-width: 3px"/>
        <polyline points="1205.92 745.81 1205.92 660.81 1255.92 640.81 1255.92 731.81" style="fill: #b0f0ff;stroke: #000;stroke-miterlimit: 10;stroke-width: 3px"/>
        <polyline points="1255.92 640.81 1292.92 666.81 1292.92 762.81" style="fill: #b0f0ff;stroke: #000;stroke-miterlimit: 10;stroke-width: 3px"/>
        <line x1="1256.92" y1="668.81" x2="1292.92" y2="693.31" style="fill: #b0f0ff;stroke: #000;stroke-miterlimit: 10;stroke-width: 3px"/>
        <line x1="1256.92" y1="697.97" x2="1292.92" y2="724.7" style="fill: #b0f0ff;stroke: #000;stroke-miterlimit: 10;stroke-width: 3px"/>
        <line x1="1270.92" y1="650.81" x2="1270.92" y2="742.8" style="fill: #b0f0ff;stroke: #000;stroke-miterlimit: 10;stroke-width: 3px"/>
        <line x1="1283.92" y1="660.26" x2="1281.84" y2="753.06" style="fill: #b0f0ff;stroke: #000;stroke-miterlimit: 10;stroke-width: 3px"/>
        <polyline points="1202.92 656.81 1247.92 634.81 1251.92 638.81 1205.42 660.31 1201.42 658.31 1201.42 565.31 1250.42 545.31 1250.42 634.31" style="fill: #b0f0ff;stroke: #000;stroke-miterlimit: 10;stroke-width: 3px"/>
        <polyline points="1276.42 563.31 1276.42 553.31 1251.42 532.31" style="fill: #b0f0ff;stroke: #000;stroke-miterlimit: 10;stroke-width: 3px"/>
        <line x1="1219.92" y1="560.89" x2="1220.42" y2="645.31" style="fill: #b0f0ff;stroke: #000;stroke-miterlimit: 10;stroke-width: 3px"/>
        <line x1="1234.8" y1="553.43" x2="1234.8" y2="638.81" style="fill: #b0f0ff;stroke: #000;stroke-miterlimit: 10;stroke-width: 3px"/>
        <line x1="1201.92" y1="626.81" x2="1250.42" y2="608.16" style="fill: #b0f0ff;stroke: #000;stroke-miterlimit: 10;stroke-width: 3px"/>
        <line x1="1201.42" y1="592.93" x2="1250.42" y2="575.72" style="fill: #b0f0ff;stroke: #000;stroke-miterlimit: 10;stroke-width: 3px"/>
      </g>
      <line x1="1195.92" y1="845.81" x2="1206.92" y2="850.81" style="fill: #b0f0ff;stroke: #000;stroke-miterlimit: 10;stroke-width: 3px"/>
      <polygon points="1200.92 1028.81 1200.92 966.73 1200.92 940.81 1248.92 940.81 1248.92 1028.81 1200.92 1028.81" style="fill: #b0f0ff;stroke: #000;stroke-miterlimit: 10;stroke-width: 3px"/>
      <line x1="1243.92" y1="966.81" x2="1200.92" y2="966.81" style="fill: #b0f0ff;stroke: #000;stroke-miterlimit: 10;stroke-width: 3px"/>
      <line x1="1245.92" y1="998.81" x2="1201.42" y2="998.81" style="fill: #b0f0ff;stroke: #000;stroke-miterlimit: 10;stroke-width: 3px"/>
      <line x1="1216.92" y1="943.81" x2="1216.92" y2="1026.81" style="fill: #b0f0ff;stroke: #000;stroke-miterlimit: 10;stroke-width: 3px"/>
      <line x1="1232.92" y1="942.24" x2="1232.92" y2="1026.81" style="fill: #b0f0ff;stroke: #000;stroke-miterlimit: 10;stroke-width: 3px"/>
    </g>
    <g>
      <rect x="67.8" y="442.81" width="41" height="50" style="fill: #ff7bac;stroke: #000;stroke-miterlimit: 10;stroke-width: 3px"/>
      <rect x="73.8" y="492.81" width="29" height="17" style="fill: #ff7bac;stroke: #000;stroke-miterlimit: 10;stroke-width: 3px"/>
      <rect x="79.8" y="509.81" width="17" height="61" style="fill: #ff7bac;stroke: #000;stroke-miterlimit: 10;stroke-width: 3px"/>
      <rect x="75.3" y="568.81" width="26" height="26" style="fill: #ff7bac;stroke: #000;stroke-miterlimit: 10;stroke-width: 3px"/>
      <rect x="70.3" y="594.81" width="36" height="25" style="fill: #ff7bac;stroke: #000;stroke-miterlimit: 10;stroke-width: 3px"/>
      <polygon points="99.3 619.81 73.3 619.81 69.3 867.81 67.3 908.4 61.3 1027.81 115.3 1027.81 106.3 908.81 106.3 870.49 99.3 619.81" style="fill: #ff7bac;stroke: #000;stroke-miterlimit: 10;stroke-width: 3px"/>
      <line x1="61.3" y1="870.81" x2="115.3" y2="870.81" style="fill: #ff7bac;stroke: #000;stroke-miterlimit: 10;stroke-width: 3px"/>
      <line x1="62.8" y1="799.81" x2="113.8" y2="799.81" style="fill: #ff7bac;stroke: #000;stroke-miterlimit: 10;stroke-width: 3px"/>
      <line x1="65.8" y1="788.81" x2="110.8" y2="788.81" style="fill: #ff7bac;stroke: #000;stroke-miterlimit: 10;stroke-width: 3px"/>
      <line x1="66.8" y1="772.81" x2="109.8" y2="772.81" style="fill: #ff7bac;stroke: #000;stroke-miterlimit: 10;stroke-width: 3px"/>
      <line x1="65.8" y1="757.81" x2="110.8" y2="757.81" style="fill: #ff7bac;stroke: #000;stroke-miterlimit: 10;stroke-width: 3px"/>
      <line x1="74.3" y1="500.11" x2="102.3" y2="500.11" style="fill: #ff7bac;stroke: #000;stroke-miterlimit: 10;stroke-width: 3px"/>
      <line x1="67.8" y1="478.07" x2="108.8" y2="478.07" style="fill: #ff7bac;stroke: #000;stroke-miterlimit: 10;stroke-width: 3px"/>
      <line x1="68.3" y1="466.32" x2="108.3" y2="466.32" style="fill: #ff7bac;stroke: #000;stroke-miterlimit: 10;stroke-width: 3px"/>
      <line x1="68.3" y1="453.69" x2="108.3" y2="453.69" style="fill: #ff7bac;stroke: #000;stroke-miterlimit: 10;stroke-width: 3px"/>
      <rect x="79.3" y="418.81" width="18" height="24" style="fill: #ff7bac;stroke: #000;stroke-miterlimit: 10;stroke-width: 3px"/>
      <line x1="88.3" y1="416.81" x2="88.3" y2="268.81" style="fill: #ff7bac;stroke: #000;stroke-miterlimit: 10;stroke-width: 2px"/>
      <line x1="82.8" y1="300.31" x2="93.8" y2="300.31" style="fill: #ff7bac;stroke: #000;stroke-miterlimit: 10;stroke-width: 2px"/>
      <line x1="82.3" y1="326.31" x2="94.3" y2="326.31" style="fill: #ff7bac;stroke: #000;stroke-miterlimit: 10;stroke-width: 2px"/>
      <line x1="82.3" y1="351.31" x2="94.3" y2="351.31" style="fill: #ff7bac;stroke: #000;stroke-miterlimit: 10;stroke-width: 2px"/>
      <line x1="81.8" y1="388.31" x2="94.8" y2="388.31" style="fill: #ff7bac;stroke: #000;stroke-miterlimit: 10;stroke-width: 2px"/>
    </g>
    <path d="M1427.41,333.12l8.27,2.23-5.5,1.48a8.52,8.52,0,0,0-6,6l-1.48,5.5-1.76-6.54a6.68,6.68,0,0,0-4.7-4.7l-6.54-1.76,6.48-1.75a6.76,6.76,0,0,0,4.78-4.77l1.74-6.48,2.23,8.27A3.55,3.55,0,0,0,1427.41,333.12Z" style="fill: none;stroke: #000;stroke-miterlimit: 10;stroke-width: 2px"/>
  </g>  <g id="faceBody">
    <g>
      <path d="M692.5,673.45l-58-25s-49-20-57-45c-3.85-12.05-7.48-38.26-10.2-62.18-.53-4.71-13.34,12.58-13.8,8.18-.22-2.14,11.87-26.13,11.67-28.15-.26-2.6-17.44,19.5-17.67,17.15S564,509.13,563.79,507c-.38-4.08-18.07,5.92-18.29,3.43-.25-2.94,17-18,17-18s24-160,32-171,5-32,18-36,18,8,25,28,10,45,10,45l7,37,3,52,10,3,43-12,50,4,47,8,17-52,28-65s16-36,23-33,15,26,15,26l9,52v27l10,50V501s22,29.41,14,25.41c-3.48-1.75-14-6-14-6v.85s19,28.15,9,20.15c-2.61-2.1-9.73-9.21-9.73-9.21l-.68,4.48s13.41,28.73,8.41,25.73c-2.9-1.75-11.14-7.7-11.14-7.7l-5.86,38.7s-53,59-84,67-45,20-45,25,9,20,9,20l8,35,68-7,56-15,24-116,20-58s14-10,22-8-2,48-15,73c-10.24,19.69-18,80-18,80l-17,52-66,14-63,14,53,283,23,105s-107,2-194-4c-8.23-.57-44-41-39-51s26-357,31-362,22-50,22-50Z" style="fill: #fff;stroke: #000;stroke-miterlimit: 10;stroke-width: 3px"/>
      <path d="M603,329.45s10-28,18-22,28,87,28,87v69s-32-6-46,0l-28.16,12.07Z" style="fill: #f50"/>
      <path d="M827.24,455.28c-1-3,27.46-92.87,27.46-92.87s18.39-55.55,23.28-44.7,14.52,57.55,14.52,57.55-3,33.32-.06,39.34,3.65,72-.36,75S827.24,455.28,827.24,455.28Z" style="fill: #f50"/>
      <path d="M765,1154.68s-4.5-20.23,7.5-22.23,26,0,26,0,13-4,16-1,7,2,12-1-37-237-37-237" style="fill: none;stroke: #000;stroke-miterlimit: 10;stroke-width: 3px"/>
      <path d="M640.56,1131.41s-29.09,18.86-17.12,23.91,23,.11,25-.88,12-.94,12,.06,16.5-.63,16.5-.63S655.61,1119.48,640.56,1131.41Z" style="fill: #fff;stroke: #000;stroke-miterlimit: 10;stroke-width: 3px"/>
      <path d="M868.31,1125s19,5.91,46.19,7.42c36,2,149-15.3,144-9-8,10-29,11-85,21s-103.79-13.39-103.79-13.39Z" style="fill: #fff;stroke: #000;stroke-miterlimit: 10;stroke-width: 3px"/>
      <path d="M672.5,753.45s-21,7-24,11-6,21-6,21-7,33-8,35-16,110-18,113-13,32-15,38-12,20-14,26-32,77-32,77,0,12,7,10,70-137,70-152,10-52,10-55,7-72,7-72l19-13" style="fill: #fff;stroke: #000;stroke-miterlimit: 10;stroke-width: 3px"/>
    </g>
  </g>  <g id="bell">
    <path d="M690,713s27,14,46,13,46-18,46-18" style="fill: none;stroke: #ff4200;stroke-miterlimit: 10;stroke-width: 6px"/>
    <g>
      <path d="M715.39,749.29c.87-14,27.63-32,27.63-32s7.16,8.68,9,12.16,1.81,3.49,3.83,21S746,798,746,798s-6.84,12.41-6.76,17.68,16.38,36.64,16.38,36.64l-14.06.22c-7,.11-19.29,2.05-19.29,2.05s12.67-32.7,12.59-38S722,781.69,722,781.69,714.69,760.72,715.39,749.29Z" style="stroke: #000;stroke-miterlimit: 10;stroke-width: 3px"/>
      <path d="M723.73,851.94c2.86-1,28.78-.44,28.78-.44s-33.41-76.28-35-92.54c-2.33-23.72,25.56-38.21,25.56-38.21s15.92,6.79,8.23,52.09C748,792.34,723.73,851.94,723.73,851.94Z" style="fill: #00c600"/>
      <path d="M725.91,747.37s8.7-5.4,17.54-2" style="fill: none;stroke: #000;stroke-miterlimit: 10"/>
      <circle cx="734.5" cy="734.94" r="4.39" style="fill: none;stroke: #000;stroke-miterlimit: 10"/>
      <path d="M732,746.4s-3.43,5.32.11,7,3.49-1.81,3.49-1.81,3.56,3.46,3.51-.05a7.72,7.72,0,0,0-1.84-5.24" style="fill: none;stroke: #000;stroke-miterlimit: 10"/>
      <path d="M731.85,848.3s-.25-15.8,3.29-14.1,2,12.27,2,12.27,1.46-19.35,5.11-10.62,3.7,12.24,3.7,12.24" style="fill: none;stroke: #000;stroke-miterlimit: 10"/>
    </g>
  </g>  <g id="nose">
    <path d="M727.57,547.76c-3.83,1.15-15.25,5.5-9.25,10.5s8.17,3.59,10,8c1.66,4,3.69,18.6,3.34,21.75a.9.9,0,0,1-.86.78l-8.47.35a.88.88,0,0,0-.31,1.7c4.12,1.69,10.68,4.16,14.3,4.42,3.95.29,12-2,16.9-3.62a.88.88,0,0,0-.2-1.72l-13.76-1.1a.87.87,0,0,1-.8-.74c-.51-3.44.13-17.25,2.86-21.82,2.24-3.75,10.25-8.5,12.25-10.5S747.57,541.76,727.57,547.76Z"/>
  </g>  <g id="eyes">
    <path d="M908.86,539.69s6.78,19.75-13.09,23.52-41.07,10.48-60.07,10.48c-12.37,0-55.86-29-55.86-29s37.12-26.46,73.29-22.86S907.63,533.73,908.86,539.69Z" style="fill: #03a3db;stroke: #000;stroke-miterlimit: 10"/>
    <path d="M821.49,535.35s-9,23.73,5.54,28.4S849,543.5,849,543.5s9.64-23.58-8.32-22.47S821.49,535.35,821.49,535.35Z"/>
    <path d="M571,534.69s-6.77,19.75,13.1,23.52,41.06,10.48,60.06,10.48c12.37,0,55.87-29,55.87-29s-37.12-26.46-73.29-22.86S572.18,528.73,571,534.69Z" style="fill: #03a3db;stroke: #000;stroke-miterlimit: 10"/>
    <path d="M659.17,532.31s5.45,24.79-9.62,27.29-18.76-23.23-18.76-23.23-6.09-24.74,11.51-21S659.17,532.31,659.17,532.31Z"/>
  </g>  <g id="luckyItem">
    <g>
      <rect x="421.75" y="1030.59" width="197.19" height="9.15" style="fill: #c6c6c6"/>
      <rect x="427.57" y="1010.62" width="17.82" height="48.67" rx="8.91" style="fill: #ffce00;stroke: #000;stroke-miterlimit: 10;stroke-width: 3px"/>
      <rect x="450.2" y="1010.62" width="17.82" height="48.67" rx="8.91" style="fill: #ffce00;stroke: #000;stroke-miterlimit: 10;stroke-width: 3px"/>
      <rect x="472.82" y="1010.62" width="17.82" height="48.67" rx="8.91" style="fill: #ffce00;stroke: #000;stroke-miterlimit: 10;stroke-width: 3px"/>
      <rect x="495.44" y="1010.62" width="17.82" height="48.67" rx="8.91" style="fill: #ffce00;stroke: #000;stroke-miterlimit: 10;stroke-width: 3px"/>
      <rect x="595.99" y="1010.62" width="17.82" height="48.67" rx="8.91" style="fill: #ffce00;stroke: #000;stroke-miterlimit: 10;stroke-width: 3px"/>
      <rect x="421.75" y="974.01" width="197.19" height="9.15" style="fill: #c6c6c6"/>
      <rect x="427.57" y="954.05" width="17.82" height="48.67" rx="8.91" style="fill: #ffce00;stroke: #000;stroke-miterlimit: 10;stroke-width: 3px"/>
      <rect x="450.2" y="954.05" width="17.82" height="48.67" rx="8.91" style="fill: #ffce00;stroke: #000;stroke-miterlimit: 10;stroke-width: 3px"/>
      <rect x="472.82" y="954.05" width="17.82" height="48.67" rx="8.91" style="fill: #ffce00;stroke: #000;stroke-miterlimit: 10;stroke-width: 3px"/>
      <rect x="531.22" y="954.05" width="17.82" height="48.67" rx="8.91" style="fill: #ffce00;stroke: #000;stroke-miterlimit: 10;stroke-width: 3px"/>
      <rect x="571.03" y="954.05" width="17.82" height="48.67" rx="8.91" style="fill: #ffce00;stroke: #000;stroke-miterlimit: 10;stroke-width: 3px"/>
      <rect x="421.75" y="917.44" width="197.19" height="9.15" style="fill: #c6c6c6"/>
      <rect x="427.57" y="897.47" width="17.82" height="48.67" rx="8.91" style="fill: #ffce00;stroke: #000;stroke-miterlimit: 10;stroke-width: 3px"/>
      <rect x="450.2" y="897.47" width="17.82" height="48.67" rx="8.91" style="fill: #ffce00;stroke: #000;stroke-miterlimit: 10;stroke-width: 3px"/>
      <rect x="472.82" y="897.47" width="17.82" height="48.67" rx="8.91" style="fill: #ffce00;stroke: #000;stroke-miterlimit: 10;stroke-width: 3px"/>
      <rect x="495.44" y="897.47" width="17.82" height="48.67" rx="8.91" style="fill: #ffce00;stroke: #000;stroke-miterlimit: 10;stroke-width: 3px"/>
      <rect x="570.2" y="897.47" width="17.82" height="48.67" rx="8.91" style="fill: #ffce00;stroke: #000;stroke-miterlimit: 10;stroke-width: 3px"/>
      <rect x="421.75" y="860.86" width="197.19" height="9.15" style="fill: #c6c6c6"/>
      <rect x="427.57" y="840.89" width="17.82" height="48.67" rx="8.91" style="fill: #ffce00;stroke: #000;stroke-miterlimit: 10;stroke-width: 3px"/>
      <rect x="450.2" y="840.89" width="17.82" height="48.67" rx="8.91" style="fill: #ffce00;stroke: #000;stroke-miterlimit: 10;stroke-width: 3px"/>
      <rect x="506.93" y="840.89" width="17.82" height="48.67" rx="8.91" style="fill: #ffce00;stroke: #000;stroke-miterlimit: 10;stroke-width: 3px"/>
      <rect x="531.22" y="840.89" width="17.82" height="48.67" rx="8.91" style="fill: #ffce00;stroke: #000;stroke-miterlimit: 10;stroke-width: 3px"/>
      <rect x="595.99" y="840.89" width="17.82" height="48.67" rx="8.91" style="fill: #ffce00;stroke: #000;stroke-miterlimit: 10;stroke-width: 3px"/>
      <rect x="421.75" y="804.28" width="197.19" height="9.15" style="fill: #c6c6c6"/>
      <rect x="427.57" y="784.31" width="17.82" height="48.67" rx="8.91" style="fill: #ffce00;stroke: #000;stroke-miterlimit: 10;stroke-width: 3px"/>
      <rect x="450.2" y="784.31" width="17.82" height="48.67" rx="8.91" style="fill: #ffce00;stroke: #000;stroke-miterlimit: 10;stroke-width: 3px"/>
      <rect x="472.82" y="784.31" width="17.82" height="48.67" rx="8.91" style="fill: #ffce00;stroke: #000;stroke-miterlimit: 10;stroke-width: 3px"/>
      <rect x="495.44" y="784.31" width="17.82" height="48.67" rx="8.91" style="fill: #ffce00;stroke: #000;stroke-miterlimit: 10;stroke-width: 3px"/>
      <rect x="595.99" y="784.31" width="17.82" height="48.67" rx="8.91" style="fill: #ffce00;stroke: #000;stroke-miterlimit: 10;stroke-width: 3px"/>
      <path d="M415.09,751.87v335.3h210.5V751.87Zm7.49,18.3H554.87V1068H422.58ZM618.94,1068H564.86V770.17h54.08Z" style="fill: #ffce00;stroke: #682203;stroke-miterlimit: 10;stroke-width: 3px"/>
    </g>
    <path d="M529.75,1091.82s-4,14.72,4.35,17.83,51.25-29.83,58.48-44.94-13.3-15.3-26.86-1.15S537.29,1077.92,529.75,1091.82Z" style="fill: #fff;stroke: #000;stroke-miterlimit: 10;stroke-width: 3px"/>
  </g><g id="luckyCaption">
  <path d="M577.41,1269.93c1.16-.64,2.25-1.35,3.35-2a2.4,2.4,0,0,1,1.15-.39,2,2,0,0,1,1.68,1.16,3.48,3.48,0,0,1,.32,1.29,2.32,2.32,0,0,1-1.09,1.86c-1.68,1-3.48,2.13-5.41,3.16v20.53c0,4.51-1.93,5.86-6.64,5.86a26.31,26.31,0,0,1-4.7-.45,2.07,2.07,0,0,1-1.86-2.25,3.13,3.13,0,0,1,.06-.71,1.88,1.88,0,0,1,1.93-1.67,2.61,2.61,0,0,1,.65.06,17.91,17.91,0,0,0,3.35.39c2.06,0,2.44-.32,2.44-2.25v-17.07c-2.06,1-4.12,1.94-6,2.71a3,3,0,0,1-1.22.26,2.1,2.1,0,0,1-2.06-1.68,3.51,3.51,0,0,1-.2-1.09,1.92,1.92,0,0,1,1.42-1.87c2.64-1,5.41-2.19,8.11-3.41v-13.13h-7.27c-1.16,0-1.81-1-1.81-2.26s.65-2.19,1.81-2.19h7.27V1244c0-1.29.84-1.93,2.38-1.93s2.39.64,2.39,1.93v10.81h6c1.15,0,1.8.91,1.8,2.19s-.65,2.26-1.8,2.26h-6Zm9-21.11c-1.23,0-1.87-1-1.87-2.26s.64-2.25,1.87-2.25H615c3.93,0,5.93,2,5.86,5.34a65.85,65.85,0,0,1-1.87,15c-1.28,4.32-3.41,5.28-7.85,5.28a37.29,37.29,0,0,1-6.51-.51,2.1,2.1,0,0,1-1.8-2.13,2.38,2.38,0,0,1,.07-.7,2,2,0,0,1,2-1.81,1.52,1.52,0,0,1,.52.07,27.5,27.5,0,0,0,5.15.51c2.51,0,3.35-.64,3.93-2.9a54.47,54.47,0,0,0,1.41-11.9c0-1.23-.51-1.74-2.06-1.74H602.13c-1,11.78-4.89,18.8-13,23.24a3.26,3.26,0,0,1-1.61.45,2.29,2.29,0,0,1-2-1.22,2.74,2.74,0,0,1-.39-1.36,2.1,2.1,0,0,1,1.29-1.93c7-3.86,10.05-8.82,10.82-19.18Zm27.81,25.56c3.87,0,5.54,1.48,5.54,5.27v15.13c0,3.8-1.67,5.28-5.54,5.28h-21.5c-3.87,0-5.54-1.48-5.54-5.28v-15.13c0-3.79,1.67-5.27,5.54-5.27Zm-1.35,21.11c1.35,0,2-.32,2-1.8v-12.94c0-1.48-.65-1.8-2-1.8H594c-1.35,0-2,.32-2,1.8v12.94c0,1.48.65,1.8,2,1.8Z"/>
  <path d="M668.33,1278.5a52.33,52.33,0,0,1-8.5-10.11,207.82,207.82,0,0,1-26.53,2.12c-1.74-.06-2.64-1-2.64-2.25v-.19a2.08,2.08,0,0,1,2.25-2.32,199,199,0,0,0,24.21-1.8,64.85,64.85,0,0,1-3.67-6.89,168.55,168.55,0,0,1-20.41,1.35,2.36,2.36,0,0,1-2.58-2.38,2.22,2.22,0,0,1,2.32-2.38,164.88,164.88,0,0,0,18.48-1.1c-.77-1.74-1.48-3.67-2.25-5.54a2.27,2.27,0,0,1-.26-1.09,2.16,2.16,0,0,1,1.8-2.06,7.07,7.07,0,0,1,1-.13,2.42,2.42,0,0,1,2.39,2c.7,2.12,1.54,4.25,2.32,6.24a125.06,125.06,0,0,0,16.48-3.41,3.18,3.18,0,0,1,1-.19,2,2,0,0,1,2.12,1.74,4.54,4.54,0,0,1,.13.9,2.1,2.1,0,0,1-1.67,2.12,156.85,156.85,0,0,1-16.1,3.41,55.63,55.63,0,0,0,3.61,6.76c5-.84,10-1.86,14.36-3a5.8,5.8,0,0,1,1-.13,2,2,0,0,1,2.25,1.67,4.8,4.8,0,0,1,.13.84c0,1.16-.71,1.8-2.06,2.25-3.67.9-7.92,1.8-12.88,2.64a77.16,77.16,0,0,0,9.59,11.52,3.41,3.41,0,0,1,1.29,2.58,2.9,2.9,0,0,1-2.7,2.9,7,7,0,0,1-3.09-1,36.38,36.38,0,0,0-16.36-3.54c-11.2,0-14.68,3.28-14.68,7.46,0,4.57,4.57,6.76,14.87,6.76a58.13,58.13,0,0,0,16.55-2.44,3.68,3.68,0,0,1,1.16-.2,2.26,2.26,0,0,1,2.32,1.87,4.53,4.53,0,0,1,.13,1,2.52,2.52,0,0,1-1.93,2.51,64.25,64.25,0,0,1-18.55,2.44c-13.2,0-20.09-4.31-20.09-11.71,0-7,6.12-12.11,20.09-12.11a32.87,32.87,0,0,1,14.75,3.29Z"/>
  <path d="M695.62,1258.35a66.27,66.27,0,0,1-6,4.5,2.16,2.16,0,0,1-3.15-.77,3.18,3.18,0,0,1-.39-1.48,2,2,0,0,1,1-1.8,51.91,51.91,0,0,0,6.76-4.9,38.78,38.78,0,0,0-4.64-6.82,2.37,2.37,0,0,1-.51-1.35,2,2,0,0,1,1-1.68,2.81,2.81,0,0,1,1.61-.58,1.93,1.93,0,0,1,1.55.78,44.12,44.12,0,0,1,4.44,6.43,45.15,45.15,0,0,0,5.8-7,2,2,0,0,1,1.73-1,2.56,2.56,0,0,1,1.55.58,2.12,2.12,0,0,1,1,1.74,2.41,2.41,0,0,1-.45,1.35,67.74,67.74,0,0,1-7.54,8.63c2.9,6.82,3.87,14.74,3.87,26.13,0,7.09-.84,12.17-1.8,15.07a6.36,6.36,0,0,1-6.44,4.76,16.14,16.14,0,0,1-5.93-.84,1.78,1.78,0,0,1-1.28-1.86,3.58,3.58,0,0,1,.19-1.1,1.94,1.94,0,0,1,1.87-1.54,1.85,1.85,0,0,1,.57.06,10.65,10.65,0,0,0,3.61.71c1.61,0,2.64-.77,3.28-3a52.06,52.06,0,0,0,1.23-12.36c0-2.26-.07-4.38-.13-6.31a45.83,45.83,0,0,1-8.56,8.37,2.29,2.29,0,0,1-1.42.57,2.33,2.33,0,0,1-1.87-1.09,2.6,2.6,0,0,1-.51-1.48,2.34,2.34,0,0,1,1-1.93,45.08,45.08,0,0,0,10.81-10.49A43,43,0,0,0,695.62,1258.35Zm24.54,1.73c0,1.23-.84,1.81-2.32,1.81s-2.32-.58-2.32-1.81v-5.34h-8.18c-1.15,0-1.8-.9-1.8-2.12s.65-2.26,1.8-2.26h8.18v-6c0-1.22,1-1.87,2.32-1.87s2.32.65,2.32,1.87v6h11v-6.11c0-1.16.9-1.81,2.25-1.81s2.39.65,2.39,1.81v6.11h8.75c1.23,0,1.81,1,1.81,2.26s-.58,2.12-1.81,2.12h-8.75V1260c0,1.22-.91,1.87-2.39,1.87s-2.25-.65-2.25-1.87v-5.28h-11Zm18.61,4c3.6,0,5.34,1.55,5.34,5V1295c0,3.34-1.74,4.89-5.34,4.89H713c-3.55,0-5.28-1.55-5.28-4.89V1269.1c0-3.48,1.73-5,5.28-5Zm-15.65,4.38H714.3c-1.22,0-1.87.39-1.87,1.61v8.76h10.69Zm0,14.55H712.43v10.75c0,1.23.65,1.61,1.87,1.61h8.82Zm16.23-12.94c0-1.22-.65-1.61-1.87-1.61h-9.66v10.37h11.53Zm-1.87,25.3c1.22,0,1.87-.38,1.87-1.61V1283H727.82v12.36Z"/>
  <path d="M778.17,1279.07c-2.25,6.64-4.12,9.53-6.37,11.66a10.54,10.54,0,0,1-7.41,2.83c-6.69,0-12-6.5-12-17.32,0-16,11.21-27.62,28.78-27.62,15.2,0,25.25,9.92,25.25,24.08,0,9.08-3.93,16-10.63,20.22a34.64,34.64,0,0,1-13.52,4.63,2.7,2.7,0,0,1-.71.07,2.49,2.49,0,0,1-2.7-2.26,2,2,0,0,1-.07-.64,2.5,2.5,0,0,1,2.32-2.51c4.7-.65,9.66-2.26,12.88-4.64,4.06-3,7-8.24,7-15,0-10.88-7.15-18.8-18.55-19.18C781.84,1263.17,780.43,1272.19,778.17,1279.07Zm-20.6-2.89c0,7.72,3.28,11.78,6.69,11.78a5.93,5.93,0,0,0,4.32-1.87c1.42-1.35,2.9-4.12,4.44-8.82a96.3,96.3,0,0,0,4.06-23.69C765.29,1254.68,757.57,1263.69,757.57,1276.18Z"/>
  <path d="M822.67,1284c0-3,.12-5.79.38-8.56a72.36,72.36,0,0,1-7.34,6.69,2.51,2.51,0,0,1-1.48.52,2.64,2.64,0,0,1-2.51-2.58,2.45,2.45,0,0,1,1-2c6.44-4.44,14.23-12.68,17.32-18.86a1.62,1.62,0,0,0,.26-.84c0-.45-.39-.71-1.16-.71h-14c-1.16,0-1.81-.9-1.81-2.19s.65-2.25,1.81-2.25h7.4v-9.14c0-1.16,1-1.8,2.45-1.8s2.51.64,2.51,1.8v9.14h4.18c2.52,0,4.13,1.42,4.13,3.6a7.35,7.35,0,0,1-.71,2.84,60.3,60.3,0,0,1-6.7,10,49.75,49.75,0,0,0,8.18,6.82,2.2,2.2,0,0,1,1.22,1.93,2.72,2.72,0,0,1-.51,1.48,2.16,2.16,0,0,1-3.16.58,54.5,54.5,0,0,1-7.08-6.63c.26,3.22.38,5.79.38,8.88v17.64c0,1.16-1,1.81-2.44,1.81s-2.38-.71-2.38-1.81Zm27.49-12.81c-.26,15-4.7,24.27-15.07,30.07a2.92,2.92,0,0,1-1.48.51,2.42,2.42,0,0,1-2.06-1.22,2.55,2.55,0,0,1-.45-1.48,2.29,2.29,0,0,1,1.16-1.94c9.21-5.15,12.94-12.23,13.2-25.94h-1.93c-3.86,0-5.54-1.48-5.54-5.09v-15.32c0-3.67,1.68-5.21,5.54-5.21h20.35c3.79,0,5.53,1.54,5.53,5.21v15.32c0,3.61-1.74,5.09-5.53,5.09h-3.55v23.37c0,1.48.52,1.74,3.61,1.74,2.7,0,3.61-.45,4.06-1.87a41.46,41.46,0,0,0,.71-7.15,1.84,1.84,0,0,1,2.06-1.86H871c1.42.06,2.19.71,2.19,1.93v.13c-.07,3.92-.52,7.66-1.55,10a4.56,4.56,0,0,1-1.86,2.12,12.69,12.69,0,0,1-6.06,1.16h-1.09c-5.86-.06-7-1.41-7-4.7v-24.91Zm12.49-4.44c1.23,0,1.93-.45,1.93-1.87V1252c0-1.48-.7-1.81-1.93-1.81h-17.9c-1.29,0-1.93.33-1.93,1.81v12.87c0,1.42.64,1.87,1.93,1.87Z"/>
  <path d="M894.91,1253.2c2.64,0,4.12,1.67,4.12,3.73a6.11,6.11,0,0,1-.51,2.32,54.07,54.07,0,0,1-7,10.68,34.58,34.58,0,0,0,5.41,4.57,2.39,2.39,0,0,1,1.16,2,2.22,2.22,0,0,1-.39,1.22,2.07,2.07,0,0,1-1.8,1.1,2.41,2.41,0,0,1-1.42-.52,39.3,39.3,0,0,1-4.25-3.92c.2,2.63.39,5.53.39,8.62v17.45c0,1.16-1,1.8-2.38,1.8s-2.45-.71-2.45-1.8V1284c0-2.51.13-5.35.39-8.18a50.9,50.9,0,0,1-6.38,5.73,2.73,2.73,0,0,1-1.67.58,2.44,2.44,0,0,1-1.93-1.09,2.9,2.9,0,0,1-.52-1.55,2.06,2.06,0,0,1,1-1.8c7.08-4.83,13.91-12.49,16.74-18.54a1.71,1.71,0,0,0,.2-.71c0-.45-.33-.77-1-.77H879.39c-1.16,0-1.8-.9-1.8-2.26s.64-2.18,1.8-2.18h6.5v-9.15c0-1.16,1-1.8,2.39-1.8s2.44.64,2.44,1.8v9.15Zm5.67-4.38c-1.16,0-1.74-1-1.74-2.19s.58-2.13,1.74-2.13h34c1.15,0,1.73.91,1.73,2.13s-.58,2.19-1.73,2.19Zm29.1,24.27c3.8,0,5.47,1.41,5.47,5v17.26c0,3.6-1.67,5.08-5.47,5.08H904.89c-3.8,0-5.41-1.48-5.41-5.08V1278c0-3.54,1.61-5,5.41-5Zm-22.34-4.25c-3.48,0-5.09-1.35-5.09-4.64v-6.11c0-3.35,1.61-4.7,5.15-4.7H927c3.67,0,5.28,1.35,5.28,4.7v6.11c0,3.29-1.61,4.64-5.28,4.64Zm7.47,8.24h-8.89c-1.22,0-1.87.32-1.87,1.67v5.67h10.76Zm0,11.2H904.05v6.25c0,1.41.65,1.73,1.87,1.73h8.89Zm-6.12-30.84c-1.22,0-1.8.39-1.8,1.48v4.45c0,1.09.58,1.41,1.73,1.41h17.07c1.29,0,1.87-.32,1.87-1.41v-4.45c0-1.09-.58-1.48-1.87-1.48Zm21.83,21.31c0-1.35-.58-1.67-1.8-1.67h-9.53v7.34h11.33Zm-1.8,17.51c1.22,0,1.8-.32,1.8-1.73v-6.25H919.19v8Z"/>
</g>  <g id="weather">
    <g>
      <g>
        <path d="M1371.88,270.83h-6.53V266a1.79,1.79,0,1,0-3.57,0v4.87h-8.5l9.07-10.53-14.5-1.68,6.22-6.22,3.26,3.25a1.78,1.78,0,0,0,2.52-2.52l-3.25-3.26,4.62-4.62a1.79,1.79,0,0,0-2.53-2.52l-4.62,4.62-3.44-3.45a1.79,1.79,0,0,0-2.53,2.53l3.45,3.44-6.63,6.63-.89-13.81-10.46,8.05v-8.26h4.61a1.79,1.79,0,0,0,0-3.57h-4.61v-6.53a1.79,1.79,0,1,0-3.57,0v6.53h-4.87a1.79,1.79,0,0,0,0,3.57H1330v8.21l-10.15-8.92-1.91,14.68-6.36-6.36,3.51-3.5a1.79,1.79,0,1,0-2.52-2.53l-3.51,3.51-4.72-4.72a1.79,1.79,0,0,0-2.52,2.53l4.72,4.71-3.2,3.2a1.79,1.79,0,0,0,2.53,2.52l3.19-3.19,6.42,6.42-13.8,1.58,8.24,10.21h-8.26v-5a1.79,1.79,0,1,0-3.57,0v5h-6.66a1.79,1.79,0,1,0,0,3.57h6.66v4.52a1.79,1.79,0,0,0,3.57,0V274.4h8.87l-8,10,13.06,1.4-6.6,6.59-3.51-3.51a1.79,1.79,0,0,0-2.52,2.53l3.51,3.51-4.72,4.71a1.79,1.79,0,0,0,1.26,3.05,1.8,1.8,0,0,0,1.27-.53l4.71-4.71,3.19,3.19a1.77,1.77,0,0,0,2.53,0,1.77,1.77,0,0,0,0-2.52l-3.2-3.19,5-5,.39,14.68L1330,293.66v8.94h-5a1.79,1.79,0,0,0,0,3.57h5v6.67a1.79,1.79,0,0,0,3.57,0v-6.67h4.52a1.79,1.79,0,1,0,0-3.57h-4.52v-8.22l10.9,10.34,1.36-15.33,5.74,5.74-3.26,3.25a1.8,1.8,0,0,0,0,2.53,1.8,1.8,0,0,0,2.53,0l3.25-3.26,4.62,4.62a1.79,1.79,0,0,0,2.53-2.52l-4.62-4.62,3.44-3.45a1.78,1.78,0,0,0-2.52-2.52l-3.45,3.44-5.81-5.81,12.7-.94-9.07-11.45h9.87V279a1.79,1.79,0,1,0,3.57,0v-4.6h6.53a1.79,1.79,0,1,0,0-3.57Zm-52.1,6.53-2.39-3H1327l-7.13,7.13Zm22.3-9.61,2.44,3.08h-8.88l6.23-6.23Zm-8.51.1v-9.28l2.62,2.3,3.91.45Zm-3.57.66-6.76-6.76,2.2-.25L1330,258Zm-9.46-4.41,6.73,6.73h-9.34l2.08-2.62Zm9.46,12.37v9.6l-2.78-2.64-3.78-.4Zm3.57.66,6.68,6.67-4.43.33-2.25,1.89Zm9.38,4.33-7.06-7.06h9.6l-2.14,2.48Zm5.88-10.94-3.26-4.12-.29-4.48,10,1.16Zm-7.39-12.64-3.73-.43-3.28-2.87,6.47-5Zm-12.62-3.48-4.77,3.66-2.76.32,1.24-9.51Zm-11.66,8-.57,4.33-2.66,3.34-5.39-6.68Zm-3.2,13.39,2.29,2.83.09,3.61-6.92-.74Zm6.06,10.62.18-.18,5.44.58,3.25,3.09-8.59,7.19Zm14.23,3.65,3-2.49,5.2-.39-.87,9.82Zm12.11-6.75.45-5,1.91-2.22,5.28,6.66Z" style="fill: #29abe2"/>
        <path d="M1371.9,268.6h-6.53v-4.88a1.79,1.79,0,0,0-3.57,0v4.88h-8.5l9.07-10.53-14.5-1.68,6.22-6.23,3.26,3.26a1.79,1.79,0,0,0,2.52,0,1.79,1.79,0,0,0,0-2.53l-3.25-3.25,4.62-4.62a1.79,1.79,0,0,0-2.53-2.53l-4.62,4.62-3.44-3.44a1.79,1.79,0,0,0-2.53,2.52l3.45,3.45-6.63,6.62-.89-13.8-10.46,8v-8.25h4.61a1.79,1.79,0,0,0,0-3.57h-4.61v-6.53a1.79,1.79,0,1,0-3.57,0v6.53h-4.87a1.79,1.79,0,0,0,0,3.57H1330v8.2l-10.15-8.91L1318,254.21l-6.36-6.35,3.51-3.51a1.79,1.79,0,0,0-2.53-2.52l-3.5,3.5-4.72-4.71a1.78,1.78,0,0,0-2.52,2.52l4.71,4.72-3.19,3.19a1.79,1.79,0,0,0,2.53,2.53l3.19-3.2,6.42,6.43-13.8,1.57,8.24,10.22h-8.26v-5a1.79,1.79,0,1,0-3.57,0v5h-6.67a1.79,1.79,0,0,0,0,3.57h6.67v4.51a1.79,1.79,0,1,0,3.57,0v-4.51h8.87l-8,10,13.05,1.39-6.59,6.6-3.51-3.51a1.79,1.79,0,1,0-2.52,2.53l3.5,3.5-4.71,4.72a1.78,1.78,0,0,0,1.26,3,1.75,1.75,0,0,0,1.26-.52l4.72-4.71,3.19,3.19a1.8,1.8,0,0,0,2.53,0,1.8,1.8,0,0,0,0-2.53l-3.2-3.19,5-5,.39,14.69L1330,291.43v8.94h-5a1.79,1.79,0,0,0,0,3.57h5v6.66a1.79,1.79,0,1,0,3.57,0v-6.66h4.52a1.79,1.79,0,0,0,0-3.57h-4.52v-8.22l10.9,10.34,1.36-15.34,5.74,5.74-3.26,3.26a1.79,1.79,0,0,0,2.53,2.52l3.25-3.25,4.62,4.62a1.8,1.8,0,0,0,2.53,0,1.8,1.8,0,0,0,0-2.53l-4.62-4.62,3.44-3.44a1.79,1.79,0,0,0-2.52-2.53l-3.45,3.45-5.81-5.82,12.7-.94-9.07-11.44h9.87v4.6a1.79,1.79,0,0,0,3.57,0v-4.6h6.53a1.79,1.79,0,1,0,0-3.57Zm-52.1,6.53-2.39-3H1327l-7.13,7.12Zm22.3-9.62,2.44,3.09h-8.88l6.23-6.24Zm-8.51.1v-9.27l2.62,2.29,3.91.46Zm-3.57.67-6.76-6.76,2.2-.26,4.56-3.51Zm-9.46-4.41,6.73,6.73H1318L1320,266Zm9.46,12.36v9.61l-2.78-2.64-3.78-.4Zm3.57.67,6.67,6.67-4.42.33-2.25,1.88Zm9.38,4.32-7.06-7.05h9.6l-2.14,2.47Zm5.88-10.93-3.26-4.12-.29-4.48,10,1.15Zm-7.39-12.64-3.74-.43-3.27-2.88,6.47-5Zm-12.63-3.49-4.76,3.67-2.76.31,1.23-9.5Zm-11.65,8-.57,4.32-2.66,3.35-5.39-6.68ZM1314,273.59l2.3,2.84.09,3.61-6.92-.74Zm6.07,10.62.18-.17,5.44.58,3.25,3.08-8.59,7.2Zm14.23,3.66,3-2.5,5.21-.38-.87,9.82Zm12.11-6.75.45-5,1.9-2.21,5.28,6.66Z" style="fill: #fff;stroke: #29abe2;stroke-miterlimit: 10"/>
      </g>
      <path d="M1213.89,260.6s-17.57,20.85-34.69,15.71S1153,249.73,1153,249.73s-33.58,7.17-42.63-14.27-1-37.75,8.51-42.29,27-2.25,27-2.25a22.61,22.61,0,0,1,17.2-18c15.33-3.78,22.17,2.91,22.17,2.91s9.23-16.15,26.73-13.86,24.76,14.82,24.76,14.82,15.33-3.78,28.8,6.67,6.14,21.06,6.14,21.06,15.33-3.78,19.67,8.36-8.82,22-8.82,22,4.35,12.14-2.61,19.91-21.53,5.86-21.53,5.86-.32,9.56-14.78,14.44S1213.89,260.6,1213.89,260.6Z" style="fill: #004070"/>
      <path d="M1333.51,250.81s-17.56,20.84-34.69,15.7-26.18-26.58-26.18-26.58-33.58,7.18-42.64-14.27-1-37.74,8.51-42.28,27-2.25,27-2.25a22.59,22.59,0,0,1,17.19-18c15.33-3.77,22.17,2.91,22.17,2.91s9.24-16.15,26.74-13.86S1356.37,167,1356.37,167s15.33-3.78,28.79,6.67,6.14,21.06,6.14,21.06,15.33-3.78,19.67,8.37-8.81,22-8.81,22,4.34,12.14-2.61,19.91-21.54,5.86-21.54,5.86-.32,9.56-14.78,14.44S1333.51,250.81,1333.51,250.81Z" style="fill: #004070"/>
      <path d="M1329.57,242.09s-17.57,20.85-34.7,15.71-26.18-26.58-26.18-26.58-33.58,7.17-42.64-14.27-1-37.75,8.51-42.29,27-2.25,27-2.25a22.59,22.59,0,0,1,17.19-18c15.33-3.78,22.17,2.9,22.17,2.9s9.24-16.15,26.74-13.85,24.76,14.82,24.76,14.82,15.33-3.78,28.79,6.66,6.15,21.06,6.15,21.06,15.33-3.77,19.67,8.37-8.82,22-8.82,22,4.34,12.15-2.61,19.92-21.53,5.85-21.53,5.85-.33,9.57-14.78,14.44S1329.57,242.09,1329.57,242.09Z" style="fill: #75d6e9"/>
      <path d="M1209.94,251.89s-17.56,20.84-34.69,15.7S1149.06,241,1149.06,241s-33.57,7.18-42.63-14.26-1-37.75,8.51-42.29,27-2.25,27-2.25a22.59,22.59,0,0,1,17.19-18c15.33-3.77,22.17,2.91,22.17,2.91s9.24-16.15,26.74-13.86,24.76,14.82,24.76,14.82,15.33-3.78,28.79,6.67,6.14,21.06,6.14,21.06,15.33-3.78,19.67,8.37-8.81,22-8.81,22,4.34,12.14-2.61,19.91-21.54,5.86-21.54,5.86-.32,9.56-14.78,14.44S1209.94,251.89,1209.94,251.89Z" style="fill: #76d7ee"/>
      <path d="M1168.74,214.06s-9.42,9.42-25.12,6.28-22-22-18.85-34.55,9.43-15.7,15.71-18.84,15.35,0,15.35,0,6.63-31.41,34.9-31.41S1231.56,167,1231.56,167s25.12-3.14,31.4,12.56,3.14,34.55-15.7,37.69-25.13-6.28-25.13-6.28-5.71,10.7-23.27,10.06A80.31,80.31,0,0,1,1168.74,214.06Z" style="fill: #004070"/>
      <path d="M1167.76,202.84s-9.42,9.42-25.12,6.28-22-22-18.84-34.55,9.42-15.7,15.7-18.84,15.36,0,15.36,0,6.62-31.41,34.89-31.41,40.83,31.41,40.83,31.41,25.12-3.14,31.4,12.56,3.14,34.55-15.7,37.69-25.12-6.28-25.12-6.28-5.72,10.7-23.27,10.06A80.33,80.33,0,0,1,1167.76,202.84Z" style="fill: #88e2f6;stroke: #29abe2;stroke-miterlimit: 10"/>
      <path d="M1321.88,219.18s-9.38,9.38-25,6.25S1275,203.54,1278.1,191s9.38-15.63,15.64-18.76,15.28,0,15.28,0,6.6-31.27,34.74-31.27,40.65,31.27,40.65,31.27,25-3.13,31.26,12.5,3.13,34.4-15.63,37.52-25-6.25-25-6.25-5.69,10.66-23.17,10A79.9,79.9,0,0,1,1321.88,219.18Z" style="fill: #004070"/>
      <path d="M1320,213.6s-9.38,9.38-25,6.25-21.89-21.89-18.76-34.39,9.38-15.64,15.63-18.76,15.29,0,15.29,0,6.6-31.27,34.74-31.27,40.64,31.27,40.64,31.27,25-3.13,31.27,12.5,3.12,34.4-15.64,37.52-25-6.25-25-6.25-5.68,10.66-23.16,10A80,80,0,0,1,1320,213.6Z" style="fill: #89d7ec;stroke: #29abe2;stroke-miterlimit: 10"/>
      <path d="M1282.06,183s19.47,22.17,37.49,16.05,26.83-29.74,26.83-29.74,36,6.79,44.79-16.83-.39-41.14-10.66-45.8-28.79-1.63-28.79-1.63-2.53-15.44-19-19.09-23.46,3.84-23.46,3.84-10.44-17.31-29-14.28-25.76,16.89-25.76,16.89-16.45-3.65-30.37,8.14-5.73,23.12-5.73,23.12-16.44-3.65-20.59,9.71,10.21,23.69,10.21,23.69-4.15,13.35,3.53,21.6,23.13,5.73,23.13,5.73.7,10.4,16.26,15.28S1282.06,183,1282.06,183Z" style="fill: #004070"/>
      <path d="M1276.25,175s19.47,22.17,37.49,16.05,26.83-29.74,26.83-29.74,36,6.79,44.78-16.83-.39-41.14-10.66-45.8-28.79-1.63-28.79-1.63-2.52-15.44-19-19.08-23.46,3.83-23.46,3.83-10.43-17.31-29-14.28-25.76,16.89-25.76,16.89-16.44-3.65-30.36,8.14-5.73,23.12-5.73,23.12-16.44-3.65-20.6,9.71,10.22,23.69,10.22,23.69-4.16,13.35,3.53,21.6,23.12,5.73,23.12,5.73.71,10.41,16.27,15.28S1276.25,175,1276.25,175Z" style="fill: #b4ebf9;stroke: #29abe2;stroke-miterlimit: 10"/>
      <g>
        <path d="M1254.61,252.77h-6.54v-4.88a1.79,1.79,0,0,0-3.57,0v4.88H1236l9.08-10.53-14.51-1.68,6.23-6.23,3.25,3.26a1.8,1.8,0,0,0,2.53,0,1.8,1.8,0,0,0,0-2.53l-3.26-3.25,4.62-4.62a1.79,1.79,0,0,0-2.52-2.53l-4.62,4.62-3.45-3.44a1.78,1.78,0,0,0-2.52,2.52l3.44,3.45-6.62,6.62-.9-13.8-10.45,8v-8.25h4.6a1.79,1.79,0,1,0,0-3.57h-4.6v-6.53a1.79,1.79,0,1,0-3.57,0v6.53h-4.87a1.79,1.79,0,1,0,0,3.57h4.87v8.2l-10.16-8.91-1.91,14.67-6.35-6.35,3.5-3.51a1.78,1.78,0,1,0-2.52-2.52l-3.51,3.5-4.71-4.71a1.79,1.79,0,1,0-2.53,2.52l4.72,4.72-3.19,3.19a1.79,1.79,0,0,0,0,2.53,1.75,1.75,0,0,0,1.26.52,1.78,1.78,0,0,0,1.26-.52l3.19-3.2,6.43,6.43-13.8,1.57,8.24,10.22h-8.26v-5a1.79,1.79,0,1,0-3.57,0v5h-6.67a1.79,1.79,0,1,0,0,3.57h6.67v4.51a1.79,1.79,0,1,0,3.57,0v-4.51h8.86l-7.94,10,13,1.39-6.6,6.6-3.5-3.51a1.79,1.79,0,1,0-2.53,2.52l3.51,3.51-4.71,4.72a1.77,1.77,0,0,0,0,2.52,1.75,1.75,0,0,0,1.26.52,1.78,1.78,0,0,0,1.26-.52l4.71-4.71,3.2,3.19a1.79,1.79,0,0,0,2.52,0,1.79,1.79,0,0,0,0-2.53l-3.19-3.19,5-5,.38,14.69,13.08-10.95v8.94h-5a1.79,1.79,0,1,0,0,3.57h5v6.66a1.79,1.79,0,1,0,3.57,0v-6.66h4.51a1.79,1.79,0,1,0,0-3.57h-4.51v-8.22l10.9,10.34,1.35-15.34,5.74,5.74-3.25,3.26a1.78,1.78,0,0,0,2.52,2.52l3.26-3.25,4.62,4.62a1.79,1.79,0,0,0,2.52,0,1.79,1.79,0,0,0,0-2.53l-4.62-4.62,3.45-3.44a1.79,1.79,0,1,0-2.53-2.53l-3.44,3.45-5.82-5.82,12.7-.94-9.07-11.44h9.87v4.6a1.79,1.79,0,0,0,3.57,0v-4.6h6.54a1.79,1.79,0,0,0,0-3.57Zm-52.1,6.53-2.39-3h9.63l-7.13,7.12Zm22.29-9.62,2.45,3.09h-8.88l6.23-6.24Zm-8.5.1v-9.27l2.61,2.29,3.91.46Zm-3.57.67-6.77-6.77,2.21-.25,4.56-3.51Zm-9.46-4.41,6.73,6.73h-9.35l2.08-2.62Zm9.46,12.36V268l-2.78-2.64-3.78-.41Zm3.57.67,6.67,6.67-4.42.33L1216.3,268Zm9.37,4.32-7.06-7.05h9.6l-2.13,2.47Zm5.89-10.94-3.27-4.11-.29-4.48,10,1.15Zm-7.4-12.63-3.73-.44-3.27-2.87,6.46-5Zm-12.62-3.49-4.76,3.67-2.77.31,1.24-9.5Zm-11.66,8-.56,4.32-2.66,3.35-5.4-6.69Zm-3.2,13.38,2.29,2.84.1,3.61-6.93-.74Zm6.07,10.62.17-.17,5.45.58,3.25,3.08-8.59,7.2ZM1217,272l3-2.5,5.2-.38-.87,9.82Zm12.11-6.75.44-5,1.91-2.21,5.28,6.66Z" style="fill: #29abe2"/>
        <path d="M1254.63,250.53h-6.54v-4.87a1.79,1.79,0,1,0-3.57,0v4.87H1236l9.07-10.52-14.5-1.68,6.23-6.23,3.25,3.25a1.79,1.79,0,1,0,2.53-2.52l-3.26-3.26L1244,225a1.78,1.78,0,0,0-2.52-2.52l-4.62,4.62-3.45-3.45a1.79,1.79,0,0,0-2.52,2.53l3.44,3.44-6.62,6.63-.9-13.81-10.45,8.05v-8.25h4.6a1.79,1.79,0,1,0,0-3.57h-4.6v-6.54a1.79,1.79,0,0,0-3.57,0v6.54h-4.88a1.79,1.79,0,0,0,0,3.57h4.88v8.2l-10.16-8.91-1.91,14.67-6.35-6.35,3.5-3.51a1.79,1.79,0,1,0-2.52-2.53l-3.51,3.51-4.71-4.71a1.79,1.79,0,1,0-2.53,2.52l4.72,4.72-3.2,3.19a1.79,1.79,0,1,0,2.53,2.52l3.19-3.19,6.43,6.42-13.8,1.58,8.24,10.21h-8.26v-5a1.79,1.79,0,0,0-3.57,0v5h-6.67a1.79,1.79,0,1,0,0,3.57h6.67v4.52a1.79,1.79,0,0,0,3.57,0V254.1h8.86l-7.94,10,13.05,1.4-6.6,6.59-3.5-3.5a1.79,1.79,0,1,0-2.53,2.52l3.51,3.51-4.72,4.71a1.8,1.8,0,0,0,0,2.53,1.8,1.8,0,0,0,2.53,0l4.71-4.72,3.2,3.2a1.79,1.79,0,0,0,2.52,0,1.79,1.79,0,0,0,0-2.53l-3.19-3.19,5-5,.39,14.69,13.08-11v8.94h-5a1.79,1.79,0,1,0,0,3.57h5v6.67a1.79,1.79,0,1,0,3.57,0v-6.67h4.51a1.79,1.79,0,1,0,0-3.57h-4.51v-8.22l10.9,10.34,1.35-15.33,5.74,5.74-3.25,3.25a1.79,1.79,0,0,0,0,2.53,1.75,1.75,0,0,0,1.26.52,1.78,1.78,0,0,0,1.26-.52l3.26-3.26,4.62,4.62a1.76,1.76,0,0,0,1.26.53,1.79,1.79,0,0,0,1.26-3.05l-4.62-4.62,3.44-3.45a1.78,1.78,0,0,0-2.52-2.52l-3.44,3.44-5.82-5.81,12.7-.94-9.07-11.45h9.87v4.6a1.79,1.79,0,1,0,3.57,0v-4.6h6.54a1.79,1.79,0,0,0,0-3.57Zm-52.1,6.54-2.39-3h9.62l-7.12,7.13Zm22.29-9.62,2.44,3.08h-8.88l6.24-6.23Zm-8.5.1v-9.27l2.61,2.29,3.91.45Zm-3.57.66-6.77-6.76,2.21-.25,4.56-3.51Zm-9.47-4.41,6.73,6.73h-9.34l2.08-2.62Zm9.47,12.37v9.6l-2.78-2.63-3.79-.41Zm3.57.66,6.67,6.68-4.42.32-2.25,1.89Zm9.37,4.33-7.06-7.06h9.6l-2.14,2.48Zm5.88-10.94-3.26-4.12-.29-4.48,10,1.16Zm-7.39-12.64-3.73-.43-3.27-2.87,6.46-5Zm-12.62-3.48-4.76,3.66-2.77.32,1.24-9.5Zm-11.66,8.05-.56,4.32-2.66,3.35-5.4-6.69Zm-3.2,13.38,2.29,2.84.09,3.6-6.92-.74Zm6.07,10.62.17-.17,5.45.58,3.24,3.08-8.58,7.19Zm14.23,3.66,3-2.5,5.2-.39-.87,9.83Zm12.11-6.76.44-5,1.91-2.22,5.28,6.67Z" style="fill: #fff;stroke: #29abe2;stroke-miterlimit: 10"/>
      </g>
      <path d="M1201.17,220.32a24,24,0,0,1-22.06,6c-13.79-3-19.3-20.91-16.54-32.85s8.27-14.93,13.78-17.92,13.49,0,13.49,0,5.82-29.87,30.64-29.87,35.84,29.87,35.84,29.87,22.06-3,27.58,11.94,2.76,32.86-13.79,35.84-22.06-6-22.06-6-5,10.18-20.43,9.57A66.25,66.25,0,0,1,1201.17,220.32Z" style="fill: #004070"/>
      <path d="M1197.62,212.16s-8.27,8.27-22.06,5.52-19.3-19.31-16.54-30.34,8.27-13.79,13.78-16.54,13.49,0,13.49,0,5.82-27.58,30.63-27.58,35.85,27.58,35.85,27.58,22.06-2.76,27.58,11,2.76,30.33-13.79,33.09-22.06-5.52-22.06-5.52-5,9.4-20.43,8.84A70.38,70.38,0,0,1,1197.62,212.16Z" style="fill: #bff0fe;stroke: #29abe2;stroke-miterlimit: 10"/>
      <g>
        <path d="M1294.85,307.72h-4.79v-3.58a1.32,1.32,0,0,0-2.63,0v3.58h-6.24l6.66-7.74-10.65-1.23,4.57-4.57,2.39,2.39a1.35,1.35,0,0,0,.93.38,1.31,1.31,0,0,0,.93-2.24l-2.39-2.39,3.39-3.39a1.31,1.31,0,0,0,0-1.85,1.29,1.29,0,0,0-1.85,0l-3.4,3.39-2.53-2.53a1.31,1.31,0,0,0-1.85,1.85l2.53,2.53-4.86,4.87-.66-10.14-7.68,5.91V286.9h3.38a1.31,1.31,0,0,0,0-2.62h-3.38v-4.8a1.31,1.31,0,1,0-2.62,0v4.8h-3.58a1.31,1.31,0,1,0,0,2.62h3.58v6l-7.46-6.54-1.4,10.77-4.67-4.66,2.57-2.58a1.31,1.31,0,1,0-1.85-1.85l-2.58,2.57-3.46-3.46a1.31,1.31,0,0,0-1.85,1.85l3.46,3.47-2.34,2.34a1.31,1.31,0,0,0,.92,2.24,1.33,1.33,0,0,0,.93-.38l2.34-2.35,4.72,4.72-10.13,1.16,6,7.5h-6.07v-3.65a1.31,1.31,0,1,0-2.62,0v3.65h-4.9a1.31,1.31,0,1,0,0,2.62h4.9v3.31a1.31,1.31,0,1,0,2.62,0v-3.31h6.51l-5.83,7.34,9.58,1-4.84,4.84-2.57-2.57a1.31,1.31,0,1,0-1.86,1.85l2.58,2.58-3.47,3.46a1.31,1.31,0,1,0,1.86,1.85l3.46-3.46,2.35,2.35a1.31,1.31,0,0,0,.92.38,1.31,1.31,0,0,0,.93-2.24l-2.35-2.34,3.66-3.66.28,10.79,9.61-8v6.57h-3.65a1.31,1.31,0,1,0,0,2.62h3.65v4.9a1.31,1.31,0,0,0,2.62,0v-4.9H1270a1.31,1.31,0,0,0,0-2.62h-3.32v-6l8,7.6,1-11.27,4.21,4.22-2.39,2.39a1.31,1.31,0,1,0,1.86,1.85l2.39-2.39,3.39,3.4a1.33,1.33,0,0,0,.93.38,1.35,1.35,0,0,0,.93-.38,1.32,1.32,0,0,0,0-1.86l-3.4-3.39,2.53-2.53a1.31,1.31,0,0,0,0-1.85,1.29,1.29,0,0,0-1.85,0l-2.53,2.53-4.27-4.27,9.33-.7-6.67-8.4h7.25v3.38a1.32,1.32,0,0,0,2.63,0v-3.38h4.79a1.31,1.31,0,1,0,0-2.62Zm-38.26,4.79-1.76-2.17h7.08l-5.24,5.23Zm16.37-7.06,1.8,2.27h-6.52l4.57-4.58Zm-6.24.08v-6.82l1.92,1.69,2.87.33Zm-2.62.48-5-5,1.62-.19,3.35-2.58Zm-6.95-3.24,4.94,5h-6.86l1.52-1.93Zm6.95,9.09v7.05l-2-1.94-2.77-.3Zm2.62.48,4.9,4.9-3.25.24-1.65,1.39Zm6.88,3.18-5.18-5.18h7l-1.57,1.82Zm4.32-8-2.39-3-.22-3.29,7.33.85Zm-5.43-9.28-2.74-.32-2.4-2.11,4.75-3.65Zm-9.27-2.56-3.49,2.69-2,.23.9-7Zm-8.56,5.91-.41,3.17-2,2.46-4-4.91Zm-2.35,9.82,1.68,2.09.07,2.65-5.08-.54Zm4.46,7.81.12-.13,4,.42,2.39,2.27L1257,327Zm10.45,2.68,2.19-1.83,3.82-.29-.64,7.22Zm8.89-5,.33-3.68,1.4-1.63,3.88,4.9Z" style="fill: #29abe2"/>
        <path d="M1294.87,306.07h-4.8V302.5a1.31,1.31,0,0,0-2.62,0v3.57h-6.25l6.67-7.73-10.66-1.23,4.58-4.57,2.39,2.39a1.31,1.31,0,0,0,1.85-1.86l-2.39-2.39,3.4-3.39a1.31,1.31,0,1,0-1.86-1.85l-3.39,3.39-2.53-2.53a1.31,1.31,0,1,0-1.86,1.85l2.53,2.53-4.86,4.87-.66-10.14-7.68,5.91v-6.06h3.38a1.32,1.32,0,0,0,0-2.63h-3.38v-4.79a1.31,1.31,0,1,0-2.62,0v4.79h-3.58a1.32,1.32,0,0,0,0,2.63h3.58v6l-7.46-6.54-1.4,10.77-4.67-4.66,2.58-2.58a1.31,1.31,0,0,0-1.86-1.85l-2.57,2.57-3.46-3.46a1.31,1.31,0,0,0-1.86,1.85l3.46,3.47-2.34,2.34a1.32,1.32,0,0,0,.93,2.24,1.28,1.28,0,0,0,.92-.39l2.35-2.34,4.72,4.72-10.14,1.16,6,7.49h-6.06v-3.64a1.32,1.32,0,0,0-2.63,0v3.64h-4.89a1.32,1.32,0,0,0,0,2.63h4.89V312a1.32,1.32,0,0,0,2.63,0V308.7h6.51L1244,316l9.59,1-4.85,4.84-2.57-2.57a1.31,1.31,0,0,0-1.86,1.85l2.58,2.58-3.46,3.46a1.31,1.31,0,0,0,0,1.85,1.29,1.29,0,0,0,1.85,0l3.46-3.46,2.35,2.35a1.33,1.33,0,0,0,.93.38,1.31,1.31,0,0,0,.92-2.24l-2.34-2.34,3.65-3.66.29,10.79,9.6-8.05v6.57h-3.64a1.31,1.31,0,1,0,0,2.62h3.64v4.9a1.31,1.31,0,0,0,2.62,0V332h3.32a1.31,1.31,0,0,0,0-2.62h-3.32v-6l8,7.6,1-11.27,4.22,4.22-2.39,2.39a1.31,1.31,0,0,0,0,1.85,1.29,1.29,0,0,0,1.85,0l2.39-2.39,3.4,3.4a1.31,1.31,0,0,0,.92.38,1.31,1.31,0,0,0,.93-2.24l-3.39-3.39,2.53-2.53a1.32,1.32,0,0,0-1.86-1.86l-2.53,2.53-4.27-4.26,9.33-.7-6.66-8.4h7.25v3.38a1.31,1.31,0,1,0,2.62,0V308.7h4.8a1.32,1.32,0,0,0,0-2.63Zm-38.27,4.8-1.75-2.17h7.07l-5.23,5.23Zm16.38-7.06,1.79,2.26h-6.52l4.58-4.57Zm-6.25.07v-6.81l1.92,1.69,2.88.33Zm-2.62.49-5-5,1.62-.19,3.35-2.58Zm-6.95-3.24,4.94,4.94h-6.86l1.53-1.92Zm6.95,9.08v7.06l-2-1.94-2.78-.3Zm2.62.49,4.9,4.9-3.24.24-1.66,1.39Zm6.89,3.18-5.19-5.18h7l-1.57,1.82Zm4.32-8-2.4-3-.21-3.29,7.32.85Zm-5.43-9.28-2.74-.32-2.41-2.11,4.75-3.65Zm-9.27-2.56-3.5,2.69-2,.23.91-7Zm-8.56,5.91-.42,3.17-2,2.46-4-4.91Zm-2.36,9.82,1.69,2.09.07,2.65-5.09-.55Zm4.46,7.81.13-.13,4,.42,2.38,2.27-6.3,5.28Zm10.45,2.68,2.19-1.83,3.82-.29-.64,7.22Zm8.9-5,.32-3.68,1.4-1.63,3.88,4.89Z" style="fill: #fff;stroke: #29abe2;stroke-miterlimit: 10"/>
      </g>
    </g>
  </g>
<g id="generation">
  <path d="M47.6,1246.22c0-3.48-.13-6-.39-8.8H57.92a73.58,73.58,0,0,0-.39,8.74v4.92H66v-6.17a64.11,64.11,0,0,0-.39-7.56H76.12a66.51,66.51,0,0,0-.33,7.43v6.3h8.35v-6.37a59.07,59.07,0,0,0-.33-7.36H94.39a60.29,60.29,0,0,0-.4,7.43v6.3h.59a61.13,61.13,0,0,0,7.69-.39v9.85a64.08,64.08,0,0,0-7.69-.39H94v13.6c0,1.77.07,4.07.26,6.56-1.9-.13-3.54-.19-5.71-.19H71.91c-2.16,0-3.94.06-6.11.19.14-1.7.2-3.67.2-5.91v-14.25H57.53v26.4H90a82.81,82.81,0,0,0,9.53-.39v13.18c-3.22-.33-42-.63-42-.63H47.14c.33-3.35.46-6.77.46-10.45v-28.11a66.38,66.38,0,0,0-7.42.39v-9.85a64.51,64.51,0,0,0,7.42.39Zm28.19,13.93v10.9h8.35v-10.9Z"/>
  <path d="M113.7,1275.58c0-3.54,0-4.92.13-7a40.72,40.72,0,0,1-4.93,5.91,44.23,44.23,0,0,0-4.14-11.43,55,55,0,0,0,11.57-18.4,35.46,35.46,0,0,0,2.43-8.34l10.25,3.35a118,118,0,0,1-5.26,13.14v37.57a70,70,0,0,0,.4,8.15H113.3a68.43,68.43,0,0,0,.4-8.15Zm33.84-12.15a51.68,51.68,0,0,0,3.81,13.93,29.77,29.77,0,0,0,4.46,7.16,6,6,0,0,0,1.91,1.57c.85,0,1.64-4.13,2.1-11.23a34.94,34.94,0,0,0,8.68,5.65c-.86,7.49-1.91,11.43-3.82,14.52a6.85,6.85,0,0,1-6,3.55c-3.35,0-6.64-2.11-10.38-6.64-5.59-6.83-9.2-16-10.91-28l-5.19.33a55.58,55.58,0,0,0-6.63.65l-.07-10c1.91.07,2.1.07,2.82.07,1.06,0,3.42-.07,4.54-.13l3.55-.2c-.27-3.94-.27-3.94-.46-11.5a35.07,35.07,0,0,0-.4-5.58l11-.2a31.47,31.47,0,0,0-.33,5.59c0,3.74.07,6.3.4,11l9.19-.52a77.24,77.24,0,0,0-8.73-10.64l8-5.39a82.72,82.72,0,0,1,9.59,10.64l-7.22,5.26,1.77-.07a61,61,0,0,0,7.75-.85l.07,10.24a23.16,23.16,0,0,0-2.83-.13,36.24,36.24,0,0,0-4.2.2Z"/>
  <text transform="translate(200 1290)" style="font-size: 90px;font-family: DoulosSIL, Doulos SIL">13</text>
</g>  <g id="_5element" data-name="5element">
    <path d="M987.73,302.14a8.12,8.12,0,0,1-4.29-7.52c0-2.47,3.27-6.76,4.29-9,1.13-2.53,4.93-7.51,4.3-10.18-.44-1.84-5.28-4.73-4.3-6.37,4-6.77,26.07-3.8,33.33,0a7.07,7.07,0,0,1,4.29,6.56c0,2.69-3.13,7.52-4.29,10-1,2.14-4.31,6.11-4.29,8.45s5.58,6.18,4.29,8.1C1016.66,308.7,994.87,306.12,987.73,302.14Z" style="fill: #06d0ff"/>
    <g>
      <path d="M1004.23,338H990.44v25.71h-3V323h16.83Zm-2.94-12.65H990.44v3.91h10.85Zm-10.85,10.26h10.85v-4.14H990.44ZM1025.81,323v36.84c0,3.64-1.71,3.87-7.68,3.87a12.44,12.44,0,0,0-.88-2.9,3.13,3.13,0,0,0-.32.55,16.21,16.21,0,0,1-10.3-7.63c-1.25,2.85-4.19,5.65-11,7.77a9.81,9.81,0,0,0-1.84-2.07c6.9-1.89,9.43-4.69,10.35-7.22h-10v-2.44h10.44v-3.91H995v-2.39h5.29a18.23,18.23,0,0,0-2.21-4l2.44-.74a15.27,15.27,0,0,1,2.62,4.69l-.14.05h6.3a32.78,32.78,0,0,0,2.53-5l3.27,1.29a.87.87,0,0,1-.92.32c-.55.92-1.38,2.25-2.16,3.36h5.89v2.39h-10.4v3.91h11.27v2.44H1008.6c1.84,3.45,5.34,5.84,10.08,6.85a8,8,0,0,0-1.38,1.61c1.24.05,2.39.09,3.26.09,2,0,2.21,0,2.21-.92V338.09h-14.21V323Zm-3,2.39h-11.22v3.91h11.22Zm-11.22,10.31h11.22v-4.19h-11.22Z"/>
      <path d="M988.85,386.3a53.36,53.36,0,0,1-5.24,7.54A25.76,25.76,0,0,0,982,391c4.23-4.79,8.37-12.79,11-20.75l3.63,1.2c-.09.32-.46.5-1,.46a83.44,83.44,0,0,1-3.86,9.11l1,.32c0,.27-.32.5-.92.59V412.7h-3Zm15.78,14.49c-.09.28-.41.46-.92.41a41.68,41.68,0,0,1-7.22,9.48,20.73,20.73,0,0,0-2.25-1.66,32.66,32.66,0,0,0,6.89-9.33Zm13.66-13.57a49.06,49.06,0,0,1,8.33,10.49l-2.62,1.38a27,27,0,0,0-1.94-3.18l-10.53.42v16.33h-3V396.42c-4.69.18-9,.32-12.28.41a.73.73,0,0,1-.69.6l-1-3.54,8-.14c1.1-1,2.25-2.07,3.45-3.22a53.1,53.1,0,0,0-9.57-7.36l1.8-2c1,.59,2.06,1.24,3.12,2a70.74,70.74,0,0,0,5-6.57c-3.13.32-6.31.59-9.3.82a10,10,0,0,0-.87-2.53c8.79-.73,19.41-2,25.12-3.72l2.39,2.62a.86.86,0,0,1-.51.14,1.13,1.13,0,0,1-.41-.05,98.56,98.56,0,0,1-12.84,2.26l.88.5a1.28,1.28,0,0,1-1,.32,85,85,0,0,1-6.4,7.64,38.55,38.55,0,0,1,4.6,3.86,95.53,95.53,0,0,0,8.47-9.75l3.31,1.75c-.14.23-.55.32-1.06.32a127,127,0,0,1-12.33,12.93c4.42-.1,9.2-.19,13.94-.33-1.38-1.74-2.9-3.49-4.37-5Zm.32,12.42a43.51,43.51,0,0,1,7.09,9.43c-1.34.78-2,1.1-2.58,1.43a44.35,44.35,0,0,0-6.94-9.62C1018.15,399.92,1018.38,399.78,1018.61,399.64Z"/>
    </g>
  </g>
<g id="manekiPower">
  <text transform="translate(205.81 1456.78)" style="font-size: 121.63294982910156px;fill: #070707;font-family: DoulosSIL, Doulos SIL">492,462</text>
  <ellipse cx="82.99" cy="1415.19" rx="49.5" ry="49.5"/>
  <polygon points="82.92 1378.7 99.5 1378.7 81.54 1414.62 99.5 1414.62 68.55 1454.33 83.19 1421.63 67.58 1422.06 82.92 1378.7" style="fill: #fff"/>
  <text text-anchor="middle" transform="translate(1005 447.47)" style="font-size: 37.49140930175781px;font-family:DoulosSIL, Doulos SIL">5</text>
</g><g id="tokenID">
<text text-anchor="end" transform="translate(1450 1298.55)" style="font-size: 49px;font-family: DoulosSIL, Doulos SIL">39</text>
</g>  <g id="logo">
    <path d="M412.51,140.41l-34.29.33-.26-2-.63-.18a104.29,104.29,0,0,1-14.72-5.72l-6.77,1.86c-.39.11-1,.25-3.32.81-3.36.81-9,2.16-15.29,3.74l-10.12,2.54s-3.56-10.09-3.59-10.19c-8.45,2.14-19,3.94-27.51,3.94-6.05,0-10.75-.93-14.39-2.84-1.07-.56-2.33-1.25-3.68-2.09l-.9,4-36.89-4.45.16-1-28.76,8.94-2.28-3.49-17.92,10.06-3.65-7.14a56.94,56.94,0,0,1-17,2.6,34,34,0,0,1-16-3.76l-1,5.35-42.15-7L113,123c.36-3.14.68-8.21,1-15.11l-14.18.69c1,5.49,2.33,12,4,19.37l2.89,12.81-41.83,7.75L61.46,138c-1.72-5.28-3.28-13.16-4.79-24.07a213.34,213.34,0,0,1-2.21-27.48c0-12,1.43-21.08,4.36-27.81C64.76,45,75.72,43.57,80.15,43.57c6.68,0,13.58,3.14,21.71,9.88l.28.23L105.65,57l1.86-1.85C115,47.55,121.65,44,128.5,44a26.65,26.65,0,0,1,23.1,12.34l.16-1.75,10.41-.14h1.68c30.77,0,40.88,4.13,45.53,8.57L225.26,63c1.22-.41,2.52-.8,3.86-1.16a65.15,65.15,0,0,1,13.67-2.24c.91-.05,1.81-.07,2.68-.07,10.49,0,19.06,3.24,25.49,9.63q.6.6,1.17,1.23A43.53,43.53,0,0,1,288.77,61a47.66,47.66,0,0,1,14.08-2.21,43.39,43.39,0,0,1,13,2,39.18,39.18,0,0,1,4.72,1.84c.16-1.15.34-2.36.53-3.62l1.79-12.14,41.85,8.73-2.84,11.7c-.2.83-.39,1.64-.58,2.44,5.07-2,9.61-3.7,13.55-4.93l4.28-15.3,10.47,2.16c2.91.6,25,6.41,33.22,8.48l-1.53,21.43,13.1,2.19c5.27.87,9.86-3.72,9.86-3.72.29-.83,1.27-16.34,1.6-17.1,5.78-13.26,16.46-14.7,20.78-14.7,6.5,0,13.2,3,21.09,9.59L488,58l3.25,3c.59-.58,1.15-1.13,1.66-1.66,7.26-7.32,13.74-10.73,20.41-10.73,12.26,0,21.77,7.08,26.09,19.42a41.63,41.63,0,0,1,1.43,5,45.4,45.4,0,0,1,5-1.87A46,46,0,0,1,559.48,69,42,42,0,0,1,572.09,71a35,35,0,0,1,9.77,4.8l1-.76c8.11-6,18.49-9.1,30.88-9.1,10.36,0,19.45,2.39,27.07,7.12.84-1.54,1.75-3.08,2.71-4.62l5-8L685,75.07l30.1-15.29,5.54,8.45a108.18,108.18,0,0,1,8.83,15.55,48.93,48.93,0,0,1,4.48,19.9c0,10.81-2.82,19.88-8.39,26.95-6.51,8.33-16.15,12.74-27.86,12.74a37.7,37.7,0,0,1-16-3.38,35.11,35.11,0,0,1-14.48,3c-8.78,0-16.16-2.45-22-7.3l-.55.46c-8.13,6.62-18.24,10-30.08,10s-21.81-2.61-29.85-7.78c-8.42,2.55-21.74,5.24-31.78,5.24-5.87,0-10.45-.91-14-2.77-.15-.07-.29-.15-.43-.23l-.55,2.89-41.08-6.78,1.33-11.7c.34-3,.65-7.81.93-14.36l-13.24.65c.95,5.25,2.23,11.42,3.82,18.47l2.84,12.57-40.76,7.55-2.65-8.15L432,144.3ZM236.19,100.59a94.65,94.65,0,0,0,4.44,15.5l1.3,3.34.2-1.19a83.12,83.12,0,0,0,.94-17.53c0-.93-.11-1.69-.19-2.3A17.16,17.16,0,0,0,236.19,100.59ZM608.66,106a12.36,12.36,0,0,0,4.86.84,11.57,11.57,0,0,0,4.67-.76,13.87,13.87,0,0,0-5.55-.92A7.61,7.61,0,0,0,608.66,106ZM679,88.07A42.34,42.34,0,0,0,674.9,95l14.64-.81c-.87-1.25-2-2.84-3.44-4.86l-4-5.54Z" style="fill: #0702b0"/>
    <path d="M401.41,92.58s16.63,9.5,28.33,8.82,28.32-12.21,28.32-12.21" style="fill: none;stroke: #ff2000;stroke-miterlimit: 10;stroke-width: 6px"/>
    <path d="M383.35,129.21c-.61-4.59-.66-12.3-.16-23.56a241,241,0,0,1,2.07-24.37l.05-.32-7.94-1.76L384,55.66l5.29,1.08c3.39.69,10.4,2.39,21.41,5.17l5.75,1.46L412.13,79.1l1.33.17-.92,5.88c-1.61,10.22-2.41,24.74-2.38,43.15v5.76L384,134.3Z" style="fill: #0702b0"/>
    <path d="M409.29,67.54l-3.31,12-21.35-4.71,3.51-12.43Q393,63.44,409.29,67.54Zm-4.94,60.77-15.24.14q-.84-6.31-.12-22.54a236.41,236.41,0,0,1,2-23.73l15.8,2.07Q404.31,100.1,404.35,128.31Z" style="fill: url(#Sky_2)"/>
    <path d="M387.08,113.63l-5.81,13.23a98.76,98.76,0,0,1-15.54-6.21q-7.51-3.7-14.93-7.52.6,3.3,2.5,9.82c-.73.2-8.85,2.09-18.54,4.49-4.14-11.62-5-24.44-5-36.66,0-9.56,1.16-18,3-30.67l18.42,3.81Q346.69,82.35,347,89.58q4-3.42,16.64-8.62a163.15,163.15,0,0,1,17.54-6.32L387,88l-14.83,4.61q-11.13,4-14.24,8,3.81,2.7,13.94,7.12A152.18,152.18,0,0,0,387.08,113.63Z" style="fill: url(#Sky_2-2)"/>
    <path d="M296,129.19c-5.15,0-9-.71-11.84-2.18-7.06-3.68-14.77-9.06-18.47-21.09-2.73-8.87-1.22-17.44,4.5-25.49a37.72,37.72,0,0,1,20.21-14.5,42.69,42.69,0,0,1,12.5-2,38.5,38.5,0,0,1,11.41,1.73c9.31,2.94,15.61,9,18.26,17.65,1.7,5.54,1.44,10.63-.79,15.12l-.07.14a18,18,0,0,1-2.68,3.77l4,19.93-5,1.54C319.64,126.43,306.06,129.19,296,129.19Z" style="fill: #0702b0"/>
    <path d="M327,85.07q1.89,6.14-.45,10.83t-8.68,6.55q-7.75,2.39-30.29,3.13c7.43,7.08,27.22,1.48,35.91-1.19l2.81,13.92c-10.35,3.19-32.14,7.37-39.48,3.55-6.85-3.57-12.63-8-15.6-17.64q-3.27-10.64,3.68-20.43a31.94,31.94,0,0,1,17.19-12.31,34.07,34.07,0,0,1,20.49-.22Q323.83,74.82,327,85.07Zm-14.67,3.46c-.67-2.17-2.64-3.48-5.93-3.94a19.87,19.87,0,0,0-18.55,8.22q20.1-1.14,23.45-2.18c.7-.21,1.12-.45,1.25-.7S312.55,89.3,312.31,88.53Z" style="fill: url(#Sky_2-3)"/>
    <path d="M210.76,127.16c-3.32-5-5.95-12-8-21.34a126.14,126.14,0,0,1-3.08-21.49c-.1-2-.06-5.4.1-10.43l.19-5.6,25.58-.08c1.36-.49,2.81-.94,4.38-1.35a60.11,60.11,0,0,1,12.62-2.06c10.13-.51,18.23,2.15,24.06,7.9s8.83,13.49,9.33,23.43a98.92,98.92,0,0,1-2.49,26.46l-1.14,5.12-26-3.11,1-6a87.67,87.67,0,0,0,1-18.78C248.05,94.4,247,93,247,93l-.09-.13c-.46-.64-2.07-1-4.2-.86-4.57.23-9,2-13.55,5.25a105.08,105.08,0,0,0,5.5,20.41l2.3,5.83-23.8,7.33Z" style="fill: #0702b0"/>
    <path d="M270.12,96.43a92.78,92.78,0,0,1-2.35,24.91L253,119.57a92.78,92.78,0,0,0,1.1-20q-.36-7.31-2.52-10.11-2.58-3.57-9.19-3.25-10,.51-19.54,8.62a114.62,114.62,0,0,0,6.38,25L215.61,124q-4.35-6.61-7.2-19.41A119.62,119.62,0,0,1,205.46,84q-.14-2.7.11-9.94l15,0,.16,3.3q3.57-3,10.7-4.85a54.1,54.1,0,0,1,11.45-1.88q12.71-.64,19.68,6.23T270.12,96.43Z" style="fill: url(#linear-gradient)"/>
    <path d="M189.47,129.88a52.37,52.37,0,0,1-20,4,28.22,28.22,0,0,1-19.68-7.51,25.59,25.59,0,0,1-8.41-19.49c0-10.12,3.77-18.18,11.21-24l1.11-.82,1.94-22.27,5.25-.07h1.62c36.34,0,41.22,5.95,42.83,7.9,5.2,6.33,4.3,23.63,3.64,31.08v9.06c0,3.19,1.11,6.91,3.3,11l2.67,5-22.26,12.38Z" style="fill: #0702b0"/>
    <path d="M207.19,121.52l-12,6.7-3.08-6A47.41,47.41,0,0,1,169.51,128a22.48,22.48,0,0,1-15.76-6,19.88,19.88,0,0,1-6.52-15.21q0-12.4,9-19.38c5.43-4.23,12.49-5.64,21.1-6.34A27.26,27.26,0,0,1,192,83.89l.12,14.43c-3.8-1.75-11-3.7-14.79-3.7q-6.88,0-11.23,2.9a11.19,11.19,0,0,0-5,9.78,6.43,6.43,0,0,0,2.35,5,7.67,7.67,0,0,0,5.35,2.18q10,0,15.76-4.71t6.07-13.41s2.18-13.25-.23-16.65C186,73.52,160,77.59,160,77.59l1-12.07s34.77-.45,39.88,5.78c4.32,5.26,2.32,27.12,2.32,27.12v9.33Q203.21,114,207.19,121.52Z" style="fill: url(#Sky_2-4)"/>
    <path d="M64.72,135.63c-1.62-4.95-3.13-12.5-4.6-23.06a205.33,205.33,0,0,1-2.18-26.68c0-11.16,1.28-19.49,3.91-25.47C66.31,50.31,73.92,48.8,78.07,48.8c5.33,0,11.12,2.72,18.23,8.56l.15.12,7.44,6.86c2.27-2.15,4.25-4.07,5.9-5.72,6.38-6.38,11.81-9.36,17.08-9.36,10.26,0,17.94,5.72,21.61,16.11,2,5.52,3,13,3,22.74,0,18.22-.8,31.31-2.46,40l-1.23,6.49-31.51-5.15L117,123c.52-4.56,1-12.88,1.36-24.73,0-.25,0-.5,0-.75l-2.53,3.72-21.33,1-2.17-2.68c-.69-.87-1.34-1.65-2-2.36.65,5.89,2.28,15.54,5.88,31.35l1.58,6.9-31.28,5.74Z" style="fill: #0702b0"/>
    <path d="M149.89,87.53q0,26.44-2.34,38.73l-18.61-3q.81-7.14,1.4-25.28.58-19.18-.11-19.19-2.46,0-12.88,15.33l-14.51.7q-9.24-11.46-13-11.46-1.41,0-1.41,7.6,0,10.42,6.44,38.62l-18.49,3.39q-2.22-6.78-4.33-21.88A197.86,197.86,0,0,1,70,85.3Q70,55,83.29,55q5.38,0,13.93,7l11.94,11q6.56-6.09,10.65-10.18,7.38-7.38,12.29-7.38,11.11,0,15.21,11.59Q149.89,74.19,149.89,87.53Z" style="fill: url(#Sky_2-5)"/>
    <path d="M701.4,137a31.56,31.56,0,0,1-16.16-4.09,29.57,29.57,0,0,1-14.66,3.76c-10,0-17.7-3.59-23-10.67l0,0C643.21,120,641,112.34,641,103.1c0-10.2,3.57-21,10.63-32.15L654.14,67l28,11.18L677.86,84a50.08,50.08,0,0,0-5.78,10.26,27.58,27.58,0,0,0-2.44,10,7.76,7.76,0,0,0,.94,4.05l.06.09.06.1a2.61,2.61,0,0,0,.44.62,1,1,0,0,0,.09-.15,6,6,0,0,0,.72-3.15v-5.31l23.65-1.3,1.42,3.91c1.27,3.48,2.86,5.74,4.05,5.74.23,0,.72,0,1.59-1.1a4.4,4.4,0,0,0,1.11-2.94,19.81,19.81,0,0,0-2.52-9.73c-.27-.47-1.5-2.46-6.83-9.82L690.56,80,717,66.7l2.75,4.15a101.62,101.62,0,0,1,8.43,14.68,42.73,42.73,0,0,1,4,17.57c0,9.47-2.42,17.32-7.2,23.34C719.45,133.43,711.52,137,701.4,137Z" style="fill: #0702b0"/>
    <path d="M726.57,103.1q0,12.32-6,19.85-6.65,8.43-19.18,8.42-9.54,0-16.08-5.21A24,24,0,0,1,670.58,131q-12.21,0-18.52-8.42-5.43-7.43-5.43-19.52,0-13.74,9.75-29.15l17,6.76a54.66,54.66,0,0,0-6.43,11.42A32.59,32.59,0,0,0,664,104.32a13,13,0,0,0,1.78,7,6.13,6.13,0,0,0,5.54,3.55A5.32,5.32,0,0,0,676,112a11.53,11.53,0,0,0,1.55-6.09l14.19-.78q3.43,9.42,9.32,9.42a7.48,7.48,0,0,0,6-3.21,10,10,0,0,0,2.33-6.43,25.55,25.55,0,0,0-3.21-12.42q-1.11-2-7.21-10.42L715,74a98.39,98.39,0,0,1,8,13.85A37.22,37.22,0,0,1,726.57,103.1Z" style="fill: url(#New_Gradient_Swatch_2)"/>
    <path d="M455.32,137.28c-1.57-4.78-3-12.06-4.45-22.26a199.7,199.7,0,0,1-2.09-25.77c0-10.77,1.23-18.81,3.77-24.58,4.3-9.77,11.66-11.23,15.66-11.23,5.14,0,10.74,2.63,17.6,8.27l.15.12,7.18,6.62c2.2-2.08,4.1-3.93,5.7-5.52,6.16-6.17,11.4-9,16.49-9,9.91,0,17.32,5.53,20.87,15.55,1.92,5.33,2.86,12.53,2.86,22,0,17.6-.78,30.23-2.38,38.63l-1.19,6.26-30.42-5,.71-6.2c.5-4.4.94-12.43,1.31-23.87l0-.73-2.45,3.59-20.6,1L482,102.52c-.67-.84-1.3-1.6-1.88-2.29.63,5.69,2.19,15,5.68,30.28l1.52,6.66-30.2,5.55Z" style="fill: #0702b0"/>
    <path d="M532.51,91.4q0,25.55-2.26,37.4l-18-2.93q.79-6.9,1.36-24.41.55-18.54-.12-18.53-2.37,0-12.43,14.8l-14,.68q-8.93-11.07-12.54-11.08-1.37,0-1.36,7.35,0,10,6.22,37.29l-17.86,3.28q-2.15-6.56-4.18-21.14a191.24,191.24,0,0,1-2-24.86Q455.32,60,468.21,60q5.19,0,13.45,6.78l11.52,10.62q6.33-5.88,10.29-9.83,7.11-7.12,11.86-7.12,10.74,0,14.69,11.19Q532.51,78.52,532.51,91.4Z" style="fill: url(#New_Gradient_Swatch_2-2)"/>
    <path d="M617.45,139.79c-11.06,0-20.34-2.44-27.61-7.26-9.1-6.13-13.7-15-13.7-26.51S580.45,85.37,589,79.11c7.16-5.29,16.49-8,27.72-8,10.56,0,19.58,2.68,26.81,8l0,0c8.41,6.26,12.68,15,12.68,25.89s-4.06,19.6-12.06,26.09C637,136.87,628,139.79,617.45,139.79Zm-1.89-41a12.62,12.62,0,0,0-7.59,2,5.57,5.57,0,0,0-2.55,5.09c0,1.64.45,3,2.61,4.22a16.81,16.81,0,0,0,8.42,1.92,15.67,15.67,0,0,0,8.34-1.92,5,5,0,0,0,2.79-4.78c0-1.52-.36-3.14-3-4.65A18.44,18.44,0,0,0,615.56,98.77Z" style="fill: #0702b0"/>
    <path d="M650.6,105q0,13.64-10,21.73-9.21,7.42-23.17,7.43-15,0-24.51-6.32-11.19-7.55-11.2-21.84,0-14.64,10.54-22.4,9.32-6.87,24.39-6.87,14.08,0,23.51,6.87Q650.59,91.39,650.6,105Zm-17.41.33q0-6.21-5.88-9.53a23.82,23.82,0,0,0-11.75-2.66,18.13,18.13,0,0,0-10.86,3.1,11.11,11.11,0,0,0-4.88,9.65,9.9,9.9,0,0,0,5.43,9.09,22.26,22.26,0,0,0,11.2,2.66q6.87,0,11.31-2.77A10.57,10.57,0,0,0,633.19,105.35Z" style="fill: url(#New_Gradient_Swatch_2-3)"/>
    <path d="M555.23,137.24c-5,0-8.71-.69-11.43-2.11-6.81-3.55-14.25-8.74-17.83-20.36-2.63-8.57-1.17-16.85,4.34-24.62a36.53,36.53,0,0,1,19.52-14,41,41,0,0,1,12.07-1.88,37.23,37.23,0,0,1,11,1.67c9,2.84,15.07,8.73,17.63,17,1.64,5.34,1.38,10.25-.77,14.59l-.07.14a17,17,0,0,1-2.58,3.64L591,130.6l-4.86,1.49C578.11,134.57,565,137.24,555.23,137.24Z" style="fill: #0702b0"/>
    <path d="M585.19,94.63q1.81,5.93-.43,10.46t-8.38,6.33q-7.5,2.31-29.25,3c7.17,6.84,26.28,1.43,34.67-1.15l2.71,13.44c-10,3.08-31,7.12-38.12,3.43-6.61-3.45-12.19-7.73-15.06-17q-3.15-10.26,3.55-19.72a30.88,30.88,0,0,1,16.6-11.89,32.92,32.92,0,0,1,19.78-.21Q582.14,84.74,585.19,94.63ZM571,98q-1-3.15-5.73-3.81a19.19,19.19,0,0,0-17.91,7.94Q566.79,101,570,100a2.1,2.1,0,0,0,1.21-.68A2.7,2.7,0,0,0,571,98Z" style="fill: url(#New_Gradient_Swatch_2-4)"/>
    <g>
      <g>
        <g>
          <g>
            <path d="M475.38,131.52c-1.25-1.47-4.4-2.48-9.09-2.73a39.8,39.8,0,0,0-73.23,28.47c-6.79,6.28-10.55,12.31-7.68,15.68,2.53,3,11.43,2.58,16.53,2.08a39.79,39.79,0,0,0,69.43-32C474.54,140.68,479.31,136.14,475.38,131.52Z" style="fill: #ffd404"/>
            <path d="M428.46,192.46A43.35,43.35,0,0,1,400.35,179c-14,1.05-16.89-2.41-17.89-3.58-2.81-3.31-3.85-9.34,6.46-19.5a43.23,43.23,0,0,1-.41-10.48,43.62,43.62,0,0,1,80-20.31c4.71.5,8,1.81,9.78,3.91a9.28,9.28,0,0,1,2.32,7.22c-.42,3.44-2.79,6.3-5.21,8.39a43,43,0,0,1,.07,7.86A43.67,43.67,0,0,1,428.46,192.46ZM403.51,171l1.29,1.5a36,36,0,0,0,63.06-20.63,36.46,36.46,0,0,0-.3-8.34l-.35-2.31,1.9-1.37c2.72-2,3.8-3.63,3.91-4.54,0-.17.08-.58-.54-1.31-.35-.32-2.15-1.18-6.4-1.41L464,132.5l-1-1.77a36,36,0,0,0-66.18,25.73l.78.47-1.77,2.93c-7.38,6.83-7.75,10.34-7.53,10.6.55.49,4.06,1.65,13.24.75Z" style="fill: #0000b2"/>
          </g>
          <path d="M394.17,161.26l-3.3-6.44c.48-.52,11.85-12.95,33.08-20.73a170.54,170.54,0,0,1,41.71-9.21l.55,7.63a128.59,128.59,0,0,0-39.5,7.24C407.36,146.84,394.27,161.15,394.17,161.26Z" style="fill: #0000b2"/>
        </g>
        <g>
          <path d="M430,165.64a42.83,42.83,0,0,0,4.38,9.32,10.72,10.72,0,1,0-6.37,1.33,48.44,48.44,0,0,1-3.85-8.84Z" style="fill: #0000b2"/>
          <path d="M447.69,181.81l.12-.1s-2.21,1.62-7.58-.91c-2.22-1.05-4.19-3.32-5.81-5.84a10.61,10.61,0,0,1-6.15,1.36l-.22,0c2.22,3.92,5.38,8.07,9.57,10a19.68,19.68,0,0,0,6.85,2c4.73.39,7.15-1.78,7.5-2.12Z" style="fill: #0000b2"/>
          <path d="M434.42,175a42.83,42.83,0,0,1-4.38-9.32l-5.84,1.81a48.44,48.44,0,0,0,3.85,8.84l.22,0A10.61,10.61,0,0,0,434.42,175Z" style="fill: #0000b2"/>
        </g>
      </g>
      <circle cx="423.61" cy="103.73" r="6.89" style="fill: #0000b2"/>
    </g>
  </g>
  <defs>
    <linearGradient id="Sky_2" data-name="Sky 2" x1="406.87" y1="58.34" x2="378.85" y2="155.96" gradientUnits="userSpaceOnUse">
      <stop offset="0" stop-color="#c6e0f5"/>
      <stop offset="0.06" stop-color="#bdddf4"/>
      <stop offset="0.15" stop-color="#a3d4f1"/>
      <stop offset="0.28" stop-color="#7ac7eb"/>
      <stop offset="0.42" stop-color="#40b3e4"/>
      <stop offset="0.57" stop-color="#009edc"/>
      <stop offset="0.87" stop-color="#0077c3"/>
      <stop offset="0.99" stop-color="#005d9b"/>
    </linearGradient>
    <linearGradient id="Sky_2-2" x1="361.62" y1="50.01" x2="354.97" y2="154.01" xlink:href="#Sky_2"/>
    <linearGradient id="Sky_2-3" x1="316.67" y1="61.44" x2="282.63" y2="143.26" xlink:href="#Sky_2"/>
    <linearGradient id="linear-gradient" x1="238.54" y1="60.55" x2="236.14" y2="160.36" gradientUnits="userSpaceOnUse">
      <stop offset="0" stop-color="#c6e0f5"/>
      <stop offset="0.06" stop-color="#bdddf4"/>
      <stop offset="0.15" stop-color="#a3d4f1"/>
      <stop offset="0.28" stop-color="#7ac7eb"/>
      <stop offset="0.42" stop-color="#40b3e4"/>
      <stop offset="0.57" stop-color="#009edc"/>
      <stop offset="0.87" stop-color="#0077c3"/>
    </linearGradient>
    <linearGradient id="Sky_2-4" x1="179.56" y1="61.4" x2="176.38" y2="132.23" xlink:href="#Sky_2"/>
    <linearGradient id="Sky_2-5" x1="98.28" y1="49.18" x2="128.81" y2="163.35" xlink:href="#Sky_2"/>
    <radialGradient id="New_Gradient_Swatch_2" data-name="New Gradient Swatch 2" cx="776.17" cy="46.5" r="423.59" gradientTransform="translate(0 -0.42)" gradientUnits="userSpaceOnUse">
      <stop offset="0" stop-color="#fff700"/>
      <stop offset="0.06" stop-color="#ffea00"/>
      <stop offset="0.24" stop-color="#ffc800"/>
      <stop offset="0.42" stop-color="#ffad00"/>
      <stop offset="0.61" stop-color="#ff9a00"/>
      <stop offset="0.8" stop-color="#ff8f00"/>
      <stop offset="1" stop-color="#ff8b00"/>
    </radialGradient>
    <radialGradient id="New_Gradient_Swatch_2-2" cx="514.22" cy="57.74" r="243.37" xlink:href="#New_Gradient_Swatch_2"/>
    <radialGradient id="New_Gradient_Swatch_2-3" cx="594.62" cy="68.98" r="233.37" xlink:href="#New_Gradient_Swatch_2"/>
    <radialGradient id="New_Gradient_Swatch_2-4" cx="581.66" cy="56.88" r="327.4" xlink:href="#New_Gradient_Swatch_2"/>
  </defs></svg>