<svg xmlns="http://www.w3.org/2000/svg" xmlns:xlink="http://www.w3.org/1999/xlink" viewBox="0 0 1500 1500">  <g id="sky">
    <rect width="1500" height="1499.86" style="fill: #ffe600"/>
  </g>  <g id="pattern">
    <g>
      <path d="M1394.41,997.42a125,125,0,0,0,105.27-120.95l0-2.36h0v-.23h0l0-2.37a125,125,0,0,0-114.14-122,124.94,124.94,0,0,0,114.14-122l0-2.36h0v-.23h0l0-2.37a125,125,0,0,0-122.46-122.46l-2.36-.05h-.23l-2.37.05a125,125,0,0,0-122.39,120.32,125,125,0,0,0-122.4-120.32l-2.36-.05h-.23l-2.37.05a125,125,0,0,0-122.39,120.32,125,125,0,0,0-122.4-120.32l-2.36-.05h-.23l-2.37.05A125,125,0,0,0,750.37,620.37,125,125,0,0,0,628,500.05l-2.36-.05h-.23l-2.37.05A125,125,0,0,0,500.62,620.37a125,125,0,0,0-122.4-120.32l-2.36-.05h-.24l-2.36.05A125,125,0,0,0,250.87,620.37a125,125,0,0,0-122.4-120.32l-2.36-.05h-.23l-2.37.05A125,125,0,0,0,1.05,622.51L1,624.88H1v.23H1l.05,2.36a125,125,0,0,0,114.14,122,125,125,0,0,0-114.14,122L1,873.88H1v.23H1l.05,2.36a125,125,0,0,0,106.28,121.1A125,125,0,0,0,2.05,1118.51l0,2.37H2v.23H2l0,2.36a125,125,0,0,0,114.14,122,125,125,0,0,0-114.14,122l0,2.37H2v.23H2l0,2.36a125,125,0,0,0,122.46,122.47l2.37,0h.23l2.36,0a125,125,0,0,0,122.4-120.32,125,125,0,0,0,122.39,120.32l2.36,0h.24l2.36,0a125,125,0,0,0,122.4-120.32A125,125,0,0,0,624,1494.94l2.37,0h.23l2.36,0a125,125,0,0,0,122.4-120.32,125,125,0,0,0,122.39,120.32l2.37,0h.23l2.36,0a125,125,0,0,0,122.4-120.32,125,125,0,0,0,122.39,120.32l2.37,0h.23l2.36,0a125,125,0,0,0,122.4-120.32,125,125,0,0,0,122.39,120.32l2.37,0h.23l2.36,0A125,125,0,0,0,1500,1383.31v-26.63a125,125,0,0,0-113.46-111.19A125,125,0,0,0,1500,1134.31v-26.63a125,125,0,0,0-105.59-110.26Zm65.16-38.6a119.31,119.31,0,0,1-79.82,35A120,120,0,0,1,1494.61,879,119.31,119.31,0,0,1,1459.57,958.82Zm-48.32-48.32a124.31,124.31,0,0,0-36.51,83.74A124.94,124.94,0,0,0,1254.49,874a124.94,124.94,0,0,0,120.25-120.25A124.94,124.94,0,0,0,1495,874,124.31,124.31,0,0,0,1411.25,910.5Zm-248.75,247a124.31,124.31,0,0,0-36.51,83.74A124.94,124.94,0,0,0,1005.74,1121,124.94,124.94,0,0,0,1126,1000.74,124.94,124.94,0,0,0,1246.24,1121,124.31,124.31,0,0,0,1162.5,1157.5Zm83.36-31.5A120,120,0,0,1,1131,1240.86,120,120,0,0,1,1245.86,1126Zm-35,159.16a119.35,119.35,0,0,1,35,79.82A120,120,0,0,1,1131,1250.13,119.34,119.34,0,0,1,1210.82,1285.16Zm-89.84-44.3A120,120,0,0,1,1006.13,1126,120,120,0,0,1,1121,1240.86ZM912.75,1157.5a124.31,124.31,0,0,0-36.51,83.74A124.94,124.94,0,0,0,756,1121a124.94,124.94,0,0,0,120.25-120.25A124.94,124.94,0,0,0,996.49,1121,124.31,124.31,0,0,0,912.75,1157.5Zm83.36-31.5a120,120,0,0,1-114.86,114.86A120,120,0,0,1,996.11,1126Zm-35,159.16a119.35,119.35,0,0,1,35,79.82,120,120,0,0,1-114.86-114.85A119.34,119.34,0,0,1,961.07,1285.16Zm-89.84-44.3A120,120,0,0,1,756.38,1126a120,120,0,0,1,114.85,114.86ZM663,1157.5a124.31,124.31,0,0,0-36.51,83.74A124.94,124.94,0,0,0,506.24,1121a124.94,124.94,0,0,0,120.25-120.25A124.94,124.94,0,0,0,746.74,1121,124.31,124.31,0,0,0,663,1157.5Zm83.36-31.5A120,120,0,0,1,631.5,1240.86,120,120,0,0,1,746.36,1126Zm-35,159.16a119.35,119.35,0,0,1,35,79.82A120,120,0,0,1,631.5,1250.13,119.34,119.34,0,0,1,711.32,1285.16Zm-89.84-44.3A120,120,0,0,1,506.63,1126a120,120,0,0,1,114.85,114.86ZM413.25,1157.5a124.31,124.31,0,0,0-36.51,83.74A124.94,124.94,0,0,0,256.49,1121a124.94,124.94,0,0,0,120.25-120.25A124.94,124.94,0,0,0,497,1121,124.31,124.31,0,0,0,413.25,1157.5Zm83.36-31.5a120,120,0,0,1-114.86,114.86A120,120,0,0,1,496.61,1126Zm-35,159.16a119.35,119.35,0,0,1,35,79.82,120,120,0,0,1-114.86-114.85A119.34,119.34,0,0,1,461.57,1285.16Zm-89.84-44.3A120,120,0,0,1,256.88,1126a120,120,0,0,1,114.85,114.86ZM215.36,1032.63a124.29,124.29,0,0,0-69.7-35.21,125,125,0,0,0,105.21-118.8,125,125,0,0,0,106.21,119,125,125,0,0,0-105.21,118.8A124.29,124.29,0,0,0,215.36,1032.63Zm31.5,83.35A120,120,0,0,1,132,1001.13,120,120,0,0,1,246.86,1116ZM131,993.86A120,120,0,0,1,245.86,879,120,120,0,0,1,131,993.86ZM339.23,837.48a124.27,124.27,0,0,0,36.51-83.74A124.94,124.94,0,0,0,496,874,124.94,124.94,0,0,0,375.74,994.24,124.94,124.94,0,0,0,255.49,874,124.29,124.29,0,0,0,339.23,837.48ZM255.88,869A120,120,0,0,1,370.73,754.13,120,120,0,0,1,255.88,869Zm35-159.16a119.34,119.34,0,0,1-35-79.82A120,120,0,0,1,370.73,744.86,119.33,119.33,0,0,1,290.91,709.82Zm89.84,44.31A120,120,0,0,1,495.61,869,120,120,0,0,1,380.75,754.13ZM495.61,879A120,120,0,0,1,380.75,993.86,120,120,0,0,1,495.61,879ZM371.73,1001.13A120,120,0,0,1,256.88,1116a120,120,0,0,1,114.85-114.85Zm-1-7.27A120,120,0,0,1,255.88,879,120,120,0,0,1,370.73,993.86Zm11,7.27A120,120,0,0,1,496.61,1116a120,120,0,0,1-114.86-114.85Zm83.36,31.5a124.29,124.29,0,0,0-69.7-35.21,125,125,0,0,0,105.21-118.8,125,125,0,0,0,106.21,119,125,125,0,0,0-105.21,118.8A124.29,124.29,0,0,0,465.11,1032.63ZM589,837.48a124.27,124.27,0,0,0,36.51-83.74A124.94,124.94,0,0,0,745.74,874,124.94,124.94,0,0,0,625.49,994.24,124.94,124.94,0,0,0,505.24,874,124.29,124.29,0,0,0,589,837.48ZM505.63,869A120,120,0,0,1,620.48,754.13,120,120,0,0,1,505.63,869Zm35-159.16a119.34,119.34,0,0,1-35-79.82A120,120,0,0,1,620.48,744.86,119.33,119.33,0,0,1,540.66,709.82Zm89.84,44.31A120,120,0,0,1,745.36,869,120,120,0,0,1,630.5,754.13ZM745.36,879A120,120,0,0,1,630.5,993.86,120,120,0,0,1,745.36,879ZM621.48,1001.13A120,120,0,0,1,506.63,1116a120,120,0,0,1,114.85-114.85Zm-1-7.27A120,120,0,0,1,505.63,879,120,120,0,0,1,620.48,993.86Zm11,7.27A120,120,0,0,1,746.36,1116,120,120,0,0,1,631.5,1001.13Zm83.36,31.5a124.29,124.29,0,0,0-69.7-35.21,125,125,0,0,0,105.21-118.8,125,125,0,0,0,106.21,119,125,125,0,0,0-105.21,118.8A124.29,124.29,0,0,0,714.86,1032.63ZM838.73,837.48a124.27,124.27,0,0,0,36.51-83.74A124.94,124.94,0,0,0,995.49,874,124.94,124.94,0,0,0,875.24,994.24,124.94,124.94,0,0,0,755,874,124.29,124.29,0,0,0,838.73,837.48ZM755.38,869A120,120,0,0,1,870.23,754.13,120,120,0,0,1,755.38,869Zm35-159.16a119.34,119.34,0,0,1-35-79.82A120,120,0,0,1,870.23,744.86,119.33,119.33,0,0,1,790.41,709.82Zm89.84,44.31A120,120,0,0,1,995.11,869,120,120,0,0,1,880.25,754.13ZM995.11,879A120,120,0,0,1,880.25,993.86,120,120,0,0,1,995.11,879ZM871.23,1001.13A120,120,0,0,1,756.38,1116a120,120,0,0,1,114.85-114.85Zm-1-7.27A120,120,0,0,1,755.38,879,120,120,0,0,1,870.23,993.86Zm11,7.27A120,120,0,0,1,996.11,1116a120,120,0,0,1-114.86-114.85Zm83.36,31.5a124.29,124.29,0,0,0-69.7-35.21,125,125,0,0,0,105.21-118.8,125,125,0,0,0,106.21,119,125,125,0,0,0-105.21,118.8A124.29,124.29,0,0,0,964.61,1032.63Zm123.87-195.15A124.27,124.27,0,0,0,1125,753.74,124.94,124.94,0,0,0,1245.24,874,124.94,124.94,0,0,0,1125,994.24,124.94,124.94,0,0,0,1004.74,874,124.29,124.29,0,0,0,1088.48,837.48ZM1005.13,869A120,120,0,0,1,1120,754.13,120,120,0,0,1,1005.13,869Zm35-159.16a119.34,119.34,0,0,1-35-79.82A120,120,0,0,1,1120,744.86,119.33,119.33,0,0,1,1040.16,709.82ZM1130,754.13A120,120,0,0,1,1244.86,869,120,120,0,0,1,1130,754.13ZM1244.86,879A120,120,0,0,1,1130,993.86,120,120,0,0,1,1244.86,879ZM1121,1001.13A120,120,0,0,1,1006.13,1116,120,120,0,0,1,1121,1001.13Zm-1-7.27A120,120,0,0,1,1005.13,879,120,120,0,0,1,1120,993.86Zm11,7.27A120,120,0,0,1,1245.86,1116,120,120,0,0,1,1131,1001.13Zm83.36,31.5a124.29,124.29,0,0,0-69.7-35.21,125,125,0,0,0,105.21-118.8,125,125,0,0,0,106.21,119,125,125,0,0,0-105.21,118.8A124.29,124.29,0,0,0,1214.36,1032.63ZM1254.88,879a120,120,0,0,1,114.85,114.86A120,120,0,0,1,1254.88,879Zm36,157.16a119.36,119.36,0,0,1,79.82-35A120,120,0,0,1,1255.88,1116,119.38,119.38,0,0,1,1290.91,1036.16Zm-36-167.18a120,120,0,0,1,114.85-114.85A120,120,0,0,1,1254.88,869Zm35-159.16a119.34,119.34,0,0,1-35-79.82,120,120,0,0,1,114.85,114.86A119.33,119.33,0,0,1,1289.91,709.82Zm169.66,79.34a119.35,119.35,0,0,1,35,79.82,120,120,0,0,1-114.86-114.85A119.34,119.34,0,0,1,1459.57,789.16Zm0-79.34a119.31,119.31,0,0,1-79.82,35A120,120,0,0,1,1494.61,630,119.31,119.31,0,0,1,1459.57,709.82Zm0-169.66a119.35,119.35,0,0,1,35,79.82,120,120,0,0,1-114.86-114.85A119.34,119.34,0,0,1,1459.57,540.16Zm-169.66,0a119.36,119.36,0,0,1,79.82-35A120,120,0,0,1,1254.88,620,119.38,119.38,0,0,1,1289.91,540.16Zm48.32,48.32a124.27,124.27,0,0,0,36.51-83.74A124.94,124.94,0,0,0,1495,625a124.94,124.94,0,0,0-120.25,120.25A124.94,124.94,0,0,0,1254.49,625,124.29,124.29,0,0,0,1338.23,588.48Zm-51.85,124.88a124.22,124.22,0,0,0,77.56,36.13,125,125,0,0,0-114.07,119.88,125,125,0,0,0-114.08-119.88,124.94,124.94,0,0,0,114.08-119.87A124.31,124.31,0,0,0,1286.38,713.36ZM1130,744.86A120,120,0,0,1,1244.86,630,120,120,0,0,1,1130,744.86Zm79.82-204.7a119.35,119.35,0,0,1,35,79.82A120,120,0,0,1,1130,505.13,119.34,119.34,0,0,1,1209.82,540.16Zm-169.66,0a119.36,119.36,0,0,1,79.82-35A120,120,0,0,1,1005.13,620,119.38,119.38,0,0,1,1040.16,540.16Zm48.32,48.32A124.27,124.27,0,0,0,1125,504.74,124.94,124.94,0,0,0,1245.24,625,124.94,124.94,0,0,0,1125,745.24,124.94,124.94,0,0,0,1004.74,625,124.29,124.29,0,0,0,1088.48,588.48Zm-51.85,124.88a124.22,124.22,0,0,0,77.56,36.13,125,125,0,0,0-114.07,119.88A125,125,0,0,0,886,749.49a124.94,124.94,0,0,0,114.08-119.87A124.31,124.31,0,0,0,1036.63,713.36Zm-156.38,31.5A120,120,0,0,1,995.11,630,120,120,0,0,1,880.25,744.86Zm79.82-204.7a119.35,119.35,0,0,1,35,79.82A120,120,0,0,1,880.25,505.13,119.34,119.34,0,0,1,960.07,540.16Zm-169.66,0a119.36,119.36,0,0,1,79.82-35A120,120,0,0,1,755.38,620,119.38,119.38,0,0,1,790.41,540.16Zm48.32,48.32a124.27,124.27,0,0,0,36.51-83.74A124.94,124.94,0,0,0,995.49,625,124.94,124.94,0,0,0,875.24,745.24,124.94,124.94,0,0,0,755,625,124.29,124.29,0,0,0,838.73,588.48ZM786.88,713.36a124.22,124.22,0,0,0,77.56,36.13A125,125,0,0,0,750.37,869.37,125,125,0,0,0,636.29,749.49,124.94,124.94,0,0,0,750.37,629.62,124.31,124.31,0,0,0,786.88,713.36ZM630.5,744.86A120,120,0,0,1,745.36,630,120,120,0,0,1,630.5,744.86Zm79.82-204.7a119.35,119.35,0,0,1,35,79.82A120,120,0,0,1,630.5,505.13,119.34,119.34,0,0,1,710.32,540.16Zm-169.66,0a119.36,119.36,0,0,1,79.82-35A120,120,0,0,1,505.63,620,119.38,119.38,0,0,1,540.66,540.16ZM589,588.48a124.27,124.27,0,0,0,36.51-83.74A124.94,124.94,0,0,0,745.74,625,124.94,124.94,0,0,0,625.49,745.24,124.94,124.94,0,0,0,505.24,625,124.29,124.29,0,0,0,589,588.48ZM537.13,713.36a124.22,124.22,0,0,0,77.56,36.13A125,125,0,0,0,500.62,869.37,125,125,0,0,0,386.54,749.49,124.94,124.94,0,0,0,500.62,629.62,124.31,124.31,0,0,0,537.13,713.36Zm-156.38,31.5A120,120,0,0,1,495.61,630,120,120,0,0,1,380.75,744.86Zm79.82-204.7a119.35,119.35,0,0,1,35,79.82A120,120,0,0,1,380.75,505.13,119.34,119.34,0,0,1,460.57,540.16Zm-169.66,0a119.36,119.36,0,0,1,79.82-35A120,120,0,0,1,255.88,620,119.38,119.38,0,0,1,290.91,540.16Zm48.32,48.32a124.27,124.27,0,0,0,36.51-83.74A124.94,124.94,0,0,0,496,625,124.94,124.94,0,0,0,375.74,745.24,124.94,124.94,0,0,0,255.49,625,124.29,124.29,0,0,0,339.23,588.48ZM287.38,713.36a124.22,124.22,0,0,0,77.56,36.13A125,125,0,0,0,250.87,869.37,125,125,0,0,0,136.79,749.49,124.94,124.94,0,0,0,250.87,629.62,124.31,124.31,0,0,0,287.38,713.36ZM245.86,869A120,120,0,0,1,131,754.13,120,120,0,0,1,245.86,869ZM131,744.86A120,120,0,0,1,245.86,630,120,120,0,0,1,131,744.86Zm79.82-204.7a119.35,119.35,0,0,1,35,79.82A120,120,0,0,1,131,505.13,119.34,119.34,0,0,1,210.82,540.16Zm-169.66,0a119.36,119.36,0,0,1,79.82-35A119.36,119.36,0,0,1,86,585,119.36,119.36,0,0,1,6.13,620,119.38,119.38,0,0,1,41.16,540.16Zm48.32,48.32A124.27,124.27,0,0,0,126,504.74,124.94,124.94,0,0,0,246.24,625,124.94,124.94,0,0,0,126,745.24,124.31,124.31,0,0,0,89.48,661.5,124.29,124.29,0,0,0,5.74,625,124.29,124.29,0,0,0,89.48,588.48ZM41.16,709.82A119.34,119.34,0,0,1,6.13,630,119.33,119.33,0,0,1,86,665a119.34,119.34,0,0,1,35,79.82A119.33,119.33,0,0,1,41.16,709.82Zm0,79.34a119.36,119.36,0,0,1,79.82-35A119.36,119.36,0,0,1,86,834,119.36,119.36,0,0,1,6.13,869,119.38,119.38,0,0,1,41.16,789.16Zm48.32,48.32A124.27,124.27,0,0,0,126,753.74,124.94,124.94,0,0,0,246.24,874,124.94,124.94,0,0,0,126,994.24,124.31,124.31,0,0,0,89.48,910.5,124.29,124.29,0,0,0,5.74,874,124.29,124.29,0,0,0,89.48,837.48ZM41.16,958.82A119.34,119.34,0,0,1,6.13,879,119.33,119.33,0,0,1,86,914a119.34,119.34,0,0,1,35,79.82A119.33,119.33,0,0,1,41.16,958.82Zm1,77.34a119.36,119.36,0,0,1,79.82-35A119.36,119.36,0,0,1,87,1081a119.36,119.36,0,0,1-79.82,35A119.38,119.38,0,0,1,42.16,1036.16Zm48.32,48.32A124.27,124.27,0,0,0,127,1000.74,124.94,124.94,0,0,0,247.24,1121,124.94,124.94,0,0,0,127,1241.24a124.31,124.31,0,0,0-36.51-83.74A124.29,124.29,0,0,0,6.74,1121,124.29,124.29,0,0,0,90.48,1084.48ZM246.86,1126A120,120,0,0,1,132,1240.86,120,120,0,0,1,246.86,1126Zm-35,159.16a119.35,119.35,0,0,1,35,79.82A120,120,0,0,1,132,1250.13,119.34,119.34,0,0,1,211.82,1285.16ZM42.16,1205.82a119.34,119.34,0,0,1-35-79.82A119.33,119.33,0,0,1,87,1161a119.34,119.34,0,0,1,35,79.82A119.33,119.33,0,0,1,42.16,1205.82Zm0,79.34a119.36,119.36,0,0,1,79.82-35A119.36,119.36,0,0,1,87,1330a119.36,119.36,0,0,1-79.82,35A119.38,119.38,0,0,1,42.16,1285.16Zm0,169.66a119.34,119.34,0,0,1-35-79.82A119.33,119.33,0,0,1,87,1410a119.34,119.34,0,0,1,35,79.82A119.33,119.33,0,0,1,42.16,1454.82Zm169.66,0a119.31,119.31,0,0,1-79.82,35A120,120,0,0,1,246.86,1375,119.31,119.31,0,0,1,211.82,1454.82ZM163.5,1406.5A124.31,124.31,0,0,0,127,1490.24a124.31,124.31,0,0,0-36.51-83.74A124.29,124.29,0,0,0,6.74,1370a124.29,124.29,0,0,0,83.74-36.51A124.27,124.27,0,0,0,127,1249.74,124.94,124.94,0,0,0,247.24,1370,124.31,124.31,0,0,0,163.5,1406.5Zm51.86-124.87a124.31,124.31,0,0,0-77.57-36.14,124.94,124.94,0,0,0,114.08-119.87,124.95,124.95,0,0,0,114.07,119.87,125,125,0,0,0-114.07,119.88A124.29,124.29,0,0,0,215.36,1281.63Zm156.37-31.5A120,120,0,0,1,256.88,1365a120,120,0,0,1,114.85-114.85Zm-79.82,204.69a119.34,119.34,0,0,1-35-79.82,120,120,0,0,1,114.85,114.86A119.33,119.33,0,0,1,291.91,1454.82Zm169.66,0a119.31,119.31,0,0,1-79.82,35A120,120,0,0,1,496.61,1375,119.31,119.31,0,0,1,461.57,1454.82Zm-48.32-48.32a124.31,124.31,0,0,0-36.51,83.74A124.94,124.94,0,0,0,256.49,1370a124.94,124.94,0,0,0,120.25-120.25A124.94,124.94,0,0,0,497,1370,124.31,124.31,0,0,0,413.25,1406.5Zm51.86-124.87a124.31,124.31,0,0,0-77.57-36.14,124.94,124.94,0,0,0,114.08-119.87,124.95,124.95,0,0,0,114.07,119.87,125,125,0,0,0-114.07,119.88A124.29,124.29,0,0,0,465.11,1281.63Zm156.37-31.5A120,120,0,0,1,506.63,1365a120,120,0,0,1,114.85-114.85Zm-79.82,204.69a119.34,119.34,0,0,1-35-79.82,120,120,0,0,1,114.85,114.86A119.33,119.33,0,0,1,541.66,1454.82Zm169.66,0a119.31,119.31,0,0,1-79.82,35A120,120,0,0,1,746.36,1375,119.31,119.31,0,0,1,711.32,1454.82ZM663,1406.5a124.31,124.31,0,0,0-36.51,83.74A124.94,124.94,0,0,0,506.24,1370a124.94,124.94,0,0,0,120.25-120.25A124.94,124.94,0,0,0,746.74,1370,124.31,124.31,0,0,0,663,1406.5Zm51.86-124.87a124.31,124.31,0,0,0-77.57-36.14,124.94,124.94,0,0,0,114.08-119.87,124.95,124.95,0,0,0,114.07,119.87,125,125,0,0,0-114.07,119.88A124.29,124.29,0,0,0,714.86,1281.63Zm156.37-31.5A120,120,0,0,1,756.38,1365a120,120,0,0,1,114.85-114.85Zm-79.82,204.69a119.34,119.34,0,0,1-35-79.82,120,120,0,0,1,114.85,114.86A119.33,119.33,0,0,1,791.41,1454.82Zm169.66,0a119.31,119.31,0,0,1-79.82,35A120,120,0,0,1,996.11,1375,119.31,119.31,0,0,1,961.07,1454.82Zm-48.32-48.32a124.31,124.31,0,0,0-36.51,83.74A124.94,124.94,0,0,0,756,1370a124.94,124.94,0,0,0,120.25-120.25A124.94,124.94,0,0,0,996.49,1370,124.31,124.31,0,0,0,912.75,1406.5Zm51.86-124.87A124.31,124.31,0,0,0,887,1245.49a124.94,124.94,0,0,0,114.08-119.87,124.95,124.95,0,0,0,114.07,119.87,125,125,0,0,0-114.07,119.88A124.29,124.29,0,0,0,964.61,1281.63Zm156.37-31.5A120,120,0,0,1,1006.13,1365,120,120,0,0,1,1121,1250.13Zm-79.82,204.69a119.34,119.34,0,0,1-35-79.82A120,120,0,0,1,1121,1489.86,119.33,119.33,0,0,1,1041.16,1454.82Zm169.66,0a119.31,119.31,0,0,1-79.82,35A120,120,0,0,1,1245.86,1375,119.31,119.31,0,0,1,1210.82,1454.82Zm-48.32-48.32a124.31,124.31,0,0,0-36.51,83.74A124.94,124.94,0,0,0,1005.74,1370,124.94,124.94,0,0,0,1126,1249.74,124.94,124.94,0,0,0,1246.24,1370,124.31,124.31,0,0,0,1162.5,1406.5Zm51.86-124.87a124.31,124.31,0,0,0-77.57-36.14,124.94,124.94,0,0,0,114.08-119.87,124.95,124.95,0,0,0,114.07,119.87,125,125,0,0,0-114.07,119.88A124.29,124.29,0,0,0,1214.36,1281.63ZM1255.88,1126a120,120,0,0,1,114.85,114.86A120,120,0,0,1,1255.88,1126Zm114.85,124.13A120,120,0,0,1,1255.88,1365a120,120,0,0,1,114.85-114.85Zm-79.82,204.69a119.34,119.34,0,0,1-35-79.82,120,120,0,0,1,114.85,114.86A119.33,119.33,0,0,1,1290.91,1454.82Zm169.66,0a119.31,119.31,0,0,1-79.82,35A120,120,0,0,1,1495.61,1375,119.31,119.31,0,0,1,1460.57,1454.82Zm-48.32-48.32a124.31,124.31,0,0,0-36.51,83.74A124.94,124.94,0,0,0,1255.49,1370a124.94,124.94,0,0,0,120.25-120.25A124.94,124.94,0,0,0,1496,1370,124.31,124.31,0,0,0,1412.25,1406.5Zm48.32-121.34a119.35,119.35,0,0,1,35,79.82,120,120,0,0,1-114.86-114.85A119.34,119.34,0,0,1,1460.57,1285.16Zm0-79.34a119.31,119.31,0,0,1-79.82,35A120,120,0,0,1,1495.61,1126,119.31,119.31,0,0,1,1460.57,1205.82Zm-48.32-48.32a124.31,124.31,0,0,0-36.51,83.74A124.94,124.94,0,0,0,1255.49,1121a124.94,124.94,0,0,0,120.25-120.25A124.94,124.94,0,0,0,1496,1121,124.31,124.31,0,0,0,1412.25,1157.5Zm3.54-76.55a119.33,119.33,0,0,1-35-79.82A120,120,0,0,1,1495.61,1116,119.34,119.34,0,0,1,1415.79,1081Z" style="fill: #f7931e"/>
      <path d="M0,374.11l.05,2.36A125,125,0,0,0,122.51,498.94l2.37,0h.23l2.36,0a125,125,0,0,0,122.4-120.32A125,125,0,0,0,372.26,498.94l2.36,0h.24l2.36,0a125,125,0,0,0,122.4-120.32A125,125,0,0,0,622,498.94l2.37,0h.23l2.36,0a125,125,0,0,0,122.4-120.32A125,125,0,0,0,871.76,498.94l2.37,0h.23l2.36,0a125,125,0,0,0,122.4-120.32,125,125,0,0,0,122.39,120.32l2.37,0h.23l2.36,0a125,125,0,0,0,122.4-120.32,125,125,0,0,0,122.39,120.32l2.37,0h.23l2.36,0a125,125,0,0,0,122.46-122.47l0-2.36h0v-.23h0l0-2.37a125,125,0,0,0-114.14-122,124.94,124.94,0,0,0,114.14-122l0-2.36h0v-.23h0l0-2.37A125,125,0,0,0,1376.22.05l-2.36,0h-.23l-2.37.05a125,125,0,0,0-122.39,120.32A125,125,0,0,0,1126.47.05l-2.36,0h-.23l-2.37.05A125,125,0,0,0,999.12,120.37,125,125,0,0,0,876.72.05l-2.36,0h-.23l-2.37.05A125,125,0,0,0,749.37,120.37,125,125,0,0,0,627,.05l-2.36,0h-.23L622,.05A125,125,0,0,0,499.62,120.37,125,125,0,0,0,377.22.05l-2.36,0h-.24l-2.36.05A125,125,0,0,0,249.87,120.37,125,125,0,0,0,127.47.05l-2.36,0h-.23l-2.37.05A125,125,0,0,0,.05,122.51l0,2.37H0v.23H0l.05,2.36a125,125,0,0,0,114.14,122A125,125,0,0,0,.05,371.51l0,2.37H0v.23Zm40.16,84.71A119.34,119.34,0,0,1,5.13,379,119.33,119.33,0,0,1,85,414a119.34,119.34,0,0,1,35,79.82A119.33,119.33,0,0,1,40.16,458.82Zm169.66,0a119.31,119.31,0,0,1-79.82,35A120,120,0,0,1,244.86,379,119.31,119.31,0,0,1,209.82,458.82Zm80.09,0a119.34,119.34,0,0,1-35-79.82A120,120,0,0,1,369.73,493.86,119.33,119.33,0,0,1,289.91,458.82Zm169.66,0a119.31,119.31,0,0,1-79.82,35A120,120,0,0,1,494.61,379,119.31,119.31,0,0,1,459.57,458.82ZM411.25,410.5a124.31,124.31,0,0,0-36.51,83.74A124.94,124.94,0,0,0,254.49,374,124.94,124.94,0,0,0,374.74,253.74,124.94,124.94,0,0,0,495,374,124.31,124.31,0,0,0,411.25,410.5ZM254.88,369A120,120,0,0,1,369.73,254.13,120,120,0,0,1,254.88,369Zm35-159.16a119.34,119.34,0,0,1-35-79.82A120,120,0,0,1,369.73,244.86,119.33,119.33,0,0,1,289.91,209.82Zm89.84,44.31A120,120,0,0,1,494.61,369,120,120,0,0,1,379.75,254.13ZM539.66,458.82a119.34,119.34,0,0,1-35-79.82A120,120,0,0,1,619.48,493.86,119.33,119.33,0,0,1,539.66,458.82Zm169.66,0a119.31,119.31,0,0,1-79.82,35A120,120,0,0,1,744.36,379,119.31,119.31,0,0,1,709.32,458.82ZM661,410.5a124.31,124.31,0,0,0-36.51,83.74A124.94,124.94,0,0,0,504.24,374,124.94,124.94,0,0,0,624.49,253.74,124.94,124.94,0,0,0,744.74,374,124.31,124.31,0,0,0,661,410.5ZM504.63,369A120,120,0,0,1,619.48,254.13,120,120,0,0,1,504.63,369Zm35-159.16a119.34,119.34,0,0,1-35-79.82A120,120,0,0,1,619.48,244.86,119.33,119.33,0,0,1,539.66,209.82Zm89.84,44.31A120,120,0,0,1,744.36,369,120,120,0,0,1,629.5,254.13ZM789.41,458.82a119.34,119.34,0,0,1-35-79.82A120,120,0,0,1,869.23,493.86,119.33,119.33,0,0,1,789.41,458.82Zm169.66,0a119.31,119.31,0,0,1-79.82,35A120,120,0,0,1,994.11,379,119.31,119.31,0,0,1,959.07,458.82ZM910.75,410.5a124.31,124.31,0,0,0-36.51,83.74A124.94,124.94,0,0,0,754,374,124.94,124.94,0,0,0,874.24,253.74,124.94,124.94,0,0,0,994.49,374,124.31,124.31,0,0,0,910.75,410.5ZM754.38,369A120,120,0,0,1,869.23,254.13,120,120,0,0,1,754.38,369Zm35-159.16a119.34,119.34,0,0,1-35-79.82A120,120,0,0,1,869.23,244.86,119.33,119.33,0,0,1,789.41,209.82Zm89.84,44.31A120,120,0,0,1,994.11,369,120,120,0,0,1,879.25,254.13Zm159.91,204.69a119.34,119.34,0,0,1-35-79.82A120,120,0,0,1,1119,493.86,119.33,119.33,0,0,1,1039.16,458.82Zm169.66,0a119.31,119.31,0,0,1-79.82,35A120,120,0,0,1,1243.86,379,119.31,119.31,0,0,1,1208.82,458.82ZM1160.5,410.5A124.31,124.31,0,0,0,1124,494.24,124.94,124.94,0,0,0,1003.74,374,124.94,124.94,0,0,0,1124,253.74,124.94,124.94,0,0,0,1244.24,374,124.31,124.31,0,0,0,1160.5,410.5ZM1004.13,369A120,120,0,0,1,1119,254.13,120,120,0,0,1,1004.13,369Zm35-159.16a119.34,119.34,0,0,1-35-79.82A120,120,0,0,1,1119,244.86,119.33,119.33,0,0,1,1039.16,209.82ZM1129,254.13A120,120,0,0,1,1243.86,369,120,120,0,0,1,1129,254.13Zm159.91,204.69a119.34,119.34,0,0,1-35-79.82,120,120,0,0,1,114.85,114.86A119.33,119.33,0,0,1,1288.91,458.82Zm169.66,0a119.31,119.31,0,0,1-79.82,35A120,120,0,0,1,1493.61,379,119.31,119.31,0,0,1,1458.57,458.82Zm-48.32-48.32a124.31,124.31,0,0,0-36.51,83.74A124.94,124.94,0,0,0,1253.49,374a124.94,124.94,0,0,0,120.25-120.25A124.94,124.94,0,0,0,1494,374,124.31,124.31,0,0,0,1410.25,410.5ZM1253.88,369a120,120,0,0,1,114.85-114.85A120,120,0,0,1,1253.88,369Zm35-159.16a119.34,119.34,0,0,1-35-79.82,120,120,0,0,1,114.85,114.86A119.33,119.33,0,0,1,1288.91,209.82Zm169.66,79.34a119.35,119.35,0,0,1,35,79.82,120,120,0,0,1-114.86-114.85A119.34,119.34,0,0,1,1458.57,289.16Zm0-79.34a119.31,119.31,0,0,1-79.82,35A120,120,0,0,1,1493.61,130,119.31,119.31,0,0,1,1458.57,209.82Zm0-169.66a119.35,119.35,0,0,1,35,79.82,119.34,119.34,0,0,1-79.82-35,119.33,119.33,0,0,1-35-79.82A119.34,119.34,0,0,1,1458.57,40.16Zm-169.66,0a119.36,119.36,0,0,1,79.82-35,119.36,119.36,0,0,1-35,79.82,119.36,119.36,0,0,1-79.82,35A119.38,119.38,0,0,1,1288.91,40.16Zm48.32,48.32a124.27,124.27,0,0,0,36.51-83.74,124.27,124.27,0,0,0,36.51,83.74A124.31,124.31,0,0,0,1494,125a124.94,124.94,0,0,0-120.25,120.25A124.94,124.94,0,0,0,1253.49,125,124.29,124.29,0,0,0,1337.23,88.48Zm-51.85,124.88a124.22,124.22,0,0,0,77.56,36.13,125,125,0,0,0-114.07,119.88,125,125,0,0,0-114.08-119.88,124.94,124.94,0,0,0,114.08-119.87A124.31,124.31,0,0,0,1285.38,213.36ZM1129,244.86A120,120,0,0,1,1243.86,130,120,120,0,0,1,1129,244.86Zm79.82-204.7a119.35,119.35,0,0,1,35,79.82A119.34,119.34,0,0,1,1164,85a119.33,119.33,0,0,1-35-79.82A119.34,119.34,0,0,1,1208.82,40.16Zm-169.66,0a119.36,119.36,0,0,1,79.82-35A119.36,119.36,0,0,1,1084,85a119.36,119.36,0,0,1-79.82,35A119.38,119.38,0,0,1,1039.16,40.16Zm48.32,48.32A124.27,124.27,0,0,0,1124,4.74a124.27,124.27,0,0,0,36.51,83.74A124.31,124.31,0,0,0,1244.24,125,124.94,124.94,0,0,0,1124,245.24,124.94,124.94,0,0,0,1003.74,125,124.29,124.29,0,0,0,1087.48,88.48Zm-51.85,124.88a124.22,124.22,0,0,0,77.56,36.13A125,125,0,0,0,999.12,369.37,125,125,0,0,0,885,249.49,124.94,124.94,0,0,0,999.12,129.62,124.31,124.31,0,0,0,1035.63,213.36Zm-156.38,31.5A120,120,0,0,1,994.11,130,120,120,0,0,1,879.25,244.86Zm79.82-204.7a119.35,119.35,0,0,1,35,79.82,119.34,119.34,0,0,1-79.82-35,119.33,119.33,0,0,1-35-79.82A119.34,119.34,0,0,1,959.07,40.16Zm-169.66,0a119.36,119.36,0,0,1,79.82-35A119.36,119.36,0,0,1,834.2,85a119.36,119.36,0,0,1-79.82,35A119.38,119.38,0,0,1,789.41,40.16Zm48.32,48.32A124.27,124.27,0,0,0,874.24,4.74a124.27,124.27,0,0,0,36.51,83.74A124.31,124.31,0,0,0,994.49,125,124.94,124.94,0,0,0,874.24,245.24,124.94,124.94,0,0,0,754,125,124.29,124.29,0,0,0,837.73,88.48ZM785.88,213.36a124.22,124.22,0,0,0,77.56,36.13A125,125,0,0,0,749.37,369.37,125,125,0,0,0,635.29,249.49,124.94,124.94,0,0,0,749.37,129.62,124.31,124.31,0,0,0,785.88,213.36ZM629.5,244.86A120,120,0,0,1,744.36,130,120,120,0,0,1,629.5,244.86Zm79.82-204.7a119.35,119.35,0,0,1,35,79.82,119.34,119.34,0,0,1-79.82-35,119.33,119.33,0,0,1-35-79.82A119.34,119.34,0,0,1,709.32,40.16Zm-169.66,0a119.36,119.36,0,0,1,79.82-35,119.36,119.36,0,0,1-35,79.82,119.36,119.36,0,0,1-79.82,35A119.38,119.38,0,0,1,539.66,40.16ZM588,88.48A124.27,124.27,0,0,0,624.49,4.74,124.27,124.27,0,0,0,661,88.48,124.31,124.31,0,0,0,744.74,125,124.94,124.94,0,0,0,624.49,245.24,124.94,124.94,0,0,0,504.24,125,124.29,124.29,0,0,0,588,88.48ZM536.13,213.36a124.22,124.22,0,0,0,77.56,36.13A125,125,0,0,0,499.62,369.37,125,125,0,0,0,385.54,249.49,124.94,124.94,0,0,0,499.62,129.62,124.31,124.31,0,0,0,536.13,213.36Zm-156.38,31.5A120,120,0,0,1,494.61,130,120,120,0,0,1,379.75,244.86Zm79.82-204.7a119.35,119.35,0,0,1,35,79.82,119.34,119.34,0,0,1-79.82-35,119.33,119.33,0,0,1-35-79.82A119.34,119.34,0,0,1,459.57,40.16Zm-169.66,0a119.36,119.36,0,0,1,79.82-35A119.36,119.36,0,0,1,334.7,85a119.36,119.36,0,0,1-79.82,35A119.38,119.38,0,0,1,289.91,40.16Zm48.32,48.32A124.27,124.27,0,0,0,374.74,4.74a124.27,124.27,0,0,0,36.51,83.74A124.31,124.31,0,0,0,495,125,124.94,124.94,0,0,0,374.74,245.24,124.94,124.94,0,0,0,254.49,125,124.29,124.29,0,0,0,338.23,88.48ZM286.38,213.36a124.22,124.22,0,0,0,77.56,36.13A125,125,0,0,0,249.87,369.37,125,125,0,0,0,135.79,249.49,124.94,124.94,0,0,0,249.87,129.62,124.31,124.31,0,0,0,286.38,213.36ZM244.86,369A120,120,0,0,1,130,254.13,120,120,0,0,1,244.86,369ZM130,244.86A120,120,0,0,1,244.86,130,120,120,0,0,1,130,244.86Zm79.82-204.7a119.35,119.35,0,0,1,35,79.82A119.34,119.34,0,0,1,165,85,119.33,119.33,0,0,1,130,5.13,119.34,119.34,0,0,1,209.82,40.16Zm-169.66,0A119.36,119.36,0,0,1,120,5.13,119.36,119.36,0,0,1,85,85,119.36,119.36,0,0,1,5.13,120,119.38,119.38,0,0,1,40.16,40.16ZM88.48,88.48A124.27,124.27,0,0,0,125,4.74,124.27,124.27,0,0,0,161.5,88.48,124.31,124.31,0,0,0,245.24,125,124.94,124.94,0,0,0,125,245.24,124.31,124.31,0,0,0,88.48,161.5,124.29,124.29,0,0,0,4.74,125,124.29,124.29,0,0,0,88.48,88.48ZM40.16,209.82A119.34,119.34,0,0,1,5.13,130,119.33,119.33,0,0,1,85,165a119.34,119.34,0,0,1,35,79.82A119.33,119.33,0,0,1,40.16,209.82Zm0,79.34a119.36,119.36,0,0,1,79.82-35A119.36,119.36,0,0,1,85,334,119.36,119.36,0,0,1,5.13,369,119.38,119.38,0,0,1,40.16,289.16Zm48.32,48.32A124.27,124.27,0,0,0,125,253.74,124.94,124.94,0,0,0,245.24,374,124.94,124.94,0,0,0,125,494.24,124.31,124.31,0,0,0,88.48,410.5,124.29,124.29,0,0,0,4.74,374,124.29,124.29,0,0,0,88.48,337.48Z" style="fill: #f7931e"/>
    </g>
  </g>  <g id="base">
    <rect y="1330.87" width="1500" height="168.98" style="fill: #00a651"/>
  </g>  <g id="land">
    <rect x="0.46" y="1028.55" width="1500.11" height="302.58" style="fill: #ffe600"/>
  </g>  <g id="city">
    <line x1="0.12" y1="1028.95" x2="1500.12" y2="1028.95" style="fill: #ffc0f9;stroke: #000;stroke-miterlimit: 10;stroke-width: 3px"/>
    <path d="M1169.42,348.81h-42s-1-13-11-13-9,10-9,10-7-25-28-25-30,26-30,26-16-4-20,2-3,17-3,17h-36" style="fill: none;stroke: #000;stroke-miterlimit: 10;stroke-width: 3px"/>
    <path d="M226.92,323.81s9.23-16.19,21.61-17.59S266.36,324,266.36,324s6.52-12.93,17-14.58,21.52,14.35,21.52,14.35" style="fill: none;stroke: #000;stroke-miterlimit: 10;stroke-width: 3px"/>
    <path d="M846.15,240.08l8.27,2.23-5.5,1.48a8.52,8.52,0,0,0-6,6l-1.48,5.5-1.76-6.54a6.66,6.66,0,0,0-4.7-4.7l-6.54-1.76,6.48-1.75a6.73,6.73,0,0,0,4.77-4.77l1.75-6.48,2.23,8.27A3.53,3.53,0,0,0,846.15,240.08Z" style="fill: none;stroke: #000;stroke-miterlimit: 10;stroke-width: 2px"/>
    <path d="M492.15,172.08l8.27,2.23-5.5,1.48a8.52,8.52,0,0,0-6,6l-1.48,5.5-1.76-6.54a6.66,6.66,0,0,0-4.7-4.7l-6.54-1.76,6.48-1.75a6.73,6.73,0,0,0,4.77-4.77l1.75-6.48,2.23,8.27A3.53,3.53,0,0,0,492.15,172.08Z" style="fill: none;stroke: #000;stroke-miterlimit: 10;stroke-width: 2px"/>
    <path d="M1260.15,370.08l8.27,2.23-5.5,1.48a8.52,8.52,0,0,0-6,6l-1.48,5.5-1.76-6.54a6.66,6.66,0,0,0-4.7-4.7l-6.54-1.76,6.48-1.75a6.73,6.73,0,0,0,4.77-4.77l1.75-6.48,2.23,8.27A3.53,3.53,0,0,0,1260.15,370.08Z" style="fill: none;stroke: #000;stroke-miterlimit: 10;stroke-width: 2px"/>
    <path d="M980.36,217.37s.71-9.26,7.84-9.26,6.41,7.12,6.41,7.12,5-17.82,20-17.82S1036,216,1036,216s11.41-2.85,14.26,1.42,2.14,12.12,2.14,12.12" style="fill: none;stroke: #000;stroke-miterlimit: 10;stroke-width: 3px"/>
    <path d="M573.15,522.08l8.27,2.23-5.5,1.48a8.52,8.52,0,0,0-6,6l-1.48,5.5-1.76-6.54a6.66,6.66,0,0,0-4.7-4.7l-6.54-1.76,6.48-1.75a6.73,6.73,0,0,0,4.77-4.77l1.75-6.48,2.23,8.27A3.53,3.53,0,0,0,573.15,522.08Z" style="fill: none;stroke: #000;stroke-miterlimit: 10;stroke-width: 2px"/>
    <path d="M396.15,453.08l8.27,2.23-5.5,1.48a8.52,8.52,0,0,0-6,6l-1.48,5.5-1.76-6.54a6.66,6.66,0,0,0-4.7-4.7l-6.54-1.76,6.48-1.75a6.73,6.73,0,0,0,4.77-4.77l1.75-6.48,2.23,8.27A3.53,3.53,0,0,0,396.15,453.08Z" style="fill: none;stroke: #000;stroke-miterlimit: 10;stroke-width: 2px"/>
    <path d="M1148.15,280.08l8.27,2.23-5.5,1.48a8.52,8.52,0,0,0-6,6l-1.48,5.5-1.76-6.54a6.66,6.66,0,0,0-4.7-4.7l-6.54-1.76,6.48-1.75a6.73,6.73,0,0,0,4.77-4.77l1.75-6.48,2.23,8.27A3.53,3.53,0,0,0,1148.15,280.08Z" style="fill: none;stroke: #000;stroke-miterlimit: 10;stroke-width: 2px"/>
    <g>
      <polyline points="306.62 748.49 321.88 654.58 414.63 654.58 425.19 748.49" style="fill: #ffc299;stroke: #000;stroke-miterlimit: 10;stroke-width: 3px"/>
      <polygon points="126.42 1027.31 606.57 1027.31 606.57 967.43 588.96 938.09 147.55 938.09 126.42 967.43 126.42 1027.31" style="fill: #ffc299;stroke: #000;stroke-miterlimit: 10;stroke-width: 3px"/>
      <line x1="516.76" y1="937.5" x2="516.76" y2="1027.31" style="fill: #ffc299;stroke: #000;stroke-miterlimit: 10;stroke-width: 3px"/>
      <line x1="428.66" y1="938.09" x2="428.66" y2="1027.31" style="fill: #ffc299;stroke: #000;stroke-miterlimit: 10;stroke-width: 3px"/>
      <line x1="303.03" y1="938.09" x2="303.03" y2="1027.31" style="fill: #ffc299;stroke: #000;stroke-miterlimit: 10;stroke-width: 3px"/>
      <line x1="218.08" y1="1027.31" x2="218.08" y2="938.09" style="fill: #ffc299;stroke: #000;stroke-miterlimit: 10;stroke-width: 3px"/>
      <line x1="127.01" y1="966.85" x2="607.15" y2="966.85" style="fill: #ffc299;stroke: #000;stroke-miterlimit: 10;stroke-width: 3px"/>
      <rect x="154.01" y="989.15" width="9.39" height="12.91" style="fill: #ffc299;stroke: #000;stroke-miterlimit: 10;stroke-width: 3px"/>
      <rect x="188.05" y="989.15" width="11.74" height="12.91" style="fill: #ffc299;stroke: #000;stroke-miterlimit: 10;stroke-width: 3px"/>
      <path d="M229.14,1018.5v-34s5.87-10.57,9.39-10.57,8.22,9.39,8.22,9.39v35.22Z" style="fill: #ffc299;stroke: #000;stroke-miterlimit: 10;stroke-width: 3px"/>
      <polyline points="257.31 973.89 273.75 993.85 308.97 993.85" style="fill: #ffc299;stroke: #000;stroke-miterlimit: 10;stroke-width: 3px"/>
      <line x1="325.4" y1="966.85" x2="325.4" y2="1027.31" style="fill: #ffc299;stroke: #000;stroke-miterlimit: 10;stroke-width: 3px"/>
      <polyline points="428.66 993.85 459.24 993.85 481.31 966.85" style="fill: #ffc299;stroke: #000;stroke-miterlimit: 10;stroke-width: 3px"/>
      <rect x="533.2" y="989.15" width="11.74" height="12.91" style="fill: #ffc299;stroke: #000;stroke-miterlimit: 10;stroke-width: 3px"/>
      <rect x="570.76" y="989.15" width="8.22" height="12.91" style="fill: #ffc299;stroke: #000;stroke-miterlimit: 10;stroke-width: 3px"/>
      <g>
        <path d="M526.15,899.93s-8.22-9.39-9.39-17.61,34-32.87,34-32.87,35.22,27,35.22,32.87c0,12.92-11.74,16.44-11.74,16.44Z" style="fill: #8cc63f;stroke: #000;stroke-miterlimit: 10;stroke-width: 3px"/>
        <rect x="530.26" y="899.35" width="39.91" height="11.74" style="fill: #ffc299;stroke: #000;stroke-miterlimit: 10;stroke-width: 3px"/>
        <rect x="530.26" y="911.09" width="39.91" height="25.83" style="fill: #ffc299;stroke: #000;stroke-miterlimit: 10;stroke-width: 3px"/>
        <line x1="550.32" y1="804.25" x2="550.32" y2="850.04" style="fill: #ffc299;stroke: #000;stroke-miterlimit: 10;stroke-width: 3px"/>
        <line x1="543.86" y1="811.3" x2="556.77" y2="811.3" style="fill: #ffc299;stroke: #000;stroke-miterlimit: 10;stroke-width: 2px"/>
        <circle cx="550.32" cy="831.55" r="3.23" style="fill: #ffc299;stroke: #000;stroke-miterlimit: 10;stroke-width: 3px"/>
        <line x1="544.93" y1="853.72" x2="544.93" y2="899.35" style="fill: #ffc299;stroke: #000;stroke-miterlimit: 10;stroke-width: 3px"/>
        <line x1="556.09" y1="853.72" x2="556.09" y2="899.15" style="fill: #ffc299;stroke: #000;stroke-miterlimit: 10;stroke-width: 3px"/>
        <line x1="564.75" y1="860.61" x2="564.75" y2="897" style="fill: #ffc299;stroke: #000;stroke-miterlimit: 10;stroke-width: 3px"/>
        <line x1="573.21" y1="867.85" x2="573.21" y2="899.35" style="fill: #ffc299;stroke: #000;stroke-miterlimit: 10;stroke-width: 3px"/>
        <line x1="536.03" y1="860.61" x2="536.03" y2="899.35" style="fill: #ffc299;stroke: #000;stroke-miterlimit: 10;stroke-width: 3px"/>
        <line x1="527.52" y1="867.85" x2="527.52" y2="899.35" style="fill: #ffc299;stroke: #000;stroke-miterlimit: 10;stroke-width: 3px"/>
      </g>
      <g>
        <path d="M158.7,901.11s-8.21-9.4-9.39-17.61,34.05-32.87,34.05-32.87,35.21,27,35.21,32.87c0,12.91-11.73,16.43-11.73,16.43Z" style="fill: #7ac943;stroke: #000;stroke-miterlimit: 10;stroke-width: 3px"/>
        <rect x="162.81" y="900.52" width="39.91" height="11.74" style="fill: #ffc299;stroke: #000;stroke-miterlimit: 10;stroke-width: 3px"/>
        <rect x="162.81" y="912.26" width="39.91" height="25.83" style="fill: #ffc299;stroke: #000;stroke-miterlimit: 10;stroke-width: 3px"/>
        <line x1="182.87" y1="805.43" x2="182.87" y2="851.21" style="fill: #ffc299;stroke: #000;stroke-miterlimit: 10;stroke-width: 3px"/>
        <line x1="176.41" y1="812.47" x2="189.32" y2="812.47" style="fill: #ffc299;stroke: #000;stroke-miterlimit: 10;stroke-width: 2px"/>
        <circle cx="182.87" cy="832.72" r="3.23" style="fill: #ffc299;stroke: #000;stroke-miterlimit: 10;stroke-width: 3px"/>
        <line x1="177.49" y1="854.89" x2="177.49" y2="900.52" style="fill: #ffc299;stroke: #000;stroke-miterlimit: 10;stroke-width: 3px"/>
        <line x1="188.64" y1="854.89" x2="188.64" y2="900.32" style="fill: #ffc299;stroke: #000;stroke-miterlimit: 10;stroke-width: 3px"/>
        <line x1="197.3" y1="861.79" x2="197.3" y2="898.17" style="fill: #ffc299;stroke: #000;stroke-miterlimit: 10;stroke-width: 3px"/>
        <line x1="205.77" y1="869.02" x2="205.77" y2="900.52" style="fill: #ffc299;stroke: #000;stroke-miterlimit: 10;stroke-width: 3px"/>
        <line x1="168.58" y1="861.79" x2="168.58" y2="900.52" style="fill: #ffc299;stroke: #000;stroke-miterlimit: 10;stroke-width: 3px"/>
        <line x1="160.07" y1="869.02" x2="160.07" y2="900.52" style="fill: #ffc299;stroke: #000;stroke-miterlimit: 10;stroke-width: 3px"/>
      </g>
      <g>
        <rect x="215.05" y="928.11" width="88.05" height="8.22" style="fill: #ffc299;stroke: #000;stroke-miterlimit: 10;stroke-width: 3px"/>
        <rect x="218.57" y="919.89" width="84.52" height="8.22" style="fill: #ffc299;stroke: #000;stroke-miterlimit: 10;stroke-width: 3px"/>
        <rect x="223.27" y="911.67" width="79.83" height="7.04" style="fill: #ffc299;stroke: #000;stroke-miterlimit: 10;stroke-width: 3px"/>
        <rect x="223.27" y="838.89" width="79.83" height="70.44" style="fill: #ffc299;stroke: #000;stroke-miterlimit: 10;stroke-width: 3px"/>
        <path d="M249.1,837.71V827.15s1.17-10.57,11.74-10.57,12.91,10.57,12.91,10.57v10.56" style="fill: #8cc63f;stroke: #000;stroke-miterlimit: 10;stroke-width: 3px"/>
        <path d="M223.27,838.3V827.73s1.17-10.56,11.74-10.56,12.91,10.56,12.91,10.56V838.3" style="fill: #8cc63f;stroke: #000;stroke-miterlimit: 10;stroke-width: 3px"/>
        <path d="M276.1,837.13V826.56S277.27,816,287.84,816s12.91,10.57,12.91,10.57v10.57" style="fill: #8cc63f;stroke: #000;stroke-miterlimit: 10;stroke-width: 3px"/>
        <polyline points="222.68 908.74 235.6 838.89 249.69 906.39 263.19 838.89 276.69 906.39 290.77 840.65 302.51 908.74" style="fill: #c69c6d;stroke: #000;stroke-linejoin: round;stroke-width: 3px"/>
        <polyline points="235.6 817.17 235.6 779.6 290.77 779.6 290.77 814.82" style="fill: #ffc299;stroke: #000;stroke-miterlimit: 10;stroke-width: 3px"/>
        <polyline points="244.4 813.06 244.4 787.23 253.79 787.23 253.79 810.71" style="fill: #ffc299;stroke: #000;stroke-miterlimit: 10;stroke-width: 3px"/>
        <polyline points="259.66 813.06 259.66 787.23 264.36 787.23" style="fill: #ffc299;stroke: #000;stroke-miterlimit: 10;stroke-width: 3px"/>
        <polyline points="273.75 787.23 278.45 787.23 278.45 813.06" style="fill: #ffc299;stroke: #000;stroke-miterlimit: 10;stroke-width: 3px"/>
        <polygon points="229.14 768.45 296.06 768.45 291.36 780.19 236.18 780.19 229.14 768.45" style="fill: #ffc299;stroke: #000;stroke-miterlimit: 10;stroke-width: 3px"/>
        <path d="M294.88,768.45s9.39-11.74,12.92-16.44,4.69-12.91,2.34-18.78-46.95-44.61-46.95-44.61l-48.14,41.09s-5.87,12.91,0,21.13,14.09,17.61,14.09,17.61" style="fill: #3fa9f5;stroke: #000;stroke-miterlimit: 10;stroke-width: 3px"/>
        <line x1="262.7" y1="630.51" x2="262.7" y2="688.03" style="fill: #ffc299;stroke: #000;stroke-miterlimit: 10;stroke-width: 3px"/>
        <line x1="255.55" y1="637.55" x2="268.47" y2="637.55" style="fill: #ffc299;stroke: #000;stroke-miterlimit: 10;stroke-width: 2px"/>
        <circle cx="262.7" cy="662.5" r="3.23" style="fill: #ffc299;stroke: #000;stroke-miterlimit: 10;stroke-width: 3px"/>
        <path d="M278.45,702.71s18.78,22.22,18.78,30.52c0,10.57-2.35,12.91-5.87,17.61-5.5,7.34-13.87,17.61-13.87,17.61" style="fill: #fff;stroke: #000;stroke-linejoin: round;stroke-width: 3px"/>
        <path d="M246.75,702.71S228,724.93,228,733.23c0,10.57,2.34,12.91,5.87,17.61,5.5,7.34,13.87,17.61,13.87,17.61" style="fill: #fff;stroke: #000;stroke-linejoin: round;stroke-width: 3px"/>
        <path d="M259.66,692.14s-11.74,20-15.26,28.18-4.69,9.39-3.52,15.26,12.91,31.7,12.91,31.7" style="fill: #3fa9f5;stroke: #000;stroke-miterlimit: 10;stroke-width: 3px"/>
        <path d="M265.53,692.14s11.74,20,15.26,28.18,4.7,9.39,3.53,15.26-12.92,31.7-12.92,31.7" style="fill: #3fa9f5;stroke: #000;stroke-miterlimit: 10;stroke-width: 3px"/>
        <path d="M262,691s-8.8,22.89-8.8,40.5,8.21,37,8.21,37,9.4-20.54,9.4-35.81S263.19,691,263.19,691" style="fill: #fff;stroke: #000;stroke-linejoin: round;stroke-width: 3px"/>
      </g>
      <g>
        <rect x="428.5" y="928.11" width="88.05" height="8.22" transform="translate(945.05 1864.43) rotate(-180)" style="fill: #ffc299;stroke: #000;stroke-miterlimit: 10;stroke-width: 3px"/>
        <rect x="428.5" y="919.89" width="84.52" height="8.22" transform="translate(941.52 1848) rotate(-180)" style="fill: #ffc299;stroke: #000;stroke-miterlimit: 10;stroke-width: 3px"/>
        <rect x="428.5" y="911.67" width="79.83" height="7.04" transform="translate(936.83 1830.39) rotate(-180)" style="fill: #ffc299;stroke: #000;stroke-miterlimit: 10;stroke-width: 3px"/>
        <rect x="428.5" y="838.89" width="79.83" height="70.44" transform="translate(936.83 1748.21) rotate(-180)" style="fill: #ffc299;stroke: #000;stroke-miterlimit: 10;stroke-width: 3px"/>
        <path d="M482.5,837.71V827.15s-1.17-10.57-11.74-10.57-12.91,10.57-12.91,10.57v10.56" style="fill: #7ac943;stroke: #000;stroke-miterlimit: 10;stroke-width: 3px"/>
        <path d="M508.33,838.3V827.73s-1.17-10.56-11.74-10.56-12.91,10.56-12.91,10.56V838.3" style="fill: #7ac943;stroke: #000;stroke-miterlimit: 10;stroke-width: 3px"/>
        <path d="M455.5,837.13V826.56S454.33,816,443.76,816s-12.91,10.57-12.91,10.57v10.57" style="fill: #7ac943;stroke: #000;stroke-miterlimit: 10;stroke-width: 3px"/>
        <polyline points="508.92 908.74 496 838.89 481.92 906.39 468.41 838.89 454.91 906.39 440.83 840.65 429.09 908.74" style="fill: #a67c52;stroke: #000;stroke-linejoin: round;stroke-width: 3px"/>
        <polyline points="496 817.17 496 779.6 440.83 779.6 440.83 814.82" style="fill: #ffc299;stroke: #000;stroke-miterlimit: 10;stroke-width: 3px"/>
        <polyline points="487.2 813.06 487.2 787.23 477.81 787.23 477.81 810.71" style="fill: #ffc299;stroke: #000;stroke-miterlimit: 10;stroke-width: 3px"/>
        <polyline points="471.94 813.06 471.94 787.23 467.24 787.23" style="fill: #ffc299;stroke: #000;stroke-miterlimit: 10;stroke-width: 3px"/>
        <polyline points="457.85 787.23 453.15 787.23 453.15 813.06" style="fill: #ffc299;stroke: #000;stroke-miterlimit: 10;stroke-width: 3px"/>
        <polygon points="502.46 768.45 435.54 768.45 440.24 780.19 495.42 780.19 502.46 768.45" style="fill: #ffc299;stroke: #000;stroke-miterlimit: 10;stroke-width: 3px"/>
        <path d="M436.72,768.45S427.33,756.71,423.8,752s-4.69-12.91-2.34-18.78,47-44.61,47-44.61l48.14,41.09s5.87,12.91,0,21.13-14.09,17.61-14.09,17.61" style="fill: #f7931e;stroke: #000;stroke-miterlimit: 10;stroke-width: 3px"/>
        <line x1="468.9" y1="630.51" x2="468.9" y2="688.03" style="fill: #ffc299;stroke: #000;stroke-miterlimit: 10;stroke-width: 3px"/>
        <line x1="476.05" y1="637.55" x2="463.13" y2="637.55" style="fill: #ffc299;stroke: #000;stroke-miterlimit: 10;stroke-width: 2px"/>
        <circle cx="468.9" cy="662.5" r="3.23" style="fill: #ffc299;stroke: #000;stroke-miterlimit: 10;stroke-width: 3px"/>
        <path d="M453.15,702.71s-18.78,22.22-18.78,30.52c0,10.57,2.35,12.91,5.87,17.61,5.5,7.34,13.87,17.61,13.87,17.61" style="fill: #7ac943;stroke: #000;stroke-linejoin: round;stroke-width: 3px"/>
        <path d="M484.85,702.71s18.78,22.22,18.78,30.52c0,10.57-2.34,12.91-5.87,17.61-5.5,7.34-13.87,17.61-13.87,17.61" style="fill: #7ac943;stroke: #000;stroke-linejoin: round;stroke-width: 3px"/>
        <path d="M466.07,692.14s-11.74,20-15.26,28.18-4.7,9.39-3.53,15.26,12.92,31.7,12.92,31.7" style="fill: #f7931e;stroke: #000;stroke-miterlimit: 10;stroke-width: 3px"/>
        <path d="M471.94,692.14s11.74,20,15.26,28.18,4.69,9.39,3.52,15.26-12.91,31.7-12.91,31.7" style="fill: #f7931e;stroke: #000;stroke-miterlimit: 10;stroke-width: 3px"/>
        <path d="M469.59,691s8.8,22.89,8.8,40.5-8.21,37-8.21,37-9.4-20.54-9.4-35.81S468.41,691,468.41,691" style="fill: #7ac943;stroke: #000;stroke-linejoin: round;stroke-width: 3px"/>
      </g>
      <rect x="302.51" y="811.3" width="125.61" height="124.44" style="fill: #ff9a55;stroke: #000;stroke-miterlimit: 10;stroke-width: 3px"/>
      <path d="M333.14,861.78h3.31a9.5,9.5,0,0,1,9.5,9.5v39.81a0,0,0,0,1,0,0H323.64a0,0,0,0,1,0,0V871.28A9.5,9.5,0,0,1,333.14,861.78Z" style="fill: #ffc299;stroke: #000;stroke-miterlimit: 10;stroke-width: 3px"/>
      <path d="M364.25,862.37h3.31a9.5,9.5,0,0,1,9.5,9.5v39.81a0,0,0,0,1,0,0H354.75a0,0,0,0,1,0,0V871.87A9.5,9.5,0,0,1,364.25,862.37Z" style="fill: #ffc299;stroke: #000;stroke-miterlimit: 10;stroke-width: 3px"/>
      <path d="M397.12,862.37h3.31a9.5,9.5,0,0,1,9.5,9.5v39.81a0,0,0,0,1,0,0H387.62a0,0,0,0,1,0,0V871.87A9.5,9.5,0,0,1,397.12,862.37Z" style="fill: #ffc299;stroke: #000;stroke-miterlimit: 10;stroke-width: 3px"/>
      <line x1="303.1" y1="911.67" x2="428.5" y2="911.67" style="fill: #ffc299;stroke: #000;stroke-miterlimit: 10;stroke-width: 3px"/>
      <rect x="313.67" y="835.36" width="104.48" height="18.78" style="fill: #ffc299;stroke: #000;stroke-miterlimit: 10;stroke-width: 3px"/>
      <rect x="319.54" y="748.49" width="42.26" height="61.05" style="fill: #ffc299;stroke: #000;stroke-miterlimit: 10;stroke-width: 3px"/>
      <rect x="373.54" y="748.49" width="41.09" height="61.05" style="fill: #ffc299;stroke: #000;stroke-miterlimit: 10;stroke-width: 3px"/>
      <rect x="386.45" y="780.19" width="14.09" height="23.48" style="fill: #ffc299;stroke: #000;stroke-miterlimit: 10;stroke-width: 3px"/>
      <rect x="334.8" y="780.19" width="12.91" height="23.48" style="fill: #ffc299;stroke: #000;stroke-miterlimit: 10;stroke-width: 3px"/>
      <line x1="311.37" y1="748.49" x2="420.5" y2="748.49" style="fill: #ffc299;stroke: #000;stroke-miterlimit: 10;stroke-width: 3px"/>
      <path d="M425.19,759.06v51.65" style="fill: #ffc299;stroke: #000;stroke-miterlimit: 10;stroke-width: 3px"/>
      <line x1="308" y1="810.71" x2="308" y2="752.01" style="fill: #ffc299;stroke: #000;stroke-miterlimit: 10;stroke-width: 3px"/>
      <polyline points="325.4 652.23 355.93 563.01 361.8 563.01 375.88 563.01 411.1 652.23" style="fill: #ffc299;stroke: #000;stroke-miterlimit: 10;stroke-width: 3px"/>
      <line x1="343.38" y1="652.23" x2="361.8" y2="563.01" style="fill: #ffc299;stroke: #000;stroke-miterlimit: 10;stroke-width: 3px"/>
      <line x1="367.08" y1="652.23" x2="368.25" y2="563.01" style="fill: #ffc299;stroke: #000;stroke-miterlimit: 10;stroke-width: 3px"/>
      <line x1="388.05" y1="652.23" x2="373.54" y2="563.01" style="fill: #ffc299;stroke: #000;stroke-miterlimit: 10;stroke-width: 3px"/>
      <path d="M319.54,743.8s1.17-20,15.26-18.79,15.26,18.79,15.26,18.79" style="fill: none;stroke: #000;stroke-miterlimit: 10;stroke-width: 3px"/>
      <path d="M351.23,743.8s1.18-20,15.26-18.79,15.26,18.79,15.26,18.79" style="fill: none;stroke: #000;stroke-miterlimit: 10;stroke-width: 3px"/>
      <path d="M382.93,743.8s1.17-20,15.26-18.79,15.26,18.79,15.26,18.79" style="fill: none;stroke: #000;stroke-miterlimit: 10;stroke-width: 3px"/>
      <g>
        <path d="M319.54,726.19s1.17-20,15.26-18.79,15.26,18.79,15.26,18.79" style="fill: none;stroke: #000;stroke-miterlimit: 10;stroke-width: 3px"/>
        <path d="M351.23,726.19s1.18-20,15.26-18.79,15.26,18.79,15.26,18.79" style="fill: none;stroke: #000;stroke-miterlimit: 10;stroke-width: 3px"/>
        <path d="M382.93,726.19s1.17-20,15.26-18.79,15.26,18.79,15.26,18.79" style="fill: none;stroke: #000;stroke-miterlimit: 10;stroke-width: 3px"/>
      </g>
      <g>
        <path d="M322.47,707.4s1.14-19.95,14.78-18.78S352,707.4,352,707.4" style="fill: none;stroke: #000;stroke-miterlimit: 10;stroke-width: 3px"/>
        <path d="M353.18,707.4s1.13-19.95,14.78-18.78,14.79,18.78,14.79,18.78" style="fill: none;stroke: #000;stroke-miterlimit: 10;stroke-width: 3px"/>
        <path d="M383.88,707.4s1.14-19.95,14.79-18.78,14.78,18.78,14.78,18.78" style="fill: none;stroke: #000;stroke-miterlimit: 10;stroke-width: 3px"/>
      </g>
      <g>
        <path d="M324.82,686.27s1.05-20,13.73-18.78,13.74,18.78,13.74,18.78" style="fill: none;stroke: #000;stroke-miterlimit: 10;stroke-width: 3px"/>
        <path d="M353.35,686.27s1-20,13.73-18.78,13.74,18.78,13.74,18.78" style="fill: none;stroke: #000;stroke-miterlimit: 10;stroke-width: 3px"/>
        <path d="M381.87,686.27s1.06-20,13.74-18.78,13.73,18.78,13.73,18.78" style="fill: none;stroke: #000;stroke-miterlimit: 10;stroke-width: 3px"/>
      </g>
      <ellipse cx="366.49" cy="553.03" rx="17.02" ry="9.39" style="fill: #ffc299;stroke: #000;stroke-miterlimit: 10;stroke-width: 3px"/>
      <path d="M366.49,530.14a19.18,19.18,0,0,1-8.88-2.58,14.39,14.39,0,0,1-6.38-8c-3.52-10.57,16.44-31.7,16.44-31.7s18.78,23.48,18.78,29.35S379.41,530.14,366.49,530.14Z" style="fill: #fcee21;stroke: #000;stroke-miterlimit: 10;stroke-width: 3px"/>
      <line x1="357.1" y1="544.22" x2="357.1" y2="527.79" style="fill: #ffc299;stroke: #000;stroke-miterlimit: 10;stroke-width: 3px"/>
      <line x1="377.06" y1="544.22" x2="377.06" y2="528.1" style="fill: #ffc299;stroke: #000;stroke-miterlimit: 10;stroke-width: 3px"/>
      <line x1="367.67" y1="487.87" x2="367.67" y2="450.31" style="fill: #ffc299;stroke: #000;stroke-miterlimit: 10;stroke-width: 3px"/>
      <line x1="357.1" y1="462.05" x2="377.06" y2="462.05" style="fill: #ffc299;stroke: #000;stroke-miterlimit: 10;stroke-width: 3px"/>
    </g>
    <g>
      <path d="M892,1026.81V623.29s32.63-30.46,79.4-34.81,46.76,0,46.76,0v438.33Z" style="fill: #8d98ff;stroke: #000;stroke-miterlimit: 10;stroke-width: 3px"/>
      <polyline points="1052.98 586.31 1029.05 596.1 1029.05 1026.81 1052.98 1026.81 1052.98 586.31" style="fill: #8d98ff;stroke: #000;stroke-miterlimit: 10;stroke-width: 3px"/>
      <line x1="1018.17" y1="1026.81" x2="1029.05" y2="1026.81" style="fill: #8d98ff;stroke: #000;stroke-miterlimit: 10;stroke-width: 3px"/>
      <line x1="1018.17" y1="588.48" x2="1029.05" y2="596.1" style="fill: #8d98ff;stroke: #000;stroke-miterlimit: 10;stroke-width: 3px"/>
      <line x1="1053.52" y1="1007.23" x2="892.01" y2="1007.23" style="fill: #8d98ff;stroke: #000;stroke-miterlimit: 10;stroke-width: 3px"/>
      <line x1="1053.52" y1="993.09" x2="892.01" y2="993.09" style="fill: #8d98ff;stroke: #000;stroke-miterlimit: 10;stroke-width: 3px"/>
      <line x1="1053.52" y1="975.69" x2="892.01" y2="975.69" style="fill: #8d98ff;stroke: #000;stroke-miterlimit: 10;stroke-width: 3px"/>
      <line x1="1053.52" y1="961.55" x2="892.01" y2="961.55" style="fill: #8d98ff;stroke: #000;stroke-miterlimit: 10;stroke-width: 3px"/>
      <path d="M892,640.68s33.65-25.17,63.62-31c36.44-7.07,62.54-2,62.54-2l9.25,6.38L1053,605.2" style="fill: #8d98ff;stroke: #000;stroke-miterlimit: 10;stroke-width: 3px"/>
      <path d="M892,655.91s33.65-25.18,63.62-31c36.44-7.07,62.54-2,62.54-2l9.25,6.38,25.56-8.84" style="fill: #8d98ff;stroke: #000;stroke-miterlimit: 10;stroke-width: 3px"/>
      <path d="M892,672.23s33.65-25.18,63.62-31c36.44-7.07,62.54-2,62.54-2l10.34,6.38,24.47-8.83" style="fill: #8d98ff;stroke: #000;stroke-miterlimit: 10;stroke-width: 3px"/>
      <path d="M892,688.54s33.65-23,63.62-28.82c36.44-7.07,62.54-4.2,62.54-4.2l10.34,7.47,24.47-8.84" style="fill: #8d98ff;stroke: #000;stroke-miterlimit: 10;stroke-width: 3px"/>
      <path d="M892,703.77s33.65-21.92,63.62-27.73c36.44-7.07,62.54-3.12,62.54-3.12l10.34,7.47,24.47-8.84" style="fill: #8d98ff;stroke: #000;stroke-miterlimit: 10;stroke-width: 3px"/>
      <path d="M892,717.91s33.65-19.74,63.62-25.56c36.44-7.07,62.54-3.11,62.54-3.11l10.34,7.46,24.47-8.83" style="fill: #8d98ff;stroke: #000;stroke-miterlimit: 10;stroke-width: 3px"/>
      <path d="M892,734.22s33.65-19.74,63.62-25.55c36.44-7.07,62.54-2,62.54-2l10.34,7.47,24.47-8.84" style="fill: #8d98ff;stroke: #000;stroke-miterlimit: 10;stroke-width: 3px"/>
      <path d="M892,748.36s33.65-16.47,63.62-22.29c36.44-7.07,62.54-2,62.54-2l10.34,5.29,24.47-9.92" style="fill: #8d98ff;stroke: #000;stroke-miterlimit: 10;stroke-width: 3px"/>
      <path d="M890.92,764.68s33.25-19.21,63.63-22.29c37.52-3.81,62.54-.95,62.54-.95l10.33,4.21,24.47-4.49" style="fill: #8d98ff;stroke: #000;stroke-miterlimit: 10;stroke-width: 3px"/>
      <path d="M890.92,779.9s33.25-18.12,63.63-21.2c37.52-3.81,62.54-.94,62.54-.94l10.33,4.2,24.47-4.48" style="fill: #8d98ff;stroke: #000;stroke-miterlimit: 10;stroke-width: 3px"/>
      <path d="M890.92,796.22S924.17,778.1,954.55,775c37.52-3.8,62.54-.94,62.54-.94l10.33,4.21,24.47-1.23" style="fill: #8d98ff;stroke: #000;stroke-miterlimit: 10;stroke-width: 3px"/>
      <path d="M890.92,811.44s33.25-18.12,63.63-21.2c37.52-3.8,62.54-.94,62.54-.94l10.33,4.2,24.47-1.22" style="fill: #8d98ff;stroke: #000;stroke-miterlimit: 10;stroke-width: 3px"/>
      <path d="M890.92,827.76s33.25-18.12,63.63-21.2c37.52-3.81,62.54-.94,62.54-.94l10.33,4.2,24.47-1.23" style="fill: #8d98ff;stroke: #000;stroke-miterlimit: 10;stroke-width: 3px"/>
      <path d="M890.92,843s33.25-14.86,63.63-17.94c37.52-3.81,62.54-2,62.54-2l10.33,3.11,24.47-1.22" style="fill: #8d98ff;stroke: #000;stroke-miterlimit: 10;stroke-width: 3px"/>
      <path d="M890.92,857.13s33.25-12.69,63.63-15.77c37.52-3.81,62.54-2,62.54-2l10.33,3.12,24.47-1.23" style="fill: #8d98ff;stroke: #000;stroke-miterlimit: 10;stroke-width: 3px"/>
      <path d="M892,871.27s33.25-11.6,63.62-14.68c37.53-3.81,62.54-.94,62.54-.94l10.34,3.11,24.47-.13" style="fill: #8d98ff;stroke: #000;stroke-miterlimit: 10;stroke-width: 3px"/>
      <path d="M890.92,887.58S924.17,876,954.55,872.9c37.52-3.8,62.54,1.24,62.54,1.24l10.33,2,24.47-1.23" style="fill: #8d98ff;stroke: #000;stroke-miterlimit: 10;stroke-width: 3px"/>
      <path d="M892,902.81s33.25-9.42,63.62-12.5c37.53-3.81,62.54,1.23,62.54,1.23l10.34.94,24.47-.14" style="fill: #8d98ff;stroke: #000;stroke-miterlimit: 10;stroke-width: 3px"/>
      <path d="M892,917s33.25-6.16,63.62-9.24c37.53-3.81,62.54,1.23,62.54,1.23l10.34-.14,24.47-1.23" style="fill: #8d98ff;stroke: #000;stroke-miterlimit: 10;stroke-width: 3px"/>
      <path d="M893.09,931.09s33.13-5.81,63.63-7.07c39.7-1.63,62.54.15,62.54.15l10.34,2,24.47-.14" style="fill: #8d98ff;stroke: #000;stroke-miterlimit: 10;stroke-width: 3px"/>
      <path d="M892,946.31s33.12-3.66,63.62-4.88c40.79-1.64,62.54.14,62.54.14l10.34,2,24.47-1.22" style="fill: #8d98ff;stroke: #000;stroke-miterlimit: 10;stroke-width: 3px"/>
    </g>
    <g>
      <path d="M1342.92,626.81l45-42s56,163,64,203,16,102,12,138-13,98-13,98-41-126-47-142-37-91-42-110-12-47-14-69S1342.92,626.81,1342.92,626.81Z" style="fill: #03a6d8;stroke: #000;stroke-miterlimit: 10;stroke-width: 3px"/>
      <path d="M1361.92,783.81s-21,96-19,130,19,114,19,114h89" style="fill: #03a6d8;stroke: #000;stroke-miterlimit: 10;stroke-width: 3px"/>
      <line x1="1358.03" y1="1008.81" x2="1444.92" y2="1004.81" style="fill: #03a6d8;stroke: #000;stroke-miterlimit: 10;stroke-width: 3px"/>
      <polyline points="1354.52 990.75 1436.38 979.28 1456.37 985.01" style="fill: #03a6d8;stroke: #000;stroke-miterlimit: 10;stroke-width: 3px"/>
      <polyline points="1459.81 959.3 1427.73 952.91 1350.81 970.55" style="fill: #03a6d8;stroke: #000;stroke-miterlimit: 10;stroke-width: 3px"/>
      <path d="M1347.35,949.94c-.43-.13,72.08-22.2,72.08-22.2l43.65,5.41" style="fill: #03a6d8;stroke: #000;stroke-miterlimit: 10;stroke-width: 3px"/>
      <polyline points="1464.98 909.11 1411.14 902.8 1344.49 929.95" style="fill: #03a6d8;stroke: #000;stroke-miterlimit: 10;stroke-width: 3px"/>
      <polyline points="1342.92 902.94 1402.13 877.16 1463.08 881.76" style="fill: #03a6d8;stroke: #000;stroke-miterlimit: 10;stroke-width: 3px"/>
      <polyline points="1463.08 856.48 1392.41 852.73 1344.49 882.13" style="fill: #03a6d8;stroke: #000;stroke-miterlimit: 10;stroke-width: 3px"/>
      <polyline points="1347.97 858.25 1383.82 831.17 1459.51 833.66" style="fill: #03a6d8;stroke: #000;stroke-miterlimit: 10;stroke-width: 3px"/>
      <polyline points="1455.97 810.1 1375.24 809.23 1353.03 828.49" style="fill: #03a6d8;stroke: #000;stroke-miterlimit: 10;stroke-width: 3px"/>
      <line x1="1366.81" y1="786.72" x2="1450.92" y2="787.81" style="fill: #03a6d8;stroke: #000;stroke-miterlimit: 10;stroke-width: 3px"/>
      <path d="M1361,768.13l84.27-6.34s7.69-55,10.69-75,0-79,0-79l-68-23" style="fill: #03a6d8;stroke: #000;stroke-miterlimit: 10;stroke-width: 3px"/>
      <line x1="1356.11" y1="748.65" x2="1436.99" y2="734.15" style="fill: #03a6d8;stroke: #000;stroke-miterlimit: 10;stroke-width: 3px"/>
      <polyline points="1353.03 730.41 1429.42 709.97 1450.92 720.12" style="fill: #03a6d8;stroke: #000;stroke-miterlimit: 10;stroke-width: 3px"/>
      <line x1="1454.54" y1="696.16" x2="1422.97" y2="683.81" style="fill: #03a6d8;stroke: #000;stroke-miterlimit: 10;stroke-width: 3px"/>
      <line x1="1413.92" y1="654.81" x2="1457.01" y2="672.63" style="fill: #03a6d8;stroke: #000;stroke-miterlimit: 10;stroke-width: 3px"/>
      <line x1="1455.98" y1="646.6" x2="1404.5" y2="629.26" style="fill: #03a6d8;stroke: #000;stroke-miterlimit: 10;stroke-width: 3px"/>
      <line x1="1396.55" y1="605.06" x2="1456.65" y2="625.65" style="fill: #03a6d8;stroke: #000;stroke-miterlimit: 10;stroke-width: 3px"/>
      <line x1="1344.07" y1="646.6" x2="1396.55" y2="615.35" style="fill: #03a6d8;stroke: #000;stroke-miterlimit: 10;stroke-width: 3px"/>
      <line x1="1407.04" y1="641.43" x2="1343.92" y2="668.81" style="fill: #03a6d8;stroke: #000;stroke-miterlimit: 10;stroke-width: 3px"/>
      <line x1="1346.89" y1="689.99" x2="1415.12" y2="665.83" style="fill: #03a6d8;stroke: #000;stroke-miterlimit: 10;stroke-width: 3px"/>
      <line x1="1422.97" y1="689.86" x2="1348.72" y2="709.96" style="fill: #03a6d8;stroke: #000;stroke-miterlimit: 10;stroke-width: 3px"/>
    </g>
    <g>
      <line x1="1099.49" y1="836.15" x2="1099.49" y2="928.58" style="fill: #b0f0ff;stroke: #000;stroke-miterlimit: 10;stroke-width: 3px"/>
      <line x1="1081.92" y1="934.81" x2="1092.92" y2="939.81" style="fill: #b0f0ff;stroke: #000;stroke-miterlimit: 10;stroke-width: 3px"/>
      <g>
        <polygon points="1092.92 1028.81 1092.92 939.81 1141.92 928.81 1181.92 945.81 1181.92 1028.81 1092.92 1028.81" style="fill: #b0f0ff;stroke: #000;stroke-miterlimit: 10;stroke-width: 3px"/>
        <line x1="1141.92" y1="928.81" x2="1141.92" y2="1030.31" style="fill: #b0f0ff;stroke: #000;stroke-miterlimit: 10;stroke-width: 3px"/>
        <line x1="1157.6" y1="935.47" x2="1157.6" y2="1028.81" style="fill: #b0f0ff;stroke: #000;stroke-miterlimit: 10;stroke-width: 3px"/>
        <line x1="1169.59" y1="940.57" x2="1169.59" y2="1028.81" style="fill: #b0f0ff;stroke: #000;stroke-miterlimit: 10;stroke-width: 3px"/>
        <line x1="1141.92" y1="988.51" x2="1181.92" y2="996.92" style="fill: #b0f0ff;stroke: #000;stroke-miterlimit: 10;stroke-width: 3px"/>
        <polyline points="1092.92 947.95 1141.92 947.95 1181.92 967.59" style="fill: #b0f0ff;stroke: #000;stroke-miterlimit: 10;stroke-width: 3px"/>
        <polygon points="1081.92 841.81 1081.92 868.43 1081.92 934.81 1129.92 917.81 1129.92 853.73 1129.92 820.81 1081.92 841.81" style="fill: #b0f0ff;stroke: #000;stroke-miterlimit: 10;stroke-width: 3px"/>
        <line x1="1083.92" y1="902.81" x2="1129.92" y2="883.12" style="fill: #b0f0ff;stroke: #000;stroke-miterlimit: 10;stroke-width: 3px"/>
        <line x1="1081.92" y1="868.81" x2="1129.92" y2="853.81" style="fill: #b0f0ff;stroke: #000;stroke-miterlimit: 10;stroke-width: 3px"/>
        <line x1="1119.21" y1="825.49" x2="1118.92" y2="917.81" style="fill: #b0f0ff;stroke: #000;stroke-miterlimit: 10;stroke-width: 3px"/>
        <polyline points="1129.92 820.81 1169.92 856.81 1169.92 935.81 1129.92 917.81" style="fill: #b0f0ff;stroke: #000;stroke-miterlimit: 10;stroke-width: 3px"/>
        <polyline points="1134.92 823.81 1140.92 820.81 1178.92 850.81 1169.92 853.81" style="fill: #b0f0ff;stroke: #000;stroke-miterlimit: 10;stroke-width: 3px"/>
        <polyline points="1091.92 834.81 1091.92 749.81 1141.92 729.81 1141.92 820.81" style="fill: #b0f0ff;stroke: #000;stroke-miterlimit: 10;stroke-width: 3px"/>
        <polyline points="1141.92 729.81 1178.92 755.81 1178.92 851.81" style="fill: #b0f0ff;stroke: #000;stroke-miterlimit: 10;stroke-width: 3px"/>
        <line x1="1142.92" y1="757.81" x2="1178.92" y2="782.31" style="fill: #b0f0ff;stroke: #000;stroke-miterlimit: 10;stroke-width: 3px"/>
        <line x1="1142.92" y1="786.97" x2="1178.92" y2="813.7" style="fill: #b0f0ff;stroke: #000;stroke-miterlimit: 10;stroke-width: 3px"/>
        <line x1="1156.92" y1="739.81" x2="1156.92" y2="831.8" style="fill: #b0f0ff;stroke: #000;stroke-miterlimit: 10;stroke-width: 3px"/>
        <line x1="1169.92" y1="749.26" x2="1167.84" y2="842.06" style="fill: #b0f0ff;stroke: #000;stroke-miterlimit: 10;stroke-width: 3px"/>
        <polyline points="1088.92 745.81 1133.92 723.81 1137.92 727.81 1091.42 749.31 1087.42 747.31 1087.42 654.31 1136.42 634.31 1136.42 723.31" style="fill: #b0f0ff;stroke: #000;stroke-miterlimit: 10;stroke-width: 3px"/>
        <polyline points="1100.42 645.31 1100.42 634.31 1136.42 621.31 1136.42 634.31 1161.62 654.74 1173.42 664.31 1173.42 749.31" style="fill: #b0f0ff;stroke: #000;stroke-miterlimit: 10;stroke-width: 3px"/>
        <polyline points="1162.42 652.31 1162.42 642.31 1137.42 621.31" style="fill: #b0f0ff;stroke: #000;stroke-miterlimit: 10;stroke-width: 3px"/>
        <line x1="1105.92" y1="649.89" x2="1106.42" y2="734.31" style="fill: #b0f0ff;stroke: #000;stroke-miterlimit: 10;stroke-width: 3px"/>
        <line x1="1120.8" y1="642.43" x2="1120.8" y2="727.81" style="fill: #b0f0ff;stroke: #000;stroke-miterlimit: 10;stroke-width: 3px"/>
        <line x1="1087.92" y1="715.81" x2="1136.42" y2="697.16" style="fill: #b0f0ff;stroke: #000;stroke-miterlimit: 10;stroke-width: 3px"/>
        <line x1="1087.42" y1="681.93" x2="1136.42" y2="664.72" style="fill: #b0f0ff;stroke: #000;stroke-miterlimit: 10;stroke-width: 3px"/>
      </g>
      <g>
        <polygon points="1206.92 939.81 1206.92 850.81 1255.92 839.81 1295.92 856.81 1288.92 951.81 1251.42 939.32 1206.92 939.81" style="fill: #b0f0ff;stroke: #000;stroke-miterlimit: 10;stroke-width: 3px"/>
        <line x1="1255.92" y1="839.81" x2="1255.92" y2="941.31" style="fill: #b0f0ff;stroke: #000;stroke-miterlimit: 10;stroke-width: 3px"/>
        <line x1="1271.6" y1="846.47" x2="1271.6" y2="943.81" style="fill: #b0f0ff;stroke: #000;stroke-miterlimit: 10;stroke-width: 3px"/>
        <path d="M1283.59,851.57v97.24c0-4.35.33,80,.33,80h-35" style="fill: #b0f0ff;stroke: #000;stroke-miterlimit: 10;stroke-width: 3px"/>
        <line x1="1255.92" y1="899.51" x2="1295.92" y2="907.92" style="fill: #b0f0ff;stroke: #000;stroke-miterlimit: 10;stroke-width: 3px"/>
        <line x1="1255.92" y1="858.95" x2="1295.92" y2="878.59" style="fill: #b0f0ff;stroke: #000;stroke-miterlimit: 10;stroke-width: 3px"/>
        <polygon points="1195.92 752.81 1195.92 779.43 1195.92 845.81 1243.92 828.81 1243.92 764.73 1243.92 731.81 1195.92 752.81" style="fill: #b0f0ff;stroke: #000;stroke-miterlimit: 10;stroke-width: 3px"/>
        <line x1="1197.92" y1="813.81" x2="1243.92" y2="794.12" style="fill: #b0f0ff;stroke: #000;stroke-miterlimit: 10;stroke-width: 3px"/>
        <line x1="1195.92" y1="779.81" x2="1243.92" y2="764.81" style="fill: #b0f0ff;stroke: #000;stroke-miterlimit: 10;stroke-width: 3px"/>
        <line x1="1233.21" y1="736.49" x2="1232.92" y2="828.81" style="fill: #b0f0ff;stroke: #000;stroke-miterlimit: 10;stroke-width: 3px"/>
        <polyline points="1243.92 731.81 1283.92 767.81 1283.92 846.81 1243.92 828.81" style="fill: #b0f0ff;stroke: #000;stroke-miterlimit: 10;stroke-width: 3px"/>
        <polyline points="1248.92 734.81 1254.92 731.81 1292.92 761.81 1283.92 764.81" style="fill: #b0f0ff;stroke: #000;stroke-miterlimit: 10;stroke-width: 3px"/>
        <polyline points="1205.92 745.81 1205.92 660.81 1255.92 640.81 1255.92 731.81" style="fill: #b0f0ff;stroke: #000;stroke-miterlimit: 10;stroke-width: 3px"/>
        <polyline points="1255.92 640.81 1292.92 666.81 1292.92 762.81" style="fill: #b0f0ff;stroke: #000;stroke-miterlimit: 10;stroke-width: 3px"/>
        <line x1="1256.92" y1="668.81" x2="1292.92" y2="693.31" style="fill: #b0f0ff;stroke: #000;stroke-miterlimit: 10;stroke-width: 3px"/>
        <line x1="1256.92" y1="697.97" x2="1292.92" y2="724.7" style="fill: #b0f0ff;stroke: #000;stroke-miterlimit: 10;stroke-width: 3px"/>
        <line x1="1270.92" y1="650.81" x2="1270.92" y2="742.8" style="fill: #b0f0ff;stroke: #000;stroke-miterlimit: 10;stroke-width: 3px"/>
        <line x1="1283.92" y1="660.26" x2="1281.84" y2="753.06" style="fill: #b0f0ff;stroke: #000;stroke-miterlimit: 10;stroke-width: 3px"/>
        <polyline points="1202.92 656.81 1247.92 634.81 1251.92 638.81 1205.42 660.31 1201.42 658.31 1201.42 565.31 1250.42 545.31 1250.42 634.31" style="fill: #b0f0ff;stroke: #000;stroke-miterlimit: 10;stroke-width: 3px"/>
        <polyline points="1214.42 556.31 1214.42 545.31 1250.42 532.31 1250.42 545.31 1275.62 565.74 1287.42 575.31 1287.42 660.31" style="fill: #b0f0ff;stroke: #000;stroke-miterlimit: 10;stroke-width: 3px"/>
        <polyline points="1276.42 563.31 1276.42 553.31 1251.42 532.31" style="fill: #b0f0ff;stroke: #000;stroke-miterlimit: 10;stroke-width: 3px"/>
        <line x1="1219.92" y1="560.89" x2="1220.42" y2="645.31" style="fill: #b0f0ff;stroke: #000;stroke-miterlimit: 10;stroke-width: 3px"/>
        <line x1="1234.8" y1="553.43" x2="1234.8" y2="638.81" style="fill: #b0f0ff;stroke: #000;stroke-miterlimit: 10;stroke-width: 3px"/>
        <line x1="1201.92" y1="626.81" x2="1250.42" y2="608.16" style="fill: #b0f0ff;stroke: #000;stroke-miterlimit: 10;stroke-width: 3px"/>
        <line x1="1201.42" y1="592.93" x2="1250.42" y2="575.72" style="fill: #b0f0ff;stroke: #000;stroke-miterlimit: 10;stroke-width: 3px"/>
      </g>
      <line x1="1195.92" y1="845.81" x2="1206.92" y2="850.81" style="fill: #b0f0ff;stroke: #000;stroke-miterlimit: 10;stroke-width: 3px"/>
      <polygon points="1200.92 1028.81 1200.92 966.73 1200.92 940.81 1248.92 940.81 1248.92 1028.81 1200.92 1028.81" style="fill: #b0f0ff;stroke: #000;stroke-miterlimit: 10;stroke-width: 3px"/>
      <line x1="1243.92" y1="966.81" x2="1200.92" y2="966.81" style="fill: #b0f0ff;stroke: #000;stroke-miterlimit: 10;stroke-width: 3px"/>
      <line x1="1245.92" y1="998.81" x2="1201.42" y2="998.81" style="fill: #b0f0ff;stroke: #000;stroke-miterlimit: 10;stroke-width: 3px"/>
      <line x1="1216.92" y1="943.81" x2="1216.92" y2="1026.81" style="fill: #b0f0ff;stroke: #000;stroke-miterlimit: 10;stroke-width: 3px"/>
      <line x1="1232.92" y1="942.24" x2="1232.92" y2="1026.81" style="fill: #b0f0ff;stroke: #000;stroke-miterlimit: 10;stroke-width: 3px"/>
    </g>
    <g>
      <rect x="67.8" y="442.81" width="41" height="50" style="fill: #ff7bac;stroke: #000;stroke-miterlimit: 10;stroke-width: 3px"/>
      <rect x="73.8" y="492.81" width="29" height="17" style="fill: #ff7bac;stroke: #000;stroke-miterlimit: 10;stroke-width: 3px"/>
      <rect x="79.8" y="509.81" width="17" height="61" style="fill: #ff7bac;stroke: #000;stroke-miterlimit: 10;stroke-width: 3px"/>
      <rect x="75.3" y="568.81" width="26" height="26" style="fill: #ff7bac;stroke: #000;stroke-miterlimit: 10;stroke-width: 3px"/>
      <rect x="70.3" y="594.81" width="36" height="25" style="fill: #ff7bac;stroke: #000;stroke-miterlimit: 10;stroke-width: 3px"/>
      <polygon points="99.3 619.81 73.3 619.81 69.3 867.81 67.3 908.4 61.3 1027.81 115.3 1027.81 106.3 908.81 106.3 870.49 99.3 619.81" style="fill: #ff7bac;stroke: #000;stroke-miterlimit: 10;stroke-width: 3px"/>
      <line x1="61.3" y1="870.81" x2="115.3" y2="870.81" style="fill: #ff7bac;stroke: #000;stroke-miterlimit: 10;stroke-width: 3px"/>
      <line x1="62.8" y1="799.81" x2="113.8" y2="799.81" style="fill: #ff7bac;stroke: #000;stroke-miterlimit: 10;stroke-width: 3px"/>
      <line x1="65.8" y1="788.81" x2="110.8" y2="788.81" style="fill: #ff7bac;stroke: #000;stroke-miterlimit: 10;stroke-width: 3px"/>
      <line x1="66.8" y1="772.81" x2="109.8" y2="772.81" style="fill: #ff7bac;stroke: #000;stroke-miterlimit: 10;stroke-width: 3px"/>
      <line x1="65.8" y1="757.81" x2="110.8" y2="757.81" style="fill: #ff7bac;stroke: #000;stroke-miterlimit: 10;stroke-width: 3px"/>
      <line x1="74.3" y1="500.11" x2="102.3" y2="500.11" style="fill: #ff7bac;stroke: #000;stroke-miterlimit: 10;stroke-width: 3px"/>
      <line x1="67.8" y1="478.07" x2="108.8" y2="478.07" style="fill: #ff7bac;stroke: #000;stroke-miterlimit: 10;stroke-width: 3px"/>
      <line x1="68.3" y1="466.32" x2="108.3" y2="466.32" style="fill: #ff7bac;stroke: #000;stroke-miterlimit: 10;stroke-width: 3px"/>
      <line x1="68.3" y1="453.69" x2="108.3" y2="453.69" style="fill: #ff7bac;stroke: #000;stroke-miterlimit: 10;stroke-width: 3px"/>
      <rect x="79.3" y="418.81" width="18" height="24" style="fill: #ff7bac;stroke: #000;stroke-miterlimit: 10;stroke-width: 3px"/>
      <line x1="88.3" y1="416.81" x2="88.3" y2="268.81" style="fill: #ff7bac;stroke: #000;stroke-miterlimit: 10;stroke-width: 2px"/>
      <line x1="82.8" y1="300.31" x2="93.8" y2="300.31" style="fill: #ff7bac;stroke: #000;stroke-miterlimit: 10;stroke-width: 2px"/>
      <line x1="82.3" y1="326.31" x2="94.3" y2="326.31" style="fill: #ff7bac;stroke: #000;stroke-miterlimit: 10;stroke-width: 2px"/>
      <line x1="82.3" y1="351.31" x2="94.3" y2="351.31" style="fill: #ff7bac;stroke: #000;stroke-miterlimit: 10;stroke-width: 2px"/>
      <line x1="81.8" y1="388.31" x2="94.8" y2="388.31" style="fill: #ff7bac;stroke: #000;stroke-miterlimit: 10;stroke-width: 2px"/>
    </g>
  </g>  <g id="faceBody">
    <path d="M692.5,673l-58-25s-49-20-57-45-15-111-15-111-19-47-23-60c-12-39,2-130,2-130s65,47,83,70c12.4,15.85,48,63,48,63l14,12,47-7,27,2,40,8s19-43.85,49-83c31.6-41.26,81.28-77.84,82-74,12,64-22,203-22,203v31l-10,66s-53,59-84,67-45,20-45,25,9,20,9,20l8,35,68-7,56-15,24-116,20-58s14-10,22-8-2,48-15,73c-10.24,19.7-18,80-18,80l-17,52-66,14-63,14,53,283,23,105s-107,2-194-4c-8.23-.57-44-41-39-51s26-357,31-362,22-50,22-50Z" style="fill: #fff;stroke: #000;stroke-miterlimit: 10;stroke-width: 3px"/>
    <path d="M765,1154.26s-4.5-20.23,7.5-22.23,26,0,26,0,13-4,16-1,7,2,12-1-37-237-37-237" style="fill: none;stroke: #000;stroke-miterlimit: 10;stroke-width: 3px"/>
    <path d="M640.56,1131s-29.09,18.86-17.12,23.92,23,.11,25-.88,12-1,12,0,16.5-.63,16.5-.63S655.61,1119.06,640.56,1131Z" style="fill: #fff;stroke: #000;stroke-miterlimit: 10;stroke-width: 3px"/>
    <path d="M868.31,1124.62s19,5.9,46.19,7.41c36,2,149-15.3,144-9-8,10-29,11-85,21s-103.79-13.39-103.79-13.39Z" style="fill: #fff;stroke: #000;stroke-miterlimit: 10;stroke-width: 3px"/>
    <path d="M672.5,753s-21,7-24,11-6,21-6,21-7,33-8,35-16,110-18,113-13,32-15,38-12,20-14,26-32,77-32,77,0,12,7,10,70-137,70-152,10-52,10-55,7-72,7-72l19-13" style="fill: #fff;stroke: #000;stroke-miterlimit: 10;stroke-width: 3px"/>
    <path d="M547,333.53s-5,69,0,86,29,61,29,61,15-15,33-22,58-10,58-10-55-41-69-55S547,333.53,547,333.53Z" style="fill: #f50"/>
    <path d="M821,451.53s36-43,40-51,45-62,51-67-2,54-9,73-17,67-17,67-21-11-32-15S821,451.53,821,451.53Z" style="fill: #f50"/>
  </g>  <g id="bell">
    <path d="M690,713s27,14,46,13,46-18,46-18" style="fill: none;stroke: #ff4200;stroke-miterlimit: 10;stroke-width: 6px"/>
    <path d="M759.25,765.44c-2.17-3.28-6.92-6.24-11.55-9.29a54.22,54.22,0,0,0,11.76,2.18c5.12.48,11-1.24,11.78-7.77,1-8.22-9.14-8.4-9.14-8.4s7-4.36,2.08-10.92c-5.1-6.77-9.56-5.44-12.94-2.89-1.68,1.26-6.83,10.57-8.52,12.93.47-1.4,4.23-10,4.45-11.12,1-5-.17-11.07-6.6-12.47-8.09-1.77-9.24,8.28-9.24,8.28s-3.66-7.4-10.67-3.11c-7.23,4.42-6.34,9-4.13,12.6,1.53,2.5,5.61,5.35,8.93,7.94a50,50,0,0,0-7.32-2.38c-5-1.27-11-.47-12.83,5.86-2.24,8,7.73,9.71,7.73,9.71s-7.6,3.22-3.73,10.47c4,7.48,8.6,6.85,12.34,4.86,2.69-1.44,7.28-6.54,11.83-13.27-2.87,5.08-9.62,16-13.07,18.85-4.5,3.74-13.25,8.45-13.25,8.45l2.82,4.42c.31.11,11.57-9.49,14.34-12.73,1.62-1.89,6.93-12.41,8.66-16-.3,1.09-4,9.3-4.17,10.21-.79,5.07.56,11.05,7,12.23,8.15,1.48,8.95-8.61,8.95-8.61s3.92,7.27,10.77,2.74C762.63,773.5,761.58,769,759.25,765.44Z" style="fill: #34b645;stroke: #1d6b00;stroke-miterlimit: 10;stroke-width: 2px"/>
  </g>  <g id="nose">
    <path d="M727.57,547.76c-3.83,1.15-15.25,5.5-9.25,10.5s8.17,3.59,10,8c1.66,4,3.69,18.6,3.34,21.75a.9.9,0,0,1-.86.78l-8.47.35a.88.88,0,0,0-.31,1.7c4.12,1.69,10.68,4.16,14.3,4.42,3.95.29,12-2,16.9-3.62a.88.88,0,0,0-.2-1.72l-13.76-1.1a.87.87,0,0,1-.8-.74c-.51-3.44.13-17.25,2.86-21.82,2.24-3.75,10.25-8.5,12.25-10.5S747.57,541.76,727.57,547.76Z"/>
  </g>  <g id="eyes">
    <path d="M908.86,540.69s6.78,19.75-13.09,23.52-76.94,3-89.17-2.54-26.76-16-26.76-16,37.12-26.46,73.29-22.86S907.63,534.73,908.86,540.69Z" style="fill: #03a3db;stroke: #000;stroke-miterlimit: 10"/>
    <path d="M683.67,532.23c-1.93-4.9-65.54-23.56-78.57-24s-35.87,6.21-35.41,11.29,41.76,32.64,53.8,32.92S692.1,553.69,683.67,532.23Z" style="fill: #03a3db;stroke: #000;stroke-miterlimit: 10"/>
    <path d="M843.43,539.33s-8.29,23.94.49,26.91,16.18-22,16.18-22,8.68-23.87-2.9-20.86S843.43,539.33,843.43,539.33Z"/>
    <path d="M649.15,553.33s2.9-14.45,1.45-18.86,1.78-16.08-4.94-16.1-15.31,4.48-11.78,9.58S637.66,562.28,649.15,553.33Z"/>
  </g><g id="luckyCaption">
    <text transform="translate(561.31 1272.52)" style="font-size: 64.3827896118164px;font-family: HiraMaruProN-W4-83pv-RKSJ-H, Hiragino Maru Gothic ProN"><tspan style="letter-spacing: -0.03599058496540004em"></tspan><tspan x="62.07" y="0" style="letter-spacing: -0.04900361568613886em"></tspan><tspan x="123.29" y="0" style="letter-spacing: -0.017987709131464157em"></tspan><tspan x="186.52" y="0" style="letter-spacing: -0.020004880560203397em"></tspan><tspan x="249.61" y="0"></tspan></text>
  </g>  <g id="weather">
    <g>
      <path d="M1277.16,239.93l4.76,9.65a1.91,1.91,0,0,0,1.43,1l10.65,1.54a1.91,1.91,0,0,1,1,3.25l-7.7,7.51a1.9,1.9,0,0,0-.55,1.68l1.82,10.61a1.9,1.9,0,0,1-2.76,2l-9.52-5a1.91,1.91,0,0,0-1.77,0l-9.52,5a1.9,1.9,0,0,1-2.76-2l1.81-10.61a1.87,1.87,0,0,0-.54-1.68l-7.71-7.51a1.91,1.91,0,0,1,1.06-3.25l10.64-1.54a1.92,1.92,0,0,0,1.44-1l4.76-9.65A1.9,1.9,0,0,1,1277.16,239.93Z" style="fill: #ff6d00"/>
      <path d="M1322.48,179.38l3.91,7.93a1.56,1.56,0,0,0,1.18.85l8.75,1.27a1.57,1.57,0,0,1,.86,2.67l-6.33,6.17a1.61,1.61,0,0,0-.45,1.38l1.5,8.71a1.56,1.56,0,0,1-2.27,1.65l-7.82-4.11a1.57,1.57,0,0,0-1.46,0l-7.82,4.11a1.56,1.56,0,0,1-2.27-1.65l1.5-8.71a1.58,1.58,0,0,0-.45-1.38L1305,192.1a1.56,1.56,0,0,1,.87-2.67l8.74-1.27a1.56,1.56,0,0,0,1.18-.85l3.91-7.93A1.56,1.56,0,0,1,1322.48,179.38Z" style="fill: #ff6d00"/>
      <path d="M1379.07,264.91l3.23,6.55a1.3,1.3,0,0,0,1,.7l7.22,1a1.29,1.29,0,0,1,.71,2.2l-5.22,5.1a1.24,1.24,0,0,0-.37,1.14l1.23,7.19a1.29,1.29,0,0,1-1.87,1.36l-6.46-3.4a1.33,1.33,0,0,0-1.2,0l-6.46,3.4a1.29,1.29,0,0,1-1.87-1.36l1.23-7.19a1.29,1.29,0,0,0-.37-1.14l-5.23-5.1a1.29,1.29,0,0,1,.72-2.2l7.22-1a1.28,1.28,0,0,0,1-.7l3.23-6.55A1.29,1.29,0,0,1,1379.07,264.91Z" style="fill: #ff6d00"/>
      <g>
        <path d="M1322.69,277.29c-1.91,42.47-32.82,80.91-75.77,80.91a80,80,0,0,1-80-80c0-39.88,28.7-80,66.88-86.05-1.1,0-8.25,0-9.35,0-53.47,0-90.27,50.36-90.27,103.83S1177.55,398,1231,398s102-39.28,96.82-101.95C1326.9,284.57,1323.36,281.9,1322.69,277.29Z" style="fill: #ff6d00"/>
        <path d="M1322.42,273.61A80,80,0,1,1,1229.93,191c-1.1,0-2.19-.06-3.3-.06a96.82,96.82,0,1,0,96.81,96.81A98,98,0,0,0,1322.42,273.61Z" style="fill: #ffec00;stroke: #ff6d00;stroke-miterlimit: 10"/>
      </g>
      <path d="M1275.57,235.4l4.77,9.65a1.89,1.89,0,0,0,1.43,1l10.64,1.54a1.91,1.91,0,0,1,1.06,3.25l-7.7,7.51a1.89,1.89,0,0,0-.55,1.68l1.82,10.61a1.9,1.9,0,0,1-2.76,2l-9.53-5a1.85,1.85,0,0,0-1.77,0l-9.52,5a1.9,1.9,0,0,1-2.76-2l1.82-10.61a1.92,1.92,0,0,0-.55-1.68l-7.7-7.51a1.91,1.91,0,0,1,1-3.25l10.65-1.54a1.91,1.91,0,0,0,1.43-1l4.76-9.65A1.9,1.9,0,0,1,1275.57,235.4Z" style="fill: #ffda00;stroke: #ff6d00;stroke-miterlimit: 10"/>
      <path d="M1320,175.79l3.91,7.93a1.56,1.56,0,0,0,1.18.85l8.75,1.27a1.56,1.56,0,0,1,.86,2.67l-6.33,6.17a1.59,1.59,0,0,0-.45,1.38l1.5,8.71a1.56,1.56,0,0,1-2.27,1.65l-7.82-4.12a1.63,1.63,0,0,0-1.46,0l-7.82,4.12a1.56,1.56,0,0,1-2.27-1.65l1.5-8.71a1.56,1.56,0,0,0-.45-1.38l-6.33-6.17a1.56,1.56,0,0,1,.87-2.67l8.74-1.27a1.56,1.56,0,0,0,1.18-.85l3.91-7.93A1.56,1.56,0,0,1,1320,175.79Z" style="fill: #ffda00;stroke: #ff6d00;stroke-miterlimit: 10"/>
      <path d="M1376.55,262.25l3.23,6.55a1.28,1.28,0,0,0,1,.7l7.23,1.05a1.29,1.29,0,0,1,.71,2.2l-5.22,5.1a1.24,1.24,0,0,0-.37,1.14l1.23,7.19a1.29,1.29,0,0,1-1.87,1.36l-6.46-3.39a1.27,1.27,0,0,0-1.2,0l-6.46,3.39a1.29,1.29,0,0,1-1.88-1.36l1.24-7.19a1.29,1.29,0,0,0-.37-1.14l-5.23-5.1a1.29,1.29,0,0,1,.72-2.2l7.22-1.05a1.28,1.28,0,0,0,1-.7l3.23-6.55A1.29,1.29,0,0,1,1376.55,262.25Z" style="fill: #ffda00;stroke: #ff6d00;stroke-miterlimit: 10"/>
    </g>
  </g>
<g id="generation">
  <text transform="translate(38.41 1285.15)" style="font-size: 65.69450378417969px;font-family: HiraKakuStd-W8-83pv-RKSJ-H, Hiragino Kaku Gothic Std"></text>
  <text transform="translate(219.15 1271.7)" style="font-size: 104.09490966796875px;font-family: MyriadPro-Regular, Myriad Pro"></text>
</g>  <g id="_5element" data-name="5element">
    <g>
      <rect x="1238" y="1172" width="177" height="287" style="fill: #30e017;opacity: 0.5"/>
      <g>
        <path d="M1278.73,1264.23v13.69c0,1.28,0,2.72-.08,4.08h14.65v5.12h-15a66.48,66.48,0,0,1-1.28,7.45c3.85,3.76,13,13.84,15.37,16.4l-3.6,4.41c-2.56-3.52-9-11.05-13.21-15.77a43.59,43.59,0,0,1-16.33,21.93,18.52,18.52,0,0,0-3.61-3.92c12.17-8.57,16.26-20,17.46-30.5h-17.13V1282h17.53c.08-1.44.08-2.8.08-4.16v-13.61h-7.13a56.63,56.63,0,0,1-6.64,13.93,29.16,29.16,0,0,0-4-2.81c4.33-6.16,7.69-16.73,9.61-27.21l6.41,1.6c-.16.56-.72.8-1.68.8-.56,2.88-1.28,5.76-2.09,8.64h23.3v5Zm18.18-9h29.62v64.12h-5.44v-5.68h-18.9v6.56h-5.28Zm5.28,53.31h18.9v-48.19h-18.9Z" style="fill: #fff"/>
        <path d="M1351.43,1302.73c-1.93,6.32-5.13,13.21-11.13,17.29l-4.09-3.52c5.45-3.36,8.81-9.61,10.57-15.45Zm18.65-35.7v-6.16h-33.15V1256h33.15v-7.76l6.89.4c-.08.56-.56,1-1.6,1.12V1256h33.7v4.89h-33.7V1267h24.25v27h-53.24v-27Zm-18.57,4.4v7h18.57v-7Zm0,11.13v7.12h18.57v-7.12Zm10.8,31.3c0,1.92.73,2.32,5,2.32h14.89c3.44,0,4-1,4.32-8.49a15.39,15.39,0,0,0,4.89,2c-.64,9.29-2.32,11.45-8.73,11.45H1367c-7.93,0-9.93-1.44-9.93-7.28v-13l6.89.48c-.08.56-.48,1-1.61,1.12Zm14.9-5.93c-3-3.36-9.13-7.84-14.66-10.56l3.53-3.2c5.44,2.56,11.77,6.8,14.89,10.24Zm17.13-36.5h-19v7h19Zm0,18.25v-7.12h-19v7.12Zm11.13,29.62c-2.48-5-8.73-11.77-14.73-16.49l4.32-2.56c6.09,4.56,12.41,11.13,15,16.17Z" style="fill: #fff"/>
      </g>
    </g>
  </g>
<g id="manekiPower">
  <text transform="translate(205.81 1456.78)" style="font-size: 121.63294982910156px;fill: #070707;font-family: MyriadPro-Regular, Myriad Pro">486815</text>
  <ellipse cx="82.99" cy="1415.19" rx="49.5" ry="49.5"/>
  <polygon points="82.92 1378.7 99.5 1378.7 81.54 1414.62 99.5 1414.62 68.55 1454.33 83.19 1421.63 67.58 1422.06 82.92 1378.7" style="fill: #fff"/>
  <text transform="translate(1269.14 1425.38)" style="font-size: 104.09490966796875px;font-family: MyriadPro-Regular, Myriad Pro">10</text>
</g><g id="tokenID">
<text transform="translate(1084.21 149.82)" style="font-size: 104.09490966796875px;font-family: MyriadPro-Regular, Myriad Pro">109</text>
</g>  <g id="logo">
    <path d="M412.51,140.41l-34.29.33-.26-2-.63-.18a104.29,104.29,0,0,1-14.72-5.72l-6.77,1.86c-.39.11-1,.25-3.32.81-3.36.81-9,2.16-15.29,3.74l-10.12,2.54s-3.56-10.09-3.59-10.19c-8.45,2.14-19,3.94-27.51,3.94-6.05,0-10.75-.93-14.39-2.84-1.07-.56-2.33-1.25-3.68-2.09l-.9,4-36.89-4.45.16-1-28.76,8.94-2.28-3.49-17.92,10.06-3.65-7.14a56.94,56.94,0,0,1-17,2.6,34,34,0,0,1-16-3.76l-1,5.35-42.15-7L113,123c.36-3.14.68-8.21,1-15.11l-14.18.69c1,5.49,2.33,12,4,19.37l2.89,12.81-41.83,7.75L61.46,138c-1.72-5.28-3.28-13.16-4.79-24.07a213.34,213.34,0,0,1-2.21-27.48c0-12,1.43-21.08,4.36-27.81C64.76,45,75.72,43.57,80.15,43.57c6.68,0,13.58,3.14,21.71,9.88l.28.23L105.65,57l1.86-1.85C115,47.55,121.65,44,128.5,44a26.65,26.65,0,0,1,23.1,12.34l.16-1.75,10.41-.14h1.68c30.77,0,40.88,4.13,45.53,8.57L225.26,63c1.22-.41,2.52-.8,3.86-1.16a65.15,65.15,0,0,1,13.67-2.24c.91-.05,1.81-.07,2.68-.07,10.49,0,19.06,3.24,25.49,9.63q.6.6,1.17,1.23A43.53,43.53,0,0,1,288.77,61a47.66,47.66,0,0,1,14.08-2.21,43.39,43.39,0,0,1,13,2,39.18,39.18,0,0,1,4.72,1.84c.16-1.15.34-2.36.53-3.62l1.79-12.14,41.85,8.73-2.84,11.7c-.2.83-.39,1.64-.58,2.44,5.07-2,9.61-3.7,13.55-4.93l4.28-15.3,10.47,2.16c2.91.6,25,6.41,33.22,8.48l-1.53,21.43,13.1,2.19c5.27.87,9.86-3.72,9.86-3.72.29-.83,1.27-16.34,1.6-17.1,5.78-13.26,16.46-14.7,20.78-14.7,6.5,0,13.2,3,21.09,9.59L488,58l3.25,3c.59-.58,1.15-1.13,1.66-1.66,7.26-7.32,13.74-10.73,20.41-10.73,12.26,0,21.77,7.08,26.09,19.42a41.63,41.63,0,0,1,1.43,5,45.4,45.4,0,0,1,5-1.87A46,46,0,0,1,559.48,69,42,42,0,0,1,572.09,71a35,35,0,0,1,9.77,4.8l1-.76c8.11-6,18.49-9.1,30.88-9.1,10.36,0,19.45,2.39,27.07,7.12.84-1.54,1.75-3.08,2.71-4.62l5-8L685,75.07l30.1-15.29,5.54,8.45a108.18,108.18,0,0,1,8.83,15.55,48.93,48.93,0,0,1,4.48,19.9c0,10.81-2.82,19.88-8.39,26.95-6.51,8.33-16.15,12.74-27.86,12.74a37.7,37.7,0,0,1-16-3.38,35.11,35.11,0,0,1-14.48,3c-8.78,0-16.16-2.45-22-7.3l-.55.46c-8.13,6.62-18.24,10-30.08,10s-21.81-2.61-29.85-7.78c-8.42,2.55-21.74,5.24-31.78,5.24-5.87,0-10.45-.91-14-2.77-.15-.07-.29-.15-.43-.23l-.55,2.89-41.08-6.78,1.33-11.7c.34-3,.65-7.81.93-14.36l-13.24.65c.95,5.25,2.23,11.42,3.82,18.47l2.84,12.57-40.76,7.55-2.65-8.15L432,144.3ZM236.19,100.59a94.65,94.65,0,0,0,4.44,15.5l1.3,3.34.2-1.19a83.12,83.12,0,0,0,.94-17.53c0-.93-.11-1.69-.19-2.3A17.16,17.16,0,0,0,236.19,100.59ZM608.66,106a12.36,12.36,0,0,0,4.86.84,11.57,11.57,0,0,0,4.67-.76,13.87,13.87,0,0,0-5.55-.92A7.61,7.61,0,0,0,608.66,106ZM679,88.07A42.34,42.34,0,0,0,674.9,95l14.64-.81c-.87-1.25-2-2.84-3.44-4.86l-4-5.54Z" style="fill: #0702b0"/>
    <path d="M401.41,92.58s16.63,9.5,28.33,8.82,28.32-12.21,28.32-12.21" style="fill: none;stroke: #ff2000;stroke-miterlimit: 10;stroke-width: 6px"/>
    <path d="M383.35,129.21c-.61-4.59-.66-12.3-.16-23.56a241,241,0,0,1,2.07-24.37l.05-.32-7.94-1.76L384,55.66l5.29,1.08c3.39.69,10.4,2.39,21.41,5.17l5.75,1.46L412.13,79.1l1.33.17-.92,5.88c-1.61,10.22-2.41,24.74-2.38,43.15v5.76L384,134.3Z" style="fill: #0702b0"/>
    <path d="M409.29,67.54l-3.31,12-21.35-4.71,3.51-12.43Q393,63.44,409.29,67.54Zm-4.94,60.77-15.24.14q-.84-6.31-.12-22.54a236.41,236.41,0,0,1,2-23.73l15.8,2.07Q404.31,100.1,404.35,128.31Z" style="fill: url(#Sky_2)"/>
    <path d="M387.08,113.63l-5.81,13.23a98.76,98.76,0,0,1-15.54-6.21q-7.51-3.7-14.93-7.52.6,3.3,2.5,9.82c-.73.2-8.85,2.09-18.54,4.49-4.14-11.62-5-24.44-5-36.66,0-9.56,1.16-18,3-30.67l18.42,3.81Q346.69,82.35,347,89.58q4-3.42,16.64-8.62a163.15,163.15,0,0,1,17.54-6.32L387,88l-14.83,4.61q-11.13,4-14.24,8,3.81,2.7,13.94,7.12A152.18,152.18,0,0,0,387.08,113.63Z" style="fill: url(#Sky_2-2)"/>
    <path d="M296,129.19c-5.15,0-9-.71-11.84-2.18-7.06-3.68-14.77-9.06-18.47-21.09-2.73-8.87-1.22-17.44,4.5-25.49a37.72,37.72,0,0,1,20.21-14.5,42.69,42.69,0,0,1,12.5-2,38.5,38.5,0,0,1,11.41,1.73c9.31,2.94,15.61,9,18.26,17.65,1.7,5.54,1.44,10.63-.79,15.12l-.07.14a18,18,0,0,1-2.68,3.77l4,19.93-5,1.54C319.64,126.43,306.06,129.19,296,129.19Z" style="fill: #0702b0"/>
    <path d="M327,85.07q1.89,6.14-.45,10.83t-8.68,6.55q-7.75,2.39-30.29,3.13c7.43,7.08,27.22,1.48,35.91-1.19l2.81,13.92c-10.35,3.19-32.14,7.37-39.48,3.55-6.85-3.57-12.63-8-15.6-17.64q-3.27-10.64,3.68-20.43a31.94,31.94,0,0,1,17.19-12.31,34.07,34.07,0,0,1,20.49-.22Q323.83,74.82,327,85.07Zm-14.67,3.46c-.67-2.17-2.64-3.48-5.93-3.94a19.87,19.87,0,0,0-18.55,8.22q20.1-1.14,23.45-2.18c.7-.21,1.12-.45,1.25-.7S312.55,89.3,312.31,88.53Z" style="fill: url(#Sky_2-3)"/>
    <path d="M210.76,127.16c-3.32-5-5.95-12-8-21.34a126.14,126.14,0,0,1-3.08-21.49c-.1-2-.06-5.4.1-10.43l.19-5.6,25.58-.08c1.36-.49,2.81-.94,4.38-1.35a60.11,60.11,0,0,1,12.62-2.06c10.13-.51,18.23,2.15,24.06,7.9s8.83,13.49,9.33,23.43a98.92,98.92,0,0,1-2.49,26.46l-1.14,5.12-26-3.11,1-6a87.67,87.67,0,0,0,1-18.78C248.05,94.4,247,93,247,93l-.09-.13c-.46-.64-2.07-1-4.2-.86-4.57.23-9,2-13.55,5.25a105.08,105.08,0,0,0,5.5,20.41l2.3,5.83-23.8,7.33Z" style="fill: #0702b0"/>
    <path d="M270.12,96.43a92.78,92.78,0,0,1-2.35,24.91L253,119.57a92.78,92.78,0,0,0,1.1-20q-.36-7.31-2.52-10.11-2.58-3.57-9.19-3.25-10,.51-19.54,8.62a114.62,114.62,0,0,0,6.38,25L215.61,124q-4.35-6.61-7.2-19.41A119.62,119.62,0,0,1,205.46,84q-.14-2.7.11-9.94l15,0,.16,3.3q3.57-3,10.7-4.85a54.1,54.1,0,0,1,11.45-1.88q12.71-.64,19.68,6.23T270.12,96.43Z" style="fill: url(#linear-gradient)"/>
    <path d="M189.47,129.88a52.37,52.37,0,0,1-20,4,28.22,28.22,0,0,1-19.68-7.51,25.59,25.59,0,0,1-8.41-19.49c0-10.12,3.77-18.18,11.21-24l1.11-.82,1.94-22.27,5.25-.07h1.62c36.34,0,41.22,5.95,42.83,7.9,5.2,6.33,4.3,23.63,3.64,31.08v9.06c0,3.19,1.11,6.91,3.3,11l2.67,5-22.26,12.38Z" style="fill: #0702b0"/>
    <path d="M207.19,121.52l-12,6.7-3.08-6A47.41,47.41,0,0,1,169.51,128a22.48,22.48,0,0,1-15.76-6,19.88,19.88,0,0,1-6.52-15.21q0-12.4,9-19.38c5.43-4.23,12.49-5.64,21.1-6.34A27.26,27.26,0,0,1,192,83.89l.12,14.43c-3.8-1.75-11-3.7-14.79-3.7q-6.88,0-11.23,2.9a11.19,11.19,0,0,0-5,9.78,6.43,6.43,0,0,0,2.35,5,7.67,7.67,0,0,0,5.35,2.18q10,0,15.76-4.71t6.07-13.41s2.18-13.25-.23-16.65C186,73.52,160,77.59,160,77.59l1-12.07s34.77-.45,39.88,5.78c4.32,5.26,2.32,27.12,2.32,27.12v9.33Q203.21,114,207.19,121.52Z" style="fill: url(#Sky_2-4)"/>
    <path d="M64.72,135.63c-1.62-4.95-3.13-12.5-4.6-23.06a205.33,205.33,0,0,1-2.18-26.68c0-11.16,1.28-19.49,3.91-25.47C66.31,50.31,73.92,48.8,78.07,48.8c5.33,0,11.12,2.72,18.23,8.56l.15.12,7.44,6.86c2.27-2.15,4.25-4.07,5.9-5.72,6.38-6.38,11.81-9.36,17.08-9.36,10.26,0,17.94,5.72,21.61,16.11,2,5.52,3,13,3,22.74,0,18.22-.8,31.31-2.46,40l-1.23,6.49-31.51-5.15L117,123c.52-4.56,1-12.88,1.36-24.73,0-.25,0-.5,0-.75l-2.53,3.72-21.33,1-2.17-2.68c-.69-.87-1.34-1.65-2-2.36.65,5.89,2.28,15.54,5.88,31.35l1.58,6.9-31.28,5.74Z" style="fill: #0702b0"/>
    <path d="M149.89,87.53q0,26.44-2.34,38.73l-18.61-3q.81-7.14,1.4-25.28.58-19.18-.11-19.19-2.46,0-12.88,15.33l-14.51.7q-9.24-11.46-13-11.46-1.41,0-1.41,7.6,0,10.42,6.44,38.62l-18.49,3.39q-2.22-6.78-4.33-21.88A197.86,197.86,0,0,1,70,85.3Q70,55,83.29,55q5.38,0,13.93,7l11.94,11q6.56-6.09,10.65-10.18,7.38-7.38,12.29-7.38,11.11,0,15.21,11.59Q149.89,74.19,149.89,87.53Z" style="fill: url(#Sky_2-5)"/>
    <path d="M701.4,137a31.56,31.56,0,0,1-16.16-4.09,29.57,29.57,0,0,1-14.66,3.76c-10,0-17.7-3.59-23-10.67l0,0C643.21,120,641,112.34,641,103.1c0-10.2,3.57-21,10.63-32.15L654.14,67l28,11.18L677.86,84a50.08,50.08,0,0,0-5.78,10.26,27.58,27.58,0,0,0-2.44,10,7.76,7.76,0,0,0,.94,4.05l.06.09.06.1a2.61,2.61,0,0,0,.44.62,1,1,0,0,0,.09-.15,6,6,0,0,0,.72-3.15v-5.31l23.65-1.3,1.42,3.91c1.27,3.48,2.86,5.74,4.05,5.74.23,0,.72,0,1.59-1.1a4.4,4.4,0,0,0,1.11-2.94,19.81,19.81,0,0,0-2.52-9.73c-.27-.47-1.5-2.46-6.83-9.82L690.56,80,717,66.7l2.75,4.15a101.62,101.62,0,0,1,8.43,14.68,42.73,42.73,0,0,1,4,17.57c0,9.47-2.42,17.32-7.2,23.34C719.45,133.43,711.52,137,701.4,137Z" style="fill: #0702b0"/>
    <path d="M726.57,103.1q0,12.32-6,19.85-6.65,8.43-19.18,8.42-9.54,0-16.08-5.21A24,24,0,0,1,670.58,131q-12.21,0-18.52-8.42-5.43-7.43-5.43-19.52,0-13.74,9.75-29.15l17,6.76a54.66,54.66,0,0,0-6.43,11.42A32.59,32.59,0,0,0,664,104.32a13,13,0,0,0,1.78,7,6.13,6.13,0,0,0,5.54,3.55A5.32,5.32,0,0,0,676,112a11.53,11.53,0,0,0,1.55-6.09l14.19-.78q3.43,9.42,9.32,9.42a7.48,7.48,0,0,0,6-3.21,10,10,0,0,0,2.33-6.43,25.55,25.55,0,0,0-3.21-12.42q-1.11-2-7.21-10.42L715,74a98.39,98.39,0,0,1,8,13.85A37.22,37.22,0,0,1,726.57,103.1Z" style="fill: url(#New_Gradient_Swatch_2)"/>
    <path d="M455.32,137.28c-1.57-4.78-3-12.06-4.45-22.26a199.7,199.7,0,0,1-2.09-25.77c0-10.77,1.23-18.81,3.77-24.58,4.3-9.77,11.66-11.23,15.66-11.23,5.14,0,10.74,2.63,17.6,8.27l.15.12,7.18,6.62c2.2-2.08,4.1-3.93,5.7-5.52,6.16-6.17,11.4-9,16.49-9,9.91,0,17.32,5.53,20.87,15.55,1.92,5.33,2.86,12.53,2.86,22,0,17.6-.78,30.23-2.38,38.63l-1.19,6.26-30.42-5,.71-6.2c.5-4.4.94-12.43,1.31-23.87l0-.73-2.45,3.59-20.6,1L482,102.52c-.67-.84-1.3-1.6-1.88-2.29.63,5.69,2.19,15,5.68,30.28l1.52,6.66-30.2,5.55Z" style="fill: #0702b0"/>
    <path d="M532.51,91.4q0,25.55-2.26,37.4l-18-2.93q.79-6.9,1.36-24.41.55-18.54-.12-18.53-2.37,0-12.43,14.8l-14,.68q-8.93-11.07-12.54-11.08-1.37,0-1.36,7.35,0,10,6.22,37.29l-17.86,3.28q-2.15-6.56-4.18-21.14a191.24,191.24,0,0,1-2-24.86Q455.32,60,468.21,60q5.19,0,13.45,6.78l11.52,10.62q6.33-5.88,10.29-9.83,7.11-7.12,11.86-7.12,10.74,0,14.69,11.19Q532.51,78.52,532.51,91.4Z" style="fill: url(#New_Gradient_Swatch_2-2)"/>
    <path d="M617.45,139.79c-11.06,0-20.34-2.44-27.61-7.26-9.1-6.13-13.7-15-13.7-26.51S580.45,85.37,589,79.11c7.16-5.29,16.49-8,27.72-8,10.56,0,19.58,2.68,26.81,8l0,0c8.41,6.26,12.68,15,12.68,25.89s-4.06,19.6-12.06,26.09C637,136.87,628,139.79,617.45,139.79Zm-1.89-41a12.62,12.62,0,0,0-7.59,2,5.57,5.57,0,0,0-2.55,5.09c0,1.64.45,3,2.61,4.22a16.81,16.81,0,0,0,8.42,1.92,15.67,15.67,0,0,0,8.34-1.92,5,5,0,0,0,2.79-4.78c0-1.52-.36-3.14-3-4.65A18.44,18.44,0,0,0,615.56,98.77Z" style="fill: #0702b0"/>
    <path d="M650.6,105q0,13.64-10,21.73-9.21,7.42-23.17,7.43-15,0-24.51-6.32-11.19-7.55-11.2-21.84,0-14.64,10.54-22.4,9.32-6.87,24.39-6.87,14.08,0,23.51,6.87Q650.59,91.39,650.6,105Zm-17.41.33q0-6.21-5.88-9.53a23.82,23.82,0,0,0-11.75-2.66,18.13,18.13,0,0,0-10.86,3.1,11.11,11.11,0,0,0-4.88,9.65,9.9,9.9,0,0,0,5.43,9.09,22.26,22.26,0,0,0,11.2,2.66q6.87,0,11.31-2.77A10.57,10.57,0,0,0,633.19,105.35Z" style="fill: url(#New_Gradient_Swatch_2-3)"/>
    <path d="M555.23,137.24c-5,0-8.71-.69-11.43-2.11-6.81-3.55-14.25-8.74-17.83-20.36-2.63-8.57-1.17-16.85,4.34-24.62a36.53,36.53,0,0,1,19.52-14,41,41,0,0,1,12.07-1.88,37.23,37.23,0,0,1,11,1.67c9,2.84,15.07,8.73,17.63,17,1.64,5.34,1.38,10.25-.77,14.59l-.07.14a17,17,0,0,1-2.58,3.64L591,130.6l-4.86,1.49C578.11,134.57,565,137.24,555.23,137.24Z" style="fill: #0702b0"/>
    <path d="M585.19,94.63q1.81,5.93-.43,10.46t-8.38,6.33q-7.5,2.31-29.25,3c7.17,6.84,26.28,1.43,34.67-1.15l2.71,13.44c-10,3.08-31,7.12-38.12,3.43-6.61-3.45-12.19-7.73-15.06-17q-3.15-10.26,3.55-19.72a30.88,30.88,0,0,1,16.6-11.89,32.92,32.92,0,0,1,19.78-.21Q582.14,84.74,585.19,94.63ZM571,98q-1-3.15-5.73-3.81a19.19,19.19,0,0,0-17.91,7.94Q566.79,101,570,100a2.1,2.1,0,0,0,1.21-.68A2.7,2.7,0,0,0,571,98Z" style="fill: url(#New_Gradient_Swatch_2-4)"/>
    <g>
      <g>
        <g>
          <g>
            <path d="M475.38,131.52c-1.25-1.47-4.4-2.48-9.09-2.73a39.8,39.8,0,0,0-73.23,28.47c-6.79,6.28-10.55,12.31-7.68,15.68,2.53,3,11.43,2.58,16.53,2.08a39.79,39.79,0,0,0,69.43-32C474.54,140.68,479.31,136.14,475.38,131.52Z" style="fill: #ffd404"/>
            <path d="M428.46,192.46A43.35,43.35,0,0,1,400.35,179c-14,1.05-16.89-2.41-17.89-3.58-2.81-3.31-3.85-9.34,6.46-19.5a43.23,43.23,0,0,1-.41-10.48,43.62,43.62,0,0,1,80-20.31c4.71.5,8,1.81,9.78,3.91a9.28,9.28,0,0,1,2.32,7.22c-.42,3.44-2.79,6.3-5.21,8.39a43,43,0,0,1,.07,7.86A43.67,43.67,0,0,1,428.46,192.46ZM403.51,171l1.29,1.5a36,36,0,0,0,63.06-20.63,36.46,36.46,0,0,0-.3-8.34l-.35-2.31,1.9-1.37c2.72-2,3.8-3.63,3.91-4.54,0-.17.08-.58-.54-1.31-.35-.32-2.15-1.18-6.4-1.41L464,132.5l-1-1.77a36,36,0,0,0-66.18,25.73l.78.47-1.77,2.93c-7.38,6.83-7.75,10.34-7.53,10.6.55.49,4.06,1.65,13.24.75Z" style="fill: #0000b2"/>
          </g>
          <path d="M394.17,161.26l-3.3-6.44c.48-.52,11.85-12.95,33.08-20.73a170.54,170.54,0,0,1,41.71-9.21l.55,7.63a128.59,128.59,0,0,0-39.5,7.24C407.36,146.84,394.27,161.15,394.17,161.26Z" style="fill: #0000b2"/>
        </g>
        <g>
          <path d="M430,165.64a42.83,42.83,0,0,0,4.38,9.32,10.72,10.72,0,1,0-6.37,1.33,48.44,48.44,0,0,1-3.85-8.84Z" style="fill: #0000b2"/>
          <path d="M447.69,181.81l.12-.1s-2.21,1.62-7.58-.91c-2.22-1.05-4.19-3.32-5.81-5.84a10.61,10.61,0,0,1-6.15,1.36l-.22,0c2.22,3.92,5.38,8.07,9.57,10a19.68,19.68,0,0,0,6.85,2c4.73.39,7.15-1.78,7.5-2.12Z" style="fill: #0000b2"/>
          <path d="M434.42,175a42.83,42.83,0,0,1-4.38-9.32l-5.84,1.81a48.44,48.44,0,0,0,3.85,8.84l.22,0A10.61,10.61,0,0,0,434.42,175Z" style="fill: #0000b2"/>
        </g>
      </g>
      <circle cx="423.61" cy="103.73" r="6.89" style="fill: #0000b2"/>
    </g>
  </g>
  <defs>
    <linearGradient id="Sky_2" data-name="Sky 2" x1="406.87" y1="58.34" x2="378.85" y2="155.96" gradientUnits="userSpaceOnUse">
      <stop offset="0" stop-color="#c6e0f5"/>
      <stop offset="0.06" stop-color="#bdddf4"/>
      <stop offset="0.15" stop-color="#a3d4f1"/>
      <stop offset="0.28" stop-color="#7ac7eb"/>
      <stop offset="0.42" stop-color="#40b3e4"/>
      <stop offset="0.57" stop-color="#009edc"/>
      <stop offset="0.87" stop-color="#0077c3"/>
      <stop offset="0.99" stop-color="#005d9b"/>
    </linearGradient>
    <linearGradient id="Sky_2-2" x1="361.62" y1="50.01" x2="354.97" y2="154.01" xlink:href="#Sky_2"/>
    <linearGradient id="Sky_2-3" x1="316.67" y1="61.44" x2="282.63" y2="143.26" xlink:href="#Sky_2"/>
    <linearGradient id="linear-gradient" x1="238.54" y1="60.55" x2="236.14" y2="160.36" gradientUnits="userSpaceOnUse">
      <stop offset="0" stop-color="#c6e0f5"/>
      <stop offset="0.06" stop-color="#bdddf4"/>
      <stop offset="0.15" stop-color="#a3d4f1"/>
      <stop offset="0.28" stop-color="#7ac7eb"/>
      <stop offset="0.42" stop-color="#40b3e4"/>
      <stop offset="0.57" stop-color="#009edc"/>
      <stop offset="0.87" stop-color="#0077c3"/>
    </linearGradient>
    <linearGradient id="Sky_2-4" x1="179.56" y1="61.4" x2="176.38" y2="132.23" xlink:href="#Sky_2"/>
    <linearGradient id="Sky_2-5" x1="98.28" y1="49.18" x2="128.81" y2="163.35" xlink:href="#Sky_2"/>
    <radialGradient id="New_Gradient_Swatch_2" data-name="New Gradient Swatch 2" cx="776.17" cy="46.5" r="423.59" gradientTransform="translate(0 -0.42)" gradientUnits="userSpaceOnUse">
      <stop offset="0" stop-color="#fff700"/>
      <stop offset="0.06" stop-color="#ffea00"/>
      <stop offset="0.24" stop-color="#ffc800"/>
      <stop offset="0.42" stop-color="#ffad00"/>
      <stop offset="0.61" stop-color="#ff9a00"/>
      <stop offset="0.8" stop-color="#ff8f00"/>
      <stop offset="1" stop-color="#ff8b00"/>
    </radialGradient>
    <radialGradient id="New_Gradient_Swatch_2-2" cx="514.22" cy="57.74" r="243.37" xlink:href="#New_Gradient_Swatch_2"/>
    <radialGradient id="New_Gradient_Swatch_2-3" cx="594.62" cy="68.98" r="233.37" xlink:href="#New_Gradient_Swatch_2"/>
    <radialGradient id="New_Gradient_Swatch_2-4" cx="581.66" cy="56.88" r="327.4" xlink:href="#New_Gradient_Swatch_2"/>
  </defs></svg>