<svg xmlns="http://www.w3.org/2000/svg" xmlns:xlink="http://www.w3.org/1999/xlink" viewBox="0 0 1500 1500">  <g id="sky">
    <rect width="1500" height="1499.86" style="fill: #ffe600"/>
  </g>  <g id="pattern">
    <path d="M1500,0H1228.83l-65.52,122.64L1100.84,1h-288l-64,119.75L686.84,0h-288L333.31,122.64,270.84,1H0V6H122.46V7L59.27,125.3H0v5H58.51l9.09,17,50.85,99L0,174.7v5.84L116.54,251H0v5H116.88L0,326v5.83L119.64,260.2l-10.93,20.71L58.44,375H0v5.33H57.51l63,117.89,1.07,2.08H0v5.75H116L0,575.48v5.83l118.2-70.75L57.26,624.63l-.21.39H0v5H58.79L118.4,746.11,0,674.5v5.84L110.21,747H0v8.33H121.23l-62,116H0v8.75H60.51l7.09,13.27,50.85,99L0,920.7v5.84L116.54,997H0v5H116.88L0,1072v5.83l119.64-71.61-10.93,20.72L58.44,1121H0v5.33H57.51l63,117.9,1.06,2.07H0v5.75H116L0,1321.48v5.83l118.2-70.75L57.05,1371H0v5H58.79l59.61,116.08L0,1420.5v5.84l115.71,70H0V1500H1378.58l-.75-1.4L1500,1425.47v-5.82l-117.69,70.44L1443.25,1376H1500v-5h-58.17l-62.41-116.8L1500,1327.15v-5.84l-116.16-70.26H1500v-5H1378l28.25-53.53,35.36-66.19H1500V1121h-60.41l-58.38-113.68L1500,1079.16v-5.84L1380.47,1001H1500v-5H1381l119-71.25V919L1376.46,992.9l61.31-114.76.48.91H1500V871.3h-60.22l-63-118H1500V746H1385.19L1500,677.28v-5.83l-119.69,71.64L1441.25,629H1500v-5h-60.17l-62.41-116.8L1500,581.36v-5.84l-116.51-70.47H1500V498.3H1379l62.26-118H1500V374h-60.92l-57.87-112.68L1500,333.16v-5.84L1380.47,255H1500v-5H1381l119-71.24V173l-120.91,72.37,60.71-115H1500v-5h-61.67L1376.56,5H1500ZM1231.83,5h136.63V6L1305.27,124.3H1168.09Zm-.43,1246.05H1362l-190.9,114.27Zm-65.94,114.22V1129.92l61.26,119.29ZM1173,1370l194.18-116.23L1305.81,1370Zm191.43,121.08L1172.47,1375h132.32Zm-131.15-245.06-64.5-120.72h134.76l63,117.9,1.45,2.82Zm-67.79-630.16v-232L1226.2,502.2Zm65.94-110.84H1362L1171.09,619.32Zm-3.74,249.1-61.3,116.15h-.9V637.73Zm-54.45-118.83,188.5,114h-130Zm-4.07,243.73,193.4,117H1230.25l-.92,1.72-60.95-118.7Zm9.66,0h127.71l7.09,13.27,50.85,99Zm54.45,122h129.63l-190.57,114.06Zm132.39,4.17-10.93,20.72L1304.44,1120h-130.6Zm-55.88,116.59,49.34-93.48,9.36-17.53v225.33ZM1318,890l-7.89-15.37,58.31-110.49V984.4Zm-12.77-19.71H1172l61.21-116h134ZM1172.47,629h131.88l11.37,21.29,48.68,94.8Zm131.11-5H1173l192-114.93ZM1232.85,499.3l-64.1-120h134.76l63,117.89,1.07,2.08ZM1362.54,250H1231.83l-62.41-116.8ZM1172.6,129.3h131.91l9.09,17,50.85,99ZM1233.25,255h129.63L1172.31,369.09Zm132.39,4.18-10.93,20.71L1304.44,374h-130.6Zm-55.88,116.59,49.33-93.47,9.37-17.54V490.11ZM1318,144l-8.64-16.82,59.06-110.56V238.4Zm-153.82-8.11,61.43,119.61-61.32,116.17L1101.68,254.4Zm-206.76,853V757.78l11.37,21.27,49.37,96.15Zm65.42-109.84h129.45L963.1,992.32Zm-4.55,245.62L957.46,1238.6V1010.73Zm-53.12-116.35L1149.87,1120H1022.56Zm60,366.71h129.63L964.31,1489.09Zm-1.42-5-62.41-116.8L1154.54,1370Zm-54.69-118H1098l7.62,14.27,50.85,99Zm128.13-7.75H963.49l61.73-117h134.54ZM964.47,1002h132.32l59.61,116.08Zm130.58-5H965L1156.2,882.56ZM1024.31,872.3l-51-95.56-12-23.41h134.27l63.56,119Zm-61.22-626,60.71-115h131.45ZM1156.2,136.56l-60.94,114.07-.21.39H965ZM1096.79,256l59.61,116.09L964.47,256Zm53.08,118H1022.56L965.21,262.32Zm-124.65,7.33h134.54l-62.49,117H963.49ZM1098,506.05l7.62,14.27,50.85,99L969.14,506.05Zm56.56,118H1023.83l-62.41-116.8Zm-129.29,5h129.63L964.31,743.09Zm132.39,4.18-10.93,20.71L1097,747H967.51ZM1102,749.3l49.07-93,9.37-17.54V863.11ZM1110,518l-8.15-15.87,58.57-111V612.4ZM1097.79,6l61.77,120.3H1022.33L960.56,6ZM957.46,10.92,1018.2,129.2,957.46,242.89Zm0,253.81,60.87,113.94L957.46,492.6ZM956.22,509.9l61.43,119.61L956.33,745.68,893.68,628.4ZM815.4,1252.05H946L755.1,1366.32Zm-65.94,110.84v-232L810.2,1249.2ZM948.2,1256.56,887.05,1371H757ZM816.85,1246.3l-64.1-120H887.51l63,117.9,1.06,2.07Zm126.24-963,9.37-17.54V491.11l-58.7-114.32ZM888.44,375H757.84l191.8-114.8-10.93,20.71ZM902,145l-8.64-16.82L952.46,17.63V239.4Zm-4.44,2.31,50.85,99L756.6,130.3H888.51ZM946.54,251H815.83l-9-16.79L756.43,136Zm-129.29,5H946.88L756.31,370.09Zm70.26,124.31,63,117.89,1.07,2.08H816.85l-64.1-120ZM756.47,630H888.79L948.4,746.11ZM940.21,747H814.05L757.21,636.32Zm-53-122.37-.21.39H757L948.2,510.56Zm-132.17-4.31L815.4,506.05H946ZM810.2,503.2,749.46,616.89v-232Zm-.13,249L749.46,865.6V638.73Zm7.15,3.16h134l-62,116H756Zm73.29,124.72,7.09,13.27,50.85,99L762.8,880.05Zm56,117H815.83l-9-16.8L756.43,882Zm-129.29,5H946.88L756.31,1116.09Zm132.39,4.17-10.93,20.72L888.44,1121H757.84Zm-55.88,116.59,49.34-93.48,9.36-17.53v225.33ZM902,891l-7.89-15.37,58.31-110.49V985.4ZM815.83,6H952.46V7L889.27,125.3H752.09ZM749.18,136.88l53.25,99.68,9.22,17.95L750.77,369.86,749,373.09,687.62,253.5Zm-205.72,851V762.52l60.2,112.69Zm64.36-107.84H735L549.1,991.32Zm-4,242.75-60.41,113.06V1009.73Zm-52.66-115.48,188,113.68H609.59Zm-.74-6.29H679.81l61.74,115.57Zm.5-5L740.83,882.38,680.12,996ZM608.33,871.3l-60.06-117H679.51L742,871.3ZM682.05,746H554.86L741.64,634.2l-10.93,20.71Zm2.66,6.79,8.63,16.81-8.81-16.48ZM738.54,625H607.83l-9-16.79L548.43,510Zm-188.7-120H680.91l8.69,16.27,50.85,99Zm59.41,125H738.88L548.31,744.09Zm78.31,117.37,47.53-90.07,9.37-17.54V858.21ZM694,519l-7.69-15,58.11-110.1V613.4ZM681.27,499.3H548.43l62.79-119H744.46V381Zm-132.18-254,60.71-115H741.25ZM740.83,136.38,680.12,250H551ZM679.81,255,741.55,370.6,550.47,255Zm59.36,120H609.59L551.21,261.32ZM683.79,5l61.77,120.3H608.33L546.56,5ZM543.46,9.92,604.2,128.2,543.46,241.89Zm0,253.81L603.87,376.8,543.46,489.86Zm51,346.83,9.22,18L542.77,743.86,541.62,746h-1.14L479.62,627.5l61.56-116.62Zm-193,640.49H532L341.1,1365.32Zm-65.94,110.84v-232L396.2,1248.2Zm197.37-105.51L472.12,1370H343Zm-130-11.08-64.1-120H473.51l63,117.9,1.06,2.07Zm126.24-963,9.37-17.54V490.11l-58.7-114.32ZM474.44,374H343.84l191.8-114.8-10.93,20.71ZM488,144l-8.64-16.82L538.46,16.63V238.4Zm-4.44,2.31,50.85,99L342.6,129.3H474.51ZM532.54,250H401.83l-62.41-116.8Zm-129.29,5H532.88L342.31,369.09Zm70.26,124.31,63,117.89,1.07,2.08H402.85l-64.1-120Zm1.76,491H342l61.21-116h134Zm1.24,8.75,7.09,13.27,50.85,99L348.8,879.05ZM400.05,746,343.21,635.32,526.21,746ZM342.47,629H471.81L533.55,744.6Zm.5-5L532.83,510.38,472.12,624Zm-1.88-4.7L401.4,505.05H532ZM396.2,502.2,335.46,615.89v-232Zm-.13,249L335.46,864.6V637.73ZM532.54,996H401.83L339.42,879.22Zm-129.29,5H532.88L342.31,1115.09Zm132.39,4.17-10.93,20.72L474.44,1120H343.84Zm-55.88,116.59,49.34-93.48,9.36-17.53v225.33ZM488,890l-7.89-15.37,58.31-110.49V984.4ZM401.83,5H538.46V6L475.27,124.3H338.09ZM334.22,135.9l61.43,119.61L334.33,371.68,271.68,254.4Zm-206.76,853V757.78l11.37,21.27L188.2,875.2Zm65.42-109.84H322.33L133.1,992.32Zm-4.55,245.62L127.46,1238.6V1010.73Zm-53.12-116.35L319.87,1120H192.56Zm60,366.71H324.88L134.31,1489.09Zm-1.42-5-62.41-116.8L324.54,1370Zm-54.69-118H268l7.62,14.27,50.85,99Zm128.13-7.75H133.49l61.73-117H329.76ZM134.47,1002H266.79l59.61,116.08Zm130.58-5H135L326.2,882.56ZM194.31,872.3l-51.05-95.56-12-23.41H265.51l63.56,119Zm-61.22-626,60.71-115H325.25ZM326.2,136.56,265.26,250.63l-.21.39H135ZM266.79,256,326.4,372.11,134.47,256Zm53.08,118H192.56L135.21,262.32Zm-124.65,7.33H329.76l-62.49,117H133.49ZM268,506.05l7.62,14.27,50.85,99L139.14,506.05Zm56.56,118H193.83l-62.41-116.8Zm-129.29,5H324.88L134.31,743.09Zm132.39,4.18-10.93,20.71L267,747H137.51ZM272,749.3l49.07-93,9.37-17.54V863.11ZM280,518l-8.15-15.87,58.57-111V612.4ZM267.79,6l61.77,120.3H192.33L130.56,6ZM127.46,10.92,188.2,129.2,127.46,242.89Zm0,253.81,60.87,113.94L127.46,492.6ZM72,145,63.4,128.19,122.46,17.63V239.4ZM63.76,376.79l49.33-93.47,9.37-17.54V491.11ZM63.68,628.4l62.54-118.5,61.43,119.61L126.33,745.68ZM72,891l-7.89-15.37,58.31-110.49V985.4Zm-8.28,231.78,49.34-93.48,9.36-17.53v225.33Zm-.08,251.61,62.54-118.5,61.43,119.61-61.32,116.17ZM131.11,1500l-.36-.67H265.51l.36.67Zm4.19-5.67L327.64,1379.2l-10.93,20.72-50.44,94.41ZM330.46,1500H271.54l-1-1.88,50.57-95.81,9.36-17.53Zm0-141.6L280,1264l-8.15-15.87,58.57-111Zm-58.78-358,62.54-118.5,61.43,119.61-61.32,116.17ZM335.46,1500V1383.73L397.58,1500Zm66.3-4.67-58.55-114,188.5,114ZM342.47,1375H471.81l61.74,115.57ZM541,1493.09,479.62,1373.5l61.56-116.62,53.25,99.68,9.22,18-60.9,115.39ZM738.54,1371H607.83l-9-16.8L548.43,1256Zm-188.7-120H680.91l8.69,16.27,50.85,99Zm59.41,125H738.88L548.31,1490.09Zm-60,119.3L741.64,1380.2l-10.93,20.72-50.44,94.41ZM744.46,1500H685l-.47-.88,50.57-95.81,9.36-17.53Zm0-140.6L694,1265l-7.69-15,58.11-110.1Zm0-232.38L681.27,1245.3H548.43l62.79-119H744.46ZM687.62,999.5l61.56-116.62,53.25,99.68,9.22,18-60.9,115.39-1.71,3.19ZM749.46,1500V1384.73L811,1500Zm66.3-3.67-58.55-114,188.5,114ZM756.47,1376H888.79l59.61,116.08Zm137.21-1.63,62.54-118.5,61.43,119.61-61.32,116.17ZM961.11,1500l-.36-.67h134.76l.36.67Zm4.19-5.67,192.34-115.13-10.93,20.72-50.44,94.41Zm195.16,5.67h-58.92l-1-1.88,50.57-95.81,9.36-17.53Zm0-141.6L1110,1264l-8.15-15.87,58.57-111Zm-58.78-358,62.54-118.5,61.43,119.61-61.32,116.17ZM1227.74,1500h-62.28V1377.17l62.69,122.06Zm140.43,0H1233.39l.39-.73-60.57-118,195.26,118.1Zm70-125.14L1374,1495.08l-1.3.77.47.78-.15.28-63.37-123.41,63.53-120.39Zm-2.54-248.71-33.83,64.1-28.37,53.1V1009.73Zm-.73-253.32-61.47,115.06V757.78Zm-1.28-244.32-61.58,116.67L1320.15,648l-10.52-20.5,62.59-118.6Zm.95-250.34L1373.46,492.6V263.73Zm-.4-250-60.74,113.69V9.92Z" style="fill: #006837"/>
  </g>  <g id="base">
    <rect y="1330.87" width="1500" height="168.98" style="fill: #00a651"/>
  </g>  <g id="land">
    <rect x="0.46" y="1028.55" width="1500.11" height="302.58" style="fill: #ffe600"/>
  </g>  <g id="city">
    <line x1="0.12" y1="1028.95" x2="1500.12" y2="1028.95" style="fill: #ffc0f9;stroke: #000;stroke-miterlimit: 10;stroke-width: 3px"/>
    <path d="M1169.42,348.81h-42s-1-13-11-13-9,10-9,10-7-25-28-25-30,26-30,26-16-4-20,2-3,17-3,17h-36" style="fill: none;stroke: #000;stroke-miterlimit: 10;stroke-width: 3px"/>
    <path d="M226.92,323.81s9.23-16.19,21.61-17.59S266.36,324,266.36,324s6.52-12.93,17-14.58,21.52,14.35,21.52,14.35" style="fill: none;stroke: #000;stroke-miterlimit: 10;stroke-width: 3px"/>
    <path d="M846.15,240.08l8.27,2.23-5.5,1.48a8.52,8.52,0,0,0-6,6l-1.48,5.5-1.76-6.54a6.66,6.66,0,0,0-4.7-4.7l-6.54-1.76,6.48-1.75a6.73,6.73,0,0,0,4.77-4.77l1.75-6.48,2.23,8.27A3.53,3.53,0,0,0,846.15,240.08Z" style="fill: none;stroke: #000;stroke-miterlimit: 10;stroke-width: 2px"/>
    <path d="M492.15,172.08l8.27,2.23-5.5,1.48a8.52,8.52,0,0,0-6,6l-1.48,5.5-1.76-6.54a6.66,6.66,0,0,0-4.7-4.7l-6.54-1.76,6.48-1.75a6.73,6.73,0,0,0,4.77-4.77l1.75-6.48,2.23,8.27A3.53,3.53,0,0,0,492.15,172.08Z" style="fill: none;stroke: #000;stroke-miterlimit: 10;stroke-width: 2px"/>
    <path d="M1260.15,370.08l8.27,2.23-5.5,1.48a8.52,8.52,0,0,0-6,6l-1.48,5.5-1.76-6.54a6.66,6.66,0,0,0-4.7-4.7l-6.54-1.76,6.48-1.75a6.73,6.73,0,0,0,4.77-4.77l1.75-6.48,2.23,8.27A3.53,3.53,0,0,0,1260.15,370.08Z" style="fill: none;stroke: #000;stroke-miterlimit: 10;stroke-width: 2px"/>
    <path d="M980.36,217.37s.71-9.26,7.84-9.26,6.41,7.12,6.41,7.12,5-17.82,20-17.82S1036,216,1036,216s11.41-2.85,14.26,1.42,2.14,12.12,2.14,12.12" style="fill: none;stroke: #000;stroke-miterlimit: 10;stroke-width: 3px"/>
    <path d="M573.15,522.08l8.27,2.23-5.5,1.48a8.52,8.52,0,0,0-6,6l-1.48,5.5-1.76-6.54a6.66,6.66,0,0,0-4.7-4.7l-6.54-1.76,6.48-1.75a6.73,6.73,0,0,0,4.77-4.77l1.75-6.48,2.23,8.27A3.53,3.53,0,0,0,573.15,522.08Z" style="fill: none;stroke: #000;stroke-miterlimit: 10;stroke-width: 2px"/>
    <path d="M396.15,453.08l8.27,2.23-5.5,1.48a8.52,8.52,0,0,0-6,6l-1.48,5.5-1.76-6.54a6.66,6.66,0,0,0-4.7-4.7l-6.54-1.76,6.48-1.75a6.73,6.73,0,0,0,4.77-4.77l1.75-6.48,2.23,8.27A3.53,3.53,0,0,0,396.15,453.08Z" style="fill: none;stroke: #000;stroke-miterlimit: 10;stroke-width: 2px"/>
    <path d="M1148.15,280.08l8.27,2.23-5.5,1.48a8.52,8.52,0,0,0-6,6l-1.48,5.5-1.76-6.54a6.66,6.66,0,0,0-4.7-4.7l-6.54-1.76,6.48-1.75a6.73,6.73,0,0,0,4.77-4.77l1.75-6.48,2.23,8.27A3.53,3.53,0,0,0,1148.15,280.08Z" style="fill: none;stroke: #000;stroke-miterlimit: 10;stroke-width: 2px"/>
    <g>
      <polyline points="306.62 748.49 321.88 654.58 414.63 654.58 425.19 748.49" style="fill: #ffc299;stroke: #000;stroke-miterlimit: 10;stroke-width: 3px"/>
      <polygon points="126.42 1027.31 606.57 1027.31 606.57 967.43 588.96 938.09 147.55 938.09 126.42 967.43 126.42 1027.31" style="fill: #ffc299;stroke: #000;stroke-miterlimit: 10;stroke-width: 3px"/>
      <line x1="516.76" y1="937.5" x2="516.76" y2="1027.31" style="fill: #ffc299;stroke: #000;stroke-miterlimit: 10;stroke-width: 3px"/>
      <line x1="428.66" y1="938.09" x2="428.66" y2="1027.31" style="fill: #ffc299;stroke: #000;stroke-miterlimit: 10;stroke-width: 3px"/>
      <line x1="303.03" y1="938.09" x2="303.03" y2="1027.31" style="fill: #ffc299;stroke: #000;stroke-miterlimit: 10;stroke-width: 3px"/>
      <line x1="218.08" y1="1027.31" x2="218.08" y2="938.09" style="fill: #ffc299;stroke: #000;stroke-miterlimit: 10;stroke-width: 3px"/>
      <line x1="127.01" y1="966.85" x2="607.15" y2="966.85" style="fill: #ffc299;stroke: #000;stroke-miterlimit: 10;stroke-width: 3px"/>
      <rect x="154.01" y="989.15" width="9.39" height="12.91" style="fill: #ffc299;stroke: #000;stroke-miterlimit: 10;stroke-width: 3px"/>
      <rect x="188.05" y="989.15" width="11.74" height="12.91" style="fill: #ffc299;stroke: #000;stroke-miterlimit: 10;stroke-width: 3px"/>
      <path d="M229.14,1018.5v-34s5.87-10.57,9.39-10.57,8.22,9.39,8.22,9.39v35.22Z" style="fill: #ffc299;stroke: #000;stroke-miterlimit: 10;stroke-width: 3px"/>
      <polyline points="257.31 973.89 273.75 993.85 308.97 993.85" style="fill: #ffc299;stroke: #000;stroke-miterlimit: 10;stroke-width: 3px"/>
      <line x1="325.4" y1="966.85" x2="325.4" y2="1027.31" style="fill: #ffc299;stroke: #000;stroke-miterlimit: 10;stroke-width: 3px"/>
      <polyline points="428.66 993.85 459.24 993.85 481.31 966.85" style="fill: #ffc299;stroke: #000;stroke-miterlimit: 10;stroke-width: 3px"/>
      <rect x="533.2" y="989.15" width="11.74" height="12.91" style="fill: #ffc299;stroke: #000;stroke-miterlimit: 10;stroke-width: 3px"/>
      <rect x="570.76" y="989.15" width="8.22" height="12.91" style="fill: #ffc299;stroke: #000;stroke-miterlimit: 10;stroke-width: 3px"/>
      <g>
        <path d="M526.15,899.93s-8.22-9.39-9.39-17.61,34-32.87,34-32.87,35.22,27,35.22,32.87c0,12.92-11.74,16.44-11.74,16.44Z" style="fill: #8cc63f;stroke: #000;stroke-miterlimit: 10;stroke-width: 3px"/>
        <rect x="530.26" y="899.35" width="39.91" height="11.74" style="fill: #ffc299;stroke: #000;stroke-miterlimit: 10;stroke-width: 3px"/>
        <rect x="530.26" y="911.09" width="39.91" height="25.83" style="fill: #ffc299;stroke: #000;stroke-miterlimit: 10;stroke-width: 3px"/>
        <line x1="550.32" y1="804.25" x2="550.32" y2="850.04" style="fill: #ffc299;stroke: #000;stroke-miterlimit: 10;stroke-width: 3px"/>
        <line x1="543.86" y1="811.3" x2="556.77" y2="811.3" style="fill: #ffc299;stroke: #000;stroke-miterlimit: 10;stroke-width: 2px"/>
        <circle cx="550.32" cy="831.55" r="3.23" style="fill: #ffc299;stroke: #000;stroke-miterlimit: 10;stroke-width: 3px"/>
        <line x1="544.93" y1="853.72" x2="544.93" y2="899.35" style="fill: #ffc299;stroke: #000;stroke-miterlimit: 10;stroke-width: 3px"/>
        <line x1="556.09" y1="853.72" x2="556.09" y2="899.15" style="fill: #ffc299;stroke: #000;stroke-miterlimit: 10;stroke-width: 3px"/>
        <line x1="564.75" y1="860.61" x2="564.75" y2="897" style="fill: #ffc299;stroke: #000;stroke-miterlimit: 10;stroke-width: 3px"/>
        <line x1="573.21" y1="867.85" x2="573.21" y2="899.35" style="fill: #ffc299;stroke: #000;stroke-miterlimit: 10;stroke-width: 3px"/>
        <line x1="536.03" y1="860.61" x2="536.03" y2="899.35" style="fill: #ffc299;stroke: #000;stroke-miterlimit: 10;stroke-width: 3px"/>
        <line x1="527.52" y1="867.85" x2="527.52" y2="899.35" style="fill: #ffc299;stroke: #000;stroke-miterlimit: 10;stroke-width: 3px"/>
      </g>
      <g>
        <path d="M158.7,901.11s-8.21-9.4-9.39-17.61,34.05-32.87,34.05-32.87,35.21,27,35.21,32.87c0,12.91-11.73,16.43-11.73,16.43Z" style="fill: #7ac943;stroke: #000;stroke-miterlimit: 10;stroke-width: 3px"/>
        <rect x="162.81" y="900.52" width="39.91" height="11.74" style="fill: #ffc299;stroke: #000;stroke-miterlimit: 10;stroke-width: 3px"/>
        <rect x="162.81" y="912.26" width="39.91" height="25.83" style="fill: #ffc299;stroke: #000;stroke-miterlimit: 10;stroke-width: 3px"/>
        <line x1="182.87" y1="805.43" x2="182.87" y2="851.21" style="fill: #ffc299;stroke: #000;stroke-miterlimit: 10;stroke-width: 3px"/>
        <line x1="176.41" y1="812.47" x2="189.32" y2="812.47" style="fill: #ffc299;stroke: #000;stroke-miterlimit: 10;stroke-width: 2px"/>
        <circle cx="182.87" cy="832.72" r="3.23" style="fill: #ffc299;stroke: #000;stroke-miterlimit: 10;stroke-width: 3px"/>
        <line x1="177.49" y1="854.89" x2="177.49" y2="900.52" style="fill: #ffc299;stroke: #000;stroke-miterlimit: 10;stroke-width: 3px"/>
        <line x1="188.64" y1="854.89" x2="188.64" y2="900.32" style="fill: #ffc299;stroke: #000;stroke-miterlimit: 10;stroke-width: 3px"/>
        <line x1="197.3" y1="861.79" x2="197.3" y2="898.17" style="fill: #ffc299;stroke: #000;stroke-miterlimit: 10;stroke-width: 3px"/>
        <line x1="205.77" y1="869.02" x2="205.77" y2="900.52" style="fill: #ffc299;stroke: #000;stroke-miterlimit: 10;stroke-width: 3px"/>
        <line x1="168.58" y1="861.79" x2="168.58" y2="900.52" style="fill: #ffc299;stroke: #000;stroke-miterlimit: 10;stroke-width: 3px"/>
        <line x1="160.07" y1="869.02" x2="160.07" y2="900.52" style="fill: #ffc299;stroke: #000;stroke-miterlimit: 10;stroke-width: 3px"/>
      </g>
      <g>
        <rect x="215.05" y="928.11" width="88.05" height="8.22" style="fill: #ffc299;stroke: #000;stroke-miterlimit: 10;stroke-width: 3px"/>
        <rect x="218.57" y="919.89" width="84.52" height="8.22" style="fill: #ffc299;stroke: #000;stroke-miterlimit: 10;stroke-width: 3px"/>
        <rect x="223.27" y="911.67" width="79.83" height="7.04" style="fill: #ffc299;stroke: #000;stroke-miterlimit: 10;stroke-width: 3px"/>
        <rect x="223.27" y="838.89" width="79.83" height="70.44" style="fill: #ffc299;stroke: #000;stroke-miterlimit: 10;stroke-width: 3px"/>
        <path d="M249.1,837.71V827.15s1.17-10.57,11.74-10.57,12.91,10.57,12.91,10.57v10.56" style="fill: #8cc63f;stroke: #000;stroke-miterlimit: 10;stroke-width: 3px"/>
        <path d="M223.27,838.3V827.73s1.17-10.56,11.74-10.56,12.91,10.56,12.91,10.56V838.3" style="fill: #8cc63f;stroke: #000;stroke-miterlimit: 10;stroke-width: 3px"/>
        <path d="M276.1,837.13V826.56S277.27,816,287.84,816s12.91,10.57,12.91,10.57v10.57" style="fill: #8cc63f;stroke: #000;stroke-miterlimit: 10;stroke-width: 3px"/>
        <polyline points="222.68 908.74 235.6 838.89 249.69 906.39 263.19 838.89 276.69 906.39 290.77 840.65 302.51 908.74" style="fill: #c69c6d;stroke: #000;stroke-linejoin: round;stroke-width: 3px"/>
        <polyline points="235.6 817.17 235.6 779.6 290.77 779.6 290.77 814.82" style="fill: #ffc299;stroke: #000;stroke-miterlimit: 10;stroke-width: 3px"/>
        <polyline points="244.4 813.06 244.4 787.23 253.79 787.23 253.79 810.71" style="fill: #ffc299;stroke: #000;stroke-miterlimit: 10;stroke-width: 3px"/>
        <polyline points="259.66 813.06 259.66 787.23 264.36 787.23" style="fill: #ffc299;stroke: #000;stroke-miterlimit: 10;stroke-width: 3px"/>
        <polyline points="273.75 787.23 278.45 787.23 278.45 813.06" style="fill: #ffc299;stroke: #000;stroke-miterlimit: 10;stroke-width: 3px"/>
        <polygon points="229.14 768.45 296.06 768.45 291.36 780.19 236.18 780.19 229.14 768.45" style="fill: #ffc299;stroke: #000;stroke-miterlimit: 10;stroke-width: 3px"/>
        <path d="M294.88,768.45s9.39-11.74,12.92-16.44,4.69-12.91,2.34-18.78-46.95-44.61-46.95-44.61l-48.14,41.09s-5.87,12.91,0,21.13,14.09,17.61,14.09,17.61" style="fill: #3fa9f5;stroke: #000;stroke-miterlimit: 10;stroke-width: 3px"/>
        <line x1="262.7" y1="630.51" x2="262.7" y2="688.03" style="fill: #ffc299;stroke: #000;stroke-miterlimit: 10;stroke-width: 3px"/>
        <line x1="255.55" y1="637.55" x2="268.47" y2="637.55" style="fill: #ffc299;stroke: #000;stroke-miterlimit: 10;stroke-width: 2px"/>
        <circle cx="262.7" cy="662.5" r="3.23" style="fill: #ffc299;stroke: #000;stroke-miterlimit: 10;stroke-width: 3px"/>
        <path d="M278.45,702.71s18.78,22.22,18.78,30.52c0,10.57-2.35,12.91-5.87,17.61-5.5,7.34-13.87,17.61-13.87,17.61" style="fill: #fff;stroke: #000;stroke-linejoin: round;stroke-width: 3px"/>
        <path d="M246.75,702.71S228,724.93,228,733.23c0,10.57,2.34,12.91,5.87,17.61,5.5,7.34,13.87,17.61,13.87,17.61" style="fill: #fff;stroke: #000;stroke-linejoin: round;stroke-width: 3px"/>
        <path d="M259.66,692.14s-11.74,20-15.26,28.18-4.69,9.39-3.52,15.26,12.91,31.7,12.91,31.7" style="fill: #3fa9f5;stroke: #000;stroke-miterlimit: 10;stroke-width: 3px"/>
        <path d="M265.53,692.14s11.74,20,15.26,28.18,4.7,9.39,3.53,15.26-12.92,31.7-12.92,31.7" style="fill: #3fa9f5;stroke: #000;stroke-miterlimit: 10;stroke-width: 3px"/>
        <path d="M262,691s-8.8,22.89-8.8,40.5,8.21,37,8.21,37,9.4-20.54,9.4-35.81S263.19,691,263.19,691" style="fill: #fff;stroke: #000;stroke-linejoin: round;stroke-width: 3px"/>
      </g>
      <g>
        <rect x="428.5" y="928.11" width="88.05" height="8.22" transform="translate(945.05 1864.43) rotate(-180)" style="fill: #ffc299;stroke: #000;stroke-miterlimit: 10;stroke-width: 3px"/>
        <rect x="428.5" y="919.89" width="84.52" height="8.22" transform="translate(941.52 1848) rotate(-180)" style="fill: #ffc299;stroke: #000;stroke-miterlimit: 10;stroke-width: 3px"/>
        <rect x="428.5" y="911.67" width="79.83" height="7.04" transform="translate(936.83 1830.39) rotate(-180)" style="fill: #ffc299;stroke: #000;stroke-miterlimit: 10;stroke-width: 3px"/>
        <rect x="428.5" y="838.89" width="79.83" height="70.44" transform="translate(936.83 1748.21) rotate(-180)" style="fill: #ffc299;stroke: #000;stroke-miterlimit: 10;stroke-width: 3px"/>
        <path d="M482.5,837.71V827.15s-1.17-10.57-11.74-10.57-12.91,10.57-12.91,10.57v10.56" style="fill: #7ac943;stroke: #000;stroke-miterlimit: 10;stroke-width: 3px"/>
        <path d="M508.33,838.3V827.73s-1.17-10.56-11.74-10.56-12.91,10.56-12.91,10.56V838.3" style="fill: #7ac943;stroke: #000;stroke-miterlimit: 10;stroke-width: 3px"/>
        <path d="M455.5,837.13V826.56S454.33,816,443.76,816s-12.91,10.57-12.91,10.57v10.57" style="fill: #7ac943;stroke: #000;stroke-miterlimit: 10;stroke-width: 3px"/>
        <polyline points="508.92 908.74 496 838.89 481.92 906.39 468.41 838.89 454.91 906.39 440.83 840.65 429.09 908.74" style="fill: #a67c52;stroke: #000;stroke-linejoin: round;stroke-width: 3px"/>
        <polyline points="496 817.17 496 779.6 440.83 779.6 440.83 814.82" style="fill: #ffc299;stroke: #000;stroke-miterlimit: 10;stroke-width: 3px"/>
        <polyline points="487.2 813.06 487.2 787.23 477.81 787.23 477.81 810.71" style="fill: #ffc299;stroke: #000;stroke-miterlimit: 10;stroke-width: 3px"/>
        <polyline points="471.94 813.06 471.94 787.23 467.24 787.23" style="fill: #ffc299;stroke: #000;stroke-miterlimit: 10;stroke-width: 3px"/>
        <polyline points="457.85 787.23 453.15 787.23 453.15 813.06" style="fill: #ffc299;stroke: #000;stroke-miterlimit: 10;stroke-width: 3px"/>
        <polygon points="502.46 768.45 435.54 768.45 440.24 780.19 495.42 780.19 502.46 768.45" style="fill: #ffc299;stroke: #000;stroke-miterlimit: 10;stroke-width: 3px"/>
        <path d="M436.72,768.45S427.33,756.71,423.8,752s-4.69-12.91-2.34-18.78,47-44.61,47-44.61l48.14,41.09s5.87,12.91,0,21.13-14.09,17.61-14.09,17.61" style="fill: #f7931e;stroke: #000;stroke-miterlimit: 10;stroke-width: 3px"/>
        <line x1="468.9" y1="630.51" x2="468.9" y2="688.03" style="fill: #ffc299;stroke: #000;stroke-miterlimit: 10;stroke-width: 3px"/>
        <line x1="476.05" y1="637.55" x2="463.13" y2="637.55" style="fill: #ffc299;stroke: #000;stroke-miterlimit: 10;stroke-width: 2px"/>
        <circle cx="468.9" cy="662.5" r="3.23" style="fill: #ffc299;stroke: #000;stroke-miterlimit: 10;stroke-width: 3px"/>
        <path d="M453.15,702.71s-18.78,22.22-18.78,30.52c0,10.57,2.35,12.91,5.87,17.61,5.5,7.34,13.87,17.61,13.87,17.61" style="fill: #7ac943;stroke: #000;stroke-linejoin: round;stroke-width: 3px"/>
        <path d="M484.85,702.71s18.78,22.22,18.78,30.52c0,10.57-2.34,12.91-5.87,17.61-5.5,7.34-13.87,17.61-13.87,17.61" style="fill: #7ac943;stroke: #000;stroke-linejoin: round;stroke-width: 3px"/>
        <path d="M466.07,692.14s-11.74,20-15.26,28.18-4.7,9.39-3.53,15.26,12.92,31.7,12.92,31.7" style="fill: #f7931e;stroke: #000;stroke-miterlimit: 10;stroke-width: 3px"/>
        <path d="M471.94,692.14s11.74,20,15.26,28.18,4.69,9.39,3.52,15.26-12.91,31.7-12.91,31.7" style="fill: #f7931e;stroke: #000;stroke-miterlimit: 10;stroke-width: 3px"/>
        <path d="M469.59,691s8.8,22.89,8.8,40.5-8.21,37-8.21,37-9.4-20.54-9.4-35.81S468.41,691,468.41,691" style="fill: #7ac943;stroke: #000;stroke-linejoin: round;stroke-width: 3px"/>
      </g>
      <rect x="302.51" y="811.3" width="125.61" height="124.44" style="fill: #ff9a55;stroke: #000;stroke-miterlimit: 10;stroke-width: 3px"/>
      <path d="M333.14,861.78h3.31a9.5,9.5,0,0,1,9.5,9.5v39.81a0,0,0,0,1,0,0H323.64a0,0,0,0,1,0,0V871.28A9.5,9.5,0,0,1,333.14,861.78Z" style="fill: #ffc299;stroke: #000;stroke-miterlimit: 10;stroke-width: 3px"/>
      <path d="M364.25,862.37h3.31a9.5,9.5,0,0,1,9.5,9.5v39.81a0,0,0,0,1,0,0H354.75a0,0,0,0,1,0,0V871.87A9.5,9.5,0,0,1,364.25,862.37Z" style="fill: #ffc299;stroke: #000;stroke-miterlimit: 10;stroke-width: 3px"/>
      <path d="M397.12,862.37h3.31a9.5,9.5,0,0,1,9.5,9.5v39.81a0,0,0,0,1,0,0H387.62a0,0,0,0,1,0,0V871.87A9.5,9.5,0,0,1,397.12,862.37Z" style="fill: #ffc299;stroke: #000;stroke-miterlimit: 10;stroke-width: 3px"/>
      <line x1="303.1" y1="911.67" x2="428.5" y2="911.67" style="fill: #ffc299;stroke: #000;stroke-miterlimit: 10;stroke-width: 3px"/>
      <rect x="313.67" y="835.36" width="104.48" height="18.78" style="fill: #ffc299;stroke: #000;stroke-miterlimit: 10;stroke-width: 3px"/>
      <rect x="319.54" y="748.49" width="42.26" height="61.05" style="fill: #ffc299;stroke: #000;stroke-miterlimit: 10;stroke-width: 3px"/>
      <rect x="373.54" y="748.49" width="41.09" height="61.05" style="fill: #ffc299;stroke: #000;stroke-miterlimit: 10;stroke-width: 3px"/>
      <rect x="386.45" y="780.19" width="14.09" height="23.48" style="fill: #ffc299;stroke: #000;stroke-miterlimit: 10;stroke-width: 3px"/>
      <rect x="334.8" y="780.19" width="12.91" height="23.48" style="fill: #ffc299;stroke: #000;stroke-miterlimit: 10;stroke-width: 3px"/>
      <line x1="311.37" y1="748.49" x2="420.5" y2="748.49" style="fill: #ffc299;stroke: #000;stroke-miterlimit: 10;stroke-width: 3px"/>
      <path d="M425.19,759.06v51.65" style="fill: #ffc299;stroke: #000;stroke-miterlimit: 10;stroke-width: 3px"/>
      <line x1="308" y1="810.71" x2="308" y2="752.01" style="fill: #ffc299;stroke: #000;stroke-miterlimit: 10;stroke-width: 3px"/>
      <polyline points="325.4 652.23 355.93 563.01 361.8 563.01 375.88 563.01 411.1 652.23" style="fill: #ffc299;stroke: #000;stroke-miterlimit: 10;stroke-width: 3px"/>
      <line x1="343.38" y1="652.23" x2="361.8" y2="563.01" style="fill: #ffc299;stroke: #000;stroke-miterlimit: 10;stroke-width: 3px"/>
      <line x1="367.08" y1="652.23" x2="368.25" y2="563.01" style="fill: #ffc299;stroke: #000;stroke-miterlimit: 10;stroke-width: 3px"/>
      <line x1="388.05" y1="652.23" x2="373.54" y2="563.01" style="fill: #ffc299;stroke: #000;stroke-miterlimit: 10;stroke-width: 3px"/>
      <path d="M319.54,743.8s1.17-20,15.26-18.79,15.26,18.79,15.26,18.79" style="fill: none;stroke: #000;stroke-miterlimit: 10;stroke-width: 3px"/>
      <path d="M351.23,743.8s1.18-20,15.26-18.79,15.26,18.79,15.26,18.79" style="fill: none;stroke: #000;stroke-miterlimit: 10;stroke-width: 3px"/>
      <path d="M382.93,743.8s1.17-20,15.26-18.79,15.26,18.79,15.26,18.79" style="fill: none;stroke: #000;stroke-miterlimit: 10;stroke-width: 3px"/>
      <g>
        <path d="M319.54,726.19s1.17-20,15.26-18.79,15.26,18.79,15.26,18.79" style="fill: none;stroke: #000;stroke-miterlimit: 10;stroke-width: 3px"/>
        <path d="M351.23,726.19s1.18-20,15.26-18.79,15.26,18.79,15.26,18.79" style="fill: none;stroke: #000;stroke-miterlimit: 10;stroke-width: 3px"/>
        <path d="M382.93,726.19s1.17-20,15.26-18.79,15.26,18.79,15.26,18.79" style="fill: none;stroke: #000;stroke-miterlimit: 10;stroke-width: 3px"/>
      </g>
      <g>
        <path d="M322.47,707.4s1.14-19.95,14.78-18.78S352,707.4,352,707.4" style="fill: none;stroke: #000;stroke-miterlimit: 10;stroke-width: 3px"/>
        <path d="M353.18,707.4s1.13-19.95,14.78-18.78,14.79,18.78,14.79,18.78" style="fill: none;stroke: #000;stroke-miterlimit: 10;stroke-width: 3px"/>
        <path d="M383.88,707.4s1.14-19.95,14.79-18.78,14.78,18.78,14.78,18.78" style="fill: none;stroke: #000;stroke-miterlimit: 10;stroke-width: 3px"/>
      </g>
      <g>
        <path d="M324.82,686.27s1.05-20,13.73-18.78,13.74,18.78,13.74,18.78" style="fill: none;stroke: #000;stroke-miterlimit: 10;stroke-width: 3px"/>
        <path d="M353.35,686.27s1-20,13.73-18.78,13.74,18.78,13.74,18.78" style="fill: none;stroke: #000;stroke-miterlimit: 10;stroke-width: 3px"/>
        <path d="M381.87,686.27s1.06-20,13.74-18.78,13.73,18.78,13.73,18.78" style="fill: none;stroke: #000;stroke-miterlimit: 10;stroke-width: 3px"/>
      </g>
      <ellipse cx="366.49" cy="553.03" rx="17.02" ry="9.39" style="fill: #ffc299;stroke: #000;stroke-miterlimit: 10;stroke-width: 3px"/>
      <path d="M366.49,530.14a19.18,19.18,0,0,1-8.88-2.58,14.39,14.39,0,0,1-6.38-8c-3.52-10.57,16.44-31.7,16.44-31.7s18.78,23.48,18.78,29.35S379.41,530.14,366.49,530.14Z" style="fill: #fcee21;stroke: #000;stroke-miterlimit: 10;stroke-width: 3px"/>
      <line x1="357.1" y1="544.22" x2="357.1" y2="527.79" style="fill: #ffc299;stroke: #000;stroke-miterlimit: 10;stroke-width: 3px"/>
      <line x1="377.06" y1="544.22" x2="377.06" y2="528.1" style="fill: #ffc299;stroke: #000;stroke-miterlimit: 10;stroke-width: 3px"/>
      <line x1="367.67" y1="487.87" x2="367.67" y2="450.31" style="fill: #ffc299;stroke: #000;stroke-miterlimit: 10;stroke-width: 3px"/>
      <line x1="357.1" y1="462.05" x2="377.06" y2="462.05" style="fill: #ffc299;stroke: #000;stroke-miterlimit: 10;stroke-width: 3px"/>
    </g>
    <g>
      <path d="M892,1026.81V623.29s32.63-30.46,79.4-34.81,46.76,0,46.76,0v438.33Z" style="fill: #8d98ff;stroke: #000;stroke-miterlimit: 10;stroke-width: 3px"/>
      <polyline points="1052.98 586.31 1029.05 596.1 1029.05 1026.81 1052.98 1026.81 1052.98 586.31" style="fill: #8d98ff;stroke: #000;stroke-miterlimit: 10;stroke-width: 3px"/>
      <line x1="1018.17" y1="1026.81" x2="1029.05" y2="1026.81" style="fill: #8d98ff;stroke: #000;stroke-miterlimit: 10;stroke-width: 3px"/>
      <line x1="1018.17" y1="588.48" x2="1029.05" y2="596.1" style="fill: #8d98ff;stroke: #000;stroke-miterlimit: 10;stroke-width: 3px"/>
      <line x1="1053.52" y1="1007.23" x2="892.01" y2="1007.23" style="fill: #8d98ff;stroke: #000;stroke-miterlimit: 10;stroke-width: 3px"/>
      <line x1="1053.52" y1="993.09" x2="892.01" y2="993.09" style="fill: #8d98ff;stroke: #000;stroke-miterlimit: 10;stroke-width: 3px"/>
      <line x1="1053.52" y1="975.69" x2="892.01" y2="975.69" style="fill: #8d98ff;stroke: #000;stroke-miterlimit: 10;stroke-width: 3px"/>
      <line x1="1053.52" y1="961.55" x2="892.01" y2="961.55" style="fill: #8d98ff;stroke: #000;stroke-miterlimit: 10;stroke-width: 3px"/>
      <path d="M892,640.68s33.65-25.17,63.62-31c36.44-7.07,62.54-2,62.54-2l9.25,6.38L1053,605.2" style="fill: #8d98ff;stroke: #000;stroke-miterlimit: 10;stroke-width: 3px"/>
      <path d="M892,655.91s33.65-25.18,63.62-31c36.44-7.07,62.54-2,62.54-2l9.25,6.38,25.56-8.84" style="fill: #8d98ff;stroke: #000;stroke-miterlimit: 10;stroke-width: 3px"/>
      <path d="M892,672.23s33.65-25.18,63.62-31c36.44-7.07,62.54-2,62.54-2l10.34,6.38,24.47-8.83" style="fill: #8d98ff;stroke: #000;stroke-miterlimit: 10;stroke-width: 3px"/>
      <path d="M892,688.54s33.65-23,63.62-28.82c36.44-7.07,62.54-4.2,62.54-4.2l10.34,7.47,24.47-8.84" style="fill: #8d98ff;stroke: #000;stroke-miterlimit: 10;stroke-width: 3px"/>
      <path d="M892,703.77s33.65-21.92,63.62-27.73c36.44-7.07,62.54-3.12,62.54-3.12l10.34,7.47,24.47-8.84" style="fill: #8d98ff;stroke: #000;stroke-miterlimit: 10;stroke-width: 3px"/>
      <path d="M892,717.91s33.65-19.74,63.62-25.56c36.44-7.07,62.54-3.11,62.54-3.11l10.34,7.46,24.47-8.83" style="fill: #8d98ff;stroke: #000;stroke-miterlimit: 10;stroke-width: 3px"/>
      <path d="M892,734.22s33.65-19.74,63.62-25.55c36.44-7.07,62.54-2,62.54-2l10.34,7.47,24.47-8.84" style="fill: #8d98ff;stroke: #000;stroke-miterlimit: 10;stroke-width: 3px"/>
      <path d="M892,748.36s33.65-16.47,63.62-22.29c36.44-7.07,62.54-2,62.54-2l10.34,5.29,24.47-9.92" style="fill: #8d98ff;stroke: #000;stroke-miterlimit: 10;stroke-width: 3px"/>
      <path d="M890.92,764.68s33.25-19.21,63.63-22.29c37.52-3.81,62.54-.95,62.54-.95l10.33,4.21,24.47-4.49" style="fill: #8d98ff;stroke: #000;stroke-miterlimit: 10;stroke-width: 3px"/>
      <path d="M890.92,779.9s33.25-18.12,63.63-21.2c37.52-3.81,62.54-.94,62.54-.94l10.33,4.2,24.47-4.48" style="fill: #8d98ff;stroke: #000;stroke-miterlimit: 10;stroke-width: 3px"/>
      <path d="M890.92,796.22S924.17,778.1,954.55,775c37.52-3.8,62.54-.94,62.54-.94l10.33,4.21,24.47-1.23" style="fill: #8d98ff;stroke: #000;stroke-miterlimit: 10;stroke-width: 3px"/>
      <path d="M890.92,811.44s33.25-18.12,63.63-21.2c37.52-3.8,62.54-.94,62.54-.94l10.33,4.2,24.47-1.22" style="fill: #8d98ff;stroke: #000;stroke-miterlimit: 10;stroke-width: 3px"/>
      <path d="M890.92,827.76s33.25-18.12,63.63-21.2c37.52-3.81,62.54-.94,62.54-.94l10.33,4.2,24.47-1.23" style="fill: #8d98ff;stroke: #000;stroke-miterlimit: 10;stroke-width: 3px"/>
      <path d="M890.92,843s33.25-14.86,63.63-17.94c37.52-3.81,62.54-2,62.54-2l10.33,3.11,24.47-1.22" style="fill: #8d98ff;stroke: #000;stroke-miterlimit: 10;stroke-width: 3px"/>
      <path d="M890.92,857.13s33.25-12.69,63.63-15.77c37.52-3.81,62.54-2,62.54-2l10.33,3.12,24.47-1.23" style="fill: #8d98ff;stroke: #000;stroke-miterlimit: 10;stroke-width: 3px"/>
      <path d="M892,871.27s33.25-11.6,63.62-14.68c37.53-3.81,62.54-.94,62.54-.94l10.34,3.11,24.47-.13" style="fill: #8d98ff;stroke: #000;stroke-miterlimit: 10;stroke-width: 3px"/>
      <path d="M890.92,887.58S924.17,876,954.55,872.9c37.52-3.8,62.54,1.24,62.54,1.24l10.33,2,24.47-1.23" style="fill: #8d98ff;stroke: #000;stroke-miterlimit: 10;stroke-width: 3px"/>
      <path d="M892,902.81s33.25-9.42,63.62-12.5c37.53-3.81,62.54,1.23,62.54,1.23l10.34.94,24.47-.14" style="fill: #8d98ff;stroke: #000;stroke-miterlimit: 10;stroke-width: 3px"/>
      <path d="M892,917s33.25-6.16,63.62-9.24c37.53-3.81,62.54,1.23,62.54,1.23l10.34-.14,24.47-1.23" style="fill: #8d98ff;stroke: #000;stroke-miterlimit: 10;stroke-width: 3px"/>
      <path d="M893.09,931.09s33.13-5.81,63.63-7.07c39.7-1.63,62.54.15,62.54.15l10.34,2,24.47-.14" style="fill: #8d98ff;stroke: #000;stroke-miterlimit: 10;stroke-width: 3px"/>
      <path d="M892,946.31s33.12-3.66,63.62-4.88c40.79-1.64,62.54.14,62.54.14l10.34,2,24.47-1.22" style="fill: #8d98ff;stroke: #000;stroke-miterlimit: 10;stroke-width: 3px"/>
    </g>
    <g>
      <path d="M1342.92,626.81l45-42s56,163,64,203,16,102,12,138-13,98-13,98-41-126-47-142-37-91-42-110-12-47-14-69S1342.92,626.81,1342.92,626.81Z" style="fill: #03a6d8;stroke: #000;stroke-miterlimit: 10;stroke-width: 3px"/>
      <path d="M1361.92,783.81s-21,96-19,130,19,114,19,114h89" style="fill: #03a6d8;stroke: #000;stroke-miterlimit: 10;stroke-width: 3px"/>
      <line x1="1358.03" y1="1008.81" x2="1444.92" y2="1004.81" style="fill: #03a6d8;stroke: #000;stroke-miterlimit: 10;stroke-width: 3px"/>
      <polyline points="1354.52 990.75 1436.38 979.28 1456.37 985.01" style="fill: #03a6d8;stroke: #000;stroke-miterlimit: 10;stroke-width: 3px"/>
      <polyline points="1459.81 959.3 1427.73 952.91 1350.81 970.55" style="fill: #03a6d8;stroke: #000;stroke-miterlimit: 10;stroke-width: 3px"/>
      <path d="M1347.35,949.94c-.43-.13,72.08-22.2,72.08-22.2l43.65,5.41" style="fill: #03a6d8;stroke: #000;stroke-miterlimit: 10;stroke-width: 3px"/>
      <polyline points="1464.98 909.11 1411.14 902.8 1344.49 929.95" style="fill: #03a6d8;stroke: #000;stroke-miterlimit: 10;stroke-width: 3px"/>
      <polyline points="1342.92 902.94 1402.13 877.16 1463.08 881.76" style="fill: #03a6d8;stroke: #000;stroke-miterlimit: 10;stroke-width: 3px"/>
      <polyline points="1463.08 856.48 1392.41 852.73 1344.49 882.13" style="fill: #03a6d8;stroke: #000;stroke-miterlimit: 10;stroke-width: 3px"/>
      <polyline points="1347.97 858.25 1383.82 831.17 1459.51 833.66" style="fill: #03a6d8;stroke: #000;stroke-miterlimit: 10;stroke-width: 3px"/>
      <polyline points="1455.97 810.1 1375.24 809.23 1353.03 828.49" style="fill: #03a6d8;stroke: #000;stroke-miterlimit: 10;stroke-width: 3px"/>
      <line x1="1366.81" y1="786.72" x2="1450.92" y2="787.81" style="fill: #03a6d8;stroke: #000;stroke-miterlimit: 10;stroke-width: 3px"/>
      <path d="M1361,768.13l84.27-6.34s7.69-55,10.69-75,0-79,0-79l-68-23" style="fill: #03a6d8;stroke: #000;stroke-miterlimit: 10;stroke-width: 3px"/>
      <line x1="1356.11" y1="748.65" x2="1436.99" y2="734.15" style="fill: #03a6d8;stroke: #000;stroke-miterlimit: 10;stroke-width: 3px"/>
      <polyline points="1353.03 730.41 1429.42 709.97 1450.92 720.12" style="fill: #03a6d8;stroke: #000;stroke-miterlimit: 10;stroke-width: 3px"/>
      <line x1="1454.54" y1="696.16" x2="1422.97" y2="683.81" style="fill: #03a6d8;stroke: #000;stroke-miterlimit: 10;stroke-width: 3px"/>
      <line x1="1413.92" y1="654.81" x2="1457.01" y2="672.63" style="fill: #03a6d8;stroke: #000;stroke-miterlimit: 10;stroke-width: 3px"/>
      <line x1="1455.98" y1="646.6" x2="1404.5" y2="629.26" style="fill: #03a6d8;stroke: #000;stroke-miterlimit: 10;stroke-width: 3px"/>
      <line x1="1396.55" y1="605.06" x2="1456.65" y2="625.65" style="fill: #03a6d8;stroke: #000;stroke-miterlimit: 10;stroke-width: 3px"/>
      <line x1="1344.07" y1="646.6" x2="1396.55" y2="615.35" style="fill: #03a6d8;stroke: #000;stroke-miterlimit: 10;stroke-width: 3px"/>
      <line x1="1407.04" y1="641.43" x2="1343.92" y2="668.81" style="fill: #03a6d8;stroke: #000;stroke-miterlimit: 10;stroke-width: 3px"/>
      <line x1="1346.89" y1="689.99" x2="1415.12" y2="665.83" style="fill: #03a6d8;stroke: #000;stroke-miterlimit: 10;stroke-width: 3px"/>
      <line x1="1422.97" y1="689.86" x2="1348.72" y2="709.96" style="fill: #03a6d8;stroke: #000;stroke-miterlimit: 10;stroke-width: 3px"/>
    </g>
    <g>
      <line x1="1099.49" y1="836.15" x2="1099.49" y2="928.58" style="fill: #b0f0ff;stroke: #000;stroke-miterlimit: 10;stroke-width: 3px"/>
      <line x1="1081.92" y1="934.81" x2="1092.92" y2="939.81" style="fill: #b0f0ff;stroke: #000;stroke-miterlimit: 10;stroke-width: 3px"/>
      <g>
        <polygon points="1092.92 1028.81 1092.92 939.81 1141.92 928.81 1181.92 945.81 1181.92 1028.81 1092.92 1028.81" style="fill: #b0f0ff;stroke: #000;stroke-miterlimit: 10;stroke-width: 3px"/>
        <line x1="1141.92" y1="928.81" x2="1141.92" y2="1030.31" style="fill: #b0f0ff;stroke: #000;stroke-miterlimit: 10;stroke-width: 3px"/>
        <line x1="1157.6" y1="935.47" x2="1157.6" y2="1028.81" style="fill: #b0f0ff;stroke: #000;stroke-miterlimit: 10;stroke-width: 3px"/>
        <line x1="1169.59" y1="940.57" x2="1169.59" y2="1028.81" style="fill: #b0f0ff;stroke: #000;stroke-miterlimit: 10;stroke-width: 3px"/>
        <line x1="1141.92" y1="988.51" x2="1181.92" y2="996.92" style="fill: #b0f0ff;stroke: #000;stroke-miterlimit: 10;stroke-width: 3px"/>
        <polyline points="1092.92 947.95 1141.92 947.95 1181.92 967.59" style="fill: #b0f0ff;stroke: #000;stroke-miterlimit: 10;stroke-width: 3px"/>
        <polygon points="1081.92 841.81 1081.92 868.43 1081.92 934.81 1129.92 917.81 1129.92 853.73 1129.92 820.81 1081.92 841.81" style="fill: #b0f0ff;stroke: #000;stroke-miterlimit: 10;stroke-width: 3px"/>
        <line x1="1083.92" y1="902.81" x2="1129.92" y2="883.12" style="fill: #b0f0ff;stroke: #000;stroke-miterlimit: 10;stroke-width: 3px"/>
        <line x1="1081.92" y1="868.81" x2="1129.92" y2="853.81" style="fill: #b0f0ff;stroke: #000;stroke-miterlimit: 10;stroke-width: 3px"/>
        <line x1="1119.21" y1="825.49" x2="1118.92" y2="917.81" style="fill: #b0f0ff;stroke: #000;stroke-miterlimit: 10;stroke-width: 3px"/>
        <polyline points="1129.92 820.81 1169.92 856.81 1169.92 935.81 1129.92 917.81" style="fill: #b0f0ff;stroke: #000;stroke-miterlimit: 10;stroke-width: 3px"/>
        <polyline points="1134.92 823.81 1140.92 820.81 1178.92 850.81 1169.92 853.81" style="fill: #b0f0ff;stroke: #000;stroke-miterlimit: 10;stroke-width: 3px"/>
        <polyline points="1091.92 834.81 1091.92 749.81 1141.92 729.81 1141.92 820.81" style="fill: #b0f0ff;stroke: #000;stroke-miterlimit: 10;stroke-width: 3px"/>
        <polyline points="1141.92 729.81 1178.92 755.81 1178.92 851.81" style="fill: #b0f0ff;stroke: #000;stroke-miterlimit: 10;stroke-width: 3px"/>
        <line x1="1142.92" y1="757.81" x2="1178.92" y2="782.31" style="fill: #b0f0ff;stroke: #000;stroke-miterlimit: 10;stroke-width: 3px"/>
        <line x1="1142.92" y1="786.97" x2="1178.92" y2="813.7" style="fill: #b0f0ff;stroke: #000;stroke-miterlimit: 10;stroke-width: 3px"/>
        <line x1="1156.92" y1="739.81" x2="1156.92" y2="831.8" style="fill: #b0f0ff;stroke: #000;stroke-miterlimit: 10;stroke-width: 3px"/>
        <line x1="1169.92" y1="749.26" x2="1167.84" y2="842.06" style="fill: #b0f0ff;stroke: #000;stroke-miterlimit: 10;stroke-width: 3px"/>
        <polyline points="1088.92 745.81 1133.92 723.81 1137.92 727.81 1091.42 749.31 1087.42 747.31 1087.42 654.31 1136.42 634.31 1136.42 723.31" style="fill: #b0f0ff;stroke: #000;stroke-miterlimit: 10;stroke-width: 3px"/>
        <polyline points="1100.42 645.31 1100.42 634.31 1136.42 621.31 1136.42 634.31 1161.62 654.74 1173.42 664.31 1173.42 749.31" style="fill: #b0f0ff;stroke: #000;stroke-miterlimit: 10;stroke-width: 3px"/>
        <polyline points="1162.42 652.31 1162.42 642.31 1137.42 621.31" style="fill: #b0f0ff;stroke: #000;stroke-miterlimit: 10;stroke-width: 3px"/>
        <line x1="1105.92" y1="649.89" x2="1106.42" y2="734.31" style="fill: #b0f0ff;stroke: #000;stroke-miterlimit: 10;stroke-width: 3px"/>
        <line x1="1120.8" y1="642.43" x2="1120.8" y2="727.81" style="fill: #b0f0ff;stroke: #000;stroke-miterlimit: 10;stroke-width: 3px"/>
        <line x1="1087.92" y1="715.81" x2="1136.42" y2="697.16" style="fill: #b0f0ff;stroke: #000;stroke-miterlimit: 10;stroke-width: 3px"/>
        <line x1="1087.42" y1="681.93" x2="1136.42" y2="664.72" style="fill: #b0f0ff;stroke: #000;stroke-miterlimit: 10;stroke-width: 3px"/>
      </g>
      <g>
        <polygon points="1206.92 939.81 1206.92 850.81 1255.92 839.81 1295.92 856.81 1288.92 951.81 1251.42 939.32 1206.92 939.81" style="fill: #b0f0ff;stroke: #000;stroke-miterlimit: 10;stroke-width: 3px"/>
        <line x1="1255.92" y1="839.81" x2="1255.92" y2="941.31" style="fill: #b0f0ff;stroke: #000;stroke-miterlimit: 10;stroke-width: 3px"/>
        <line x1="1271.6" y1="846.47" x2="1271.6" y2="943.81" style="fill: #b0f0ff;stroke: #000;stroke-miterlimit: 10;stroke-width: 3px"/>
        <path d="M1283.59,851.57v97.24c0-4.35.33,80,.33,80h-35" style="fill: #b0f0ff;stroke: #000;stroke-miterlimit: 10;stroke-width: 3px"/>
        <line x1="1255.92" y1="899.51" x2="1295.92" y2="907.92" style="fill: #b0f0ff;stroke: #000;stroke-miterlimit: 10;stroke-width: 3px"/>
        <line x1="1255.92" y1="858.95" x2="1295.92" y2="878.59" style="fill: #b0f0ff;stroke: #000;stroke-miterlimit: 10;stroke-width: 3px"/>
        <polygon points="1195.92 752.81 1195.92 779.43 1195.92 845.81 1243.92 828.81 1243.92 764.73 1243.92 731.81 1195.92 752.81" style="fill: #b0f0ff;stroke: #000;stroke-miterlimit: 10;stroke-width: 3px"/>
        <line x1="1197.92" y1="813.81" x2="1243.92" y2="794.12" style="fill: #b0f0ff;stroke: #000;stroke-miterlimit: 10;stroke-width: 3px"/>
        <line x1="1195.92" y1="779.81" x2="1243.92" y2="764.81" style="fill: #b0f0ff;stroke: #000;stroke-miterlimit: 10;stroke-width: 3px"/>
        <line x1="1233.21" y1="736.49" x2="1232.92" y2="828.81" style="fill: #b0f0ff;stroke: #000;stroke-miterlimit: 10;stroke-width: 3px"/>
        <polyline points="1243.92 731.81 1283.92 767.81 1283.92 846.81 1243.92 828.81" style="fill: #b0f0ff;stroke: #000;stroke-miterlimit: 10;stroke-width: 3px"/>
        <polyline points="1248.92 734.81 1254.92 731.81 1292.92 761.81 1283.92 764.81" style="fill: #b0f0ff;stroke: #000;stroke-miterlimit: 10;stroke-width: 3px"/>
        <polyline points="1205.92 745.81 1205.92 660.81 1255.92 640.81 1255.92 731.81" style="fill: #b0f0ff;stroke: #000;stroke-miterlimit: 10;stroke-width: 3px"/>
        <polyline points="1255.92 640.81 1292.92 666.81 1292.92 762.81" style="fill: #b0f0ff;stroke: #000;stroke-miterlimit: 10;stroke-width: 3px"/>
        <line x1="1256.92" y1="668.81" x2="1292.92" y2="693.31" style="fill: #b0f0ff;stroke: #000;stroke-miterlimit: 10;stroke-width: 3px"/>
        <line x1="1256.92" y1="697.97" x2="1292.92" y2="724.7" style="fill: #b0f0ff;stroke: #000;stroke-miterlimit: 10;stroke-width: 3px"/>
        <line x1="1270.92" y1="650.81" x2="1270.92" y2="742.8" style="fill: #b0f0ff;stroke: #000;stroke-miterlimit: 10;stroke-width: 3px"/>
        <line x1="1283.92" y1="660.26" x2="1281.84" y2="753.06" style="fill: #b0f0ff;stroke: #000;stroke-miterlimit: 10;stroke-width: 3px"/>
        <polyline points="1202.92 656.81 1247.92 634.81 1251.92 638.81 1205.42 660.31 1201.42 658.31 1201.42 565.31 1250.42 545.31 1250.42 634.31" style="fill: #b0f0ff;stroke: #000;stroke-miterlimit: 10;stroke-width: 3px"/>
        <polyline points="1214.42 556.31 1214.42 545.31 1250.42 532.31 1250.42 545.31 1275.62 565.74 1287.42 575.31 1287.42 660.31" style="fill: #b0f0ff;stroke: #000;stroke-miterlimit: 10;stroke-width: 3px"/>
        <polyline points="1276.42 563.31 1276.42 553.31 1251.42 532.31" style="fill: #b0f0ff;stroke: #000;stroke-miterlimit: 10;stroke-width: 3px"/>
        <line x1="1219.92" y1="560.89" x2="1220.42" y2="645.31" style="fill: #b0f0ff;stroke: #000;stroke-miterlimit: 10;stroke-width: 3px"/>
        <line x1="1234.8" y1="553.43" x2="1234.8" y2="638.81" style="fill: #b0f0ff;stroke: #000;stroke-miterlimit: 10;stroke-width: 3px"/>
        <line x1="1201.92" y1="626.81" x2="1250.42" y2="608.16" style="fill: #b0f0ff;stroke: #000;stroke-miterlimit: 10;stroke-width: 3px"/>
        <line x1="1201.42" y1="592.93" x2="1250.42" y2="575.72" style="fill: #b0f0ff;stroke: #000;stroke-miterlimit: 10;stroke-width: 3px"/>
      </g>
      <line x1="1195.92" y1="845.81" x2="1206.92" y2="850.81" style="fill: #b0f0ff;stroke: #000;stroke-miterlimit: 10;stroke-width: 3px"/>
      <polygon points="1200.92 1028.81 1200.92 966.73 1200.92 940.81 1248.92 940.81 1248.92 1028.81 1200.92 1028.81" style="fill: #b0f0ff;stroke: #000;stroke-miterlimit: 10;stroke-width: 3px"/>
      <line x1="1243.92" y1="966.81" x2="1200.92" y2="966.81" style="fill: #b0f0ff;stroke: #000;stroke-miterlimit: 10;stroke-width: 3px"/>
      <line x1="1245.92" y1="998.81" x2="1201.42" y2="998.81" style="fill: #b0f0ff;stroke: #000;stroke-miterlimit: 10;stroke-width: 3px"/>
      <line x1="1216.92" y1="943.81" x2="1216.92" y2="1026.81" style="fill: #b0f0ff;stroke: #000;stroke-miterlimit: 10;stroke-width: 3px"/>
      <line x1="1232.92" y1="942.24" x2="1232.92" y2="1026.81" style="fill: #b0f0ff;stroke: #000;stroke-miterlimit: 10;stroke-width: 3px"/>
    </g>
    <g>
      <rect x="67.8" y="442.81" width="41" height="50" style="fill: #ff7bac;stroke: #000;stroke-miterlimit: 10;stroke-width: 3px"/>
      <rect x="73.8" y="492.81" width="29" height="17" style="fill: #ff7bac;stroke: #000;stroke-miterlimit: 10;stroke-width: 3px"/>
      <rect x="79.8" y="509.81" width="17" height="61" style="fill: #ff7bac;stroke: #000;stroke-miterlimit: 10;stroke-width: 3px"/>
      <rect x="75.3" y="568.81" width="26" height="26" style="fill: #ff7bac;stroke: #000;stroke-miterlimit: 10;stroke-width: 3px"/>
      <rect x="70.3" y="594.81" width="36" height="25" style="fill: #ff7bac;stroke: #000;stroke-miterlimit: 10;stroke-width: 3px"/>
      <polygon points="99.3 619.81 73.3 619.81 69.3 867.81 67.3 908.4 61.3 1027.81 115.3 1027.81 106.3 908.81 106.3 870.49 99.3 619.81" style="fill: #ff7bac;stroke: #000;stroke-miterlimit: 10;stroke-width: 3px"/>
      <line x1="61.3" y1="870.81" x2="115.3" y2="870.81" style="fill: #ff7bac;stroke: #000;stroke-miterlimit: 10;stroke-width: 3px"/>
      <line x1="62.8" y1="799.81" x2="113.8" y2="799.81" style="fill: #ff7bac;stroke: #000;stroke-miterlimit: 10;stroke-width: 3px"/>
      <line x1="65.8" y1="788.81" x2="110.8" y2="788.81" style="fill: #ff7bac;stroke: #000;stroke-miterlimit: 10;stroke-width: 3px"/>
      <line x1="66.8" y1="772.81" x2="109.8" y2="772.81" style="fill: #ff7bac;stroke: #000;stroke-miterlimit: 10;stroke-width: 3px"/>
      <line x1="65.8" y1="757.81" x2="110.8" y2="757.81" style="fill: #ff7bac;stroke: #000;stroke-miterlimit: 10;stroke-width: 3px"/>
      <line x1="74.3" y1="500.11" x2="102.3" y2="500.11" style="fill: #ff7bac;stroke: #000;stroke-miterlimit: 10;stroke-width: 3px"/>
      <line x1="67.8" y1="478.07" x2="108.8" y2="478.07" style="fill: #ff7bac;stroke: #000;stroke-miterlimit: 10;stroke-width: 3px"/>
      <line x1="68.3" y1="466.32" x2="108.3" y2="466.32" style="fill: #ff7bac;stroke: #000;stroke-miterlimit: 10;stroke-width: 3px"/>
      <line x1="68.3" y1="453.69" x2="108.3" y2="453.69" style="fill: #ff7bac;stroke: #000;stroke-miterlimit: 10;stroke-width: 3px"/>
      <rect x="79.3" y="418.81" width="18" height="24" style="fill: #ff7bac;stroke: #000;stroke-miterlimit: 10;stroke-width: 3px"/>
      <line x1="88.3" y1="416.81" x2="88.3" y2="268.81" style="fill: #ff7bac;stroke: #000;stroke-miterlimit: 10;stroke-width: 2px"/>
      <line x1="82.8" y1="300.31" x2="93.8" y2="300.31" style="fill: #ff7bac;stroke: #000;stroke-miterlimit: 10;stroke-width: 2px"/>
      <line x1="82.3" y1="326.31" x2="94.3" y2="326.31" style="fill: #ff7bac;stroke: #000;stroke-miterlimit: 10;stroke-width: 2px"/>
      <line x1="82.3" y1="351.31" x2="94.3" y2="351.31" style="fill: #ff7bac;stroke: #000;stroke-miterlimit: 10;stroke-width: 2px"/>
      <line x1="81.8" y1="388.31" x2="94.8" y2="388.31" style="fill: #ff7bac;stroke: #000;stroke-miterlimit: 10;stroke-width: 2px"/>
    </g>
  </g>  <g id="faceBody">
    <g>
      <path d="M692.5,673.45l-58-25s-49-20-57-45c-3.85-12.05-7.48-38.26-10.2-62.18-.53-4.71-13.34,12.58-13.8,8.18-.22-2.14,11.87-26.13,11.67-28.15-.26-2.6-17.44,19.5-17.67,17.15S564,509.13,563.79,507c-.38-4.08-18.07,5.92-18.29,3.43-.25-2.94,17-18,17-18s24-160,32-171,5-32,18-36,18,8,25,28,10,45,10,45l7,37,3,52,10,3,43-12,50,4,47,8,17-52,28-65s16-36,23-33,15,26,15,26l9,52v27l10,50V501s22,29.41,14,25.41c-3.48-1.75-14-6-14-6v.85s19,28.15,9,20.15c-2.61-2.1-9.73-9.21-9.73-9.21l-.68,4.48s13.41,28.73,8.41,25.73c-2.9-1.75-11.14-7.7-11.14-7.7l-5.86,38.7s-53,59-84,67-45,20-45,25,9,20,9,20l8,35,68-7,56-15,24-116,20-58s14-10,22-8-2,48-15,73c-10.24,19.69-18,80-18,80l-17,52-66,14-63,14,53,283,23,105s-107,2-194-4c-8.23-.57-44-41-39-51s26-357,31-362,22-50,22-50Z" style="fill: #fff;stroke: #000;stroke-miterlimit: 10;stroke-width: 3px"/>
      <path d="M603,329.45s10-28,18-22,28,87,28,87v69s-32-6-46,0l-28.16,12.07Z" style="fill: #f50"/>
      <path d="M827.24,455.28c-1-3,27.46-92.87,27.46-92.87s18.39-55.55,23.28-44.7,14.52,57.55,14.52,57.55-3,33.32-.06,39.34,3.65,72-.36,75S827.24,455.28,827.24,455.28Z" style="fill: #f50"/>
      <path d="M765,1154.68s-4.5-20.23,7.5-22.23,26,0,26,0,13-4,16-1,7,2,12-1-37-237-37-237" style="fill: none;stroke: #000;stroke-miterlimit: 10;stroke-width: 3px"/>
      <path d="M640.56,1131.41s-29.09,18.86-17.12,23.91,23,.11,25-.88,12-.94,12,.06,16.5-.63,16.5-.63S655.61,1119.48,640.56,1131.41Z" style="fill: #fff;stroke: #000;stroke-miterlimit: 10;stroke-width: 3px"/>
      <path d="M868.31,1125s19,5.91,46.19,7.42c36,2,149-15.3,144-9-8,10-29,11-85,21s-103.79-13.39-103.79-13.39Z" style="fill: #fff;stroke: #000;stroke-miterlimit: 10;stroke-width: 3px"/>
      <path d="M672.5,753.45s-21,7-24,11-6,21-6,21-7,33-8,35-16,110-18,113-13,32-15,38-12,20-14,26-32,77-32,77,0,12,7,10,70-137,70-152,10-52,10-55,7-72,7-72l19-13" style="fill: #fff;stroke: #000;stroke-miterlimit: 10;stroke-width: 3px"/>
    </g>
  </g>  <g id="bell">
    <path d="M690,713s27,14,46,13,46-18,46-18" style="fill: none;stroke: #ff4200;stroke-miterlimit: 10;stroke-width: 6px"/>
    <g>
      <path d="M715.39,749.29c.87-14,27.63-32,27.63-32s7.16,8.68,9,12.16,1.81,3.49,3.83,21S746,798,746,798s-6.84,12.41-6.76,17.68,16.38,36.64,16.38,36.64l-14.06.22c-7,.11-19.29,2.05-19.29,2.05s12.67-32.7,12.59-38S722,781.69,722,781.69,714.69,760.72,715.39,749.29Z" style="stroke: #000;stroke-miterlimit: 10;stroke-width: 3px"/>
      <path d="M723.73,851.94c2.86-1,28.78-.44,28.78-.44s-33.41-76.28-35-92.54c-2.33-23.72,25.56-38.21,25.56-38.21s15.92,6.79,8.23,52.09C748,792.34,723.73,851.94,723.73,851.94Z" style="fill: #00c600"/>
      <path d="M725.91,747.37s8.7-5.4,17.54-2" style="fill: none;stroke: #000;stroke-miterlimit: 10"/>
      <circle cx="734.5" cy="734.94" r="4.39" style="fill: none;stroke: #000;stroke-miterlimit: 10"/>
      <path d="M732,746.4s-3.43,5.32.11,7,3.49-1.81,3.49-1.81,3.56,3.46,3.51-.05a7.72,7.72,0,0,0-1.84-5.24" style="fill: none;stroke: #000;stroke-miterlimit: 10"/>
      <path d="M731.85,848.3s-.25-15.8,3.29-14.1,2,12.27,2,12.27,1.46-19.35,5.11-10.62,3.7,12.24,3.7,12.24" style="fill: none;stroke: #000;stroke-miterlimit: 10"/>
    </g>
  </g>  <g id="nose">
    <path d="M727.57,547.76c-3.83,1.15-15.25,5.5-9.25,10.5s8.17,3.59,10,8c1.66,4,3.69,18.6,3.34,21.75a.9.9,0,0,1-.86.78l-8.47.35a.88.88,0,0,0-.31,1.7c4.12,1.69,10.68,4.16,14.3,4.42,3.95.29,12-2,16.9-3.62a.88.88,0,0,0-.2-1.72l-13.76-1.1a.87.87,0,0,1-.8-.74c-.51-3.44.13-17.25,2.86-21.82,2.24-3.75,10.25-8.5,12.25-10.5S747.57,541.76,727.57,547.76Z"/>
  </g>  <g id="eyes">
    <path d="M908.86,539.69s6.78,19.75-13.09,23.52-41.07,10.48-60.07,10.48c-12.37,0-55.86-29-55.86-29s37.12-26.46,73.29-22.86S907.63,533.73,908.86,539.69Z" style="fill: #03a3db;stroke: #000;stroke-miterlimit: 10"/>
    <path d="M821.49,535.35s-9,23.73,5.54,28.4S849,543.5,849,543.5s9.64-23.58-8.32-22.47S821.49,535.35,821.49,535.35Z"/>
    <path d="M571,534.69s-6.77,19.75,13.1,23.52,41.06,10.48,60.06,10.48c12.37,0,55.87-29,55.87-29s-37.12-26.46-73.29-22.86S572.18,528.73,571,534.69Z" style="fill: #03a3db;stroke: #000;stroke-miterlimit: 10"/>
    <path d="M659.17,532.31s5.45,24.79-9.62,27.29-18.76-23.23-18.76-23.23-6.09-24.74,11.51-21S659.17,532.31,659.17,532.31Z"/>
  </g><g id="luckyCaption">
    <text transform="translate(561.31 1272.52)" style="font-size: 64.3827896118164px;font-family: HiraMaruProN-W4-83pv-RKSJ-H, Hiragino Maru Gothic ProN"><tspan style="letter-spacing: -0.03599058496540004em"></tspan><tspan x="62.07" y="0" style="letter-spacing: -0.04900361568613886em"></tspan><tspan x="123.29" y="0" style="letter-spacing: -0.017987709131464157em"></tspan><tspan x="186.52" y="0" style="letter-spacing: -0.020004880560203397em"></tspan><tspan x="249.61" y="0"></tspan></text>
  </g>  <g id="weather">
    <g>
      <g>
        <path d="M1304,370.67s-11,11.65-9,20.7,10.51,9.75,13.74,8.26c2.82-1.3,5.89-5.67,5-12.7S1304,370.67,1304,370.67Z" style="fill: #006ac1"/>
        <path d="M1303.34,371.7s-9.86,10.74-7.91,19.73,9.48,8.72,12.69,7.24c2.8-1.29,5.46-4.86,4.53-11.84S1303.34,371.7,1303.34,371.7Z" style="fill: #00d1ff"/>
        <path d="M1297.58,392c-1.36-7,4.33-15.25,6.15-17.65-.43-.48-.7-.76-.7-.76s-8.3,9.61-6.67,17.66c.66,3.26,2.09,5.15,3.75,6.16A10.44,10.44,0,0,1,1297.58,392Z" style="fill: #abf3ff"/>
      </g>
      <g>
        <path d="M1384.18,353.08s-11,11.65-9,20.7,10.51,9.74,13.74,8.25c2.81-1.29,5.88-5.66,5-12.69S1384.18,353.08,1384.18,353.08Z" style="fill: #006ac1"/>
        <path d="M1383.5,354.11s-9.86,10.73-7.92,19.73,9.48,8.72,12.69,7.24c2.81-1.29,5.46-4.86,4.54-11.84S1383.5,354.11,1383.5,354.11Z" style="fill: #00d1ff"/>
        <path d="M1377.74,374.45c-1.37-7,4.33-15.25,6.15-17.65-.43-.48-.7-.76-.7-.76s-8.31,9.61-6.68,17.66c.66,3.26,2.1,5.15,3.75,6.16A10.43,10.43,0,0,1,1377.74,374.45Z" style="fill: #abf3ff"/>
      </g>
      <path d="M1203.89,368s-17.57,20.85-34.69,15.71S1143,357.16,1143,357.16s-33.58,7.17-42.63-14.27-1-37.74,8.51-42.29,27-2.25,27-2.25a22.61,22.61,0,0,1,17.2-18c15.33-3.78,22.17,2.91,22.17,2.91s9.23-16.15,26.73-13.86,24.76,14.82,24.76,14.82,15.33-3.78,28.8,6.67,6.14,21.06,6.14,21.06,15.33-3.78,19.67,8.36-8.82,22-8.82,22,4.35,12.14-2.61,19.91-21.53,5.86-21.53,5.86-.32,9.56-14.78,14.44S1203.89,368,1203.89,368Z" style="fill: #004070"/>
      <path d="M1323.51,358.24s-17.56,20.84-34.69,15.7-26.18-26.58-26.18-26.58-33.58,7.18-42.64-14.26-1-37.75,8.51-42.29,27-2.25,27-2.25a22.59,22.59,0,0,1,17.19-18c15.33-3.77,22.17,2.91,22.17,2.91s9.24-16.15,26.74-13.86,24.76,14.82,24.76,14.82,15.33-3.78,28.79,6.67,6.14,21.06,6.14,21.06,15.33-3.78,19.67,8.37-8.81,22-8.81,22,4.34,12.14-2.61,19.91-21.54,5.86-21.54,5.86-.32,9.56-14.78,14.44S1323.51,358.24,1323.51,358.24Z" style="fill: #004070"/>
      <path d="M1319.57,349.52s-17.57,20.85-34.7,15.71-26.18-26.58-26.18-26.58-33.58,7.17-42.64-14.27-1-37.75,8.51-42.29,27-2.25,27-2.25a22.59,22.59,0,0,1,17.19-18c15.33-3.78,22.17,2.9,22.17,2.9s9.24-16.15,26.74-13.85,24.76,14.82,24.76,14.82,15.33-3.78,28.79,6.66,6.15,21.06,6.15,21.06,15.33-3.77,19.67,8.37-8.82,22-8.82,22,4.34,12.15-2.61,19.92-21.53,5.85-21.53,5.85-.33,9.57-14.78,14.45S1319.57,349.52,1319.57,349.52Z" style="fill: #75d6e9"/>
      <path d="M1199.94,359.32s-17.56,20.84-34.69,15.71-26.19-26.59-26.19-26.59-33.57,7.18-42.63-14.26-1-37.75,8.51-42.29,27-2.25,27-2.25a22.57,22.57,0,0,1,17.19-18c15.33-3.78,22.17,2.9,22.17,2.9s9.24-16.15,26.74-13.86,24.76,14.82,24.76,14.82,15.33-3.78,28.79,6.67,6.14,21.06,6.14,21.06,15.33-3.78,19.67,8.37-8.81,22-8.81,22,4.34,12.14-2.61,19.91-21.54,5.86-21.54,5.86-.32,9.56-14.78,14.44S1199.94,359.32,1199.94,359.32Z" style="fill: #76d7ee"/>
      <path d="M1158.74,321.49s-9.42,9.42-25.12,6.28-22-22-18.85-34.55,9.43-15.7,15.71-18.84,15.35,0,15.35,0,6.63-31.41,34.9-31.41,40.83,31.41,40.83,31.41,25.12-3.14,31.4,12.56,3.14,34.55-15.7,37.69-25.13-6.28-25.13-6.28-5.71,10.7-23.27,10.06A80.31,80.31,0,0,1,1158.74,321.49Z" style="fill: #004070"/>
      <path d="M1157.76,310.27s-9.42,9.42-25.12,6.28-22-22-18.84-34.55,9.42-15.7,15.7-18.84,15.36,0,15.36,0,6.62-31.41,34.89-31.41,40.83,31.41,40.83,31.41,25.12-3.14,31.4,12.56,3.14,34.55-15.7,37.69-25.12-6.28-25.12-6.28-5.72,10.7-23.27,10.06A80.33,80.33,0,0,1,1157.76,310.27Z" style="fill: #88e2f6;stroke: #29abe2;stroke-miterlimit: 10"/>
      <path d="M1311.88,326.61s-9.38,9.38-25,6.25S1265,311,1268.1,298.47s9.38-15.63,15.64-18.76,15.28,0,15.28,0,6.6-31.27,34.74-31.27,40.65,31.27,40.65,31.27,25-3.13,31.26,12.51,3.13,34.39-15.63,37.51-25-6.25-25-6.25-5.69,10.66-23.17,10A79.9,79.9,0,0,1,1311.88,326.61Z" style="fill: #004070"/>
      <path d="M1310,321s-9.38,9.38-25,6.25-21.89-21.89-18.76-34.39,9.38-15.63,15.63-18.76,15.29,0,15.29,0,6.6-31.27,34.74-31.27,40.64,31.27,40.64,31.27,25-3.13,31.27,12.5,3.12,34.4-15.64,37.52-25-6.25-25-6.25-5.68,10.66-23.16,10A80,80,0,0,1,1310,321Z" style="fill: #89d7ec;stroke: #29abe2;stroke-miterlimit: 10"/>
      <path d="M1272.06,290.46s19.47,22.17,37.49,16.06,26.83-29.75,26.83-29.75,36,6.79,44.79-16.83-.39-41.14-10.66-45.8-28.79-1.63-28.79-1.63-2.53-15.44-19-19.08-23.46,3.83-23.46,3.83-10.44-17.31-29-14.28-25.76,16.89-25.76,16.89-16.45-3.65-30.37,8.14-5.73,23.12-5.73,23.12-16.44-3.65-20.59,9.71,10.21,23.69,10.21,23.69-4.15,13.35,3.53,21.6,23.13,5.73,23.13,5.73.7,10.41,16.26,15.28S1272.06,290.46,1272.06,290.46Z" style="fill: #004070"/>
      <path d="M1266.25,282.43s19.47,22.17,37.49,16.06,26.83-29.75,26.83-29.75,36,6.8,44.78-16.83-.39-41.14-10.66-45.8-28.79-1.63-28.79-1.63-2.52-15.43-19-19.08-23.46,3.83-23.46,3.83-10.43-17.31-29-14.28-25.76,16.89-25.76,16.89-16.44-3.64-30.36,8.14-5.73,23.12-5.73,23.12-16.44-3.65-20.6,9.71,10.22,23.69,10.22,23.69-4.16,13.35,3.53,21.6,23.12,5.73,23.12,5.73.71,10.41,16.27,15.28S1266.25,282.43,1266.25,282.43Z" style="fill: #b4ebf9;stroke: #29abe2;stroke-miterlimit: 10"/>
      <g>
        <path d="M1244.61,360.2h-6.54v-4.88a1.79,1.79,0,0,0-3.57,0v4.88H1226l9.08-10.53L1220.57,348l6.23-6.23,3.25,3.26a1.8,1.8,0,0,0,2.53,0,1.8,1.8,0,0,0,0-2.53l-3.26-3.25,4.62-4.62a1.79,1.79,0,0,0-2.52-2.53l-4.62,4.62-3.45-3.44a1.78,1.78,0,1,0-2.52,2.52l3.44,3.45-6.62,6.62-.9-13.8-10.45,8v-8.25h4.6a1.79,1.79,0,1,0,0-3.57h-4.6v-6.53a1.79,1.79,0,1,0-3.57,0v6.53h-4.87a1.79,1.79,0,1,0,0,3.57h4.87v8.2l-10.16-8.91-1.91,14.67-6.35-6.35,3.5-3.51a1.78,1.78,0,0,0-2.52-2.52l-3.51,3.51-4.71-4.72a1.79,1.79,0,1,0-2.53,2.52l4.72,4.72-3.19,3.19a1.79,1.79,0,0,0,0,2.53,1.75,1.75,0,0,0,1.26.52,1.78,1.78,0,0,0,1.26-.52l3.19-3.2,6.43,6.43-13.8,1.58,8.24,10.21h-8.26v-5a1.79,1.79,0,1,0-3.57,0v5h-6.67a1.79,1.79,0,1,0,0,3.57h6.67v4.51a1.79,1.79,0,1,0,3.57,0v-4.51h8.86l-7.94,10,13,1.39-6.6,6.6-3.5-3.51a1.79,1.79,0,0,0-2.53,0,1.8,1.8,0,0,0,0,2.53l3.51,3.5-4.71,4.72a1.77,1.77,0,0,0,0,2.52,1.75,1.75,0,0,0,1.26.52,1.78,1.78,0,0,0,1.26-.52l4.71-4.71L1185,390a1.78,1.78,0,0,0,2.52-2.52l-3.19-3.2,5-5,.38,14.69,13.08-11V392h-5a1.79,1.79,0,1,0,0,3.57h5v6.66a1.79,1.79,0,1,0,3.57,0v-6.66h4.51a1.79,1.79,0,1,0,0-3.57h-4.51v-8.22l10.9,10.34,1.35-15.34,5.74,5.74-3.25,3.26a1.78,1.78,0,1,0,2.52,2.52l3.26-3.25,4.62,4.62a1.79,1.79,0,0,0,2.52,0,1.79,1.79,0,0,0,0-2.53l-4.62-4.62,3.45-3.44a1.79,1.79,0,1,0-2.53-2.53l-3.44,3.45-5.82-5.82,12.7-.94-9.07-11.44h9.87v4.6a1.79,1.79,0,0,0,3.57,0v-4.6h6.54a1.79,1.79,0,0,0,0-3.57Zm-52.1,6.53-2.39-3h9.63l-7.13,7.12Zm22.29-9.62,2.45,3.09h-8.88l6.23-6.24Zm-8.5.1v-9.27l2.61,2.29,3.91.46Zm-3.57.67-6.77-6.76,2.21-.26,4.56-3.51Zm-9.46-4.41,6.73,6.73h-9.35l2.08-2.62Zm9.46,12.36v9.61L1200,372.8l-3.78-.4Zm3.57.67,6.67,6.67-4.42.33-2.25,1.88Zm9.37,4.32-7.06-7.05h9.6l-2.13,2.47Zm5.89-10.93-3.27-4.12-.29-4.48,10,1.15Zm-7.4-12.64-3.73-.43-3.27-2.88,6.46-5Zm-12.62-3.49-4.76,3.67-2.77.31,1.24-9.5Zm-11.66,8.05-.56,4.32-2.66,3.35-5.4-6.68Zm-3.2,13.38L1189,368l.1,3.61-6.93-.74Zm6.07,10.62.17-.17,5.45.58,3.25,3.08-8.59,7.2Zm14.23,3.66,3-2.5,5.2-.38-.87,9.82Zm12.11-6.75.44-5,1.91-2.21,5.28,6.66Z" style="fill: #29abe2"/>
        <path d="M1244.63,358h-6.54v-4.87a1.79,1.79,0,1,0-3.57,0V358H1226l9.07-10.52-14.5-1.68,6.23-6.23,3.25,3.25a1.79,1.79,0,1,0,2.53-2.52l-3.26-3.25,4.62-4.62a1.79,1.79,0,0,0-2.52-2.53l-4.62,4.62-3.45-3.44a1.78,1.78,0,0,0-2.52,2.52l3.44,3.45-6.62,6.62-.9-13.81-10.45,8.05v-8.25h4.6a1.79,1.79,0,1,0,0-3.57h-4.6v-6.54a1.79,1.79,0,0,0-3.57,0v6.54h-4.88a1.79,1.79,0,0,0,0,3.57h4.88v8.2l-10.16-8.91-1.91,14.67-6.35-6.35,3.5-3.51a1.79,1.79,0,0,0-2.52-2.53l-3.51,3.51-4.71-4.71a1.79,1.79,0,1,0-2.53,2.52l4.72,4.72-3.2,3.19a1.79,1.79,0,1,0,2.53,2.52l3.19-3.19,6.43,6.42-13.8,1.58,8.24,10.21h-8.26v-5a1.79,1.79,0,0,0-3.57,0v5h-6.67a1.79,1.79,0,1,0,0,3.57h6.67v4.52a1.79,1.79,0,0,0,3.57,0v-4.52h8.86l-7.94,10,13.05,1.39-6.6,6.59-3.5-3.5a1.79,1.79,0,1,0-2.53,2.52l3.51,3.51-4.72,4.71a1.8,1.8,0,0,0,0,2.53,1.8,1.8,0,0,0,2.53,0l4.71-4.72,3.2,3.2a1.79,1.79,0,0,0,2.52,0,1.79,1.79,0,0,0,0-2.53l-3.19-3.19,5-5,.39,14.69,13.08-10.95v8.93h-5a1.79,1.79,0,1,0,0,3.57h5V400a1.79,1.79,0,1,0,3.57,0V393.3h4.51a1.79,1.79,0,1,0,0-3.57h-4.51v-8.22l10.9,10.34,1.35-15.33,5.74,5.74-3.25,3.25a1.79,1.79,0,0,0,0,2.53,1.75,1.75,0,0,0,1.26.52,1.78,1.78,0,0,0,1.26-.52l3.26-3.26,4.62,4.62a1.76,1.76,0,0,0,1.26.53,1.79,1.79,0,0,0,1.26-3.05l-4.62-4.62,3.44-3.45a1.78,1.78,0,0,0-2.52-2.52l-3.44,3.44-5.82-5.81,12.7-.94-9.07-11.45h9.87v4.61a1.79,1.79,0,0,0,3.57,0v-4.61h6.54a1.79,1.79,0,0,0,0-3.57Zm-52.1,6.54-2.39-3h9.62l-7.12,7.13Zm22.29-9.62,2.44,3.08h-8.88l6.24-6.23Zm-8.5.1v-9.27l2.61,2.29,3.91.45Zm-3.57.67-6.77-6.77,2.21-.25,4.56-3.51Zm-9.47-4.42L1200,358h-9.34l2.08-2.62Zm9.47,12.37v9.6l-2.78-2.63-3.79-.41Zm3.57.67,6.67,6.67-4.42.32-2.25,1.89Zm9.37,4.32-7.06-7.06h9.6l-2.14,2.48Zm5.88-10.94-3.26-4.12-.29-4.48,10,1.16ZM1214.18,345l-3.73-.43-3.27-2.87,6.46-5Zm-12.62-3.48-4.76,3.67-2.77.31,1.24-9.5Zm-11.66,8.05-.56,4.32-2.66,3.35-5.4-6.69ZM1186.7,363l2.29,2.84.09,3.6-6.92-.74Zm6.07,10.62.17-.17,5.45.58,3.24,3.08-8.58,7.19Zm14.23,3.66,3-2.5,5.2-.39-.87,9.83Zm12.11-6.76.44-5,1.91-2.22,5.28,6.67Z" style="fill: #fff;stroke: #29abe2;stroke-miterlimit: 10"/>
      </g>
      <g>
        <path d="M1172.46,408.13h-4.07v-3a1.11,1.11,0,1,0-2.22,0v3h-5.3l5.65-6.56-9-1,3.88-3.88,2,2a1.11,1.11,0,0,0,1.58-1.57l-2-2,2.88-2.88a1.11,1.11,0,1,0-1.58-1.57l-2.88,2.88-2.14-2.15a1.12,1.12,0,1,0-1.58,1.58l2.15,2.14-4.13,4.13-.56-8.6-6.51,5v-5.14h2.87a1.12,1.12,0,0,0,0-2.23h-2.87v-4.07a1.12,1.12,0,0,0-2.23,0v4.07h-3a1.12,1.12,0,1,0,0,2.23h3v5.11L1140,390l-1.19,9.14-4-4,2.19-2.19a1.11,1.11,0,0,0-1.57-1.57l-2.19,2.19-2.94-2.94a1.11,1.11,0,0,0-1.57,1.57l2.94,2.94-2,2a1.1,1.1,0,0,0,0,1.57,1.08,1.08,0,0,0,.78.33,1.11,1.11,0,0,0,.79-.33l2-2,4,4-8.6,1,5.14,6.36h-5.15V405a1.11,1.11,0,0,0-2.22,0v3.09h-4.16a1.12,1.12,0,0,0,0,2.23h4.16v2.81a1.11,1.11,0,1,0,2.22,0v-2.81h5.52l-5,6.23,8.14.86-4.11,4.12-2.19-2.19a1.12,1.12,0,0,0-1.57,0,1.1,1.1,0,0,0,0,1.57l2.18,2.19-2.93,2.94a1.1,1.1,0,0,0,0,1.57,1.08,1.08,0,0,0,.78.33,1.11,1.11,0,0,0,.79-.33l2.94-2.94,2,2a1.11,1.11,0,0,0,1.57-1.57l-2-2,3.1-3.1.24,9.15,8.15-6.83v5.57h-3.09a1.12,1.12,0,0,0,0,2.23h3.09v4.15a1.12,1.12,0,1,0,2.23,0v-4.15h2.81a1.12,1.12,0,1,0,0-2.23h-2.81v-5.12l6.79,6.45.85-9.56,3.57,3.58-2,2a1.13,1.13,0,0,0,0,1.58,1.11,1.11,0,0,0,.79.32,1.09,1.09,0,0,0,.79-.32l2-2,2.88,2.88a1.07,1.07,0,0,0,.78.32,1.09,1.09,0,0,0,.79-.32,1.12,1.12,0,0,0,0-1.57l-2.88-2.88,2.15-2.15a1.11,1.11,0,0,0-1.58-1.57l-2.14,2.14-3.63-3.62,7.92-.59-5.66-7.13h6.16v2.87a1.11,1.11,0,0,0,2.22,0v-2.87h4.07a1.12,1.12,0,1,0,0-2.23ZM1140,412.21l-1.49-1.85h6l-4.44,4.44Zm13.9-6,1.52,1.92h-5.53l3.88-3.88Zm-5.3.06V400.5l1.63,1.42,2.44.29Zm-2.23.42-4.21-4.22,1.37-.15,2.84-2.19Zm-5.89-2.75,4.19,4.19h-5.82l1.29-1.63Zm5.89,7.71v6l-1.73-1.64-2.36-.25Zm2.23.41,4.16,4.16-2.76.2-1.4,1.18Zm5.84,2.7-4.4-4.4h6l-1.33,1.54Zm3.67-6.82-2-2.57-.18-2.79,6.22.72Zm-4.61-7.88-2.33-.27-2-1.79,4-3.09Zm-7.87-2.17-3,2.29-1.72.19.77-5.92Zm-7.26,5-.35,2.69-1.66,2.09-3.36-4.17Zm-2,8.34,1.43,1.77.06,2.24-4.32-.46Zm3.78,6.62.11-.11,3.4.36,2,1.92-5.35,4.48Zm8.87,2.28,1.86-1.56,3.24-.24-.54,6.12Zm7.55-4.21.28-3.13,1.19-1.38,3.29,4.15Z" style="fill: #29abe2"/>
        <path d="M1172.48,406.74h-4.08v-3a1.11,1.11,0,0,0-2.22,0v3h-5.3l5.66-6.56-9-1.05,3.88-3.88,2,2a1.12,1.12,0,0,0,.79.33,1.11,1.11,0,0,0,.79-.33,1.12,1.12,0,0,0,0-1.57l-2-2,2.88-2.88a1.12,1.12,0,0,0,0-1.57,1.1,1.1,0,0,0-1.57,0l-2.88,2.88-2.15-2.15a1.11,1.11,0,0,0-1.57,1.57l2.14,2.15-4.13,4.13-.56-8.61-6.51,5v-5.14h2.87a1.12,1.12,0,0,0,0-2.23h-2.87v-4.07a1.12,1.12,0,0,0-2.23,0v4.07h-3a1.12,1.12,0,0,0,0,2.23h3v5.11l-6.32-5.56-1.19,9.15-4-4,2.18-2.19a1.11,1.11,0,1,0-1.57-1.57l-2.19,2.18-2.94-2.93a1.1,1.1,0,0,0-1.57,0,1.12,1.12,0,0,0,0,1.57l2.94,2.94-2,2a1.11,1.11,0,1,0,1.57,1.57l2-2,4,4-8.61,1,5.14,6.36h-5.15v-3.09a1.11,1.11,0,1,0-2.22,0v3.09h-4.16a1.12,1.12,0,0,0,0,2.23h4.16v2.81a1.11,1.11,0,0,0,2.22,0V409h5.53l-5,6.22,8.13.87-4.11,4.11-2.19-2.18a1.1,1.1,0,0,0-1.57,0,1.12,1.12,0,0,0,0,1.57l2.19,2.19-2.94,2.93a1.11,1.11,0,0,0,0,1.58,1.12,1.12,0,0,0,1.57,0l2.94-2.94,2,2a1.11,1.11,0,0,0,.79.33,1.08,1.08,0,0,0,.78-.33,1.1,1.1,0,0,0,0-1.57l-2-2,3.11-3.11.24,9.16,8.14-6.83v5.57h-3.09a1.12,1.12,0,0,0,0,2.23h3.09v4.15a1.12,1.12,0,1,0,2.23,0v-4.15h2.81a1.12,1.12,0,1,0,0-2.23h-2.81v-5.12l6.79,6.44.85-9.55,3.57,3.57-2,2a1.11,1.11,0,0,0,.78,1.9,1.14,1.14,0,0,0,.79-.32l2-2,2.88,2.88a1.11,1.11,0,0,0,.78.32,1.14,1.14,0,0,0,.79-.32,1.11,1.11,0,0,0,0-1.58l-2.88-2.88,2.15-2.14a1.13,1.13,0,0,0,0-1.58,1.12,1.12,0,0,0-1.57,0l-2.15,2.15-3.63-3.62,7.92-.59L1160,409h6.15v2.86a1.11,1.11,0,1,0,2.22,0V409h4.08a1.12,1.12,0,0,0,0-2.23ZM1140,410.81l-1.49-1.84h6l-4.45,4.44Zm13.89-6,1.52,1.92h-5.53l3.88-3.88Zm-5.3.06V399.1l1.63,1.43,2.44.29Zm-2.23.42-4.21-4.22,1.37-.15,2.84-2.19Zm-5.89-2.75,4.19,4.19h-5.82l1.29-1.63Zm5.89,7.7v6l-1.73-1.64-2.35-.26Zm2.23.42,4.16,4.16-2.76.2-1.4,1.18Zm5.84,2.69L1150,409h6l-1.33,1.54Zm3.67-6.81-2-2.57-.19-2.79,6.22.72Zm-4.61-7.88-2.33-.27-2-1.79,4-3.1Zm-7.87-2.17-3,2.28-1.73.2.77-5.92Zm-7.26,5-.35,2.69-1.66,2.09-3.36-4.17Zm-2,8.33,1.43,1.77.06,2.25-4.31-.46Zm3.78,6.63.11-.11,3.4.36,2,1.92-5.35,4.48Zm8.87,2.27,1.86-1.55,3.24-.24-.54,6.12Zm7.55-4.21.28-3.12L1158,410l3.29,4.15Z" style="fill: #fff;stroke: #29abe2;stroke-miterlimit: 10"/>
      </g>
      <g>
        <path d="M1262.11,390.09s-17.41,18.51-14.3,32.88,16.69,15.48,21.81,13.11c4.48-2.06,9.35-9,7.88-20.16S1262.11,390.09,1262.11,390.09Z" style="fill: #006ac1"/>
        <path d="M1261,391.74s-15.66,17-12.57,31.33,15.06,13.85,20.16,11.5c4.44-2.06,8.66-7.72,7.2-18.81S1261,391.74,1261,391.74Z" style="fill: #00d1ff"/>
        <path d="M1251.87,424c-2.17-11.18,6.88-24.22,9.77-28-.69-.77-1.11-1.21-1.11-1.21s-13.19,15.27-10.61,28c1,5.19,3.34,8.18,6,9.79A16.65,16.65,0,0,1,1251.87,424Z" style="fill: #abf3ff"/>
      </g>
      <g>
        <path d="M1344,385.59s-15.2,16.16-12.48,28.7,14.57,13.51,19,11.44c3.91-1.8,8.16-7.86,6.88-17.59S1344,385.59,1344,385.59Z" style="fill: #006ac1"/>
        <path d="M1343.07,387s-13.67,14.88-11,27.36,13.14,12.08,17.59,10c3.88-1.79,7.56-6.74,6.29-16.42S1343.07,387,1343.07,387Z" style="fill: #00d1ff"/>
        <path d="M1335.09,415.22c-1.9-9.76,6-21.14,8.52-24.46-.6-.67-1-1.06-1-1.06s-11.51,13.32-9.25,24.48c.91,4.52,2.9,7.13,5.2,8.54A14.4,14.4,0,0,1,1335.09,415.22Z" style="fill: #abf3ff"/>
      </g>
      <path d="M1191.17,327.75a24,24,0,0,1-22.06,6c-13.79-3-19.3-20.9-16.54-32.85s8.27-14.93,13.78-17.92,13.49,0,13.49,0,5.82-29.87,30.64-29.87S1246.32,283,1246.32,283s22.06-3,27.58,11.95,2.76,32.85-13.79,35.83-22.06-6-22.06-6-5,10.18-20.43,9.57A66.25,66.25,0,0,1,1191.17,327.75Z" style="fill: #004070"/>
      <path d="M1187.62,319.59s-8.27,8.27-22.06,5.52-19.3-19.31-16.54-30.34,8.27-13.78,13.78-16.54,13.49,0,13.49,0,5.82-27.58,30.63-27.58,35.85,27.58,35.85,27.58,22.06-2.76,27.58,11,2.76,30.33-13.79,33.09-22.06-5.52-22.06-5.52-5,9.4-20.43,8.84A70.38,70.38,0,0,1,1187.62,319.59Z" style="fill: #bff0fe;stroke: #29abe2;stroke-miterlimit: 10"/>
    </g>
  </g>
<g id="generation">
  <text transform="translate(38.41 1285.15)" style="font-size: 65.69450378417969px;font-family: HiraKakuStd-W8-83pv-RKSJ-H, Hiragino Kaku Gothic Std"></text>
  <text transform="translate(219.15 1271.7)" style="font-size: 104.09490966796875px;font-family: MyriadPro-Regular, Myriad Pro"></text>
</g>  <g id="_5element" data-name="5element">
    <g>
      <rect x="1238" y="1172" width="177" height="287" style="fill: #30e017;opacity: 0.5"/>
      <g>
        <path d="M1278.73,1264.23v13.69c0,1.28,0,2.72-.08,4.08h14.65v5.12h-15a66.48,66.48,0,0,1-1.28,7.45c3.85,3.76,13,13.84,15.37,16.4l-3.6,4.41c-2.56-3.52-9-11.05-13.21-15.77a43.59,43.59,0,0,1-16.33,21.93,18.52,18.52,0,0,0-3.61-3.92c12.17-8.57,16.26-20,17.46-30.5h-17.13V1282h17.53c.08-1.44.08-2.8.08-4.16v-13.61h-7.13a56.63,56.63,0,0,1-6.64,13.93,29.16,29.16,0,0,0-4-2.81c4.33-6.16,7.69-16.73,9.61-27.21l6.41,1.6c-.16.56-.72.8-1.68.8-.56,2.88-1.28,5.76-2.09,8.64h23.3v5Zm18.18-9h29.62v64.12h-5.44v-5.68h-18.9v6.56h-5.28Zm5.28,53.31h18.9v-48.19h-18.9Z" style="fill: #fff"/>
        <path d="M1351.43,1302.73c-1.93,6.32-5.13,13.21-11.13,17.29l-4.09-3.52c5.45-3.36,8.81-9.61,10.57-15.45Zm18.65-35.7v-6.16h-33.15V1256h33.15v-7.76l6.89.4c-.08.56-.56,1-1.6,1.12V1256h33.7v4.89h-33.7V1267h24.25v27h-53.24v-27Zm-18.57,4.4v7h18.57v-7Zm0,11.13v7.12h18.57v-7.12Zm10.8,31.3c0,1.92.73,2.32,5,2.32h14.89c3.44,0,4-1,4.32-8.49a15.39,15.39,0,0,0,4.89,2c-.64,9.29-2.32,11.45-8.73,11.45H1367c-7.93,0-9.93-1.44-9.93-7.28v-13l6.89.48c-.08.56-.48,1-1.61,1.12Zm14.9-5.93c-3-3.36-9.13-7.84-14.66-10.56l3.53-3.2c5.44,2.56,11.77,6.8,14.89,10.24Zm17.13-36.5h-19v7h19Zm0,18.25v-7.12h-19v7.12Zm11.13,29.62c-2.48-5-8.73-11.77-14.73-16.49l4.32-2.56c6.09,4.56,12.41,11.13,15,16.17Z" style="fill: #fff"/>
      </g>
    </g>
  </g>
<g id="manekiPower">
  <text transform="translate(205.81 1456.78)" style="font-size: 121.63294982910156px;fill: #070707;font-family: MyriadPro-Regular, Myriad Pro">567569</text>
  <ellipse cx="82.99" cy="1415.19" rx="49.5" ry="49.5"/>
  <polygon points="82.92 1378.7 99.5 1378.7 81.54 1414.62 99.5 1414.62 68.55 1454.33 83.19 1421.63 67.58 1422.06 82.92 1378.7" style="fill: #fff"/>
  <text transform="translate(1269.14 1425.38)" style="font-size: 104.09490966796875px;font-family: MyriadPro-Regular, Myriad Pro">10</text>
</g><g id="tokenID">
<text transform="translate(1084.21 149.82)" style="font-size: 104.09490966796875px;font-family: MyriadPro-Regular, Myriad Pro">112</text>
</g>  <g id="logo">
    <path d="M412.51,140.41l-34.29.33-.26-2-.63-.18a104.29,104.29,0,0,1-14.72-5.72l-6.77,1.86c-.39.11-1,.25-3.32.81-3.36.81-9,2.16-15.29,3.74l-10.12,2.54s-3.56-10.09-3.59-10.19c-8.45,2.14-19,3.94-27.51,3.94-6.05,0-10.75-.93-14.39-2.84-1.07-.56-2.33-1.25-3.68-2.09l-.9,4-36.89-4.45.16-1-28.76,8.94-2.28-3.49-17.92,10.06-3.65-7.14a56.94,56.94,0,0,1-17,2.6,34,34,0,0,1-16-3.76l-1,5.35-42.15-7L113,123c.36-3.14.68-8.21,1-15.11l-14.18.69c1,5.49,2.33,12,4,19.37l2.89,12.81-41.83,7.75L61.46,138c-1.72-5.28-3.28-13.16-4.79-24.07a213.34,213.34,0,0,1-2.21-27.48c0-12,1.43-21.08,4.36-27.81C64.76,45,75.72,43.57,80.15,43.57c6.68,0,13.58,3.14,21.71,9.88l.28.23L105.65,57l1.86-1.85C115,47.55,121.65,44,128.5,44a26.65,26.65,0,0,1,23.1,12.34l.16-1.75,10.41-.14h1.68c30.77,0,40.88,4.13,45.53,8.57L225.26,63c1.22-.41,2.52-.8,3.86-1.16a65.15,65.15,0,0,1,13.67-2.24c.91-.05,1.81-.07,2.68-.07,10.49,0,19.06,3.24,25.49,9.63q.6.6,1.17,1.23A43.53,43.53,0,0,1,288.77,61a47.66,47.66,0,0,1,14.08-2.21,43.39,43.39,0,0,1,13,2,39.18,39.18,0,0,1,4.72,1.84c.16-1.15.34-2.36.53-3.62l1.79-12.14,41.85,8.73-2.84,11.7c-.2.83-.39,1.64-.58,2.44,5.07-2,9.61-3.7,13.55-4.93l4.28-15.3,10.47,2.16c2.91.6,25,6.41,33.22,8.48l-1.53,21.43,13.1,2.19c5.27.87,9.86-3.72,9.86-3.72.29-.83,1.27-16.34,1.6-17.1,5.78-13.26,16.46-14.7,20.78-14.7,6.5,0,13.2,3,21.09,9.59L488,58l3.25,3c.59-.58,1.15-1.13,1.66-1.66,7.26-7.32,13.74-10.73,20.41-10.73,12.26,0,21.77,7.08,26.09,19.42a41.63,41.63,0,0,1,1.43,5,45.4,45.4,0,0,1,5-1.87A46,46,0,0,1,559.48,69,42,42,0,0,1,572.09,71a35,35,0,0,1,9.77,4.8l1-.76c8.11-6,18.49-9.1,30.88-9.1,10.36,0,19.45,2.39,27.07,7.12.84-1.54,1.75-3.08,2.71-4.62l5-8L685,75.07l30.1-15.29,5.54,8.45a108.18,108.18,0,0,1,8.83,15.55,48.93,48.93,0,0,1,4.48,19.9c0,10.81-2.82,19.88-8.39,26.95-6.51,8.33-16.15,12.74-27.86,12.74a37.7,37.7,0,0,1-16-3.38,35.11,35.11,0,0,1-14.48,3c-8.78,0-16.16-2.45-22-7.3l-.55.46c-8.13,6.62-18.24,10-30.08,10s-21.81-2.61-29.85-7.78c-8.42,2.55-21.74,5.24-31.78,5.24-5.87,0-10.45-.91-14-2.77-.15-.07-.29-.15-.43-.23l-.55,2.89-41.08-6.78,1.33-11.7c.34-3,.65-7.81.93-14.36l-13.24.65c.95,5.25,2.23,11.42,3.82,18.47l2.84,12.57-40.76,7.55-2.65-8.15L432,144.3ZM236.19,100.59a94.65,94.65,0,0,0,4.44,15.5l1.3,3.34.2-1.19a83.12,83.12,0,0,0,.94-17.53c0-.93-.11-1.69-.19-2.3A17.16,17.16,0,0,0,236.19,100.59ZM608.66,106a12.36,12.36,0,0,0,4.86.84,11.57,11.57,0,0,0,4.67-.76,13.87,13.87,0,0,0-5.55-.92A7.61,7.61,0,0,0,608.66,106ZM679,88.07A42.34,42.34,0,0,0,674.9,95l14.64-.81c-.87-1.25-2-2.84-3.44-4.86l-4-5.54Z" style="fill: #0702b0"/>
    <path d="M401.41,92.58s16.63,9.5,28.33,8.82,28.32-12.21,28.32-12.21" style="fill: none;stroke: #ff2000;stroke-miterlimit: 10;stroke-width: 6px"/>
    <path d="M383.35,129.21c-.61-4.59-.66-12.3-.16-23.56a241,241,0,0,1,2.07-24.37l.05-.32-7.94-1.76L384,55.66l5.29,1.08c3.39.69,10.4,2.39,21.41,5.17l5.75,1.46L412.13,79.1l1.33.17-.92,5.88c-1.61,10.22-2.41,24.74-2.38,43.15v5.76L384,134.3Z" style="fill: #0702b0"/>
    <path d="M409.29,67.54l-3.31,12-21.35-4.71,3.51-12.43Q393,63.44,409.29,67.54Zm-4.94,60.77-15.24.14q-.84-6.31-.12-22.54a236.41,236.41,0,0,1,2-23.73l15.8,2.07Q404.31,100.1,404.35,128.31Z" style="fill: url(#Sky_2)"/>
    <path d="M387.08,113.63l-5.81,13.23a98.76,98.76,0,0,1-15.54-6.21q-7.51-3.7-14.93-7.52.6,3.3,2.5,9.82c-.73.2-8.85,2.09-18.54,4.49-4.14-11.62-5-24.44-5-36.66,0-9.56,1.16-18,3-30.67l18.42,3.81Q346.69,82.35,347,89.58q4-3.42,16.64-8.62a163.15,163.15,0,0,1,17.54-6.32L387,88l-14.83,4.61q-11.13,4-14.24,8,3.81,2.7,13.94,7.12A152.18,152.18,0,0,0,387.08,113.63Z" style="fill: url(#Sky_2-2)"/>
    <path d="M296,129.19c-5.15,0-9-.71-11.84-2.18-7.06-3.68-14.77-9.06-18.47-21.09-2.73-8.87-1.22-17.44,4.5-25.49a37.72,37.72,0,0,1,20.21-14.5,42.69,42.69,0,0,1,12.5-2,38.5,38.5,0,0,1,11.41,1.73c9.31,2.94,15.61,9,18.26,17.65,1.7,5.54,1.44,10.63-.79,15.12l-.07.14a18,18,0,0,1-2.68,3.77l4,19.93-5,1.54C319.64,126.43,306.06,129.19,296,129.19Z" style="fill: #0702b0"/>
    <path d="M327,85.07q1.89,6.14-.45,10.83t-8.68,6.55q-7.75,2.39-30.29,3.13c7.43,7.08,27.22,1.48,35.91-1.19l2.81,13.92c-10.35,3.19-32.14,7.37-39.48,3.55-6.85-3.57-12.63-8-15.6-17.64q-3.27-10.64,3.68-20.43a31.94,31.94,0,0,1,17.19-12.31,34.07,34.07,0,0,1,20.49-.22Q323.83,74.82,327,85.07Zm-14.67,3.46c-.67-2.17-2.64-3.48-5.93-3.94a19.87,19.87,0,0,0-18.55,8.22q20.1-1.14,23.45-2.18c.7-.21,1.12-.45,1.25-.7S312.55,89.3,312.31,88.53Z" style="fill: url(#Sky_2-3)"/>
    <path d="M210.76,127.16c-3.32-5-5.95-12-8-21.34a126.14,126.14,0,0,1-3.08-21.49c-.1-2-.06-5.4.1-10.43l.19-5.6,25.58-.08c1.36-.49,2.81-.94,4.38-1.35a60.11,60.11,0,0,1,12.62-2.06c10.13-.51,18.23,2.15,24.06,7.9s8.83,13.49,9.33,23.43a98.92,98.92,0,0,1-2.49,26.46l-1.14,5.12-26-3.11,1-6a87.67,87.67,0,0,0,1-18.78C248.05,94.4,247,93,247,93l-.09-.13c-.46-.64-2.07-1-4.2-.86-4.57.23-9,2-13.55,5.25a105.08,105.08,0,0,0,5.5,20.41l2.3,5.83-23.8,7.33Z" style="fill: #0702b0"/>
    <path d="M270.12,96.43a92.78,92.78,0,0,1-2.35,24.91L253,119.57a92.78,92.78,0,0,0,1.1-20q-.36-7.31-2.52-10.11-2.58-3.57-9.19-3.25-10,.51-19.54,8.62a114.62,114.62,0,0,0,6.38,25L215.61,124q-4.35-6.61-7.2-19.41A119.62,119.62,0,0,1,205.46,84q-.14-2.7.11-9.94l15,0,.16,3.3q3.57-3,10.7-4.85a54.1,54.1,0,0,1,11.45-1.88q12.71-.64,19.68,6.23T270.12,96.43Z" style="fill: url(#linear-gradient)"/>
    <path d="M189.47,129.88a52.37,52.37,0,0,1-20,4,28.22,28.22,0,0,1-19.68-7.51,25.59,25.59,0,0,1-8.41-19.49c0-10.12,3.77-18.18,11.21-24l1.11-.82,1.94-22.27,5.25-.07h1.62c36.34,0,41.22,5.95,42.83,7.9,5.2,6.33,4.3,23.63,3.64,31.08v9.06c0,3.19,1.11,6.91,3.3,11l2.67,5-22.26,12.38Z" style="fill: #0702b0"/>
    <path d="M207.19,121.52l-12,6.7-3.08-6A47.41,47.41,0,0,1,169.51,128a22.48,22.48,0,0,1-15.76-6,19.88,19.88,0,0,1-6.52-15.21q0-12.4,9-19.38c5.43-4.23,12.49-5.64,21.1-6.34A27.26,27.26,0,0,1,192,83.89l.12,14.43c-3.8-1.75-11-3.7-14.79-3.7q-6.88,0-11.23,2.9a11.19,11.19,0,0,0-5,9.78,6.43,6.43,0,0,0,2.35,5,7.67,7.67,0,0,0,5.35,2.18q10,0,15.76-4.71t6.07-13.41s2.18-13.25-.23-16.65C186,73.52,160,77.59,160,77.59l1-12.07s34.77-.45,39.88,5.78c4.32,5.26,2.32,27.12,2.32,27.12v9.33Q203.21,114,207.19,121.52Z" style="fill: url(#Sky_2-4)"/>
    <path d="M64.72,135.63c-1.62-4.95-3.13-12.5-4.6-23.06a205.33,205.33,0,0,1-2.18-26.68c0-11.16,1.28-19.49,3.91-25.47C66.31,50.31,73.92,48.8,78.07,48.8c5.33,0,11.12,2.72,18.23,8.56l.15.12,7.44,6.86c2.27-2.15,4.25-4.07,5.9-5.72,6.38-6.38,11.81-9.36,17.08-9.36,10.26,0,17.94,5.72,21.61,16.11,2,5.52,3,13,3,22.74,0,18.22-.8,31.31-2.46,40l-1.23,6.49-31.51-5.15L117,123c.52-4.56,1-12.88,1.36-24.73,0-.25,0-.5,0-.75l-2.53,3.72-21.33,1-2.17-2.68c-.69-.87-1.34-1.65-2-2.36.65,5.89,2.28,15.54,5.88,31.35l1.58,6.9-31.28,5.74Z" style="fill: #0702b0"/>
    <path d="M149.89,87.53q0,26.44-2.34,38.73l-18.61-3q.81-7.14,1.4-25.28.58-19.18-.11-19.19-2.46,0-12.88,15.33l-14.51.7q-9.24-11.46-13-11.46-1.41,0-1.41,7.6,0,10.42,6.44,38.62l-18.49,3.39q-2.22-6.78-4.33-21.88A197.86,197.86,0,0,1,70,85.3Q70,55,83.29,55q5.38,0,13.93,7l11.94,11q6.56-6.09,10.65-10.18,7.38-7.38,12.29-7.38,11.11,0,15.21,11.59Q149.89,74.19,149.89,87.53Z" style="fill: url(#Sky_2-5)"/>
    <path d="M701.4,137a31.56,31.56,0,0,1-16.16-4.09,29.57,29.57,0,0,1-14.66,3.76c-10,0-17.7-3.59-23-10.67l0,0C643.21,120,641,112.34,641,103.1c0-10.2,3.57-21,10.63-32.15L654.14,67l28,11.18L677.86,84a50.08,50.08,0,0,0-5.78,10.26,27.58,27.58,0,0,0-2.44,10,7.76,7.76,0,0,0,.94,4.05l.06.09.06.1a2.61,2.61,0,0,0,.44.62,1,1,0,0,0,.09-.15,6,6,0,0,0,.72-3.15v-5.31l23.65-1.3,1.42,3.91c1.27,3.48,2.86,5.74,4.05,5.74.23,0,.72,0,1.59-1.1a4.4,4.4,0,0,0,1.11-2.94,19.81,19.81,0,0,0-2.52-9.73c-.27-.47-1.5-2.46-6.83-9.82L690.56,80,717,66.7l2.75,4.15a101.62,101.62,0,0,1,8.43,14.68,42.73,42.73,0,0,1,4,17.57c0,9.47-2.42,17.32-7.2,23.34C719.45,133.43,711.52,137,701.4,137Z" style="fill: #0702b0"/>
    <path d="M726.57,103.1q0,12.32-6,19.85-6.65,8.43-19.18,8.42-9.54,0-16.08-5.21A24,24,0,0,1,670.58,131q-12.21,0-18.52-8.42-5.43-7.43-5.43-19.52,0-13.74,9.75-29.15l17,6.76a54.66,54.66,0,0,0-6.43,11.42A32.59,32.59,0,0,0,664,104.32a13,13,0,0,0,1.78,7,6.13,6.13,0,0,0,5.54,3.55A5.32,5.32,0,0,0,676,112a11.53,11.53,0,0,0,1.55-6.09l14.19-.78q3.43,9.42,9.32,9.42a7.48,7.48,0,0,0,6-3.21,10,10,0,0,0,2.33-6.43,25.55,25.55,0,0,0-3.21-12.42q-1.11-2-7.21-10.42L715,74a98.39,98.39,0,0,1,8,13.85A37.22,37.22,0,0,1,726.57,103.1Z" style="fill: url(#New_Gradient_Swatch_2)"/>
    <path d="M455.32,137.28c-1.57-4.78-3-12.06-4.45-22.26a199.7,199.7,0,0,1-2.09-25.77c0-10.77,1.23-18.81,3.77-24.58,4.3-9.77,11.66-11.23,15.66-11.23,5.14,0,10.74,2.63,17.6,8.27l.15.12,7.18,6.62c2.2-2.08,4.1-3.93,5.7-5.52,6.16-6.17,11.4-9,16.49-9,9.91,0,17.32,5.53,20.87,15.55,1.92,5.33,2.86,12.53,2.86,22,0,17.6-.78,30.23-2.38,38.63l-1.19,6.26-30.42-5,.71-6.2c.5-4.4.94-12.43,1.31-23.87l0-.73-2.45,3.59-20.6,1L482,102.52c-.67-.84-1.3-1.6-1.88-2.29.63,5.69,2.19,15,5.68,30.28l1.52,6.66-30.2,5.55Z" style="fill: #0702b0"/>
    <path d="M532.51,91.4q0,25.55-2.26,37.4l-18-2.93q.79-6.9,1.36-24.41.55-18.54-.12-18.53-2.37,0-12.43,14.8l-14,.68q-8.93-11.07-12.54-11.08-1.37,0-1.36,7.35,0,10,6.22,37.29l-17.86,3.28q-2.15-6.56-4.18-21.14a191.24,191.24,0,0,1-2-24.86Q455.32,60,468.21,60q5.19,0,13.45,6.78l11.52,10.62q6.33-5.88,10.29-9.83,7.11-7.12,11.86-7.12,10.74,0,14.69,11.19Q532.51,78.52,532.51,91.4Z" style="fill: url(#New_Gradient_Swatch_2-2)"/>
    <path d="M617.45,139.79c-11.06,0-20.34-2.44-27.61-7.26-9.1-6.13-13.7-15-13.7-26.51S580.45,85.37,589,79.11c7.16-5.29,16.49-8,27.72-8,10.56,0,19.58,2.68,26.81,8l0,0c8.41,6.26,12.68,15,12.68,25.89s-4.06,19.6-12.06,26.09C637,136.87,628,139.79,617.45,139.79Zm-1.89-41a12.62,12.62,0,0,0-7.59,2,5.57,5.57,0,0,0-2.55,5.09c0,1.64.45,3,2.61,4.22a16.81,16.81,0,0,0,8.42,1.92,15.67,15.67,0,0,0,8.34-1.92,5,5,0,0,0,2.79-4.78c0-1.52-.36-3.14-3-4.65A18.44,18.44,0,0,0,615.56,98.77Z" style="fill: #0702b0"/>
    <path d="M650.6,105q0,13.64-10,21.73-9.21,7.42-23.17,7.43-15,0-24.51-6.32-11.19-7.55-11.2-21.84,0-14.64,10.54-22.4,9.32-6.87,24.39-6.87,14.08,0,23.51,6.87Q650.59,91.39,650.6,105Zm-17.41.33q0-6.21-5.88-9.53a23.82,23.82,0,0,0-11.75-2.66,18.13,18.13,0,0,0-10.86,3.1,11.11,11.11,0,0,0-4.88,9.65,9.9,9.9,0,0,0,5.43,9.09,22.26,22.26,0,0,0,11.2,2.66q6.87,0,11.31-2.77A10.57,10.57,0,0,0,633.19,105.35Z" style="fill: url(#New_Gradient_Swatch_2-3)"/>
    <path d="M555.23,137.24c-5,0-8.71-.69-11.43-2.11-6.81-3.55-14.25-8.74-17.83-20.36-2.63-8.57-1.17-16.85,4.34-24.62a36.53,36.53,0,0,1,19.52-14,41,41,0,0,1,12.07-1.88,37.23,37.23,0,0,1,11,1.67c9,2.84,15.07,8.73,17.63,17,1.64,5.34,1.38,10.25-.77,14.59l-.07.14a17,17,0,0,1-2.58,3.64L591,130.6l-4.86,1.49C578.11,134.57,565,137.24,555.23,137.24Z" style="fill: #0702b0"/>
    <path d="M585.19,94.63q1.81,5.93-.43,10.46t-8.38,6.33q-7.5,2.31-29.25,3c7.17,6.84,26.28,1.43,34.67-1.15l2.71,13.44c-10,3.08-31,7.12-38.12,3.43-6.61-3.45-12.19-7.73-15.06-17q-3.15-10.26,3.55-19.72a30.88,30.88,0,0,1,16.6-11.89,32.92,32.92,0,0,1,19.78-.21Q582.14,84.74,585.19,94.63ZM571,98q-1-3.15-5.73-3.81a19.19,19.19,0,0,0-17.91,7.94Q566.79,101,570,100a2.1,2.1,0,0,0,1.21-.68A2.7,2.7,0,0,0,571,98Z" style="fill: url(#New_Gradient_Swatch_2-4)"/>
    <g>
      <g>
        <g>
          <g>
            <path d="M475.38,131.52c-1.25-1.47-4.4-2.48-9.09-2.73a39.8,39.8,0,0,0-73.23,28.47c-6.79,6.28-10.55,12.31-7.68,15.68,2.53,3,11.43,2.58,16.53,2.08a39.79,39.79,0,0,0,69.43-32C474.54,140.68,479.31,136.14,475.38,131.52Z" style="fill: #ffd404"/>
            <path d="M428.46,192.46A43.35,43.35,0,0,1,400.35,179c-14,1.05-16.89-2.41-17.89-3.58-2.81-3.31-3.85-9.34,6.46-19.5a43.23,43.23,0,0,1-.41-10.48,43.62,43.62,0,0,1,80-20.31c4.71.5,8,1.81,9.78,3.91a9.28,9.28,0,0,1,2.32,7.22c-.42,3.44-2.79,6.3-5.21,8.39a43,43,0,0,1,.07,7.86A43.67,43.67,0,0,1,428.46,192.46ZM403.51,171l1.29,1.5a36,36,0,0,0,63.06-20.63,36.46,36.46,0,0,0-.3-8.34l-.35-2.31,1.9-1.37c2.72-2,3.8-3.63,3.91-4.54,0-.17.08-.58-.54-1.31-.35-.32-2.15-1.18-6.4-1.41L464,132.5l-1-1.77a36,36,0,0,0-66.18,25.73l.78.47-1.77,2.93c-7.38,6.83-7.75,10.34-7.53,10.6.55.49,4.06,1.65,13.24.75Z" style="fill: #0000b2"/>
          </g>
          <path d="M394.17,161.26l-3.3-6.44c.48-.52,11.85-12.95,33.08-20.73a170.54,170.54,0,0,1,41.71-9.21l.55,7.63a128.59,128.59,0,0,0-39.5,7.24C407.36,146.84,394.27,161.15,394.17,161.26Z" style="fill: #0000b2"/>
        </g>
        <g>
          <path d="M430,165.64a42.83,42.83,0,0,0,4.38,9.32,10.72,10.72,0,1,0-6.37,1.33,48.44,48.44,0,0,1-3.85-8.84Z" style="fill: #0000b2"/>
          <path d="M447.69,181.81l.12-.1s-2.21,1.62-7.58-.91c-2.22-1.05-4.19-3.32-5.81-5.84a10.61,10.61,0,0,1-6.15,1.36l-.22,0c2.22,3.92,5.38,8.07,9.57,10a19.68,19.68,0,0,0,6.85,2c4.73.39,7.15-1.78,7.5-2.12Z" style="fill: #0000b2"/>
          <path d="M434.42,175a42.83,42.83,0,0,1-4.38-9.32l-5.84,1.81a48.44,48.44,0,0,0,3.85,8.84l.22,0A10.61,10.61,0,0,0,434.42,175Z" style="fill: #0000b2"/>
        </g>
      </g>
      <circle cx="423.61" cy="103.73" r="6.89" style="fill: #0000b2"/>
    </g>
  </g>
  <defs>
    <linearGradient id="Sky_2" data-name="Sky 2" x1="406.87" y1="58.34" x2="378.85" y2="155.96" gradientUnits="userSpaceOnUse">
      <stop offset="0" stop-color="#c6e0f5"/>
      <stop offset="0.06" stop-color="#bdddf4"/>
      <stop offset="0.15" stop-color="#a3d4f1"/>
      <stop offset="0.28" stop-color="#7ac7eb"/>
      <stop offset="0.42" stop-color="#40b3e4"/>
      <stop offset="0.57" stop-color="#009edc"/>
      <stop offset="0.87" stop-color="#0077c3"/>
      <stop offset="0.99" stop-color="#005d9b"/>
    </linearGradient>
    <linearGradient id="Sky_2-2" x1="361.62" y1="50.01" x2="354.97" y2="154.01" xlink:href="#Sky_2"/>
    <linearGradient id="Sky_2-3" x1="316.67" y1="61.44" x2="282.63" y2="143.26" xlink:href="#Sky_2"/>
    <linearGradient id="linear-gradient" x1="238.54" y1="60.55" x2="236.14" y2="160.36" gradientUnits="userSpaceOnUse">
      <stop offset="0" stop-color="#c6e0f5"/>
      <stop offset="0.06" stop-color="#bdddf4"/>
      <stop offset="0.15" stop-color="#a3d4f1"/>
      <stop offset="0.28" stop-color="#7ac7eb"/>
      <stop offset="0.42" stop-color="#40b3e4"/>
      <stop offset="0.57" stop-color="#009edc"/>
      <stop offset="0.87" stop-color="#0077c3"/>
    </linearGradient>
    <linearGradient id="Sky_2-4" x1="179.56" y1="61.4" x2="176.38" y2="132.23" xlink:href="#Sky_2"/>
    <linearGradient id="Sky_2-5" x1="98.28" y1="49.18" x2="128.81" y2="163.35" xlink:href="#Sky_2"/>
    <radialGradient id="New_Gradient_Swatch_2" data-name="New Gradient Swatch 2" cx="776.17" cy="46.5" r="423.59" gradientTransform="translate(0 -0.42)" gradientUnits="userSpaceOnUse">
      <stop offset="0" stop-color="#fff700"/>
      <stop offset="0.06" stop-color="#ffea00"/>
      <stop offset="0.24" stop-color="#ffc800"/>
      <stop offset="0.42" stop-color="#ffad00"/>
      <stop offset="0.61" stop-color="#ff9a00"/>
      <stop offset="0.8" stop-color="#ff8f00"/>
      <stop offset="1" stop-color="#ff8b00"/>
    </radialGradient>
    <radialGradient id="New_Gradient_Swatch_2-2" cx="514.22" cy="57.74" r="243.37" xlink:href="#New_Gradient_Swatch_2"/>
    <radialGradient id="New_Gradient_Swatch_2-3" cx="594.62" cy="68.98" r="233.37" xlink:href="#New_Gradient_Swatch_2"/>
    <radialGradient id="New_Gradient_Swatch_2-4" cx="581.66" cy="56.88" r="327.4" xlink:href="#New_Gradient_Swatch_2"/>
  </defs></svg>