<svg xmlns="http://www.w3.org/2000/svg" xmlns:xlink="http://www.w3.org/1999/xlink" viewBox="0 0 1500 1500">  <g id="sky">
    <rect width="1500" height="1499.86" style="fill: #ffe600"/>
  </g>  <g id="pattern">
    <path d="M1500,0H1228.83l-65.52,122.64L1100.84,1h-288l-64,119.75L686.84,0h-288L333.31,122.64,270.84,1H0V6H122.46V7L59.27,125.3H0v5H58.51l9.09,17,50.85,99L0,174.7v5.84L116.54,251H0v5H116.88L0,326v5.83L119.64,260.2l-10.93,20.71L58.44,375H0v5.33H57.51l63,117.89,1.07,2.08H0v5.75H116L0,575.48v5.83l118.2-70.75L57.26,624.63l-.21.39H0v5H58.79L118.4,746.11,0,674.5v5.84L110.21,747H0v8.33H121.23l-62,116H0v8.75H60.51l7.09,13.27,50.85,99L0,920.7v5.84L116.54,997H0v5H116.88L0,1072v5.83l119.64-71.61-10.93,20.72L58.44,1121H0v5.33H57.51l63,117.9,1.06,2.07H0v5.75H116L0,1321.48v5.83l118.2-70.75L57.05,1371H0v5H58.79l59.61,116.08L0,1420.5v5.84l115.71,70H0V1500H1378.58l-.75-1.4L1500,1425.47v-5.82l-117.69,70.44L1443.25,1376H1500v-5h-58.17l-62.41-116.8L1500,1327.15v-5.84l-116.16-70.26H1500v-5H1378l28.25-53.53,35.36-66.19H1500V1121h-60.41l-58.38-113.68L1500,1079.16v-5.84L1380.47,1001H1500v-5H1381l119-71.25V919L1376.46,992.9l61.31-114.76.48.91H1500V871.3h-60.22l-63-118H1500V746H1385.19L1500,677.28v-5.83l-119.69,71.64L1441.25,629H1500v-5h-60.17l-62.41-116.8L1500,581.36v-5.84l-116.51-70.47H1500V498.3H1379l62.26-118H1500V374h-60.92l-57.87-112.68L1500,333.16v-5.84L1380.47,255H1500v-5H1381l119-71.24V173l-120.91,72.37,60.71-115H1500v-5h-61.67L1376.56,5H1500ZM1231.83,5h136.63V6L1305.27,124.3H1168.09Zm-.43,1246.05H1362l-190.9,114.27Zm-65.94,114.22V1129.92l61.26,119.29ZM1173,1370l194.18-116.23L1305.81,1370Zm191.43,121.08L1172.47,1375h132.32Zm-131.15-245.06-64.5-120.72h134.76l63,117.9,1.45,2.82Zm-67.79-630.16v-232L1226.2,502.2Zm65.94-110.84H1362L1171.09,619.32Zm-3.74,249.1-61.3,116.15h-.9V637.73Zm-54.45-118.83,188.5,114h-130Zm-4.07,243.73,193.4,117H1230.25l-.92,1.72-60.95-118.7Zm9.66,0h127.71l7.09,13.27,50.85,99Zm54.45,122h129.63l-190.57,114.06Zm132.39,4.17-10.93,20.72L1304.44,1120h-130.6Zm-55.88,116.59,49.34-93.48,9.36-17.53v225.33ZM1318,890l-7.89-15.37,58.31-110.49V984.4Zm-12.77-19.71H1172l61.21-116h134ZM1172.47,629h131.88l11.37,21.29,48.68,94.8Zm131.11-5H1173l192-114.93ZM1232.85,499.3l-64.1-120h134.76l63,117.89,1.07,2.08ZM1362.54,250H1231.83l-62.41-116.8ZM1172.6,129.3h131.91l9.09,17,50.85,99ZM1233.25,255h129.63L1172.31,369.09Zm132.39,4.18-10.93,20.71L1304.44,374h-130.6Zm-55.88,116.59,49.33-93.47,9.37-17.54V490.11ZM1318,144l-8.64-16.82,59.06-110.56V238.4Zm-153.82-8.11,61.43,119.61-61.32,116.17L1101.68,254.4Zm-206.76,853V757.78l11.37,21.27,49.37,96.15Zm65.42-109.84h129.45L963.1,992.32Zm-4.55,245.62L957.46,1238.6V1010.73Zm-53.12-116.35L1149.87,1120H1022.56Zm60,366.71h129.63L964.31,1489.09Zm-1.42-5-62.41-116.8L1154.54,1370Zm-54.69-118H1098l7.62,14.27,50.85,99Zm128.13-7.75H963.49l61.73-117h134.54ZM964.47,1002h132.32l59.61,116.08Zm130.58-5H965L1156.2,882.56ZM1024.31,872.3l-51-95.56-12-23.41h134.27l63.56,119Zm-61.22-626,60.71-115h131.45ZM1156.2,136.56l-60.94,114.07-.21.39H965ZM1096.79,256l59.61,116.09L964.47,256Zm53.08,118H1022.56L965.21,262.32Zm-124.65,7.33h134.54l-62.49,117H963.49ZM1098,506.05l7.62,14.27,50.85,99L969.14,506.05Zm56.56,118H1023.83l-62.41-116.8Zm-129.29,5h129.63L964.31,743.09Zm132.39,4.18-10.93,20.71L1097,747H967.51ZM1102,749.3l49.07-93,9.37-17.54V863.11ZM1110,518l-8.15-15.87,58.57-111V612.4ZM1097.79,6l61.77,120.3H1022.33L960.56,6ZM957.46,10.92,1018.2,129.2,957.46,242.89Zm0,253.81,60.87,113.94L957.46,492.6ZM956.22,509.9l61.43,119.61L956.33,745.68,893.68,628.4ZM815.4,1252.05H946L755.1,1366.32Zm-65.94,110.84v-232L810.2,1249.2ZM948.2,1256.56,887.05,1371H757ZM816.85,1246.3l-64.1-120H887.51l63,117.9,1.06,2.07Zm126.24-963,9.37-17.54V491.11l-58.7-114.32ZM888.44,375H757.84l191.8-114.8-10.93,20.71ZM902,145l-8.64-16.82L952.46,17.63V239.4Zm-4.44,2.31,50.85,99L756.6,130.3H888.51ZM946.54,251H815.83l-9-16.79L756.43,136Zm-129.29,5H946.88L756.31,370.09Zm70.26,124.31,63,117.89,1.07,2.08H816.85l-64.1-120ZM756.47,630H888.79L948.4,746.11ZM940.21,747H814.05L757.21,636.32Zm-53-122.37-.21.39H757L948.2,510.56Zm-132.17-4.31L815.4,506.05H946ZM810.2,503.2,749.46,616.89v-232Zm-.13,249L749.46,865.6V638.73Zm7.15,3.16h134l-62,116H756Zm73.29,124.72,7.09,13.27,50.85,99L762.8,880.05Zm56,117H815.83l-9-16.8L756.43,882Zm-129.29,5H946.88L756.31,1116.09Zm132.39,4.17-10.93,20.72L888.44,1121H757.84Zm-55.88,116.59,49.34-93.48,9.36-17.53v225.33ZM902,891l-7.89-15.37,58.31-110.49V985.4ZM815.83,6H952.46V7L889.27,125.3H752.09ZM749.18,136.88l53.25,99.68,9.22,17.95L750.77,369.86,749,373.09,687.62,253.5Zm-205.72,851V762.52l60.2,112.69Zm64.36-107.84H735L549.1,991.32Zm-4,242.75-60.41,113.06V1009.73Zm-52.66-115.48,188,113.68H609.59Zm-.74-6.29H679.81l61.74,115.57Zm.5-5L740.83,882.38,680.12,996ZM608.33,871.3l-60.06-117H679.51L742,871.3ZM682.05,746H554.86L741.64,634.2l-10.93,20.71Zm2.66,6.79,8.63,16.81-8.81-16.48ZM738.54,625H607.83l-9-16.79L548.43,510Zm-188.7-120H680.91l8.69,16.27,50.85,99Zm59.41,125H738.88L548.31,744.09Zm78.31,117.37,47.53-90.07,9.37-17.54V858.21ZM694,519l-7.69-15,58.11-110.1V613.4ZM681.27,499.3H548.43l62.79-119H744.46V381Zm-132.18-254,60.71-115H741.25ZM740.83,136.38,680.12,250H551ZM679.81,255,741.55,370.6,550.47,255Zm59.36,120H609.59L551.21,261.32ZM683.79,5l61.77,120.3H608.33L546.56,5ZM543.46,9.92,604.2,128.2,543.46,241.89Zm0,253.81L603.87,376.8,543.46,489.86Zm51,346.83,9.22,18L542.77,743.86,541.62,746h-1.14L479.62,627.5l61.56-116.62Zm-193,640.49H532L341.1,1365.32Zm-65.94,110.84v-232L396.2,1248.2Zm197.37-105.51L472.12,1370H343Zm-130-11.08-64.1-120H473.51l63,117.9,1.06,2.07Zm126.24-963,9.37-17.54V490.11l-58.7-114.32ZM474.44,374H343.84l191.8-114.8-10.93,20.71ZM488,144l-8.64-16.82L538.46,16.63V238.4Zm-4.44,2.31,50.85,99L342.6,129.3H474.51ZM532.54,250H401.83l-62.41-116.8Zm-129.29,5H532.88L342.31,369.09Zm70.26,124.31,63,117.89,1.07,2.08H402.85l-64.1-120Zm1.76,491H342l61.21-116h134Zm1.24,8.75,7.09,13.27,50.85,99L348.8,879.05ZM400.05,746,343.21,635.32,526.21,746ZM342.47,629H471.81L533.55,744.6Zm.5-5L532.83,510.38,472.12,624Zm-1.88-4.7L401.4,505.05H532ZM396.2,502.2,335.46,615.89v-232Zm-.13,249L335.46,864.6V637.73ZM532.54,996H401.83L339.42,879.22Zm-129.29,5H532.88L342.31,1115.09Zm132.39,4.17-10.93,20.72L474.44,1120H343.84Zm-55.88,116.59,49.34-93.48,9.36-17.53v225.33ZM488,890l-7.89-15.37,58.31-110.49V984.4ZM401.83,5H538.46V6L475.27,124.3H338.09ZM334.22,135.9l61.43,119.61L334.33,371.68,271.68,254.4Zm-206.76,853V757.78l11.37,21.27L188.2,875.2Zm65.42-109.84H322.33L133.1,992.32Zm-4.55,245.62L127.46,1238.6V1010.73Zm-53.12-116.35L319.87,1120H192.56Zm60,366.71H324.88L134.31,1489.09Zm-1.42-5-62.41-116.8L324.54,1370Zm-54.69-118H268l7.62,14.27,50.85,99Zm128.13-7.75H133.49l61.73-117H329.76ZM134.47,1002H266.79l59.61,116.08Zm130.58-5H135L326.2,882.56ZM194.31,872.3l-51.05-95.56-12-23.41H265.51l63.56,119Zm-61.22-626,60.71-115H325.25ZM326.2,136.56,265.26,250.63l-.21.39H135ZM266.79,256,326.4,372.11,134.47,256Zm53.08,118H192.56L135.21,262.32Zm-124.65,7.33H329.76l-62.49,117H133.49ZM268,506.05l7.62,14.27,50.85,99L139.14,506.05Zm56.56,118H193.83l-62.41-116.8Zm-129.29,5H324.88L134.31,743.09Zm132.39,4.18-10.93,20.71L267,747H137.51ZM272,749.3l49.07-93,9.37-17.54V863.11ZM280,518l-8.15-15.87,58.57-111V612.4ZM267.79,6l61.77,120.3H192.33L130.56,6ZM127.46,10.92,188.2,129.2,127.46,242.89Zm0,253.81,60.87,113.94L127.46,492.6ZM72,145,63.4,128.19,122.46,17.63V239.4ZM63.76,376.79l49.33-93.47,9.37-17.54V491.11ZM63.68,628.4l62.54-118.5,61.43,119.61L126.33,745.68ZM72,891l-7.89-15.37,58.31-110.49V985.4Zm-8.28,231.78,49.34-93.48,9.36-17.53v225.33Zm-.08,251.61,62.54-118.5,61.43,119.61-61.32,116.17ZM131.11,1500l-.36-.67H265.51l.36.67Zm4.19-5.67L327.64,1379.2l-10.93,20.72-50.44,94.41ZM330.46,1500H271.54l-1-1.88,50.57-95.81,9.36-17.53Zm0-141.6L280,1264l-8.15-15.87,58.57-111Zm-58.78-358,62.54-118.5,61.43,119.61-61.32,116.17ZM335.46,1500V1383.73L397.58,1500Zm66.3-4.67-58.55-114,188.5,114ZM342.47,1375H471.81l61.74,115.57ZM541,1493.09,479.62,1373.5l61.56-116.62,53.25,99.68,9.22,18-60.9,115.39ZM738.54,1371H607.83l-9-16.8L548.43,1256Zm-188.7-120H680.91l8.69,16.27,50.85,99Zm59.41,125H738.88L548.31,1490.09Zm-60,119.3L741.64,1380.2l-10.93,20.72-50.44,94.41ZM744.46,1500H685l-.47-.88,50.57-95.81,9.36-17.53Zm0-140.6L694,1265l-7.69-15,58.11-110.1Zm0-232.38L681.27,1245.3H548.43l62.79-119H744.46ZM687.62,999.5l61.56-116.62,53.25,99.68,9.22,18-60.9,115.39-1.71,3.19ZM749.46,1500V1384.73L811,1500Zm66.3-3.67-58.55-114,188.5,114ZM756.47,1376H888.79l59.61,116.08Zm137.21-1.63,62.54-118.5,61.43,119.61-61.32,116.17ZM961.11,1500l-.36-.67h134.76l.36.67Zm4.19-5.67,192.34-115.13-10.93,20.72-50.44,94.41Zm195.16,5.67h-58.92l-1-1.88,50.57-95.81,9.36-17.53Zm0-141.6L1110,1264l-8.15-15.87,58.57-111Zm-58.78-358,62.54-118.5,61.43,119.61-61.32,116.17ZM1227.74,1500h-62.28V1377.17l62.69,122.06Zm140.43,0H1233.39l.39-.73-60.57-118,195.26,118.1Zm70-125.14L1374,1495.08l-1.3.77.47.78-.15.28-63.37-123.41,63.53-120.39Zm-2.54-248.71-33.83,64.1-28.37,53.1V1009.73Zm-.73-253.32-61.47,115.06V757.78Zm-1.28-244.32-61.58,116.67L1320.15,648l-10.52-20.5,62.59-118.6Zm.95-250.34L1373.46,492.6V263.73Zm-.4-250-60.74,113.69V9.92Z" style="fill: #006837"/>
  </g>  <g id="base">
    <rect y="1330.87" width="1500" height="168.98" style="fill: #00a651"/>
  </g>  <g id="land">
    <rect x="0.46" y="1028.55" width="1500.11" height="302.58" style="fill: #ffe600"/>
  </g>  <g id="city">
    <line x1="0.12" y1="1028.95" x2="1500.12" y2="1028.95" style="fill: #ffc0f9;stroke: #000;stroke-miterlimit: 10;stroke-width: 3px"/>
    <path d="M1262,600.5h-42s-1-13-11-13-9,10-9,10-7-25-28-25-30,26-30,26-16-4-20,2-3,17-3,17h-36" style="fill: none;stroke: #000;stroke-miterlimit: 10;stroke-width: 3px"/>
    <path d="M384.92,247.81s9.23-16.19,21.61-17.59S424.36,248,424.36,248s6.52-12.93,17-14.58,21.52,14.35,21.52,14.35" style="fill: none;stroke: #000;stroke-miterlimit: 10;stroke-width: 3px"/>
    <path d="M1443.15,343.08l8.27,2.23-5.5,1.48a8.52,8.52,0,0,0-6,6l-1.48,5.5-1.76-6.54a6.66,6.66,0,0,0-4.7-4.7l-6.54-1.76,6.48-1.75a6.73,6.73,0,0,0,4.77-4.77l1.75-6.48,2.23,8.27A3.53,3.53,0,0,0,1443.15,343.08Z" style="fill: none;stroke: #000;stroke-miterlimit: 10;stroke-width: 2px"/>
    <path d="M105.15,545.08l8.27,2.23-5.5,1.48a8.52,8.52,0,0,0-6,6l-1.48,5.5-1.76-6.54a6.66,6.66,0,0,0-4.7-4.7l-6.54-1.76,6.48-1.75a6.73,6.73,0,0,0,4.77-4.77l1.75-6.48,2.23,8.27A3.53,3.53,0,0,0,105.15,545.08Z" style="fill: none;stroke: #000;stroke-miterlimit: 10;stroke-width: 2px"/>
    <path d="M1287.15,369.08l8.27,2.23-5.5,1.48a8.52,8.52,0,0,0-6,6l-1.48,5.5-1.76-6.54a6.66,6.66,0,0,0-4.7-4.7l-6.54-1.76,6.48-1.75a6.73,6.73,0,0,0,4.77-4.77l1.75-6.48,2.23,8.27A3.53,3.53,0,0,0,1287.15,369.08Z" style="fill: none;stroke: #000;stroke-miterlimit: 10;stroke-width: 2px"/>
    <path d="M86.36,323.37s.71-9.26,7.84-9.26,6.41,7.12,6.41,7.12,5-17.82,20-17.82S142,322,142,322s11.41-2.85,14.26,1.42,2.14,12.12,2.14,12.12" style="fill: none;stroke: #000;stroke-miterlimit: 10;stroke-width: 3px"/>
    <path d="M1080.15,330.08l8.27,2.23-5.5,1.48a8.52,8.52,0,0,0-6,6l-1.48,5.5-1.76-6.54a6.66,6.66,0,0,0-4.7-4.7l-6.54-1.76,6.48-1.75a6.73,6.73,0,0,0,4.77-4.77l1.75-6.48,2.23,8.27A3.53,3.53,0,0,0,1080.15,330.08Z" style="fill: none;stroke: #000;stroke-miterlimit: 10;stroke-width: 2px"/>
    <path d="M718.15,455.08l8.27,2.23-5.5,1.48a8.52,8.52,0,0,0-6,6l-1.48,5.5-1.76-6.54a6.66,6.66,0,0,0-4.7-4.7l-6.54-1.76,6.48-1.75a6.73,6.73,0,0,0,4.77-4.77l1.75-6.48,2.23,8.27A3.53,3.53,0,0,0,718.15,455.08Z" style="fill: none;stroke: #000;stroke-miterlimit: 10;stroke-width: 2px"/>
    <path d="M1384.15,585.08l8.27,2.23-5.5,1.48a8.52,8.52,0,0,0-6,6l-1.48,5.5-1.76-6.54a6.66,6.66,0,0,0-4.7-4.7l-6.54-1.76,6.48-1.75a6.73,6.73,0,0,0,4.77-4.77l1.75-6.48,2.23,8.27A3.53,3.53,0,0,0,1384.15,585.08Z" style="fill: none;stroke: #000;stroke-miterlimit: 10;stroke-width: 2px"/>
    <path d="M1076.25,453.6l8.27,2.23-5.5,1.48a8.52,8.52,0,0,0-6,6l-1.48,5.5-1.76-6.54a6.68,6.68,0,0,0-4.7-4.7l-6.54-1.76,6.48-1.75a6.73,6.73,0,0,0,4.77-4.77l1.75-6.48,2.23,8.27A3.53,3.53,0,0,0,1076.25,453.6Z" style="fill: none;stroke: #000;stroke-miterlimit: 10;stroke-width: 2px"/>
    <g>
      <polygon points="461.09 318.57 506.55 318.57 506.55 1029.06 406.11 1029.06 406.11 754.32 428.85 754.69 428.85 747.29 416.16 746.24 416.16 737.78 409.81 737.78 409.81 727.21 412.99 727.21 412.99 716.63 410.87 705 411.93 693.37 437.3 693.37 437.3 677.51 419.33 677.51 419.33 669.06 408.54 669.4 408.76 661.65 409.81 657.43 406.11 646.5 406.11 444.92 422.5 444.92 422.5 435.4 426.73 435.4 426.73 418.48 436.25 418.48 436.25 408.97 439.42 408.97 439.42 401.57 439.42 392.05 444.7 392.05 444.7 378.31 447.88 378.31 447.88 369.85 460.56 369.85 461.09 318.57" style="fill: #00e7ff;stroke: #000;stroke-miterlimit: 10;stroke-width: 3px"/>
      <line x1="501.45" y1="317.52" x2="501.45" y2="1028" style="fill: #00e7ff;stroke: #000;stroke-miterlimit: 10"/>
      <line x1="492.45" y1="317.52" x2="492.45" y2="1028" style="fill: #00e7ff;stroke: #000;stroke-miterlimit: 10"/>
      <line x1="487.94" y1="317.52" x2="487.94" y2="1028" style="fill: #00e7ff;stroke: #000;stroke-miterlimit: 10"/>
      <line x1="483.44" y1="317.52" x2="483.44" y2="1028" style="fill: #00e7ff;stroke: #000;stroke-miterlimit: 10"/>
      <line x1="478.94" y1="317.52" x2="478.94" y2="1028" style="fill: #00e7ff;stroke: #000;stroke-miterlimit: 10"/>
      <line x1="474.44" y1="317.52" x2="474.44" y2="1028" style="fill: #00e7ff;stroke: #000;stroke-miterlimit: 10"/>
      <line x1="469.93" y1="317.52" x2="469.93" y2="1028" style="fill: #00e7ff;stroke: #000;stroke-miterlimit: 10"/>
      <line x1="465.43" y1="317.52" x2="465.43" y2="1028" style="fill: #00e7ff;stroke: #000;stroke-miterlimit: 10"/>
      <line x1="460.93" y1="317.52" x2="460.93" y2="1028" style="fill: #00e7ff;stroke: #000;stroke-miterlimit: 10"/>
      <line x1="456.43" y1="369.32" x2="456.43" y2="1028" style="fill: #00e7ff;stroke: #000;stroke-miterlimit: 10"/>
      <line x1="451.92" y1="369.32" x2="451.92" y2="1028" style="fill: #00e7ff;stroke: #000;stroke-miterlimit: 10"/>
      <line x1="447.42" y1="369.32" x2="447.42" y2="1028" style="fill: #00e7ff;stroke: #000;stroke-miterlimit: 10"/>
      <line x1="442.92" y1="391.52" x2="442.92" y2="1028" style="fill: #00e7ff;stroke: #000;stroke-miterlimit: 10"/>
      <line x1="438.42" y1="391.52" x2="438.42" y2="1028" style="fill: #00e7ff;stroke: #000;stroke-miterlimit: 10"/>
      <line x1="433.91" y1="417.96" x2="433.91" y2="1028" style="fill: #00e7ff;stroke: #000;stroke-miterlimit: 10"/>
      <line x1="429.41" y1="417.96" x2="429.41" y2="1028" style="fill: #00e7ff;stroke: #000;stroke-miterlimit: 10"/>
      <line x1="424.91" y1="417.96" x2="424.91" y2="1028" style="fill: #00e7ff;stroke: #000;stroke-miterlimit: 10"/>
      <line x1="420.41" y1="443.33" x2="420.41" y2="1028" style="fill: #00e7ff;stroke: #000;stroke-miterlimit: 10"/>
      <line x1="415.9" y1="443.33" x2="415.9" y2="1028" style="fill: #00e7ff;stroke: #000;stroke-miterlimit: 10"/>
      <line x1="411.4" y1="443.33" x2="411.4" y2="1028" style="fill: #00e7ff;stroke: #000;stroke-miterlimit: 10"/>
      <g>
        <g>
          <line x1="478.01" y1="624.12" x2="505.5" y2="624.12" style="fill: #00e7ff;stroke: #000;stroke-miterlimit: 10;stroke-width: 5px"/>
          <line x1="450.52" y1="629.94" x2="478.01" y2="629.94" style="fill: #00e7ff;stroke: #000;stroke-miterlimit: 10;stroke-width: 5px"/>
          <line x1="450.52" y1="665.88" x2="469.55" y2="665.88" style="fill: #00e7ff;stroke: #000;stroke-miterlimit: 10;stroke-width: 5px"/>
          <line x1="460.03" y1="642.62" x2="486.47" y2="642.62" style="fill: #00e7ff;stroke: #000;stroke-miterlimit: 10;stroke-width: 5px"/>
          <line x1="469.55" y1="657.43" x2="488.58" y2="657.43" style="fill: #00e7ff;stroke: #000;stroke-miterlimit: 10;stroke-width: 5px"/>
          <line x1="434.66" y1="622.54" x2="450.52" y2="622.54" style="fill: #00e7ff;stroke: #000;stroke-miterlimit: 10;stroke-width: 5px"/>
          <line x1="442.06" y1="603.51" x2="478.01" y2="603.51" style="fill: #00e7ff;stroke: #000;stroke-miterlimit: 10;stroke-width: 5px"/>
          <line x1="479.07" y1="596.56" x2="504.97" y2="596.56" style="fill: #00e7ff;stroke: #000;stroke-miterlimit: 10;stroke-width: 10px"/>
          <line x1="451.92" y1="608.35" x2="471.14" y2="608.35" style="fill: #00e7ff;stroke: #000;stroke-miterlimit: 10;stroke-width: 5px"/>
          <line x1="424.91" y1="629.94" x2="433.91" y2="629.94" style="fill: #00e7ff;stroke: #000;stroke-miterlimit: 10;stroke-width: 5px"/>
          <line x1="449.99" y1="635.22" x2="460.03" y2="635.22" style="fill: #00e7ff;stroke: #000;stroke-miterlimit: 10;stroke-width: 5px"/>
          <line x1="434.66" y1="652.47" x2="451.92" y2="652.47" style="fill: #00e7ff;stroke: #000;stroke-miterlimit: 10;stroke-width: 5px"/>
          <line x1="408.8" y1="649.2" x2="424.91" y2="649.2" style="fill: #00e7ff;stroke: #000;stroke-miterlimit: 10;stroke-width: 5px"/>
          <line x1="416.86" y1="660.31" x2="429.41" y2="660.31" style="fill: #00e7ff;stroke: #000;stroke-miterlimit: 10;stroke-width: 5px"/>
          <line x1="410.87" y1="683.86" x2="447.42" y2="683.86" style="fill: #00e7ff;stroke: #000;stroke-miterlimit: 10;stroke-width: 16px"/>
          <line x1="460.03" y1="693.97" x2="411.93" y2="693.97" style="fill: #00e7ff;stroke: #000;stroke-miterlimit: 10;stroke-width: 4px"/>
          <line x1="431.49" y1="705.53" x2="410.87" y2="705.53" style="fill: #00e7ff;stroke: #000;stroke-miterlimit: 10;stroke-width: 4px"/>
          <line x1="434.66" y1="713.58" x2="442.59" y2="713.58" style="fill: #00e7ff;stroke: #000;stroke-miterlimit: 10;stroke-width: 4px"/>
          <line x1="471.14" y1="683.86" x2="478.01" y2="683.86" style="fill: #00e7ff;stroke: #000;stroke-miterlimit: 10;stroke-width: 4px"/>
          <polyline points="487.94 574.36 499.66 574.36 504.44 574.36" style="fill: #00e7ff;stroke: #000;stroke-miterlimit: 10;stroke-width: 4px"/>
          <line x1="499.15" y1="590.29" x2="499.15" y2="577.6" style="fill: #00e7ff;stroke: #000;stroke-miterlimit: 10;stroke-width: 10px"/>
          <line x1="411.93" y1="710.82" x2="424.91" y2="710.82" style="fill: #00e7ff;stroke: #000;stroke-miterlimit: 10;stroke-width: 10px"/>
        </g>
        <line x1="452.27" y1="407.99" x2="478.94" y2="407.99" style="fill: #00e7ff;stroke: #000;stroke-miterlimit: 10;stroke-width: 6px"/>
        <line x1="465.43" y1="396.04" x2="465.43" y2="407.99" style="fill: #00e7ff;stroke: #000;stroke-miterlimit: 10;stroke-width: 6px"/>
      </g>
      <line x1="464.26" y1="308" x2="464.26" y2="317.52" style="fill: #00e7ff;stroke: #000;stroke-miterlimit: 10;stroke-width: 3px"/>
      <line x1="503.91" y1="308" x2="503.91" y2="317.52" style="fill: #00e7ff;stroke: #000;stroke-miterlimit: 10;stroke-width: 3px"/>
      <path d="M483.82,315.93s2.65-4.76,6.88-4.76,6.25,6.35,6.25,6.35V1028" style="fill: #00e7ff;stroke: #000;stroke-miterlimit: 10"/>
    </g>
    <g>
      <path d="M1221.3,721.72l8.15,57,3,3v11l3.38,2.53v4.22l4.21,5.49v4.64l6.75,7.17v6.75l5.49,6.75v27.42l3.8,8.86v15.19a6.2,6.2,0,0,1,5.06,2.95,74,74,0,0,1,3.8,8.86l-3,5.06v9.29l3,5.9s4.64,5.49,5.06,7.6v3h-2.53l.42,4.22s7.17,6.33,7.17,7.59-3.8,2.53-3.8,2.53,11.39,11,11,11.82a19.09,19.09,0,0,1-3,2.95v3.8s8.86,6.32,9.7,8.43,0,8,0,8l-.84,2.53c3,2.11,8,2.11,8,2.11l3.8,7.17v6.75l-1.26,3,7.59,1.27,3.8,4.22V1010H1305v6.33h13.5v11.81H1138.32v-8.86h17.3v-7.17h-10.13v-7.59l2.53-3,6.33-2.95-.42-4.64-2.32-2.32a12,12,0,0,1,3.16-8.23c3.38-3.37,6.33-2.11,6.33-2.11l1.69-5.06h-3.38s.85-7.59,1.69-8.86,3-3,6.75-5.06,3.38-7.17,3.38-7.17l-1.69-5.07,3.37-5.06,2.11-4.22-2.11-3.37s4.65-3.38,5.91-7.18-.84-5.9-.84-5.9l3.79-7.6,3.8-4.21V902.38l-3-4.64-2.11-2.53s2.11-5.91,3.8-8a30.37,30.37,0,0,1,5.48-4.64l.84-10.12-2.11-1.69,3-2.11,1.69-10.13V841.21l-2.11-9.71s2.11-5.48,5.06-7.17,4.22-1.69,4.22-1.69l-.42-3.79-3-.42,7.17-8.86-1.68-5.07,2.11-3.37,3-3.8,1.69-6.33.84-9.7,3.8-3.37,5.54-56.16A1,1,0,0,1,1221.3,721.72Z" style="fill: #ffc373;stroke: #000;stroke-miterlimit: 10;stroke-width: 3px"/>
      <line x1="1169.78" y1="949.9" x2="1281.96" y2="949.9" style="fill: #ffec00;stroke: #000;stroke-miterlimit: 10;stroke-width: 3px"/>
      <line x1="1163.07" y1="976.12" x2="1288.36" y2="976.12" style="fill: #ffec00;stroke: #000;stroke-miterlimit: 10;stroke-width: 3px"/>
      <line x1="1155.14" y1="993.8" x2="1297.81" y2="993.8" style="fill: #ffec00;stroke: #000;stroke-miterlimit: 10;stroke-width: 3px"/>
      <line x1="1172.83" y1="937.1" x2="1270.99" y2="937.1" style="fill: #ffec00;stroke: #000;stroke-miterlimit: 10;stroke-width: 3px"/>
      <line x1="1177.7" y1="924.3" x2="1267.94" y2="924.3" style="fill: #ffec00;stroke: #000;stroke-miterlimit: 10;stroke-width: 3px"/>
      <line x1="1185.63" y1="912.71" x2="1264.89" y2="912.71" style="fill: #ffec00;stroke: #000;stroke-miterlimit: 10;stroke-width: 3px"/>
      <line x1="1185.63" y1="902.35" x2="1261.84" y2="902.35" style="fill: #ffec00;stroke: #000;stroke-miterlimit: 10;stroke-width: 3px"/>
      <line x1="1182.58" y1="897.47" x2="1261.84" y2="897.47" style="fill: #ffec00;stroke: #000;stroke-miterlimit: 10;stroke-width: 3px"/>
      <line x1="1189.9" y1="882.84" x2="1255.74" y2="882.84" style="fill: #ffec00;stroke: #000;stroke-miterlimit: 10;stroke-width: 3px"/>
      <line x1="1189.9" y1="872.47" x2="1255.74" y2="872.47" style="fill: #ffec00;stroke: #000;stroke-miterlimit: 10;stroke-width: 3px"/>
      <line x1="1190.2" y1="877.69" x2="1255.74" y2="877.69" style="fill: #ffec00;stroke: #000;stroke-miterlimit: 10;stroke-width: 3px"/>
      <line x1="1191.73" y1="868.81" x2="1255.74" y2="868.81" style="fill: #ffec00;stroke: #000;stroke-miterlimit: 10;stroke-width: 3px"/>
      <line x1="1192.14" y1="864.68" x2="1255.74" y2="864.68" style="fill: #ffec00;stroke: #000;stroke-miterlimit: 10;stroke-width: 3px"/>
      <path d="M1192.74,861c2-.14,59.35,0,59.35,0" style="fill: #ffec00;stroke: #000;stroke-miterlimit: 10;stroke-width: 3px"/>
      <line x1="1192.95" y1="858.45" x2="1252.09" y2="858.45" style="fill: #ffec00;stroke: #000;stroke-miterlimit: 10;stroke-width: 3px"/>
      <line x1="1191.73" y1="831.62" x2="1252.09" y2="831.62" style="fill: #ffec00;stroke: #000;stroke-miterlimit: 10;stroke-width: 3px"/>
      <line x1="1192.95" y1="835.56" x2="1252.09" y2="835.56" style="fill: #ffec00;stroke: #000;stroke-miterlimit: 10;stroke-width: 3px"/>
      <line x1="1199.65" y1="818.82" x2="1246.6" y2="818.82" style="fill: #ffec00;stroke: #000;stroke-miterlimit: 10;stroke-width: 3px"/>
      <line x1="1204.53" y1="807.24" x2="1239.28" y2="807.24" style="fill: #ffec00;stroke: #000;stroke-miterlimit: 10;stroke-width: 3px"/>
      <line x1="1207.58" y1="797.48" x2="1235.62" y2="797.48" style="fill: #ffec00;stroke: #000;stroke-miterlimit: 10;stroke-width: 3px"/>
      <line x1="1213.68" y1="777.97" x2="1229.53" y2="777.97" style="fill: #ffec00;stroke: #000;stroke-miterlimit: 10;stroke-width: 3px"/>
      <line x1="1214.43" y1="771.89" x2="1228.39" y2="771.89" style="fill: #ffec00;stroke: #000;stroke-miterlimit: 10;stroke-width: 3px"/>
      <line x1="1214.97" y1="766.45" x2="1227.69" y2="766.45" style="fill: #ffec00;stroke: #000;stroke-miterlimit: 10;stroke-width: 3px"/>
      <line x1="1215.56" y1="760.48" x2="1226.14" y2="760.48" style="fill: #ffec00;stroke: #000;stroke-miterlimit: 10;stroke-width: 3px"/>
      <line x1="1216.05" y1="755.46" x2="1225.18" y2="755.46" style="fill: #ffec00;stroke: #000;stroke-miterlimit: 10;stroke-width: 3px"/>
      <line x1="1216.55" y1="750.47" x2="1225.18" y2="750.47" style="fill: #ffec00;stroke: #000;stroke-miterlimit: 10;stroke-width: 3px"/>
      <line x1="1217.07" y1="745.14" x2="1223.94" y2="745.14" style="fill: #ffec00;stroke: #000;stroke-miterlimit: 10;stroke-width: 3px"/>
      <path d="M1347.81,846.87s-1.83,3.65-3.66,1.83,0-14.64,0-14.64-6.1-7.92-7.32-15.85.61-24.39,5.49-27.44,7.32-6.09,9.15-6.7,0-4.27,3-6.1,4.88-6.1,9.15-5.49,17.07,0,17.07,0,14,14.64,15.24,16.47,6.1,5.48,6.1,11v7.32s-.9.29-2.11.58c-2.26.53-5.63,1-6.43-.58-1.21-2.44-9.14-6.71-12.8-3.66s-9.75,3-11.58,7.31-3.66,13.42-4.88,14-5.49,0-5.49-1.83,1.22-6.71-1.83-7.93-6.7-1.83-7.31,1.22.61,12.8.61,14.63.61,8.54,0,10.37-1.83,8.53-1.22,9.14,1.22,4.27,4.27,4.27,4.87-.61,6.09-2.44,3-6.7,2.44-7.92" style="fill: #ffec00;stroke: #000;stroke-miterlimit: 10;stroke-width: 3px"/>
      <path d="M1400.24,810.89s1.22,11.59,0,14a6,6,0,0,1-3,3.05l1.83,11s1.22,1.22-1.83,2.44l-3,1.22v5.49l-1.82,1.82-1.83,3.66V856s0,1.22-3.66,1.83-9.76,1.22-9.76,1.22v6.71c0,1.22-.61,2.44,1.22,3.65L1391.1,878c1.83,1.22,5.48,5.49,7.92,9.76s7.32,14,7.93,17.07-4.27,22.56-4.88,25.6-1.22,15.25,0,19.51,7.32,17.08,9.76,19.51,12.19,11.59,14,12.81,12.8,2.44,13.41,4.27a11.58,11.58,0,0,0,2.44,3.65l9.15,1.22v4.88l7.92,1.83V1003l3,13.41v12.19H1328.3v-26.21s-3-9.76-3.66-11.59-5.49-18.9-6.1-22-3.66-20.12-3.66-23.16V884.06s1.22-6.71,3.66-9.15,8.54-7.31,11-7.92,6.09-.61,8.53-2.44,4.27-6.71,4.88-7.93,1.22-7.92,1.22-7.92" style="fill: #ffec00;stroke: #000;stroke-miterlimit: 10;stroke-width: 3px"/>
      <path d="M1377.07,822.48s7.32-3.66,10.37-4.27,5.49,3,5.49,3" style="fill: #ffec00;stroke: #000;stroke-miterlimit: 10;stroke-width: 3px"/>
      <path d="M1382,824.31s4.27,4.27,6.1,3.05a6.16,6.16,0,0,1,3-1.22" style="fill: #ffec00;stroke: #000;stroke-miterlimit: 10;stroke-width: 3px"/>
      <line x1="1389.27" y1="841.38" x2="1394.14" y2="842.6" style="fill: #ffec00;stroke: #000;stroke-miterlimit: 10;stroke-width: 3px"/>
      <path d="M1370.37,742s-9.15,17.68-9.15,20.73v9.69l19.51.06V762.12S1373.41,744.44,1370.37,742Z" style="fill: #ffec00;stroke: #000;stroke-miterlimit: 10;stroke-width: 3px"/>
      <path d="M1346.59,894.42s.61,66.46,0,68.29,37.19,17.68,42.68,19.51,28,8.53,33.53,9.14" style="fill: #ffec00;stroke: #000;stroke-miterlimit: 10;stroke-width: 3px"/>
      <path d="M1391.1,878.57s-3,13.41-14,18.9-30.37,11-30.37,11" style="fill: #ffec00;stroke: #000;stroke-miterlimit: 10;stroke-width: 3px"/>
      <path d="M1389.27,892s11.58,9.15,12.8,11.59,4.25,7.28,4.25,7.28" style="fill: #ffec00;stroke: #000;stroke-miterlimit: 10;stroke-width: 3px"/>
      <path d="M1389.27,901.13s.61,20.12-8.54,29.26" style="fill: #ffec00;stroke: #000;stroke-miterlimit: 10;stroke-width: 3px"/>
      <path d="M1379.51,901.13s-18.9,12.8-28,14.63" style="fill: #ffec00;stroke: #000;stroke-miterlimit: 10;stroke-width: 3px"/>
    </g>
    <g>
      <rect x="702.99" y="978.84" width="430.84" height="49.69" style="fill: #6cd803;stroke: #000;stroke-miterlimit: 10;stroke-width: 3px"/>
      <path d="M808.9,825.2v0Z" style="fill: none;stroke: #000;stroke-miterlimit: 10;stroke-width: 3px"/>
      <polygon points="1094.59 813.68 1094.59 756.15 736.33 756.15 736.33 977.78 968.42 977.78 968.42 824.15 1037.06 824.15 1037.06 977.78 1119.44 977.78 1119.44 813.68 1094.59 813.68" style="fill: none;stroke: #000;stroke-miterlimit: 10;stroke-width: 3px"/>
      <polyline points="808.9 826.26 885.39 826.26 885.39 979.9" style="fill: none;stroke: #000;stroke-miterlimit: 10;stroke-width: 3px"/>
      <line x1="1029.87" y1="765.06" x2="1029.87" y2="812.78" style="fill: none;stroke: #000;stroke-miterlimit: 10;stroke-width: 9px"/>
      <circle cx="1071.71" cy="795.78" r="6.86" style="fill: none;stroke: #000;stroke-miterlimit: 10;stroke-width: 3px"/>
      <line x1="1078.58" y1="818.34" x2="1121.07" y2="818.34" style="fill: none;stroke: #000;stroke-miterlimit: 10;stroke-width: 9px"/>
      <g>
        <line x1="738.25" y1="756.23" x2="738.25" y2="759.23" style="fill: none;stroke: #000;stroke-miterlimit: 10;stroke-width: 3px"/>
        <line x1="738.25" y1="765.28" x2="738.25" y2="967.91" style="fill: none;stroke: #000;stroke-miterlimit: 10;stroke-width: 3px;stroke-dasharray: 6.048741340637207,6.048741340637207"/>
        <line x1="738.25" y1="970.94" x2="738.25" y2="973.94" style="fill: none;stroke: #000;stroke-miterlimit: 10;stroke-width: 3px"/>
      </g>
      <g>
        <line x1="746.39" y1="756.23" x2="746.39" y2="759.23" style="fill: none;stroke: #000;stroke-miterlimit: 10;stroke-width: 3px"/>
        <line x1="746.39" y1="765.28" x2="746.39" y2="967.91" style="fill: none;stroke: #000;stroke-miterlimit: 10;stroke-width: 3px;stroke-dasharray: 6.048741340637207,6.048741340637207"/>
        <line x1="746.39" y1="970.94" x2="746.39" y2="973.94" style="fill: none;stroke: #000;stroke-miterlimit: 10;stroke-width: 3px"/>
      </g>
      <g>
        <line x1="754.52" y1="756.23" x2="754.52" y2="759.23" style="fill: none;stroke: #000;stroke-miterlimit: 10;stroke-width: 3px"/>
        <line x1="754.52" y1="765.28" x2="754.52" y2="967.91" style="fill: none;stroke: #000;stroke-miterlimit: 10;stroke-width: 3px;stroke-dasharray: 6.048741340637207,6.048741340637207"/>
        <line x1="754.52" y1="970.94" x2="754.52" y2="973.94" style="fill: none;stroke: #000;stroke-miterlimit: 10;stroke-width: 3px"/>
      </g>
      <g>
        <line x1="762.66" y1="756.23" x2="762.66" y2="759.23" style="fill: none;stroke: #000;stroke-miterlimit: 10;stroke-width: 3px"/>
        <line x1="762.66" y1="765.28" x2="762.66" y2="967.91" style="fill: none;stroke: #000;stroke-miterlimit: 10;stroke-width: 3px;stroke-dasharray: 6.048741340637207,6.048741340637207"/>
        <line x1="762.66" y1="970.94" x2="762.66" y2="973.94" style="fill: none;stroke: #000;stroke-miterlimit: 10;stroke-width: 3px"/>
      </g>
      <g>
        <line x1="770.8" y1="756.23" x2="770.8" y2="759.23" style="fill: none;stroke: #000;stroke-miterlimit: 10;stroke-width: 3px"/>
        <line x1="770.8" y1="765.28" x2="770.8" y2="967.91" style="fill: none;stroke: #000;stroke-miterlimit: 10;stroke-width: 3px;stroke-dasharray: 6.048741340637207,6.048741340637207"/>
        <line x1="770.8" y1="970.94" x2="770.8" y2="973.94" style="fill: none;stroke: #000;stroke-miterlimit: 10;stroke-width: 3px"/>
      </g>
      <g>
        <line x1="778.93" y1="756.23" x2="778.93" y2="759.23" style="fill: none;stroke: #000;stroke-miterlimit: 10;stroke-width: 3px"/>
        <line x1="778.93" y1="765.28" x2="778.93" y2="967.91" style="fill: none;stroke: #000;stroke-miterlimit: 10;stroke-width: 3px;stroke-dasharray: 6.048741340637207,6.048741340637207"/>
        <line x1="778.93" y1="970.94" x2="778.93" y2="973.94" style="fill: none;stroke: #000;stroke-miterlimit: 10;stroke-width: 3px"/>
      </g>
      <g>
        <line x1="787.07" y1="756.23" x2="787.07" y2="759.23" style="fill: none;stroke: #000;stroke-miterlimit: 10;stroke-width: 3px"/>
        <line x1="787.07" y1="765.28" x2="787.07" y2="967.91" style="fill: none;stroke: #000;stroke-miterlimit: 10;stroke-width: 3px;stroke-dasharray: 6.048741340637207,6.048741340637207"/>
        <line x1="787.07" y1="970.94" x2="787.07" y2="973.94" style="fill: none;stroke: #000;stroke-miterlimit: 10;stroke-width: 3px"/>
      </g>
      <g>
        <line x1="795.2" y1="756.23" x2="795.2" y2="759.23" style="fill: none;stroke: #000;stroke-miterlimit: 10;stroke-width: 3px"/>
        <line x1="795.2" y1="765.28" x2="795.2" y2="967.91" style="fill: none;stroke: #000;stroke-miterlimit: 10;stroke-width: 3px;stroke-dasharray: 6.048741340637207,6.048741340637207"/>
        <line x1="795.2" y1="970.94" x2="795.2" y2="973.94" style="fill: none;stroke: #000;stroke-miterlimit: 10;stroke-width: 3px"/>
      </g>
      <g>
        <line x1="803.34" y1="756.23" x2="803.34" y2="759.23" style="fill: none;stroke: #000;stroke-miterlimit: 10;stroke-width: 3px"/>
        <line x1="803.34" y1="765.28" x2="803.34" y2="967.91" style="fill: none;stroke: #000;stroke-miterlimit: 10;stroke-width: 3px;stroke-dasharray: 6.048741340637207,6.048741340637207"/>
        <line x1="803.34" y1="970.94" x2="803.34" y2="973.94" style="fill: none;stroke: #000;stroke-miterlimit: 10;stroke-width: 3px"/>
      </g>
      <g>
        <g>
          <line x1="890.29" y1="756.23" x2="890.29" y2="759.23" style="fill: none;stroke: #000;stroke-miterlimit: 10;stroke-width: 3px"/>
          <line x1="890.29" y1="765.34" x2="890.29" y2="969.85" style="fill: none;stroke: #000;stroke-miterlimit: 10;stroke-width: 3px;stroke-dasharray: 6.104779243469238,6.104779243469238"/>
          <line x1="890.29" y1="972.9" x2="890.29" y2="975.9" style="fill: none;stroke: #000;stroke-miterlimit: 10;stroke-width: 3px"/>
        </g>
        <g>
          <line x1="898.43" y1="756.23" x2="898.43" y2="759.23" style="fill: none;stroke: #000;stroke-miterlimit: 10;stroke-width: 3px"/>
          <line x1="898.43" y1="765.34" x2="898.43" y2="969.85" style="fill: none;stroke: #000;stroke-miterlimit: 10;stroke-width: 3px;stroke-dasharray: 6.104779243469238,6.104779243469238"/>
          <line x1="898.43" y1="972.9" x2="898.43" y2="975.9" style="fill: none;stroke: #000;stroke-miterlimit: 10;stroke-width: 3px"/>
        </g>
        <g>
          <line x1="906.56" y1="756.23" x2="906.56" y2="759.23" style="fill: none;stroke: #000;stroke-miterlimit: 10;stroke-width: 3px"/>
          <line x1="906.56" y1="765.34" x2="906.56" y2="969.85" style="fill: none;stroke: #000;stroke-miterlimit: 10;stroke-width: 3px;stroke-dasharray: 6.104779243469238,6.104779243469238"/>
          <line x1="906.56" y1="972.9" x2="906.56" y2="975.9" style="fill: none;stroke: #000;stroke-miterlimit: 10;stroke-width: 3px"/>
        </g>
        <g>
          <line x1="914.7" y1="756.23" x2="914.7" y2="759.23" style="fill: none;stroke: #000;stroke-miterlimit: 10;stroke-width: 3px"/>
          <line x1="914.7" y1="765.34" x2="914.7" y2="969.85" style="fill: none;stroke: #000;stroke-miterlimit: 10;stroke-width: 3px;stroke-dasharray: 6.104779243469238,6.104779243469238"/>
          <line x1="914.7" y1="972.9" x2="914.7" y2="975.9" style="fill: none;stroke: #000;stroke-miterlimit: 10;stroke-width: 3px"/>
        </g>
        <g>
          <line x1="922.83" y1="756.23" x2="922.83" y2="759.23" style="fill: none;stroke: #000;stroke-miterlimit: 10;stroke-width: 3px"/>
          <line x1="922.83" y1="765.34" x2="922.83" y2="969.85" style="fill: none;stroke: #000;stroke-miterlimit: 10;stroke-width: 3px;stroke-dasharray: 6.104779243469238,6.104779243469238"/>
          <line x1="922.83" y1="972.9" x2="922.83" y2="975.9" style="fill: none;stroke: #000;stroke-miterlimit: 10;stroke-width: 3px"/>
        </g>
        <g>
          <line x1="930.97" y1="756.23" x2="930.97" y2="759.23" style="fill: none;stroke: #000;stroke-miterlimit: 10;stroke-width: 3px"/>
          <line x1="930.97" y1="765.34" x2="930.97" y2="969.85" style="fill: none;stroke: #000;stroke-miterlimit: 10;stroke-width: 3px;stroke-dasharray: 6.104779243469238,6.104779243469238"/>
          <line x1="930.97" y1="972.9" x2="930.97" y2="975.9" style="fill: none;stroke: #000;stroke-miterlimit: 10;stroke-width: 3px"/>
        </g>
        <g>
          <line x1="939.11" y1="756.23" x2="939.11" y2="759.23" style="fill: none;stroke: #000;stroke-miterlimit: 10;stroke-width: 3px"/>
          <line x1="939.11" y1="765.34" x2="939.11" y2="969.85" style="fill: none;stroke: #000;stroke-miterlimit: 10;stroke-width: 3px;stroke-dasharray: 6.104779243469238,6.104779243469238"/>
          <line x1="939.11" y1="972.9" x2="939.11" y2="975.9" style="fill: none;stroke: #000;stroke-miterlimit: 10;stroke-width: 3px"/>
        </g>
        <g>
          <line x1="947.24" y1="756.23" x2="947.24" y2="759.23" style="fill: none;stroke: #000;stroke-miterlimit: 10;stroke-width: 3px"/>
          <line x1="947.24" y1="765.34" x2="947.24" y2="969.85" style="fill: none;stroke: #000;stroke-miterlimit: 10;stroke-width: 3px;stroke-dasharray: 6.104779243469238,6.104779243469238"/>
          <line x1="947.24" y1="972.9" x2="947.24" y2="975.9" style="fill: none;stroke: #000;stroke-miterlimit: 10;stroke-width: 3px"/>
        </g>
        <g>
          <line x1="955.38" y1="756.23" x2="955.38" y2="759.23" style="fill: none;stroke: #000;stroke-miterlimit: 10;stroke-width: 3px"/>
          <line x1="955.38" y1="765.34" x2="955.38" y2="969.85" style="fill: none;stroke: #000;stroke-miterlimit: 10;stroke-width: 3px;stroke-dasharray: 6.104779243469238,6.104779243469238"/>
          <line x1="955.38" y1="972.9" x2="955.38" y2="975.9" style="fill: none;stroke: #000;stroke-miterlimit: 10;stroke-width: 3px"/>
        </g>
        <g>
          <line x1="963.51" y1="756.23" x2="963.51" y2="759.23" style="fill: none;stroke: #000;stroke-miterlimit: 10;stroke-width: 3px"/>
          <line x1="963.51" y1="765.34" x2="963.51" y2="969.85" style="fill: none;stroke: #000;stroke-miterlimit: 10;stroke-width: 3px;stroke-dasharray: 6.104779243469238,6.104779243469238"/>
          <line x1="963.51" y1="972.9" x2="963.51" y2="975.9" style="fill: none;stroke: #000;stroke-miterlimit: 10;stroke-width: 3px"/>
        </g>
      </g>
      <g>
        <g>
          <line x1="810.53" y1="762.11" x2="810.53" y2="765.11" style="fill: none;stroke: #000;stroke-miterlimit: 10;stroke-width: 3px"/>
          <line x1="810.53" y1="771.57" x2="810.53" y2="819.96" style="fill: none;stroke: #000;stroke-miterlimit: 10;stroke-width: 3px;stroke-dasharray: 6.452179908752441,6.452179908752441"/>
          <line x1="810.53" y1="823.18" x2="810.53" y2="826.18" style="fill: none;stroke: #000;stroke-miterlimit: 10;stroke-width: 3px"/>
        </g>
        <g>
          <line x1="818.67" y1="762.11" x2="818.67" y2="765.11" style="fill: none;stroke: #000;stroke-miterlimit: 10;stroke-width: 3px"/>
          <line x1="818.67" y1="771.57" x2="818.67" y2="819.96" style="fill: none;stroke: #000;stroke-miterlimit: 10;stroke-width: 3px;stroke-dasharray: 6.452179908752441,6.452179908752441"/>
          <line x1="818.67" y1="823.18" x2="818.67" y2="826.18" style="fill: none;stroke: #000;stroke-miterlimit: 10;stroke-width: 3px"/>
        </g>
        <g>
          <line x1="826.8" y1="762.11" x2="826.8" y2="765.11" style="fill: none;stroke: #000;stroke-miterlimit: 10;stroke-width: 3px"/>
          <line x1="826.8" y1="771.57" x2="826.8" y2="819.96" style="fill: none;stroke: #000;stroke-miterlimit: 10;stroke-width: 3px;stroke-dasharray: 6.452179908752441,6.452179908752441"/>
          <line x1="826.8" y1="823.18" x2="826.8" y2="826.18" style="fill: none;stroke: #000;stroke-miterlimit: 10;stroke-width: 3px"/>
        </g>
        <g>
          <line x1="834.94" y1="762.11" x2="834.94" y2="765.11" style="fill: none;stroke: #000;stroke-miterlimit: 10;stroke-width: 3px"/>
          <line x1="834.94" y1="771.57" x2="834.94" y2="819.96" style="fill: none;stroke: #000;stroke-miterlimit: 10;stroke-width: 3px;stroke-dasharray: 6.452179908752441,6.452179908752441"/>
          <line x1="834.94" y1="823.18" x2="834.94" y2="826.18" style="fill: none;stroke: #000;stroke-miterlimit: 10;stroke-width: 3px"/>
        </g>
        <g>
          <line x1="843.07" y1="762.11" x2="843.07" y2="765.11" style="fill: none;stroke: #000;stroke-miterlimit: 10;stroke-width: 3px"/>
          <line x1="843.07" y1="771.57" x2="843.07" y2="819.96" style="fill: none;stroke: #000;stroke-miterlimit: 10;stroke-width: 3px;stroke-dasharray: 6.452179908752441,6.452179908752441"/>
          <line x1="843.07" y1="823.18" x2="843.07" y2="826.18" style="fill: none;stroke: #000;stroke-miterlimit: 10;stroke-width: 3px"/>
        </g>
        <g>
          <line x1="851.21" y1="762.11" x2="851.21" y2="765.11" style="fill: none;stroke: #000;stroke-miterlimit: 10;stroke-width: 3px"/>
          <line x1="851.21" y1="771.57" x2="851.21" y2="819.96" style="fill: none;stroke: #000;stroke-miterlimit: 10;stroke-width: 3px;stroke-dasharray: 6.452179908752441,6.452179908752441"/>
          <line x1="851.21" y1="823.18" x2="851.21" y2="826.18" style="fill: none;stroke: #000;stroke-miterlimit: 10;stroke-width: 3px"/>
        </g>
        <g>
          <line x1="859.35" y1="762.11" x2="859.35" y2="765.11" style="fill: none;stroke: #000;stroke-miterlimit: 10;stroke-width: 3px"/>
          <line x1="859.35" y1="771.57" x2="859.35" y2="819.96" style="fill: none;stroke: #000;stroke-miterlimit: 10;stroke-width: 3px;stroke-dasharray: 6.452179908752441,6.452179908752441"/>
          <line x1="859.35" y1="823.18" x2="859.35" y2="826.18" style="fill: none;stroke: #000;stroke-miterlimit: 10;stroke-width: 3px"/>
        </g>
        <g>
          <line x1="867.48" y1="762.11" x2="867.48" y2="765.11" style="fill: none;stroke: #000;stroke-miterlimit: 10;stroke-width: 3px"/>
          <line x1="867.48" y1="771.57" x2="867.48" y2="819.96" style="fill: none;stroke: #000;stroke-miterlimit: 10;stroke-width: 3px;stroke-dasharray: 6.452179908752441,6.452179908752441"/>
          <line x1="867.48" y1="823.18" x2="867.48" y2="826.18" style="fill: none;stroke: #000;stroke-miterlimit: 10;stroke-width: 3px"/>
        </g>
        <g>
          <line x1="875.62" y1="762.11" x2="875.62" y2="765.11" style="fill: none;stroke: #000;stroke-miterlimit: 10;stroke-width: 3px"/>
          <line x1="875.62" y1="771.57" x2="875.62" y2="819.96" style="fill: none;stroke: #000;stroke-miterlimit: 10;stroke-width: 3px;stroke-dasharray: 6.452179908752441,6.452179908752441"/>
          <line x1="875.62" y1="823.18" x2="875.62" y2="826.18" style="fill: none;stroke: #000;stroke-miterlimit: 10;stroke-width: 3px"/>
        </g>
        <g>
          <line x1="883.75" y1="762.11" x2="883.75" y2="765.11" style="fill: none;stroke: #000;stroke-miterlimit: 10;stroke-width: 3px"/>
          <line x1="883.75" y1="771.57" x2="883.75" y2="819.96" style="fill: none;stroke: #000;stroke-miterlimit: 10;stroke-width: 3px;stroke-dasharray: 6.452179908752441,6.452179908752441"/>
          <line x1="883.75" y1="823.18" x2="883.75" y2="826.18" style="fill: none;stroke: #000;stroke-miterlimit: 10;stroke-width: 3px"/>
        </g>
      </g>
      <g>
        <g>
          <line x1="971.36" y1="762.11" x2="971.36" y2="765.11" style="fill: none;stroke: #000;stroke-miterlimit: 10;stroke-width: 3px"/>
          <line x1="971.36" y1="771.2" x2="971.36" y2="816.87" style="fill: none;stroke: #000;stroke-miterlimit: 10;stroke-width: 3px;stroke-dasharray: 6.088973522186279,6.088973522186279"/>
          <line x1="971.36" y1="819.91" x2="971.36" y2="822.91" style="fill: none;stroke: #000;stroke-miterlimit: 10;stroke-width: 3px"/>
        </g>
        <g>
          <line x1="979.49" y1="762.11" x2="979.49" y2="765.11" style="fill: none;stroke: #000;stroke-miterlimit: 10;stroke-width: 3px"/>
          <line x1="979.49" y1="771.2" x2="979.49" y2="816.87" style="fill: none;stroke: #000;stroke-miterlimit: 10;stroke-width: 3px;stroke-dasharray: 6.088973522186279,6.088973522186279"/>
          <line x1="979.49" y1="819.91" x2="979.49" y2="822.91" style="fill: none;stroke: #000;stroke-miterlimit: 10;stroke-width: 3px"/>
        </g>
        <g>
          <line x1="987.63" y1="762.11" x2="987.63" y2="765.11" style="fill: none;stroke: #000;stroke-miterlimit: 10;stroke-width: 3px"/>
          <line x1="987.63" y1="771.2" x2="987.63" y2="816.87" style="fill: none;stroke: #000;stroke-miterlimit: 10;stroke-width: 3px;stroke-dasharray: 6.088973522186279,6.088973522186279"/>
          <line x1="987.63" y1="819.91" x2="987.63" y2="822.91" style="fill: none;stroke: #000;stroke-miterlimit: 10;stroke-width: 3px"/>
        </g>
        <g>
          <line x1="995.77" y1="762.11" x2="995.77" y2="765.11" style="fill: none;stroke: #000;stroke-miterlimit: 10;stroke-width: 3px"/>
          <line x1="995.77" y1="771.2" x2="995.77" y2="816.87" style="fill: none;stroke: #000;stroke-miterlimit: 10;stroke-width: 3px;stroke-dasharray: 6.088973522186279,6.088973522186279"/>
          <line x1="995.77" y1="819.91" x2="995.77" y2="822.91" style="fill: none;stroke: #000;stroke-miterlimit: 10;stroke-width: 3px"/>
        </g>
        <g>
          <line x1="1003.9" y1="762.11" x2="1003.9" y2="765.11" style="fill: none;stroke: #000;stroke-miterlimit: 10;stroke-width: 3px"/>
          <line x1="1003.9" y1="771.2" x2="1003.9" y2="816.87" style="fill: none;stroke: #000;stroke-miterlimit: 10;stroke-width: 3px;stroke-dasharray: 6.088973522186279,6.088973522186279"/>
          <line x1="1003.9" y1="819.91" x2="1003.9" y2="822.91" style="fill: none;stroke: #000;stroke-miterlimit: 10;stroke-width: 3px"/>
        </g>
        <g>
          <line x1="1012.04" y1="762.11" x2="1012.04" y2="765.11" style="fill: none;stroke: #000;stroke-miterlimit: 10;stroke-width: 3px"/>
          <line x1="1012.04" y1="771.2" x2="1012.04" y2="816.87" style="fill: none;stroke: #000;stroke-miterlimit: 10;stroke-width: 3px;stroke-dasharray: 6.088973522186279,6.088973522186279"/>
          <line x1="1012.04" y1="819.91" x2="1012.04" y2="822.91" style="fill: none;stroke: #000;stroke-miterlimit: 10;stroke-width: 3px"/>
        </g>
        <g>
          <line x1="1020.17" y1="762.11" x2="1020.17" y2="765.11" style="fill: none;stroke: #000;stroke-miterlimit: 10;stroke-width: 3px"/>
          <line x1="1020.17" y1="771.2" x2="1020.17" y2="816.87" style="fill: none;stroke: #000;stroke-miterlimit: 10;stroke-width: 3px;stroke-dasharray: 6.088973522186279,6.088973522186279"/>
          <line x1="1020.17" y1="819.91" x2="1020.17" y2="822.91" style="fill: none;stroke: #000;stroke-miterlimit: 10;stroke-width: 3px"/>
        </g>
      </g>
      <g>
        <line x1="1041.38" y1="756.23" x2="1041.38" y2="759.23" style="fill: none;stroke: #000;stroke-miterlimit: 10;stroke-width: 3px"/>
        <line x1="1041.38" y1="765.34" x2="1041.38" y2="969.85" style="fill: none;stroke: #000;stroke-miterlimit: 10;stroke-width: 3px;stroke-dasharray: 6.104779243469238,6.104779243469238"/>
        <line x1="1041.38" y1="972.9" x2="1041.38" y2="975.9" style="fill: none;stroke: #000;stroke-miterlimit: 10;stroke-width: 3px"/>
      </g>
      <g>
        <line x1="1049.52" y1="756.23" x2="1049.52" y2="759.23" style="fill: none;stroke: #000;stroke-miterlimit: 10;stroke-width: 3px"/>
        <line x1="1049.52" y1="765.34" x2="1049.52" y2="969.85" style="fill: none;stroke: #000;stroke-miterlimit: 10;stroke-width: 3px;stroke-dasharray: 6.104779243469238,6.104779243469238"/>
        <line x1="1049.52" y1="972.9" x2="1049.52" y2="975.9" style="fill: none;stroke: #000;stroke-miterlimit: 10;stroke-width: 3px"/>
      </g>
      <g>
        <line x1="1057.66" y1="756.23" x2="1057.66" y2="759.23" style="fill: none;stroke: #000;stroke-miterlimit: 10;stroke-width: 3px"/>
        <line x1="1057.66" y1="765.34" x2="1057.66" y2="969.85" style="fill: none;stroke: #000;stroke-miterlimit: 10;stroke-width: 3px;stroke-dasharray: 6.104779243469238,6.104779243469238"/>
        <line x1="1057.66" y1="972.9" x2="1057.66" y2="975.9" style="fill: none;stroke: #000;stroke-miterlimit: 10;stroke-width: 3px"/>
      </g>
      <g>
        <line x1="1064.92" y1="809.19" x2="1064.92" y2="812.19" style="fill: none;stroke: #000;stroke-miterlimit: 10;stroke-width: 3px"/>
        <line x1="1064.92" y1="818.14" x2="1064.92" y2="969.92" style="fill: none;stroke: #000;stroke-miterlimit: 10;stroke-width: 3px;stroke-dasharray: 5.952287673950195,5.952287673950195"/>
        <line x1="1064.92" y1="972.9" x2="1064.92" y2="975.9" style="fill: none;stroke: #000;stroke-miterlimit: 10;stroke-width: 3px"/>
      </g>
      <g>
        <line x1="1073.06" y1="809.19" x2="1073.06" y2="812.19" style="fill: none;stroke: #000;stroke-miterlimit: 10;stroke-width: 3px"/>
        <line x1="1073.06" y1="818.14" x2="1073.06" y2="969.92" style="fill: none;stroke: #000;stroke-miterlimit: 10;stroke-width: 3px;stroke-dasharray: 5.952287673950195,5.952287673950195"/>
        <line x1="1073.06" y1="972.9" x2="1073.06" y2="975.9" style="fill: none;stroke: #000;stroke-miterlimit: 10;stroke-width: 3px"/>
      </g>
      <g>
        <line x1="1081.19" y1="809.19" x2="1081.19" y2="812.19" style="fill: none;stroke: #000;stroke-miterlimit: 10;stroke-width: 3px"/>
        <line x1="1081.19" y1="818.14" x2="1081.19" y2="969.92" style="fill: none;stroke: #000;stroke-miterlimit: 10;stroke-width: 3px;stroke-dasharray: 5.952287673950195,5.952287673950195"/>
        <line x1="1081.19" y1="972.9" x2="1081.19" y2="975.9" style="fill: none;stroke: #000;stroke-miterlimit: 10;stroke-width: 3px"/>
      </g>
      <g>
        <line x1="1089.04" y1="756.23" x2="1089.04" y2="759.23" style="fill: none;stroke: #000;stroke-miterlimit: 10;stroke-width: 3px"/>
        <line x1="1089.04" y1="765.34" x2="1089.04" y2="969.85" style="fill: none;stroke: #000;stroke-miterlimit: 10;stroke-width: 3px;stroke-dasharray: 6.104779243469238,6.104779243469238"/>
        <line x1="1089.04" y1="972.9" x2="1089.04" y2="975.9" style="fill: none;stroke: #000;stroke-miterlimit: 10;stroke-width: 3px"/>
      </g>
      <g>
        <line x1="1096.3" y1="818.34" x2="1096.3" y2="821.34" style="fill: none;stroke: #000;stroke-miterlimit: 10;stroke-width: 3px"/>
        <line x1="1096.3" y1="827.48" x2="1096.3" y2="971.79" style="fill: none;stroke: #000;stroke-miterlimit: 10;stroke-width: 3px;stroke-dasharray: 6.140810966491699,6.140810966491699"/>
        <line x1="1096.3" y1="974.86" x2="1096.3" y2="977.86" style="fill: none;stroke: #000;stroke-miterlimit: 10;stroke-width: 3px"/>
      </g>
      <g>
        <line x1="1104.44" y1="818.34" x2="1104.44" y2="821.34" style="fill: none;stroke: #000;stroke-miterlimit: 10;stroke-width: 3px"/>
        <line x1="1104.44" y1="827.48" x2="1104.44" y2="971.79" style="fill: none;stroke: #000;stroke-miterlimit: 10;stroke-width: 3px;stroke-dasharray: 6.140810966491699,6.140810966491699"/>
        <line x1="1104.44" y1="974.86" x2="1104.44" y2="977.86" style="fill: none;stroke: #000;stroke-miterlimit: 10;stroke-width: 3px"/>
      </g>
      <g>
        <line x1="1112.57" y1="818.34" x2="1112.57" y2="821.34" style="fill: none;stroke: #000;stroke-miterlimit: 10;stroke-width: 3px"/>
        <line x1="1112.57" y1="827.48" x2="1112.57" y2="971.79" style="fill: none;stroke: #000;stroke-miterlimit: 10;stroke-width: 3px;stroke-dasharray: 6.140810966491699,6.140810966491699"/>
        <line x1="1112.57" y1="974.86" x2="1112.57" y2="977.86" style="fill: none;stroke: #000;stroke-miterlimit: 10;stroke-width: 3px"/>
      </g>
      <g>
        <line x1="1080.54" y1="762.11" x2="1080.54" y2="765.11" style="fill: none;stroke: #000;stroke-miterlimit: 10;stroke-width: 3px"/>
        <line x1="1080.54" y1="770.96" x2="1080.54" y2="779.73" style="fill: none;stroke: #000;stroke-miterlimit: 10;stroke-width: 3px;stroke-dasharray: 5.845259666442871,5.845259666442871"/>
        <line x1="1080.54" y1="782.65" x2="1080.54" y2="785.65" style="fill: none;stroke: #000;stroke-miterlimit: 10;stroke-width: 3px"/>
      </g>
      <g>
        <line x1="1073.35" y1="762.11" x2="1073.35" y2="765.11" style="fill: none;stroke: #000;stroke-miterlimit: 10;stroke-width: 3px"/>
        <line x1="1073.35" y1="770.96" x2="1073.35" y2="779.73" style="fill: none;stroke: #000;stroke-miterlimit: 10;stroke-width: 3px;stroke-dasharray: 5.845259666442871,5.845259666442871"/>
        <line x1="1073.35" y1="782.65" x2="1073.35" y2="785.65" style="fill: none;stroke: #000;stroke-miterlimit: 10;stroke-width: 3px"/>
      </g>
      <g>
        <line x1="1065.5" y1="762.11" x2="1065.5" y2="765.11" style="fill: none;stroke: #000;stroke-miterlimit: 10;stroke-width: 3px"/>
        <line x1="1065.5" y1="770.96" x2="1065.5" y2="779.73" style="fill: none;stroke: #000;stroke-miterlimit: 10;stroke-width: 3px;stroke-dasharray: 5.845259666442871,5.845259666442871"/>
        <line x1="1065.5" y1="782.65" x2="1065.5" y2="785.65" style="fill: none;stroke: #000;stroke-miterlimit: 10;stroke-width: 3px"/>
      </g>
      <rect x="1039.35" y="988.97" width="7.85" height="29.42" style="fill: none;stroke: #000;stroke-miterlimit: 10;stroke-width: 3px"/>
      <rect x="1056.84" y="988.97" width="7.85" height="29.42" style="fill: none;stroke: #000;stroke-miterlimit: 10;stroke-width: 3px"/>
      <rect x="1074.33" y="988.97" width="7.85" height="29.42" style="fill: none;stroke: #000;stroke-miterlimit: 10;stroke-width: 3px"/>
    </g>
    <g>
      <path d="M135.82,1009.55s-9,1-11-1-4-8-4-8l-4-19-4-20s-5-1-6-2-2-4-2-4-2-2-2-3v-14s1-1,5-2,6,0,6,0l13-25,9-16,3,1,6,1-12,42Z" style="fill: #ff7bac;stroke: #000;stroke-miterlimit: 10;stroke-width: 3px"/>
      <path d="M112.82,958.55v-6a75.68,75.68,0,0,1,2-16,29.54,29.54,0,0,0,6,3c3,1,11,0,11,0" style="fill: #fcee21;stroke: #000;stroke-miterlimit: 10;stroke-width: 3px"/>
      <path d="M113.37,989.82s-7.47-14.71-11.8-17.9-16.93-6.46-17.89-6.71c0,0,6.84-6.49,11.93-6.2s12.88-1.83,12.88-1.83" style="fill: blue;stroke: #000;stroke-miterlimit: 10;stroke-width: 3px"/>
      <path d="M105.82,973.55l-6,15a20,20,0,0,0,1.87,1.61c1.32,1,3,2,4.13,1.39,2-1,6-12,6-12" style="fill: #00ff12;stroke: #000;stroke-miterlimit: 10;stroke-width: 3px"/>
      <polygon points="95.82 1006.55 101.82 990.55 105.82 991.55 99.82 1008.55 95.82 1006.55" style="fill: #00ff12;stroke: #000;stroke-miterlimit: 10;stroke-width: 3px"/>
      <circle cx="100.32" cy="1006.05" r="13.5" style="fill: #00ff12;stroke: #000;stroke-miterlimit: 10;stroke-width: 3px"/>
      <circle cx="100.57" cy="1005.8" r="17.75" style="fill: #fcee21;stroke: #000;stroke-miterlimit: 10;stroke-width: 12px"/>
      <path d="M122.32,879.05s4,10,6,12,15,5,23,5,44-3,54-2c2.87.29,7.38.58,12.36.84,12.38.66,27.64,1.16,27.64,1.16l112-3a38.72,38.72,0,0,0,3-10c1-6,2-12,0-16s-6-5-11-6-134,9-134,9l-69,8-3-13s0-5-5-4-2,13-2,13v5Z" style="fill: #ccc;stroke: #000;stroke-miterlimit: 10;stroke-width: 3px"/>
      <line x1="217.82" y1="966.05" x2="217.82" y2="895.55" style="fill: #00ff12;stroke: #000;stroke-miterlimit: 10;stroke-width: 3px"/>
      <path d="M228.82,965.55v25h28s14-10,17-15a35.19,35.19,0,0,0,4-10h75v22h4v15h-31s0-8-23-11-30,8-30,8-6-1-9-3-8,6-8,6l-3,17-33-5h-82l-2-5V985.92l81-.37,1-20Z" style="fill: #ff7bac;stroke: #000;stroke-miterlimit: 10;stroke-width: 3px"/>
      <line x1="351.82" y1="893.55" x2="351.82" y2="965.55" style="fill: #00ff12;stroke: #000;stroke-miterlimit: 10;stroke-width: 3px"/>
      <polyline points="154.32 936.05 140.32 929.05 136.39 927.06" style="fill: #00ff12;stroke: #000;stroke-miterlimit: 10;stroke-width: 3px"/>
      <polyline points="133.44 954.01 144.82 955.55 160.82 962.55 173.82 965.55 177.82 965.55 184.82 964.55 207.82 964.55 217.82 965.55" style="fill: none;stroke: #000;stroke-miterlimit: 10;stroke-width: 3px"/>
      <polyline points="156.82 952.55 171.82 961.55 171.82 965.09" style="fill: #00ff12;stroke: #000;stroke-miterlimit: 10;stroke-width: 3px"/>
      <path d="M351.82,945.55h-65s-9,2-8,7,6,9,12,9h61" style="fill: blue;stroke: #000;stroke-miterlimit: 10;stroke-width: 3px"/>
      <circle cx="293.8" cy="1010.08" r="9.02" style="fill: #00ff12;stroke: #000;stroke-miterlimit: 10;stroke-width: 3px"/>
      <circle cx="297.32" cy="1002.05" r="22" style="fill: #fcee21;stroke: #000;stroke-miterlimit: 10;stroke-width: 12px"/>
    </g>
    <g>
      <polygon points="267.94 853.39 271.12 853.19 271.12 795.99 299.61 795.99 299.61 851.35 302.79 851.14 302.79 792.82 267.94 792.82 267.94 853.39"/>
      <path d="M228.7,855.92V655.18L240,637.08V431.23h9.05V395.61h60.17v.56h9V632.49l.69,1.31h-1.25V850.18l3.17-.2V637.44L329.59,654V795.42h14.7v53.05l3.17-.21v-56h-14.7v-139l-11.31-21.49V393H312.4V368.12H282.81v-25H280.2V317.68h-2.11v25.44h-3.74v25H245.89v59.94h-9V636.17l-11.31,18.1V856.13Zm20.36-484.63h60.17v21.14h-4.18V375.36h-3.18v17.07h-7V374.79H291.7v17.64h-8.14V375.36h-3.17v17.07h-7V374.79h-3.17v17.64h-5.88V375.36h-3.17v17.07h-7V374.79H251v17.64h-1.92Z"/>
      <path d="M250.27,430.89l-6.08,19.44V854.92l3.17-.2V450.81l5.24-16.75h8.56v26h10.29v183l-10.29,15.09V853.83l3.17-.21V659.17l15.38-22.56,15.38,22.56V791h3.17V658.19L288.57,644h1.77v-185h10.18V434.06h7.38l4.15,15.59v400.9l3.18-.21V449.23l-4.9-18.34h-13v24.88h-2.48V442.19l-4.53-7v-22.4H270.21v22.95l-4.53,6.41V456.9h-1.35v-26ZM273.38,416h13.79v14.33l-6.27-9.69-7.52,10.65Zm-4.53,27.2L273.2,437h.18v-.25l7.4-10.49,6.39,9.87v.16h.11l4.42,6.83v12.65h-4.53V641.93L279.71,631l-5.09,7.47V456.9h-5.77Z"/>
    </g>
  </g>  <g id="faceBody">
    <g>
      <path d="M693.5,673.33l-58-25s-49-20-57-45-15-140-15-140,12-157.4,12-171c0-15,8-38,21-42s32,26,39,46,13,33,13,33l7,37,3,52,10,3,43-12,50,4,47,8,17-52,28-65s31-49,38-46,13,29,13,29l3,56v35l3,48v101l-10,66s-53,59-84,67-45,20-45,25,9,20,9,20l8,35,68-7,56-15,24-116,20-58s14-10,22-8-2,48-15,73c-10.24,19.7-18,80-18,80l-17,52-66,14-63,14,53,283,23,105s-107,2-194-4c-8.23-.57-44-41-39-51s26-357,31-362,22-50,22-50Z" style="fill: #fff;stroke: #000;stroke-miterlimit: 10;stroke-width: 3px"/>
      <path d="M585,305.83s6-42,14-36,17,78.61,23,105c3.83,16.82,3,57,3,57s-7-3.5-21,2.5L575.84,446.4Z" style="fill: #f50"/>
      <path d="M846,433.83c-1-3,24-94,24-94s9.09-62.09,14-51.24,14.52,57.56,14.52,57.56-3,33.32-.06,39.33,3.65,72-.36,75S846,433.83,846,433.83Z" style="fill: #f50"/>
      <path d="M766,1154.56s-4.5-20.23,7.5-22.23,26,0,26,0,13-4,16-1,7,2,12-1-37-237-37-237" style="fill: none;stroke: #000;stroke-miterlimit: 10;stroke-width: 3px"/>
      <path d="M641.56,1131.29s-29.09,18.86-17.12,23.92,23,.11,25-.88,12-.95,12,.05,16.5-.63,16.5-.63S656.61,1119.36,641.56,1131.29Z" style="fill: #fff;stroke: #000;stroke-miterlimit: 10;stroke-width: 3px"/>
      <path d="M869.31,1124.92s19,5.9,46.19,7.41c36,2,149-15.3,144-9-8,10-29,11-85,21s-103.79-13.39-103.79-13.39Z" style="fill: #fff;stroke: #000;stroke-miterlimit: 10;stroke-width: 3px"/>
      <path d="M673.5,753.33s-21,7-24,11-6,21-6,21-7,33-8,35-16,110-18,113-13,32-15,38-12,20-14,26-32,77-32,77,0,12,7,10,70-137,70-152,10-52,10-55,7-72,7-72l19-13" style="fill: #fff;stroke: #000;stroke-miterlimit: 10;stroke-width: 3px"/>
    </g>
  </g>  <g id="bell">
    <path d="M690,713s27,14,46,13,46-18,46-18" style="fill: none;stroke: #ff4200;stroke-miterlimit: 10;stroke-width: 6px"/>
    <g>
      <path d="M717.66,769.85s-9.12,0-14.14-6.57-5-8.27-5-8.27l4.14-2.52L700.11,745s6.63-2.52,12.44-2.55a34,34,0,0,1,11.63,2.43s-.87-8.3.77-11.62,7.41-10.83,7.41-10.83l4.18,5,5-5s6.67,5.78,7.52,10.76,1.73,12.43,1.73,12.43,5.79-3.34,10.77-2.54,11.63,2.43,11.63,2.43l-1.63,6.65,5,2.46s-4.12,7.49-7.42,10-11.59,5-11.59,5,5,6.61,5.85,9.92.91,14.11.91,14.11l-6.64,0-.8,6.64s-10-1.61-12.47-4.08a91.61,91.61,0,0,1-6.68-8.27s-5,4.18-6.61,5.84-12.42,5-12.42,5l-.85-5-7.47,0s-1.7-8.29-.06-11.62S717.66,769.85,717.66,769.85Z" style="fill: #ffe6c5"/>
      <path d="M757.76,801.6l-1.11-.18c-1.06-.17-10.39-1.74-13.06-4.38a81.57,81.57,0,0,1-6.11-7.46c-1.49,1.27-4.47,3.83-5.65,5-1.75,1.77-11,4.73-12.87,5.31l-1.18.37-.91-5.29-7.44,0-.17-.87c-.19-.89-1.73-8.76,0-12.32,1.25-2.54,4.78-8.28,6.5-11.05-3.08-.35-9.22-1.71-13.13-6.87-4.85-6.4-5.24-8.45-5.24-8.92v-.61l3.91-2.38-2.58-7.62,1-.37a42.42,42.42,0,0,1,12.81-2.63h.11A33.27,33.27,0,0,1,723,743.31c-.16-2.7-.28-7.87,1-10.49,1.67-3.39,7.28-10.7,7.52-11l.82-1.07,4.28,5.08,4.83-4.88.77.67c.28.24,7,6.09,7.88,11.38.62,3.58,1.24,8.49,1.55,11,2.12-1,6.25-2.56,10-2,5,.8,11.65,2.43,11.72,2.45l1.05.26-1.68,6.85,5.23,2.58-.54,1c-.18.32-4.27,7.73-7.72,10.34-2.59,2-7.91,3.89-10.48,4.75,1.51,2.11,4.47,6.47,5.14,9.09.87,3.4.94,13.92.94,14.36v1.09l-6.76,0Zm-19.89-15.18.68,1a92,92,0,0,0,6.56,8.13c1.49,1.47,7,2.89,10.77,3.59l.77-6.46,6.51,0c0-2.8-.21-10.21-.86-12.76s-4.31-7.75-5.67-9.54l-.94-1.24,1.49-.45c.08,0,8.14-2.51,11.25-4.87,2.4-1.81,5.35-6.59,6.56-8.67l-4.73-2.34,1.57-6.43c-2.07-.48-6.78-1.56-10.49-2.16-4.55-.74-10,2.38-10.06,2.41l-1.43.83-.19-1.64c0-.07-.87-7.49-1.71-12.38-.62-3.59-4.72-7.81-6.42-9.43l-5.06,5.1-4.06-4.82a86,86,0,0,0-6.49,9.57c-1.23,2.49-.9,8.8-.67,11l.2,1.82-1.69-.71a34.52,34.52,0,0,0-11.21-2.35,38.94,38.94,0,0,0-11.07,2.14L704,753l-4.18,2.53a37.83,37.83,0,0,0,4.62,7.13c4.6,6.07,13.15,6.13,13.27,6.13h2l-1,1.66c-.06.09-5.75,9.15-7.35,12.39-1.08,2.18-.48,7.38,0,10.05l7.49,0,.8,4.65c4.28-1.39,9.87-3.46,10.79-4.39,1.67-1.68,6.48-5.73,6.68-5.91Z" style="fill: #ef5000"/>
      <path d="M747.5,761.4a1.66,1.66,0,0,0,0-3.32,1.62,1.62,0,0,0-1.56,1.21l-6,2.92a2.82,2.82,0,0,0-.36-.24l2.85-5.71a1.7,1.7,0,1,0-2.12-.61l-2.7,5.4-2.69-5.57a1.77,1.77,0,0,0,.14-.66,1.67,1.67,0,0,0-1.67-1.65,1.64,1.64,0,0,0-.44,3.23l2.78,5.74-6.56-2.81a1.64,1.64,0,0,0-1.57-1.15,1.66,1.66,0,0,0,0,3.32,1.56,1.56,0,0,0,.71-.18l6.5,2.79-7.4,2.41-.53.17h0a1.62,1.62,0,0,0-.91,1.45,1.66,1.66,0,0,0,3.31.05l6.18-2L732.06,773h0a1.63,1.63,0,0,0-.29.89,1.66,1.66,0,1,0,3.32,0,1.65,1.65,0,0,0-.49-1.17l2.74-5.55,2.79,5.52a1.28,1.28,0,0,0-.06.34,1.66,1.66,0,1,0,1.84-1.63l-2.38-4.7a3,3,0,0,0,.5-.35l5.09,2.18a1.65,1.65,0,0,0,3.22-.52,1.67,1.67,0,0,0-1.67-1.65,1.64,1.64,0,0,0-.7.17l-5.12-2.19v0c0-.07,0-.12,0-.18l6-2.9A1.67,1.67,0,0,0,747.5,761.4Z" style="fill: #ff4e00"/>
    </g>
  </g>  <g id="nose">
    <path d="M726.57,548.76c-3.83,1.15-13,3-7,8s14,13,14,13v20l-16.25.5s12.46,5.61,18,6c5.91.43,21-5,21-5l-18.75-1.5v-24s13-7,15-9S746.57,542.76,726.57,548.76Z"/>
  </g>  <g id="eyes">
    <g>
      <path d="M874.2,498.72S872.85,560.9,837.71,569,758,555.49,758,555.49s-13.35-52.34,17.74-61.8C807.82,483.92,874.2,498.72,874.2,498.72Z" style="fill: #03a3db;stroke: #000;stroke-miterlimit: 10"/>
      <path d="M840.92,516.46s18.12,14.27,16.13,23.73-16.13,20.87-16.13,20.87-8.78-2.35-14.74-15.87S840.92,516.46,840.92,516.46Z"/>
      <g>
        <path d="M599.11,498.72s1.35,62.18,36.5,70.29,79.75-13.52,79.75-13.52,13.34-52.34-17.75-61.8C665.49,483.92,599.11,498.72,599.11,498.72Z" style="fill: #03a3db;stroke: #000;stroke-miterlimit: 10"/>
        <path d="M631.4,496.46s-18.13,14.27-16.14,23.73,16.14,20.87,16.14,20.87,8.77-2.35,14.73-15.87S631.4,496.46,631.4,496.46Z"/>
      </g>
    </g>
  </g><g id="luckyCaption">
    <text transform="translate(561.31 1272.52)" style="font-size: 64.3827896118164px;font-family: HiraMaruProN-W4-83pv-RKSJ-H, Hiragino Maru Gothic ProN"><tspan style="letter-spacing: -0.03599058496540004em"></tspan><tspan x="62.07" y="0" style="letter-spacing: -0.04900361568613886em"></tspan><tspan x="123.29" y="0" style="letter-spacing: -0.017987709131464157em"></tspan><tspan x="186.52" y="0" style="letter-spacing: -0.020004880560203397em"></tspan><tspan x="249.61" y="0"></tspan></text>
  </g>  <g id="weather">
    <g>
      <path d="M1260.58,174.87a107.7,107.7,0,1,0,107.69,107.7A107.7,107.7,0,0,0,1260.58,174.87Zm.33,152.65A45.52,45.52,0,1,1,1306.36,282,45.49,45.49,0,0,1,1260.91,327.52Z" style="fill: #9a30c8"/>
      <path d="M1260.58,184.88a97.69,97.69,0,1,0,97.53,97.69A97.6,97.6,0,0,0,1260.58,184.88Zm.33,142.64A45.52,45.52,0,1,1,1306.36,282,45.49,45.49,0,0,1,1260.91,327.52Z" style="fill: #009bff"/>
      <path d="M1260.58,195A87.56,87.56,0,1,0,1348,282.57,87.49,87.49,0,0,0,1260.58,195Zm.33,132.51A45.52,45.52,0,1,1,1306.36,282,45.49,45.49,0,0,1,1260.91,327.52Z" style="fill: #44c300"/>
      <path d="M1260.58,206.2a76.37,76.37,0,1,0,76.24,76.37A76.3,76.3,0,0,0,1260.58,206.2Zm.33,121.32A45.52,45.52,0,1,1,1306.36,282,45.49,45.49,0,0,1,1260.91,327.52Z" style="fill: #fdcc00"/>
      <path d="M1260.58,215.93a66.64,66.64,0,1,0,66.53,66.64A66.58,66.58,0,0,0,1260.58,215.93Zm.33,111.59A45.52,45.52,0,1,1,1306.36,282,45.49,45.49,0,0,1,1260.91,327.52Z" style="fill: #fc7b00"/>
      <path d="M1260.58,226.25a56.32,56.32,0,1,0,56.22,56.32A56.27,56.27,0,0,0,1260.58,226.25Zm.33,101.27A45.52,45.52,0,1,1,1306.36,282,45.49,45.49,0,0,1,1260.91,327.52Z" style="fill: red"/>
      <path d="M1133.69,355.7s-10.27,10.27-27.39,6.84-24-24-20.55-37.66,10.27-17.12,17.12-20.54,16.75,0,16.75,0,7.22-34.24,38-34.24,44.51,34.24,44.51,34.24,27.39-3.43,34.24,13.69,3.42,37.67-17.12,41.09-27.39-6.85-27.39-6.85-6.23,11.67-25.37,11A87.56,87.56,0,0,1,1133.69,355.7Z" style="fill: #29abe2"/>
      <path d="M1131.6,349.58s-10.27,10.28-27.39,6.85-24-24-20.54-37.66,10.27-17.12,17.12-20.55,16.74,0,16.74,0,7.22-34.24,38-34.24,44.51,34.24,44.51,34.24,27.39-3.42,34.24,13.7,3.43,37.66-17.12,41.09-27.39-6.85-27.39-6.85-6.23,11.67-25.37,11A87.52,87.52,0,0,1,1131.6,349.58Z" style="fill: #edf9fb;stroke: #29abe2;stroke-miterlimit: 10;stroke-width: 3px"/>
      <path d="M1311.31,371.44s15,23.95,32.93,20.95,29.94-23.94,29.94-23.94,32.93,12,44.9-9,6-38.92-3-44.91-26.94-6-26.94-6,0-15-15-21-22.75,0-22.75,0-7.19-18-25.15-18-26.94,12-26.94,12-15-6-29.93,3-9,20.95-9,20.95-15-6-21,6,6,23.95,6,23.95-6,12,0,21,21,9,21,9-.94,9.94,13,16.95S1311.31,371.44,1311.31,371.44Z" style="fill: #29abe2"/>
      <path d="M1307.07,363s15,24,32.92,21,29.94-24,29.94-24,32.93,12,44.9-9,6-38.91-3-44.9-26.94-6-26.94-6,0-15-15-20.95-22.75,0-22.75,0-7.19-18-25.15-18-26.94,12-26.94,12-15-6-29.93,3-9,21-9,21-15-6-21,6,6,24,6,24-6,12,0,20.95,21,9,21,9-.94,9.94,13,16.94S1307.07,363,1307.07,363Z" style="fill: #edf9fb;stroke: #29abe2;stroke-miterlimit: 10;stroke-width: 3px"/>
      <path d="M1215.47,391.93s16,25.57,35.16,22.37,32-25.57,32-25.57,35.16,12.79,48-9.59,6.39-41.56-3.2-47.95-28.77-6.39-28.77-6.39,0-16-16-22.38-24.3,0-24.3,0-7.67-19.18-26.85-19.18S1202.68,296,1202.68,296s-16-6.4-32,3.19-9.59,22.38-9.59,22.38-16-6.39-22.37,6.39,6.39,25.58,6.39,25.58-6.39,12.78,0,22.37,22.38,9.59,22.38,9.59-1,10.62,13.88,18.1S1215.47,391.93,1215.47,391.93Z" style="fill: #29abe2"/>
      <path d="M1210.93,382.87s16,25.57,35.16,22.38,32-25.58,32-25.58,35.16,12.79,48-9.59,6.39-41.55-3.2-47.95-28.77-6.39-28.77-6.39,0-16-16-22.38-24.3,0-24.3,0-7.67-19.18-26.85-19.18S1198.14,287,1198.14,287s-16-6.39-32,3.2-9.59,22.37-9.59,22.37-16-6.39-22.38,6.4,6.39,25.57,6.39,25.57-6.39,12.79,0,22.38,22.38,9.59,22.38,9.59-1,10.61,13.88,18.09S1210.93,382.87,1210.93,382.87Z" style="fill: #edf9fb;stroke: #29abe2;stroke-miterlimit: 10;stroke-width: 3px"/>
    </g>
  </g>
<g id="generation">
  <text transform="translate(38.41 1285.15)" style="font-size: 65.69450378417969px;font-family: HiraKakuStd-W8-83pv-RKSJ-H, Hiragino Kaku Gothic Std"></text>
  <text transform="translate(219.15 1271.7)" style="font-size: 104.09490966796875px;font-family: MyriadPro-Regular, Myriad Pro"></text>
</g>  <g id="_5element" data-name="5element">
    <g>
      <rect x="1238" y="1172" width="177" height="287" style="fill: #30e017;opacity: 0.5"/>
      <g>
        <path d="M1278.73,1264.23v13.69c0,1.28,0,2.72-.08,4.08h14.65v5.12h-15a66.48,66.48,0,0,1-1.28,7.45c3.85,3.76,13,13.84,15.37,16.4l-3.6,4.41c-2.56-3.52-9-11.05-13.21-15.77a43.59,43.59,0,0,1-16.33,21.93,18.52,18.52,0,0,0-3.61-3.92c12.17-8.57,16.26-20,17.46-30.5h-17.13V1282h17.53c.08-1.44.08-2.8.08-4.16v-13.61h-7.13a56.63,56.63,0,0,1-6.64,13.93,29.16,29.16,0,0,0-4-2.81c4.33-6.16,7.69-16.73,9.61-27.21l6.41,1.6c-.16.56-.72.8-1.68.8-.56,2.88-1.28,5.76-2.09,8.64h23.3v5Zm18.18-9h29.62v64.12h-5.44v-5.68h-18.9v6.56h-5.28Zm5.28,53.31h18.9v-48.19h-18.9Z" style="fill: #fff"/>
        <path d="M1351.43,1302.73c-1.93,6.32-5.13,13.21-11.13,17.29l-4.09-3.52c5.45-3.36,8.81-9.61,10.57-15.45Zm18.65-35.7v-6.16h-33.15V1256h33.15v-7.76l6.89.4c-.08.56-.56,1-1.6,1.12V1256h33.7v4.89h-33.7V1267h24.25v27h-53.24v-27Zm-18.57,4.4v7h18.57v-7Zm0,11.13v7.12h18.57v-7.12Zm10.8,31.3c0,1.92.73,2.32,5,2.32h14.89c3.44,0,4-1,4.32-8.49a15.39,15.39,0,0,0,4.89,2c-.64,9.29-2.32,11.45-8.73,11.45H1367c-7.93,0-9.93-1.44-9.93-7.28v-13l6.89.48c-.08.56-.48,1-1.61,1.12Zm14.9-5.93c-3-3.36-9.13-7.84-14.66-10.56l3.53-3.2c5.44,2.56,11.77,6.8,14.89,10.24Zm17.13-36.5h-19v7h19Zm0,18.25v-7.12h-19v7.12Zm11.13,29.62c-2.48-5-8.73-11.77-14.73-16.49l4.32-2.56c6.09,4.56,12.41,11.13,15,16.17Z" style="fill: #fff"/>
      </g>
    </g>
  </g>
<g id="manekiPower">
  <text transform="translate(205.81 1456.78)" style="font-size: 121.63294982910156px;fill: #070707;font-family: MyriadPro-Regular, Myriad Pro">571448</text>
  <ellipse cx="82.99" cy="1415.19" rx="49.5" ry="49.5"/>
  <polygon points="82.92 1378.7 99.5 1378.7 81.54 1414.62 99.5 1414.62 68.55 1454.33 83.19 1421.63 67.58 1422.06 82.92 1378.7" style="fill: #fff"/>
  <text transform="translate(1269.14 1425.38)" style="font-size: 104.09490966796875px;font-family: MyriadPro-Regular, Myriad Pro">10</text>
</g><g id="tokenID">
<text transform="translate(1084.21 149.82)" style="font-size: 104.09490966796875px;font-family: MyriadPro-Regular, Myriad Pro">113</text>
</g>  <g id="logo">
    <path d="M412.51,140.41l-34.29.33-.26-2-.63-.18a104.29,104.29,0,0,1-14.72-5.72l-6.77,1.86c-.39.11-1,.25-3.32.81-3.36.81-9,2.16-15.29,3.74l-10.12,2.54s-3.56-10.09-3.59-10.19c-8.45,2.14-19,3.94-27.51,3.94-6.05,0-10.75-.93-14.39-2.84-1.07-.56-2.33-1.25-3.68-2.09l-.9,4-36.89-4.45.16-1-28.76,8.94-2.28-3.49-17.92,10.06-3.65-7.14a56.94,56.94,0,0,1-17,2.6,34,34,0,0,1-16-3.76l-1,5.35-42.15-7L113,123c.36-3.14.68-8.21,1-15.11l-14.18.69c1,5.49,2.33,12,4,19.37l2.89,12.81-41.83,7.75L61.46,138c-1.72-5.28-3.28-13.16-4.79-24.07a213.34,213.34,0,0,1-2.21-27.48c0-12,1.43-21.08,4.36-27.81C64.76,45,75.72,43.57,80.15,43.57c6.68,0,13.58,3.14,21.71,9.88l.28.23L105.65,57l1.86-1.85C115,47.55,121.65,44,128.5,44a26.65,26.65,0,0,1,23.1,12.34l.16-1.75,10.41-.14h1.68c30.77,0,40.88,4.13,45.53,8.57L225.26,63c1.22-.41,2.52-.8,3.86-1.16a65.15,65.15,0,0,1,13.67-2.24c.91-.05,1.81-.07,2.68-.07,10.49,0,19.06,3.24,25.49,9.63q.6.6,1.17,1.23A43.53,43.53,0,0,1,288.77,61a47.66,47.66,0,0,1,14.08-2.21,43.39,43.39,0,0,1,13,2,39.18,39.18,0,0,1,4.72,1.84c.16-1.15.34-2.36.53-3.62l1.79-12.14,41.85,8.73-2.84,11.7c-.2.83-.39,1.64-.58,2.44,5.07-2,9.61-3.7,13.55-4.93l4.28-15.3,10.47,2.16c2.91.6,25,6.41,33.22,8.48l-1.53,21.43,13.1,2.19c5.27.87,9.86-3.72,9.86-3.72.29-.83,1.27-16.34,1.6-17.1,5.78-13.26,16.46-14.7,20.78-14.7,6.5,0,13.2,3,21.09,9.59L488,58l3.25,3c.59-.58,1.15-1.13,1.66-1.66,7.26-7.32,13.74-10.73,20.41-10.73,12.26,0,21.77,7.08,26.09,19.42a41.63,41.63,0,0,1,1.43,5,45.4,45.4,0,0,1,5-1.87A46,46,0,0,1,559.48,69,42,42,0,0,1,572.09,71a35,35,0,0,1,9.77,4.8l1-.76c8.11-6,18.49-9.1,30.88-9.1,10.36,0,19.45,2.39,27.07,7.12.84-1.54,1.75-3.08,2.71-4.62l5-8L685,75.07l30.1-15.29,5.54,8.45a108.18,108.18,0,0,1,8.83,15.55,48.93,48.93,0,0,1,4.48,19.9c0,10.81-2.82,19.88-8.39,26.95-6.51,8.33-16.15,12.74-27.86,12.74a37.7,37.7,0,0,1-16-3.38,35.11,35.11,0,0,1-14.48,3c-8.78,0-16.16-2.45-22-7.3l-.55.46c-8.13,6.62-18.24,10-30.08,10s-21.81-2.61-29.85-7.78c-8.42,2.55-21.74,5.24-31.78,5.24-5.87,0-10.45-.91-14-2.77-.15-.07-.29-.15-.43-.23l-.55,2.89-41.08-6.78,1.33-11.7c.34-3,.65-7.81.93-14.36l-13.24.65c.95,5.25,2.23,11.42,3.82,18.47l2.84,12.57-40.76,7.55-2.65-8.15L432,144.3ZM236.19,100.59a94.65,94.65,0,0,0,4.44,15.5l1.3,3.34.2-1.19a83.12,83.12,0,0,0,.94-17.53c0-.93-.11-1.69-.19-2.3A17.16,17.16,0,0,0,236.19,100.59ZM608.66,106a12.36,12.36,0,0,0,4.86.84,11.57,11.57,0,0,0,4.67-.76,13.87,13.87,0,0,0-5.55-.92A7.61,7.61,0,0,0,608.66,106ZM679,88.07A42.34,42.34,0,0,0,674.9,95l14.64-.81c-.87-1.25-2-2.84-3.44-4.86l-4-5.54Z" style="fill: #0702b0"/>
    <path d="M401.41,92.58s16.63,9.5,28.33,8.82,28.32-12.21,28.32-12.21" style="fill: none;stroke: #ff2000;stroke-miterlimit: 10;stroke-width: 6px"/>
    <path d="M383.35,129.21c-.61-4.59-.66-12.3-.16-23.56a241,241,0,0,1,2.07-24.37l.05-.32-7.94-1.76L384,55.66l5.29,1.08c3.39.69,10.4,2.39,21.41,5.17l5.75,1.46L412.13,79.1l1.33.17-.92,5.88c-1.61,10.22-2.41,24.74-2.38,43.15v5.76L384,134.3Z" style="fill: #0702b0"/>
    <path d="M409.29,67.54l-3.31,12-21.35-4.71,3.51-12.43Q393,63.44,409.29,67.54Zm-4.94,60.77-15.24.14q-.84-6.31-.12-22.54a236.41,236.41,0,0,1,2-23.73l15.8,2.07Q404.31,100.1,404.35,128.31Z" style="fill: url(#Sky_2)"/>
    <path d="M387.08,113.63l-5.81,13.23a98.76,98.76,0,0,1-15.54-6.21q-7.51-3.7-14.93-7.52.6,3.3,2.5,9.82c-.73.2-8.85,2.09-18.54,4.49-4.14-11.62-5-24.44-5-36.66,0-9.56,1.16-18,3-30.67l18.42,3.81Q346.69,82.35,347,89.58q4-3.42,16.64-8.62a163.15,163.15,0,0,1,17.54-6.32L387,88l-14.83,4.61q-11.13,4-14.24,8,3.81,2.7,13.94,7.12A152.18,152.18,0,0,0,387.08,113.63Z" style="fill: url(#Sky_2-2)"/>
    <path d="M296,129.19c-5.15,0-9-.71-11.84-2.18-7.06-3.68-14.77-9.06-18.47-21.09-2.73-8.87-1.22-17.44,4.5-25.49a37.72,37.72,0,0,1,20.21-14.5,42.69,42.69,0,0,1,12.5-2,38.5,38.5,0,0,1,11.41,1.73c9.31,2.94,15.61,9,18.26,17.65,1.7,5.54,1.44,10.63-.79,15.12l-.07.14a18,18,0,0,1-2.68,3.77l4,19.93-5,1.54C319.64,126.43,306.06,129.19,296,129.19Z" style="fill: #0702b0"/>
    <path d="M327,85.07q1.89,6.14-.45,10.83t-8.68,6.55q-7.75,2.39-30.29,3.13c7.43,7.08,27.22,1.48,35.91-1.19l2.81,13.92c-10.35,3.19-32.14,7.37-39.48,3.55-6.85-3.57-12.63-8-15.6-17.64q-3.27-10.64,3.68-20.43a31.94,31.94,0,0,1,17.19-12.31,34.07,34.07,0,0,1,20.49-.22Q323.83,74.82,327,85.07Zm-14.67,3.46c-.67-2.17-2.64-3.48-5.93-3.94a19.87,19.87,0,0,0-18.55,8.22q20.1-1.14,23.45-2.18c.7-.21,1.12-.45,1.25-.7S312.55,89.3,312.31,88.53Z" style="fill: url(#Sky_2-3)"/>
    <path d="M210.76,127.16c-3.32-5-5.95-12-8-21.34a126.14,126.14,0,0,1-3.08-21.49c-.1-2-.06-5.4.1-10.43l.19-5.6,25.58-.08c1.36-.49,2.81-.94,4.38-1.35a60.11,60.11,0,0,1,12.62-2.06c10.13-.51,18.23,2.15,24.06,7.9s8.83,13.49,9.33,23.43a98.92,98.92,0,0,1-2.49,26.46l-1.14,5.12-26-3.11,1-6a87.67,87.67,0,0,0,1-18.78C248.05,94.4,247,93,247,93l-.09-.13c-.46-.64-2.07-1-4.2-.86-4.57.23-9,2-13.55,5.25a105.08,105.08,0,0,0,5.5,20.41l2.3,5.83-23.8,7.33Z" style="fill: #0702b0"/>
    <path d="M270.12,96.43a92.78,92.78,0,0,1-2.35,24.91L253,119.57a92.78,92.78,0,0,0,1.1-20q-.36-7.31-2.52-10.11-2.58-3.57-9.19-3.25-10,.51-19.54,8.62a114.62,114.62,0,0,0,6.38,25L215.61,124q-4.35-6.61-7.2-19.41A119.62,119.62,0,0,1,205.46,84q-.14-2.7.11-9.94l15,0,.16,3.3q3.57-3,10.7-4.85a54.1,54.1,0,0,1,11.45-1.88q12.71-.64,19.68,6.23T270.12,96.43Z" style="fill: url(#linear-gradient)"/>
    <path d="M189.47,129.88a52.37,52.37,0,0,1-20,4,28.22,28.22,0,0,1-19.68-7.51,25.59,25.59,0,0,1-8.41-19.49c0-10.12,3.77-18.18,11.21-24l1.11-.82,1.94-22.27,5.25-.07h1.62c36.34,0,41.22,5.95,42.83,7.9,5.2,6.33,4.3,23.63,3.64,31.08v9.06c0,3.19,1.11,6.91,3.3,11l2.67,5-22.26,12.38Z" style="fill: #0702b0"/>
    <path d="M207.19,121.52l-12,6.7-3.08-6A47.41,47.41,0,0,1,169.51,128a22.48,22.48,0,0,1-15.76-6,19.88,19.88,0,0,1-6.52-15.21q0-12.4,9-19.38c5.43-4.23,12.49-5.64,21.1-6.34A27.26,27.26,0,0,1,192,83.89l.12,14.43c-3.8-1.75-11-3.7-14.79-3.7q-6.88,0-11.23,2.9a11.19,11.19,0,0,0-5,9.78,6.43,6.43,0,0,0,2.35,5,7.67,7.67,0,0,0,5.35,2.18q10,0,15.76-4.71t6.07-13.41s2.18-13.25-.23-16.65C186,73.52,160,77.59,160,77.59l1-12.07s34.77-.45,39.88,5.78c4.32,5.26,2.32,27.12,2.32,27.12v9.33Q203.21,114,207.19,121.52Z" style="fill: url(#Sky_2-4)"/>
    <path d="M64.72,135.63c-1.62-4.95-3.13-12.5-4.6-23.06a205.33,205.33,0,0,1-2.18-26.68c0-11.16,1.28-19.49,3.91-25.47C66.31,50.31,73.92,48.8,78.07,48.8c5.33,0,11.12,2.72,18.23,8.56l.15.12,7.44,6.86c2.27-2.15,4.25-4.07,5.9-5.72,6.38-6.38,11.81-9.36,17.08-9.36,10.26,0,17.94,5.72,21.61,16.11,2,5.52,3,13,3,22.74,0,18.22-.8,31.31-2.46,40l-1.23,6.49-31.51-5.15L117,123c.52-4.56,1-12.88,1.36-24.73,0-.25,0-.5,0-.75l-2.53,3.72-21.33,1-2.17-2.68c-.69-.87-1.34-1.65-2-2.36.65,5.89,2.28,15.54,5.88,31.35l1.58,6.9-31.28,5.74Z" style="fill: #0702b0"/>
    <path d="M149.89,87.53q0,26.44-2.34,38.73l-18.61-3q.81-7.14,1.4-25.28.58-19.18-.11-19.19-2.46,0-12.88,15.33l-14.51.7q-9.24-11.46-13-11.46-1.41,0-1.41,7.6,0,10.42,6.44,38.62l-18.49,3.39q-2.22-6.78-4.33-21.88A197.86,197.86,0,0,1,70,85.3Q70,55,83.29,55q5.38,0,13.93,7l11.94,11q6.56-6.09,10.65-10.18,7.38-7.38,12.29-7.38,11.11,0,15.21,11.59Q149.89,74.19,149.89,87.53Z" style="fill: url(#Sky_2-5)"/>
    <path d="M701.4,137a31.56,31.56,0,0,1-16.16-4.09,29.57,29.57,0,0,1-14.66,3.76c-10,0-17.7-3.59-23-10.67l0,0C643.21,120,641,112.34,641,103.1c0-10.2,3.57-21,10.63-32.15L654.14,67l28,11.18L677.86,84a50.08,50.08,0,0,0-5.78,10.26,27.58,27.58,0,0,0-2.44,10,7.76,7.76,0,0,0,.94,4.05l.06.09.06.1a2.61,2.61,0,0,0,.44.62,1,1,0,0,0,.09-.15,6,6,0,0,0,.72-3.15v-5.31l23.65-1.3,1.42,3.91c1.27,3.48,2.86,5.74,4.05,5.74.23,0,.72,0,1.59-1.1a4.4,4.4,0,0,0,1.11-2.94,19.81,19.81,0,0,0-2.52-9.73c-.27-.47-1.5-2.46-6.83-9.82L690.56,80,717,66.7l2.75,4.15a101.62,101.62,0,0,1,8.43,14.68,42.73,42.73,0,0,1,4,17.57c0,9.47-2.42,17.32-7.2,23.34C719.45,133.43,711.52,137,701.4,137Z" style="fill: #0702b0"/>
    <path d="M726.57,103.1q0,12.32-6,19.85-6.65,8.43-19.18,8.42-9.54,0-16.08-5.21A24,24,0,0,1,670.58,131q-12.21,0-18.52-8.42-5.43-7.43-5.43-19.52,0-13.74,9.75-29.15l17,6.76a54.66,54.66,0,0,0-6.43,11.42A32.59,32.59,0,0,0,664,104.32a13,13,0,0,0,1.78,7,6.13,6.13,0,0,0,5.54,3.55A5.32,5.32,0,0,0,676,112a11.53,11.53,0,0,0,1.55-6.09l14.19-.78q3.43,9.42,9.32,9.42a7.48,7.48,0,0,0,6-3.21,10,10,0,0,0,2.33-6.43,25.55,25.55,0,0,0-3.21-12.42q-1.11-2-7.21-10.42L715,74a98.39,98.39,0,0,1,8,13.85A37.22,37.22,0,0,1,726.57,103.1Z" style="fill: url(#New_Gradient_Swatch_2)"/>
    <path d="M455.32,137.28c-1.57-4.78-3-12.06-4.45-22.26a199.7,199.7,0,0,1-2.09-25.77c0-10.77,1.23-18.81,3.77-24.58,4.3-9.77,11.66-11.23,15.66-11.23,5.14,0,10.74,2.63,17.6,8.27l.15.12,7.18,6.62c2.2-2.08,4.1-3.93,5.7-5.52,6.16-6.17,11.4-9,16.49-9,9.91,0,17.32,5.53,20.87,15.55,1.92,5.33,2.86,12.53,2.86,22,0,17.6-.78,30.23-2.38,38.63l-1.19,6.26-30.42-5,.71-6.2c.5-4.4.94-12.43,1.31-23.87l0-.73-2.45,3.59-20.6,1L482,102.52c-.67-.84-1.3-1.6-1.88-2.29.63,5.69,2.19,15,5.68,30.28l1.52,6.66-30.2,5.55Z" style="fill: #0702b0"/>
    <path d="M532.51,91.4q0,25.55-2.26,37.4l-18-2.93q.79-6.9,1.36-24.41.55-18.54-.12-18.53-2.37,0-12.43,14.8l-14,.68q-8.93-11.07-12.54-11.08-1.37,0-1.36,7.35,0,10,6.22,37.29l-17.86,3.28q-2.15-6.56-4.18-21.14a191.24,191.24,0,0,1-2-24.86Q455.32,60,468.21,60q5.19,0,13.45,6.78l11.52,10.62q6.33-5.88,10.29-9.83,7.11-7.12,11.86-7.12,10.74,0,14.69,11.19Q532.51,78.52,532.51,91.4Z" style="fill: url(#New_Gradient_Swatch_2-2)"/>
    <path d="M617.45,139.79c-11.06,0-20.34-2.44-27.61-7.26-9.1-6.13-13.7-15-13.7-26.51S580.45,85.37,589,79.11c7.16-5.29,16.49-8,27.72-8,10.56,0,19.58,2.68,26.81,8l0,0c8.41,6.26,12.68,15,12.68,25.89s-4.06,19.6-12.06,26.09C637,136.87,628,139.79,617.45,139.79Zm-1.89-41a12.62,12.62,0,0,0-7.59,2,5.57,5.57,0,0,0-2.55,5.09c0,1.64.45,3,2.61,4.22a16.81,16.81,0,0,0,8.42,1.92,15.67,15.67,0,0,0,8.34-1.92,5,5,0,0,0,2.79-4.78c0-1.52-.36-3.14-3-4.65A18.44,18.44,0,0,0,615.56,98.77Z" style="fill: #0702b0"/>
    <path d="M650.6,105q0,13.64-10,21.73-9.21,7.42-23.17,7.43-15,0-24.51-6.32-11.19-7.55-11.2-21.84,0-14.64,10.54-22.4,9.32-6.87,24.39-6.87,14.08,0,23.51,6.87Q650.59,91.39,650.6,105Zm-17.41.33q0-6.21-5.88-9.53a23.82,23.82,0,0,0-11.75-2.66,18.13,18.13,0,0,0-10.86,3.1,11.11,11.11,0,0,0-4.88,9.65,9.9,9.9,0,0,0,5.43,9.09,22.26,22.26,0,0,0,11.2,2.66q6.87,0,11.31-2.77A10.57,10.57,0,0,0,633.19,105.35Z" style="fill: url(#New_Gradient_Swatch_2-3)"/>
    <path d="M555.23,137.24c-5,0-8.71-.69-11.43-2.11-6.81-3.55-14.25-8.74-17.83-20.36-2.63-8.57-1.17-16.85,4.34-24.62a36.53,36.53,0,0,1,19.52-14,41,41,0,0,1,12.07-1.88,37.23,37.23,0,0,1,11,1.67c9,2.84,15.07,8.73,17.63,17,1.64,5.34,1.38,10.25-.77,14.59l-.07.14a17,17,0,0,1-2.58,3.64L591,130.6l-4.86,1.49C578.11,134.57,565,137.24,555.23,137.24Z" style="fill: #0702b0"/>
    <path d="M585.19,94.63q1.81,5.93-.43,10.46t-8.38,6.33q-7.5,2.31-29.25,3c7.17,6.84,26.28,1.43,34.67-1.15l2.71,13.44c-10,3.08-31,7.12-38.12,3.43-6.61-3.45-12.19-7.73-15.06-17q-3.15-10.26,3.55-19.72a30.88,30.88,0,0,1,16.6-11.89,32.92,32.92,0,0,1,19.78-.21Q582.14,84.74,585.19,94.63ZM571,98q-1-3.15-5.73-3.81a19.19,19.19,0,0,0-17.91,7.94Q566.79,101,570,100a2.1,2.1,0,0,0,1.21-.68A2.7,2.7,0,0,0,571,98Z" style="fill: url(#New_Gradient_Swatch_2-4)"/>
    <g>
      <g>
        <g>
          <g>
            <path d="M475.38,131.52c-1.25-1.47-4.4-2.48-9.09-2.73a39.8,39.8,0,0,0-73.23,28.47c-6.79,6.28-10.55,12.31-7.68,15.68,2.53,3,11.43,2.58,16.53,2.08a39.79,39.79,0,0,0,69.43-32C474.54,140.68,479.31,136.14,475.38,131.52Z" style="fill: #ffd404"/>
            <path d="M428.46,192.46A43.35,43.35,0,0,1,400.35,179c-14,1.05-16.89-2.41-17.89-3.58-2.81-3.31-3.85-9.34,6.46-19.5a43.23,43.23,0,0,1-.41-10.48,43.62,43.62,0,0,1,80-20.31c4.71.5,8,1.81,9.78,3.91a9.28,9.28,0,0,1,2.32,7.22c-.42,3.44-2.79,6.3-5.21,8.39a43,43,0,0,1,.07,7.86A43.67,43.67,0,0,1,428.46,192.46ZM403.51,171l1.29,1.5a36,36,0,0,0,63.06-20.63,36.46,36.46,0,0,0-.3-8.34l-.35-2.31,1.9-1.37c2.72-2,3.8-3.63,3.91-4.54,0-.17.08-.58-.54-1.31-.35-.32-2.15-1.18-6.4-1.41L464,132.5l-1-1.77a36,36,0,0,0-66.18,25.73l.78.47-1.77,2.93c-7.38,6.83-7.75,10.34-7.53,10.6.55.49,4.06,1.65,13.24.75Z" style="fill: #0000b2"/>
          </g>
          <path d="M394.17,161.26l-3.3-6.44c.48-.52,11.85-12.95,33.08-20.73a170.54,170.54,0,0,1,41.71-9.21l.55,7.63a128.59,128.59,0,0,0-39.5,7.24C407.36,146.84,394.27,161.15,394.17,161.26Z" style="fill: #0000b2"/>
        </g>
        <g>
          <path d="M430,165.64a42.83,42.83,0,0,0,4.38,9.32,10.72,10.72,0,1,0-6.37,1.33,48.44,48.44,0,0,1-3.85-8.84Z" style="fill: #0000b2"/>
          <path d="M447.69,181.81l.12-.1s-2.21,1.62-7.58-.91c-2.22-1.05-4.19-3.32-5.81-5.84a10.61,10.61,0,0,1-6.15,1.36l-.22,0c2.22,3.92,5.38,8.07,9.57,10a19.68,19.68,0,0,0,6.85,2c4.73.39,7.15-1.78,7.5-2.12Z" style="fill: #0000b2"/>
          <path d="M434.42,175a42.83,42.83,0,0,1-4.38-9.32l-5.84,1.81a48.44,48.44,0,0,0,3.85,8.84l.22,0A10.61,10.61,0,0,0,434.42,175Z" style="fill: #0000b2"/>
        </g>
      </g>
      <circle cx="423.61" cy="103.73" r="6.89" style="fill: #0000b2"/>
    </g>
  </g>
  <defs>
    <linearGradient id="Sky_2" data-name="Sky 2" x1="406.87" y1="58.34" x2="378.85" y2="155.96" gradientUnits="userSpaceOnUse">
      <stop offset="0" stop-color="#c6e0f5"/>
      <stop offset="0.06" stop-color="#bdddf4"/>
      <stop offset="0.15" stop-color="#a3d4f1"/>
      <stop offset="0.28" stop-color="#7ac7eb"/>
      <stop offset="0.42" stop-color="#40b3e4"/>
      <stop offset="0.57" stop-color="#009edc"/>
      <stop offset="0.87" stop-color="#0077c3"/>
      <stop offset="0.99" stop-color="#005d9b"/>
    </linearGradient>
    <linearGradient id="Sky_2-2" x1="361.62" y1="50.01" x2="354.97" y2="154.01" xlink:href="#Sky_2"/>
    <linearGradient id="Sky_2-3" x1="316.67" y1="61.44" x2="282.63" y2="143.26" xlink:href="#Sky_2"/>
    <linearGradient id="linear-gradient" x1="238.54" y1="60.55" x2="236.14" y2="160.36" gradientUnits="userSpaceOnUse">
      <stop offset="0" stop-color="#c6e0f5"/>
      <stop offset="0.06" stop-color="#bdddf4"/>
      <stop offset="0.15" stop-color="#a3d4f1"/>
      <stop offset="0.28" stop-color="#7ac7eb"/>
      <stop offset="0.42" stop-color="#40b3e4"/>
      <stop offset="0.57" stop-color="#009edc"/>
      <stop offset="0.87" stop-color="#0077c3"/>
    </linearGradient>
    <linearGradient id="Sky_2-4" x1="179.56" y1="61.4" x2="176.38" y2="132.23" xlink:href="#Sky_2"/>
    <linearGradient id="Sky_2-5" x1="98.28" y1="49.18" x2="128.81" y2="163.35" xlink:href="#Sky_2"/>
    <radialGradient id="New_Gradient_Swatch_2" data-name="New Gradient Swatch 2" cx="776.17" cy="46.5" r="423.59" gradientTransform="translate(0 -0.42)" gradientUnits="userSpaceOnUse">
      <stop offset="0" stop-color="#fff700"/>
      <stop offset="0.06" stop-color="#ffea00"/>
      <stop offset="0.24" stop-color="#ffc800"/>
      <stop offset="0.42" stop-color="#ffad00"/>
      <stop offset="0.61" stop-color="#ff9a00"/>
      <stop offset="0.8" stop-color="#ff8f00"/>
      <stop offset="1" stop-color="#ff8b00"/>
    </radialGradient>
    <radialGradient id="New_Gradient_Swatch_2-2" cx="514.22" cy="57.74" r="243.37" xlink:href="#New_Gradient_Swatch_2"/>
    <radialGradient id="New_Gradient_Swatch_2-3" cx="594.62" cy="68.98" r="233.37" xlink:href="#New_Gradient_Swatch_2"/>
    <radialGradient id="New_Gradient_Swatch_2-4" cx="581.66" cy="56.88" r="327.4" xlink:href="#New_Gradient_Swatch_2"/>
  </defs></svg>