<svg xmlns="http://www.w3.org/2000/svg" xmlns:xlink="http://www.w3.org/1999/xlink" viewBox="0 0 1500 1500">  <g id="sky">
    <rect width="1500" height="1499.86" style="fill: #ffe600"/>
  </g>  <g id="pattern">
    <path d="M0,0V1500H1500V0ZM1375.29,4.81h52.88V187h-52.88Zm0,498.78h52.88V685.73h-52.88Zm0,498.78h52.88v181.15h-52.88ZM1251.08,316.48h51.38V498.62h-51.38Zm0,498.78h51.38V996.41h-51.38ZM1126.37,4.81h51.38V187h-51.38Zm0,498.78h51.38V685.73h-51.38Zm0,498.78h51.38v181.15h-51.38ZM876.45,4.81h52.88V187H876.45Zm0,498.78h52.88V685.73H876.45Zm0,498.78h52.88v181.15H876.45ZM752.24,316.48h51.38V498.62H752.24Zm0,498.78h51.38V996.41H752.24ZM627.54,4.81h51.38V187H627.54Zm0,498.78h51.38V685.73H627.54Zm0,498.78h51.38v181.15H627.54ZM378.62,4.81h52.87V187H378.62Zm0,498.78h52.87V685.73H378.62Zm0,498.78h52.87v181.15H378.62ZM254.41,316.48h51.38V498.62H254.41Zm0,498.78h51.38V996.41H254.41ZM129.7,4.81h51.38V187H129.7Zm0,498.78h51.38V685.73H129.7Zm0,498.78h51.38v181.15H129.7Zm-5,492.82H5V1002.37H66.35v186.11h58.36Zm0-311.67H71.33V1002.37h53.38Zm0-187.11H5V503.59H66.35V690.7h58.36Zm0-310.68H71.33V503.59h53.38Zm0-187.11H5V4.81H66.35V191.92h58.36Zm0-311.67H71.33V4.81h53.38ZM248.92,1495.19H196V1313.05h52.88Zm0-187.11H191.05v187.11H129.7V1188.48h56.37V1002.37h62.85Zm0-311.67H196V815.26h52.88Zm0-186.11H191.05V996.41H129.7V690.7h56.37V503.59h62.85Zm0-311.68H196V316.48h52.88Zm0-187.1H191.05v187.1H129.7V191.92h56.37V4.81h62.85Zm56.87,1183.67H254.41V1313.05h51.38Zm67.84,0H310.77V1308.08H254.41V1002.37h62.35v186.11h56.87Zm0-311.67H321.75V1002.37h51.88Zm0-187.11H310.77V810.3H254.41V503.59h62.35V690.7h56.87Zm0-310.68H321.75V503.59h51.88Zm0-187.11H310.77V311.52H254.41V4.81h62.35V191.92h56.87Zm0-311.67H321.75V4.81h51.88ZM497.84,1495.19H378.62V1188.48h57.86V1002.37h61.36Zm0-498.78H378.62V690.7h57.86V503.59h61.36Zm0-497.79H378.62V191.92h57.86V4.81h61.36Zm124.71,996.57H503.33V1002.37h60.85v186.11h58.37Zm0-311.67H569.17V1002.37h53.38Zm0-187.11H503.33V503.59h60.85V690.7h58.37Zm0-310.68H569.17V503.59h53.38Zm0-187.11H503.33V4.81h60.85V191.92h58.37Zm0-311.67H569.17V4.81h53.38ZM746.76,1495.19H693.88V1313.05h52.88Zm0-187.11H688.89v187.11H627.54V1188.48H683.9V1002.37h62.86Zm0-311.67H693.88V815.26h52.88Zm0-186.11H688.89V996.41H627.54V690.7H683.9V503.59h62.86Zm0-311.68H693.88V316.48h52.88Zm0-187.1H688.89v187.1H627.54V191.92H683.9V4.81h62.86Zm56.86,1183.67H752.24V1313.05h51.38Zm67.85,0H808.61V1308.08H752.24V1002.37H814.6v186.11h56.87Zm0-311.67H819.59V1002.37h51.88Zm0-187.11H808.61V810.3H752.24V503.59H814.6V690.7h56.87Zm0-310.68H819.59V503.59h51.88Zm0-187.11H808.61V311.52H752.24V4.81H814.6V191.92h56.87Zm0-311.67H819.59V4.81h51.88ZM996.18,1495.19H876.45V1188.48h57.87V1002.37h61.86Zm0-498.78H876.45V690.7h57.87V503.59h61.86Zm0-497.79H876.45V191.92h57.87V4.81h61.86Zm125.2,996.57H1001.66V1002.37H1063v186.11h58.36Zm0-311.67H1068V1002.37h53.37Zm0-187.11H1001.66V503.59H1063V690.7h58.36Zm0-310.68H1068V503.59h53.37Zm0-187.11H1001.66V4.81H1063V191.92h58.36Zm0-311.67H1068V4.81h53.37Zm124.21,1308.24h-52.87V1313.05h52.87Zm0-187.11h-57.86v187.11h-61.36V1188.48h56.37V1002.37h62.85Zm0-311.67h-52.87V815.26h52.87Zm0-186.11h-57.86V996.41h-61.36V690.7h56.37V503.59h62.85Zm0-311.68h-52.87V316.48h52.87Zm0-187.1h-57.86v187.1h-61.36V191.92h56.37V4.81h62.85Zm56.87,1183.67h-51.38V1313.05h51.38Zm67.84,0h-62.85V1308.08h-56.37V1002.37h62.36v186.11h56.86Zm0-311.67h-51.88V1002.37h51.88Zm0-187.11h-62.85V810.3h-56.37V503.59h62.36V690.7h56.86Zm0-310.68h-51.88V503.59h51.88Zm0-187.11h-62.85V311.52h-56.37V4.81h62.36V191.92h56.86Zm0-311.67h-51.88V4.81h51.88ZM1495,1495.19H1375.29V1188.48h57.87V1002.37H1495Zm0-498.78H1375.29V690.7h57.87V503.59H1495Zm0-497.79H1375.29V191.92h57.87V4.81H1495Z" style="fill: #006837"/>
  </g>  <g id="base">
    <rect y="1330.87" width="1500" height="168.98" style="fill: #00a651"/>
  </g>  <g id="land">
    <rect x="0.46" y="1028.55" width="1500.11" height="302.58" style="fill: #ffe600"/>
  </g>  <g id="city">
    <line x1="0.12" y1="1028.95" x2="1500.12" y2="1028.95" style="fill: #ffc0f9;stroke: #000;stroke-miterlimit: 10;stroke-width: 3px"/>
    <path d="M1169.42,348.81h-42s-1-13-11-13-9,10-9,10-7-25-28-25-30,26-30,26-16-4-20,2-3,17-3,17h-36" style="fill: none;stroke: #000;stroke-miterlimit: 10;stroke-width: 3px"/>
    <path d="M226.92,323.81s9.23-16.19,21.61-17.59S266.36,324,266.36,324s6.52-12.93,17-14.58,21.52,14.35,21.52,14.35" style="fill: none;stroke: #000;stroke-miterlimit: 10;stroke-width: 3px"/>
    <path d="M846.15,240.08l8.27,2.23-5.5,1.48a8.52,8.52,0,0,0-6,6l-1.48,5.5-1.76-6.54a6.66,6.66,0,0,0-4.7-4.7l-6.54-1.76,6.48-1.75a6.73,6.73,0,0,0,4.77-4.77l1.75-6.48,2.23,8.27A3.53,3.53,0,0,0,846.15,240.08Z" style="fill: none;stroke: #000;stroke-miterlimit: 10;stroke-width: 2px"/>
    <path d="M492.15,172.08l8.27,2.23-5.5,1.48a8.52,8.52,0,0,0-6,6l-1.48,5.5-1.76-6.54a6.66,6.66,0,0,0-4.7-4.7l-6.54-1.76,6.48-1.75a6.73,6.73,0,0,0,4.77-4.77l1.75-6.48,2.23,8.27A3.53,3.53,0,0,0,492.15,172.08Z" style="fill: none;stroke: #000;stroke-miterlimit: 10;stroke-width: 2px"/>
    <path d="M1260.15,370.08l8.27,2.23-5.5,1.48a8.52,8.52,0,0,0-6,6l-1.48,5.5-1.76-6.54a6.66,6.66,0,0,0-4.7-4.7l-6.54-1.76,6.48-1.75a6.73,6.73,0,0,0,4.77-4.77l1.75-6.48,2.23,8.27A3.53,3.53,0,0,0,1260.15,370.08Z" style="fill: none;stroke: #000;stroke-miterlimit: 10;stroke-width: 2px"/>
    <path d="M980.36,217.37s.71-9.26,7.84-9.26,6.41,7.12,6.41,7.12,5-17.82,20-17.82S1036,216,1036,216s11.41-2.85,14.26,1.42,2.14,12.12,2.14,12.12" style="fill: none;stroke: #000;stroke-miterlimit: 10;stroke-width: 3px"/>
    <path d="M573.15,522.08l8.27,2.23-5.5,1.48a8.52,8.52,0,0,0-6,6l-1.48,5.5-1.76-6.54a6.66,6.66,0,0,0-4.7-4.7l-6.54-1.76,6.48-1.75a6.73,6.73,0,0,0,4.77-4.77l1.75-6.48,2.23,8.27A3.53,3.53,0,0,0,573.15,522.08Z" style="fill: none;stroke: #000;stroke-miterlimit: 10;stroke-width: 2px"/>
    <path d="M396.15,453.08l8.27,2.23-5.5,1.48a8.52,8.52,0,0,0-6,6l-1.48,5.5-1.76-6.54a6.66,6.66,0,0,0-4.7-4.7l-6.54-1.76,6.48-1.75a6.73,6.73,0,0,0,4.77-4.77l1.75-6.48,2.23,8.27A3.53,3.53,0,0,0,396.15,453.08Z" style="fill: none;stroke: #000;stroke-miterlimit: 10;stroke-width: 2px"/>
    <path d="M1148.15,280.08l8.27,2.23-5.5,1.48a8.52,8.52,0,0,0-6,6l-1.48,5.5-1.76-6.54a6.66,6.66,0,0,0-4.7-4.7l-6.54-1.76,6.48-1.75a6.73,6.73,0,0,0,4.77-4.77l1.75-6.48,2.23,8.27A3.53,3.53,0,0,0,1148.15,280.08Z" style="fill: none;stroke: #000;stroke-miterlimit: 10;stroke-width: 2px"/>
    <g>
      <polyline points="306.62 748.49 321.88 654.58 414.63 654.58 425.19 748.49" style="fill: #ffc299;stroke: #000;stroke-miterlimit: 10;stroke-width: 3px"/>
      <polygon points="126.42 1027.31 606.57 1027.31 606.57 967.43 588.96 938.09 147.55 938.09 126.42 967.43 126.42 1027.31" style="fill: #ffc299;stroke: #000;stroke-miterlimit: 10;stroke-width: 3px"/>
      <line x1="516.76" y1="937.5" x2="516.76" y2="1027.31" style="fill: #ffc299;stroke: #000;stroke-miterlimit: 10;stroke-width: 3px"/>
      <line x1="428.66" y1="938.09" x2="428.66" y2="1027.31" style="fill: #ffc299;stroke: #000;stroke-miterlimit: 10;stroke-width: 3px"/>
      <line x1="303.03" y1="938.09" x2="303.03" y2="1027.31" style="fill: #ffc299;stroke: #000;stroke-miterlimit: 10;stroke-width: 3px"/>
      <line x1="218.08" y1="1027.31" x2="218.08" y2="938.09" style="fill: #ffc299;stroke: #000;stroke-miterlimit: 10;stroke-width: 3px"/>
      <line x1="127.01" y1="966.85" x2="607.15" y2="966.85" style="fill: #ffc299;stroke: #000;stroke-miterlimit: 10;stroke-width: 3px"/>
      <rect x="154.01" y="989.15" width="9.39" height="12.91" style="fill: #ffc299;stroke: #000;stroke-miterlimit: 10;stroke-width: 3px"/>
      <rect x="188.05" y="989.15" width="11.74" height="12.91" style="fill: #ffc299;stroke: #000;stroke-miterlimit: 10;stroke-width: 3px"/>
      <path d="M229.14,1018.5v-34s5.87-10.57,9.39-10.57,8.22,9.39,8.22,9.39v35.22Z" style="fill: #ffc299;stroke: #000;stroke-miterlimit: 10;stroke-width: 3px"/>
      <polyline points="257.31 973.89 273.75 993.85 308.97 993.85" style="fill: #ffc299;stroke: #000;stroke-miterlimit: 10;stroke-width: 3px"/>
      <line x1="325.4" y1="966.85" x2="325.4" y2="1027.31" style="fill: #ffc299;stroke: #000;stroke-miterlimit: 10;stroke-width: 3px"/>
      <polyline points="428.66 993.85 459.24 993.85 481.31 966.85" style="fill: #ffc299;stroke: #000;stroke-miterlimit: 10;stroke-width: 3px"/>
      <rect x="533.2" y="989.15" width="11.74" height="12.91" style="fill: #ffc299;stroke: #000;stroke-miterlimit: 10;stroke-width: 3px"/>
      <rect x="570.76" y="989.15" width="8.22" height="12.91" style="fill: #ffc299;stroke: #000;stroke-miterlimit: 10;stroke-width: 3px"/>
      <g>
        <path d="M526.15,899.93s-8.22-9.39-9.39-17.61,34-32.87,34-32.87,35.22,27,35.22,32.87c0,12.92-11.74,16.44-11.74,16.44Z" style="fill: #8cc63f;stroke: #000;stroke-miterlimit: 10;stroke-width: 3px"/>
        <rect x="530.26" y="899.35" width="39.91" height="11.74" style="fill: #ffc299;stroke: #000;stroke-miterlimit: 10;stroke-width: 3px"/>
        <rect x="530.26" y="911.09" width="39.91" height="25.83" style="fill: #ffc299;stroke: #000;stroke-miterlimit: 10;stroke-width: 3px"/>
        <line x1="550.32" y1="804.25" x2="550.32" y2="850.04" style="fill: #ffc299;stroke: #000;stroke-miterlimit: 10;stroke-width: 3px"/>
        <line x1="543.86" y1="811.3" x2="556.77" y2="811.3" style="fill: #ffc299;stroke: #000;stroke-miterlimit: 10;stroke-width: 2px"/>
        <circle cx="550.32" cy="831.55" r="3.23" style="fill: #ffc299;stroke: #000;stroke-miterlimit: 10;stroke-width: 3px"/>
        <line x1="544.93" y1="853.72" x2="544.93" y2="899.35" style="fill: #ffc299;stroke: #000;stroke-miterlimit: 10;stroke-width: 3px"/>
        <line x1="556.09" y1="853.72" x2="556.09" y2="899.15" style="fill: #ffc299;stroke: #000;stroke-miterlimit: 10;stroke-width: 3px"/>
        <line x1="564.75" y1="860.61" x2="564.75" y2="897" style="fill: #ffc299;stroke: #000;stroke-miterlimit: 10;stroke-width: 3px"/>
        <line x1="573.21" y1="867.85" x2="573.21" y2="899.35" style="fill: #ffc299;stroke: #000;stroke-miterlimit: 10;stroke-width: 3px"/>
        <line x1="536.03" y1="860.61" x2="536.03" y2="899.35" style="fill: #ffc299;stroke: #000;stroke-miterlimit: 10;stroke-width: 3px"/>
        <line x1="527.52" y1="867.85" x2="527.52" y2="899.35" style="fill: #ffc299;stroke: #000;stroke-miterlimit: 10;stroke-width: 3px"/>
      </g>
      <g>
        <path d="M158.7,901.11s-8.21-9.4-9.39-17.61,34.05-32.87,34.05-32.87,35.21,27,35.21,32.87c0,12.91-11.73,16.43-11.73,16.43Z" style="fill: #7ac943;stroke: #000;stroke-miterlimit: 10;stroke-width: 3px"/>
        <rect x="162.81" y="900.52" width="39.91" height="11.74" style="fill: #ffc299;stroke: #000;stroke-miterlimit: 10;stroke-width: 3px"/>
        <rect x="162.81" y="912.26" width="39.91" height="25.83" style="fill: #ffc299;stroke: #000;stroke-miterlimit: 10;stroke-width: 3px"/>
        <line x1="182.87" y1="805.43" x2="182.87" y2="851.21" style="fill: #ffc299;stroke: #000;stroke-miterlimit: 10;stroke-width: 3px"/>
        <line x1="176.41" y1="812.47" x2="189.32" y2="812.47" style="fill: #ffc299;stroke: #000;stroke-miterlimit: 10;stroke-width: 2px"/>
        <circle cx="182.87" cy="832.72" r="3.23" style="fill: #ffc299;stroke: #000;stroke-miterlimit: 10;stroke-width: 3px"/>
        <line x1="177.49" y1="854.89" x2="177.49" y2="900.52" style="fill: #ffc299;stroke: #000;stroke-miterlimit: 10;stroke-width: 3px"/>
        <line x1="188.64" y1="854.89" x2="188.64" y2="900.32" style="fill: #ffc299;stroke: #000;stroke-miterlimit: 10;stroke-width: 3px"/>
        <line x1="197.3" y1="861.79" x2="197.3" y2="898.17" style="fill: #ffc299;stroke: #000;stroke-miterlimit: 10;stroke-width: 3px"/>
        <line x1="205.77" y1="869.02" x2="205.77" y2="900.52" style="fill: #ffc299;stroke: #000;stroke-miterlimit: 10;stroke-width: 3px"/>
        <line x1="168.58" y1="861.79" x2="168.58" y2="900.52" style="fill: #ffc299;stroke: #000;stroke-miterlimit: 10;stroke-width: 3px"/>
        <line x1="160.07" y1="869.02" x2="160.07" y2="900.52" style="fill: #ffc299;stroke: #000;stroke-miterlimit: 10;stroke-width: 3px"/>
      </g>
      <g>
        <rect x="215.05" y="928.11" width="88.05" height="8.22" style="fill: #ffc299;stroke: #000;stroke-miterlimit: 10;stroke-width: 3px"/>
        <rect x="218.57" y="919.89" width="84.52" height="8.22" style="fill: #ffc299;stroke: #000;stroke-miterlimit: 10;stroke-width: 3px"/>
        <rect x="223.27" y="911.67" width="79.83" height="7.04" style="fill: #ffc299;stroke: #000;stroke-miterlimit: 10;stroke-width: 3px"/>
        <rect x="223.27" y="838.89" width="79.83" height="70.44" style="fill: #ffc299;stroke: #000;stroke-miterlimit: 10;stroke-width: 3px"/>
        <path d="M249.1,837.71V827.15s1.17-10.57,11.74-10.57,12.91,10.57,12.91,10.57v10.56" style="fill: #8cc63f;stroke: #000;stroke-miterlimit: 10;stroke-width: 3px"/>
        <path d="M223.27,838.3V827.73s1.17-10.56,11.74-10.56,12.91,10.56,12.91,10.56V838.3" style="fill: #8cc63f;stroke: #000;stroke-miterlimit: 10;stroke-width: 3px"/>
        <path d="M276.1,837.13V826.56S277.27,816,287.84,816s12.91,10.57,12.91,10.57v10.57" style="fill: #8cc63f;stroke: #000;stroke-miterlimit: 10;stroke-width: 3px"/>
        <polyline points="222.68 908.74 235.6 838.89 249.69 906.39 263.19 838.89 276.69 906.39 290.77 840.65 302.51 908.74" style="fill: #c69c6d;stroke: #000;stroke-linejoin: round;stroke-width: 3px"/>
        <polyline points="235.6 817.17 235.6 779.6 290.77 779.6 290.77 814.82" style="fill: #ffc299;stroke: #000;stroke-miterlimit: 10;stroke-width: 3px"/>
        <polyline points="244.4 813.06 244.4 787.23 253.79 787.23 253.79 810.71" style="fill: #ffc299;stroke: #000;stroke-miterlimit: 10;stroke-width: 3px"/>
        <polyline points="259.66 813.06 259.66 787.23 264.36 787.23" style="fill: #ffc299;stroke: #000;stroke-miterlimit: 10;stroke-width: 3px"/>
        <polyline points="273.75 787.23 278.45 787.23 278.45 813.06" style="fill: #ffc299;stroke: #000;stroke-miterlimit: 10;stroke-width: 3px"/>
        <polygon points="229.14 768.45 296.06 768.45 291.36 780.19 236.18 780.19 229.14 768.45" style="fill: #ffc299;stroke: #000;stroke-miterlimit: 10;stroke-width: 3px"/>
        <path d="M294.88,768.45s9.39-11.74,12.92-16.44,4.69-12.91,2.34-18.78-46.95-44.61-46.95-44.61l-48.14,41.09s-5.87,12.91,0,21.13,14.09,17.61,14.09,17.61" style="fill: #3fa9f5;stroke: #000;stroke-miterlimit: 10;stroke-width: 3px"/>
        <line x1="262.7" y1="630.51" x2="262.7" y2="688.03" style="fill: #ffc299;stroke: #000;stroke-miterlimit: 10;stroke-width: 3px"/>
        <line x1="255.55" y1="637.55" x2="268.47" y2="637.55" style="fill: #ffc299;stroke: #000;stroke-miterlimit: 10;stroke-width: 2px"/>
        <circle cx="262.7" cy="662.5" r="3.23" style="fill: #ffc299;stroke: #000;stroke-miterlimit: 10;stroke-width: 3px"/>
        <path d="M278.45,702.71s18.78,22.22,18.78,30.52c0,10.57-2.35,12.91-5.87,17.61-5.5,7.34-13.87,17.61-13.87,17.61" style="fill: #fff;stroke: #000;stroke-linejoin: round;stroke-width: 3px"/>
        <path d="M246.75,702.71S228,724.93,228,733.23c0,10.57,2.34,12.91,5.87,17.61,5.5,7.34,13.87,17.61,13.87,17.61" style="fill: #fff;stroke: #000;stroke-linejoin: round;stroke-width: 3px"/>
        <path d="M259.66,692.14s-11.74,20-15.26,28.18-4.69,9.39-3.52,15.26,12.91,31.7,12.91,31.7" style="fill: #3fa9f5;stroke: #000;stroke-miterlimit: 10;stroke-width: 3px"/>
        <path d="M265.53,692.14s11.74,20,15.26,28.18,4.7,9.39,3.53,15.26-12.92,31.7-12.92,31.7" style="fill: #3fa9f5;stroke: #000;stroke-miterlimit: 10;stroke-width: 3px"/>
        <path d="M262,691s-8.8,22.89-8.8,40.5,8.21,37,8.21,37,9.4-20.54,9.4-35.81S263.19,691,263.19,691" style="fill: #fff;stroke: #000;stroke-linejoin: round;stroke-width: 3px"/>
      </g>
      <g>
        <rect x="428.5" y="928.11" width="88.05" height="8.22" transform="translate(945.05 1864.43) rotate(-180)" style="fill: #ffc299;stroke: #000;stroke-miterlimit: 10;stroke-width: 3px"/>
        <rect x="428.5" y="919.89" width="84.52" height="8.22" transform="translate(941.52 1848) rotate(-180)" style="fill: #ffc299;stroke: #000;stroke-miterlimit: 10;stroke-width: 3px"/>
        <rect x="428.5" y="911.67" width="79.83" height="7.04" transform="translate(936.83 1830.39) rotate(-180)" style="fill: #ffc299;stroke: #000;stroke-miterlimit: 10;stroke-width: 3px"/>
        <rect x="428.5" y="838.89" width="79.83" height="70.44" transform="translate(936.83 1748.21) rotate(-180)" style="fill: #ffc299;stroke: #000;stroke-miterlimit: 10;stroke-width: 3px"/>
        <path d="M482.5,837.71V827.15s-1.17-10.57-11.74-10.57-12.91,10.57-12.91,10.57v10.56" style="fill: #7ac943;stroke: #000;stroke-miterlimit: 10;stroke-width: 3px"/>
        <path d="M508.33,838.3V827.73s-1.17-10.56-11.74-10.56-12.91,10.56-12.91,10.56V838.3" style="fill: #7ac943;stroke: #000;stroke-miterlimit: 10;stroke-width: 3px"/>
        <path d="M455.5,837.13V826.56S454.33,816,443.76,816s-12.91,10.57-12.91,10.57v10.57" style="fill: #7ac943;stroke: #000;stroke-miterlimit: 10;stroke-width: 3px"/>
        <polyline points="508.92 908.74 496 838.89 481.92 906.39 468.41 838.89 454.91 906.39 440.83 840.65 429.09 908.74" style="fill: #a67c52;stroke: #000;stroke-linejoin: round;stroke-width: 3px"/>
        <polyline points="496 817.17 496 779.6 440.83 779.6 440.83 814.82" style="fill: #ffc299;stroke: #000;stroke-miterlimit: 10;stroke-width: 3px"/>
        <polyline points="487.2 813.06 487.2 787.23 477.81 787.23 477.81 810.71" style="fill: #ffc299;stroke: #000;stroke-miterlimit: 10;stroke-width: 3px"/>
        <polyline points="471.94 813.06 471.94 787.23 467.24 787.23" style="fill: #ffc299;stroke: #000;stroke-miterlimit: 10;stroke-width: 3px"/>
        <polyline points="457.85 787.23 453.15 787.23 453.15 813.06" style="fill: #ffc299;stroke: #000;stroke-miterlimit: 10;stroke-width: 3px"/>
        <polygon points="502.46 768.45 435.54 768.45 440.24 780.19 495.42 780.19 502.46 768.45" style="fill: #ffc299;stroke: #000;stroke-miterlimit: 10;stroke-width: 3px"/>
        <path d="M436.72,768.45S427.33,756.71,423.8,752s-4.69-12.91-2.34-18.78,47-44.61,47-44.61l48.14,41.09s5.87,12.91,0,21.13-14.09,17.61-14.09,17.61" style="fill: #f7931e;stroke: #000;stroke-miterlimit: 10;stroke-width: 3px"/>
        <line x1="468.9" y1="630.51" x2="468.9" y2="688.03" style="fill: #ffc299;stroke: #000;stroke-miterlimit: 10;stroke-width: 3px"/>
        <line x1="476.05" y1="637.55" x2="463.13" y2="637.55" style="fill: #ffc299;stroke: #000;stroke-miterlimit: 10;stroke-width: 2px"/>
        <circle cx="468.9" cy="662.5" r="3.23" style="fill: #ffc299;stroke: #000;stroke-miterlimit: 10;stroke-width: 3px"/>
        <path d="M453.15,702.71s-18.78,22.22-18.78,30.52c0,10.57,2.35,12.91,5.87,17.61,5.5,7.34,13.87,17.61,13.87,17.61" style="fill: #7ac943;stroke: #000;stroke-linejoin: round;stroke-width: 3px"/>
        <path d="M484.85,702.71s18.78,22.22,18.78,30.52c0,10.57-2.34,12.91-5.87,17.61-5.5,7.34-13.87,17.61-13.87,17.61" style="fill: #7ac943;stroke: #000;stroke-linejoin: round;stroke-width: 3px"/>
        <path d="M466.07,692.14s-11.74,20-15.26,28.18-4.7,9.39-3.53,15.26,12.92,31.7,12.92,31.7" style="fill: #f7931e;stroke: #000;stroke-miterlimit: 10;stroke-width: 3px"/>
        <path d="M471.94,692.14s11.74,20,15.26,28.18,4.69,9.39,3.52,15.26-12.91,31.7-12.91,31.7" style="fill: #f7931e;stroke: #000;stroke-miterlimit: 10;stroke-width: 3px"/>
        <path d="M469.59,691s8.8,22.89,8.8,40.5-8.21,37-8.21,37-9.4-20.54-9.4-35.81S468.41,691,468.41,691" style="fill: #7ac943;stroke: #000;stroke-linejoin: round;stroke-width: 3px"/>
      </g>
      <rect x="302.51" y="811.3" width="125.61" height="124.44" style="fill: #ff9a55;stroke: #000;stroke-miterlimit: 10;stroke-width: 3px"/>
      <path d="M333.14,861.78h3.31a9.5,9.5,0,0,1,9.5,9.5v39.81a0,0,0,0,1,0,0H323.64a0,0,0,0,1,0,0V871.28A9.5,9.5,0,0,1,333.14,861.78Z" style="fill: #ffc299;stroke: #000;stroke-miterlimit: 10;stroke-width: 3px"/>
      <path d="M364.25,862.37h3.31a9.5,9.5,0,0,1,9.5,9.5v39.81a0,0,0,0,1,0,0H354.75a0,0,0,0,1,0,0V871.87A9.5,9.5,0,0,1,364.25,862.37Z" style="fill: #ffc299;stroke: #000;stroke-miterlimit: 10;stroke-width: 3px"/>
      <path d="M397.12,862.37h3.31a9.5,9.5,0,0,1,9.5,9.5v39.81a0,0,0,0,1,0,0H387.62a0,0,0,0,1,0,0V871.87A9.5,9.5,0,0,1,397.12,862.37Z" style="fill: #ffc299;stroke: #000;stroke-miterlimit: 10;stroke-width: 3px"/>
      <line x1="303.1" y1="911.67" x2="428.5" y2="911.67" style="fill: #ffc299;stroke: #000;stroke-miterlimit: 10;stroke-width: 3px"/>
      <rect x="313.67" y="835.36" width="104.48" height="18.78" style="fill: #ffc299;stroke: #000;stroke-miterlimit: 10;stroke-width: 3px"/>
      <rect x="319.54" y="748.49" width="42.26" height="61.05" style="fill: #ffc299;stroke: #000;stroke-miterlimit: 10;stroke-width: 3px"/>
      <rect x="373.54" y="748.49" width="41.09" height="61.05" style="fill: #ffc299;stroke: #000;stroke-miterlimit: 10;stroke-width: 3px"/>
      <rect x="386.45" y="780.19" width="14.09" height="23.48" style="fill: #ffc299;stroke: #000;stroke-miterlimit: 10;stroke-width: 3px"/>
      <rect x="334.8" y="780.19" width="12.91" height="23.48" style="fill: #ffc299;stroke: #000;stroke-miterlimit: 10;stroke-width: 3px"/>
      <line x1="311.37" y1="748.49" x2="420.5" y2="748.49" style="fill: #ffc299;stroke: #000;stroke-miterlimit: 10;stroke-width: 3px"/>
      <path d="M425.19,759.06v51.65" style="fill: #ffc299;stroke: #000;stroke-miterlimit: 10;stroke-width: 3px"/>
      <line x1="308" y1="810.71" x2="308" y2="752.01" style="fill: #ffc299;stroke: #000;stroke-miterlimit: 10;stroke-width: 3px"/>
      <polyline points="325.4 652.23 355.93 563.01 361.8 563.01 375.88 563.01 411.1 652.23" style="fill: #ffc299;stroke: #000;stroke-miterlimit: 10;stroke-width: 3px"/>
      <line x1="343.38" y1="652.23" x2="361.8" y2="563.01" style="fill: #ffc299;stroke: #000;stroke-miterlimit: 10;stroke-width: 3px"/>
      <line x1="367.08" y1="652.23" x2="368.25" y2="563.01" style="fill: #ffc299;stroke: #000;stroke-miterlimit: 10;stroke-width: 3px"/>
      <line x1="388.05" y1="652.23" x2="373.54" y2="563.01" style="fill: #ffc299;stroke: #000;stroke-miterlimit: 10;stroke-width: 3px"/>
      <path d="M319.54,743.8s1.17-20,15.26-18.79,15.26,18.79,15.26,18.79" style="fill: none;stroke: #000;stroke-miterlimit: 10;stroke-width: 3px"/>
      <path d="M351.23,743.8s1.18-20,15.26-18.79,15.26,18.79,15.26,18.79" style="fill: none;stroke: #000;stroke-miterlimit: 10;stroke-width: 3px"/>
      <path d="M382.93,743.8s1.17-20,15.26-18.79,15.26,18.79,15.26,18.79" style="fill: none;stroke: #000;stroke-miterlimit: 10;stroke-width: 3px"/>
      <g>
        <path d="M319.54,726.19s1.17-20,15.26-18.79,15.26,18.79,15.26,18.79" style="fill: none;stroke: #000;stroke-miterlimit: 10;stroke-width: 3px"/>
        <path d="M351.23,726.19s1.18-20,15.26-18.79,15.26,18.79,15.26,18.79" style="fill: none;stroke: #000;stroke-miterlimit: 10;stroke-width: 3px"/>
        <path d="M382.93,726.19s1.17-20,15.26-18.79,15.26,18.79,15.26,18.79" style="fill: none;stroke: #000;stroke-miterlimit: 10;stroke-width: 3px"/>
      </g>
      <g>
        <path d="M322.47,707.4s1.14-19.95,14.78-18.78S352,707.4,352,707.4" style="fill: none;stroke: #000;stroke-miterlimit: 10;stroke-width: 3px"/>
        <path d="M353.18,707.4s1.13-19.95,14.78-18.78,14.79,18.78,14.79,18.78" style="fill: none;stroke: #000;stroke-miterlimit: 10;stroke-width: 3px"/>
        <path d="M383.88,707.4s1.14-19.95,14.79-18.78,14.78,18.78,14.78,18.78" style="fill: none;stroke: #000;stroke-miterlimit: 10;stroke-width: 3px"/>
      </g>
      <g>
        <path d="M324.82,686.27s1.05-20,13.73-18.78,13.74,18.78,13.74,18.78" style="fill: none;stroke: #000;stroke-miterlimit: 10;stroke-width: 3px"/>
        <path d="M353.35,686.27s1-20,13.73-18.78,13.74,18.78,13.74,18.78" style="fill: none;stroke: #000;stroke-miterlimit: 10;stroke-width: 3px"/>
        <path d="M381.87,686.27s1.06-20,13.74-18.78,13.73,18.78,13.73,18.78" style="fill: none;stroke: #000;stroke-miterlimit: 10;stroke-width: 3px"/>
      </g>
      <ellipse cx="366.49" cy="553.03" rx="17.02" ry="9.39" style="fill: #ffc299;stroke: #000;stroke-miterlimit: 10;stroke-width: 3px"/>
      <path d="M366.49,530.14a19.18,19.18,0,0,1-8.88-2.58,14.39,14.39,0,0,1-6.38-8c-3.52-10.57,16.44-31.7,16.44-31.7s18.78,23.48,18.78,29.35S379.41,530.14,366.49,530.14Z" style="fill: #fcee21;stroke: #000;stroke-miterlimit: 10;stroke-width: 3px"/>
      <line x1="357.1" y1="544.22" x2="357.1" y2="527.79" style="fill: #ffc299;stroke: #000;stroke-miterlimit: 10;stroke-width: 3px"/>
      <line x1="377.06" y1="544.22" x2="377.06" y2="528.1" style="fill: #ffc299;stroke: #000;stroke-miterlimit: 10;stroke-width: 3px"/>
      <line x1="367.67" y1="487.87" x2="367.67" y2="450.31" style="fill: #ffc299;stroke: #000;stroke-miterlimit: 10;stroke-width: 3px"/>
      <line x1="357.1" y1="462.05" x2="377.06" y2="462.05" style="fill: #ffc299;stroke: #000;stroke-miterlimit: 10;stroke-width: 3px"/>
    </g>
    <g>
      <path d="M892,1026.81V623.29s32.63-30.46,79.4-34.81,46.76,0,46.76,0v438.33Z" style="fill: #8d98ff;stroke: #000;stroke-miterlimit: 10;stroke-width: 3px"/>
      <polyline points="1052.98 586.31 1029.05 596.1 1029.05 1026.81 1052.98 1026.81 1052.98 586.31" style="fill: #8d98ff;stroke: #000;stroke-miterlimit: 10;stroke-width: 3px"/>
      <line x1="1018.17" y1="1026.81" x2="1029.05" y2="1026.81" style="fill: #8d98ff;stroke: #000;stroke-miterlimit: 10;stroke-width: 3px"/>
      <line x1="1018.17" y1="588.48" x2="1029.05" y2="596.1" style="fill: #8d98ff;stroke: #000;stroke-miterlimit: 10;stroke-width: 3px"/>
      <line x1="1053.52" y1="1007.23" x2="892.01" y2="1007.23" style="fill: #8d98ff;stroke: #000;stroke-miterlimit: 10;stroke-width: 3px"/>
      <line x1="1053.52" y1="993.09" x2="892.01" y2="993.09" style="fill: #8d98ff;stroke: #000;stroke-miterlimit: 10;stroke-width: 3px"/>
      <line x1="1053.52" y1="975.69" x2="892.01" y2="975.69" style="fill: #8d98ff;stroke: #000;stroke-miterlimit: 10;stroke-width: 3px"/>
      <line x1="1053.52" y1="961.55" x2="892.01" y2="961.55" style="fill: #8d98ff;stroke: #000;stroke-miterlimit: 10;stroke-width: 3px"/>
      <path d="M892,640.68s33.65-25.17,63.62-31c36.44-7.07,62.54-2,62.54-2l9.25,6.38L1053,605.2" style="fill: #8d98ff;stroke: #000;stroke-miterlimit: 10;stroke-width: 3px"/>
      <path d="M892,655.91s33.65-25.18,63.62-31c36.44-7.07,62.54-2,62.54-2l9.25,6.38,25.56-8.84" style="fill: #8d98ff;stroke: #000;stroke-miterlimit: 10;stroke-width: 3px"/>
      <path d="M892,672.23s33.65-25.18,63.62-31c36.44-7.07,62.54-2,62.54-2l10.34,6.38,24.47-8.83" style="fill: #8d98ff;stroke: #000;stroke-miterlimit: 10;stroke-width: 3px"/>
      <path d="M892,688.54s33.65-23,63.62-28.82c36.44-7.07,62.54-4.2,62.54-4.2l10.34,7.47,24.47-8.84" style="fill: #8d98ff;stroke: #000;stroke-miterlimit: 10;stroke-width: 3px"/>
      <path d="M892,703.77s33.65-21.92,63.62-27.73c36.44-7.07,62.54-3.12,62.54-3.12l10.34,7.47,24.47-8.84" style="fill: #8d98ff;stroke: #000;stroke-miterlimit: 10;stroke-width: 3px"/>
      <path d="M892,717.91s33.65-19.74,63.62-25.56c36.44-7.07,62.54-3.11,62.54-3.11l10.34,7.46,24.47-8.83" style="fill: #8d98ff;stroke: #000;stroke-miterlimit: 10;stroke-width: 3px"/>
      <path d="M892,734.22s33.65-19.74,63.62-25.55c36.44-7.07,62.54-2,62.54-2l10.34,7.47,24.47-8.84" style="fill: #8d98ff;stroke: #000;stroke-miterlimit: 10;stroke-width: 3px"/>
      <path d="M892,748.36s33.65-16.47,63.62-22.29c36.44-7.07,62.54-2,62.54-2l10.34,5.29,24.47-9.92" style="fill: #8d98ff;stroke: #000;stroke-miterlimit: 10;stroke-width: 3px"/>
      <path d="M890.92,764.68s33.25-19.21,63.63-22.29c37.52-3.81,62.54-.95,62.54-.95l10.33,4.21,24.47-4.49" style="fill: #8d98ff;stroke: #000;stroke-miterlimit: 10;stroke-width: 3px"/>
      <path d="M890.92,779.9s33.25-18.12,63.63-21.2c37.52-3.81,62.54-.94,62.54-.94l10.33,4.2,24.47-4.48" style="fill: #8d98ff;stroke: #000;stroke-miterlimit: 10;stroke-width: 3px"/>
      <path d="M890.92,796.22S924.17,778.1,954.55,775c37.52-3.8,62.54-.94,62.54-.94l10.33,4.21,24.47-1.23" style="fill: #8d98ff;stroke: #000;stroke-miterlimit: 10;stroke-width: 3px"/>
      <path d="M890.92,811.44s33.25-18.12,63.63-21.2c37.52-3.8,62.54-.94,62.54-.94l10.33,4.2,24.47-1.22" style="fill: #8d98ff;stroke: #000;stroke-miterlimit: 10;stroke-width: 3px"/>
      <path d="M890.92,827.76s33.25-18.12,63.63-21.2c37.52-3.81,62.54-.94,62.54-.94l10.33,4.2,24.47-1.23" style="fill: #8d98ff;stroke: #000;stroke-miterlimit: 10;stroke-width: 3px"/>
      <path d="M890.92,843s33.25-14.86,63.63-17.94c37.52-3.81,62.54-2,62.54-2l10.33,3.11,24.47-1.22" style="fill: #8d98ff;stroke: #000;stroke-miterlimit: 10;stroke-width: 3px"/>
      <path d="M890.92,857.13s33.25-12.69,63.63-15.77c37.52-3.81,62.54-2,62.54-2l10.33,3.12,24.47-1.23" style="fill: #8d98ff;stroke: #000;stroke-miterlimit: 10;stroke-width: 3px"/>
      <path d="M892,871.27s33.25-11.6,63.62-14.68c37.53-3.81,62.54-.94,62.54-.94l10.34,3.11,24.47-.13" style="fill: #8d98ff;stroke: #000;stroke-miterlimit: 10;stroke-width: 3px"/>
      <path d="M890.92,887.58S924.17,876,954.55,872.9c37.52-3.8,62.54,1.24,62.54,1.24l10.33,2,24.47-1.23" style="fill: #8d98ff;stroke: #000;stroke-miterlimit: 10;stroke-width: 3px"/>
      <path d="M892,902.81s33.25-9.42,63.62-12.5c37.53-3.81,62.54,1.23,62.54,1.23l10.34.94,24.47-.14" style="fill: #8d98ff;stroke: #000;stroke-miterlimit: 10;stroke-width: 3px"/>
      <path d="M892,917s33.25-6.16,63.62-9.24c37.53-3.81,62.54,1.23,62.54,1.23l10.34-.14,24.47-1.23" style="fill: #8d98ff;stroke: #000;stroke-miterlimit: 10;stroke-width: 3px"/>
      <path d="M893.09,931.09s33.13-5.81,63.63-7.07c39.7-1.63,62.54.15,62.54.15l10.34,2,24.47-.14" style="fill: #8d98ff;stroke: #000;stroke-miterlimit: 10;stroke-width: 3px"/>
      <path d="M892,946.31s33.12-3.66,63.62-4.88c40.79-1.64,62.54.14,62.54.14l10.34,2,24.47-1.22" style="fill: #8d98ff;stroke: #000;stroke-miterlimit: 10;stroke-width: 3px"/>
    </g>
    <g>
      <path d="M1342.92,626.81l45-42s56,163,64,203,16,102,12,138-13,98-13,98-41-126-47-142-37-91-42-110-12-47-14-69S1342.92,626.81,1342.92,626.81Z" style="fill: #03a6d8;stroke: #000;stroke-miterlimit: 10;stroke-width: 3px"/>
      <path d="M1361.92,783.81s-21,96-19,130,19,114,19,114h89" style="fill: #03a6d8;stroke: #000;stroke-miterlimit: 10;stroke-width: 3px"/>
      <line x1="1358.03" y1="1008.81" x2="1444.92" y2="1004.81" style="fill: #03a6d8;stroke: #000;stroke-miterlimit: 10;stroke-width: 3px"/>
      <polyline points="1354.52 990.75 1436.38 979.28 1456.37 985.01" style="fill: #03a6d8;stroke: #000;stroke-miterlimit: 10;stroke-width: 3px"/>
      <polyline points="1459.81 959.3 1427.73 952.91 1350.81 970.55" style="fill: #03a6d8;stroke: #000;stroke-miterlimit: 10;stroke-width: 3px"/>
      <path d="M1347.35,949.94c-.43-.13,72.08-22.2,72.08-22.2l43.65,5.41" style="fill: #03a6d8;stroke: #000;stroke-miterlimit: 10;stroke-width: 3px"/>
      <polyline points="1464.98 909.11 1411.14 902.8 1344.49 929.95" style="fill: #03a6d8;stroke: #000;stroke-miterlimit: 10;stroke-width: 3px"/>
      <polyline points="1342.92 902.94 1402.13 877.16 1463.08 881.76" style="fill: #03a6d8;stroke: #000;stroke-miterlimit: 10;stroke-width: 3px"/>
      <polyline points="1463.08 856.48 1392.41 852.73 1344.49 882.13" style="fill: #03a6d8;stroke: #000;stroke-miterlimit: 10;stroke-width: 3px"/>
      <polyline points="1347.97 858.25 1383.82 831.17 1459.51 833.66" style="fill: #03a6d8;stroke: #000;stroke-miterlimit: 10;stroke-width: 3px"/>
      <polyline points="1455.97 810.1 1375.24 809.23 1353.03 828.49" style="fill: #03a6d8;stroke: #000;stroke-miterlimit: 10;stroke-width: 3px"/>
      <line x1="1366.81" y1="786.72" x2="1450.92" y2="787.81" style="fill: #03a6d8;stroke: #000;stroke-miterlimit: 10;stroke-width: 3px"/>
      <path d="M1361,768.13l84.27-6.34s7.69-55,10.69-75,0-79,0-79l-68-23" style="fill: #03a6d8;stroke: #000;stroke-miterlimit: 10;stroke-width: 3px"/>
      <line x1="1356.11" y1="748.65" x2="1436.99" y2="734.15" style="fill: #03a6d8;stroke: #000;stroke-miterlimit: 10;stroke-width: 3px"/>
      <polyline points="1353.03 730.41 1429.42 709.97 1450.92 720.12" style="fill: #03a6d8;stroke: #000;stroke-miterlimit: 10;stroke-width: 3px"/>
      <line x1="1454.54" y1="696.16" x2="1422.97" y2="683.81" style="fill: #03a6d8;stroke: #000;stroke-miterlimit: 10;stroke-width: 3px"/>
      <line x1="1413.92" y1="654.81" x2="1457.01" y2="672.63" style="fill: #03a6d8;stroke: #000;stroke-miterlimit: 10;stroke-width: 3px"/>
      <line x1="1455.98" y1="646.6" x2="1404.5" y2="629.26" style="fill: #03a6d8;stroke: #000;stroke-miterlimit: 10;stroke-width: 3px"/>
      <line x1="1396.55" y1="605.06" x2="1456.65" y2="625.65" style="fill: #03a6d8;stroke: #000;stroke-miterlimit: 10;stroke-width: 3px"/>
      <line x1="1344.07" y1="646.6" x2="1396.55" y2="615.35" style="fill: #03a6d8;stroke: #000;stroke-miterlimit: 10;stroke-width: 3px"/>
      <line x1="1407.04" y1="641.43" x2="1343.92" y2="668.81" style="fill: #03a6d8;stroke: #000;stroke-miterlimit: 10;stroke-width: 3px"/>
      <line x1="1346.89" y1="689.99" x2="1415.12" y2="665.83" style="fill: #03a6d8;stroke: #000;stroke-miterlimit: 10;stroke-width: 3px"/>
      <line x1="1422.97" y1="689.86" x2="1348.72" y2="709.96" style="fill: #03a6d8;stroke: #000;stroke-miterlimit: 10;stroke-width: 3px"/>
    </g>
    <g>
      <line x1="1099.49" y1="836.15" x2="1099.49" y2="928.58" style="fill: #b0f0ff;stroke: #000;stroke-miterlimit: 10;stroke-width: 3px"/>
      <line x1="1081.92" y1="934.81" x2="1092.92" y2="939.81" style="fill: #b0f0ff;stroke: #000;stroke-miterlimit: 10;stroke-width: 3px"/>
      <g>
        <polygon points="1092.92 1028.81 1092.92 939.81 1141.92 928.81 1181.92 945.81 1181.92 1028.81 1092.92 1028.81" style="fill: #b0f0ff;stroke: #000;stroke-miterlimit: 10;stroke-width: 3px"/>
        <line x1="1141.92" y1="928.81" x2="1141.92" y2="1030.31" style="fill: #b0f0ff;stroke: #000;stroke-miterlimit: 10;stroke-width: 3px"/>
        <line x1="1157.6" y1="935.47" x2="1157.6" y2="1028.81" style="fill: #b0f0ff;stroke: #000;stroke-miterlimit: 10;stroke-width: 3px"/>
        <line x1="1169.59" y1="940.57" x2="1169.59" y2="1028.81" style="fill: #b0f0ff;stroke: #000;stroke-miterlimit: 10;stroke-width: 3px"/>
        <line x1="1141.92" y1="988.51" x2="1181.92" y2="996.92" style="fill: #b0f0ff;stroke: #000;stroke-miterlimit: 10;stroke-width: 3px"/>
        <polyline points="1092.92 947.95 1141.92 947.95 1181.92 967.59" style="fill: #b0f0ff;stroke: #000;stroke-miterlimit: 10;stroke-width: 3px"/>
        <polygon points="1081.92 841.81 1081.92 868.43 1081.92 934.81 1129.92 917.81 1129.92 853.73 1129.92 820.81 1081.92 841.81" style="fill: #b0f0ff;stroke: #000;stroke-miterlimit: 10;stroke-width: 3px"/>
        <line x1="1083.92" y1="902.81" x2="1129.92" y2="883.12" style="fill: #b0f0ff;stroke: #000;stroke-miterlimit: 10;stroke-width: 3px"/>
        <line x1="1081.92" y1="868.81" x2="1129.92" y2="853.81" style="fill: #b0f0ff;stroke: #000;stroke-miterlimit: 10;stroke-width: 3px"/>
        <line x1="1119.21" y1="825.49" x2="1118.92" y2="917.81" style="fill: #b0f0ff;stroke: #000;stroke-miterlimit: 10;stroke-width: 3px"/>
        <polyline points="1129.92 820.81 1169.92 856.81 1169.92 935.81 1129.92 917.81" style="fill: #b0f0ff;stroke: #000;stroke-miterlimit: 10;stroke-width: 3px"/>
        <polyline points="1134.92 823.81 1140.92 820.81 1178.92 850.81 1169.92 853.81" style="fill: #b0f0ff;stroke: #000;stroke-miterlimit: 10;stroke-width: 3px"/>
        <polyline points="1091.92 834.81 1091.92 749.81 1141.92 729.81 1141.92 820.81" style="fill: #b0f0ff;stroke: #000;stroke-miterlimit: 10;stroke-width: 3px"/>
        <polyline points="1141.92 729.81 1178.92 755.81 1178.92 851.81" style="fill: #b0f0ff;stroke: #000;stroke-miterlimit: 10;stroke-width: 3px"/>
        <line x1="1142.92" y1="757.81" x2="1178.92" y2="782.31" style="fill: #b0f0ff;stroke: #000;stroke-miterlimit: 10;stroke-width: 3px"/>
        <line x1="1142.92" y1="786.97" x2="1178.92" y2="813.7" style="fill: #b0f0ff;stroke: #000;stroke-miterlimit: 10;stroke-width: 3px"/>
        <line x1="1156.92" y1="739.81" x2="1156.92" y2="831.8" style="fill: #b0f0ff;stroke: #000;stroke-miterlimit: 10;stroke-width: 3px"/>
        <line x1="1169.92" y1="749.26" x2="1167.84" y2="842.06" style="fill: #b0f0ff;stroke: #000;stroke-miterlimit: 10;stroke-width: 3px"/>
        <polyline points="1088.92 745.81 1133.92 723.81 1137.92 727.81 1091.42 749.31 1087.42 747.31 1087.42 654.31 1136.42 634.31 1136.42 723.31" style="fill: #b0f0ff;stroke: #000;stroke-miterlimit: 10;stroke-width: 3px"/>
        <polyline points="1100.42 645.31 1100.42 634.31 1136.42 621.31 1136.42 634.31 1161.62 654.74 1173.42 664.31 1173.42 749.31" style="fill: #b0f0ff;stroke: #000;stroke-miterlimit: 10;stroke-width: 3px"/>
        <polyline points="1162.42 652.31 1162.42 642.31 1137.42 621.31" style="fill: #b0f0ff;stroke: #000;stroke-miterlimit: 10;stroke-width: 3px"/>
        <line x1="1105.92" y1="649.89" x2="1106.42" y2="734.31" style="fill: #b0f0ff;stroke: #000;stroke-miterlimit: 10;stroke-width: 3px"/>
        <line x1="1120.8" y1="642.43" x2="1120.8" y2="727.81" style="fill: #b0f0ff;stroke: #000;stroke-miterlimit: 10;stroke-width: 3px"/>
        <line x1="1087.92" y1="715.81" x2="1136.42" y2="697.16" style="fill: #b0f0ff;stroke: #000;stroke-miterlimit: 10;stroke-width: 3px"/>
        <line x1="1087.42" y1="681.93" x2="1136.42" y2="664.72" style="fill: #b0f0ff;stroke: #000;stroke-miterlimit: 10;stroke-width: 3px"/>
      </g>
      <g>
        <polygon points="1206.92 939.81 1206.92 850.81 1255.92 839.81 1295.92 856.81 1288.92 951.81 1251.42 939.32 1206.92 939.81" style="fill: #b0f0ff;stroke: #000;stroke-miterlimit: 10;stroke-width: 3px"/>
        <line x1="1255.92" y1="839.81" x2="1255.92" y2="941.31" style="fill: #b0f0ff;stroke: #000;stroke-miterlimit: 10;stroke-width: 3px"/>
        <line x1="1271.6" y1="846.47" x2="1271.6" y2="943.81" style="fill: #b0f0ff;stroke: #000;stroke-miterlimit: 10;stroke-width: 3px"/>
        <path d="M1283.59,851.57v97.24c0-4.35.33,80,.33,80h-35" style="fill: #b0f0ff;stroke: #000;stroke-miterlimit: 10;stroke-width: 3px"/>
        <line x1="1255.92" y1="899.51" x2="1295.92" y2="907.92" style="fill: #b0f0ff;stroke: #000;stroke-miterlimit: 10;stroke-width: 3px"/>
        <line x1="1255.92" y1="858.95" x2="1295.92" y2="878.59" style="fill: #b0f0ff;stroke: #000;stroke-miterlimit: 10;stroke-width: 3px"/>
        <polygon points="1195.92 752.81 1195.92 779.43 1195.92 845.81 1243.92 828.81 1243.92 764.73 1243.92 731.81 1195.92 752.81" style="fill: #b0f0ff;stroke: #000;stroke-miterlimit: 10;stroke-width: 3px"/>
        <line x1="1197.92" y1="813.81" x2="1243.92" y2="794.12" style="fill: #b0f0ff;stroke: #000;stroke-miterlimit: 10;stroke-width: 3px"/>
        <line x1="1195.92" y1="779.81" x2="1243.92" y2="764.81" style="fill: #b0f0ff;stroke: #000;stroke-miterlimit: 10;stroke-width: 3px"/>
        <line x1="1233.21" y1="736.49" x2="1232.92" y2="828.81" style="fill: #b0f0ff;stroke: #000;stroke-miterlimit: 10;stroke-width: 3px"/>
        <polyline points="1243.92 731.81 1283.92 767.81 1283.92 846.81 1243.92 828.81" style="fill: #b0f0ff;stroke: #000;stroke-miterlimit: 10;stroke-width: 3px"/>
        <polyline points="1248.92 734.81 1254.92 731.81 1292.92 761.81 1283.92 764.81" style="fill: #b0f0ff;stroke: #000;stroke-miterlimit: 10;stroke-width: 3px"/>
        <polyline points="1205.92 745.81 1205.92 660.81 1255.92 640.81 1255.92 731.81" style="fill: #b0f0ff;stroke: #000;stroke-miterlimit: 10;stroke-width: 3px"/>
        <polyline points="1255.92 640.81 1292.92 666.81 1292.92 762.81" style="fill: #b0f0ff;stroke: #000;stroke-miterlimit: 10;stroke-width: 3px"/>
        <line x1="1256.92" y1="668.81" x2="1292.92" y2="693.31" style="fill: #b0f0ff;stroke: #000;stroke-miterlimit: 10;stroke-width: 3px"/>
        <line x1="1256.92" y1="697.97" x2="1292.92" y2="724.7" style="fill: #b0f0ff;stroke: #000;stroke-miterlimit: 10;stroke-width: 3px"/>
        <line x1="1270.92" y1="650.81" x2="1270.92" y2="742.8" style="fill: #b0f0ff;stroke: #000;stroke-miterlimit: 10;stroke-width: 3px"/>
        <line x1="1283.92" y1="660.26" x2="1281.84" y2="753.06" style="fill: #b0f0ff;stroke: #000;stroke-miterlimit: 10;stroke-width: 3px"/>
        <polyline points="1202.92 656.81 1247.92 634.81 1251.92 638.81 1205.42 660.31 1201.42 658.31 1201.42 565.31 1250.42 545.31 1250.42 634.31" style="fill: #b0f0ff;stroke: #000;stroke-miterlimit: 10;stroke-width: 3px"/>
        <polyline points="1214.42 556.31 1214.42 545.31 1250.42 532.31 1250.42 545.31 1275.62 565.74 1287.42 575.31 1287.42 660.31" style="fill: #b0f0ff;stroke: #000;stroke-miterlimit: 10;stroke-width: 3px"/>
        <polyline points="1276.42 563.31 1276.42 553.31 1251.42 532.31" style="fill: #b0f0ff;stroke: #000;stroke-miterlimit: 10;stroke-width: 3px"/>
        <line x1="1219.92" y1="560.89" x2="1220.42" y2="645.31" style="fill: #b0f0ff;stroke: #000;stroke-miterlimit: 10;stroke-width: 3px"/>
        <line x1="1234.8" y1="553.43" x2="1234.8" y2="638.81" style="fill: #b0f0ff;stroke: #000;stroke-miterlimit: 10;stroke-width: 3px"/>
        <line x1="1201.92" y1="626.81" x2="1250.42" y2="608.16" style="fill: #b0f0ff;stroke: #000;stroke-miterlimit: 10;stroke-width: 3px"/>
        <line x1="1201.42" y1="592.93" x2="1250.42" y2="575.72" style="fill: #b0f0ff;stroke: #000;stroke-miterlimit: 10;stroke-width: 3px"/>
      </g>
      <line x1="1195.92" y1="845.81" x2="1206.92" y2="850.81" style="fill: #b0f0ff;stroke: #000;stroke-miterlimit: 10;stroke-width: 3px"/>
      <polygon points="1200.92 1028.81 1200.92 966.73 1200.92 940.81 1248.92 940.81 1248.92 1028.81 1200.92 1028.81" style="fill: #b0f0ff;stroke: #000;stroke-miterlimit: 10;stroke-width: 3px"/>
      <line x1="1243.92" y1="966.81" x2="1200.92" y2="966.81" style="fill: #b0f0ff;stroke: #000;stroke-miterlimit: 10;stroke-width: 3px"/>
      <line x1="1245.92" y1="998.81" x2="1201.42" y2="998.81" style="fill: #b0f0ff;stroke: #000;stroke-miterlimit: 10;stroke-width: 3px"/>
      <line x1="1216.92" y1="943.81" x2="1216.92" y2="1026.81" style="fill: #b0f0ff;stroke: #000;stroke-miterlimit: 10;stroke-width: 3px"/>
      <line x1="1232.92" y1="942.24" x2="1232.92" y2="1026.81" style="fill: #b0f0ff;stroke: #000;stroke-miterlimit: 10;stroke-width: 3px"/>
    </g>
    <g>
      <rect x="67.8" y="442.81" width="41" height="50" style="fill: #ff7bac;stroke: #000;stroke-miterlimit: 10;stroke-width: 3px"/>
      <rect x="73.8" y="492.81" width="29" height="17" style="fill: #ff7bac;stroke: #000;stroke-miterlimit: 10;stroke-width: 3px"/>
      <rect x="79.8" y="509.81" width="17" height="61" style="fill: #ff7bac;stroke: #000;stroke-miterlimit: 10;stroke-width: 3px"/>
      <rect x="75.3" y="568.81" width="26" height="26" style="fill: #ff7bac;stroke: #000;stroke-miterlimit: 10;stroke-width: 3px"/>
      <rect x="70.3" y="594.81" width="36" height="25" style="fill: #ff7bac;stroke: #000;stroke-miterlimit: 10;stroke-width: 3px"/>
      <polygon points="99.3 619.81 73.3 619.81 69.3 867.81 67.3 908.4 61.3 1027.81 115.3 1027.81 106.3 908.81 106.3 870.49 99.3 619.81" style="fill: #ff7bac;stroke: #000;stroke-miterlimit: 10;stroke-width: 3px"/>
      <line x1="61.3" y1="870.81" x2="115.3" y2="870.81" style="fill: #ff7bac;stroke: #000;stroke-miterlimit: 10;stroke-width: 3px"/>
      <line x1="62.8" y1="799.81" x2="113.8" y2="799.81" style="fill: #ff7bac;stroke: #000;stroke-miterlimit: 10;stroke-width: 3px"/>
      <line x1="65.8" y1="788.81" x2="110.8" y2="788.81" style="fill: #ff7bac;stroke: #000;stroke-miterlimit: 10;stroke-width: 3px"/>
      <line x1="66.8" y1="772.81" x2="109.8" y2="772.81" style="fill: #ff7bac;stroke: #000;stroke-miterlimit: 10;stroke-width: 3px"/>
      <line x1="65.8" y1="757.81" x2="110.8" y2="757.81" style="fill: #ff7bac;stroke: #000;stroke-miterlimit: 10;stroke-width: 3px"/>
      <line x1="74.3" y1="500.11" x2="102.3" y2="500.11" style="fill: #ff7bac;stroke: #000;stroke-miterlimit: 10;stroke-width: 3px"/>
      <line x1="67.8" y1="478.07" x2="108.8" y2="478.07" style="fill: #ff7bac;stroke: #000;stroke-miterlimit: 10;stroke-width: 3px"/>
      <line x1="68.3" y1="466.32" x2="108.3" y2="466.32" style="fill: #ff7bac;stroke: #000;stroke-miterlimit: 10;stroke-width: 3px"/>
      <line x1="68.3" y1="453.69" x2="108.3" y2="453.69" style="fill: #ff7bac;stroke: #000;stroke-miterlimit: 10;stroke-width: 3px"/>
      <rect x="79.3" y="418.81" width="18" height="24" style="fill: #ff7bac;stroke: #000;stroke-miterlimit: 10;stroke-width: 3px"/>
      <line x1="88.3" y1="416.81" x2="88.3" y2="268.81" style="fill: #ff7bac;stroke: #000;stroke-miterlimit: 10;stroke-width: 2px"/>
      <line x1="82.8" y1="300.31" x2="93.8" y2="300.31" style="fill: #ff7bac;stroke: #000;stroke-miterlimit: 10;stroke-width: 2px"/>
      <line x1="82.3" y1="326.31" x2="94.3" y2="326.31" style="fill: #ff7bac;stroke: #000;stroke-miterlimit: 10;stroke-width: 2px"/>
      <line x1="82.3" y1="351.31" x2="94.3" y2="351.31" style="fill: #ff7bac;stroke: #000;stroke-miterlimit: 10;stroke-width: 2px"/>
      <line x1="81.8" y1="388.31" x2="94.8" y2="388.31" style="fill: #ff7bac;stroke: #000;stroke-miterlimit: 10;stroke-width: 2px"/>
    </g>
  </g>  <g id="faceBody">
    <g>
      <path d="M765,1154.26s-4.5-20.23,7.5-22.23,26,0,26,0,13-4,16-1,7,2,12-1-37-237-37-237" style="fill: none;stroke: #000;stroke-miterlimit: 10;stroke-width: 3px"/>
      <path d="M640.56,1131s-29.09,18.86-17.12,23.92,23,.11,25-.88,12-1,12,0,16.5-.63,16.5-.63S655.61,1119.06,640.56,1131Z" style="fill: #fff;stroke: #000;stroke-miterlimit: 10;stroke-width: 3px"/>
      <path d="M868.31,1124.62s19,5.9,46.19,7.41c36,2,149-15.3,144-9-8,10-29,11-85,21s-103.79-13.39-103.79-13.39Z" style="fill: #fff;stroke: #000;stroke-miterlimit: 10;stroke-width: 3px"/>
      <path d="M672.5,753s-21,7-24,11-6,21-6,21-7,33-8,35-16,110-18,113-13,32-15,38-12,20-14,26-32,77-32,77,0,12,7,10,70-137,70-152,10-52,10-55,7-72,7-72l19-13" style="fill: #fff;stroke: #000;stroke-miterlimit: 10;stroke-width: 3px"/>
      <g>
        <path d="M692.5,673.43l-60-12s-46-13-55-58c-5.15-25.74-15-111-15-111s24-160,32-171,5-32,18-36,18,8,25,28,10,45,10,45l7,37,3,52,10,3s19-12,43-12c12.54,0,50,4,50,4l47,8,17-52,28-65s16-36,23-33,15,26,15,26l9,52v27l10,50v72l-10,66s-29,66-60,74-69,9-69,14,9,24,9,24l8,35,68-7,56-15,24-116,20-58s14-10,22-8-2,48-15,73c-10.24,19.7-18,80-18,80l-17,52-66,14-63,14,53,283,23,105s-107,2-194-4c-8.23-.57-44-41-39-51s26-357,31-362,22-50,22-50Z" style="fill: #fff;stroke: #000;stroke-miterlimit: 10;stroke-width: 3px"/>
        <path d="M603,329.43s10-28,18-22,28,87,28,87v69s-32-6-46,0L574.84,475.5Z" style="fill: #f50"/>
        <path d="M827.24,455.26c-1-3,27.46-92.87,27.46-92.87s18.39-55.55,23.28-44.7,14.52,57.56,14.52,57.56-3,33.31-.06,39.33,3.65,72-.36,75S827.24,455.26,827.24,455.26Z" style="fill: #f50"/>
        <path d="M765,1154.66s-4.5-20.23,7.5-22.23,26,0,26,0,13-4,16-1,7,2,12-1-37-237-37-237" style="fill: none;stroke: #000;stroke-miterlimit: 10;stroke-width: 3px"/>
        <path d="M640.56,1131.39s-29.09,18.86-17.12,23.92,23,.11,25-.89,12-.94,12,.06,16.5-.63,16.5-.63S655.61,1119.46,640.56,1131.39Z" style="fill: #fff;stroke: #000;stroke-miterlimit: 10;stroke-width: 3px"/>
        <path d="M868.31,1125s19,5.9,46.19,7.41c36,2,149-15.3,144-9-8,10-29,11-85,21S869.71,1131,869.71,1131Z" style="fill: #fff;stroke: #000;stroke-miterlimit: 10;stroke-width: 3px"/>
        <path d="M672.5,753.43s-21,7-24,11-6,21-6,21-7,33-8,35-16,110-18,113-13,32-15,38-12,20-14,26-32,77-32,77,0,12,7,10,70-137,70-152,10-52,10-55,7-72,7-72l19-13" style="fill: #fff;stroke: #000;stroke-miterlimit: 10;stroke-width: 3px"/>
      </g>
    </g>
  </g>  <g id="bell">
    <path d="M690,713s27,14,46,13,46-18,46-18" style="fill: none;stroke: #ff4200;stroke-miterlimit: 10;stroke-width: 6px"/>
    <g>
      <path d="M755.82,741.14a32.18,32.18,0,1,0,16.35,28A32.06,32.06,0,0,0,755.82,741.14Z" style="fill: #ffd400;stroke: #000;stroke-miterlimit: 10;stroke-width: 3px"/>
      <circle cx="737.6" cy="769.66" r="30.25" style="fill: #f50"/>
      <circle cx="734" cy="764.61" r="31.33" style="fill: #ffd400;stroke: #000;stroke-miterlimit: 10;stroke-width: 3px"/>
      <path d="M731.83,732.92s-.72-5,3.61-5,3.6,5.76,3.6,5.76" style="fill: none;stroke: #000;stroke-miterlimit: 10;stroke-width: 2px"/>
      <polygon points="730.39 752.73 730.39 754.89 742.14 754.89 728.74 767.91 723.24 762.41 721.71 763.94 727.19 769.41 718.84 777.52 720.34 779.07 728.71 770.94 734.31 776.54 735.84 775.01 730.26 769.44 744.44 755.67 744.44 768.22 746.6 768.22 746.6 752.73 730.39 752.73" style="fill: #f50"/>
      <polygon points="729.67 750.57 729.67 752.73 741.42 752.73 728.01 765.75 722.52 760.25 720.99 761.78 726.47 767.25 718.12 775.36 719.62 776.91 727.99 768.78 733.59 774.38 735.12 772.85 729.54 767.28 743.72 753.5 743.72 766.05 745.88 766.05 745.88 750.57 729.67 750.57" style="fill: #020202"/>
    </g>
  </g>  <g id="nose">
    <path d="M727.57,547.76c-3.83,1.15-15.25,5.5-9.25,10.5s8.17,3.59,10,8c1.66,4,3.69,18.6,3.34,21.75a.9.9,0,0,1-.86.78l-8.47.35a.88.88,0,0,0-.31,1.7c4.12,1.69,10.68,4.16,14.3,4.42,3.95.29,12-2,16.9-3.62a.88.88,0,0,0-.2-1.72l-13.76-1.1a.87.87,0,0,1-.8-.74c-.51-3.44.13-17.25,2.86-21.82,2.24-3.75,10.25-8.5,12.25-10.5S747.57,541.76,727.57,547.76Z"/>
  </g>  <g id="eyes">
    <path d="M780.28,547.89s-6-20,14-23,77,0,89,6,26.12,17,26.12,17-38.12,25-74.12,20S781.28,553.89,780.28,547.89Z" style="fill: #03a3db;stroke: #000;stroke-miterlimit: 10"/>
    <path d="M569.61,538.46c2.44,4.67,67.67,16.43,80.67,15.43s35-10,34-15-45-28-57-27S558.93,518,569.61,538.46Z" style="fill: #03a3db;stroke: #000;stroke-miterlimit: 10"/>
    <path d="M858.28,542.89s-.72,25.31,5.14,25.66,5.86-25.66,5.86-25.66,1-25.35-5.51-19.17S858.28,542.89,858.28,542.89Z"/>
    <path d="M646.6,521.18s-4.32,14.09-3.32,18.62-3.36,15.83,3.32,16.51,15.68-2.94,12.68-8.37S658.92,513.41,646.6,521.18Z"/>
  </g>  <g id="luckyItem">
    <g>
      <g>
        <path d="M488.11,1088.61c-17.47,0-25,2-42.81-3.49-12.35-3.78-27.08,0-41.06,0-16.6,0-20.06-.41-26.21-2.63A29.85,29.85,0,0,1,358.15,1056c-.36-6.44,0-19.16-1.82-31.93-1.14-8-3.64-38.32-3.64-38.32S415.47,976.17,420,973s72.79-26.61,75.52-26.61,40-2.13,45.49,0,41.86,18.1,43.68,20.22,17.28,11.71,21.83,17,23.66,8.52,29.12,9.58S671.14,990,673,990s17.29-7.45,18.2-3.19,3.9,3.67,6.63,10.06-1.15,8.79.87,14.85c2.62,7.86,4.33,8.08,3.42,13.4s-1.41,8.09-2.54,14.56a62.94,62.94,0,0,1-4.74,14.18,79.76,79.76,0,0,1-5.75,11.15c-2.73,4.26-5.24,8.74-13.1,10.49-13.49,3-18,3.11-28,5.24s-21,4.37-29.7,4.37c-5.86,0-17.22,1.74-23.59,1.74s-30.58-1.74-30.58-1.74-24.46-4.37-32.33-3.5C525.33,1082.34,506.34,1085.69,488.11,1088.61Z"/>
        <path d="M486.36,1082.49s-27.95-1.74-40.19-3.49-28.83,7-41.06-1.75-16.81,1-22.71-.87c-11.36-3.5-21-11.36-20.1-16.6s0-15.73-1.75-26.21c-1.09-6.56-3.49-31.45-3.49-31.45s60.28-7.87,64.65-10.49,69.89-21.84,72.52-21.84,38.44-1.75,43.68,0,40.19,14.85,41.93,16.6,16.6,9.61,21,14,22.72,7,28,7.86,34.07-2.62,35.82-2.62,16.6-6.11,17.47-2.62-2.62,7,0,12.23,4.37,5.24,4.37,10.49,7,4.36,6.12,8.73-5.24,7-4.37,12.23-1.75,9.61-2.62,11.36-5.24,5.24-7.86,8.74,2.62,4.37-10.49,6.11-16.6,5.25-26.21,7-22.71.88-28,2.62-17.47,2.63-23.58,2.63-27.09-7.87-27.09-7.87-30.58-4.37-35-4.37S486.36,1082.49,486.36,1082.49Z" style="fill: #fff"/>
        <path d="M357.06,1002.12s3.49,15.72,12.23,20.09,14,7.86,22.72,5.24,37.56-20.09,44.55-21.84,29.71-13.1,39.32-13.1,24.46-4.37,26.21-4.37,27.08-2.62,32.32,0,27.09,7,28.84,8.74,17.47,7.86,22.71,10.48,23.59,8.74,28.83,9.61,22.72,3.49,32.33,2.62,20.09-5.24,23.59-5.24,10.67-5.78,10.67-5.78l-.19-5.58L542.28,968.92l-51.55-1.75L413,986.39Z"/>
        <path d="M345.7,992.51c1,7.36,9,9.61,17.57,15.72s19,6.12,22.8,6.12,22.8-14,22.8-14,26.12-14.42,39.41-17,28.5-8.73,35.15-8.73,53.19-8.74,69.34,0,43.69,19.22,49.39,23.59,25.64,8.73,32.29,10.48,33.25,0,39.9,0,18.2-.44,18.2-.44,22-18.34,20.09-23.59-6.45-18.34-13.1-21-47-29.27-47-29.27S600.26,902.08,586,900.34s-44.64-7.87-53.19-5.25-74.09,15.73-88.33,20.1-53.32,23.15-64.71,31A263.55,263.55,0,0,0,352.69,968C344.14,975.91,345.07,987.77,345.7,992.51Z"/>
        <path d="M350.94,992.51c.9,7.36,13.11,14.85,21,21s17.48,6.11,21,6.11,21-14,21-14,24-14.41,36.26-17,26.21-8.74,32.32-8.74,48.93-8.74,63.78,0,40.19,19.22,45.43,23.59,23.59,8.73,29.7,10.48,30.58,0,36.7,0,35.82-12.23,35.82-12.23,12.23-14,10.48-19.22-3.49-11.36-9.61-14-56.79-28.83-56.79-28.83-48.05-32.33-61.15-34.07-41.07-7.87-48.93-5.24-68.14,15.72-81.25,20.09S392.44,943.15,382,951s-18.61,11.62-23.59,16.6C350.51,975.47,350.37,987.77,350.94,992.51Z" style="fill: #ff5d03"/>
        <path d="M457.53,914.75s.88-7,5.24-8.74,20.1-7,28-7.86,28.83-3.49,28.83-3.49,7,2.62,8.74,6.11,3.06,17,3.06,17l5.24,7.86s7.86,22.72,8.74,27.09,2.49,22.57,2.49,22.57l.13,4.51v14.85L542.71,1055,541,1070.7l-1.75,10.48H524.37c-6.12,0-10.49-1.74-13.11,0s-6.11,0-6.11,0l-6.79-1.77s4.17-18.32,4.17-20.07v-27.08l2.62-19.22,1.74-21,.88-11.36-2.62-7-8.74-14-5.24-11.35-12.23-17.48-9.61-6.11-6.12-6.12Z"/>
        <path d="M386.36,948.12c4.77-2.79,8-3.47,9.45-2.69s7.55,2.52,12.8,6,12.23,7.86,12.23,7.86l5.24,5.24,3.21,4.47s2.91,3.39,2.91,4.27,1.74,3.49,1.74,3.49-.25,6.31-2.74,7.09-8.61-2.72-8.61-2.72l-.88-2.62L420,973.29h0l-3.49-6.12-8.74-6.11-3.49-3.5-7-3.49h-7S381.58,950.92,386.36,948.12Z" style="fill: #fff;opacity: 0.15"/>
        <path d="M424.5,929.36s-1.91,7.23-.17,7.23,9.61,3.5,9.61,3.5l5.24,5.24h0s2.63,3.49,3.5,4.37,1.75.87,2.62,3.49,0,2.62,0,2.62,3.82,6,4.1,6.49-.6,3.12.27,4.87,1.75,1.75,1.75,3.5.87,1.74,1.74,2.62,4.37,0,4.37,0l2.62-6.12v-9.28s-.87-4.7-2.62-6.44-3.49-7-5.24-7.87-7-6.11-7.86-7-5.25-4.37-5.25-4.37l-3.49-2.62-7.05-2Z" style="fill: #fff;opacity: 0.15"/>
      </g>
      <path d="M558.27,902.57,558,914.75s1.75,10.49,1.75,13.11-.87,6.11,0,8.73a14.88,14.88,0,0,1,0,8.74,59.34,59.34,0,0,0-1.75,8.36c0,1.25.88,4.74,0,5.62s-.87,4.37-1.74,5.24,0,4.37,0,6.12S558,975,558,975h5.65a3.17,3.17,0,0,0,3.09-3.49v-7s-1.75-3.49,0-5.24.87-4.37,1.75-5.24-1.75-1.75,0-3.5,2.62-5.24,2.62-5.24V934.85a9.2,9.2,0,0,1,0-5.25c.87-2.62,2.62-5.24,2.62-6.11v-5.24s-.87-1.75,0-2.63,0-3.49,0-3.49l3.49-6.12-3.45-1.35Z" style="fill: #fff;opacity: 0.15"/>
      <path d="M606.18,919.62l-.13,22.21a6.11,6.11,0,0,0-2.62,3.5c-.87,2.62-6.11,12.23-6.11,14s0,8.73-.88,9.61,10.49,0,9.61,0,0-4.37,0-4.37l2.63-5.24a44.85,44.85,0,0,0,3.49-8.74,35.87,35.87,0,0,1,3.5-7.86l1.74-6.12,1.75-3.49,2.18-4.22Z" style="fill: #fff;opacity: 0.15"/>
      <path d="M647.27,944.46l13.87,7.14-7,21.69s1.74,9.61,0,10.48S642.75,989,642.75,989v-7.86l5.24-7.86v-14Z" style="fill: #fff;opacity: 0.15"/>
    </g>
    <path d="M529.75,1091.82s-4,14.72,4.35,17.83,51.25-29.83,58.48-44.94-13.3-15.3-26.86-1.15S537.29,1077.92,529.75,1091.82Z" style="fill: #fff;stroke: #000;stroke-miterlimit: 10;stroke-width: 3px"/>
  </g><g id="luckyCaption">
    <text transform="translate(561.31 1272.52)" style="font-size: 64.3827896118164px;font-family: HiraMaruProN-W4-83pv-RKSJ-H, Hiragino Maru Gothic ProN"><tspan style="letter-spacing: -0.03599058496540004em"></tspan><tspan x="62.07" y="0" style="letter-spacing: -0.04900361568613886em"></tspan><tspan x="123.29" y="0" style="letter-spacing: -0.017987709131464157em"></tspan><tspan x="186.52" y="0" style="letter-spacing: -0.020004880560203397em"></tspan><tspan x="249.61" y="0"></tspan></text>
  </g>  <g id="weather">
    <g>
      <g>
        <path d="M1360.88,378.83h-6.53V374a1.79,1.79,0,1,0-3.57,0v4.87h-8.5l9.07-10.53-14.5-1.68,6.22-6.22,3.26,3.25a1.78,1.78,0,0,0,2.52-2.52l-3.25-3.26,4.62-4.62a1.79,1.79,0,0,0-2.53-2.52l-4.62,4.62-3.44-3.45a1.79,1.79,0,1,0-2.53,2.53l3.45,3.44-6.63,6.63-.89-13.81-10.46,8.05v-8.26h4.61a1.79,1.79,0,0,0,0-3.57h-4.61v-6.53a1.79,1.79,0,1,0-3.57,0v6.53h-4.87a1.79,1.79,0,0,0,0,3.57H1319v8.21l-10.15-8.92-1.91,14.68-6.36-6.36,3.51-3.5a1.79,1.79,0,0,0-2.52-2.53l-3.51,3.51-4.72-4.72a1.79,1.79,0,0,0-2.52,2.53l4.72,4.71-3.2,3.2a1.79,1.79,0,0,0,2.53,2.52l3.19-3.19,6.42,6.42-13.8,1.58,8.24,10.21h-8.26v-5a1.79,1.79,0,1,0-3.57,0v5h-6.66a1.79,1.79,0,1,0,0,3.57h6.66v4.52a1.79,1.79,0,0,0,3.57,0V382.4h8.87l-8,10,13.06,1.4-6.6,6.59-3.51-3.51a1.79,1.79,0,0,0-2.52,2.53l3.51,3.51-4.72,4.71a1.79,1.79,0,0,0,1.26,3.05,1.8,1.8,0,0,0,1.27-.53l4.71-4.71,3.19,3.19a1.77,1.77,0,0,0,2.53,0,1.77,1.77,0,0,0,0-2.52l-3.2-3.19,5-5,.39,14.68L1319,401.66v8.94h-5a1.79,1.79,0,0,0,0,3.57h5v6.67a1.79,1.79,0,0,0,3.57,0v-6.67h4.52a1.79,1.79,0,1,0,0-3.57h-4.52v-8.22l10.9,10.34,1.36-15.33,5.74,5.74-3.26,3.25a1.8,1.8,0,0,0,0,2.53,1.8,1.8,0,0,0,2.53,0l3.25-3.26,4.62,4.62a1.79,1.79,0,0,0,2.53-2.52l-4.62-4.62,3.44-3.45a1.78,1.78,0,0,0-2.52-2.52l-3.45,3.44-5.81-5.81,12.7-.94-9.07-11.45h9.87V387a1.79,1.79,0,1,0,3.57,0v-4.6h6.53a1.79,1.79,0,1,0,0-3.57Zm-52.1,6.53-2.39-3H1316l-7.13,7.13Zm22.3-9.61,2.44,3.08h-8.88l6.23-6.23Zm-8.51.1v-9.28l2.62,2.3,3.91.45Zm-3.57.66-6.76-6.76,2.2-.25L1319,366Zm-9.46-4.41,6.73,6.73h-9.34l2.08-2.62Zm9.46,12.37v9.6l-2.78-2.64-3.78-.4Zm3.57.66,6.68,6.67-4.43.33-2.25,1.89Zm9.38,4.33-7.06-7.06h9.6l-2.14,2.48Zm5.88-10.94-3.26-4.12-.29-4.48,10,1.16Zm-7.39-12.64-3.73-.43-3.28-2.87,6.47-5Zm-12.62-3.48-4.77,3.66-2.76.32,1.24-9.51Zm-11.66,8-.57,4.33-2.66,3.34-5.39-6.68Zm-3.2,13.39,2.29,2.83.09,3.61-6.92-.74Zm6.06,10.62.18-.18,5.44.58,3.25,3.09-8.59,7.19Zm14.23,3.65,3-2.49,5.2-.39-.87,9.82Zm12.11-6.75.45-5,1.91-2.22,5.28,6.66Z" style="fill: #29abe2"/>
        <path d="M1360.9,376.6h-6.53v-4.88a1.79,1.79,0,0,0-3.57,0v4.88h-8.5l9.07-10.53-14.5-1.68,6.22-6.23,3.26,3.26a1.79,1.79,0,0,0,2.52,0,1.79,1.79,0,0,0,0-2.53l-3.25-3.25,4.62-4.62a1.79,1.79,0,0,0-2.53-2.53l-4.62,4.62-3.44-3.44a1.79,1.79,0,0,0-2.53,2.52l3.45,3.45-6.63,6.62-.89-13.8-10.46,8v-8.25h4.61a1.79,1.79,0,0,0,0-3.57h-4.61v-6.53a1.79,1.79,0,1,0-3.57,0v6.53h-4.87a1.79,1.79,0,0,0,0,3.57H1319v8.2l-10.15-8.91L1307,362.21l-6.36-6.35,3.51-3.51a1.79,1.79,0,0,0-2.53-2.52l-3.5,3.5-4.72-4.71a1.78,1.78,0,0,0-2.52,2.52l4.71,4.72-3.19,3.19a1.79,1.79,0,0,0,2.53,2.53l3.19-3.2,6.42,6.43-13.8,1.57,8.24,10.22h-8.26v-5a1.79,1.79,0,1,0-3.57,0v5h-6.67a1.79,1.79,0,0,0,0,3.57h6.67v4.51a1.79,1.79,0,1,0,3.57,0v-4.51h8.87l-8,10,13.05,1.39-6.59,6.6-3.51-3.51a1.79,1.79,0,1,0-2.52,2.53l3.5,3.5-4.71,4.72a1.78,1.78,0,0,0,1.26,3,1.75,1.75,0,0,0,1.26-.52l4.72-4.71,3.19,3.19a1.8,1.8,0,0,0,2.53,0,1.8,1.8,0,0,0,0-2.53l-3.2-3.19,5-5,.39,14.69L1319,399.43v8.94h-5a1.79,1.79,0,0,0,0,3.57h5v6.66a1.79,1.79,0,1,0,3.57,0v-6.66h4.52a1.79,1.79,0,0,0,0-3.57h-4.52v-8.22l10.9,10.34,1.36-15.34,5.74,5.74-3.26,3.26a1.79,1.79,0,0,0,2.53,2.52l3.25-3.25,4.62,4.62a1.8,1.8,0,0,0,2.53,0,1.8,1.8,0,0,0,0-2.53l-4.62-4.62,3.44-3.44a1.79,1.79,0,0,0-2.52-2.53l-3.45,3.45-5.81-5.82,12.7-.94-9.07-11.44h9.87v4.6a1.79,1.79,0,0,0,3.57,0v-4.6h6.53a1.79,1.79,0,1,0,0-3.57Zm-52.1,6.53-2.39-3H1316l-7.13,7.12Zm22.3-9.62,2.44,3.09h-8.88l6.23-6.24Zm-8.51.1v-9.27l2.62,2.29,3.91.46Zm-3.57.67-6.76-6.76,2.2-.26,4.56-3.51Zm-9.46-4.41,6.73,6.73H1307L1309,374Zm9.46,12.36v9.61l-2.78-2.64-3.78-.4Zm3.57.67,6.67,6.67-4.42.33-2.25,1.88Zm9.38,4.32-7.06-7.05h9.6l-2.14,2.47Zm5.88-10.93-3.26-4.12-.29-4.48,10,1.15Zm-7.39-12.64-3.74-.43-3.27-2.88,6.47-5Zm-12.63-3.49-4.76,3.67-2.76.31,1.23-9.5Zm-11.65,8-.57,4.32-2.66,3.35-5.39-6.68ZM1303,381.59l2.3,2.84.09,3.61-6.92-.74Zm6.07,10.62.18-.17,5.44.58,3.25,3.08-8.59,7.2Zm14.23,3.66,3-2.5,5.21-.38-.87,9.82Zm12.11-6.75.45-5,1.9-2.21,5.28,6.66Z" style="fill: #fff;stroke: #29abe2;stroke-miterlimit: 10"/>
      </g>
      <path d="M1202.89,368.6s-17.57,20.85-34.69,15.71S1142,357.73,1142,357.73s-33.58,7.17-42.63-14.27-1-37.75,8.51-42.29,27-2.25,27-2.25a22.61,22.61,0,0,1,17.2-18c15.33-3.78,22.17,2.91,22.17,2.91s9.23-16.15,26.73-13.86,24.76,14.82,24.76,14.82,15.33-3.78,28.8,6.67,6.14,21.06,6.14,21.06,15.33-3.78,19.67,8.36-8.82,22-8.82,22,4.35,12.14-2.61,19.91-21.53,5.86-21.53,5.86-.32,9.56-14.78,14.44S1202.89,368.6,1202.89,368.6Z" style="fill: #004070"/>
      <path d="M1322.51,358.81s-17.56,20.84-34.69,15.7-26.18-26.58-26.18-26.58-33.58,7.18-42.64-14.27-1-37.74,8.51-42.28,27-2.25,27-2.25a22.59,22.59,0,0,1,17.19-18c15.33-3.77,22.17,2.91,22.17,2.91s9.24-16.15,26.74-13.86S1345.37,275,1345.37,275s15.33-3.78,28.79,6.67,6.14,21.06,6.14,21.06,15.33-3.78,19.67,8.37-8.81,22-8.81,22,4.34,12.14-2.61,19.91-21.54,5.86-21.54,5.86-.32,9.56-14.78,14.44S1322.51,358.81,1322.51,358.81Z" style="fill: #004070"/>
      <path d="M1318.57,350.09s-17.57,20.85-34.7,15.71-26.18-26.58-26.18-26.58-33.58,7.17-42.64-14.27-1-37.75,8.51-42.29,27-2.25,27-2.25a22.59,22.59,0,0,1,17.19-18c15.33-3.78,22.17,2.9,22.17,2.9s9.24-16.15,26.74-13.85,24.76,14.82,24.76,14.82,15.33-3.78,28.79,6.66,6.15,21.06,6.15,21.06,15.33-3.77,19.67,8.37-8.82,22-8.82,22,4.34,12.15-2.61,19.92-21.53,5.85-21.53,5.85-.33,9.57-14.78,14.44S1318.57,350.09,1318.57,350.09Z" style="fill: #75d6e9"/>
      <path d="M1198.94,359.89s-17.56,20.84-34.69,15.7S1138.06,349,1138.06,349s-33.57,7.18-42.63-14.26-1-37.75,8.51-42.29,27-2.25,27-2.25a22.59,22.59,0,0,1,17.19-18c15.33-3.77,22.17,2.91,22.17,2.91s9.24-16.15,26.74-13.86,24.76,14.82,24.76,14.82,15.33-3.78,28.79,6.67,6.14,21.06,6.14,21.06,15.33-3.78,19.67,8.37-8.81,22-8.81,22,4.34,12.14-2.61,19.91-21.54,5.86-21.54,5.86-.32,9.56-14.78,14.44S1198.94,359.89,1198.94,359.89Z" style="fill: #76d7ee"/>
      <path d="M1157.74,322.06s-9.42,9.42-25.12,6.28-22-22-18.85-34.55,9.43-15.7,15.71-18.84,15.35,0,15.35,0,6.63-31.41,34.9-31.41S1220.56,275,1220.56,275s25.12-3.14,31.4,12.56,3.14,34.55-15.7,37.69-25.13-6.28-25.13-6.28-5.71,10.7-23.27,10.06A80.31,80.31,0,0,1,1157.74,322.06Z" style="fill: #004070"/>
      <path d="M1156.76,310.84s-9.42,9.42-25.12,6.28-22-22-18.84-34.55,9.42-15.7,15.7-18.84,15.36,0,15.36,0,6.62-31.41,34.89-31.41,40.83,31.41,40.83,31.41,25.12-3.14,31.4,12.56,3.14,34.55-15.7,37.69-25.12-6.28-25.12-6.28-5.72,10.7-23.27,10.06A80.33,80.33,0,0,1,1156.76,310.84Z" style="fill: #88e2f6;stroke: #29abe2;stroke-miterlimit: 10"/>
      <path d="M1310.88,327.18s-9.38,9.38-25,6.25S1264,311.54,1267.1,299s9.38-15.63,15.64-18.76,15.28,0,15.28,0,6.6-31.27,34.74-31.27,40.65,31.27,40.65,31.27,25-3.13,31.26,12.5,3.13,34.4-15.63,37.52-25-6.25-25-6.25-5.69,10.66-23.17,10A79.9,79.9,0,0,1,1310.88,327.18Z" style="fill: #004070"/>
      <path d="M1309,321.6s-9.38,9.38-25,6.25-21.89-21.89-18.76-34.39,9.38-15.64,15.63-18.76,15.29,0,15.29,0,6.6-31.27,34.74-31.27,40.64,31.27,40.64,31.27,25-3.13,31.27,12.5,3.12,34.4-15.64,37.52-25-6.25-25-6.25-5.68,10.66-23.16,10A80,80,0,0,1,1309,321.6Z" style="fill: #89d7ec;stroke: #29abe2;stroke-miterlimit: 10"/>
      <path d="M1271.06,291s19.47,22.17,37.49,16.05,26.83-29.74,26.83-29.74,36,6.79,44.79-16.83-.39-41.14-10.66-45.8-28.79-1.63-28.79-1.63-2.53-15.44-19-19.09-23.46,3.84-23.46,3.84-10.44-17.31-29-14.28-25.76,16.89-25.76,16.89-16.45-3.65-30.37,8.14-5.73,23.12-5.73,23.12-16.44-3.65-20.59,9.71,10.21,23.69,10.21,23.69-4.15,13.35,3.53,21.6,23.13,5.73,23.13,5.73.7,10.4,16.26,15.28S1271.06,291,1271.06,291Z" style="fill: #004070"/>
      <path d="M1265.25,283s19.47,22.17,37.49,16.05,26.83-29.74,26.83-29.74,36,6.79,44.78-16.83-.39-41.14-10.66-45.8-28.79-1.63-28.79-1.63-2.52-15.44-19-19.08-23.46,3.83-23.46,3.83-10.43-17.31-29-14.28-25.76,16.89-25.76,16.89-16.44-3.65-30.36,8.14-5.73,23.12-5.73,23.12-16.44-3.65-20.6,9.71,10.22,23.69,10.22,23.69-4.16,13.35,3.53,21.6,23.12,5.73,23.12,5.73.71,10.41,16.27,15.28S1265.25,283,1265.25,283Z" style="fill: #b4ebf9;stroke: #29abe2;stroke-miterlimit: 10"/>
      <g>
        <path d="M1243.61,360.77h-6.54v-4.88a1.79,1.79,0,0,0-3.57,0v4.88H1225l9.08-10.53-14.51-1.68,6.23-6.23,3.25,3.26a1.8,1.8,0,0,0,2.53,0,1.8,1.8,0,0,0,0-2.53l-3.26-3.25,4.62-4.62a1.79,1.79,0,0,0-2.52-2.53l-4.62,4.62-3.45-3.44a1.78,1.78,0,0,0-2.52,2.52l3.44,3.45-6.62,6.62-.9-13.8-10.45,8v-8.25h4.6a1.79,1.79,0,1,0,0-3.57h-4.6v-6.53a1.79,1.79,0,1,0-3.57,0v6.53h-4.87a1.79,1.79,0,1,0,0,3.57h4.87v8.2l-10.16-8.91-1.91,14.67-6.35-6.35,3.5-3.51a1.78,1.78,0,0,0-2.52-2.52l-3.51,3.5-4.71-4.71a1.79,1.79,0,1,0-2.53,2.52l4.72,4.72-3.19,3.19a1.79,1.79,0,0,0,0,2.53,1.75,1.75,0,0,0,1.26.52,1.78,1.78,0,0,0,1.26-.52l3.19-3.2,6.43,6.43-13.8,1.57,8.24,10.22h-8.26v-5a1.79,1.79,0,1,0-3.57,0v5h-6.67a1.79,1.79,0,1,0,0,3.57h6.67v4.51a1.79,1.79,0,1,0,3.57,0v-4.51h8.86l-7.94,10,13,1.39-6.6,6.6-3.5-3.51a1.79,1.79,0,1,0-2.53,2.52l3.51,3.51-4.71,4.72a1.77,1.77,0,0,0,0,2.52,1.75,1.75,0,0,0,1.26.52,1.78,1.78,0,0,0,1.26-.52l4.71-4.71,3.2,3.19a1.79,1.79,0,0,0,2.52,0,1.79,1.79,0,0,0,0-2.53l-3.19-3.19,5-5,.38,14.69,13.08-10.95v8.94h-5a1.79,1.79,0,1,0,0,3.57h5v6.66a1.79,1.79,0,1,0,3.57,0v-6.66h4.51a1.79,1.79,0,1,0,0-3.57h-4.51v-8.22l10.9,10.34,1.35-15.34,5.74,5.74-3.25,3.26a1.78,1.78,0,0,0,2.52,2.52l3.26-3.25,4.62,4.62a1.79,1.79,0,0,0,2.52,0,1.79,1.79,0,0,0,0-2.53l-4.62-4.62,3.45-3.44a1.79,1.79,0,1,0-2.53-2.53l-3.44,3.45-5.82-5.82,12.7-.94-9.07-11.44h9.87v4.6a1.79,1.79,0,0,0,3.57,0v-4.6h6.54a1.79,1.79,0,0,0,0-3.57Zm-52.1,6.53-2.39-3h9.63l-7.13,7.12Zm22.29-9.62,2.45,3.09h-8.88l6.23-6.24Zm-8.5.1v-9.27l2.61,2.29,3.91.46Zm-3.57.67-6.77-6.77,2.21-.25,4.56-3.51Zm-9.46-4.41,6.73,6.73h-9.35l2.08-2.62Zm9.46,12.36V376l-2.78-2.64-3.78-.41Zm3.57.67,6.67,6.67-4.42.33L1205.3,376Zm9.37,4.32-7.06-7.05h9.6l-2.13,2.47Zm5.89-10.94-3.27-4.11-.29-4.48,10,1.15Zm-7.4-12.63-3.73-.44-3.27-2.87,6.46-5Zm-12.62-3.49-4.76,3.67-2.77.31,1.24-9.5Zm-11.66,8.05-.56,4.32-2.66,3.35-5.4-6.69Zm-3.2,13.38,2.29,2.84.1,3.61-6.93-.74Zm6.07,10.62.17-.17,5.45.58,3.25,3.08-8.59,7.2ZM1206,380l3-2.5,5.2-.38-.87,9.82Zm12.11-6.75.44-5,1.91-2.21,5.28,6.66Z" style="fill: #29abe2"/>
        <path d="M1243.63,358.53h-6.54v-4.87a1.79,1.79,0,1,0-3.57,0v4.87H1225l9.07-10.52-14.5-1.68,6.23-6.23,3.25,3.25a1.79,1.79,0,1,0,2.53-2.52l-3.26-3.26L1233,333a1.78,1.78,0,0,0-2.52-2.52l-4.62,4.62-3.45-3.45a1.79,1.79,0,0,0-2.52,2.53l3.44,3.44-6.62,6.63-.9-13.81-10.45,8.05v-8.25h4.6a1.79,1.79,0,1,0,0-3.57h-4.6v-6.54a1.79,1.79,0,0,0-3.57,0v6.54h-4.88a1.79,1.79,0,0,0,0,3.57h4.88v8.2l-10.16-8.91-1.91,14.67-6.35-6.35,3.5-3.51a1.79,1.79,0,1,0-2.52-2.53l-3.51,3.51-4.71-4.71a1.79,1.79,0,1,0-2.53,2.52l4.72,4.72-3.2,3.19a1.79,1.79,0,1,0,2.53,2.52l3.19-3.19,6.43,6.42-13.8,1.58,8.24,10.21h-8.26v-5a1.79,1.79,0,0,0-3.57,0v5h-6.67a1.79,1.79,0,1,0,0,3.57h6.67v4.52a1.79,1.79,0,0,0,3.57,0V362.1h8.86l-7.94,10,13.05,1.4-6.6,6.59-3.5-3.5a1.79,1.79,0,1,0-2.53,2.52l3.51,3.51-4.72,4.71a1.8,1.8,0,0,0,0,2.53,1.8,1.8,0,0,0,2.53,0l4.71-4.72,3.2,3.2a1.79,1.79,0,0,0,2.52,0,1.79,1.79,0,0,0,0-2.53l-3.19-3.19,5-5,.39,14.69,13.08-11v8.94h-5a1.79,1.79,0,1,0,0,3.57h5v6.67a1.79,1.79,0,1,0,3.57,0v-6.67h4.51a1.79,1.79,0,1,0,0-3.57h-4.51v-8.22l10.9,10.34,1.35-15.33,5.74,5.74-3.25,3.25a1.79,1.79,0,0,0,0,2.53,1.75,1.75,0,0,0,1.26.52,1.78,1.78,0,0,0,1.26-.52l3.26-3.26,4.62,4.62a1.76,1.76,0,0,0,1.26.53,1.79,1.79,0,0,0,1.26-3.05l-4.62-4.62,3.44-3.45a1.78,1.78,0,0,0-2.52-2.52l-3.44,3.44-5.82-5.81,12.7-.94-9.07-11.45h9.87v4.6a1.79,1.79,0,1,0,3.57,0v-4.6h6.54a1.79,1.79,0,0,0,0-3.57Zm-52.1,6.54-2.39-3h9.62l-7.12,7.13Zm22.29-9.62,2.44,3.08h-8.88l6.24-6.23Zm-8.5.1v-9.27l2.61,2.29,3.91.45Zm-3.57.66-6.77-6.76,2.21-.25,4.56-3.51Zm-9.47-4.41,6.73,6.73h-9.34l2.08-2.62Zm9.47,12.37v9.6l-2.78-2.63-3.79-.41Zm3.57.66,6.67,6.68-4.42.32-2.25,1.89Zm9.37,4.33-7.06-7.06h9.6l-2.14,2.48Zm5.88-10.94-3.26-4.12-.29-4.48,10,1.16Zm-7.39-12.64-3.73-.43-3.27-2.87,6.46-5Zm-12.62-3.48-4.76,3.66-2.77.32,1.24-9.5Zm-11.66,8-.56,4.32-2.66,3.35-5.4-6.69Zm-3.2,13.38,2.29,2.84.09,3.6-6.92-.74Zm6.07,10.62.17-.17,5.45.58,3.24,3.08-8.58,7.19Zm14.23,3.66,3-2.5,5.2-.39-.87,9.83Zm12.11-6.76.44-5,1.91-2.22,5.28,6.67Z" style="fill: #fff;stroke: #29abe2;stroke-miterlimit: 10"/>
      </g>
      <path d="M1190.17,328.32a24,24,0,0,1-22.06,6c-13.79-3-19.3-20.91-16.54-32.85s8.27-14.93,13.78-17.92,13.49,0,13.49,0,5.82-29.87,30.64-29.87,35.84,29.87,35.84,29.87,22.06-3,27.58,11.94,2.76,32.86-13.79,35.84-22.06-6-22.06-6-5,10.18-20.43,9.57A66.25,66.25,0,0,1,1190.17,328.32Z" style="fill: #004070"/>
      <path d="M1186.62,320.16s-8.27,8.27-22.06,5.52-19.3-19.31-16.54-30.34,8.27-13.79,13.78-16.54,13.49,0,13.49,0,5.82-27.58,30.63-27.58,35.85,27.58,35.85,27.58,22.06-2.76,27.58,11,2.76,30.33-13.79,33.09-22.06-5.52-22.06-5.52-5,9.4-20.43,8.84A70.38,70.38,0,0,1,1186.62,320.16Z" style="fill: #bff0fe;stroke: #29abe2;stroke-miterlimit: 10"/>
      <g>
        <path d="M1283.85,415.72h-4.79v-3.58a1.32,1.32,0,0,0-2.63,0v3.58h-6.24l6.66-7.74-10.65-1.23,4.57-4.57,2.39,2.39a1.35,1.35,0,0,0,.93.38,1.31,1.31,0,0,0,.93-2.24l-2.39-2.39,3.39-3.39a1.31,1.31,0,0,0,0-1.85,1.29,1.29,0,0,0-1.85,0l-3.4,3.39-2.53-2.53a1.31,1.31,0,0,0-1.85,1.85l2.53,2.53-4.86,4.87-.66-10.14-7.68,5.91V394.9h3.38a1.31,1.31,0,0,0,0-2.62h-3.38v-4.8a1.31,1.31,0,1,0-2.62,0v4.8h-3.58a1.31,1.31,0,1,0,0,2.62h3.58v6l-7.46-6.54-1.4,10.77-4.67-4.66,2.57-2.58a1.31,1.31,0,1,0-1.85-1.85l-2.58,2.57-3.46-3.46a1.31,1.31,0,0,0-1.85,1.85l3.46,3.47-2.34,2.34a1.31,1.31,0,0,0,.92,2.24,1.33,1.33,0,0,0,.93-.38l2.34-2.35,4.72,4.72-10.13,1.16,6,7.5h-6.07v-3.65a1.31,1.31,0,1,0-2.62,0v3.65h-4.9a1.31,1.31,0,1,0,0,2.62h4.9v3.31a1.31,1.31,0,1,0,2.62,0v-3.31h6.51l-5.83,7.34,9.58,1-4.84,4.84-2.57-2.57a1.31,1.31,0,1,0-1.86,1.85l2.58,2.58-3.47,3.46a1.31,1.31,0,1,0,1.86,1.85l3.46-3.46,2.35,2.35a1.31,1.31,0,0,0,.92.38,1.31,1.31,0,0,0,.93-2.24l-2.35-2.34,3.66-3.66.28,10.79,9.61-8v6.57h-3.65a1.31,1.31,0,1,0,0,2.62h3.65v4.9a1.31,1.31,0,0,0,2.62,0v-4.9H1259a1.31,1.31,0,0,0,0-2.62h-3.32v-6l8,7.6,1-11.27,4.21,4.22-2.39,2.39a1.31,1.31,0,1,0,1.86,1.85l2.39-2.39,3.39,3.4a1.33,1.33,0,0,0,.93.38,1.35,1.35,0,0,0,.93-.38,1.32,1.32,0,0,0,0-1.86l-3.4-3.39,2.53-2.53a1.31,1.31,0,0,0,0-1.85,1.29,1.29,0,0,0-1.85,0l-2.53,2.53-4.27-4.27,9.33-.7-6.67-8.4h7.25v3.38a1.32,1.32,0,0,0,2.63,0v-3.38h4.79a1.31,1.31,0,1,0,0-2.62Zm-38.26,4.79-1.76-2.17h7.08l-5.24,5.23Zm16.37-7.06,1.8,2.27h-6.52l4.57-4.58Zm-6.24.08v-6.82l1.92,1.69,2.87.33Zm-2.62.48-5-5,1.62-.19,3.35-2.58Zm-6.95-3.24,4.94,5h-6.86l1.52-1.93Zm6.95,9.09v7.05l-2-1.94-2.77-.3Zm2.62.48,4.9,4.9-3.25.24-1.65,1.39Zm6.88,3.18-5.18-5.18h7l-1.57,1.82Zm4.32-8-2.39-3-.22-3.29,7.33.85Zm-5.43-9.28-2.74-.32-2.4-2.11,4.75-3.65Zm-9.27-2.56-3.49,2.69-2,.23.9-7Zm-8.56,5.91-.41,3.17-2,2.46-4-4.91Zm-2.35,9.82,1.68,2.09.07,2.65-5.08-.54Zm4.46,7.81.12-.13,4,.42,2.39,2.27L1246,435Zm10.45,2.68,2.19-1.83,3.82-.29-.64,7.22Zm8.89-5,.33-3.68,1.4-1.63,3.88,4.9Z" style="fill: #29abe2"/>
        <path d="M1283.87,414.07h-4.8V410.5a1.31,1.31,0,0,0-2.62,0v3.57h-6.25l6.67-7.73-10.66-1.23,4.58-4.57,2.39,2.39a1.31,1.31,0,0,0,1.85-1.86l-2.39-2.39,3.4-3.39a1.31,1.31,0,1,0-1.86-1.85l-3.39,3.39-2.53-2.53a1.31,1.31,0,1,0-1.86,1.85l2.53,2.53-4.86,4.87-.66-10.14-7.68,5.91v-6.06h3.38a1.32,1.32,0,0,0,0-2.63h-3.38v-4.79a1.31,1.31,0,1,0-2.62,0v4.79h-3.58a1.32,1.32,0,0,0,0,2.63h3.58v6l-7.46-6.54-1.4,10.77-4.67-4.66,2.58-2.58a1.31,1.31,0,0,0-1.86-1.85l-2.57,2.57-3.46-3.46a1.31,1.31,0,0,0-1.86,1.85l3.46,3.47-2.34,2.34a1.32,1.32,0,0,0,.93,2.24,1.28,1.28,0,0,0,.92-.39l2.35-2.34,4.72,4.72-10.14,1.16,6,7.49h-6.06v-3.64a1.32,1.32,0,0,0-2.63,0v3.64h-4.89a1.32,1.32,0,0,0,0,2.63h4.89V420a1.32,1.32,0,0,0,2.63,0V416.7h6.51L1233,424l9.59,1-4.85,4.84-2.57-2.57a1.31,1.31,0,0,0-1.86,1.85l2.58,2.58-3.46,3.46a1.31,1.31,0,0,0,0,1.85,1.29,1.29,0,0,0,1.85,0l3.46-3.46,2.35,2.35a1.33,1.33,0,0,0,.93.38,1.31,1.31,0,0,0,.92-2.24l-2.34-2.34,3.65-3.66.29,10.79,9.6-8.05v6.57h-3.64a1.31,1.31,0,1,0,0,2.62h3.64v4.9a1.31,1.31,0,0,0,2.62,0V440h3.32a1.31,1.31,0,0,0,0-2.62h-3.32v-6l8,7.6,1-11.27,4.22,4.22-2.39,2.39a1.31,1.31,0,0,0,0,1.85,1.29,1.29,0,0,0,1.85,0l2.39-2.39,3.4,3.4a1.31,1.31,0,0,0,.92.38,1.31,1.31,0,0,0,.93-2.24l-3.39-3.39,2.53-2.53a1.32,1.32,0,0,0-1.86-1.86l-2.53,2.53-4.27-4.26,9.33-.7-6.66-8.4h7.25v3.38a1.31,1.31,0,1,0,2.62,0V416.7h4.8a1.32,1.32,0,0,0,0-2.63Zm-38.27,4.8-1.75-2.17h7.07l-5.23,5.23Zm16.38-7.06,1.79,2.26h-6.52l4.58-4.57Zm-6.25.07v-6.81l1.92,1.69,2.88.33Zm-2.62.49-5-5,1.62-.19,3.35-2.58Zm-6.95-3.24,4.94,4.94h-6.86l1.53-1.92Zm6.95,9.08v7.06l-2-1.94-2.78-.3Zm2.62.49,4.9,4.9-3.24.24-1.66,1.39Zm6.89,3.18-5.19-5.18h7l-1.57,1.82Zm4.32-8-2.4-3-.21-3.29,7.32.85Zm-5.43-9.28-2.74-.32-2.41-2.11,4.75-3.65Zm-9.27-2.56-3.5,2.69-2,.23.91-7Zm-8.56,5.91-.42,3.17-2,2.46-4-4.91Zm-2.36,9.82,1.69,2.09.07,2.65-5.09-.55Zm4.46,7.81.13-.13,4,.42,2.38,2.27-6.3,5.28Zm10.45,2.68,2.19-1.83,3.82-.29-.64,7.22Zm8.9-5,.32-3.68,1.4-1.63,3.88,4.89Z" style="fill: #fff;stroke: #29abe2;stroke-miterlimit: 10"/>
      </g>
    </g>
  </g>
<g id="generation">
  <text transform="translate(38.41 1285.15)" style="font-size: 65.69450378417969px;font-family: HiraKakuStd-W8-83pv-RKSJ-H, Hiragino Kaku Gothic Std"></text>
  <text transform="translate(219.15 1271.7)" style="font-size: 104.09490966796875px;font-family: MyriadPro-Regular, Myriad Pro"></text>
</g>  <g id="_5element" data-name="5element">
    <g>
      <rect x="1238" y="1172" width="177" height="287" style="fill: #30e017;opacity: 0.5"/>
      <g>
        <path d="M1278.73,1264.23v13.69c0,1.28,0,2.72-.08,4.08h14.65v5.12h-15a66.48,66.48,0,0,1-1.28,7.45c3.85,3.76,13,13.84,15.37,16.4l-3.6,4.41c-2.56-3.52-9-11.05-13.21-15.77a43.59,43.59,0,0,1-16.33,21.93,18.52,18.52,0,0,0-3.61-3.92c12.17-8.57,16.26-20,17.46-30.5h-17.13V1282h17.53c.08-1.44.08-2.8.08-4.16v-13.61h-7.13a56.63,56.63,0,0,1-6.64,13.93,29.16,29.16,0,0,0-4-2.81c4.33-6.16,7.69-16.73,9.61-27.21l6.41,1.6c-.16.56-.72.8-1.68.8-.56,2.88-1.28,5.76-2.09,8.64h23.3v5Zm18.18-9h29.62v64.12h-5.44v-5.68h-18.9v6.56h-5.28Zm5.28,53.31h18.9v-48.19h-18.9Z" style="fill: #fff"/>
        <path d="M1351.43,1302.73c-1.93,6.32-5.13,13.21-11.13,17.29l-4.09-3.52c5.45-3.36,8.81-9.61,10.57-15.45Zm18.65-35.7v-6.16h-33.15V1256h33.15v-7.76l6.89.4c-.08.56-.56,1-1.6,1.12V1256h33.7v4.89h-33.7V1267h24.25v27h-53.24v-27Zm-18.57,4.4v7h18.57v-7Zm0,11.13v7.12h18.57v-7.12Zm10.8,31.3c0,1.92.73,2.32,5,2.32h14.89c3.44,0,4-1,4.32-8.49a15.39,15.39,0,0,0,4.89,2c-.64,9.29-2.32,11.45-8.73,11.45H1367c-7.93,0-9.93-1.44-9.93-7.28v-13l6.89.48c-.08.56-.48,1-1.61,1.12Zm14.9-5.93c-3-3.36-9.13-7.84-14.66-10.56l3.53-3.2c5.44,2.56,11.77,6.8,14.89,10.24Zm17.13-36.5h-19v7h19Zm0,18.25v-7.12h-19v7.12Zm11.13,29.62c-2.48-5-8.73-11.77-14.73-16.49l4.32-2.56c6.09,4.56,12.41,11.13,15,16.17Z" style="fill: #fff"/>
      </g>
    </g>
  </g>
<g id="manekiPower">
  <text transform="translate(205.81 1456.78)" style="font-size: 121.63294982910156px;fill: #070707;font-family: MyriadPro-Regular, Myriad Pro">448045</text>
  <ellipse cx="82.99" cy="1415.19" rx="49.5" ry="49.5"/>
  <polygon points="82.92 1378.7 99.5 1378.7 81.54 1414.62 99.5 1414.62 68.55 1454.33 83.19 1421.63 67.58 1422.06 82.92 1378.7" style="fill: #fff"/>
  <text transform="translate(1269.14 1425.38)" style="font-size: 104.09490966796875px;font-family: MyriadPro-Regular, Myriad Pro">10</text>
</g><g id="tokenID">
<text transform="translate(1084.21 149.82)" style="font-size: 104.09490966796875px;font-family: MyriadPro-Regular, Myriad Pro">115</text>
</g>  <g id="logo">
    <path d="M412.51,140.41l-34.29.33-.26-2-.63-.18a104.29,104.29,0,0,1-14.72-5.72l-6.77,1.86c-.39.11-1,.25-3.32.81-3.36.81-9,2.16-15.29,3.74l-10.12,2.54s-3.56-10.09-3.59-10.19c-8.45,2.14-19,3.94-27.51,3.94-6.05,0-10.75-.93-14.39-2.84-1.07-.56-2.33-1.25-3.68-2.09l-.9,4-36.89-4.45.16-1-28.76,8.94-2.28-3.49-17.92,10.06-3.65-7.14a56.94,56.94,0,0,1-17,2.6,34,34,0,0,1-16-3.76l-1,5.35-42.15-7L113,123c.36-3.14.68-8.21,1-15.11l-14.18.69c1,5.49,2.33,12,4,19.37l2.89,12.81-41.83,7.75L61.46,138c-1.72-5.28-3.28-13.16-4.79-24.07a213.34,213.34,0,0,1-2.21-27.48c0-12,1.43-21.08,4.36-27.81C64.76,45,75.72,43.57,80.15,43.57c6.68,0,13.58,3.14,21.71,9.88l.28.23L105.65,57l1.86-1.85C115,47.55,121.65,44,128.5,44a26.65,26.65,0,0,1,23.1,12.34l.16-1.75,10.41-.14h1.68c30.77,0,40.88,4.13,45.53,8.57L225.26,63c1.22-.41,2.52-.8,3.86-1.16a65.15,65.15,0,0,1,13.67-2.24c.91-.05,1.81-.07,2.68-.07,10.49,0,19.06,3.24,25.49,9.63q.6.6,1.17,1.23A43.53,43.53,0,0,1,288.77,61a47.66,47.66,0,0,1,14.08-2.21,43.39,43.39,0,0,1,13,2,39.18,39.18,0,0,1,4.72,1.84c.16-1.15.34-2.36.53-3.62l1.79-12.14,41.85,8.73-2.84,11.7c-.2.83-.39,1.64-.58,2.44,5.07-2,9.61-3.7,13.55-4.93l4.28-15.3,10.47,2.16c2.91.6,25,6.41,33.22,8.48l-1.53,21.43,13.1,2.19c5.27.87,9.86-3.72,9.86-3.72.29-.83,1.27-16.34,1.6-17.1,5.78-13.26,16.46-14.7,20.78-14.7,6.5,0,13.2,3,21.09,9.59L488,58l3.25,3c.59-.58,1.15-1.13,1.66-1.66,7.26-7.32,13.74-10.73,20.41-10.73,12.26,0,21.77,7.08,26.09,19.42a41.63,41.63,0,0,1,1.43,5,45.4,45.4,0,0,1,5-1.87A46,46,0,0,1,559.48,69,42,42,0,0,1,572.09,71a35,35,0,0,1,9.77,4.8l1-.76c8.11-6,18.49-9.1,30.88-9.1,10.36,0,19.45,2.39,27.07,7.12.84-1.54,1.75-3.08,2.71-4.62l5-8L685,75.07l30.1-15.29,5.54,8.45a108.18,108.18,0,0,1,8.83,15.55,48.93,48.93,0,0,1,4.48,19.9c0,10.81-2.82,19.88-8.39,26.95-6.51,8.33-16.15,12.74-27.86,12.74a37.7,37.7,0,0,1-16-3.38,35.11,35.11,0,0,1-14.48,3c-8.78,0-16.16-2.45-22-7.3l-.55.46c-8.13,6.62-18.24,10-30.08,10s-21.81-2.61-29.85-7.78c-8.42,2.55-21.74,5.24-31.78,5.24-5.87,0-10.45-.91-14-2.77-.15-.07-.29-.15-.43-.23l-.55,2.89-41.08-6.78,1.33-11.7c.34-3,.65-7.81.93-14.36l-13.24.65c.95,5.25,2.23,11.42,3.82,18.47l2.84,12.57-40.76,7.55-2.65-8.15L432,144.3ZM236.19,100.59a94.65,94.65,0,0,0,4.44,15.5l1.3,3.34.2-1.19a83.12,83.12,0,0,0,.94-17.53c0-.93-.11-1.69-.19-2.3A17.16,17.16,0,0,0,236.19,100.59ZM608.66,106a12.36,12.36,0,0,0,4.86.84,11.57,11.57,0,0,0,4.67-.76,13.87,13.87,0,0,0-5.55-.92A7.61,7.61,0,0,0,608.66,106ZM679,88.07A42.34,42.34,0,0,0,674.9,95l14.64-.81c-.87-1.25-2-2.84-3.44-4.86l-4-5.54Z" style="fill: #0702b0"/>
    <path d="M401.41,92.58s16.63,9.5,28.33,8.82,28.32-12.21,28.32-12.21" style="fill: none;stroke: #ff2000;stroke-miterlimit: 10;stroke-width: 6px"/>
    <path d="M383.35,129.21c-.61-4.59-.66-12.3-.16-23.56a241,241,0,0,1,2.07-24.37l.05-.32-7.94-1.76L384,55.66l5.29,1.08c3.39.69,10.4,2.39,21.41,5.17l5.75,1.46L412.13,79.1l1.33.17-.92,5.88c-1.61,10.22-2.41,24.74-2.38,43.15v5.76L384,134.3Z" style="fill: #0702b0"/>
    <path d="M409.29,67.54l-3.31,12-21.35-4.71,3.51-12.43Q393,63.44,409.29,67.54Zm-4.94,60.77-15.24.14q-.84-6.31-.12-22.54a236.41,236.41,0,0,1,2-23.73l15.8,2.07Q404.31,100.1,404.35,128.31Z" style="fill: url(#Sky_2)"/>
    <path d="M387.08,113.63l-5.81,13.23a98.76,98.76,0,0,1-15.54-6.21q-7.51-3.7-14.93-7.52.6,3.3,2.5,9.82c-.73.2-8.85,2.09-18.54,4.49-4.14-11.62-5-24.44-5-36.66,0-9.56,1.16-18,3-30.67l18.42,3.81Q346.69,82.35,347,89.58q4-3.42,16.64-8.62a163.15,163.15,0,0,1,17.54-6.32L387,88l-14.83,4.61q-11.13,4-14.24,8,3.81,2.7,13.94,7.12A152.18,152.18,0,0,0,387.08,113.63Z" style="fill: url(#Sky_2-2)"/>
    <path d="M296,129.19c-5.15,0-9-.71-11.84-2.18-7.06-3.68-14.77-9.06-18.47-21.09-2.73-8.87-1.22-17.44,4.5-25.49a37.72,37.72,0,0,1,20.21-14.5,42.69,42.69,0,0,1,12.5-2,38.5,38.5,0,0,1,11.41,1.73c9.31,2.94,15.61,9,18.26,17.65,1.7,5.54,1.44,10.63-.79,15.12l-.07.14a18,18,0,0,1-2.68,3.77l4,19.93-5,1.54C319.64,126.43,306.06,129.19,296,129.19Z" style="fill: #0702b0"/>
    <path d="M327,85.07q1.89,6.14-.45,10.83t-8.68,6.55q-7.75,2.39-30.29,3.13c7.43,7.08,27.22,1.48,35.91-1.19l2.81,13.92c-10.35,3.19-32.14,7.37-39.48,3.55-6.85-3.57-12.63-8-15.6-17.64q-3.27-10.64,3.68-20.43a31.94,31.94,0,0,1,17.19-12.31,34.07,34.07,0,0,1,20.49-.22Q323.83,74.82,327,85.07Zm-14.67,3.46c-.67-2.17-2.64-3.48-5.93-3.94a19.87,19.87,0,0,0-18.55,8.22q20.1-1.14,23.45-2.18c.7-.21,1.12-.45,1.25-.7S312.55,89.3,312.31,88.53Z" style="fill: url(#Sky_2-3)"/>
    <path d="M210.76,127.16c-3.32-5-5.95-12-8-21.34a126.14,126.14,0,0,1-3.08-21.49c-.1-2-.06-5.4.1-10.43l.19-5.6,25.58-.08c1.36-.49,2.81-.94,4.38-1.35a60.11,60.11,0,0,1,12.62-2.06c10.13-.51,18.23,2.15,24.06,7.9s8.83,13.49,9.33,23.43a98.92,98.92,0,0,1-2.49,26.46l-1.14,5.12-26-3.11,1-6a87.67,87.67,0,0,0,1-18.78C248.05,94.4,247,93,247,93l-.09-.13c-.46-.64-2.07-1-4.2-.86-4.57.23-9,2-13.55,5.25a105.08,105.08,0,0,0,5.5,20.41l2.3,5.83-23.8,7.33Z" style="fill: #0702b0"/>
    <path d="M270.12,96.43a92.78,92.78,0,0,1-2.35,24.91L253,119.57a92.78,92.78,0,0,0,1.1-20q-.36-7.31-2.52-10.11-2.58-3.57-9.19-3.25-10,.51-19.54,8.62a114.62,114.62,0,0,0,6.38,25L215.61,124q-4.35-6.61-7.2-19.41A119.62,119.62,0,0,1,205.46,84q-.14-2.7.11-9.94l15,0,.16,3.3q3.57-3,10.7-4.85a54.1,54.1,0,0,1,11.45-1.88q12.71-.64,19.68,6.23T270.12,96.43Z" style="fill: url(#linear-gradient)"/>
    <path d="M189.47,129.88a52.37,52.37,0,0,1-20,4,28.22,28.22,0,0,1-19.68-7.51,25.59,25.59,0,0,1-8.41-19.49c0-10.12,3.77-18.18,11.21-24l1.11-.82,1.94-22.27,5.25-.07h1.62c36.34,0,41.22,5.95,42.83,7.9,5.2,6.33,4.3,23.63,3.64,31.08v9.06c0,3.19,1.11,6.91,3.3,11l2.67,5-22.26,12.38Z" style="fill: #0702b0"/>
    <path d="M207.19,121.52l-12,6.7-3.08-6A47.41,47.41,0,0,1,169.51,128a22.48,22.48,0,0,1-15.76-6,19.88,19.88,0,0,1-6.52-15.21q0-12.4,9-19.38c5.43-4.23,12.49-5.64,21.1-6.34A27.26,27.26,0,0,1,192,83.89l.12,14.43c-3.8-1.75-11-3.7-14.79-3.7q-6.88,0-11.23,2.9a11.19,11.19,0,0,0-5,9.78,6.43,6.43,0,0,0,2.35,5,7.67,7.67,0,0,0,5.35,2.18q10,0,15.76-4.71t6.07-13.41s2.18-13.25-.23-16.65C186,73.52,160,77.59,160,77.59l1-12.07s34.77-.45,39.88,5.78c4.32,5.26,2.32,27.12,2.32,27.12v9.33Q203.21,114,207.19,121.52Z" style="fill: url(#Sky_2-4)"/>
    <path d="M64.72,135.63c-1.62-4.95-3.13-12.5-4.6-23.06a205.33,205.33,0,0,1-2.18-26.68c0-11.16,1.28-19.49,3.91-25.47C66.31,50.31,73.92,48.8,78.07,48.8c5.33,0,11.12,2.72,18.23,8.56l.15.12,7.44,6.86c2.27-2.15,4.25-4.07,5.9-5.72,6.38-6.38,11.81-9.36,17.08-9.36,10.26,0,17.94,5.72,21.61,16.11,2,5.52,3,13,3,22.74,0,18.22-.8,31.31-2.46,40l-1.23,6.49-31.51-5.15L117,123c.52-4.56,1-12.88,1.36-24.73,0-.25,0-.5,0-.75l-2.53,3.72-21.33,1-2.17-2.68c-.69-.87-1.34-1.65-2-2.36.65,5.89,2.28,15.54,5.88,31.35l1.58,6.9-31.28,5.74Z" style="fill: #0702b0"/>
    <path d="M149.89,87.53q0,26.44-2.34,38.73l-18.61-3q.81-7.14,1.4-25.28.58-19.18-.11-19.19-2.46,0-12.88,15.33l-14.51.7q-9.24-11.46-13-11.46-1.41,0-1.41,7.6,0,10.42,6.44,38.62l-18.49,3.39q-2.22-6.78-4.33-21.88A197.86,197.86,0,0,1,70,85.3Q70,55,83.29,55q5.38,0,13.93,7l11.94,11q6.56-6.09,10.65-10.18,7.38-7.38,12.29-7.38,11.11,0,15.21,11.59Q149.89,74.19,149.89,87.53Z" style="fill: url(#Sky_2-5)"/>
    <path d="M701.4,137a31.56,31.56,0,0,1-16.16-4.09,29.57,29.57,0,0,1-14.66,3.76c-10,0-17.7-3.59-23-10.67l0,0C643.21,120,641,112.34,641,103.1c0-10.2,3.57-21,10.63-32.15L654.14,67l28,11.18L677.86,84a50.08,50.08,0,0,0-5.78,10.26,27.58,27.58,0,0,0-2.44,10,7.76,7.76,0,0,0,.94,4.05l.06.09.06.1a2.61,2.61,0,0,0,.44.62,1,1,0,0,0,.09-.15,6,6,0,0,0,.72-3.15v-5.31l23.65-1.3,1.42,3.91c1.27,3.48,2.86,5.74,4.05,5.74.23,0,.72,0,1.59-1.1a4.4,4.4,0,0,0,1.11-2.94,19.81,19.81,0,0,0-2.52-9.73c-.27-.47-1.5-2.46-6.83-9.82L690.56,80,717,66.7l2.75,4.15a101.62,101.62,0,0,1,8.43,14.68,42.73,42.73,0,0,1,4,17.57c0,9.47-2.42,17.32-7.2,23.34C719.45,133.43,711.52,137,701.4,137Z" style="fill: #0702b0"/>
    <path d="M726.57,103.1q0,12.32-6,19.85-6.65,8.43-19.18,8.42-9.54,0-16.08-5.21A24,24,0,0,1,670.58,131q-12.21,0-18.52-8.42-5.43-7.43-5.43-19.52,0-13.74,9.75-29.15l17,6.76a54.66,54.66,0,0,0-6.43,11.42A32.59,32.59,0,0,0,664,104.32a13,13,0,0,0,1.78,7,6.13,6.13,0,0,0,5.54,3.55A5.32,5.32,0,0,0,676,112a11.53,11.53,0,0,0,1.55-6.09l14.19-.78q3.43,9.42,9.32,9.42a7.48,7.48,0,0,0,6-3.21,10,10,0,0,0,2.33-6.43,25.55,25.55,0,0,0-3.21-12.42q-1.11-2-7.21-10.42L715,74a98.39,98.39,0,0,1,8,13.85A37.22,37.22,0,0,1,726.57,103.1Z" style="fill: url(#New_Gradient_Swatch_2)"/>
    <path d="M455.32,137.28c-1.57-4.78-3-12.06-4.45-22.26a199.7,199.7,0,0,1-2.09-25.77c0-10.77,1.23-18.81,3.77-24.58,4.3-9.77,11.66-11.23,15.66-11.23,5.14,0,10.74,2.63,17.6,8.27l.15.12,7.18,6.62c2.2-2.08,4.1-3.93,5.7-5.52,6.16-6.17,11.4-9,16.49-9,9.91,0,17.32,5.53,20.87,15.55,1.92,5.33,2.86,12.53,2.86,22,0,17.6-.78,30.23-2.38,38.63l-1.19,6.26-30.42-5,.71-6.2c.5-4.4.94-12.43,1.31-23.87l0-.73-2.45,3.59-20.6,1L482,102.52c-.67-.84-1.3-1.6-1.88-2.29.63,5.69,2.19,15,5.68,30.28l1.52,6.66-30.2,5.55Z" style="fill: #0702b0"/>
    <path d="M532.51,91.4q0,25.55-2.26,37.4l-18-2.93q.79-6.9,1.36-24.41.55-18.54-.12-18.53-2.37,0-12.43,14.8l-14,.68q-8.93-11.07-12.54-11.08-1.37,0-1.36,7.35,0,10,6.22,37.29l-17.86,3.28q-2.15-6.56-4.18-21.14a191.24,191.24,0,0,1-2-24.86Q455.32,60,468.21,60q5.19,0,13.45,6.78l11.52,10.62q6.33-5.88,10.29-9.83,7.11-7.12,11.86-7.12,10.74,0,14.69,11.19Q532.51,78.52,532.51,91.4Z" style="fill: url(#New_Gradient_Swatch_2-2)"/>
    <path d="M617.45,139.79c-11.06,0-20.34-2.44-27.61-7.26-9.1-6.13-13.7-15-13.7-26.51S580.45,85.37,589,79.11c7.16-5.29,16.49-8,27.72-8,10.56,0,19.58,2.68,26.81,8l0,0c8.41,6.26,12.68,15,12.68,25.89s-4.06,19.6-12.06,26.09C637,136.87,628,139.79,617.45,139.79Zm-1.89-41a12.62,12.62,0,0,0-7.59,2,5.57,5.57,0,0,0-2.55,5.09c0,1.64.45,3,2.61,4.22a16.81,16.81,0,0,0,8.42,1.92,15.67,15.67,0,0,0,8.34-1.92,5,5,0,0,0,2.79-4.78c0-1.52-.36-3.14-3-4.65A18.44,18.44,0,0,0,615.56,98.77Z" style="fill: #0702b0"/>
    <path d="M650.6,105q0,13.64-10,21.73-9.21,7.42-23.17,7.43-15,0-24.51-6.32-11.19-7.55-11.2-21.84,0-14.64,10.54-22.4,9.32-6.87,24.39-6.87,14.08,0,23.51,6.87Q650.59,91.39,650.6,105Zm-17.41.33q0-6.21-5.88-9.53a23.82,23.82,0,0,0-11.75-2.66,18.13,18.13,0,0,0-10.86,3.1,11.11,11.11,0,0,0-4.88,9.65,9.9,9.9,0,0,0,5.43,9.09,22.26,22.26,0,0,0,11.2,2.66q6.87,0,11.31-2.77A10.57,10.57,0,0,0,633.19,105.35Z" style="fill: url(#New_Gradient_Swatch_2-3)"/>
    <path d="M555.23,137.24c-5,0-8.71-.69-11.43-2.11-6.81-3.55-14.25-8.74-17.83-20.36-2.63-8.57-1.17-16.85,4.34-24.62a36.53,36.53,0,0,1,19.52-14,41,41,0,0,1,12.07-1.88,37.23,37.23,0,0,1,11,1.67c9,2.84,15.07,8.73,17.63,17,1.64,5.34,1.38,10.25-.77,14.59l-.07.14a17,17,0,0,1-2.58,3.64L591,130.6l-4.86,1.49C578.11,134.57,565,137.24,555.23,137.24Z" style="fill: #0702b0"/>
    <path d="M585.19,94.63q1.81,5.93-.43,10.46t-8.38,6.33q-7.5,2.31-29.25,3c7.17,6.84,26.28,1.43,34.67-1.15l2.71,13.44c-10,3.08-31,7.12-38.12,3.43-6.61-3.45-12.19-7.73-15.06-17q-3.15-10.26,3.55-19.72a30.88,30.88,0,0,1,16.6-11.89,32.92,32.92,0,0,1,19.78-.21Q582.14,84.74,585.19,94.63ZM571,98q-1-3.15-5.73-3.81a19.19,19.19,0,0,0-17.91,7.94Q566.79,101,570,100a2.1,2.1,0,0,0,1.21-.68A2.7,2.7,0,0,0,571,98Z" style="fill: url(#New_Gradient_Swatch_2-4)"/>
    <g>
      <g>
        <g>
          <g>
            <path d="M475.38,131.52c-1.25-1.47-4.4-2.48-9.09-2.73a39.8,39.8,0,0,0-73.23,28.47c-6.79,6.28-10.55,12.31-7.68,15.68,2.53,3,11.43,2.58,16.53,2.08a39.79,39.79,0,0,0,69.43-32C474.54,140.68,479.31,136.14,475.38,131.52Z" style="fill: #ffd404"/>
            <path d="M428.46,192.46A43.35,43.35,0,0,1,400.35,179c-14,1.05-16.89-2.41-17.89-3.58-2.81-3.31-3.85-9.34,6.46-19.5a43.23,43.23,0,0,1-.41-10.48,43.62,43.62,0,0,1,80-20.31c4.71.5,8,1.81,9.78,3.91a9.28,9.28,0,0,1,2.32,7.22c-.42,3.44-2.79,6.3-5.21,8.39a43,43,0,0,1,.07,7.86A43.67,43.67,0,0,1,428.46,192.46ZM403.51,171l1.29,1.5a36,36,0,0,0,63.06-20.63,36.46,36.46,0,0,0-.3-8.34l-.35-2.31,1.9-1.37c2.72-2,3.8-3.63,3.91-4.54,0-.17.08-.58-.54-1.31-.35-.32-2.15-1.18-6.4-1.41L464,132.5l-1-1.77a36,36,0,0,0-66.18,25.73l.78.47-1.77,2.93c-7.38,6.83-7.75,10.34-7.53,10.6.55.49,4.06,1.65,13.24.75Z" style="fill: #0000b2"/>
          </g>
          <path d="M394.17,161.26l-3.3-6.44c.48-.52,11.85-12.95,33.08-20.73a170.54,170.54,0,0,1,41.71-9.21l.55,7.63a128.59,128.59,0,0,0-39.5,7.24C407.36,146.84,394.27,161.15,394.17,161.26Z" style="fill: #0000b2"/>
        </g>
        <g>
          <path d="M430,165.64a42.83,42.83,0,0,0,4.38,9.32,10.72,10.72,0,1,0-6.37,1.33,48.44,48.44,0,0,1-3.85-8.84Z" style="fill: #0000b2"/>
          <path d="M447.69,181.81l.12-.1s-2.21,1.62-7.58-.91c-2.22-1.05-4.19-3.32-5.81-5.84a10.61,10.61,0,0,1-6.15,1.36l-.22,0c2.22,3.92,5.38,8.07,9.57,10a19.68,19.68,0,0,0,6.85,2c4.73.39,7.15-1.78,7.5-2.12Z" style="fill: #0000b2"/>
          <path d="M434.42,175a42.83,42.83,0,0,1-4.38-9.32l-5.84,1.81a48.44,48.44,0,0,0,3.85,8.84l.22,0A10.61,10.61,0,0,0,434.42,175Z" style="fill: #0000b2"/>
        </g>
      </g>
      <circle cx="423.61" cy="103.73" r="6.89" style="fill: #0000b2"/>
    </g>
  </g>
  <defs>
    <linearGradient id="Sky_2" data-name="Sky 2" x1="406.87" y1="58.34" x2="378.85" y2="155.96" gradientUnits="userSpaceOnUse">
      <stop offset="0" stop-color="#c6e0f5"/>
      <stop offset="0.06" stop-color="#bdddf4"/>
      <stop offset="0.15" stop-color="#a3d4f1"/>
      <stop offset="0.28" stop-color="#7ac7eb"/>
      <stop offset="0.42" stop-color="#40b3e4"/>
      <stop offset="0.57" stop-color="#009edc"/>
      <stop offset="0.87" stop-color="#0077c3"/>
      <stop offset="0.99" stop-color="#005d9b"/>
    </linearGradient>
    <linearGradient id="Sky_2-2" x1="361.62" y1="50.01" x2="354.97" y2="154.01" xlink:href="#Sky_2"/>
    <linearGradient id="Sky_2-3" x1="316.67" y1="61.44" x2="282.63" y2="143.26" xlink:href="#Sky_2"/>
    <linearGradient id="linear-gradient" x1="238.54" y1="60.55" x2="236.14" y2="160.36" gradientUnits="userSpaceOnUse">
      <stop offset="0" stop-color="#c6e0f5"/>
      <stop offset="0.06" stop-color="#bdddf4"/>
      <stop offset="0.15" stop-color="#a3d4f1"/>
      <stop offset="0.28" stop-color="#7ac7eb"/>
      <stop offset="0.42" stop-color="#40b3e4"/>
      <stop offset="0.57" stop-color="#009edc"/>
      <stop offset="0.87" stop-color="#0077c3"/>
    </linearGradient>
    <linearGradient id="Sky_2-4" x1="179.56" y1="61.4" x2="176.38" y2="132.23" xlink:href="#Sky_2"/>
    <linearGradient id="Sky_2-5" x1="98.28" y1="49.18" x2="128.81" y2="163.35" xlink:href="#Sky_2"/>
    <radialGradient id="New_Gradient_Swatch_2" data-name="New Gradient Swatch 2" cx="776.17" cy="46.5" r="423.59" gradientTransform="translate(0 -0.42)" gradientUnits="userSpaceOnUse">
      <stop offset="0" stop-color="#fff700"/>
      <stop offset="0.06" stop-color="#ffea00"/>
      <stop offset="0.24" stop-color="#ffc800"/>
      <stop offset="0.42" stop-color="#ffad00"/>
      <stop offset="0.61" stop-color="#ff9a00"/>
      <stop offset="0.8" stop-color="#ff8f00"/>
      <stop offset="1" stop-color="#ff8b00"/>
    </radialGradient>
    <radialGradient id="New_Gradient_Swatch_2-2" cx="514.22" cy="57.74" r="243.37" xlink:href="#New_Gradient_Swatch_2"/>
    <radialGradient id="New_Gradient_Swatch_2-3" cx="594.62" cy="68.98" r="233.37" xlink:href="#New_Gradient_Swatch_2"/>
    <radialGradient id="New_Gradient_Swatch_2-4" cx="581.66" cy="56.88" r="327.4" xlink:href="#New_Gradient_Swatch_2"/>
  </defs></svg>