<svg xmlns="http://www.w3.org/2000/svg" xmlns:xlink="http://www.w3.org/1999/xlink" viewBox="0 0 1500 1500">  <g id="sky">
    <rect width="1500" height="1499.86" style="fill: #ffe600"/>
  </g>  <g id="pattern">
    <path d="M1401.07,0h-3.37l37.92,73.84-49.43,92.52a30.44,30.44,0,0,0-12-2.45c-.48,0-1,0-1.43,0V0h-3V164.23a30.68,30.68,0,0,0-10.73,3.7l-41.57-77.8-8.89-17.32L1347.46,0h-3.4l-37.9,70.93h-110.4a30.81,30.81,0,0,0-9.32-18.45,30.92,30.92,0,0,0-7-5.46l25.12-47h-3.4l-24.39,45.65a30.58,30.58,0,0,0-25.84.25L1127.41,0H1124l24.3,47.32a30.88,30.88,0,0,0-15,25.61H1022L984.56,0h-3.37l38.43,74.84-49.43,92.52a30.44,30.44,0,0,0-12-2.45c-.48,0-.95,0-1.43,0V0h-3V165.23a30.68,30.68,0,0,0-10.73,3.7l-41.57-77.8-8.89-17.32L932,0h-3.4L890.16,71.93H782A31,31,0,0,0,764.57,46L789.14,0h-3.4L761.8,44.81A30.6,30.6,0,0,0,740,45c-.87.24-1.72.51-2.55.82L713.92,0h-3.37L734.7,47a31,31,0,0,0-17.21,24.9H608L571.07,0H567.7l37.92,73.84-49.43,92.52a30.44,30.44,0,0,0-12-2.45c-.48,0-.95,0-1.43,0V0h-3V164.23a30.68,30.68,0,0,0-10.73,3.7l-41.57-77.8-8.89-17.32L517.46,0h-3.4l-37.9,70.93H365.76a30.81,30.81,0,0,0-9.32-18.45A30.92,30.92,0,0,0,349.49,47L374.61,0h-3.4L346.82,45.65A30.58,30.58,0,0,0,321,45.9L297.41,0H294l24.3,47.32a30.88,30.88,0,0,0-15,25.61H192L154.56,0h-3.37l38.43,74.84-49.43,92.52a30.44,30.44,0,0,0-12-2.45c-.48,0-1,0-1.43,0V0h-3V165.23a30.68,30.68,0,0,0-10.73,3.7L71.45,91.13,62.56,73.81,102,0h-3.4L60.16,71.93H0v3H59.4l9.37,17.54,40.54,78.95a31.13,31.13,0,0,0-8.77,10.71L0,121.32v3.51l99.33,60.08a30.64,30.64,0,0,0-2,10.82c0,.65,0,1.29.07,1.93H0v3H97.76A30.6,30.6,0,0,0,102,211.92L0,273v3.49l103.69-62.06a31.24,31.24,0,0,0,8.74,7.81l-2.58,4.87L59.33,321.63H0V325H58.4L110,421.54A31,31,0,0,0,98.15,435a30.53,30.53,0,0,0-3.66,12H0v3.75H94.38a30.42,30.42,0,0,0,3.45,13.22L0,522.46V526l99.35-59.46a31.16,31.16,0,0,0,9.71,9.48L58.43,570.74l-.38.71.12.21H0v3H59.69l49.64,96.67a31.24,31.24,0,0,0-10.09,9.82L0,621.13v3.5l97.74,59.12a30.49,30.49,0,0,0-3.1,9.88H0v3H94.38c0,.11,0,.22,0,.33H0v3H94.39a30.89,30.89,0,0,0,15.25,25.36L60.16,817.93H0v3H59.4l.35.66,0,.09H0v3H61.4l7.37,13.79,40.54,78.95a31.13,31.13,0,0,0-8.77,10.71L0,867.32v3.51l99.33,60.08a30.64,30.64,0,0,0-2,10.82c0,.65,0,1.29.07,1.93H0v3H97.76A30.6,30.6,0,0,0,102,957.92L0,1019v3.49l103.69-62.06a31.24,31.24,0,0,0,8.74,7.81l-2.58,4.87-50.52,94.56H0V1071H58.4l51.6,96.58A31,31,0,0,0,98.15,1181a30.53,30.53,0,0,0-3.66,12H0v3.75H94.38a30.42,30.42,0,0,0,3.45,13.22L0,1268.46V1272l99.35-59.46a31.16,31.16,0,0,0,9.71,9.48l-50.63,94.77-.38.71.12.21H0v3H59.69l49.64,96.67a31.24,31.24,0,0,0-10.09,9.82L0,1367.13v3.5l97.74,59.12A30.52,30.52,0,0,0,94.37,1443H0v3H94.39a30.91,30.91,0,0,0,16,25.77L95.42,1500h3.39l14.23-27a30.57,30.57,0,0,0,27.58-1.68L155.91,1500h3.4l-16.17-30.27a30.8,30.8,0,0,0,12.86-25c0-.16,0-.33,0-.5s0-.18,0-.27H266.4l29.94,56h3.4l-30.05-56.24,50.8-96.25,2.61-4.89a30.56,30.56,0,0,0,8.65,2.62V1500h3V1345.52c.48,0,.95,0,1.43,0a30.72,30.72,0,0,0,8.68-1.26L398.64,1445h.88l-29,55h3.39l28.72-54.42.33-.62H508.36a30.91,30.91,0,0,0,17.14,27.37L510.89,1500h3.4l14-26.46a30.61,30.61,0,0,0,25.69-1.77l.29-.13L569.38,1500h3.4l-15.91-29.77A30.88,30.88,0,0,0,572,1445H680.4l29.4,55h3.41l-29.52-55.24,50.8-96.25,2.61-4.89a30.56,30.56,0,0,0,8.65,2.62V1500h3V1346.52c.48,0,1,0,1.43,0a30.72,30.72,0,0,0,8.68-1.26L812.64,1446h.88L785,1500h3.39l28.19-53.42.33-.62H924.39a30.91,30.91,0,0,0,16,25.77L925.42,1500h3.39l14.23-27a30.57,30.57,0,0,0,27.58-1.68L985.91,1500h3.4l-16.17-30.27a30.8,30.8,0,0,0,12.86-25c0-.16,0-.33,0-.5s0-.18,0-.27h110.4l29.94,56h3.4l-30-56.24,50.8-96.25,2.61-4.89a30.56,30.56,0,0,0,8.65,2.62V1500h3V1345.52c.48,0,1,0,1.43,0a30.42,30.42,0,0,0,11.27-2.16l52.11,101.47L1200.47,1500h3.39l28.72-54.42.37-.69-52.76-102.73a31.34,31.34,0,0,0,9-6.92l155,93.75a30.51,30.51,0,0,0-3.79,14.74,30.92,30.92,0,0,0,16,27L1340.89,1500h3.4l14.73-27.92a30.56,30.56,0,0,0,29.19-.47l15.17,28.39h3.4l-16-30a30.71,30.71,0,0,0,9.4-40.13l99.84-59.76v-3.5l-101.42,60.71a31.2,31.2,0,0,0-8.26-8.18l52.62-98.49H1500v-3h-58.48L1390,1221.17a31.18,31.18,0,0,0,10.28-10.06l99.75,60.33v-3.5l-98.27-59.44a30.58,30.58,0,0,0,3.25-12.82h95v-3h-95.07a30.74,30.74,0,0,0-9.49-20.2,31.26,31.26,0,0,0-5.65-4.67l15.88-30.08,35.67-66.77H1500v-3.33h-60.28l-.18.33h-.1l-51.25-99.8a31.34,31.34,0,0,0,9-6.92L1500,1023.45V1020l-101-61.06a30.61,30.61,0,0,0,5.56-13.23H1500v-3h-95.06c0-.64.06-1.28.06-1.93a30.37,30.37,0,0,0-2.8-12.77l97.8-58.54v-3.5l-99.18,59.37a31.09,31.09,0,0,0-11.93-11.61l49.17-92,1.08,2H1500v-5.75h-60.53L1388.76,723A30.86,30.86,0,0,0,1402,698h98v-5.33h-98.28a30.64,30.64,0,0,0-3.16-10L1500,621.92v-3.5l-103,61.62a31.22,31.22,0,0,0-8.34-8.61l52.23-97.77H1500v-3h-60.48l-51.32-96A31.21,31.21,0,0,0,1399,464.55l101,61.1v-3.51L1400.49,462a30.56,30.56,0,0,0,3.45-12.28H1500v-4.75h-96.13a30.9,30.9,0,0,0-14.08-23.12l50.79-96.23.33-.62H1500v-4.33h-61.24l-50.57-98.47a31.34,31.34,0,0,0,9-6.92L1500,277.45V274l-101-61.06a30.61,30.61,0,0,0,5.56-13.23H1500v-3h-95.06c0-.64.06-1.28.06-1.93a30.37,30.37,0,0,0-2.8-12.77l97.8-58.54v-3.5l-99.18,59.37a31.25,31.25,0,0,0-10.67-10.89l49-92.84.33-.63H1500v-3h-62Zm-40,222.62a30.56,30.56,0,0,0,8.65,2.62V417a30.55,30.55,0,0,0-10.35,2.7l-50.48-98.29,49.57-93.91ZM1194.2,1302l151.15-90.47a31.15,31.15,0,0,0,11.35,10.43l-50,94.74H1196.94c0-.64.06-1.28.06-1.93A30.37,30.37,0,0,0,1194.2,1302Zm38.74-1102.3h110.82a30.6,30.6,0,0,0,4.22,11.26l-159.9,95.71a31.1,31.1,0,0,0-8.16-7.73Zm-4.43-2.26,1.12,2.09,0,0Zm-46.36,345,49-92.77,0,.05h109.24a30.42,30.42,0,0,0,3.45,13.22l-151,90.39A31.25,31.25,0,0,0,1182.15,542.4Zm7,46.84,154.6,93.51a30.52,30.52,0,0,0-3.37,13.21H1231.44l-51.25-99.8A31.34,31.34,0,0,0,1189.14,589.24Zm-11-48.88a30.44,30.44,0,0,0-12-2.45c-.48,0-1,0-1.43,0V355.52a30.52,30.52,0,0,0,13.46-3.91l49.41,96.23Zm-12,59.2a30.72,30.72,0,0,0,8.68-1.26L1228.64,699h.88l-49.73,94.23a30.69,30.69,0,0,0-15-4.27V599.52C1165.23,599.54,1165.7,599.56,1166.18,599.56ZM1307.4,823.68l7.37,13.79,40.54,78.95a31.13,31.13,0,0,0-8.77,10.71L1192.88,834.2a30.38,30.38,0,0,0,3-10.52ZM1196,819.93H1305.4l.35.66,0,.09H1196C1196,820.43,1196,820.18,1196,819.93ZM1358.43,967.2l-2.57,4.87-50.53,94.56H1193.72a30.55,30.55,0,0,0-4-11.49l160-95.75A31.24,31.24,0,0,0,1358.43,967.2Zm-13.1-37.29a30.64,30.64,0,0,0-2,10.82c0,.65,0,1.29.07,1.93H1231.14l-1.53,2.87-49.77-96.91a31.21,31.21,0,0,0,6.09-5.14,31.72,31.72,0,0,0,5.51-6.65Zm-112.39,15.75h110.82a30.6,30.6,0,0,0,4.22,11.26l-159.9,95.71a31.1,31.1,0,0,0-8.16-7.73ZM1194,1070.73c0-.26,0-.51,0-.77H1304.4l52.17,97.66a30.91,30.91,0,0,0-16.14,25.06H1232.94l-51.8-97A30.8,30.8,0,0,0,1194,1070.73Zm114.92-3.31,49.57-93.91,2.61-4.89a30.56,30.56,0,0,0,8.65,2.62v191.87a30.47,30.47,0,0,0-10.16,3ZM1359,913.93l-41.57-77.8-8.14-15.86L1359,726.05a30.45,30.45,0,0,0,10.71,2.47V910.23A30.48,30.48,0,0,0,1359,913.93Zm-52.86-97h-110.4a30.81,30.81,0,0,0-9.32-18.45,30.41,30.41,0,0,0-4.14-3.63l50.28-95.27.33-.62h107.48a30.89,30.89,0,0,0,15.25,25.36Zm39.08-136.78L1191,586.89a30.61,30.61,0,0,0,5.56-13.23h108.64l11.64,21.79,38.45,74.88A31.24,31.24,0,0,0,1345.24,680.15Zm-40.77-109.49H1196.94c0-.64.06-1.28.06-1.93a30.37,30.37,0,0,0-2.8-12.77l151.15-90.47a31.23,31.23,0,0,0,10.11,9.73Zm45.45-144.18a30.71,30.71,0,0,0-9.43,19.45h-108l-51.4-96.2a30.8,30.8,0,0,0,12.86-25c0-.26,0-.51,0-.77H1304.4l52,97.33A30.92,30.92,0,0,0,1349.92,426.48Zm5.94-200.41-50.53,94.56H1193.72a30.65,30.65,0,0,0-4-11.5l160-95.74a31.24,31.24,0,0,0,8.74,7.81ZM1196,74.73c0-.26,0-.53,0-.8H1305.4l9.37,17.54,40.54,78.95a31.13,31.13,0,0,0-8.77,10.71L1192.88,88.2A30.51,30.51,0,0,0,1196,74.73Zm-4.56,16.1,153.89,93.08a30.64,30.64,0,0,0-2,10.82c0,.65,0,1.29.07,1.93h-111.9l-50.91-95.28A31.17,31.17,0,0,0,1191.44,90.83Zm-39.22,11.85a30.61,30.61,0,0,0,24.58.59l50.26,97.88L1176.5,297a30.58,30.58,0,0,0-24.4-1l-51.26-96Zm-16.8,1214h-111.9l-50.91-95.28a31.17,31.17,0,0,0,10.83-10.55l153.89,93.08a30.64,30.64,0,0,0-2,10.82C1135.35,1315.38,1135.38,1316,1135.42,1316.66Zm-113.79,2.83,0,0-1.1-2.13Zm126.42-967.94-49.89,93.38H987.76a30.81,30.81,0,0,0-9.32-18.45,31.79,31.79,0,0,0-4.52-3.91l50.66-96,.33-.62h107.48A30.88,30.88,0,0,0,1148.05,351.55Zm-10.34-44.12L983,213.89a30.61,30.61,0,0,0,5.56-13.23h109.09l50,97.44A31.26,31.26,0,0,0,1137.71,307.43Zm.83,247.7L984.88,462.2a30.41,30.41,0,0,0,3.06-11.52h110.93l7.9,14.79,40.54,78.95A31.13,31.13,0,0,0,1138.54,555.13Zm11.89,40.07-2.57,4.87-50,93.56H985.72a30.64,30.64,0,0,0-3.56-10.75l159.53-95.49A31.24,31.24,0,0,0,1150.43,595.2Zm-167-130.37,153.89,93.08a30.64,30.64,0,0,0-2,10.82c0,.65,0,1.29.07,1.93h-111.9l-50.91-95.28A31.17,31.17,0,0,0,983.44,464.83Zm38.19,108.66,0,0-1.1-2.13Zm3.31.17h110.82a30.6,30.6,0,0,0,4.22,11.26l-159.4,95.41a31.2,31.2,0,0,0-8.26-8.18ZM974.15,915.4l48.7-92.26.29.54h109.24a30.43,30.43,0,0,0,3.06,12.45L984.82,926.29A31.25,31.25,0,0,0,974.15,915.4Zm7,46.84,155,93.75a30.53,30.53,0,0,0-3.5,10.64h-110.4l-50-97.47A31.34,31.34,0,0,0,981.14,962.24Zm-10.95-48.88a30.44,30.44,0,0,0-12-2.45c-.48,0-.95,0-1.43,0V729.52a30.64,30.64,0,0,0,13.85-4.13l49,95.45Zm-12,59.2a30.72,30.72,0,0,0,8.68-1.26l52.9,99-50.94,95.35a30.5,30.5,0,0,0-12.07-2.73V972.52C957.23,972.55,957.7,972.56,958.18,972.56Zm26.7,235.64a30.41,30.41,0,0,0,3.06-11.52h110.93l7.9,14.79,40.54,79a31.13,31.13,0,0,0-8.77,10.71Zm113.28-17.27H987.76a30.81,30.81,0,0,0-9.32-18.45,31.79,31.79,0,0,0-4.52-3.91l50.66-96,.33-.62h107.48a30.88,30.88,0,0,0,15.66,25.59Zm39.55-137.5L983,959.89a30.61,30.61,0,0,0,5.56-13.23h109.09l50,97.44A31.26,31.26,0,0,0,1137.71,1053.43Zm-41.28-110.69-.38.71.12.21H988.94c0-.64.06-1.28.06-1.93A30.37,30.37,0,0,0,986.2,929l150.68-90.19a31.29,31.29,0,0,0,9.78,10Zm38-131.17a30.36,30.36,0,0,0-1.87,7.36H1024l-50.87-95.2a30.8,30.8,0,0,0,12.86-25c0-.16,0-.33,0-.5s0-.18,0-.27h110.4l51.2,95.83A31,31,0,0,0,1134.47,811.57Zm-33.29-116.64,49.31-93.42,2.61-4.89a30.56,30.56,0,0,0,8.65,2.62V789A30.76,30.76,0,0,0,1151,791.9Zm49.84-153-41.57-77.8-8.4-16.36,50-94.72a30.45,30.45,0,0,0,10.71,2.47V538.23A30.68,30.68,0,0,0,1151,541.93ZM1142.92,96a30.84,30.84,0,0,0,5,4.28l-51.54,96.47-.38.71.12.21H988.94c0-.64.06-1.28.06-1.93A30.37,30.37,0,0,0,986.2,183L1139,91.48A30.44,30.44,0,0,0,1142.92,96ZM1023.16,76.56l.33-.63h110a30.55,30.55,0,0,0,4,13L984.82,180.29a31.25,31.25,0,0,0-10.67-10.89Zm-42,139.68,155,93.75a30.53,30.53,0,0,0-3.5,10.64h-110.4l-50-97.47A31.34,31.34,0,0,0,981.14,216.24Zm-24.39,10.28c.48,0,1,0,1.43,0a30.72,30.72,0,0,0,8.68-1.26l52.9,99-50.94,95.35a30.5,30.5,0,0,0-12.07-2.73Zm-1.57,254a30.5,30.5,0,0,0,13.66-3.22l50.22,97.81-50.15,95a30.58,30.58,0,0,0-25.25-1L892.84,574l50.57-95.83A30.6,30.6,0,0,0,955.18,480.56Zm-67,837.1H780.94c0-.64.06-1.28.06-1.93a30.37,30.37,0,0,0-2.8-12.77l151.15-90.47a31.16,31.16,0,0,0,9.71,9.48l-50.63,94.77-.38.71Zm-111.35-17.37a31.25,31.25,0,0,0-10.67-10.89l49-92.76,0,0H924.38a30.42,30.42,0,0,0,3.45,13.22ZM928.15,1181a30.53,30.53,0,0,0-3.66,12h-108l-51.4-96.2a31.2,31.2,0,0,0,4.79-4.25A30.75,30.75,0,0,0,780,1071H888.4l51.6,96.58A31,31,0,0,0,928.15,1181ZM769.93,346.48A30.75,30.75,0,0,0,780,325H888.4L940,421.54A31,31,0,0,0,928.15,435a30.53,30.53,0,0,0-3.66,12h-108l-51.4-96.2A31.2,31.2,0,0,0,769.93,346.48Zm-4.7-49,51.71-96.79H927.76A30.6,30.6,0,0,0,932,211.92l-157.5,94.27A31.35,31.35,0,0,0,765.23,297.45ZM930.54,928.13l-153-92.52a30.61,30.61,0,0,0,4-10.93H891.4l7.37,13.79,40.54,78.95A31.13,31.13,0,0,0,930.54,928.13Zm11.89,40.07-2.58,4.87-50.52,94.56H779.92a30.35,30.35,0,0,0-3.85-12.9l157.62-94.34A31.24,31.24,0,0,0,942.43,968.2ZM781.94,821.68q0-.36,0-.75H889.4l.35.66,0,.09Zm108.22-3.75H782a30.9,30.9,0,0,0-14.47-24.32l49.1-93,.33-.62H924.39a30.89,30.89,0,0,0,15.25,25.36Zm-117-227.69,154.6,93.51a30.49,30.49,0,0,0-3.1,9.88H813.73l-49.54-96.47A31.34,31.34,0,0,0,773.14,590.24Zm-7-46.84,49-92.77,0,.05H924.38a30.42,30.42,0,0,0,3.45,13.22l-151,90.39A31.25,31.25,0,0,0,766.15,543.4ZM924.38,696.63c0,.11,0,.22,0,.33H815.44l-.05-.09.13-.24Zm4.86-15.48L775,587.89a30.61,30.61,0,0,0,5.56-13.23H889.69l49.64,96.67A31.24,31.24,0,0,0,929.24,681.15ZM888.43,570.74l-.38.71.12.21H780.94c0-.64.06-1.28.06-1.93A30.37,30.37,0,0,0,778.2,557l151.15-90.47a31.16,31.16,0,0,0,9.71,9.48Zm-76.81-121.9-49.43,92.52a30.44,30.44,0,0,0-12-2.45c-.48,0-.95,0-1.43,0V356.52a30.52,30.52,0,0,0,13.46-3.91ZM750.18,600.56a30.72,30.72,0,0,0,8.68-1.26l52.63,98.5-49.69,93a30.43,30.43,0,0,0-10.62-1.9c-.82,0-1.62,0-2.43.1V600.52C749.23,600.54,749.7,600.56,750.18,600.56Zm45.28,133.62-30.59,58-.3-.15Zm-24.6,109.23a31.24,31.24,0,0,0,5-5.31l153.44,92.81a30.64,30.64,0,0,0-2,10.82c0,.65,0,1.29.07,1.93H815.52l-9.26-17.32-40.2-78.29A31.44,31.44,0,0,0,770.86,843.41Zm46.08,103.25H927.76A30.6,30.6,0,0,0,932,957.92l-157.5,94.27a31.35,31.35,0,0,0-9.25-8.74Zm76,121.76,49.57-93.91,2.61-4.89a30.56,30.56,0,0,0,8.65,2.62V1163A30.76,30.76,0,0,0,943,1165.9ZM943,914.93l-41.57-77.8-8.14-15.86L943,727.05a30.45,30.45,0,0,0,10.71,2.47V911.23A30.48,30.48,0,0,0,943,914.93Zm2.08-691.31a30.56,30.56,0,0,0,8.65,2.62V417A30.76,30.76,0,0,0,943,419.9l-50.06-97.48,49.57-93.91Zm-5.25,3.45-50.52,94.56H779.92a30.35,30.35,0,0,0-3.85-12.9l157.62-94.34a31.24,31.24,0,0,0,8.74,7.81ZM782,74.93H889.4l9.37,17.54,40.54,78.95a31.13,31.13,0,0,0-8.77,10.71l-153-92.52A30.44,30.44,0,0,0,782,74.93ZM775.89,92.1l153.44,92.81a30.64,30.64,0,0,0-2,10.82c0,.65,0,1.29.07,1.93H815.52l-9.26-17.32L765.52,101A31.07,31.07,0,0,0,775.89,92.1Zm-38.65,11.44a30.6,30.6,0,0,0,22.1-.09c.71-.2,1.4-.42,2.09-.66l42.17,78.93,9.46,18.43L762.5,296a30.56,30.56,0,0,0-26.11-.24l-49.6-96.59ZM719.42,1317.66H607.52l-9.26-17.32L557.52,1221a31.07,31.07,0,0,0,10.37-8.89l153.44,92.81a30.64,30.64,0,0,0-2,10.82C719.35,1316.38,719.38,1317,719.42,1317.66Zm12.63-965.11-49.89,93.38H574a30.89,30.89,0,0,0-14.16-24.12l50.79-96.23.33-.62H716.36c0,.09,0,.18,0,.27s0,.34,0,.5A30.88,30.88,0,0,0,732.05,352.55Zm.88-55.12a31.06,31.06,0,0,0-10.1,8.47L569,212.89a30.61,30.61,0,0,0,5.56-13.23H680.7ZM684.41,196.66l24-44.83L684.7,196.66Zm-112.69,496a30.51,30.51,0,0,0-3.24-10.14l157.21-94.1a31.24,31.24,0,0,0,8.74,7.81l-2.58,4.87-48.91,91.56Zm109.61,3-.17.33H572v-.33Zm41.21-139.5-153-92.52a30.73,30.73,0,0,0,4.37-13.93H681.8l9,16.79,40.54,78.95A31.13,31.13,0,0,0,722.54,556.13ZM557.19,420.31l-.62-.32,50.77-95h.18Zm10.7,45.79,153.44,92.81a30.64,30.64,0,0,0-2,10.82c0,.65,0,1.29.07,1.93H607.52l-9.26-17.32L557.52,475A31.07,31.07,0,0,0,567.89,466.1Zm41.05,108.56H719.76A30.6,30.6,0,0,0,724,585.92l-157,94a31.09,31.09,0,0,0-9.33-9.19Zm107.44,250a30.55,30.55,0,0,0,2.77,11.82L570.82,925.29a31.25,31.25,0,0,0-10.67-10.89l47.36-89.72Zm-107.29-3,.07-.12.33-.63h107l-.06.75Zm-42,139.56,154,93.12a30.62,30.62,0,0,0-4.59,13.27H609.27l-51.08-99.47A31.34,31.34,0,0,0,567.14,961.24Zm-10.95-48.88a30.44,30.44,0,0,0-12-2.45c-.48,0-.95,0-1.43,0V729.34a30.55,30.55,0,0,0,11.19-3.57l.29-.13,50.86,95.2Zm-12,59.2a30.72,30.72,0,0,0,8.68-1.26l52.43,98.13-51.49,96.38a30.43,30.43,0,0,0-10.62-1.9h-.43V971.52C543.23,971.55,543.7,971.56,544.18,971.56Zm63.16,99.4h.18l-50.33,95.35-.62-.32Zm-37.77,138.65a30.73,30.73,0,0,0,4.37-13.93H681.8l9,16.79,40.54,79a31.13,31.13,0,0,0-8.77,10.71Zm4.38-17.68a30.89,30.89,0,0,0-14.16-24.12l50.79-96.23.33-.62H716.36c0,.09,0,.18,0,.27s0,.34,0,.5a30.88,30.88,0,0,0,15.7,26.82l-49.89,93.38Zm148.88-140L569,958.89a30.61,30.61,0,0,0,5.56-13.23H680.7l52.23,97.77A31.06,31.06,0,0,0,722.83,1051.9ZM684.41,942.66l24-44.83L684.7,942.66Zm-3.4,0H574.94c0-.64.06-1.28.06-1.93A30.37,30.37,0,0,0,572.2,928l148.34-88.79a31.15,31.15,0,0,0,10.12,10.55Zm37.46-130.09a30.3,30.3,0,0,0-1.56,5.36H608l-48.88-95.19A30.8,30.8,0,0,0,572,699H680.4l51.2,95.83A31,31,0,0,0,718.47,812.57ZM683.69,698.76l1.32-2.5L734.7,793l-.5.26Zm3-5.74,47.77-90.51,2.61-4.89a30.56,30.56,0,0,0,8.65,2.62V789.4A30.59,30.59,0,0,0,740,791c-.87.24-1.72.51-2.55.82ZM735,542.93l-41.57-77.8-7.94-15.46,50.3-95.3a30.56,30.56,0,0,0,9.94,2.15V539.23A30.68,30.68,0,0,0,735,542.93ZM732.11,101,681,196.66H574.94c0-.64.06-1.28.06-1.93A30.37,30.37,0,0,0,572.2,182l150.43-90A31.15,31.15,0,0,0,732.11,101Zm-123-25.45.33-.63H717.36a30.52,30.52,0,0,0,3.71,14.43L570.82,179.29a31.25,31.25,0,0,0-10.67-10.89Zm-42,139.68,154,93.12a30.62,30.62,0,0,0-4.59,13.27H609.27l-51.08-99.47A31.34,31.34,0,0,0,567.14,215.24Zm-24.39,10.28c.48,0,1,0,1.43,0a30.72,30.72,0,0,0,8.68-1.26l52.43,98.13L553.8,418.81a30.43,30.43,0,0,0-10.62-1.9h-.43Zm-2.57,254h1a30.48,30.48,0,0,0,12.34-2.6l42.08,78.76,9.46,18.43-50.15,95A30.61,30.61,0,0,0,528,668.9l-49.18-95.77,50.45-95.59A30.58,30.58,0,0,0,540.18,479.56ZM473,1316.66H366.94c0-.64.06-1.28.06-1.93a30.37,30.37,0,0,0-2.8-12.77l150.43-90a31.15,31.15,0,0,0,9.48,9.09Zm27.35-44.83-23.66,44.83h-.29Zm-137.54,27.46a31.25,31.25,0,0,0-10.67-10.89l49-92.76,0,0H509.38a30.5,30.5,0,0,0,3.69,13.68Zm146.67-107.36H402.54l-51.4-96.2a30.8,30.8,0,0,0,12.86-25c0-.16,0-.33,0-.5s0-.18,0-.27H474.4l52,97.25A30.94,30.94,0,0,0,509.49,1191.93ZM402.94,199.66H513.76A30.6,30.6,0,0,0,518,210.92l-159.4,95.41a31.2,31.2,0,0,0-8.26-8.18Zm-4.43-2.26,1.12,2.09,0,0ZM364,324.23c0-.09,0-.18,0-.27H474.4l52,97.25a30.94,30.94,0,0,0-16.87,24.72H402.54l-51.4-96.2a30.8,30.8,0,0,0,12.86-25C364,324.57,364,324.4,364,324.23Zm152.55,602.9L362.89,834.2a30.59,30.59,0,0,0,3-10.52H477.4l7.37,13.79,40.54,78.95A31.13,31.13,0,0,0,516.54,927.13Zm11.89,40.07-2.58,4.87-50.52,94.56H363.85a30.58,30.58,0,0,0-3.69-11.75l159.53-95.49A31.24,31.24,0,0,0,528.43,967.2ZM366,819.93H475.4l.35.66-.05.09H366C366,820.43,366,820.18,366,819.93Zm110.18-3H365.76a30.81,30.81,0,0,0-9.32-18.45,30.41,30.41,0,0,0-4.14-3.63l50.28-95.27.33-.62H508.36a30.89,30.89,0,0,0,16.41,27Zm-117-227.69,154,93.12A30.58,30.58,0,0,0,509,692.63H399.73l-49.54-96.47A31.34,31.34,0,0,0,359.14,589.24Zm-7-46.84,49-92.77,0,.05H509.38a30.5,30.5,0,0,0,3.69,13.68L362.82,553.29A31.25,31.25,0,0,0,352.15,542.4ZM508.51,695.63c0,.11,0,.22,0,.33h-107l-.05-.09.13-.24ZM518.43,676a31,31,0,0,0-3.6,3.91L361,586.89a30.61,30.61,0,0,0,5.56-13.23H472.7l51.89,97.13A31.63,31.63,0,0,0,518.43,676Zm-42-105.33,23.95-44.83L476.7,570.66Zm-3.4,0H366.94c0-.64.06-1.28.06-1.93A30.37,30.37,0,0,0,364.2,556l150.43-90a31.15,31.15,0,0,0,9.48,9.09ZM397.62,447.84l-49.43,92.52a30.44,30.44,0,0,0-12-2.45c-.48,0-.95,0-1.43,0V355.52a30.56,30.56,0,0,0,13.46-3.91ZM336.18,599.56a30.72,30.72,0,0,0,8.68-1.26l52.63,98.5-50.67,94.85a30.5,30.5,0,0,0-12.07-2.73V599.52C335.23,599.54,335.7,599.56,336.18,599.56Zm45.28,133.62-31.67,60-.3-.17Zm-25.53,110.3a31.72,31.72,0,0,0,5.51-6.65l153.89,93.08a30.64,30.64,0,0,0-2,10.82c0,.65,0,1.29.07,1.93H401.52L350.9,847.91A31.18,31.18,0,0,0,355.93,843.48Zm43.7,102,0,0-1.1-2.13Zm3.31.17H513.76A30.6,30.6,0,0,0,518,956.92l-159.4,95.41a31.2,31.2,0,0,0-8.26-8.18Zm76,121.76,49.57-93.91,2.61-4.89a30.56,30.56,0,0,0,8.65,2.62v191.87A30.29,30.29,0,0,0,532,1165c-.87.24-1.72.51-2.55.82ZM529,913.93l-41.57-77.8-8.14-15.86,48.94-92.73a30.53,30.53,0,0,0,10.93,2l.57,0V910.23A30.48,30.48,0,0,0,529,913.93Zm2.08-691.31a30.56,30.56,0,0,0,8.65,2.62V417.11A30.29,30.29,0,0,0,532,419c-.87.24-1.72.51-2.55.82l-50.55-98.42,49.57-93.91Zm-5.25,3.45-50.52,94.56H363.85a30.58,30.58,0,0,0-3.69-11.75l159.53-95.49a31.24,31.24,0,0,0,8.74,7.81ZM366,74.73c0-.26,0-.53,0-.8H475.4l9.37,17.54,40.54,78.95a31.13,31.13,0,0,0-8.77,10.71L362.89,88.2A30.64,30.64,0,0,0,366,74.73Zm-4.56,16.1,153.89,93.08a30.64,30.64,0,0,0-2,10.82c0,.65,0,1.29.07,1.93H401.52l-50.91-95.28A31.17,31.17,0,0,0,361.44,90.83Zm-39.22,11.85a30.61,30.61,0,0,0,24.58.59l50.26,97.88-50.15,95a30.58,30.58,0,0,0-25.25-1L270.84,200Zm-16.8,1214H193.52l-50.91-95.28a31.17,31.17,0,0,0,10.83-10.55l153.89,93.08a30.64,30.64,0,0,0-2,10.82C305.35,1315.38,305.38,1316,305.42,1316.66Zm-113.79,2.83,0,0-1.1-2.13ZM318.05,351.55l-49.89,93.38H157.76a30.81,30.81,0,0,0-9.32-18.45,31.79,31.79,0,0,0-4.52-3.91l50.66-96,.33-.62H302.39A30.89,30.89,0,0,0,318.05,351.55Zm-10.81-44.4L153,213.89a30.61,30.61,0,0,0,5.56-13.23H267.69l49.64,96.67A31.24,31.24,0,0,0,307.24,307.15Zm1.3,248L154.89,462.2a30.59,30.59,0,0,0,3.05-11.52H268.87l7.9,14.79,40.54,78.95A31.13,31.13,0,0,0,308.54,555.13Zm11.89,40.07-2.58,4.87-50,93.56H155.72a30.64,30.64,0,0,0-3.56-10.75l159.53-95.49A31.24,31.24,0,0,0,320.43,595.2Zm-167-130.37,153.89,93.08a30.64,30.64,0,0,0-2,10.82c0,.65,0,1.29.07,1.93H193.52l-50.91-95.28A31.17,31.17,0,0,0,153.44,464.83Zm38.19,108.66,0,0-1.1-2.13Zm3.31.17H305.76A30.6,30.6,0,0,0,310,584.92l-159.4,95.41a31.2,31.2,0,0,0-8.26-8.18ZM144.15,915.4l48.7-92.26.29.54H302.38a30.43,30.43,0,0,0,3.06,12.45L154.82,926.29A31.25,31.25,0,0,0,144.15,915.4Zm7,46.84,154.6,93.51a30.46,30.46,0,0,0-3.23,10.88H192.24l-50.05-97.47A31.34,31.34,0,0,0,151.14,962.24Zm-10.95-48.88a30.44,30.44,0,0,0-12-2.45c-.48,0-1,0-1.43,0V729.52a30.64,30.64,0,0,0,13.85-4.13l49,95.45Zm-12,59.2a30.72,30.72,0,0,0,8.68-1.26l52.9,99-50.94,95.35a30.5,30.5,0,0,0-12.07-2.73V972.52C127.23,972.55,127.7,972.56,128.18,972.56Zm26.71,235.64a30.59,30.59,0,0,0,3.05-11.52H268.87l7.9,14.79,40.54,79a31.13,31.13,0,0,0-8.77,10.71Zm113.27-17.27H157.76a30.81,30.81,0,0,0-9.32-18.45,31.79,31.79,0,0,0-4.52-3.91l50.66-96,.33-.62H302.39a30.88,30.88,0,0,0,15.66,25.59Zm39.08-137.78L153,959.89a30.61,30.61,0,0,0,5.56-13.23H267.69l49.64,96.67A31.24,31.24,0,0,0,307.24,1053.15ZM266.43,942.74l-.38.71.12.21H158.94c0-.64.06-1.28.06-1.93A30.37,30.37,0,0,0,156.2,929l150.68-90.19a31.29,31.29,0,0,0,9.78,10Zm38-131.17a30.36,30.36,0,0,0-1.87,7.36H194l-50.87-95.2a30.8,30.8,0,0,0,12.86-25c0-.16,0-.33,0-.5s0-.18,0-.27H266.4l51.2,95.83A31,31,0,0,0,304.47,811.57ZM271.18,694.93l49.31-93.42,2.61-4.89a30.56,30.56,0,0,0,8.65,2.62V789A30.76,30.76,0,0,0,321,791.9Zm49.84-153-41.57-77.8-8.4-16.36,50-94.72a30.45,30.45,0,0,0,10.71,2.47V538.23A30.68,30.68,0,0,0,321,541.93ZM312.92,96a30.84,30.84,0,0,0,5.05,4.28l-51.54,96.47-.38.71.12.21H158.94c0-.64.06-1.28.06-1.93A30.37,30.37,0,0,0,156.2,183L309,91.48A30.44,30.44,0,0,0,312.92,96ZM193.16,76.56l.33-.63h110a30.55,30.55,0,0,0,4,13L154.82,180.29a31.25,31.25,0,0,0-10.67-10.89Zm-42,139.68,154.6,93.51a30.46,30.46,0,0,0-3.23,10.88H192.24l-50.05-97.47A31.34,31.34,0,0,0,151.14,216.24Zm-24.39,10.28c.48,0,1,0,1.43,0a30.72,30.72,0,0,0,8.68-1.26l52.9,99-50.94,95.35a30.5,30.5,0,0,0-12.07-2.73Zm-63.83,95.9,49.57-93.91,2.61-4.89a30.56,30.56,0,0,0,8.65,2.62V417A30.76,30.76,0,0,0,113,419.9ZM62.84,574l50.57-95.83a30.61,30.61,0,0,0,25.43-.87l50.22,97.81-50.15,95a30.58,30.58,0,0,0-25.25-1Zm8.61,263.09-8.14-15.86L113,727.05a30.45,30.45,0,0,0,10.71,2.47V911.23a30.48,30.48,0,0,0-10.73,3.7Zm-8.53,231.29,49.57-93.91,2.61-4.89a30.56,30.56,0,0,0,8.65,2.62V1163A30.76,30.76,0,0,0,113,1165.9Zm76,347.75a30.58,30.58,0,0,0-25.25-1L62.84,1320l50.57-95.83a30.61,30.61,0,0,0,25.43-.87l50.22,97.81Zm3.41,2,52.62-98.49H305.76a30.6,30.6,0,0,0,4.22,11.26l-159.4,95.41A31.2,31.2,0,0,0,142.32,1418.15Zm175.53-72.08L267.16,1441H155.87a30.46,30.46,0,0,0-3.71-12.08l159.53-95.49a31.24,31.24,0,0,0,8.74,7.81Zm13.9-61.84a30.48,30.48,0,0,0-10.73,3.7l-41.57-77.8-8.4-16.36,50-94.72a30.45,30.45,0,0,0,10.71,2.47Zm1.43-245.32a30.67,30.67,0,0,0-11.52,2.25L270.84,946,321,851a30.55,30.55,0,0,0,26.26-.89l49.82,97-50.15,95A30.49,30.49,0,0,0,333.18,1038.91Zm3,245c-.48,0-.95,0-1.43,0V1101.52a30.56,30.56,0,0,0,13.46-3.91l49.41,96.23-49.43,92.52A30.44,30.44,0,0,0,336.18,1283.91Zm172.31,158h-107l-51.25-99.8a31.34,31.34,0,0,0,8.95-6.92l154,93.12A30.51,30.51,0,0,0,508.49,1442Zm6.34-16.06-153.79-93a30.61,30.61,0,0,0,5.56-13.23H472.7l52.23,97.77A31.06,31.06,0,0,0,514.83,1425.9ZM554.5,1416a30.56,30.56,0,0,0-26.11-.24l-49.6-96.59,50.45-95.6a30.37,30.37,0,0,0,10.94,2h1a30.48,30.48,0,0,0,12.34-2.6l42.08,78.76,9.46,18.43Zm2.73,1.49,51.71-96.79H719.76a30.6,30.6,0,0,0,4.22,11.26l-157.5,94.27A31.35,31.35,0,0,0,557.23,1417.45Zm174.62-70.38L681.16,1442H572a30.53,30.53,0,0,0-3.88-13.23l157.62-94.34a31.24,31.24,0,0,0,8.74,7.81Zm13.9-61.84a30.48,30.48,0,0,0-10.73,3.7l-41.57-77.8-7.94-15.46,50.3-95.3a30.56,30.56,0,0,0,9.94,2.15Zm-9.36-243.51-49.6-96.59,49-92.79a30.55,30.55,0,0,0,26.6-1.81l41.24,77.19,9.46,18.43L762.5,1042a30.56,30.56,0,0,0-26.11-.24Zm13.79,243.19c-.48,0-.95,0-1.43,0V1102.52a30.52,30.52,0,0,0,13.46-3.91l49.41,96.23-49.43,92.52A30.44,30.44,0,0,0,750.18,1284.91Zm174.19,158H815.44l-51.25-99.8a31.34,31.34,0,0,0,8.95-6.92l154.6,93.51A30.52,30.52,0,0,0,924.37,1443Zm4.87-15.81L775,1333.89a30.61,30.61,0,0,0,5.56-13.23H889.69l49.64,96.67A31.24,31.24,0,0,0,929.24,1427.15Zm39.67-11a30.58,30.58,0,0,0-25.25-1L892.84,1320l50.57-95.83a30.61,30.61,0,0,0,25.43-.87l50.22,97.81Zm3.41,2,52.62-98.49h110.82a30.6,30.6,0,0,0,4.22,11.26l-159.4,95.41A31.2,31.2,0,0,0,972.32,1418.15Zm175.54-72.08-50.7,94.89H985.87a30.46,30.46,0,0,0-3.71-12.08l159.53-95.49a31.24,31.24,0,0,0,8.74,7.81Zm13.89-61.84a30.48,30.48,0,0,0-10.73,3.7l-41.57-77.8-8.4-16.36,50-94.72a30.45,30.45,0,0,0,10.71,2.47Zm1.43-244.32a30.48,30.48,0,0,0-11.08,2.08l-51.26-96L1151,851a30.55,30.55,0,0,0,26.26-.89l49.82,97L1176.5,1043A30.43,30.43,0,0,0,1163.18,1039.91ZM1179.52,1287a30.49,30.49,0,0,0-13.34-3.06c-.48,0-1,0-1.43,0V1101.52a30.52,30.52,0,0,0,13.46-3.91l49.93,97.24Zm2.63,1.43,49-92.76,0,0h109.24a30.42,30.42,0,0,0,3.45,13.22l-151,90.39A31.25,31.25,0,0,0,1182.15,1288.4Zm163.56,138L1191,1332.89a30.61,30.61,0,0,0,5.56-13.23h109.09l50,97.44A31.26,31.26,0,0,0,1345.71,1426.43Zm93.92-105.94-51.88,97.11c-.59-.32-1.2-.62-1.81-.9a30.58,30.58,0,0,0-27.55-1l-49.6-96.59,50.62-95.92a30.6,30.6,0,0,0,11.77,2.35c.5,0,1,0,1.5,0s1,0,1.5,0a30.58,30.58,0,0,0,13.15-3Zm-3-249.53h.88L1403,1136.3l-16,29.93a30.5,30.5,0,0,0-13.86-3.32h-.43V971.52c.48,0,1,0,1.43,0a30.72,30.72,0,0,0,8.68-1.26Zm-.28-252.49-50.17,93.89a30.44,30.44,0,0,0-12-2.45c-.48,0-1,0-1.43,0V728.52a30.48,30.48,0,0,0,13.46-3.91Zm-1.3-244.32-50.15,95a30.59,30.59,0,0,0-25.69-.83l-39.66-74.24-10.77-21,50.62-95.92a30.61,30.61,0,0,0,25.43-.87Zm1-250.35-51,95.49a30.51,30.51,0,0,0-11.83-2.38h-.43V225.52c.48,0,1,0,1.43,0a30.72,30.72,0,0,0,8.68-1.26Z" style="fill: #d9e021"/>
  </g>  <g id="base">
    <rect y="1330.87" width="1500" height="168.98" style="fill: #00a651"/>
  </g>  <g id="land">
    <rect x="0.46" y="1028.55" width="1500.11" height="302.58" style="fill: #ffe600"/>
  </g>  <g id="city">
    <line x1="0.12" y1="1028.95" x2="1500.12" y2="1028.95" style="fill: #ffc0f9;stroke: #000;stroke-miterlimit: 10;stroke-width: 3px"/>
    <path d="M1169.42,348.81h-42s-1-13-11-13-9,10-9,10-7-25-28-25-30,26-30,26-16-4-20,2-3,17-3,17h-36" style="fill: none;stroke: #000;stroke-miterlimit: 10;stroke-width: 3px"/>
    <path d="M226.92,323.81s9.23-16.19,21.61-17.59S266.36,324,266.36,324s6.52-12.93,17-14.58,21.52,14.35,21.52,14.35" style="fill: none;stroke: #000;stroke-miterlimit: 10;stroke-width: 3px"/>
    <path d="M846.15,240.08l8.27,2.23-5.5,1.48a8.52,8.52,0,0,0-6,6l-1.48,5.5-1.76-6.54a6.66,6.66,0,0,0-4.7-4.7l-6.54-1.76,6.48-1.75a6.73,6.73,0,0,0,4.77-4.77l1.75-6.48,2.23,8.27A3.53,3.53,0,0,0,846.15,240.08Z" style="fill: none;stroke: #000;stroke-miterlimit: 10;stroke-width: 2px"/>
    <path d="M492.15,172.08l8.27,2.23-5.5,1.48a8.52,8.52,0,0,0-6,6l-1.48,5.5-1.76-6.54a6.66,6.66,0,0,0-4.7-4.7l-6.54-1.76,6.48-1.75a6.73,6.73,0,0,0,4.77-4.77l1.75-6.48,2.23,8.27A3.53,3.53,0,0,0,492.15,172.08Z" style="fill: none;stroke: #000;stroke-miterlimit: 10;stroke-width: 2px"/>
    <path d="M1260.15,370.08l8.27,2.23-5.5,1.48a8.52,8.52,0,0,0-6,6l-1.48,5.5-1.76-6.54a6.66,6.66,0,0,0-4.7-4.7l-6.54-1.76,6.48-1.75a6.73,6.73,0,0,0,4.77-4.77l1.75-6.48,2.23,8.27A3.53,3.53,0,0,0,1260.15,370.08Z" style="fill: none;stroke: #000;stroke-miterlimit: 10;stroke-width: 2px"/>
    <path d="M980.36,217.37s.71-9.26,7.84-9.26,6.41,7.12,6.41,7.12,5-17.82,20-17.82S1036,216,1036,216s11.41-2.85,14.26,1.42,2.14,12.12,2.14,12.12" style="fill: none;stroke: #000;stroke-miterlimit: 10;stroke-width: 3px"/>
    <path d="M573.15,522.08l8.27,2.23-5.5,1.48a8.52,8.52,0,0,0-6,6l-1.48,5.5-1.76-6.54a6.66,6.66,0,0,0-4.7-4.7l-6.54-1.76,6.48-1.75a6.73,6.73,0,0,0,4.77-4.77l1.75-6.48,2.23,8.27A3.53,3.53,0,0,0,573.15,522.08Z" style="fill: none;stroke: #000;stroke-miterlimit: 10;stroke-width: 2px"/>
    <path d="M396.15,453.08l8.27,2.23-5.5,1.48a8.52,8.52,0,0,0-6,6l-1.48,5.5-1.76-6.54a6.66,6.66,0,0,0-4.7-4.7l-6.54-1.76,6.48-1.75a6.73,6.73,0,0,0,4.77-4.77l1.75-6.48,2.23,8.27A3.53,3.53,0,0,0,396.15,453.08Z" style="fill: none;stroke: #000;stroke-miterlimit: 10;stroke-width: 2px"/>
    <path d="M1148.15,280.08l8.27,2.23-5.5,1.48a8.52,8.52,0,0,0-6,6l-1.48,5.5-1.76-6.54a6.66,6.66,0,0,0-4.7-4.7l-6.54-1.76,6.48-1.75a6.73,6.73,0,0,0,4.77-4.77l1.75-6.48,2.23,8.27A3.53,3.53,0,0,0,1148.15,280.08Z" style="fill: none;stroke: #000;stroke-miterlimit: 10;stroke-width: 2px"/>
    <g>
      <polyline points="306.62 748.49 321.88 654.58 414.63 654.58 425.19 748.49" style="fill: #ffc299;stroke: #000;stroke-miterlimit: 10;stroke-width: 3px"/>
      <polygon points="126.42 1027.31 606.57 1027.31 606.57 967.43 588.96 938.09 147.55 938.09 126.42 967.43 126.42 1027.31" style="fill: #ffc299;stroke: #000;stroke-miterlimit: 10;stroke-width: 3px"/>
      <line x1="516.76" y1="937.5" x2="516.76" y2="1027.31" style="fill: #ffc299;stroke: #000;stroke-miterlimit: 10;stroke-width: 3px"/>
      <line x1="428.66" y1="938.09" x2="428.66" y2="1027.31" style="fill: #ffc299;stroke: #000;stroke-miterlimit: 10;stroke-width: 3px"/>
      <line x1="303.03" y1="938.09" x2="303.03" y2="1027.31" style="fill: #ffc299;stroke: #000;stroke-miterlimit: 10;stroke-width: 3px"/>
      <line x1="218.08" y1="1027.31" x2="218.08" y2="938.09" style="fill: #ffc299;stroke: #000;stroke-miterlimit: 10;stroke-width: 3px"/>
      <line x1="127.01" y1="966.85" x2="607.15" y2="966.85" style="fill: #ffc299;stroke: #000;stroke-miterlimit: 10;stroke-width: 3px"/>
      <rect x="154.01" y="989.15" width="9.39" height="12.91" style="fill: #ffc299;stroke: #000;stroke-miterlimit: 10;stroke-width: 3px"/>
      <rect x="188.05" y="989.15" width="11.74" height="12.91" style="fill: #ffc299;stroke: #000;stroke-miterlimit: 10;stroke-width: 3px"/>
      <path d="M229.14,1018.5v-34s5.87-10.57,9.39-10.57,8.22,9.39,8.22,9.39v35.22Z" style="fill: #ffc299;stroke: #000;stroke-miterlimit: 10;stroke-width: 3px"/>
      <polyline points="257.31 973.89 273.75 993.85 308.97 993.85" style="fill: #ffc299;stroke: #000;stroke-miterlimit: 10;stroke-width: 3px"/>
      <line x1="325.4" y1="966.85" x2="325.4" y2="1027.31" style="fill: #ffc299;stroke: #000;stroke-miterlimit: 10;stroke-width: 3px"/>
      <polyline points="428.66 993.85 459.24 993.85 481.31 966.85" style="fill: #ffc299;stroke: #000;stroke-miterlimit: 10;stroke-width: 3px"/>
      <rect x="533.2" y="989.15" width="11.74" height="12.91" style="fill: #ffc299;stroke: #000;stroke-miterlimit: 10;stroke-width: 3px"/>
      <rect x="570.76" y="989.15" width="8.22" height="12.91" style="fill: #ffc299;stroke: #000;stroke-miterlimit: 10;stroke-width: 3px"/>
      <g>
        <path d="M526.15,899.93s-8.22-9.39-9.39-17.61,34-32.87,34-32.87,35.22,27,35.22,32.87c0,12.92-11.74,16.44-11.74,16.44Z" style="fill: #8cc63f;stroke: #000;stroke-miterlimit: 10;stroke-width: 3px"/>
        <rect x="530.26" y="899.35" width="39.91" height="11.74" style="fill: #ffc299;stroke: #000;stroke-miterlimit: 10;stroke-width: 3px"/>
        <rect x="530.26" y="911.09" width="39.91" height="25.83" style="fill: #ffc299;stroke: #000;stroke-miterlimit: 10;stroke-width: 3px"/>
        <line x1="550.32" y1="804.25" x2="550.32" y2="850.04" style="fill: #ffc299;stroke: #000;stroke-miterlimit: 10;stroke-width: 3px"/>
        <line x1="543.86" y1="811.3" x2="556.77" y2="811.3" style="fill: #ffc299;stroke: #000;stroke-miterlimit: 10;stroke-width: 2px"/>
        <circle cx="550.32" cy="831.55" r="3.23" style="fill: #ffc299;stroke: #000;stroke-miterlimit: 10;stroke-width: 3px"/>
        <line x1="544.93" y1="853.72" x2="544.93" y2="899.35" style="fill: #ffc299;stroke: #000;stroke-miterlimit: 10;stroke-width: 3px"/>
        <line x1="556.09" y1="853.72" x2="556.09" y2="899.15" style="fill: #ffc299;stroke: #000;stroke-miterlimit: 10;stroke-width: 3px"/>
        <line x1="564.75" y1="860.61" x2="564.75" y2="897" style="fill: #ffc299;stroke: #000;stroke-miterlimit: 10;stroke-width: 3px"/>
        <line x1="573.21" y1="867.85" x2="573.21" y2="899.35" style="fill: #ffc299;stroke: #000;stroke-miterlimit: 10;stroke-width: 3px"/>
        <line x1="536.03" y1="860.61" x2="536.03" y2="899.35" style="fill: #ffc299;stroke: #000;stroke-miterlimit: 10;stroke-width: 3px"/>
        <line x1="527.52" y1="867.85" x2="527.52" y2="899.35" style="fill: #ffc299;stroke: #000;stroke-miterlimit: 10;stroke-width: 3px"/>
      </g>
      <g>
        <path d="M158.7,901.11s-8.21-9.4-9.39-17.61,34.05-32.87,34.05-32.87,35.21,27,35.21,32.87c0,12.91-11.73,16.43-11.73,16.43Z" style="fill: #7ac943;stroke: #000;stroke-miterlimit: 10;stroke-width: 3px"/>
        <rect x="162.81" y="900.52" width="39.91" height="11.74" style="fill: #ffc299;stroke: #000;stroke-miterlimit: 10;stroke-width: 3px"/>
        <rect x="162.81" y="912.26" width="39.91" height="25.83" style="fill: #ffc299;stroke: #000;stroke-miterlimit: 10;stroke-width: 3px"/>
        <line x1="182.87" y1="805.43" x2="182.87" y2="851.21" style="fill: #ffc299;stroke: #000;stroke-miterlimit: 10;stroke-width: 3px"/>
        <line x1="176.41" y1="812.47" x2="189.32" y2="812.47" style="fill: #ffc299;stroke: #000;stroke-miterlimit: 10;stroke-width: 2px"/>
        <circle cx="182.87" cy="832.72" r="3.23" style="fill: #ffc299;stroke: #000;stroke-miterlimit: 10;stroke-width: 3px"/>
        <line x1="177.49" y1="854.89" x2="177.49" y2="900.52" style="fill: #ffc299;stroke: #000;stroke-miterlimit: 10;stroke-width: 3px"/>
        <line x1="188.64" y1="854.89" x2="188.64" y2="900.32" style="fill: #ffc299;stroke: #000;stroke-miterlimit: 10;stroke-width: 3px"/>
        <line x1="197.3" y1="861.79" x2="197.3" y2="898.17" style="fill: #ffc299;stroke: #000;stroke-miterlimit: 10;stroke-width: 3px"/>
        <line x1="205.77" y1="869.02" x2="205.77" y2="900.52" style="fill: #ffc299;stroke: #000;stroke-miterlimit: 10;stroke-width: 3px"/>
        <line x1="168.58" y1="861.79" x2="168.58" y2="900.52" style="fill: #ffc299;stroke: #000;stroke-miterlimit: 10;stroke-width: 3px"/>
        <line x1="160.07" y1="869.02" x2="160.07" y2="900.52" style="fill: #ffc299;stroke: #000;stroke-miterlimit: 10;stroke-width: 3px"/>
      </g>
      <g>
        <rect x="215.05" y="928.11" width="88.05" height="8.22" style="fill: #ffc299;stroke: #000;stroke-miterlimit: 10;stroke-width: 3px"/>
        <rect x="218.57" y="919.89" width="84.52" height="8.22" style="fill: #ffc299;stroke: #000;stroke-miterlimit: 10;stroke-width: 3px"/>
        <rect x="223.27" y="911.67" width="79.83" height="7.04" style="fill: #ffc299;stroke: #000;stroke-miterlimit: 10;stroke-width: 3px"/>
        <rect x="223.27" y="838.89" width="79.83" height="70.44" style="fill: #ffc299;stroke: #000;stroke-miterlimit: 10;stroke-width: 3px"/>
        <path d="M249.1,837.71V827.15s1.17-10.57,11.74-10.57,12.91,10.57,12.91,10.57v10.56" style="fill: #8cc63f;stroke: #000;stroke-miterlimit: 10;stroke-width: 3px"/>
        <path d="M223.27,838.3V827.73s1.17-10.56,11.74-10.56,12.91,10.56,12.91,10.56V838.3" style="fill: #8cc63f;stroke: #000;stroke-miterlimit: 10;stroke-width: 3px"/>
        <path d="M276.1,837.13V826.56S277.27,816,287.84,816s12.91,10.57,12.91,10.57v10.57" style="fill: #8cc63f;stroke: #000;stroke-miterlimit: 10;stroke-width: 3px"/>
        <polyline points="222.68 908.74 235.6 838.89 249.69 906.39 263.19 838.89 276.69 906.39 290.77 840.65 302.51 908.74" style="fill: #c69c6d;stroke: #000;stroke-linejoin: round;stroke-width: 3px"/>
        <polyline points="235.6 817.17 235.6 779.6 290.77 779.6 290.77 814.82" style="fill: #ffc299;stroke: #000;stroke-miterlimit: 10;stroke-width: 3px"/>
        <polyline points="244.4 813.06 244.4 787.23 253.79 787.23 253.79 810.71" style="fill: #ffc299;stroke: #000;stroke-miterlimit: 10;stroke-width: 3px"/>
        <polyline points="259.66 813.06 259.66 787.23 264.36 787.23" style="fill: #ffc299;stroke: #000;stroke-miterlimit: 10;stroke-width: 3px"/>
        <polyline points="273.75 787.23 278.45 787.23 278.45 813.06" style="fill: #ffc299;stroke: #000;stroke-miterlimit: 10;stroke-width: 3px"/>
        <polygon points="229.14 768.45 296.06 768.45 291.36 780.19 236.18 780.19 229.14 768.45" style="fill: #ffc299;stroke: #000;stroke-miterlimit: 10;stroke-width: 3px"/>
        <path d="M294.88,768.45s9.39-11.74,12.92-16.44,4.69-12.91,2.34-18.78-46.95-44.61-46.95-44.61l-48.14,41.09s-5.87,12.91,0,21.13,14.09,17.61,14.09,17.61" style="fill: #3fa9f5;stroke: #000;stroke-miterlimit: 10;stroke-width: 3px"/>
        <line x1="262.7" y1="630.51" x2="262.7" y2="688.03" style="fill: #ffc299;stroke: #000;stroke-miterlimit: 10;stroke-width: 3px"/>
        <line x1="255.55" y1="637.55" x2="268.47" y2="637.55" style="fill: #ffc299;stroke: #000;stroke-miterlimit: 10;stroke-width: 2px"/>
        <circle cx="262.7" cy="662.5" r="3.23" style="fill: #ffc299;stroke: #000;stroke-miterlimit: 10;stroke-width: 3px"/>
        <path d="M278.45,702.71s18.78,22.22,18.78,30.52c0,10.57-2.35,12.91-5.87,17.61-5.5,7.34-13.87,17.61-13.87,17.61" style="fill: #fff;stroke: #000;stroke-linejoin: round;stroke-width: 3px"/>
        <path d="M246.75,702.71S228,724.93,228,733.23c0,10.57,2.34,12.91,5.87,17.61,5.5,7.34,13.87,17.61,13.87,17.61" style="fill: #fff;stroke: #000;stroke-linejoin: round;stroke-width: 3px"/>
        <path d="M259.66,692.14s-11.74,20-15.26,28.18-4.69,9.39-3.52,15.26,12.91,31.7,12.91,31.7" style="fill: #3fa9f5;stroke: #000;stroke-miterlimit: 10;stroke-width: 3px"/>
        <path d="M265.53,692.14s11.74,20,15.26,28.18,4.7,9.39,3.53,15.26-12.92,31.7-12.92,31.7" style="fill: #3fa9f5;stroke: #000;stroke-miterlimit: 10;stroke-width: 3px"/>
        <path d="M262,691s-8.8,22.89-8.8,40.5,8.21,37,8.21,37,9.4-20.54,9.4-35.81S263.19,691,263.19,691" style="fill: #fff;stroke: #000;stroke-linejoin: round;stroke-width: 3px"/>
      </g>
      <g>
        <rect x="428.5" y="928.11" width="88.05" height="8.22" transform="translate(945.05 1864.43) rotate(-180)" style="fill: #ffc299;stroke: #000;stroke-miterlimit: 10;stroke-width: 3px"/>
        <rect x="428.5" y="919.89" width="84.52" height="8.22" transform="translate(941.52 1848) rotate(-180)" style="fill: #ffc299;stroke: #000;stroke-miterlimit: 10;stroke-width: 3px"/>
        <rect x="428.5" y="911.67" width="79.83" height="7.04" transform="translate(936.83 1830.39) rotate(-180)" style="fill: #ffc299;stroke: #000;stroke-miterlimit: 10;stroke-width: 3px"/>
        <rect x="428.5" y="838.89" width="79.83" height="70.44" transform="translate(936.83 1748.21) rotate(-180)" style="fill: #ffc299;stroke: #000;stroke-miterlimit: 10;stroke-width: 3px"/>
        <path d="M482.5,837.71V827.15s-1.17-10.57-11.74-10.57-12.91,10.57-12.91,10.57v10.56" style="fill: #7ac943;stroke: #000;stroke-miterlimit: 10;stroke-width: 3px"/>
        <path d="M508.33,838.3V827.73s-1.17-10.56-11.74-10.56-12.91,10.56-12.91,10.56V838.3" style="fill: #7ac943;stroke: #000;stroke-miterlimit: 10;stroke-width: 3px"/>
        <path d="M455.5,837.13V826.56S454.33,816,443.76,816s-12.91,10.57-12.91,10.57v10.57" style="fill: #7ac943;stroke: #000;stroke-miterlimit: 10;stroke-width: 3px"/>
        <polyline points="508.92 908.74 496 838.89 481.92 906.39 468.41 838.89 454.91 906.39 440.83 840.65 429.09 908.74" style="fill: #a67c52;stroke: #000;stroke-linejoin: round;stroke-width: 3px"/>
        <polyline points="496 817.17 496 779.6 440.83 779.6 440.83 814.82" style="fill: #ffc299;stroke: #000;stroke-miterlimit: 10;stroke-width: 3px"/>
        <polyline points="487.2 813.06 487.2 787.23 477.81 787.23 477.81 810.71" style="fill: #ffc299;stroke: #000;stroke-miterlimit: 10;stroke-width: 3px"/>
        <polyline points="471.94 813.06 471.94 787.23 467.24 787.23" style="fill: #ffc299;stroke: #000;stroke-miterlimit: 10;stroke-width: 3px"/>
        <polyline points="457.85 787.23 453.15 787.23 453.15 813.06" style="fill: #ffc299;stroke: #000;stroke-miterlimit: 10;stroke-width: 3px"/>
        <polygon points="502.46 768.45 435.54 768.45 440.24 780.19 495.42 780.19 502.46 768.45" style="fill: #ffc299;stroke: #000;stroke-miterlimit: 10;stroke-width: 3px"/>
        <path d="M436.72,768.45S427.33,756.71,423.8,752s-4.69-12.91-2.34-18.78,47-44.61,47-44.61l48.14,41.09s5.87,12.91,0,21.13-14.09,17.61-14.09,17.61" style="fill: #f7931e;stroke: #000;stroke-miterlimit: 10;stroke-width: 3px"/>
        <line x1="468.9" y1="630.51" x2="468.9" y2="688.03" style="fill: #ffc299;stroke: #000;stroke-miterlimit: 10;stroke-width: 3px"/>
        <line x1="476.05" y1="637.55" x2="463.13" y2="637.55" style="fill: #ffc299;stroke: #000;stroke-miterlimit: 10;stroke-width: 2px"/>
        <circle cx="468.9" cy="662.5" r="3.23" style="fill: #ffc299;stroke: #000;stroke-miterlimit: 10;stroke-width: 3px"/>
        <path d="M453.15,702.71s-18.78,22.22-18.78,30.52c0,10.57,2.35,12.91,5.87,17.61,5.5,7.34,13.87,17.61,13.87,17.61" style="fill: #7ac943;stroke: #000;stroke-linejoin: round;stroke-width: 3px"/>
        <path d="M484.85,702.71s18.78,22.22,18.78,30.52c0,10.57-2.34,12.91-5.87,17.61-5.5,7.34-13.87,17.61-13.87,17.61" style="fill: #7ac943;stroke: #000;stroke-linejoin: round;stroke-width: 3px"/>
        <path d="M466.07,692.14s-11.74,20-15.26,28.18-4.7,9.39-3.53,15.26,12.92,31.7,12.92,31.7" style="fill: #f7931e;stroke: #000;stroke-miterlimit: 10;stroke-width: 3px"/>
        <path d="M471.94,692.14s11.74,20,15.26,28.18,4.69,9.39,3.52,15.26-12.91,31.7-12.91,31.7" style="fill: #f7931e;stroke: #000;stroke-miterlimit: 10;stroke-width: 3px"/>
        <path d="M469.59,691s8.8,22.89,8.8,40.5-8.21,37-8.21,37-9.4-20.54-9.4-35.81S468.41,691,468.41,691" style="fill: #7ac943;stroke: #000;stroke-linejoin: round;stroke-width: 3px"/>
      </g>
      <rect x="302.51" y="811.3" width="125.61" height="124.44" style="fill: #ff9a55;stroke: #000;stroke-miterlimit: 10;stroke-width: 3px"/>
      <path d="M333.14,861.78h3.31a9.5,9.5,0,0,1,9.5,9.5v39.81a0,0,0,0,1,0,0H323.64a0,0,0,0,1,0,0V871.28A9.5,9.5,0,0,1,333.14,861.78Z" style="fill: #ffc299;stroke: #000;stroke-miterlimit: 10;stroke-width: 3px"/>
      <path d="M364.25,862.37h3.31a9.5,9.5,0,0,1,9.5,9.5v39.81a0,0,0,0,1,0,0H354.75a0,0,0,0,1,0,0V871.87A9.5,9.5,0,0,1,364.25,862.37Z" style="fill: #ffc299;stroke: #000;stroke-miterlimit: 10;stroke-width: 3px"/>
      <path d="M397.12,862.37h3.31a9.5,9.5,0,0,1,9.5,9.5v39.81a0,0,0,0,1,0,0H387.62a0,0,0,0,1,0,0V871.87A9.5,9.5,0,0,1,397.12,862.37Z" style="fill: #ffc299;stroke: #000;stroke-miterlimit: 10;stroke-width: 3px"/>
      <line x1="303.1" y1="911.67" x2="428.5" y2="911.67" style="fill: #ffc299;stroke: #000;stroke-miterlimit: 10;stroke-width: 3px"/>
      <rect x="313.67" y="835.36" width="104.48" height="18.78" style="fill: #ffc299;stroke: #000;stroke-miterlimit: 10;stroke-width: 3px"/>
      <rect x="319.54" y="748.49" width="42.26" height="61.05" style="fill: #ffc299;stroke: #000;stroke-miterlimit: 10;stroke-width: 3px"/>
      <rect x="373.54" y="748.49" width="41.09" height="61.05" style="fill: #ffc299;stroke: #000;stroke-miterlimit: 10;stroke-width: 3px"/>
      <rect x="386.45" y="780.19" width="14.09" height="23.48" style="fill: #ffc299;stroke: #000;stroke-miterlimit: 10;stroke-width: 3px"/>
      <rect x="334.8" y="780.19" width="12.91" height="23.48" style="fill: #ffc299;stroke: #000;stroke-miterlimit: 10;stroke-width: 3px"/>
      <line x1="311.37" y1="748.49" x2="420.5" y2="748.49" style="fill: #ffc299;stroke: #000;stroke-miterlimit: 10;stroke-width: 3px"/>
      <path d="M425.19,759.06v51.65" style="fill: #ffc299;stroke: #000;stroke-miterlimit: 10;stroke-width: 3px"/>
      <line x1="308" y1="810.71" x2="308" y2="752.01" style="fill: #ffc299;stroke: #000;stroke-miterlimit: 10;stroke-width: 3px"/>
      <polyline points="325.4 652.23 355.93 563.01 361.8 563.01 375.88 563.01 411.1 652.23" style="fill: #ffc299;stroke: #000;stroke-miterlimit: 10;stroke-width: 3px"/>
      <line x1="343.38" y1="652.23" x2="361.8" y2="563.01" style="fill: #ffc299;stroke: #000;stroke-miterlimit: 10;stroke-width: 3px"/>
      <line x1="367.08" y1="652.23" x2="368.25" y2="563.01" style="fill: #ffc299;stroke: #000;stroke-miterlimit: 10;stroke-width: 3px"/>
      <line x1="388.05" y1="652.23" x2="373.54" y2="563.01" style="fill: #ffc299;stroke: #000;stroke-miterlimit: 10;stroke-width: 3px"/>
      <path d="M319.54,743.8s1.17-20,15.26-18.79,15.26,18.79,15.26,18.79" style="fill: none;stroke: #000;stroke-miterlimit: 10;stroke-width: 3px"/>
      <path d="M351.23,743.8s1.18-20,15.26-18.79,15.26,18.79,15.26,18.79" style="fill: none;stroke: #000;stroke-miterlimit: 10;stroke-width: 3px"/>
      <path d="M382.93,743.8s1.17-20,15.26-18.79,15.26,18.79,15.26,18.79" style="fill: none;stroke: #000;stroke-miterlimit: 10;stroke-width: 3px"/>
      <g>
        <path d="M319.54,726.19s1.17-20,15.26-18.79,15.26,18.79,15.26,18.79" style="fill: none;stroke: #000;stroke-miterlimit: 10;stroke-width: 3px"/>
        <path d="M351.23,726.19s1.18-20,15.26-18.79,15.26,18.79,15.26,18.79" style="fill: none;stroke: #000;stroke-miterlimit: 10;stroke-width: 3px"/>
        <path d="M382.93,726.19s1.17-20,15.26-18.79,15.26,18.79,15.26,18.79" style="fill: none;stroke: #000;stroke-miterlimit: 10;stroke-width: 3px"/>
      </g>
      <g>
        <path d="M322.47,707.4s1.14-19.95,14.78-18.78S352,707.4,352,707.4" style="fill: none;stroke: #000;stroke-miterlimit: 10;stroke-width: 3px"/>
        <path d="M353.18,707.4s1.13-19.95,14.78-18.78,14.79,18.78,14.79,18.78" style="fill: none;stroke: #000;stroke-miterlimit: 10;stroke-width: 3px"/>
        <path d="M383.88,707.4s1.14-19.95,14.79-18.78,14.78,18.78,14.78,18.78" style="fill: none;stroke: #000;stroke-miterlimit: 10;stroke-width: 3px"/>
      </g>
      <g>
        <path d="M324.82,686.27s1.05-20,13.73-18.78,13.74,18.78,13.74,18.78" style="fill: none;stroke: #000;stroke-miterlimit: 10;stroke-width: 3px"/>
        <path d="M353.35,686.27s1-20,13.73-18.78,13.74,18.78,13.74,18.78" style="fill: none;stroke: #000;stroke-miterlimit: 10;stroke-width: 3px"/>
        <path d="M381.87,686.27s1.06-20,13.74-18.78,13.73,18.78,13.73,18.78" style="fill: none;stroke: #000;stroke-miterlimit: 10;stroke-width: 3px"/>
      </g>
      <ellipse cx="366.49" cy="553.03" rx="17.02" ry="9.39" style="fill: #ffc299;stroke: #000;stroke-miterlimit: 10;stroke-width: 3px"/>
      <path d="M366.49,530.14a19.18,19.18,0,0,1-8.88-2.58,14.39,14.39,0,0,1-6.38-8c-3.52-10.57,16.44-31.7,16.44-31.7s18.78,23.48,18.78,29.35S379.41,530.14,366.49,530.14Z" style="fill: #fcee21;stroke: #000;stroke-miterlimit: 10;stroke-width: 3px"/>
      <line x1="357.1" y1="544.22" x2="357.1" y2="527.79" style="fill: #ffc299;stroke: #000;stroke-miterlimit: 10;stroke-width: 3px"/>
      <line x1="377.06" y1="544.22" x2="377.06" y2="528.1" style="fill: #ffc299;stroke: #000;stroke-miterlimit: 10;stroke-width: 3px"/>
      <line x1="367.67" y1="487.87" x2="367.67" y2="450.31" style="fill: #ffc299;stroke: #000;stroke-miterlimit: 10;stroke-width: 3px"/>
      <line x1="357.1" y1="462.05" x2="377.06" y2="462.05" style="fill: #ffc299;stroke: #000;stroke-miterlimit: 10;stroke-width: 3px"/>
    </g>
    <g>
      <path d="M892,1026.81V623.29s32.63-30.46,79.4-34.81,46.76,0,46.76,0v438.33Z" style="fill: #8d98ff;stroke: #000;stroke-miterlimit: 10;stroke-width: 3px"/>
      <polyline points="1052.98 586.31 1029.05 596.1 1029.05 1026.81 1052.98 1026.81 1052.98 586.31" style="fill: #8d98ff;stroke: #000;stroke-miterlimit: 10;stroke-width: 3px"/>
      <line x1="1018.17" y1="1026.81" x2="1029.05" y2="1026.81" style="fill: #8d98ff;stroke: #000;stroke-miterlimit: 10;stroke-width: 3px"/>
      <line x1="1018.17" y1="588.48" x2="1029.05" y2="596.1" style="fill: #8d98ff;stroke: #000;stroke-miterlimit: 10;stroke-width: 3px"/>
      <line x1="1053.52" y1="1007.23" x2="892.01" y2="1007.23" style="fill: #8d98ff;stroke: #000;stroke-miterlimit: 10;stroke-width: 3px"/>
      <line x1="1053.52" y1="993.09" x2="892.01" y2="993.09" style="fill: #8d98ff;stroke: #000;stroke-miterlimit: 10;stroke-width: 3px"/>
      <line x1="1053.52" y1="975.69" x2="892.01" y2="975.69" style="fill: #8d98ff;stroke: #000;stroke-miterlimit: 10;stroke-width: 3px"/>
      <line x1="1053.52" y1="961.55" x2="892.01" y2="961.55" style="fill: #8d98ff;stroke: #000;stroke-miterlimit: 10;stroke-width: 3px"/>
      <path d="M892,640.68s33.65-25.17,63.62-31c36.44-7.07,62.54-2,62.54-2l9.25,6.38L1053,605.2" style="fill: #8d98ff;stroke: #000;stroke-miterlimit: 10;stroke-width: 3px"/>
      <path d="M892,655.91s33.65-25.18,63.62-31c36.44-7.07,62.54-2,62.54-2l9.25,6.38,25.56-8.84" style="fill: #8d98ff;stroke: #000;stroke-miterlimit: 10;stroke-width: 3px"/>
      <path d="M892,672.23s33.65-25.18,63.62-31c36.44-7.07,62.54-2,62.54-2l10.34,6.38,24.47-8.83" style="fill: #8d98ff;stroke: #000;stroke-miterlimit: 10;stroke-width: 3px"/>
      <path d="M892,688.54s33.65-23,63.62-28.82c36.44-7.07,62.54-4.2,62.54-4.2l10.34,7.47,24.47-8.84" style="fill: #8d98ff;stroke: #000;stroke-miterlimit: 10;stroke-width: 3px"/>
      <path d="M892,703.77s33.65-21.92,63.62-27.73c36.44-7.07,62.54-3.12,62.54-3.12l10.34,7.47,24.47-8.84" style="fill: #8d98ff;stroke: #000;stroke-miterlimit: 10;stroke-width: 3px"/>
      <path d="M892,717.91s33.65-19.74,63.62-25.56c36.44-7.07,62.54-3.11,62.54-3.11l10.34,7.46,24.47-8.83" style="fill: #8d98ff;stroke: #000;stroke-miterlimit: 10;stroke-width: 3px"/>
      <path d="M892,734.22s33.65-19.74,63.62-25.55c36.44-7.07,62.54-2,62.54-2l10.34,7.47,24.47-8.84" style="fill: #8d98ff;stroke: #000;stroke-miterlimit: 10;stroke-width: 3px"/>
      <path d="M892,748.36s33.65-16.47,63.62-22.29c36.44-7.07,62.54-2,62.54-2l10.34,5.29,24.47-9.92" style="fill: #8d98ff;stroke: #000;stroke-miterlimit: 10;stroke-width: 3px"/>
      <path d="M890.92,764.68s33.25-19.21,63.63-22.29c37.52-3.81,62.54-.95,62.54-.95l10.33,4.21,24.47-4.49" style="fill: #8d98ff;stroke: #000;stroke-miterlimit: 10;stroke-width: 3px"/>
      <path d="M890.92,779.9s33.25-18.12,63.63-21.2c37.52-3.81,62.54-.94,62.54-.94l10.33,4.2,24.47-4.48" style="fill: #8d98ff;stroke: #000;stroke-miterlimit: 10;stroke-width: 3px"/>
      <path d="M890.92,796.22S924.17,778.1,954.55,775c37.52-3.8,62.54-.94,62.54-.94l10.33,4.21,24.47-1.23" style="fill: #8d98ff;stroke: #000;stroke-miterlimit: 10;stroke-width: 3px"/>
      <path d="M890.92,811.44s33.25-18.12,63.63-21.2c37.52-3.8,62.54-.94,62.54-.94l10.33,4.2,24.47-1.22" style="fill: #8d98ff;stroke: #000;stroke-miterlimit: 10;stroke-width: 3px"/>
      <path d="M890.92,827.76s33.25-18.12,63.63-21.2c37.52-3.81,62.54-.94,62.54-.94l10.33,4.2,24.47-1.23" style="fill: #8d98ff;stroke: #000;stroke-miterlimit: 10;stroke-width: 3px"/>
      <path d="M890.92,843s33.25-14.86,63.63-17.94c37.52-3.81,62.54-2,62.54-2l10.33,3.11,24.47-1.22" style="fill: #8d98ff;stroke: #000;stroke-miterlimit: 10;stroke-width: 3px"/>
      <path d="M890.92,857.13s33.25-12.69,63.63-15.77c37.52-3.81,62.54-2,62.54-2l10.33,3.12,24.47-1.23" style="fill: #8d98ff;stroke: #000;stroke-miterlimit: 10;stroke-width: 3px"/>
      <path d="M892,871.27s33.25-11.6,63.62-14.68c37.53-3.81,62.54-.94,62.54-.94l10.34,3.11,24.47-.13" style="fill: #8d98ff;stroke: #000;stroke-miterlimit: 10;stroke-width: 3px"/>
      <path d="M890.92,887.58S924.17,876,954.55,872.9c37.52-3.8,62.54,1.24,62.54,1.24l10.33,2,24.47-1.23" style="fill: #8d98ff;stroke: #000;stroke-miterlimit: 10;stroke-width: 3px"/>
      <path d="M892,902.81s33.25-9.42,63.62-12.5c37.53-3.81,62.54,1.23,62.54,1.23l10.34.94,24.47-.14" style="fill: #8d98ff;stroke: #000;stroke-miterlimit: 10;stroke-width: 3px"/>
      <path d="M892,917s33.25-6.16,63.62-9.24c37.53-3.81,62.54,1.23,62.54,1.23l10.34-.14,24.47-1.23" style="fill: #8d98ff;stroke: #000;stroke-miterlimit: 10;stroke-width: 3px"/>
      <path d="M893.09,931.09s33.13-5.81,63.63-7.07c39.7-1.63,62.54.15,62.54.15l10.34,2,24.47-.14" style="fill: #8d98ff;stroke: #000;stroke-miterlimit: 10;stroke-width: 3px"/>
      <path d="M892,946.31s33.12-3.66,63.62-4.88c40.79-1.64,62.54.14,62.54.14l10.34,2,24.47-1.22" style="fill: #8d98ff;stroke: #000;stroke-miterlimit: 10;stroke-width: 3px"/>
    </g>
    <g>
      <path d="M1342.92,626.81l45-42s56,163,64,203,16,102,12,138-13,98-13,98-41-126-47-142-37-91-42-110-12-47-14-69S1342.92,626.81,1342.92,626.81Z" style="fill: #03a6d8;stroke: #000;stroke-miterlimit: 10;stroke-width: 3px"/>
      <path d="M1361.92,783.81s-21,96-19,130,19,114,19,114h89" style="fill: #03a6d8;stroke: #000;stroke-miterlimit: 10;stroke-width: 3px"/>
      <line x1="1358.03" y1="1008.81" x2="1444.92" y2="1004.81" style="fill: #03a6d8;stroke: #000;stroke-miterlimit: 10;stroke-width: 3px"/>
      <polyline points="1354.52 990.75 1436.38 979.28 1456.37 985.01" style="fill: #03a6d8;stroke: #000;stroke-miterlimit: 10;stroke-width: 3px"/>
      <polyline points="1459.81 959.3 1427.73 952.91 1350.81 970.55" style="fill: #03a6d8;stroke: #000;stroke-miterlimit: 10;stroke-width: 3px"/>
      <path d="M1347.35,949.94c-.43-.13,72.08-22.2,72.08-22.2l43.65,5.41" style="fill: #03a6d8;stroke: #000;stroke-miterlimit: 10;stroke-width: 3px"/>
      <polyline points="1464.98 909.11 1411.14 902.8 1344.49 929.95" style="fill: #03a6d8;stroke: #000;stroke-miterlimit: 10;stroke-width: 3px"/>
      <polyline points="1342.92 902.94 1402.13 877.16 1463.08 881.76" style="fill: #03a6d8;stroke: #000;stroke-miterlimit: 10;stroke-width: 3px"/>
      <polyline points="1463.08 856.48 1392.41 852.73 1344.49 882.13" style="fill: #03a6d8;stroke: #000;stroke-miterlimit: 10;stroke-width: 3px"/>
      <polyline points="1347.97 858.25 1383.82 831.17 1459.51 833.66" style="fill: #03a6d8;stroke: #000;stroke-miterlimit: 10;stroke-width: 3px"/>
      <polyline points="1455.97 810.1 1375.24 809.23 1353.03 828.49" style="fill: #03a6d8;stroke: #000;stroke-miterlimit: 10;stroke-width: 3px"/>
      <line x1="1366.81" y1="786.72" x2="1450.92" y2="787.81" style="fill: #03a6d8;stroke: #000;stroke-miterlimit: 10;stroke-width: 3px"/>
      <path d="M1361,768.13l84.27-6.34s7.69-55,10.69-75,0-79,0-79l-68-23" style="fill: #03a6d8;stroke: #000;stroke-miterlimit: 10;stroke-width: 3px"/>
      <line x1="1356.11" y1="748.65" x2="1436.99" y2="734.15" style="fill: #03a6d8;stroke: #000;stroke-miterlimit: 10;stroke-width: 3px"/>
      <polyline points="1353.03 730.41 1429.42 709.97 1450.92 720.12" style="fill: #03a6d8;stroke: #000;stroke-miterlimit: 10;stroke-width: 3px"/>
      <line x1="1454.54" y1="696.16" x2="1422.97" y2="683.81" style="fill: #03a6d8;stroke: #000;stroke-miterlimit: 10;stroke-width: 3px"/>
      <line x1="1413.92" y1="654.81" x2="1457.01" y2="672.63" style="fill: #03a6d8;stroke: #000;stroke-miterlimit: 10;stroke-width: 3px"/>
      <line x1="1455.98" y1="646.6" x2="1404.5" y2="629.26" style="fill: #03a6d8;stroke: #000;stroke-miterlimit: 10;stroke-width: 3px"/>
      <line x1="1396.55" y1="605.06" x2="1456.65" y2="625.65" style="fill: #03a6d8;stroke: #000;stroke-miterlimit: 10;stroke-width: 3px"/>
      <line x1="1344.07" y1="646.6" x2="1396.55" y2="615.35" style="fill: #03a6d8;stroke: #000;stroke-miterlimit: 10;stroke-width: 3px"/>
      <line x1="1407.04" y1="641.43" x2="1343.92" y2="668.81" style="fill: #03a6d8;stroke: #000;stroke-miterlimit: 10;stroke-width: 3px"/>
      <line x1="1346.89" y1="689.99" x2="1415.12" y2="665.83" style="fill: #03a6d8;stroke: #000;stroke-miterlimit: 10;stroke-width: 3px"/>
      <line x1="1422.97" y1="689.86" x2="1348.72" y2="709.96" style="fill: #03a6d8;stroke: #000;stroke-miterlimit: 10;stroke-width: 3px"/>
    </g>
    <g>
      <line x1="1099.49" y1="836.15" x2="1099.49" y2="928.58" style="fill: #b0f0ff;stroke: #000;stroke-miterlimit: 10;stroke-width: 3px"/>
      <line x1="1081.92" y1="934.81" x2="1092.92" y2="939.81" style="fill: #b0f0ff;stroke: #000;stroke-miterlimit: 10;stroke-width: 3px"/>
      <g>
        <polygon points="1092.92 1028.81 1092.92 939.81 1141.92 928.81 1181.92 945.81 1181.92 1028.81 1092.92 1028.81" style="fill: #b0f0ff;stroke: #000;stroke-miterlimit: 10;stroke-width: 3px"/>
        <line x1="1141.92" y1="928.81" x2="1141.92" y2="1030.31" style="fill: #b0f0ff;stroke: #000;stroke-miterlimit: 10;stroke-width: 3px"/>
        <line x1="1157.6" y1="935.47" x2="1157.6" y2="1028.81" style="fill: #b0f0ff;stroke: #000;stroke-miterlimit: 10;stroke-width: 3px"/>
        <line x1="1169.59" y1="940.57" x2="1169.59" y2="1028.81" style="fill: #b0f0ff;stroke: #000;stroke-miterlimit: 10;stroke-width: 3px"/>
        <line x1="1141.92" y1="988.51" x2="1181.92" y2="996.92" style="fill: #b0f0ff;stroke: #000;stroke-miterlimit: 10;stroke-width: 3px"/>
        <polyline points="1092.92 947.95 1141.92 947.95 1181.92 967.59" style="fill: #b0f0ff;stroke: #000;stroke-miterlimit: 10;stroke-width: 3px"/>
        <polygon points="1081.92 841.81 1081.92 868.43 1081.92 934.81 1129.92 917.81 1129.92 853.73 1129.92 820.81 1081.92 841.81" style="fill: #b0f0ff;stroke: #000;stroke-miterlimit: 10;stroke-width: 3px"/>
        <line x1="1083.92" y1="902.81" x2="1129.92" y2="883.12" style="fill: #b0f0ff;stroke: #000;stroke-miterlimit: 10;stroke-width: 3px"/>
        <line x1="1081.92" y1="868.81" x2="1129.92" y2="853.81" style="fill: #b0f0ff;stroke: #000;stroke-miterlimit: 10;stroke-width: 3px"/>
        <line x1="1119.21" y1="825.49" x2="1118.92" y2="917.81" style="fill: #b0f0ff;stroke: #000;stroke-miterlimit: 10;stroke-width: 3px"/>
        <polyline points="1129.92 820.81 1169.92 856.81 1169.92 935.81 1129.92 917.81" style="fill: #b0f0ff;stroke: #000;stroke-miterlimit: 10;stroke-width: 3px"/>
        <polyline points="1134.92 823.81 1140.92 820.81 1178.92 850.81 1169.92 853.81" style="fill: #b0f0ff;stroke: #000;stroke-miterlimit: 10;stroke-width: 3px"/>
        <polyline points="1091.92 834.81 1091.92 749.81 1141.92 729.81 1141.92 820.81" style="fill: #b0f0ff;stroke: #000;stroke-miterlimit: 10;stroke-width: 3px"/>
        <polyline points="1141.92 729.81 1178.92 755.81 1178.92 851.81" style="fill: #b0f0ff;stroke: #000;stroke-miterlimit: 10;stroke-width: 3px"/>
        <line x1="1142.92" y1="757.81" x2="1178.92" y2="782.31" style="fill: #b0f0ff;stroke: #000;stroke-miterlimit: 10;stroke-width: 3px"/>
        <line x1="1142.92" y1="786.97" x2="1178.92" y2="813.7" style="fill: #b0f0ff;stroke: #000;stroke-miterlimit: 10;stroke-width: 3px"/>
        <line x1="1156.92" y1="739.81" x2="1156.92" y2="831.8" style="fill: #b0f0ff;stroke: #000;stroke-miterlimit: 10;stroke-width: 3px"/>
        <line x1="1169.92" y1="749.26" x2="1167.84" y2="842.06" style="fill: #b0f0ff;stroke: #000;stroke-miterlimit: 10;stroke-width: 3px"/>
        <polyline points="1088.92 745.81 1133.92 723.81 1137.92 727.81 1091.42 749.31 1087.42 747.31 1087.42 654.31 1136.42 634.31 1136.42 723.31" style="fill: #b0f0ff;stroke: #000;stroke-miterlimit: 10;stroke-width: 3px"/>
        <polyline points="1100.42 645.31 1100.42 634.31 1136.42 621.31 1136.42 634.31 1161.62 654.74 1173.42 664.31 1173.42 749.31" style="fill: #b0f0ff;stroke: #000;stroke-miterlimit: 10;stroke-width: 3px"/>
        <polyline points="1162.42 652.31 1162.42 642.31 1137.42 621.31" style="fill: #b0f0ff;stroke: #000;stroke-miterlimit: 10;stroke-width: 3px"/>
        <line x1="1105.92" y1="649.89" x2="1106.42" y2="734.31" style="fill: #b0f0ff;stroke: #000;stroke-miterlimit: 10;stroke-width: 3px"/>
        <line x1="1120.8" y1="642.43" x2="1120.8" y2="727.81" style="fill: #b0f0ff;stroke: #000;stroke-miterlimit: 10;stroke-width: 3px"/>
        <line x1="1087.92" y1="715.81" x2="1136.42" y2="697.16" style="fill: #b0f0ff;stroke: #000;stroke-miterlimit: 10;stroke-width: 3px"/>
        <line x1="1087.42" y1="681.93" x2="1136.42" y2="664.72" style="fill: #b0f0ff;stroke: #000;stroke-miterlimit: 10;stroke-width: 3px"/>
      </g>
      <g>
        <polygon points="1206.92 939.81 1206.92 850.81 1255.92 839.81 1295.92 856.81 1288.92 951.81 1251.42 939.32 1206.92 939.81" style="fill: #b0f0ff;stroke: #000;stroke-miterlimit: 10;stroke-width: 3px"/>
        <line x1="1255.92" y1="839.81" x2="1255.92" y2="941.31" style="fill: #b0f0ff;stroke: #000;stroke-miterlimit: 10;stroke-width: 3px"/>
        <line x1="1271.6" y1="846.47" x2="1271.6" y2="943.81" style="fill: #b0f0ff;stroke: #000;stroke-miterlimit: 10;stroke-width: 3px"/>
        <path d="M1283.59,851.57v97.24c0-4.35.33,80,.33,80h-35" style="fill: #b0f0ff;stroke: #000;stroke-miterlimit: 10;stroke-width: 3px"/>
        <line x1="1255.92" y1="899.51" x2="1295.92" y2="907.92" style="fill: #b0f0ff;stroke: #000;stroke-miterlimit: 10;stroke-width: 3px"/>
        <line x1="1255.92" y1="858.95" x2="1295.92" y2="878.59" style="fill: #b0f0ff;stroke: #000;stroke-miterlimit: 10;stroke-width: 3px"/>
        <polygon points="1195.92 752.81 1195.92 779.43 1195.92 845.81 1243.92 828.81 1243.92 764.73 1243.92 731.81 1195.92 752.81" style="fill: #b0f0ff;stroke: #000;stroke-miterlimit: 10;stroke-width: 3px"/>
        <line x1="1197.92" y1="813.81" x2="1243.92" y2="794.12" style="fill: #b0f0ff;stroke: #000;stroke-miterlimit: 10;stroke-width: 3px"/>
        <line x1="1195.92" y1="779.81" x2="1243.92" y2="764.81" style="fill: #b0f0ff;stroke: #000;stroke-miterlimit: 10;stroke-width: 3px"/>
        <line x1="1233.21" y1="736.49" x2="1232.92" y2="828.81" style="fill: #b0f0ff;stroke: #000;stroke-miterlimit: 10;stroke-width: 3px"/>
        <polyline points="1243.92 731.81 1283.92 767.81 1283.92 846.81 1243.92 828.81" style="fill: #b0f0ff;stroke: #000;stroke-miterlimit: 10;stroke-width: 3px"/>
        <polyline points="1248.92 734.81 1254.92 731.81 1292.92 761.81 1283.92 764.81" style="fill: #b0f0ff;stroke: #000;stroke-miterlimit: 10;stroke-width: 3px"/>
        <polyline points="1205.92 745.81 1205.92 660.81 1255.92 640.81 1255.92 731.81" style="fill: #b0f0ff;stroke: #000;stroke-miterlimit: 10;stroke-width: 3px"/>
        <polyline points="1255.92 640.81 1292.92 666.81 1292.92 762.81" style="fill: #b0f0ff;stroke: #000;stroke-miterlimit: 10;stroke-width: 3px"/>
        <line x1="1256.92" y1="668.81" x2="1292.92" y2="693.31" style="fill: #b0f0ff;stroke: #000;stroke-miterlimit: 10;stroke-width: 3px"/>
        <line x1="1256.92" y1="697.97" x2="1292.92" y2="724.7" style="fill: #b0f0ff;stroke: #000;stroke-miterlimit: 10;stroke-width: 3px"/>
        <line x1="1270.92" y1="650.81" x2="1270.92" y2="742.8" style="fill: #b0f0ff;stroke: #000;stroke-miterlimit: 10;stroke-width: 3px"/>
        <line x1="1283.92" y1="660.26" x2="1281.84" y2="753.06" style="fill: #b0f0ff;stroke: #000;stroke-miterlimit: 10;stroke-width: 3px"/>
        <polyline points="1202.92 656.81 1247.92 634.81 1251.92 638.81 1205.42 660.31 1201.42 658.31 1201.42 565.31 1250.42 545.31 1250.42 634.31" style="fill: #b0f0ff;stroke: #000;stroke-miterlimit: 10;stroke-width: 3px"/>
        <polyline points="1214.42 556.31 1214.42 545.31 1250.42 532.31 1250.42 545.31 1275.62 565.74 1287.42 575.31 1287.42 660.31" style="fill: #b0f0ff;stroke: #000;stroke-miterlimit: 10;stroke-width: 3px"/>
        <polyline points="1276.42 563.31 1276.42 553.31 1251.42 532.31" style="fill: #b0f0ff;stroke: #000;stroke-miterlimit: 10;stroke-width: 3px"/>
        <line x1="1219.92" y1="560.89" x2="1220.42" y2="645.31" style="fill: #b0f0ff;stroke: #000;stroke-miterlimit: 10;stroke-width: 3px"/>
        <line x1="1234.8" y1="553.43" x2="1234.8" y2="638.81" style="fill: #b0f0ff;stroke: #000;stroke-miterlimit: 10;stroke-width: 3px"/>
        <line x1="1201.92" y1="626.81" x2="1250.42" y2="608.16" style="fill: #b0f0ff;stroke: #000;stroke-miterlimit: 10;stroke-width: 3px"/>
        <line x1="1201.42" y1="592.93" x2="1250.42" y2="575.72" style="fill: #b0f0ff;stroke: #000;stroke-miterlimit: 10;stroke-width: 3px"/>
      </g>
      <line x1="1195.92" y1="845.81" x2="1206.92" y2="850.81" style="fill: #b0f0ff;stroke: #000;stroke-miterlimit: 10;stroke-width: 3px"/>
      <polygon points="1200.92 1028.81 1200.92 966.73 1200.92 940.81 1248.92 940.81 1248.92 1028.81 1200.92 1028.81" style="fill: #b0f0ff;stroke: #000;stroke-miterlimit: 10;stroke-width: 3px"/>
      <line x1="1243.92" y1="966.81" x2="1200.92" y2="966.81" style="fill: #b0f0ff;stroke: #000;stroke-miterlimit: 10;stroke-width: 3px"/>
      <line x1="1245.92" y1="998.81" x2="1201.42" y2="998.81" style="fill: #b0f0ff;stroke: #000;stroke-miterlimit: 10;stroke-width: 3px"/>
      <line x1="1216.92" y1="943.81" x2="1216.92" y2="1026.81" style="fill: #b0f0ff;stroke: #000;stroke-miterlimit: 10;stroke-width: 3px"/>
      <line x1="1232.92" y1="942.24" x2="1232.92" y2="1026.81" style="fill: #b0f0ff;stroke: #000;stroke-miterlimit: 10;stroke-width: 3px"/>
    </g>
    <g>
      <rect x="67.8" y="442.81" width="41" height="50" style="fill: #ff7bac;stroke: #000;stroke-miterlimit: 10;stroke-width: 3px"/>
      <rect x="73.8" y="492.81" width="29" height="17" style="fill: #ff7bac;stroke: #000;stroke-miterlimit: 10;stroke-width: 3px"/>
      <rect x="79.8" y="509.81" width="17" height="61" style="fill: #ff7bac;stroke: #000;stroke-miterlimit: 10;stroke-width: 3px"/>
      <rect x="75.3" y="568.81" width="26" height="26" style="fill: #ff7bac;stroke: #000;stroke-miterlimit: 10;stroke-width: 3px"/>
      <rect x="70.3" y="594.81" width="36" height="25" style="fill: #ff7bac;stroke: #000;stroke-miterlimit: 10;stroke-width: 3px"/>
      <polygon points="99.3 619.81 73.3 619.81 69.3 867.81 67.3 908.4 61.3 1027.81 115.3 1027.81 106.3 908.81 106.3 870.49 99.3 619.81" style="fill: #ff7bac;stroke: #000;stroke-miterlimit: 10;stroke-width: 3px"/>
      <line x1="61.3" y1="870.81" x2="115.3" y2="870.81" style="fill: #ff7bac;stroke: #000;stroke-miterlimit: 10;stroke-width: 3px"/>
      <line x1="62.8" y1="799.81" x2="113.8" y2="799.81" style="fill: #ff7bac;stroke: #000;stroke-miterlimit: 10;stroke-width: 3px"/>
      <line x1="65.8" y1="788.81" x2="110.8" y2="788.81" style="fill: #ff7bac;stroke: #000;stroke-miterlimit: 10;stroke-width: 3px"/>
      <line x1="66.8" y1="772.81" x2="109.8" y2="772.81" style="fill: #ff7bac;stroke: #000;stroke-miterlimit: 10;stroke-width: 3px"/>
      <line x1="65.8" y1="757.81" x2="110.8" y2="757.81" style="fill: #ff7bac;stroke: #000;stroke-miterlimit: 10;stroke-width: 3px"/>
      <line x1="74.3" y1="500.11" x2="102.3" y2="500.11" style="fill: #ff7bac;stroke: #000;stroke-miterlimit: 10;stroke-width: 3px"/>
      <line x1="67.8" y1="478.07" x2="108.8" y2="478.07" style="fill: #ff7bac;stroke: #000;stroke-miterlimit: 10;stroke-width: 3px"/>
      <line x1="68.3" y1="466.32" x2="108.3" y2="466.32" style="fill: #ff7bac;stroke: #000;stroke-miterlimit: 10;stroke-width: 3px"/>
      <line x1="68.3" y1="453.69" x2="108.3" y2="453.69" style="fill: #ff7bac;stroke: #000;stroke-miterlimit: 10;stroke-width: 3px"/>
      <rect x="79.3" y="418.81" width="18" height="24" style="fill: #ff7bac;stroke: #000;stroke-miterlimit: 10;stroke-width: 3px"/>
      <line x1="88.3" y1="416.81" x2="88.3" y2="268.81" style="fill: #ff7bac;stroke: #000;stroke-miterlimit: 10;stroke-width: 2px"/>
      <line x1="82.8" y1="300.31" x2="93.8" y2="300.31" style="fill: #ff7bac;stroke: #000;stroke-miterlimit: 10;stroke-width: 2px"/>
      <line x1="82.3" y1="326.31" x2="94.3" y2="326.31" style="fill: #ff7bac;stroke: #000;stroke-miterlimit: 10;stroke-width: 2px"/>
      <line x1="82.3" y1="351.31" x2="94.3" y2="351.31" style="fill: #ff7bac;stroke: #000;stroke-miterlimit: 10;stroke-width: 2px"/>
      <line x1="81.8" y1="388.31" x2="94.8" y2="388.31" style="fill: #ff7bac;stroke: #000;stroke-miterlimit: 10;stroke-width: 2px"/>
    </g>
  </g>  <g id="faceBody">
    <g>
      <path d="M691.5,674.62l-63-9s-44-26-52-51c-3.69-11.52-7.16-46-9.84-69-3.13-27-5.16-52-5.16-52s-4.55-46.62-7-60c-11-60,14-150,14-150s37,67,55,90c12.4,15.85,48,63,48,63l14,12,47-7,27,2,40,8s19-43.84,49-83c31.6-41.26,81.28-77.84,82-74,12,64-22,203-22,203v31l-3,19.71s3.55,56.6-3,66.29c-23,34-39,41-83,59-29.63,12.13-50,8-50,13s9,20,9,20l8,35,68-7,56-15,24-116,20-58s14-10,22-8-2,48-15,73c-10.24,19.7-18,80-18,80l-17,52-66,14-63,14,53,283,23,105s-107,2-194-4c-8.23-.56-44-41-39-51s26-357,31-362,22-50,22-50Z" style="fill: #fff;stroke: #000;stroke-miterlimit: 10;stroke-width: 3px"/>
      <path d="M764,1155.86s-4.5-20.24,7.5-22.24,26,0,26,0,13-4,16-1,7,2,12-1-37-237-37-237" style="fill: none;stroke: #000;stroke-miterlimit: 10;stroke-width: 3px"/>
      <path d="M639.56,1132.58s-29.09,18.86-17.12,23.92,23,.11,25-.88,12-.94,12,.06,16.5-.63,16.5-.63S654.61,1120.66,639.56,1132.58Z" style="fill: #fff;stroke: #000;stroke-miterlimit: 10;stroke-width: 3px"/>
      <path d="M867.31,1126.21s19,5.9,46.19,7.41c36,2,149-15.29,144-9-8,10-29,11-85,21s-103.79-13.38-103.79-13.38Z" style="fill: #fff;stroke: #000;stroke-miterlimit: 10;stroke-width: 3px"/>
      <path d="M671.5,754.62s-21,7-24,11-6,21-6,21-7,33-8,35-16,110-18,113-13,32-15,38-12,20-14,26-32,77-32,77,0,12,7,10,70-137,70-152,10-52,10-55,7-72,7-72l19-13" style="fill: #fff;stroke: #000;stroke-miterlimit: 10;stroke-width: 3px"/>
      <path d="M571,335.12s-5,69,0,86,12,61,12,61,15-15,33-22,58-10,58-10-55-41-69-55S571,335.12,571,335.12Z" style="fill: #f50"/>
      <path d="M835.68,455.74a9.28,9.28,0,0,1-5.43-15c11-13.35,25.15-41.41,27.75-46.62,4-8,47-54,53-59s-4,55-11,82c-3.49,13.48-9,30.84-12.47,46.29a9.28,9.28,0,0,1-13.18,6.32c-6.84-3.38-15.5-7.48-21.35-9.61A128.26,128.26,0,0,0,835.68,455.74Z" style="fill: #f50"/>
    </g>
  </g>  <g id="bell">
    <path d="M690,713s27,14,46,13,46-18,46-18" style="fill: none;stroke: #ff4200;stroke-miterlimit: 10;stroke-width: 6px"/>
    <g>
      <path d="M756.82,741.14a32.18,32.18,0,1,0,16.35,28A32.06,32.06,0,0,0,756.82,741.14Z" style="fill: #ffd400;stroke: #000;stroke-miterlimit: 10;stroke-width: 3px"/>
      <circle cx="738.6" cy="769.66" r="30.25" style="fill: #f50"/>
      <circle cx="735" cy="764.61" r="31.33" style="fill: #ffd400;stroke: #000;stroke-miterlimit: 10;stroke-width: 3px"/>
      <path d="M732.83,732.92s-.72-5,3.61-5,3.6,5.76,3.6,5.76" style="fill: none;stroke: #000;stroke-miterlimit: 10;stroke-width: 2px"/>
      <path d="M742.54,754.15a59.38,59.38,0,0,0,7.15-1l-.43-1.95a77.08,77.08,0,0,1-14.85,1.28c-8.75,0-13.22-2.46-13.27-2.49l-.49.87-.5.87a23.8,23.8,0,0,0,7.41,2.23v22.29c-3.95.36-7.73.78-8,.81l.22,2c.11,0,11.78-1.31,15.61-1.31s13.4,2.56,13.5,2.59l.52-1.93c-.23-.06-3.42-.91-6.87-1.63Zm-12,21.87V754.34c1.18.1,2.46.16,3.85.16,1.85,0,3.57,0,5.13-.13v21.85a27.18,27.18,0,0,0-4.15-.46C734.25,775.76,732.5,775.87,730.56,776Z" style="fill: #f50"/>
      <path d="M739.54,752.15a59.38,59.38,0,0,0,7.15-1l-.43-1.95a77.08,77.08,0,0,1-14.85,1.28c-8.75,0-13.22-2.46-13.27-2.49l-.49.87-.5.87a23.8,23.8,0,0,0,7.41,2.23v22.29c-3.95.36-7.73.78-8,.81l.22,2c.11,0,11.78-1.31,15.61-1.31s13.4,2.56,13.5,2.59l.52-1.93c-.23-.06-3.42-.91-6.87-1.63Zm-12,21.87V752.34c1.18.1,2.46.16,3.85.16,1.85,0,3.57,0,5.13-.13v21.85a27.18,27.18,0,0,0-4.15-.46C731.25,773.76,729.5,773.87,727.56,774Z" style="fill: #020202"/>
    </g>
  </g>  <g id="nose">
    <path d="M726.57,548.76c-3.83,1.15-13,3-7,8s9.47,9.3,11.75,13.5c2.38,4.4,2.48,7.41-1,11-2.83,2.92-15,1-15,1s12.46,5.61,18,6c5.91.43,21-5,21-5s-11.81-.54-15-4c-4.07-4.41-4.59-7.19-1-12,2.61-3.5,12.25-8.5,14.25-10.5S746.57,542.76,726.57,548.76Z"/>
  </g>  <g id="eyes">
    <g>
      <path d="M583.7,510.18s1.35,62.18,36.5,70.29S700,567,700,567s-27-39.2-58.12-48.66C609.71,508.52,583.7,510.18,583.7,510.18Z" style="fill: #03a3db;stroke: #000;stroke-miterlimit: 10"/>
      <path d="M643.18,530.46s-12.33,14.27-11,23.73,11,20.87,11,20.87,6-2.35,10-15.87S643.18,530.46,643.18,530.46Z"/>
      <path d="M901.2,510.72S899.85,572.9,864.71,581,785,567.49,785,567.49s27-39.2,58.12-48.66C875.2,509.05,901.2,510.72,901.2,510.72Z" style="fill: #03a3db;stroke: #000;stroke-miterlimit: 10"/>
      <path d="M839.86,531.46s12.32,14.27,11,23.73-11,20.87-11,20.87-6-2.35-10-15.87S839.86,531.46,839.86,531.46Z"/>
    </g>
  </g>  <g id="luckyItem">
    <g>
      <path d="M459.22,1094.43c-3.87-3.82-10.25-57.84-10.25-57.84s-21.59-14.18-29.89-27.82-8-21-11.34-24.28S368.83,980,368.83,980s-3.71-7-3.71-13-1.35-41.7-1.35-41.7-7.37-24.22-4-25.31,41.09-3.65,43.3-4.75,11.91-7.91,16.34-15.55,4.77-15.27,9.31-21.55c1.27-1.77-5.46-72.57-5.46-72.57s52.14,20.46,59.47,28.92c3.72,4.29,72.67-14.73,104.22-10.91s84.37,20.89,106,46,22.21,40.76,26.08,53.31a167.84,167.84,0,0,1,5.46,26.74h0L725.49,910s9.51-13.23,18.37-15.41,27.57-2.46,32,9-11,30.27-11,33,9.19,14.33,9.19,14.33l-14.31,8.46-11.07-11.46s-13.28,4.36-17.71,5.45-5.1,1.22-5.1,1.22-10,37.25-22.19,52.53-27.29,27.28-28.38,31.1c-.61,2.17-9.27,54-9.27,54l-61.66-1.09,1.09-20.19s-10.64,1.36-39.42-.27-40.17-3.1-40.17-3.1l-4,25Z"/>
      <path d="M468.52,1080.9c-3.78-3.77-11.32-50.65-11.32-50.65s-21-14-29.1-27.48-7.81-20.75-11.05-24-35.56-9.7-35.56-9.7-5.93-1.62-5.93-7.55V914.12s-3.23-6.47,0-7.54,35.57-6.47,37.72-7.55,10.78-16.16,15.09-23.71,14-16.7,14-18.86-9.7-59.81-9.7-59.81,46.88,23.71,51.73,26.4S545.3,808,576,811.74s86.22,15.62,107.23,40.41,28.56,41,32.34,53.35a118.26,118.26,0,0,1,4.31,25.86l12.93-1.61-3.77-15.63s4.85-9.7,13.47-11.85,20.48-3.78,24.79,7.54-9.7,20.48-9.7,23.17,10.78,15.63,10.78,15.63L759.77,954,749,942.68s-12.94,4.31-17.25,5.39-13.47,1.08-13.47,1.08-5.93,34.49-17.78,49.57-29.64,30.18-30.18,32.34-9.7,49.57-9.7,49.57h-48.5L610,1058s-10.78,7.54-38.8,5.93-51.73-4.31-51.73-4.31l-3.77,24.24Z" style="fill: #ffd7e9"/>
      <circle cx="455.58" cy="891.22" r="14.28" style="fill: #6d1f00;stroke: #000;stroke-miterlimit: 10;stroke-width: 3px"/>
      <path d="M511.36,853.77s30.17-12.4,49.57-12.4,58.2,10.78,58.2,10.78,8.62,2.16,10.78-2.69.54-10.78-2.7-13.48-44.72-11.85-66.28-12.93-56,12.4-56,12.4-8.08,8.08-4.85,14S511.36,853.77,511.36,853.77Z" style="fill: #fff;stroke: #000;stroke-miterlimit: 10;stroke-width: 3px"/>
      <path d="M741.45,915.74s1.08,10.78,4.85,10.78,10.78-10.78,10.78-12.94S752.23,910.89,741.45,915.74Z"/>
      <g>
        <circle cx="565.89" cy="767.18" r="66.58" style="fill: #ff5b00"/>
        <circle cx="565.38" cy="766.75" r="50.62" style="fill: #ffce00"/>
      </g>
    </g>
    <path d="M529.75,1091.82s-4,14.72,4.35,17.83,51.25-29.83,58.48-44.94-13.3-15.3-26.86-1.15S537.29,1077.92,529.75,1091.82Z" style="fill: #fff;stroke: #000;stroke-miterlimit: 10;stroke-width: 3px"/>
  </g><g id="luckyCaption">
    <text transform="translate(561.31 1272.52)" style="font-size: 64.3827896118164px;font-family: HiraMaruProN-W4-83pv-RKSJ-H, Hiragino Maru Gothic ProN"><tspan style="letter-spacing: -0.03599058496540004em"></tspan><tspan x="62.07" y="0" style="letter-spacing: -0.04900361568613886em"></tspan><tspan x="123.29" y="0" style="letter-spacing: -0.017987709131464157em"></tspan><tspan x="186.52" y="0" style="letter-spacing: -0.020004880560203397em"></tspan><tspan x="249.61" y="0"></tspan></text>
  </g>  <g id="weather">
    <g>
      <path d="M1277.16,239.93l4.76,9.65a1.91,1.91,0,0,0,1.43,1l10.65,1.54a1.91,1.91,0,0,1,1,3.25l-7.7,7.51a1.9,1.9,0,0,0-.55,1.68l1.82,10.61a1.9,1.9,0,0,1-2.76,2l-9.52-5a1.91,1.91,0,0,0-1.77,0l-9.52,5a1.9,1.9,0,0,1-2.76-2l1.81-10.61a1.87,1.87,0,0,0-.54-1.68l-7.71-7.51a1.91,1.91,0,0,1,1.06-3.25l10.64-1.54a1.92,1.92,0,0,0,1.44-1l4.76-9.65A1.9,1.9,0,0,1,1277.16,239.93Z" style="fill: #ff6d00"/>
      <path d="M1322.48,179.38l3.91,7.93a1.56,1.56,0,0,0,1.18.85l8.75,1.27a1.57,1.57,0,0,1,.86,2.67l-6.33,6.17a1.61,1.61,0,0,0-.45,1.38l1.5,8.71a1.56,1.56,0,0,1-2.27,1.65l-7.82-4.11a1.57,1.57,0,0,0-1.46,0l-7.82,4.11a1.56,1.56,0,0,1-2.27-1.65l1.5-8.71a1.58,1.58,0,0,0-.45-1.38L1305,192.1a1.56,1.56,0,0,1,.87-2.67l8.74-1.27a1.56,1.56,0,0,0,1.18-.85l3.91-7.93A1.56,1.56,0,0,1,1322.48,179.38Z" style="fill: #ff6d00"/>
      <path d="M1379.07,264.91l3.23,6.55a1.3,1.3,0,0,0,1,.7l7.22,1a1.29,1.29,0,0,1,.71,2.2l-5.22,5.1a1.24,1.24,0,0,0-.37,1.14l1.23,7.19a1.29,1.29,0,0,1-1.87,1.36l-6.46-3.4a1.33,1.33,0,0,0-1.2,0l-6.46,3.4a1.29,1.29,0,0,1-1.87-1.36l1.23-7.19a1.29,1.29,0,0,0-.37-1.14l-5.23-5.1a1.29,1.29,0,0,1,.72-2.2l7.22-1a1.28,1.28,0,0,0,1-.7l3.23-6.55A1.29,1.29,0,0,1,1379.07,264.91Z" style="fill: #ff6d00"/>
      <g>
        <path d="M1322.69,277.29c-1.91,42.47-32.82,80.91-75.77,80.91a80,80,0,0,1-80-80c0-39.88,28.7-80,66.88-86.05-1.1,0-8.25,0-9.35,0-53.47,0-90.27,50.36-90.27,103.83S1177.55,398,1231,398s102-39.28,96.82-101.95C1326.9,284.57,1323.36,281.9,1322.69,277.29Z" style="fill: #ff6d00"/>
        <path d="M1322.42,273.61A80,80,0,1,1,1229.93,191c-1.1,0-2.19-.06-3.3-.06a96.82,96.82,0,1,0,96.81,96.81A98,98,0,0,0,1322.42,273.61Z" style="fill: #ffec00;stroke: #ff6d00;stroke-miterlimit: 10"/>
      </g>
      <path d="M1275.57,235.4l4.77,9.65a1.89,1.89,0,0,0,1.43,1l10.64,1.54a1.91,1.91,0,0,1,1.06,3.25l-7.7,7.51a1.89,1.89,0,0,0-.55,1.68l1.82,10.61a1.9,1.9,0,0,1-2.76,2l-9.53-5a1.85,1.85,0,0,0-1.77,0l-9.52,5a1.9,1.9,0,0,1-2.76-2l1.82-10.61a1.92,1.92,0,0,0-.55-1.68l-7.7-7.51a1.91,1.91,0,0,1,1-3.25l10.65-1.54a1.91,1.91,0,0,0,1.43-1l4.76-9.65A1.9,1.9,0,0,1,1275.57,235.4Z" style="fill: #ffda00;stroke: #ff6d00;stroke-miterlimit: 10"/>
      <path d="M1320,175.79l3.91,7.93a1.56,1.56,0,0,0,1.18.85l8.75,1.27a1.56,1.56,0,0,1,.86,2.67l-6.33,6.17a1.59,1.59,0,0,0-.45,1.38l1.5,8.71a1.56,1.56,0,0,1-2.27,1.65l-7.82-4.12a1.63,1.63,0,0,0-1.46,0l-7.82,4.12a1.56,1.56,0,0,1-2.27-1.65l1.5-8.71a1.56,1.56,0,0,0-.45-1.38l-6.33-6.17a1.56,1.56,0,0,1,.87-2.67l8.74-1.27a1.56,1.56,0,0,0,1.18-.85l3.91-7.93A1.56,1.56,0,0,1,1320,175.79Z" style="fill: #ffda00;stroke: #ff6d00;stroke-miterlimit: 10"/>
      <path d="M1376.55,262.25l3.23,6.55a1.28,1.28,0,0,0,1,.7l7.23,1.05a1.29,1.29,0,0,1,.71,2.2l-5.22,5.1a1.24,1.24,0,0,0-.37,1.14l1.23,7.19a1.29,1.29,0,0,1-1.87,1.36l-6.46-3.39a1.27,1.27,0,0,0-1.2,0l-6.46,3.39a1.29,1.29,0,0,1-1.88-1.36l1.24-7.19a1.29,1.29,0,0,0-.37-1.14l-5.23-5.1a1.29,1.29,0,0,1,.72-2.2l7.22-1.05a1.28,1.28,0,0,0,1-.7l3.23-6.55A1.29,1.29,0,0,1,1376.55,262.25Z" style="fill: #ffda00;stroke: #ff6d00;stroke-miterlimit: 10"/>
    </g>
  </g>
<g id="generation">
  <text transform="translate(38.41 1285.15)" style="font-size: 65.69450378417969px;font-family: HiraKakuStd-W8-83pv-RKSJ-H, Hiragino Kaku Gothic Std"></text>
  <text transform="translate(219.15 1271.7)" style="font-size: 104.09490966796875px;font-family: MyriadPro-Regular, Myriad Pro"></text>
</g>  <g id="_5element" data-name="5element">
    <rect x="1201" y="1203" width="240" height="240" rx="8.78" style="fill: #5700ff;opacity: 0.5"/>
    <g>
      <path d="M1265.15,1278.24c2.08,3,7.68,11.85,8.88,14l-2.88,4c-1-2.56-3.76-7.77-6-11.77v38.75h-5v-39c-2.56,9.13-5.92,17.93-9.45,23.38a35.21,35.21,0,0,0-2.72-4.49c4.65-6.88,9.37-20.09,11.53-31.38h-9.93v-5h10.57v-17.85l6.49.48c-.08.48-.48.88-1.52,1v16.33h8.72v5h-8.72Zm37.47,16.74a84.34,84.34,0,0,0,3.12,11.85,37,37,0,0,0,6.8-10.25l5.61,1.92q-.24.72-1.44.72a43.64,43.64,0,0,1-9,12.17c2.4,4.72,5.2,7.37,8.57,7.37,2.4,0,3.28-2,3.76-9.61a10.86,10.86,0,0,0,3.76,2.56c-1,9.13-2.72,11.85-7.92,11.85-5-.08-8.81-3.28-11.85-8.89a63.18,63.18,0,0,1-14.57,8.49,24.55,24.55,0,0,0-3-3.52,53.32,53.32,0,0,0,15.53-9.21,87.06,87.06,0,0,1-4.16-15.45h-13.45c-.16,1.68-.32,3.36-.56,5a84.87,84.87,0,0,1,11.61,8.09l-3,3.76a76.25,76.25,0,0,0-9.37-7.12c-1.6,7.2-4.48,13.93-10.65,18.41a15.2,15.2,0,0,0-3.28-3.52c7.45-5.29,9.69-14.73,10.49-24.66h-5.45v-4.49h23c-1.84-11.93-2.64-26.18-2.72-41.47l6.48.4c-.08.56-.48,1-1.6,1.12a248.09,248.09,0,0,0,2.64,40h11.85a51.33,51.33,0,0,0-7.52-5l2.64-2.64a43.88,43.88,0,0,1,8.89,5.84l-1.68,1.84h6.48V1295ZM1273,1279.61l2.8-.16a96.76,96.76,0,0,0,5.69-8.25,58.12,58.12,0,0,0-8.73-8.33l2.32-2.88c.64.48,1.29,1,2,1.44a90.37,90.37,0,0,0,5.12-11.61l5.12,2.24c-.24.48-.8.64-1.6.64a106.21,106.21,0,0,1-5.92,11,42.12,42.12,0,0,1,3.84,3.85c2-3.45,3.92-6.89,5.28-9.77l5,2.48a1.94,1.94,0,0,1-1.68.64,204.69,204.69,0,0,1-11.69,18.26l8.73-.57a49.12,49.12,0,0,0-2.49-5.36l3.45-1.28a39.75,39.75,0,0,1,4.8,11.69l-3.68,1.6c-.16-.88-.4-1.92-.72-3-5.77.64-11.13,1.2-14.9,1.52a1.29,1.29,0,0,1-1,1Zm30.67-1c1.6-2.08,3.36-4.72,5.12-7.44a57.65,57.65,0,0,0-8.73-8.33l2.33-2.88,1.92,1.44a81.22,81.22,0,0,0,5.2-11.61l5.12,2.24c-.24.48-.8.64-1.6.64a93.14,93.14,0,0,1-6,11,43.79,43.79,0,0,1,3.92,3.93c2.08-3.45,3.93-6.89,5.29-9.77l4.88,2.48c-.16.4-.8.64-1.6.64a204.19,204.19,0,0,1-11.21,17.45c3-.16,6.08-.32,9.45-.56-.8-1.76-1.68-3.44-2.56-5l3.44-1.36c2.24,3.68,4.56,8.49,5.2,11.61l-3.6,1.76a36,36,0,0,0-1.12-3.68c-5.85.72-11.45,1.28-15.21,1.6a1.19,1.19,0,0,1-1.12,1l-1.77-5Z" style="fill: #fff"/>
      <path d="M1370.67,1249.26a2.14,2.14,0,0,1-1.69,1.2c7.85,10.89,22.34,21.62,34.91,27.06a22.88,22.88,0,0,0-3.44,4.81c-12.73-6.25-27.14-17.22-34.83-28-6.64,9.92-20,21.29-34,28.34a24.78,24.78,0,0,0-3.12-4.33c14.09-6.8,27.94-18.81,34.27-29.54Zm-38,45.72v-5.13h67.18V1295H1361.3l1,.32c-.24.56-.88.8-1.92.88a204,204,0,0,1-9.45,18.57c10.65-.24,23.06-.64,35.23-1a131.13,131.13,0,0,0-11.77-12l4.56-2.48c7.53,6.49,15.61,15.29,19.38,21.38l-4.81,3a56.4,56.4,0,0,0-3.92-5.6c-19.46,1-40.11,1.92-52.92,2.32a1.36,1.36,0,0,1-1.28,1.12l-2-6.41c3.36,0,7.28-.08,11.68-.24a172.48,172.48,0,0,0,9.53-19.85Zm13.7-20.66h38.83v5h-38.83Z" style="fill: #fff"/>
    </g>
  </g>
<g id="manekiPower">
  <text transform="translate(205.81 1456.78)" style="font-size: 121.63294982910156px;fill: #070707;font-family: MyriadPro-Regular, Myriad Pro">568,186</text>
  <ellipse cx="82.99" cy="1415.19" rx="49.5" ry="49.5"/>
  <polygon points="82.92 1378.7 99.5 1378.7 81.54 1414.62 99.5 1414.62 68.55 1454.33 83.19 1421.63 67.58 1422.06 82.92 1378.7" style="fill: #fff"/>
  <text text-anchor="middle" transform="translate(1320 1425.38)" style="font-size: 104.09490966796875px;font-family: MyriadPro-Regular, Myriad Pro">10</text>
</g><g id="tokenID">\
<text text-anchor="end" transform="translate(1400 130)" style="font-size: 100px;font-family: MyriadPro-Regular, Myriad Pro">127</text>
</g>  <g id="logo">
    <path d="M412.51,140.41l-34.29.33-.26-2-.63-.18a104.29,104.29,0,0,1-14.72-5.72l-6.77,1.86c-.39.11-1,.25-3.32.81-3.36.81-9,2.16-15.29,3.74l-10.12,2.54s-3.56-10.09-3.59-10.19c-8.45,2.14-19,3.94-27.51,3.94-6.05,0-10.75-.93-14.39-2.84-1.07-.56-2.33-1.25-3.68-2.09l-.9,4-36.89-4.45.16-1-28.76,8.94-2.28-3.49-17.92,10.06-3.65-7.14a56.94,56.94,0,0,1-17,2.6,34,34,0,0,1-16-3.76l-1,5.35-42.15-7L113,123c.36-3.14.68-8.21,1-15.11l-14.18.69c1,5.49,2.33,12,4,19.37l2.89,12.81-41.83,7.75L61.46,138c-1.72-5.28-3.28-13.16-4.79-24.07a213.34,213.34,0,0,1-2.21-27.48c0-12,1.43-21.08,4.36-27.81C64.76,45,75.72,43.57,80.15,43.57c6.68,0,13.58,3.14,21.71,9.88l.28.23L105.65,57l1.86-1.85C115,47.55,121.65,44,128.5,44a26.65,26.65,0,0,1,23.1,12.34l.16-1.75,10.41-.14h1.68c30.77,0,40.88,4.13,45.53,8.57L225.26,63c1.22-.41,2.52-.8,3.86-1.16a65.15,65.15,0,0,1,13.67-2.24c.91-.05,1.81-.07,2.68-.07,10.49,0,19.06,3.24,25.49,9.63q.6.6,1.17,1.23A43.53,43.53,0,0,1,288.77,61a47.66,47.66,0,0,1,14.08-2.21,43.39,43.39,0,0,1,13,2,39.18,39.18,0,0,1,4.72,1.84c.16-1.15.34-2.36.53-3.62l1.79-12.14,41.85,8.73-2.84,11.7c-.2.83-.39,1.64-.58,2.44,5.07-2,9.61-3.7,13.55-4.93l4.28-15.3,10.47,2.16c2.91.6,25,6.41,33.22,8.48l-1.53,21.43,13.1,2.19c5.27.87,9.86-3.72,9.86-3.72.29-.83,1.27-16.34,1.6-17.1,5.78-13.26,16.46-14.7,20.78-14.7,6.5,0,13.2,3,21.09,9.59L488,58l3.25,3c.59-.58,1.15-1.13,1.66-1.66,7.26-7.32,13.74-10.73,20.41-10.73,12.26,0,21.77,7.08,26.09,19.42a41.63,41.63,0,0,1,1.43,5,45.4,45.4,0,0,1,5-1.87A46,46,0,0,1,559.48,69,42,42,0,0,1,572.09,71a35,35,0,0,1,9.77,4.8l1-.76c8.11-6,18.49-9.1,30.88-9.1,10.36,0,19.45,2.39,27.07,7.12.84-1.54,1.75-3.08,2.71-4.62l5-8L685,75.07l30.1-15.29,5.54,8.45a108.18,108.18,0,0,1,8.83,15.55,48.93,48.93,0,0,1,4.48,19.9c0,10.81-2.82,19.88-8.39,26.95-6.51,8.33-16.15,12.74-27.86,12.74a37.7,37.7,0,0,1-16-3.38,35.11,35.11,0,0,1-14.48,3c-8.78,0-16.16-2.45-22-7.3l-.55.46c-8.13,6.62-18.24,10-30.08,10s-21.81-2.61-29.85-7.78c-8.42,2.55-21.74,5.24-31.78,5.24-5.87,0-10.45-.91-14-2.77-.15-.07-.29-.15-.43-.23l-.55,2.89-41.08-6.78,1.33-11.7c.34-3,.65-7.81.93-14.36l-13.24.65c.95,5.25,2.23,11.42,3.82,18.47l2.84,12.57-40.76,7.55-2.65-8.15L432,144.3ZM236.19,100.59a94.65,94.65,0,0,0,4.44,15.5l1.3,3.34.2-1.19a83.12,83.12,0,0,0,.94-17.53c0-.93-.11-1.69-.19-2.3A17.16,17.16,0,0,0,236.19,100.59ZM608.66,106a12.36,12.36,0,0,0,4.86.84,11.57,11.57,0,0,0,4.67-.76,13.87,13.87,0,0,0-5.55-.92A7.61,7.61,0,0,0,608.66,106ZM679,88.07A42.34,42.34,0,0,0,674.9,95l14.64-.81c-.87-1.25-2-2.84-3.44-4.86l-4-5.54Z" style="fill: #0702b0"/>
    <path d="M401.41,92.58s16.63,9.5,28.33,8.82,28.32-12.21,28.32-12.21" style="fill: none;stroke: #ff2000;stroke-miterlimit: 10;stroke-width: 6px"/>
    <path d="M383.35,129.21c-.61-4.59-.66-12.3-.16-23.56a241,241,0,0,1,2.07-24.37l.05-.32-7.94-1.76L384,55.66l5.29,1.08c3.39.69,10.4,2.39,21.41,5.17l5.75,1.46L412.13,79.1l1.33.17-.92,5.88c-1.61,10.22-2.41,24.74-2.38,43.15v5.76L384,134.3Z" style="fill: #0702b0"/>
    <path d="M409.29,67.54l-3.31,12-21.35-4.71,3.51-12.43Q393,63.44,409.29,67.54Zm-4.94,60.77-15.24.14q-.84-6.31-.12-22.54a236.41,236.41,0,0,1,2-23.73l15.8,2.07Q404.31,100.1,404.35,128.31Z" style="fill: url(#Sky_2)"/>
    <path d="M387.08,113.63l-5.81,13.23a98.76,98.76,0,0,1-15.54-6.21q-7.51-3.7-14.93-7.52.6,3.3,2.5,9.82c-.73.2-8.85,2.09-18.54,4.49-4.14-11.62-5-24.44-5-36.66,0-9.56,1.16-18,3-30.67l18.42,3.81Q346.69,82.35,347,89.58q4-3.42,16.64-8.62a163.15,163.15,0,0,1,17.54-6.32L387,88l-14.83,4.61q-11.13,4-14.24,8,3.81,2.7,13.94,7.12A152.18,152.18,0,0,0,387.08,113.63Z" style="fill: url(#Sky_2-2)"/>
    <path d="M296,129.19c-5.15,0-9-.71-11.84-2.18-7.06-3.68-14.77-9.06-18.47-21.09-2.73-8.87-1.22-17.44,4.5-25.49a37.72,37.72,0,0,1,20.21-14.5,42.69,42.69,0,0,1,12.5-2,38.5,38.5,0,0,1,11.41,1.73c9.31,2.94,15.61,9,18.26,17.65,1.7,5.54,1.44,10.63-.79,15.12l-.07.14a18,18,0,0,1-2.68,3.77l4,19.93-5,1.54C319.64,126.43,306.06,129.19,296,129.19Z" style="fill: #0702b0"/>
    <path d="M327,85.07q1.89,6.14-.45,10.83t-8.68,6.55q-7.75,2.39-30.29,3.13c7.43,7.08,27.22,1.48,35.91-1.19l2.81,13.92c-10.35,3.19-32.14,7.37-39.48,3.55-6.85-3.57-12.63-8-15.6-17.64q-3.27-10.64,3.68-20.43a31.94,31.94,0,0,1,17.19-12.31,34.07,34.07,0,0,1,20.49-.22Q323.83,74.82,327,85.07Zm-14.67,3.46c-.67-2.17-2.64-3.48-5.93-3.94a19.87,19.87,0,0,0-18.55,8.22q20.1-1.14,23.45-2.18c.7-.21,1.12-.45,1.25-.7S312.55,89.3,312.31,88.53Z" style="fill: url(#Sky_2-3)"/>
    <path d="M210.76,127.16c-3.32-5-5.95-12-8-21.34a126.14,126.14,0,0,1-3.08-21.49c-.1-2-.06-5.4.1-10.43l.19-5.6,25.58-.08c1.36-.49,2.81-.94,4.38-1.35a60.11,60.11,0,0,1,12.62-2.06c10.13-.51,18.23,2.15,24.06,7.9s8.83,13.49,9.33,23.43a98.92,98.92,0,0,1-2.49,26.46l-1.14,5.12-26-3.11,1-6a87.67,87.67,0,0,0,1-18.78C248.05,94.4,247,93,247,93l-.09-.13c-.46-.64-2.07-1-4.2-.86-4.57.23-9,2-13.55,5.25a105.08,105.08,0,0,0,5.5,20.41l2.3,5.83-23.8,7.33Z" style="fill: #0702b0"/>
    <path d="M270.12,96.43a92.78,92.78,0,0,1-2.35,24.91L253,119.57a92.78,92.78,0,0,0,1.1-20q-.36-7.31-2.52-10.11-2.58-3.57-9.19-3.25-10,.51-19.54,8.62a114.62,114.62,0,0,0,6.38,25L215.61,124q-4.35-6.61-7.2-19.41A119.62,119.62,0,0,1,205.46,84q-.14-2.7.11-9.94l15,0,.16,3.3q3.57-3,10.7-4.85a54.1,54.1,0,0,1,11.45-1.88q12.71-.64,19.68,6.23T270.12,96.43Z" style="fill: url(#linear-gradient)"/>
    <path d="M189.47,129.88a52.37,52.37,0,0,1-20,4,28.22,28.22,0,0,1-19.68-7.51,25.59,25.59,0,0,1-8.41-19.49c0-10.12,3.77-18.18,11.21-24l1.11-.82,1.94-22.27,5.25-.07h1.62c36.34,0,41.22,5.95,42.83,7.9,5.2,6.33,4.3,23.63,3.64,31.08v9.06c0,3.19,1.11,6.91,3.3,11l2.67,5-22.26,12.38Z" style="fill: #0702b0"/>
    <path d="M207.19,121.52l-12,6.7-3.08-6A47.41,47.41,0,0,1,169.51,128a22.48,22.48,0,0,1-15.76-6,19.88,19.88,0,0,1-6.52-15.21q0-12.4,9-19.38c5.43-4.23,12.49-5.64,21.1-6.34A27.26,27.26,0,0,1,192,83.89l.12,14.43c-3.8-1.75-11-3.7-14.79-3.7q-6.88,0-11.23,2.9a11.19,11.19,0,0,0-5,9.78,6.43,6.43,0,0,0,2.35,5,7.67,7.67,0,0,0,5.35,2.18q10,0,15.76-4.71t6.07-13.41s2.18-13.25-.23-16.65C186,73.52,160,77.59,160,77.59l1-12.07s34.77-.45,39.88,5.78c4.32,5.26,2.32,27.12,2.32,27.12v9.33Q203.21,114,207.19,121.52Z" style="fill: url(#Sky_2-4)"/>
    <path d="M64.72,135.63c-1.62-4.95-3.13-12.5-4.6-23.06a205.33,205.33,0,0,1-2.18-26.68c0-11.16,1.28-19.49,3.91-25.47C66.31,50.31,73.92,48.8,78.07,48.8c5.33,0,11.12,2.72,18.23,8.56l.15.12,7.44,6.86c2.27-2.15,4.25-4.07,5.9-5.72,6.38-6.38,11.81-9.36,17.08-9.36,10.26,0,17.94,5.72,21.61,16.11,2,5.52,3,13,3,22.74,0,18.22-.8,31.31-2.46,40l-1.23,6.49-31.51-5.15L117,123c.52-4.56,1-12.88,1.36-24.73,0-.25,0-.5,0-.75l-2.53,3.72-21.33,1-2.17-2.68c-.69-.87-1.34-1.65-2-2.36.65,5.89,2.28,15.54,5.88,31.35l1.58,6.9-31.28,5.74Z" style="fill: #0702b0"/>
    <path d="M149.89,87.53q0,26.44-2.34,38.73l-18.61-3q.81-7.14,1.4-25.28.58-19.18-.11-19.19-2.46,0-12.88,15.33l-14.51.7q-9.24-11.46-13-11.46-1.41,0-1.41,7.6,0,10.42,6.44,38.62l-18.49,3.39q-2.22-6.78-4.33-21.88A197.86,197.86,0,0,1,70,85.3Q70,55,83.29,55q5.38,0,13.93,7l11.94,11q6.56-6.09,10.65-10.18,7.38-7.38,12.29-7.38,11.11,0,15.21,11.59Q149.89,74.19,149.89,87.53Z" style="fill: url(#Sky_2-5)"/>
    <path d="M701.4,137a31.56,31.56,0,0,1-16.16-4.09,29.57,29.57,0,0,1-14.66,3.76c-10,0-17.7-3.59-23-10.67l0,0C643.21,120,641,112.34,641,103.1c0-10.2,3.57-21,10.63-32.15L654.14,67l28,11.18L677.86,84a50.08,50.08,0,0,0-5.78,10.26,27.58,27.58,0,0,0-2.44,10,7.76,7.76,0,0,0,.94,4.05l.06.09.06.1a2.61,2.61,0,0,0,.44.62,1,1,0,0,0,.09-.15,6,6,0,0,0,.72-3.15v-5.31l23.65-1.3,1.42,3.91c1.27,3.48,2.86,5.74,4.05,5.74.23,0,.72,0,1.59-1.1a4.4,4.4,0,0,0,1.11-2.94,19.81,19.81,0,0,0-2.52-9.73c-.27-.47-1.5-2.46-6.83-9.82L690.56,80,717,66.7l2.75,4.15a101.62,101.62,0,0,1,8.43,14.68,42.73,42.73,0,0,1,4,17.57c0,9.47-2.42,17.32-7.2,23.34C719.45,133.43,711.52,137,701.4,137Z" style="fill: #0702b0"/>
    <path d="M726.57,103.1q0,12.32-6,19.85-6.65,8.43-19.18,8.42-9.54,0-16.08-5.21A24,24,0,0,1,670.58,131q-12.21,0-18.52-8.42-5.43-7.43-5.43-19.52,0-13.74,9.75-29.15l17,6.76a54.66,54.66,0,0,0-6.43,11.42A32.59,32.59,0,0,0,664,104.32a13,13,0,0,0,1.78,7,6.13,6.13,0,0,0,5.54,3.55A5.32,5.32,0,0,0,676,112a11.53,11.53,0,0,0,1.55-6.09l14.19-.78q3.43,9.42,9.32,9.42a7.48,7.48,0,0,0,6-3.21,10,10,0,0,0,2.33-6.43,25.55,25.55,0,0,0-3.21-12.42q-1.11-2-7.21-10.42L715,74a98.39,98.39,0,0,1,8,13.85A37.22,37.22,0,0,1,726.57,103.1Z" style="fill: url(#New_Gradient_Swatch_2)"/>
    <path d="M455.32,137.28c-1.57-4.78-3-12.06-4.45-22.26a199.7,199.7,0,0,1-2.09-25.77c0-10.77,1.23-18.81,3.77-24.58,4.3-9.77,11.66-11.23,15.66-11.23,5.14,0,10.74,2.63,17.6,8.27l.15.12,7.18,6.62c2.2-2.08,4.1-3.93,5.7-5.52,6.16-6.17,11.4-9,16.49-9,9.91,0,17.32,5.53,20.87,15.55,1.92,5.33,2.86,12.53,2.86,22,0,17.6-.78,30.23-2.38,38.63l-1.19,6.26-30.42-5,.71-6.2c.5-4.4.94-12.43,1.31-23.87l0-.73-2.45,3.59-20.6,1L482,102.52c-.67-.84-1.3-1.6-1.88-2.29.63,5.69,2.19,15,5.68,30.28l1.52,6.66-30.2,5.55Z" style="fill: #0702b0"/>
    <path d="M532.51,91.4q0,25.55-2.26,37.4l-18-2.93q.79-6.9,1.36-24.41.55-18.54-.12-18.53-2.37,0-12.43,14.8l-14,.68q-8.93-11.07-12.54-11.08-1.37,0-1.36,7.35,0,10,6.22,37.29l-17.86,3.28q-2.15-6.56-4.18-21.14a191.24,191.24,0,0,1-2-24.86Q455.32,60,468.21,60q5.19,0,13.45,6.78l11.52,10.62q6.33-5.88,10.29-9.83,7.11-7.12,11.86-7.12,10.74,0,14.69,11.19Q532.51,78.52,532.51,91.4Z" style="fill: url(#New_Gradient_Swatch_2-2)"/>
    <path d="M617.45,139.79c-11.06,0-20.34-2.44-27.61-7.26-9.1-6.13-13.7-15-13.7-26.51S580.45,85.37,589,79.11c7.16-5.29,16.49-8,27.72-8,10.56,0,19.58,2.68,26.81,8l0,0c8.41,6.26,12.68,15,12.68,25.89s-4.06,19.6-12.06,26.09C637,136.87,628,139.79,617.45,139.79Zm-1.89-41a12.62,12.62,0,0,0-7.59,2,5.57,5.57,0,0,0-2.55,5.09c0,1.64.45,3,2.61,4.22a16.81,16.81,0,0,0,8.42,1.92,15.67,15.67,0,0,0,8.34-1.92,5,5,0,0,0,2.79-4.78c0-1.52-.36-3.14-3-4.65A18.44,18.44,0,0,0,615.56,98.77Z" style="fill: #0702b0"/>
    <path d="M650.6,105q0,13.64-10,21.73-9.21,7.42-23.17,7.43-15,0-24.51-6.32-11.19-7.55-11.2-21.84,0-14.64,10.54-22.4,9.32-6.87,24.39-6.87,14.08,0,23.51,6.87Q650.59,91.39,650.6,105Zm-17.41.33q0-6.21-5.88-9.53a23.82,23.82,0,0,0-11.75-2.66,18.13,18.13,0,0,0-10.86,3.1,11.11,11.11,0,0,0-4.88,9.65,9.9,9.9,0,0,0,5.43,9.09,22.26,22.26,0,0,0,11.2,2.66q6.87,0,11.31-2.77A10.57,10.57,0,0,0,633.19,105.35Z" style="fill: url(#New_Gradient_Swatch_2-3)"/>
    <path d="M555.23,137.24c-5,0-8.71-.69-11.43-2.11-6.81-3.55-14.25-8.74-17.83-20.36-2.63-8.57-1.17-16.85,4.34-24.62a36.53,36.53,0,0,1,19.52-14,41,41,0,0,1,12.07-1.88,37.23,37.23,0,0,1,11,1.67c9,2.84,15.07,8.73,17.63,17,1.64,5.34,1.38,10.25-.77,14.59l-.07.14a17,17,0,0,1-2.58,3.64L591,130.6l-4.86,1.49C578.11,134.57,565,137.24,555.23,137.24Z" style="fill: #0702b0"/>
    <path d="M585.19,94.63q1.81,5.93-.43,10.46t-8.38,6.33q-7.5,2.31-29.25,3c7.17,6.84,26.28,1.43,34.67-1.15l2.71,13.44c-10,3.08-31,7.12-38.12,3.43-6.61-3.45-12.19-7.73-15.06-17q-3.15-10.26,3.55-19.72a30.88,30.88,0,0,1,16.6-11.89,32.92,32.92,0,0,1,19.78-.21Q582.14,84.74,585.19,94.63ZM571,98q-1-3.15-5.73-3.81a19.19,19.19,0,0,0-17.91,7.94Q566.79,101,570,100a2.1,2.1,0,0,0,1.21-.68A2.7,2.7,0,0,0,571,98Z" style="fill: url(#New_Gradient_Swatch_2-4)"/>
    <g>
      <g>
        <g>
          <g>
            <path d="M475.38,131.52c-1.25-1.47-4.4-2.48-9.09-2.73a39.8,39.8,0,0,0-73.23,28.47c-6.79,6.28-10.55,12.31-7.68,15.68,2.53,3,11.43,2.58,16.53,2.08a39.79,39.79,0,0,0,69.43-32C474.54,140.68,479.31,136.14,475.38,131.52Z" style="fill: #ffd404"/>
            <path d="M428.46,192.46A43.35,43.35,0,0,1,400.35,179c-14,1.05-16.89-2.41-17.89-3.58-2.81-3.31-3.85-9.34,6.46-19.5a43.23,43.23,0,0,1-.41-10.48,43.62,43.62,0,0,1,80-20.31c4.71.5,8,1.81,9.78,3.91a9.28,9.28,0,0,1,2.32,7.22c-.42,3.44-2.79,6.3-5.21,8.39a43,43,0,0,1,.07,7.86A43.67,43.67,0,0,1,428.46,192.46ZM403.51,171l1.29,1.5a36,36,0,0,0,63.06-20.63,36.46,36.46,0,0,0-.3-8.34l-.35-2.31,1.9-1.37c2.72-2,3.8-3.63,3.91-4.54,0-.17.08-.58-.54-1.31-.35-.32-2.15-1.18-6.4-1.41L464,132.5l-1-1.77a36,36,0,0,0-66.18,25.73l.78.47-1.77,2.93c-7.38,6.83-7.75,10.34-7.53,10.6.55.49,4.06,1.65,13.24.75Z" style="fill: #0000b2"/>
          </g>
          <path d="M394.17,161.26l-3.3-6.44c.48-.52,11.85-12.95,33.08-20.73a170.54,170.54,0,0,1,41.71-9.21l.55,7.63a128.59,128.59,0,0,0-39.5,7.24C407.36,146.84,394.27,161.15,394.17,161.26Z" style="fill: #0000b2"/>
        </g>
        <g>
          <path d="M430,165.64a42.83,42.83,0,0,0,4.38,9.32,10.72,10.72,0,1,0-6.37,1.33,48.44,48.44,0,0,1-3.85-8.84Z" style="fill: #0000b2"/>
          <path d="M447.69,181.81l.12-.1s-2.21,1.62-7.58-.91c-2.22-1.05-4.19-3.32-5.81-5.84a10.61,10.61,0,0,1-6.15,1.36l-.22,0c2.22,3.92,5.38,8.07,9.57,10a19.68,19.68,0,0,0,6.85,2c4.73.39,7.15-1.78,7.5-2.12Z" style="fill: #0000b2"/>
          <path d="M434.42,175a42.83,42.83,0,0,1-4.38-9.32l-5.84,1.81a48.44,48.44,0,0,0,3.85,8.84l.22,0A10.61,10.61,0,0,0,434.42,175Z" style="fill: #0000b2"/>
        </g>
      </g>
      <circle cx="423.61" cy="103.73" r="6.89" style="fill: #0000b2"/>
    </g>
  </g>
  <defs>
    <linearGradient id="Sky_2" data-name="Sky 2" x1="406.87" y1="58.34" x2="378.85" y2="155.96" gradientUnits="userSpaceOnUse">
      <stop offset="0" stop-color="#c6e0f5"/>
      <stop offset="0.06" stop-color="#bdddf4"/>
      <stop offset="0.15" stop-color="#a3d4f1"/>
      <stop offset="0.28" stop-color="#7ac7eb"/>
      <stop offset="0.42" stop-color="#40b3e4"/>
      <stop offset="0.57" stop-color="#009edc"/>
      <stop offset="0.87" stop-color="#0077c3"/>
      <stop offset="0.99" stop-color="#005d9b"/>
    </linearGradient>
    <linearGradient id="Sky_2-2" x1="361.62" y1="50.01" x2="354.97" y2="154.01" xlink:href="#Sky_2"/>
    <linearGradient id="Sky_2-3" x1="316.67" y1="61.44" x2="282.63" y2="143.26" xlink:href="#Sky_2"/>
    <linearGradient id="linear-gradient" x1="238.54" y1="60.55" x2="236.14" y2="160.36" gradientUnits="userSpaceOnUse">
      <stop offset="0" stop-color="#c6e0f5"/>
      <stop offset="0.06" stop-color="#bdddf4"/>
      <stop offset="0.15" stop-color="#a3d4f1"/>
      <stop offset="0.28" stop-color="#7ac7eb"/>
      <stop offset="0.42" stop-color="#40b3e4"/>
      <stop offset="0.57" stop-color="#009edc"/>
      <stop offset="0.87" stop-color="#0077c3"/>
    </linearGradient>
    <linearGradient id="Sky_2-4" x1="179.56" y1="61.4" x2="176.38" y2="132.23" xlink:href="#Sky_2"/>
    <linearGradient id="Sky_2-5" x1="98.28" y1="49.18" x2="128.81" y2="163.35" xlink:href="#Sky_2"/>
    <radialGradient id="New_Gradient_Swatch_2" data-name="New Gradient Swatch 2" cx="776.17" cy="46.5" r="423.59" gradientTransform="translate(0 -0.42)" gradientUnits="userSpaceOnUse">
      <stop offset="0" stop-color="#fff700"/>
      <stop offset="0.06" stop-color="#ffea00"/>
      <stop offset="0.24" stop-color="#ffc800"/>
      <stop offset="0.42" stop-color="#ffad00"/>
      <stop offset="0.61" stop-color="#ff9a00"/>
      <stop offset="0.8" stop-color="#ff8f00"/>
      <stop offset="1" stop-color="#ff8b00"/>
    </radialGradient>
    <radialGradient id="New_Gradient_Swatch_2-2" cx="514.22" cy="57.74" r="243.37" xlink:href="#New_Gradient_Swatch_2"/>
    <radialGradient id="New_Gradient_Swatch_2-3" cx="594.62" cy="68.98" r="233.37" xlink:href="#New_Gradient_Swatch_2"/>
    <radialGradient id="New_Gradient_Swatch_2-4" cx="581.66" cy="56.88" r="327.4" xlink:href="#New_Gradient_Swatch_2"/>
  </defs></svg>