<svg xmlns="http://www.w3.org/2000/svg" xmlns:xlink="http://www.w3.org/1999/xlink" viewBox="0 0 1500 1500">  <g id="sky">
<rect width="1500" height="1499.86" style="fill: #debf8c"/>
</g>  <g id="pattern">
<g style="opacity: 0.18">
  <path d="M1394.41,997.42a125,125,0,0,0,105.27-120.95l0-2.36h0v-.23h0l0-2.37a125,125,0,0,0-114.14-122,124.94,124.94,0,0,0,114.14-122l0-2.36h0v-.23h0l0-2.37a125,125,0,0,0-122.46-122.46l-2.36-.05h-.23l-2.37.05a125,125,0,0,0-122.39,120.32,125,125,0,0,0-122.4-120.32l-2.36-.05h-.23l-2.37.05a125,125,0,0,0-122.39,120.32,125,125,0,0,0-122.4-120.32l-2.36-.05h-.23l-2.37.05A125,125,0,0,0,750.37,620.37,125,125,0,0,0,628,500.05l-2.36-.05h-.23l-2.37.05A125,125,0,0,0,500.62,620.37a125,125,0,0,0-122.4-120.32l-2.36-.05h-.24l-2.36.05A125,125,0,0,0,250.87,620.37a125,125,0,0,0-122.4-120.32l-2.36-.05h-.23l-2.37.05A125,125,0,0,0,1.05,622.51L1,624.88H1v.23H1l.05,2.36a125,125,0,0,0,114.14,122,125,125,0,0,0-114.14,122L1,873.88H1v.23H1l.05,2.36a125,125,0,0,0,106.28,121.1A125,125,0,0,0,2.05,1118.51l0,2.37H2v.23H2l0,2.36a125,125,0,0,0,114.14,122,125,125,0,0,0-114.14,122l0,2.37H2v.23H2l0,2.36a125,125,0,0,0,122.46,122.47l2.37,0h.23l2.36,0a125,125,0,0,0,122.4-120.32,125,125,0,0,0,122.39,120.32l2.36,0h.24l2.36,0a125,125,0,0,0,122.4-120.32A125,125,0,0,0,624,1494.94l2.37,0h.23l2.36,0a125,125,0,0,0,122.4-120.32,125,125,0,0,0,122.39,120.32l2.37,0h.23l2.36,0a125,125,0,0,0,122.4-120.32,125,125,0,0,0,122.39,120.32l2.37,0h.23l2.36,0a125,125,0,0,0,122.4-120.32,125,125,0,0,0,122.39,120.32l2.37,0h.23l2.36,0A125,125,0,0,0,1500,1383.31v-26.63a125,125,0,0,0-113.46-111.19A125,125,0,0,0,1500,1134.31v-26.63a125,125,0,0,0-105.59-110.26Zm65.16-38.6a119.31,119.31,0,0,1-79.82,35A120,120,0,0,1,1494.61,879,119.31,119.31,0,0,1,1459.57,958.82Zm-48.32-48.32a124.31,124.31,0,0,0-36.51,83.74A124.94,124.94,0,0,0,1254.49,874a124.94,124.94,0,0,0,120.25-120.25A124.94,124.94,0,0,0,1495,874,124.31,124.31,0,0,0,1411.25,910.5Zm-248.75,247a124.31,124.31,0,0,0-36.51,83.74A124.94,124.94,0,0,0,1005.74,1121,124.94,124.94,0,0,0,1126,1000.74,124.94,124.94,0,0,0,1246.24,1121,124.31,124.31,0,0,0,1162.5,1157.5Zm83.36-31.5A120,120,0,0,1,1131,1240.86,120,120,0,0,1,1245.86,1126Zm-35,159.16a119.35,119.35,0,0,1,35,79.82A120,120,0,0,1,1131,1250.13,119.34,119.34,0,0,1,1210.82,1285.16Zm-89.84-44.3A120,120,0,0,1,1006.13,1126,120,120,0,0,1,1121,1240.86ZM912.75,1157.5a124.31,124.31,0,0,0-36.51,83.74A124.94,124.94,0,0,0,756,1121a124.94,124.94,0,0,0,120.25-120.25A124.94,124.94,0,0,0,996.49,1121,124.31,124.31,0,0,0,912.75,1157.5Zm83.36-31.5a120,120,0,0,1-114.86,114.86A120,120,0,0,1,996.11,1126Zm-35,159.16a119.35,119.35,0,0,1,35,79.82,120,120,0,0,1-114.86-114.85A119.34,119.34,0,0,1,961.07,1285.16Zm-89.84-44.3A120,120,0,0,1,756.38,1126a120,120,0,0,1,114.85,114.86ZM663,1157.5a124.31,124.31,0,0,0-36.51,83.74A124.94,124.94,0,0,0,506.24,1121a124.94,124.94,0,0,0,120.25-120.25A124.94,124.94,0,0,0,746.74,1121,124.31,124.31,0,0,0,663,1157.5Zm83.36-31.5A120,120,0,0,1,631.5,1240.86,120,120,0,0,1,746.36,1126Zm-35,159.16a119.35,119.35,0,0,1,35,79.82A120,120,0,0,1,631.5,1250.13,119.34,119.34,0,0,1,711.32,1285.16Zm-89.84-44.3A120,120,0,0,1,506.63,1126a120,120,0,0,1,114.85,114.86ZM413.25,1157.5a124.31,124.31,0,0,0-36.51,83.74A124.94,124.94,0,0,0,256.49,1121a124.94,124.94,0,0,0,120.25-120.25A124.94,124.94,0,0,0,497,1121,124.31,124.31,0,0,0,413.25,1157.5Zm83.36-31.5a120,120,0,0,1-114.86,114.86A120,120,0,0,1,496.61,1126Zm-35,159.16a119.35,119.35,0,0,1,35,79.82,120,120,0,0,1-114.86-114.85A119.34,119.34,0,0,1,461.57,1285.16Zm-89.84-44.3A120,120,0,0,1,256.88,1126a120,120,0,0,1,114.85,114.86ZM215.36,1032.63a124.29,124.29,0,0,0-69.7-35.21,125,125,0,0,0,105.21-118.8,125,125,0,0,0,106.21,119,125,125,0,0,0-105.21,118.8A124.29,124.29,0,0,0,215.36,1032.63Zm31.5,83.35A120,120,0,0,1,132,1001.13,120,120,0,0,1,246.86,1116ZM131,993.86A120,120,0,0,1,245.86,879,120,120,0,0,1,131,993.86ZM339.23,837.48a124.27,124.27,0,0,0,36.51-83.74A124.94,124.94,0,0,0,496,874,124.94,124.94,0,0,0,375.74,994.24,124.94,124.94,0,0,0,255.49,874,124.29,124.29,0,0,0,339.23,837.48ZM255.88,869A120,120,0,0,1,370.73,754.13,120,120,0,0,1,255.88,869Zm35-159.16a119.34,119.34,0,0,1-35-79.82A120,120,0,0,1,370.73,744.86,119.33,119.33,0,0,1,290.91,709.82Zm89.84,44.31A120,120,0,0,1,495.61,869,120,120,0,0,1,380.75,754.13ZM495.61,879A120,120,0,0,1,380.75,993.86,120,120,0,0,1,495.61,879ZM371.73,1001.13A120,120,0,0,1,256.88,1116a120,120,0,0,1,114.85-114.85Zm-1-7.27A120,120,0,0,1,255.88,879,120,120,0,0,1,370.73,993.86Zm11,7.27A120,120,0,0,1,496.61,1116a120,120,0,0,1-114.86-114.85Zm83.36,31.5a124.29,124.29,0,0,0-69.7-35.21,125,125,0,0,0,105.21-118.8,125,125,0,0,0,106.21,119,125,125,0,0,0-105.21,118.8A124.29,124.29,0,0,0,465.11,1032.63ZM589,837.48a124.27,124.27,0,0,0,36.51-83.74A124.94,124.94,0,0,0,745.74,874,124.94,124.94,0,0,0,625.49,994.24,124.94,124.94,0,0,0,505.24,874,124.29,124.29,0,0,0,589,837.48ZM505.63,869A120,120,0,0,1,620.48,754.13,120,120,0,0,1,505.63,869Zm35-159.16a119.34,119.34,0,0,1-35-79.82A120,120,0,0,1,620.48,744.86,119.33,119.33,0,0,1,540.66,709.82Zm89.84,44.31A120,120,0,0,1,745.36,869,120,120,0,0,1,630.5,754.13ZM745.36,879A120,120,0,0,1,630.5,993.86,120,120,0,0,1,745.36,879ZM621.48,1001.13A120,120,0,0,1,506.63,1116a120,120,0,0,1,114.85-114.85Zm-1-7.27A120,120,0,0,1,505.63,879,120,120,0,0,1,620.48,993.86Zm11,7.27A120,120,0,0,1,746.36,1116,120,120,0,0,1,631.5,1001.13Zm83.36,31.5a124.29,124.29,0,0,0-69.7-35.21,125,125,0,0,0,105.21-118.8,125,125,0,0,0,106.21,119,125,125,0,0,0-105.21,118.8A124.29,124.29,0,0,0,714.86,1032.63ZM838.73,837.48a124.27,124.27,0,0,0,36.51-83.74A124.94,124.94,0,0,0,995.49,874,124.94,124.94,0,0,0,875.24,994.24,124.94,124.94,0,0,0,755,874,124.29,124.29,0,0,0,838.73,837.48ZM755.38,869A120,120,0,0,1,870.23,754.13,120,120,0,0,1,755.38,869Zm35-159.16a119.34,119.34,0,0,1-35-79.82A120,120,0,0,1,870.23,744.86,119.33,119.33,0,0,1,790.41,709.82Zm89.84,44.31A120,120,0,0,1,995.11,869,120,120,0,0,1,880.25,754.13ZM995.11,879A120,120,0,0,1,880.25,993.86,120,120,0,0,1,995.11,879ZM871.23,1001.13A120,120,0,0,1,756.38,1116a120,120,0,0,1,114.85-114.85Zm-1-7.27A120,120,0,0,1,755.38,879,120,120,0,0,1,870.23,993.86Zm11,7.27A120,120,0,0,1,996.11,1116a120,120,0,0,1-114.86-114.85Zm83.36,31.5a124.29,124.29,0,0,0-69.7-35.21,125,125,0,0,0,105.21-118.8,125,125,0,0,0,106.21,119,125,125,0,0,0-105.21,118.8A124.29,124.29,0,0,0,964.61,1032.63Zm123.87-195.15A124.27,124.27,0,0,0,1125,753.74,124.94,124.94,0,0,0,1245.24,874,124.94,124.94,0,0,0,1125,994.24,124.94,124.94,0,0,0,1004.74,874,124.29,124.29,0,0,0,1088.48,837.48ZM1005.13,869A120,120,0,0,1,1120,754.13,120,120,0,0,1,1005.13,869Zm35-159.16a119.34,119.34,0,0,1-35-79.82A120,120,0,0,1,1120,744.86,119.33,119.33,0,0,1,1040.16,709.82ZM1130,754.13A120,120,0,0,1,1244.86,869,120,120,0,0,1,1130,754.13ZM1244.86,879A120,120,0,0,1,1130,993.86,120,120,0,0,1,1244.86,879ZM1121,1001.13A120,120,0,0,1,1006.13,1116,120,120,0,0,1,1121,1001.13Zm-1-7.27A120,120,0,0,1,1005.13,879,120,120,0,0,1,1120,993.86Zm11,7.27A120,120,0,0,1,1245.86,1116,120,120,0,0,1,1131,1001.13Zm83.36,31.5a124.29,124.29,0,0,0-69.7-35.21,125,125,0,0,0,105.21-118.8,125,125,0,0,0,106.21,119,125,125,0,0,0-105.21,118.8A124.29,124.29,0,0,0,1214.36,1032.63ZM1254.88,879a120,120,0,0,1,114.85,114.86A120,120,0,0,1,1254.88,879Zm36,157.16a119.36,119.36,0,0,1,79.82-35A120,120,0,0,1,1255.88,1116,119.38,119.38,0,0,1,1290.91,1036.16Zm-36-167.18a120,120,0,0,1,114.85-114.85A120,120,0,0,1,1254.88,869Zm35-159.16a119.34,119.34,0,0,1-35-79.82,120,120,0,0,1,114.85,114.86A119.33,119.33,0,0,1,1289.91,709.82Zm169.66,79.34a119.35,119.35,0,0,1,35,79.82,120,120,0,0,1-114.86-114.85A119.34,119.34,0,0,1,1459.57,789.16Zm0-79.34a119.31,119.31,0,0,1-79.82,35A120,120,0,0,1,1494.61,630,119.31,119.31,0,0,1,1459.57,709.82Zm0-169.66a119.35,119.35,0,0,1,35,79.82,120,120,0,0,1-114.86-114.85A119.34,119.34,0,0,1,1459.57,540.16Zm-169.66,0a119.36,119.36,0,0,1,79.82-35A120,120,0,0,1,1254.88,620,119.38,119.38,0,0,1,1289.91,540.16Zm48.32,48.32a124.27,124.27,0,0,0,36.51-83.74A124.94,124.94,0,0,0,1495,625a124.94,124.94,0,0,0-120.25,120.25A124.94,124.94,0,0,0,1254.49,625,124.29,124.29,0,0,0,1338.23,588.48Zm-51.85,124.88a124.22,124.22,0,0,0,77.56,36.13,125,125,0,0,0-114.07,119.88,125,125,0,0,0-114.08-119.88,124.94,124.94,0,0,0,114.08-119.87A124.31,124.31,0,0,0,1286.38,713.36ZM1130,744.86A120,120,0,0,1,1244.86,630,120,120,0,0,1,1130,744.86Zm79.82-204.7a119.35,119.35,0,0,1,35,79.82A120,120,0,0,1,1130,505.13,119.34,119.34,0,0,1,1209.82,540.16Zm-169.66,0a119.36,119.36,0,0,1,79.82-35A120,120,0,0,1,1005.13,620,119.38,119.38,0,0,1,1040.16,540.16Zm48.32,48.32A124.27,124.27,0,0,0,1125,504.74,124.94,124.94,0,0,0,1245.24,625,124.94,124.94,0,0,0,1125,745.24,124.94,124.94,0,0,0,1004.74,625,124.29,124.29,0,0,0,1088.48,588.48Zm-51.85,124.88a124.22,124.22,0,0,0,77.56,36.13,125,125,0,0,0-114.07,119.88A125,125,0,0,0,886,749.49a124.94,124.94,0,0,0,114.08-119.87A124.31,124.31,0,0,0,1036.63,713.36Zm-156.38,31.5A120,120,0,0,1,995.11,630,120,120,0,0,1,880.25,744.86Zm79.82-204.7a119.35,119.35,0,0,1,35,79.82A120,120,0,0,1,880.25,505.13,119.34,119.34,0,0,1,960.07,540.16Zm-169.66,0a119.36,119.36,0,0,1,79.82-35A120,120,0,0,1,755.38,620,119.38,119.38,0,0,1,790.41,540.16Zm48.32,48.32a124.27,124.27,0,0,0,36.51-83.74A124.94,124.94,0,0,0,995.49,625,124.94,124.94,0,0,0,875.24,745.24,124.94,124.94,0,0,0,755,625,124.29,124.29,0,0,0,838.73,588.48ZM786.88,713.36a124.22,124.22,0,0,0,77.56,36.13A125,125,0,0,0,750.37,869.37,125,125,0,0,0,636.29,749.49,124.94,124.94,0,0,0,750.37,629.62,124.31,124.31,0,0,0,786.88,713.36ZM630.5,744.86A120,120,0,0,1,745.36,630,120,120,0,0,1,630.5,744.86Zm79.82-204.7a119.35,119.35,0,0,1,35,79.82A120,120,0,0,1,630.5,505.13,119.34,119.34,0,0,1,710.32,540.16Zm-169.66,0a119.36,119.36,0,0,1,79.82-35A120,120,0,0,1,505.63,620,119.38,119.38,0,0,1,540.66,540.16ZM589,588.48a124.27,124.27,0,0,0,36.51-83.74A124.94,124.94,0,0,0,745.74,625,124.94,124.94,0,0,0,625.49,745.24,124.94,124.94,0,0,0,505.24,625,124.29,124.29,0,0,0,589,588.48ZM537.13,713.36a124.22,124.22,0,0,0,77.56,36.13A125,125,0,0,0,500.62,869.37,125,125,0,0,0,386.54,749.49,124.94,124.94,0,0,0,500.62,629.62,124.31,124.31,0,0,0,537.13,713.36Zm-156.38,31.5A120,120,0,0,1,495.61,630,120,120,0,0,1,380.75,744.86Zm79.82-204.7a119.35,119.35,0,0,1,35,79.82A120,120,0,0,1,380.75,505.13,119.34,119.34,0,0,1,460.57,540.16Zm-169.66,0a119.36,119.36,0,0,1,79.82-35A120,120,0,0,1,255.88,620,119.38,119.38,0,0,1,290.91,540.16Zm48.32,48.32a124.27,124.27,0,0,0,36.51-83.74A124.94,124.94,0,0,0,496,625,124.94,124.94,0,0,0,375.74,745.24,124.94,124.94,0,0,0,255.49,625,124.29,124.29,0,0,0,339.23,588.48ZM287.38,713.36a124.22,124.22,0,0,0,77.56,36.13A125,125,0,0,0,250.87,869.37,125,125,0,0,0,136.79,749.49,124.94,124.94,0,0,0,250.87,629.62,124.31,124.31,0,0,0,287.38,713.36ZM245.86,869A120,120,0,0,1,131,754.13,120,120,0,0,1,245.86,869ZM131,744.86A120,120,0,0,1,245.86,630,120,120,0,0,1,131,744.86Zm79.82-204.7a119.35,119.35,0,0,1,35,79.82A120,120,0,0,1,131,505.13,119.34,119.34,0,0,1,210.82,540.16Zm-169.66,0a119.36,119.36,0,0,1,79.82-35A119.36,119.36,0,0,1,86,585,119.36,119.36,0,0,1,6.13,620,119.38,119.38,0,0,1,41.16,540.16Zm48.32,48.32A124.27,124.27,0,0,0,126,504.74,124.94,124.94,0,0,0,246.24,625,124.94,124.94,0,0,0,126,745.24,124.31,124.31,0,0,0,89.48,661.5,124.29,124.29,0,0,0,5.74,625,124.29,124.29,0,0,0,89.48,588.48ZM41.16,709.82A119.34,119.34,0,0,1,6.13,630,119.33,119.33,0,0,1,86,665a119.34,119.34,0,0,1,35,79.82A119.33,119.33,0,0,1,41.16,709.82Zm0,79.34a119.36,119.36,0,0,1,79.82-35A119.36,119.36,0,0,1,86,834,119.36,119.36,0,0,1,6.13,869,119.38,119.38,0,0,1,41.16,789.16Zm48.32,48.32A124.27,124.27,0,0,0,126,753.74,124.94,124.94,0,0,0,246.24,874,124.94,124.94,0,0,0,126,994.24,124.31,124.31,0,0,0,89.48,910.5,124.29,124.29,0,0,0,5.74,874,124.29,124.29,0,0,0,89.48,837.48ZM41.16,958.82A119.34,119.34,0,0,1,6.13,879,119.33,119.33,0,0,1,86,914a119.34,119.34,0,0,1,35,79.82A119.33,119.33,0,0,1,41.16,958.82Zm1,77.34a119.36,119.36,0,0,1,79.82-35A119.36,119.36,0,0,1,87,1081a119.36,119.36,0,0,1-79.82,35A119.38,119.38,0,0,1,42.16,1036.16Zm48.32,48.32A124.27,124.27,0,0,0,127,1000.74,124.94,124.94,0,0,0,247.24,1121,124.94,124.94,0,0,0,127,1241.24a124.31,124.31,0,0,0-36.51-83.74A124.29,124.29,0,0,0,6.74,1121,124.29,124.29,0,0,0,90.48,1084.48ZM246.86,1126A120,120,0,0,1,132,1240.86,120,120,0,0,1,246.86,1126Zm-35,159.16a119.35,119.35,0,0,1,35,79.82A120,120,0,0,1,132,1250.13,119.34,119.34,0,0,1,211.82,1285.16ZM42.16,1205.82a119.34,119.34,0,0,1-35-79.82A119.33,119.33,0,0,1,87,1161a119.34,119.34,0,0,1,35,79.82A119.33,119.33,0,0,1,42.16,1205.82Zm0,79.34a119.36,119.36,0,0,1,79.82-35A119.36,119.36,0,0,1,87,1330a119.36,119.36,0,0,1-79.82,35A119.38,119.38,0,0,1,42.16,1285.16Zm0,169.66a119.34,119.34,0,0,1-35-79.82A119.33,119.33,0,0,1,87,1410a119.34,119.34,0,0,1,35,79.82A119.33,119.33,0,0,1,42.16,1454.82Zm169.66,0a119.31,119.31,0,0,1-79.82,35A120,120,0,0,1,246.86,1375,119.31,119.31,0,0,1,211.82,1454.82ZM163.5,1406.5A124.31,124.31,0,0,0,127,1490.24a124.31,124.31,0,0,0-36.51-83.74A124.29,124.29,0,0,0,6.74,1370a124.29,124.29,0,0,0,83.74-36.51A124.27,124.27,0,0,0,127,1249.74,124.94,124.94,0,0,0,247.24,1370,124.31,124.31,0,0,0,163.5,1406.5Zm51.86-124.87a124.31,124.31,0,0,0-77.57-36.14,124.94,124.94,0,0,0,114.08-119.87,124.95,124.95,0,0,0,114.07,119.87,125,125,0,0,0-114.07,119.88A124.29,124.29,0,0,0,215.36,1281.63Zm156.37-31.5A120,120,0,0,1,256.88,1365a120,120,0,0,1,114.85-114.85Zm-79.82,204.69a119.34,119.34,0,0,1-35-79.82,120,120,0,0,1,114.85,114.86A119.33,119.33,0,0,1,291.91,1454.82Zm169.66,0a119.31,119.31,0,0,1-79.82,35A120,120,0,0,1,496.61,1375,119.31,119.31,0,0,1,461.57,1454.82Zm-48.32-48.32a124.31,124.31,0,0,0-36.51,83.74A124.94,124.94,0,0,0,256.49,1370a124.94,124.94,0,0,0,120.25-120.25A124.94,124.94,0,0,0,497,1370,124.31,124.31,0,0,0,413.25,1406.5Zm51.86-124.87a124.31,124.31,0,0,0-77.57-36.14,124.94,124.94,0,0,0,114.08-119.87,124.95,124.95,0,0,0,114.07,119.87,125,125,0,0,0-114.07,119.88A124.29,124.29,0,0,0,465.11,1281.63Zm156.37-31.5A120,120,0,0,1,506.63,1365a120,120,0,0,1,114.85-114.85Zm-79.82,204.69a119.34,119.34,0,0,1-35-79.82,120,120,0,0,1,114.85,114.86A119.33,119.33,0,0,1,541.66,1454.82Zm169.66,0a119.31,119.31,0,0,1-79.82,35A120,120,0,0,1,746.36,1375,119.31,119.31,0,0,1,711.32,1454.82ZM663,1406.5a124.31,124.31,0,0,0-36.51,83.74A124.94,124.94,0,0,0,506.24,1370a124.94,124.94,0,0,0,120.25-120.25A124.94,124.94,0,0,0,746.74,1370,124.31,124.31,0,0,0,663,1406.5Zm51.86-124.87a124.31,124.31,0,0,0-77.57-36.14,124.94,124.94,0,0,0,114.08-119.87,124.95,124.95,0,0,0,114.07,119.87,125,125,0,0,0-114.07,119.88A124.29,124.29,0,0,0,714.86,1281.63Zm156.37-31.5A120,120,0,0,1,756.38,1365a120,120,0,0,1,114.85-114.85Zm-79.82,204.69a119.34,119.34,0,0,1-35-79.82,120,120,0,0,1,114.85,114.86A119.33,119.33,0,0,1,791.41,1454.82Zm169.66,0a119.31,119.31,0,0,1-79.82,35A120,120,0,0,1,996.11,1375,119.31,119.31,0,0,1,961.07,1454.82Zm-48.32-48.32a124.31,124.31,0,0,0-36.51,83.74A124.94,124.94,0,0,0,756,1370a124.94,124.94,0,0,0,120.25-120.25A124.94,124.94,0,0,0,996.49,1370,124.31,124.31,0,0,0,912.75,1406.5Zm51.86-124.87A124.31,124.31,0,0,0,887,1245.49a124.94,124.94,0,0,0,114.08-119.87,124.95,124.95,0,0,0,114.07,119.87,125,125,0,0,0-114.07,119.88A124.29,124.29,0,0,0,964.61,1281.63Zm156.37-31.5A120,120,0,0,1,1006.13,1365,120,120,0,0,1,1121,1250.13Zm-79.82,204.69a119.34,119.34,0,0,1-35-79.82A120,120,0,0,1,1121,1489.86,119.33,119.33,0,0,1,1041.16,1454.82Zm169.66,0a119.31,119.31,0,0,1-79.82,35A120,120,0,0,1,1245.86,1375,119.31,119.31,0,0,1,1210.82,1454.82Zm-48.32-48.32a124.31,124.31,0,0,0-36.51,83.74A124.94,124.94,0,0,0,1005.74,1370,124.94,124.94,0,0,0,1126,1249.74,124.94,124.94,0,0,0,1246.24,1370,124.31,124.31,0,0,0,1162.5,1406.5Zm51.86-124.87a124.31,124.31,0,0,0-77.57-36.14,124.94,124.94,0,0,0,114.08-119.87,124.95,124.95,0,0,0,114.07,119.87,125,125,0,0,0-114.07,119.88A124.29,124.29,0,0,0,1214.36,1281.63ZM1255.88,1126a120,120,0,0,1,114.85,114.86A120,120,0,0,1,1255.88,1126Zm114.85,124.13A120,120,0,0,1,1255.88,1365a120,120,0,0,1,114.85-114.85Zm-79.82,204.69a119.34,119.34,0,0,1-35-79.82,120,120,0,0,1,114.85,114.86A119.33,119.33,0,0,1,1290.91,1454.82Zm169.66,0a119.31,119.31,0,0,1-79.82,35A120,120,0,0,1,1495.61,1375,119.31,119.31,0,0,1,1460.57,1454.82Zm-48.32-48.32a124.31,124.31,0,0,0-36.51,83.74A124.94,124.94,0,0,0,1255.49,1370a124.94,124.94,0,0,0,120.25-120.25A124.94,124.94,0,0,0,1496,1370,124.31,124.31,0,0,0,1412.25,1406.5Zm48.32-121.34a119.35,119.35,0,0,1,35,79.82,120,120,0,0,1-114.86-114.85A119.34,119.34,0,0,1,1460.57,1285.16Zm0-79.34a119.31,119.31,0,0,1-79.82,35A120,120,0,0,1,1495.61,1126,119.31,119.31,0,0,1,1460.57,1205.82Zm-48.32-48.32a124.31,124.31,0,0,0-36.51,83.74A124.94,124.94,0,0,0,1255.49,1121a124.94,124.94,0,0,0,120.25-120.25A124.94,124.94,0,0,0,1496,1121,124.31,124.31,0,0,0,1412.25,1157.5Zm3.54-76.55a119.33,119.33,0,0,1-35-79.82A120,120,0,0,1,1495.61,1116,119.34,119.34,0,0,1,1415.79,1081Z" style="fill: #debf8c"/>
  <path d="M0,374.11l.05,2.36A125,125,0,0,0,122.51,498.94l2.37,0h.23l2.36,0a125,125,0,0,0,122.4-120.32A125,125,0,0,0,372.26,498.94l2.36,0h.24l2.36,0a125,125,0,0,0,122.4-120.32A125,125,0,0,0,622,498.94l2.37,0h.23l2.36,0a125,125,0,0,0,122.4-120.32A125,125,0,0,0,871.76,498.94l2.37,0h.23l2.36,0a125,125,0,0,0,122.4-120.32,125,125,0,0,0,122.39,120.32l2.37,0h.23l2.36,0a125,125,0,0,0,122.4-120.32,125,125,0,0,0,122.39,120.32l2.37,0h.23l2.36,0a125,125,0,0,0,122.46-122.47l0-2.36h0v-.23h0l0-2.37a125,125,0,0,0-114.14-122,124.94,124.94,0,0,0,114.14-122l0-2.36h0v-.23h0l0-2.37A125,125,0,0,0,1376.22.05l-2.36,0h-.23l-2.37.05a125,125,0,0,0-122.39,120.32A125,125,0,0,0,1126.47.05l-2.36,0h-.23l-2.37.05A125,125,0,0,0,999.12,120.37,125,125,0,0,0,876.72.05l-2.36,0h-.23l-2.37.05A125,125,0,0,0,749.37,120.37,125,125,0,0,0,627,.05l-2.36,0h-.23L622,.05A125,125,0,0,0,499.62,120.37,125,125,0,0,0,377.22.05l-2.36,0h-.24l-2.36.05A125,125,0,0,0,249.87,120.37,125,125,0,0,0,127.47.05l-2.36,0h-.23l-2.37.05A125,125,0,0,0,.05,122.51l0,2.37H0v.23H0l.05,2.36a125,125,0,0,0,114.14,122A125,125,0,0,0,.05,371.51l0,2.37H0v.23Zm40.16,84.71A119.34,119.34,0,0,1,5.13,379,119.33,119.33,0,0,1,85,414a119.34,119.34,0,0,1,35,79.82A119.33,119.33,0,0,1,40.16,458.82Zm169.66,0a119.31,119.31,0,0,1-79.82,35A120,120,0,0,1,244.86,379,119.31,119.31,0,0,1,209.82,458.82Zm80.09,0a119.34,119.34,0,0,1-35-79.82A120,120,0,0,1,369.73,493.86,119.33,119.33,0,0,1,289.91,458.82Zm169.66,0a119.31,119.31,0,0,1-79.82,35A120,120,0,0,1,494.61,379,119.31,119.31,0,0,1,459.57,458.82ZM411.25,410.5a124.31,124.31,0,0,0-36.51,83.74A124.94,124.94,0,0,0,254.49,374,124.94,124.94,0,0,0,374.74,253.74,124.94,124.94,0,0,0,495,374,124.31,124.31,0,0,0,411.25,410.5ZM254.88,369A120,120,0,0,1,369.73,254.13,120,120,0,0,1,254.88,369Zm35-159.16a119.34,119.34,0,0,1-35-79.82A120,120,0,0,1,369.73,244.86,119.33,119.33,0,0,1,289.91,209.82Zm89.84,44.31A120,120,0,0,1,494.61,369,120,120,0,0,1,379.75,254.13ZM539.66,458.82a119.34,119.34,0,0,1-35-79.82A120,120,0,0,1,619.48,493.86,119.33,119.33,0,0,1,539.66,458.82Zm169.66,0a119.31,119.31,0,0,1-79.82,35A120,120,0,0,1,744.36,379,119.31,119.31,0,0,1,709.32,458.82ZM661,410.5a124.31,124.31,0,0,0-36.51,83.74A124.94,124.94,0,0,0,504.24,374,124.94,124.94,0,0,0,624.49,253.74,124.94,124.94,0,0,0,744.74,374,124.31,124.31,0,0,0,661,410.5ZM504.63,369A120,120,0,0,1,619.48,254.13,120,120,0,0,1,504.63,369Zm35-159.16a119.34,119.34,0,0,1-35-79.82A120,120,0,0,1,619.48,244.86,119.33,119.33,0,0,1,539.66,209.82Zm89.84,44.31A120,120,0,0,1,744.36,369,120,120,0,0,1,629.5,254.13ZM789.41,458.82a119.34,119.34,0,0,1-35-79.82A120,120,0,0,1,869.23,493.86,119.33,119.33,0,0,1,789.41,458.82Zm169.66,0a119.31,119.31,0,0,1-79.82,35A120,120,0,0,1,994.11,379,119.31,119.31,0,0,1,959.07,458.82ZM910.75,410.5a124.31,124.31,0,0,0-36.51,83.74A124.94,124.94,0,0,0,754,374,124.94,124.94,0,0,0,874.24,253.74,124.94,124.94,0,0,0,994.49,374,124.31,124.31,0,0,0,910.75,410.5ZM754.38,369A120,120,0,0,1,869.23,254.13,120,120,0,0,1,754.38,369Zm35-159.16a119.34,119.34,0,0,1-35-79.82A120,120,0,0,1,869.23,244.86,119.33,119.33,0,0,1,789.41,209.82Zm89.84,44.31A120,120,0,0,1,994.11,369,120,120,0,0,1,879.25,254.13Zm159.91,204.69a119.34,119.34,0,0,1-35-79.82A120,120,0,0,1,1119,493.86,119.33,119.33,0,0,1,1039.16,458.82Zm169.66,0a119.31,119.31,0,0,1-79.82,35A120,120,0,0,1,1243.86,379,119.31,119.31,0,0,1,1208.82,458.82ZM1160.5,410.5A124.31,124.31,0,0,0,1124,494.24,124.94,124.94,0,0,0,1003.74,374,124.94,124.94,0,0,0,1124,253.74,124.94,124.94,0,0,0,1244.24,374,124.31,124.31,0,0,0,1160.5,410.5ZM1004.13,369A120,120,0,0,1,1119,254.13,120,120,0,0,1,1004.13,369Zm35-159.16a119.34,119.34,0,0,1-35-79.82A120,120,0,0,1,1119,244.86,119.33,119.33,0,0,1,1039.16,209.82ZM1129,254.13A120,120,0,0,1,1243.86,369,120,120,0,0,1,1129,254.13Zm159.91,204.69a119.34,119.34,0,0,1-35-79.82,120,120,0,0,1,114.85,114.86A119.33,119.33,0,0,1,1288.91,458.82Zm169.66,0a119.31,119.31,0,0,1-79.82,35A120,120,0,0,1,1493.61,379,119.31,119.31,0,0,1,1458.57,458.82Zm-48.32-48.32a124.31,124.31,0,0,0-36.51,83.74A124.94,124.94,0,0,0,1253.49,374a124.94,124.94,0,0,0,120.25-120.25A124.94,124.94,0,0,0,1494,374,124.31,124.31,0,0,0,1410.25,410.5ZM1253.88,369a120,120,0,0,1,114.85-114.85A120,120,0,0,1,1253.88,369Zm35-159.16a119.34,119.34,0,0,1-35-79.82,120,120,0,0,1,114.85,114.86A119.33,119.33,0,0,1,1288.91,209.82Zm169.66,79.34a119.35,119.35,0,0,1,35,79.82,120,120,0,0,1-114.86-114.85A119.34,119.34,0,0,1,1458.57,289.16Zm0-79.34a119.31,119.31,0,0,1-79.82,35A120,120,0,0,1,1493.61,130,119.31,119.31,0,0,1,1458.57,209.82Zm0-169.66a119.35,119.35,0,0,1,35,79.82,119.34,119.34,0,0,1-79.82-35,119.33,119.33,0,0,1-35-79.82A119.34,119.34,0,0,1,1458.57,40.16Zm-169.66,0a119.36,119.36,0,0,1,79.82-35,119.36,119.36,0,0,1-35,79.82,119.36,119.36,0,0,1-79.82,35A119.38,119.38,0,0,1,1288.91,40.16Zm48.32,48.32a124.27,124.27,0,0,0,36.51-83.74,124.27,124.27,0,0,0,36.51,83.74A124.31,124.31,0,0,0,1494,125a124.94,124.94,0,0,0-120.25,120.25A124.94,124.94,0,0,0,1253.49,125,124.29,124.29,0,0,0,1337.23,88.48Zm-51.85,124.88a124.22,124.22,0,0,0,77.56,36.13,125,125,0,0,0-114.07,119.88,125,125,0,0,0-114.08-119.88,124.94,124.94,0,0,0,114.08-119.87A124.31,124.31,0,0,0,1285.38,213.36ZM1129,244.86A120,120,0,0,1,1243.86,130,120,120,0,0,1,1129,244.86Zm79.82-204.7a119.35,119.35,0,0,1,35,79.82A119.34,119.34,0,0,1,1164,85a119.33,119.33,0,0,1-35-79.82A119.34,119.34,0,0,1,1208.82,40.16Zm-169.66,0a119.36,119.36,0,0,1,79.82-35A119.36,119.36,0,0,1,1084,85a119.36,119.36,0,0,1-79.82,35A119.38,119.38,0,0,1,1039.16,40.16Zm48.32,48.32A124.27,124.27,0,0,0,1124,4.74a124.27,124.27,0,0,0,36.51,83.74A124.31,124.31,0,0,0,1244.24,125,124.94,124.94,0,0,0,1124,245.24,124.94,124.94,0,0,0,1003.74,125,124.29,124.29,0,0,0,1087.48,88.48Zm-51.85,124.88a124.22,124.22,0,0,0,77.56,36.13A125,125,0,0,0,999.12,369.37,125,125,0,0,0,885,249.49,124.94,124.94,0,0,0,999.12,129.62,124.31,124.31,0,0,0,1035.63,213.36Zm-156.38,31.5A120,120,0,0,1,994.11,130,120,120,0,0,1,879.25,244.86Zm79.82-204.7a119.35,119.35,0,0,1,35,79.82,119.34,119.34,0,0,1-79.82-35,119.33,119.33,0,0,1-35-79.82A119.34,119.34,0,0,1,959.07,40.16Zm-169.66,0a119.36,119.36,0,0,1,79.82-35A119.36,119.36,0,0,1,834.2,85a119.36,119.36,0,0,1-79.82,35A119.38,119.38,0,0,1,789.41,40.16Zm48.32,48.32A124.27,124.27,0,0,0,874.24,4.74a124.27,124.27,0,0,0,36.51,83.74A124.31,124.31,0,0,0,994.49,125,124.94,124.94,0,0,0,874.24,245.24,124.94,124.94,0,0,0,754,125,124.29,124.29,0,0,0,837.73,88.48ZM785.88,213.36a124.22,124.22,0,0,0,77.56,36.13A125,125,0,0,0,749.37,369.37,125,125,0,0,0,635.29,249.49,124.94,124.94,0,0,0,749.37,129.62,124.31,124.31,0,0,0,785.88,213.36ZM629.5,244.86A120,120,0,0,1,744.36,130,120,120,0,0,1,629.5,244.86Zm79.82-204.7a119.35,119.35,0,0,1,35,79.82,119.34,119.34,0,0,1-79.82-35,119.33,119.33,0,0,1-35-79.82A119.34,119.34,0,0,1,709.32,40.16Zm-169.66,0a119.36,119.36,0,0,1,79.82-35,119.36,119.36,0,0,1-35,79.82,119.36,119.36,0,0,1-79.82,35A119.38,119.38,0,0,1,539.66,40.16ZM588,88.48A124.27,124.27,0,0,0,624.49,4.74,124.27,124.27,0,0,0,661,88.48,124.31,124.31,0,0,0,744.74,125,124.94,124.94,0,0,0,624.49,245.24,124.94,124.94,0,0,0,504.24,125,124.29,124.29,0,0,0,588,88.48ZM536.13,213.36a124.22,124.22,0,0,0,77.56,36.13A125,125,0,0,0,499.62,369.37,125,125,0,0,0,385.54,249.49,124.94,124.94,0,0,0,499.62,129.62,124.31,124.31,0,0,0,536.13,213.36Zm-156.38,31.5A120,120,0,0,1,494.61,130,120,120,0,0,1,379.75,244.86Zm79.82-204.7a119.35,119.35,0,0,1,35,79.82,119.34,119.34,0,0,1-79.82-35,119.33,119.33,0,0,1-35-79.82A119.34,119.34,0,0,1,459.57,40.16Zm-169.66,0a119.36,119.36,0,0,1,79.82-35A119.36,119.36,0,0,1,334.7,85a119.36,119.36,0,0,1-79.82,35A119.38,119.38,0,0,1,289.91,40.16Zm48.32,48.32A124.27,124.27,0,0,0,374.74,4.74a124.27,124.27,0,0,0,36.51,83.74A124.31,124.31,0,0,0,495,125,124.94,124.94,0,0,0,374.74,245.24,124.94,124.94,0,0,0,254.49,125,124.29,124.29,0,0,0,338.23,88.48ZM286.38,213.36a124.22,124.22,0,0,0,77.56,36.13A125,125,0,0,0,249.87,369.37,125,125,0,0,0,135.79,249.49,124.94,124.94,0,0,0,249.87,129.62,124.31,124.31,0,0,0,286.38,213.36ZM244.86,369A120,120,0,0,1,130,254.13,120,120,0,0,1,244.86,369ZM130,244.86A120,120,0,0,1,244.86,130,120,120,0,0,1,130,244.86Zm79.82-204.7a119.35,119.35,0,0,1,35,79.82A119.34,119.34,0,0,1,165,85,119.33,119.33,0,0,1,130,5.13,119.34,119.34,0,0,1,209.82,40.16Zm-169.66,0A119.36,119.36,0,0,1,120,5.13,119.36,119.36,0,0,1,85,85,119.36,119.36,0,0,1,5.13,120,119.38,119.38,0,0,1,40.16,40.16ZM88.48,88.48A124.27,124.27,0,0,0,125,4.74,124.27,124.27,0,0,0,161.5,88.48,124.31,124.31,0,0,0,245.24,125,124.94,124.94,0,0,0,125,245.24,124.31,124.31,0,0,0,88.48,161.5,124.29,124.29,0,0,0,4.74,125,124.29,124.29,0,0,0,88.48,88.48ZM40.16,209.82A119.34,119.34,0,0,1,5.13,130,119.33,119.33,0,0,1,85,165a119.34,119.34,0,0,1,35,79.82A119.33,119.33,0,0,1,40.16,209.82Zm0,79.34a119.36,119.36,0,0,1,79.82-35A119.36,119.36,0,0,1,85,334,119.36,119.36,0,0,1,5.13,369,119.38,119.38,0,0,1,40.16,289.16Zm48.32,48.32A124.27,124.27,0,0,0,125,253.74,124.94,124.94,0,0,0,245.24,374,124.94,124.94,0,0,0,125,494.24,124.31,124.31,0,0,0,88.48,410.5,124.29,124.29,0,0,0,4.74,374,124.29,124.29,0,0,0,88.48,337.48Z" style="fill: #debf8c"/>
</g>
</g>  <g id="base">
<rect y="1330.87" width="1500" height="168.98" style="fill: #51a4da"/>
</g>  <g id="land">
<rect x="0.46" y="1028.55" width="1500.11" height="302.58" style="fill: #73f9d3"/>
</g>  <g id="city">
    <polygon points="502 493 548 443 587 493 587 1018 502 1018 502 493" style="fill: #fff3a9"/>
    <polygon points="1273.44 1026.83 1273.08 948.02 1200.28 922.85 1119.74 930.66 1038.95 890.22 974.14 881.5 931.46 908.1 923.46 917.64 882.68 930.66 871.11 958.33 875.25 1024.93 1273.44 1026.83" style="fill: #cccbca;stroke: #000;stroke-miterlimit: 10;stroke-width: 3px"/>
    <line x1="0.12" y1="1028.95" x2="1500.12" y2="1028.95" style="fill: #ffc0f9;stroke: #000;stroke-miterlimit: 10;stroke-width: 3px"/>
    <path d="M1157,652.5h-42s-1-13-11-13-9,10-9,10-7-25-28-25-30,26-30,26-16-4-20,2-3,17-3,17H978" style="fill: none;stroke: #000;stroke-miterlimit: 10;stroke-width: 3px"/>
    <path d="M147.92,476.81s9.23-16.19,21.61-17.59S187.36,477,187.36,477s6.52-12.93,17-14.58,21.52,14.35,21.52,14.35" style="fill: none;stroke: #000;stroke-miterlimit: 10;stroke-width: 3px"/>
    <path d="M846.15,240.08l8.27,2.23-5.5,1.48a8.52,8.52,0,0,0-6,6l-1.48,5.5-1.76-6.54a6.66,6.66,0,0,0-4.7-4.7l-6.54-1.76,6.48-1.75a6.73,6.73,0,0,0,4.77-4.77l1.75-6.48,2.23,8.27A3.53,3.53,0,0,0,846.15,240.08Z" style="fill: none;stroke: #000;stroke-miterlimit: 10;stroke-width: 2px"/>
    <path d="M305.15,306.08l8.27,2.23-5.5,1.48a8.52,8.52,0,0,0-6,6l-1.48,5.5-1.76-6.54a6.66,6.66,0,0,0-4.7-4.7l-6.54-1.76,6.48-1.75a6.73,6.73,0,0,0,4.77-4.77l1.75-6.48,2.23,8.27A3.53,3.53,0,0,0,305.15,306.08Z" style="fill: none;stroke: #000;stroke-miterlimit: 10;stroke-width: 2px"/>
    <path d="M1147.15,722.08l8.27,2.23-5.5,1.48a8.52,8.52,0,0,0-6,6l-1.48,5.5-1.76-6.54a6.66,6.66,0,0,0-4.7-4.7l-6.54-1.76,6.48-1.75a6.73,6.73,0,0,0,4.77-4.77l1.75-6.48,2.23,8.27A3.53,3.53,0,0,0,1147.15,722.08Z" style="fill: none;stroke: #000;stroke-miterlimit: 10;stroke-width: 2px"/>
    <path d="M1168.36,423.37s.71-9.26,7.84-9.26,6.41,7.12,6.41,7.12,5-17.82,20-17.82S1224,422,1224,422s11.41-2.85,14.26,1.42,2.14,12.12,2.14,12.12" style="fill: none;stroke: #000;stroke-miterlimit: 10;stroke-width: 3px"/>
    <path d="M586.15,319.08l8.27,2.23-5.5,1.48a8.52,8.52,0,0,0-6,6l-1.48,5.5-1.76-6.54a6.66,6.66,0,0,0-4.7-4.7l-6.54-1.76,6.48-1.75a6.73,6.73,0,0,0,4.77-4.77l1.75-6.48,2.23,8.27A3.53,3.53,0,0,0,586.15,319.08Z" style="fill: none;stroke: #000;stroke-miterlimit: 10;stroke-width: 2px"/>
    <path d="M396.15,453.08l8.27,2.23-5.5,1.48a8.52,8.52,0,0,0-6,6l-1.48,5.5-1.76-6.54a6.66,6.66,0,0,0-4.7-4.7l-6.54-1.76,6.48-1.75a6.73,6.73,0,0,0,4.77-4.77l1.75-6.48,2.23,8.27A3.53,3.53,0,0,0,396.15,453.08Z" style="fill: none;stroke: #000;stroke-miterlimit: 10;stroke-width: 2px"/>
    <path d="M1285.15,671.08l8.27,2.23-5.5,1.48a8.52,8.52,0,0,0-6,6l-1.48,5.5-1.76-6.54a6.66,6.66,0,0,0-4.7-4.7l-6.54-1.76,6.48-1.75a6.73,6.73,0,0,0,4.77-4.77l1.75-6.48,2.23,8.27A3.53,3.53,0,0,0,1285.15,671.08Z" style="fill: none;stroke: #000;stroke-miterlimit: 10;stroke-width: 2px"/>
    <g>
      <polygon points="310 1028.81 310 682.51 439.39 579.76 439.39 1028.81 310 1028.81" style="fill: #2eaecc;stroke: #000;stroke-miterlimit: 10;stroke-width: 3px"/>
      <polygon points="357.57 646.36 357.57 488.43 366.95 464.98 376.6 440.86 439.39 486.53 439.39 579.76 357.57 646.36" style="fill: #2eaecc;stroke: #000;stroke-miterlimit: 10;stroke-width: 3px"/>
      <polyline points="391.82 457.99 374.69 473.21 374.69 830.93 437.48 973.63" style="fill: none;stroke: #000;stroke-miterlimit: 10;stroke-width: 3px"/>
      <polyline points="310 973.63 392.35 871.05 439.39 779.96 310 682.51" style="fill: none;stroke: #000;stroke-miterlimit: 10;stroke-width: 3px"/>
      <polyline points="357.57 488.43 374.69 537.31 357.57 586.23 374.69 631.14 437.48 678.71 374.69 731.5 310 785.89 374.69 830.93 311.9 872.79 389.92 973.63 439.39 873.85 391.82 781.46 376.6 737.69" style="fill: none;stroke: #000;stroke-miterlimit: 10;stroke-width: 3px"/>
      <polyline points="433.68 779.55 391.82 779.55 374.69 830.93" style="fill: none;stroke: #000;stroke-miterlimit: 10;stroke-width: 3px"/>
      <polyline points="310 872.79 391.82 872.79 391.82 973.63" style="fill: none;stroke: #000;stroke-miterlimit: 10;stroke-width: 3px"/>
      <line x1="391.82" y1="786.88" x2="391.82" y2="864.96" style="fill: #2eaecc;stroke: #000;stroke-miterlimit: 10;stroke-width: 3px"/>
      <polyline points="435.58 577.86 374.69 537.9 437.48 492.24" style="fill: #2eaecc;stroke: #000;stroke-miterlimit: 10;stroke-width: 2px"/>
      <line x1="369.94" y1="449.42" x2="369.94" y2="346.68" style="fill: #2eaecc;stroke: #000;stroke-miterlimit: 10;stroke-width: 2px"/>
      <line x1="388.96" y1="346.68" x2="391.06" y2="451.38" style="fill: #2eaecc;stroke: #000;stroke-miterlimit: 10;stroke-width: 2px"/>
    </g>
    <g>
      <rect x="1320.61" y="575.88" width="129.39" height="452.85" style="fill: #60d82e;stroke: #000;stroke-miterlimit: 10;stroke-width: 3px"/>
      <rect x="1325.37" y="477.89" width="119.87" height="97.04" style="fill: #60d82e;stroke: #000;stroke-miterlimit: 10;stroke-width: 3px"/>
      <rect x="1327.27" y="382.75" width="116.07" height="95.14" style="fill: #60d82e;stroke: #000;stroke-miterlimit: 10;stroke-width: 3px"/>
      <polygon points="1441.44 382.75 1332.98 382.75 1338.69 331.38 1435.73 331.38 1441.44 382.75" style="fill: #60d82e;stroke: #000;stroke-miterlimit: 10;stroke-width: 3px"/>
      <polyline points="1348.2 293.32 1357.72 259.07 1412.9 259.07 1422.41 293.32" style="fill: #60d82e;stroke: #000;stroke-miterlimit: 10;stroke-width: 3px"/>
      <polyline points="1344.4 306.64 1344.4 295.22 1428.12 295.22 1428.12 306.64" style="fill: #60d82e;stroke: #000;stroke-miterlimit: 10;stroke-width: 3px"/>
      <polyline points="1338.69 327.57 1338.69 306.64 1433.83 306.64 1433.83 327.57" style="fill: #60d82e;stroke: #000;stroke-miterlimit: 10;stroke-width: 3px"/>
      <line x1="1371.99" y1="260.02" x2="1368.18" y2="292.37" style="fill: #60d82e;stroke: #000;stroke-miterlimit: 10;stroke-width: 3px"/>
      <line x1="1380.55" y1="297.13" x2="1380.55" y2="331.38" style="fill: #60d82e;stroke: #000;stroke-miterlimit: 10;stroke-width: 3px"/>
      <line x1="1373.91" y1="331.38" x2="1373.91" y2="380.85" style="fill: #60d82e;stroke: #000;stroke-miterlimit: 10;stroke-width: 3px"/>
      <line x1="1369.13" y1="386.55" x2="1369.13" y2="475.98" style="fill: #60d82e;stroke: #000;stroke-miterlimit: 10;stroke-width: 3px"/>
      <line x1="1369.13" y1="481.69" x2="1369.13" y2="573.02" style="fill: #60d82e;stroke: #000;stroke-miterlimit: 10;stroke-width: 2px"/>
      <line x1="1368.18" y1="296.17" x2="1368.18" y2="306.64" style="fill: #60d82e;stroke: #000;stroke-miterlimit: 10;stroke-width: 2px"/>
      <line x1="1362.47" y1="309.49" x2="1362.47" y2="326.62" style="fill: #60d82e;stroke: #000;stroke-miterlimit: 10;stroke-width: 2px"/>
      <polyline points="1360.57 332.33 1355.78 382.75 1354.86 475.03" style="fill: #60d82e;stroke: #000;stroke-miterlimit: 10;stroke-width: 2px"/>
      <line x1="1385.31" y1="334.23" x2="1385.31" y2="475.03" style="fill: #60d82e;stroke: #000;stroke-miterlimit: 10;stroke-width: 2px"/>
      <line x1="1430.62" y1="331.38" x2="1430.62" y2="382.75" style="fill: #60d82e;stroke: #000;stroke-miterlimit: 10;stroke-width: 2px"/>
      <line x1="1432.88" y1="385.6" x2="1432.88" y2="475.03" style="fill: #60d82e;stroke: #000;stroke-miterlimit: 10;stroke-width: 2px"/>
      <line x1="1351.06" y1="480.74" x2="1351.06" y2="572.07" style="fill: #60d82e;stroke: #000;stroke-miterlimit: 10;stroke-width: 2px"/>
      <line x1="1387.21" y1="480.74" x2="1387.21" y2="1026.83" style="fill: #60d82e;stroke: #000;stroke-miterlimit: 10;stroke-width: 2px"/>
      <line x1="1436.68" y1="1024.93" x2="1436.68" y2="477.89" style="fill: #60d82e;stroke: #000;stroke-miterlimit: 10;stroke-width: 2px"/>
      <line x1="1387.21" y1="488.49" x2="1434.78" y2="488.49" style="fill: #60d82e;stroke: #000;stroke-miterlimit: 10;stroke-width: 2px"/>
      <line x1="1387.21" y1="499.64" x2="1434.78" y2="499.64" style="fill: #60d82e;stroke: #000;stroke-miterlimit: 10;stroke-width: 2px"/>
      <line x1="1368.18" y1="488.35" x2="1326.32" y2="488.35" style="fill: #60d82e;stroke: #000;stroke-miterlimit: 10;stroke-width: 2px"/>
      <line x1="1326.32" y1="499.64" x2="1368.18" y2="499.64" style="fill: #60d82e;stroke: #000;stroke-miterlimit: 10;stroke-width: 2px"/>
      <line x1="1364.38" y1="577.78" x2="1364.38" y2="1024.93" style="fill: #60d82e;stroke: #000;stroke-miterlimit: 10;stroke-width: 2px"/>
      <line x1="1351.06" y1="1026.83" x2="1351.06" y2="577.78" style="fill: #60d82e;stroke: #000;stroke-miterlimit: 10;stroke-width: 2px"/>
      <line x1="1320.61" y1="589.56" x2="1364.38" y2="589.56" style="fill: #60d82e;stroke: #000;stroke-miterlimit: 10;stroke-width: 2px"/>
      <line x1="1320.61" y1="600.71" x2="1364.38" y2="600.71" style="fill: #60d82e;stroke: #000;stroke-miterlimit: 10;stroke-width: 2px"/>
      <line x1="1387.21" y1="588.12" x2="1436.68" y2="588.12" style="fill: #60d82e;stroke: #000;stroke-miterlimit: 10;stroke-width: 2px"/>
      <line x1="1387.21" y1="600.71" x2="1434.78" y2="600.71" style="fill: #60d82e;stroke: #000;stroke-miterlimit: 10;stroke-width: 2px"/>
      <line x1="1320.61" y1="759.34" x2="1366.28" y2="759.34" style="fill: #60d82e;stroke: #000;stroke-miterlimit: 10;stroke-width: 2px"/>
      <line x1="1364.38" y1="771.21" x2="1320.61" y2="771.21" style="fill: #60d82e;stroke: #000;stroke-miterlimit: 10;stroke-width: 2px"/>
      <line x1="1387.21" y1="760.78" x2="1436.68" y2="760.78" style="fill: #60d82e;stroke: #000;stroke-miterlimit: 10;stroke-width: 2px"/>
      <line x1="1387.21" y1="771.21" x2="1436.68" y2="771.21" style="fill: #60d82e;stroke: #000;stroke-miterlimit: 10;stroke-width: 2px"/>
      <line x1="1392.92" y1="956.43" x2="1392.92" y2="1024.93" style="fill: #60d82e;stroke: #000;stroke-miterlimit: 10;stroke-width: 2px"/>
      <line x1="1398.63" y1="956.43" x2="1398.63" y2="1024.93" style="fill: #60d82e;stroke: #000;stroke-miterlimit: 10;stroke-width: 2px"/>
      <line x1="1406.24" y1="956.43" x2="1406.24" y2="1026.83" style="fill: #60d82e;stroke: #000;stroke-miterlimit: 10;stroke-width: 2px"/>
      <line x1="1411.94" y1="956.43" x2="1411.94" y2="1026.83" style="fill: #60d82e;stroke: #000;stroke-miterlimit: 10;stroke-width: 2px"/>
      <line x1="1419.56" y1="956.43" x2="1419.56" y2="1024.93" style="fill: #60d82e;stroke: #000;stroke-miterlimit: 10;stroke-width: 2px"/>
      <line x1="1425.26" y1="958.33" x2="1425.26" y2="1024.93" style="fill: #60d82e;stroke: #000;stroke-miterlimit: 10;stroke-width: 2px"/>
      <line x1="1430.97" y1="958.33" x2="1430.97" y2="1026.83" style="fill: #60d82e;stroke: #000;stroke-miterlimit: 10;stroke-width: 2px"/>
      <line x1="1379.6" y1="261.92" x2="1379.6" y2="292.37" style="fill: #60d82e;stroke: #000;stroke-miterlimit: 10;stroke-width: 2px"/>
      <path d="M1386.26,260c1,1.9,1,32.35,1,32.35" style="fill: #60d82e;stroke: #000;stroke-miterlimit: 10;stroke-width: 2px"/>
      <line x1="1394.32" y1="260.02" x2="1394.82" y2="294.27" style="fill: #60d82e;stroke: #000;stroke-miterlimit: 10;stroke-width: 2px"/>
      <line x1="1402.43" y1="261.92" x2="1402.43" y2="294.27" style="fill: #60d82e;stroke: #000;stroke-miterlimit: 10;stroke-width: 2px"/>
      <line x1="1408.21" y1="259.07" x2="1410.04" y2="294.27" style="fill: #60d82e;stroke: #000;stroke-miterlimit: 10;stroke-width: 2px"/>
      <line x1="1364.38" y1="260.02" x2="1358.67" y2="294.27" style="fill: #60d82e;stroke: #000;stroke-miterlimit: 10;stroke-width: 2px"/>
    </g>
    <g>
      <rect x="536.76" y="415.45" width="19.22" height="36.52" style="fill: #fff3a9;stroke: #ce1800;stroke-miterlimit: 10;stroke-width: 3px"/>
      <polyline points="496.4 523.07 496.4 496.17 538.69 453.88" style="fill: #fff3a9;stroke: #ce1800;stroke-miterlimit: 10;stroke-width: 3px"/>
      <polyline points="596.35 523.07 596.35 498.09 555.98 451.96" style="fill: #fff3a9;stroke: #ce1800;stroke-miterlimit: 10;stroke-width: 3px"/>
      <line x1="496.4" y1="496.17" x2="596.34" y2="496.17" style="fill: #fff3a9;stroke: #ce1800;stroke-miterlimit: 10;stroke-width: 3px"/>
      <line x1="496.4" y1="512.16" x2="596.34" y2="512.16" style="fill: #fff3a9;stroke: #ce1800;stroke-miterlimit: 10;stroke-width: 3px"/>
      <polyline points="550.36 453.88 566.96 496.17 566.96 961.28" style="fill: #fff3a9;stroke: #ce1800;stroke-miterlimit: 10;stroke-width: 3px"/>
      <polygon points="609.8 1028.55 482.95 1028.55 482.95 981.28 482.95 961.28 609.8 961.28 609.8 1028.55" style="fill: #fff3a9;stroke: #ce1800;stroke-miterlimit: 10;stroke-width: 3px"/>
      <line x1="605.95" y1="980.5" x2="482.95" y2="980.5" style="fill: #fff3a9;stroke: #ce1800;stroke-miterlimit: 10;stroke-width: 3px"/>
      <line x1="502.17" y1="1026.62" x2="502.17" y2="980.5" style="fill: #fff3a9;stroke: #ce1800;stroke-miterlimit: 10;stroke-width: 3px"/>
      <line x1="518.76" y1="1027.58" x2="518.76" y2="980.5" style="fill: #fff3a9;stroke: #ce1800;stroke-miterlimit: 10;stroke-width: 3px"/>
      <line x1="536.76" y1="1026.62" x2="536.76" y2="980.5" style="fill: #fff3a9;stroke: #ce1800;stroke-miterlimit: 10;stroke-width: 3px"/>
      <line x1="554.06" y1="1024.7" x2="554.06" y2="980.5" style="fill: #fff3a9;stroke: #ce1800;stroke-miterlimit: 10;stroke-width: 3px"/>
      <line x1="573.28" y1="1026.62" x2="573.28" y2="980.5" style="fill: #fff3a9;stroke: #ce1800;stroke-miterlimit: 10;stroke-width: 3px"/>
      <line x1="592.5" y1="1026.62" x2="592.5" y2="980.5" style="fill: #fff3a9;stroke: #ce1800;stroke-miterlimit: 10;stroke-width: 3px"/>
      <rect x="482.95" y="523.07" width="73.03" height="434.36" style="fill: #fff3a9;stroke: #ce1800;stroke-miterlimit: 10;stroke-width: 3px"/>
      <rect x="577.13" y="523.07" width="32.67" height="438.2" style="fill: #fff3a9;stroke: #ce1800;stroke-miterlimit: 10;stroke-width: 3px"/>
      <rect x="496.4" y="711.42" width="53.81" height="244.09" style="fill: #fff3a9;stroke: #ce1800;stroke-miterlimit: 10;stroke-width: 3px"/>
      <polygon points="538.69 557.67 538.69 544.22 506.86 544.22 506.01 557.67 496.4 558.06 496.4 703.74 546.37 703.74 546.37 559.08 538.69 557.67" style="fill: #fff3a9;stroke: #ce1800;stroke-miterlimit: 10;stroke-width: 3px"/>
      <g>
        <line x1="506.97" y1="600.91" x2="506.97" y2="681.63" style="fill: #fff3a9;stroke: #ce1800;stroke-miterlimit: 10;stroke-width: 2px"/>
        <line x1="516.58" y1="589.38" x2="516.58" y2="681.63" style="fill: #fff3a9;stroke: #ce1800;stroke-miterlimit: 10;stroke-width: 2px"/>
        <line x1="522.35" y1="581.69" x2="522.35" y2="681.63" style="fill: #fff3a9;stroke: #ce1800;stroke-miterlimit: 10;stroke-width: 2px"/>
        <line x1="531.96" y1="589.38" x2="531.96" y2="681.63" style="fill: #fff3a9;stroke: #ce1800;stroke-miterlimit: 10;stroke-width: 2px"/>
        <line x1="537.73" y1="600.91" x2="537.73" y2="681.63" style="fill: #fff3a9;stroke: #ce1800;stroke-miterlimit: 10;stroke-width: 2px"/>
      </g>
      <line x1="512.74" y1="727.76" x2="512.74" y2="825.78" style="fill: #fff3a9;stroke: #ce1800;stroke-miterlimit: 10;stroke-width: 2px"/>
      <line x1="522.35" y1="725.84" x2="522.35" y2="825.78" style="fill: #fff3a9;stroke: #ce1800;stroke-miterlimit: 10;stroke-width: 2px"/>
      <line x1="531.96" y1="727.76" x2="531.96" y2="825.78" style="fill: #fff3a9;stroke: #ce1800;stroke-miterlimit: 10;stroke-width: 2px"/>
      <line x1="522.35" y1="854.61" x2="522.35" y2="948.78" style="fill: #fff3a9;stroke: #ce1800;stroke-miterlimit: 10;stroke-width: 2px"/>
      <line x1="593.46" y1="727.76" x2="593.46" y2="825.78" style="fill: #fff3a9;stroke: #ce1800;stroke-miterlimit: 10;stroke-width: 2px"/>
      <polyline points="593.46 662.3 593.46 691.24 593.46 581.69 593.46 611.21" style="fill: #fff3a9;stroke: #ce1800;stroke-miterlimit: 10;stroke-width: 2px"/>
      <polygon points="585.77 702.78 601.15 702.78 601.15 558.63 599.23 558.63 599.23 543.25 589.62 543.25 589.62 560.55 585.77 560.55 585.77 702.78" style="fill: #fff3a9;stroke: #ce1800;stroke-miterlimit: 10;stroke-width: 3px"/>
      <rect x="585.77" y="714.31" width="17.3" height="246.01" style="fill: #fff3a9;stroke: #ce1800;stroke-miterlimit: 10;stroke-width: 2px"/>
      <line x1="510.82" y1="499.05" x2="510.82" y2="512.16" style="fill: #fff3a9;stroke: #ce1800;stroke-miterlimit: 10;stroke-width: 3px"/>
      <line x1="504.49" y1="512.16" x2="504.49" y2="523.07" style="fill: #fff3a9;stroke: #ce1800;stroke-miterlimit: 10;stroke-width: 3px"/>
      <line x1="589.5" y1="512.16" x2="589.5" y2="520.19" style="fill: #fff3a9;stroke: #ce1800;stroke-miterlimit: 10;stroke-width: 3px"/>
      <line x1="585.77" y1="496.17" x2="586.74" y2="511.54" style="fill: #fff3a9;stroke: #ce1800;stroke-miterlimit: 10;stroke-width: 3px"/>
      <polyline points="576.16 493.28 576.16 481.75 516.58 481.75 516.58 496.17" style="fill: #fff3a9;stroke: #ce1800;stroke-miterlimit: 10;stroke-width: 3px"/>
      <line x1="593.46" y1="852.69" x2="593.46" y2="950.71" style="fill: #fff3a9;stroke: #ce1800;stroke-miterlimit: 10;stroke-width: 2px"/>
      <line x1="545.41" y1="326.08" x2="545.41" y2="412.56" style="fill: #fff3a9;stroke: #ce1800;stroke-miterlimit: 10;stroke-width: 2px"/>
    </g>
    <g>
      <path d="M998.25,872.51s30,5.21,41,7.81,60.07,20,65.53,22.57,10,20,10,20l-16.38,14.75S1072,915.91,1056.49,902s-45.5-25.17-68.25-28.64-42.77,6.08-57.33,19.09-15.47,45.13-15.47,45.13l33.67,18.23-12.74-20s9.1-25.17,15.47-30.38,17.29-19.09,35.49-18.22,56.42,10.41,61,13,15.47,10.41,15.47,10.41" style="fill: #fff7ab;stroke: #000;stroke-miterlimit: 10;stroke-width: 3px"/>
      <path d="M1206.65,917.64s11.83-3.47,17.29-5.2,13.65-7.82,13.65-7.82-30.94-13.88-47.32-13c-13,.68-29.42.28-39.74,2.68a22,22,0,0,0-6.67,2.52c-8.19,5.21-20.93,13.89-22.75,20.83l-1.82,5.21h3.64s10-21.7,28.21-24.3,39.13-2.6,44.59,3.47,7.28,8.68,7.28,11.28S1206.65,917.64,1206.65,917.64Z" style="fill: #fff7ab;stroke: #000;stroke-miterlimit: 10;stroke-width: 3px"/>
      <path d="M1093.81,896.81s34.58-1.73,38.22-1.73,13.65-.87,13.65-.87" style="fill: #fff7ab;stroke: #000;stroke-miterlimit: 10;stroke-width: 3px"/>
      <path d="M1057.4,957.57s41.87-13.89,51-18.23,33.67-14.75,48.23-14.75,41.86,6.07,49.14,6.94,30,8.68,35.49,11.28,21.84,9.55,21.84,9.55l21.84.87-1.82-2.61s-1.82.87-10-2.6-25.48-14.75-25.48-14.75-17.29-10.42-29.12-13S1193,915,1183.9,915s-37.31-.87-47.32,1.74-21.84,6.07-21.84,6.07l-16.38,14.75-41,17.36Z" style="fill: #fff7ab;stroke: #000;stroke-miterlimit: 10;stroke-width: 3px"/>
      <polyline points="1289.46 974.92 1198.46 940.21 1187.54 935.87" style="fill: #fff7ab;stroke: #000;stroke-miterlimit: 10;stroke-width: 3px"/>
      <path d="M1143.86,903.76s19.11.86,27.3,1.73,29.12,4.34,29.12,4.34" style="fill: #fff7ab;stroke: #000;stroke-miterlimit: 10;stroke-width: 3px"/>
      <path d="M1156.6,898.55s33.67,3.47,37.31,4.34" style="fill: #fff7ab;stroke: #000;stroke-miterlimit: 10;stroke-width: 3px"/>
      <path d="M1135.67,908.1s52.78,3.47,57.33,4.34a101.69,101.69,0,0,1,10,2.6" style="fill: #fff7ab;stroke: #000;stroke-miterlimit: 10;stroke-width: 3px"/>
      <line x1="1128.89" y1="913.33" x2="1146.59" y2="913.3" style="fill: #fff7ab;stroke: #000;stroke-miterlimit: 10;stroke-width: 3px"/>
      <path d="M896.33,944.55h-18.2s-3.64-17.36-2.73-19.1,1.82-6.94,5.46-6.94,15.47,7.81,15.47,7.81Z" style="fill: #fff7ab;stroke: #000;stroke-miterlimit: 10;stroke-width: 3px"/>
      <line x1="882.68" y1="917.64" x2="915.44" y2="917.64" style="fill: #fff7ab;stroke: #000;stroke-miterlimit: 10;stroke-width: 3px"/>
      <polyline points="887.9 921.27 904.52 934.13 917.26 940.21" style="fill: #fff7ab;stroke: #000;stroke-miterlimit: 10;stroke-width: 3px"/>
      <line x1="979.14" y1="888.13" x2="979.14" y2="981.87" style="fill: #fff7ab;stroke: #000;stroke-miterlimit: 10;stroke-width: 3px"/>
      <line x1="1009" y1="890.22" x2="1009" y2="986.21" style="fill: #fff7ab;stroke: #000;stroke-miterlimit: 10;stroke-width: 3px"/>
      <line x1="1031.01" y1="895.08" x2="1031.01" y2="973.19" style="fill: #fff7ab;stroke: #000;stroke-miterlimit: 10;stroke-width: 3px"/>
      <line x1="1049.12" y1="900.29" x2="1049.12" y2="1006.17" style="fill: #fff7ab;stroke: #000;stroke-miterlimit: 10;stroke-width: 3px"/>
      <line x1="1065.59" y1="910.7" x2="1065.59" y2="950.62" style="fill: #fff7ab;stroke: #000;stroke-miterlimit: 10;stroke-width: 3px"/>
      <line x1="965.49" y1="894.21" x2="965.49" y2="984.47" style="fill: #fff7ab;stroke: #000;stroke-miterlimit: 10;stroke-width: 3px"/>
      <line x1="956.21" y1="900.29" x2="956.21" y2="992.28" style="fill: #fff7ab;stroke: #000;stroke-miterlimit: 10;stroke-width: 3px"/>
      <line x1="935.46" y1="973.19" x2="1081.07" y2="973.19" style="fill: #fff7ab;stroke: #000;stroke-miterlimit: 10;stroke-width: 3px"/>
      <line x1="935.46" y1="989.68" x2="1081.07" y2="989.68" style="fill: #fff7ab;stroke: #000;stroke-miterlimit: 10;stroke-width: 3px"/>
      <line x1="1049.12" y1="974.92" x2="1049.12" y2="1003.57" style="fill: #fff7ab;stroke: #000;stroke-miterlimit: 10;stroke-width: 3px"/>
      <line x1="1065.59" y1="974.92" x2="1065.59" y2="1006.17" style="fill: #fff7ab;stroke: #000;stroke-miterlimit: 10;stroke-width: 3px"/>
      <line x1="1009" y1="977.53" x2="1009" y2="1006.17" style="fill: #fff7ab;stroke: #000;stroke-miterlimit: 10;stroke-width: 3px"/>
      <line x1="979.14" y1="977.53" x2="979.14" y2="1006.17" style="fill: #fff7ab;stroke: #000;stroke-miterlimit: 10;stroke-width: 3px"/>
      <line x1="965.49" y1="974.92" x2="965.49" y2="1006.17" style="fill: #fff7ab;stroke: #000;stroke-miterlimit: 10;stroke-width: 3px"/>
      <line x1="956.21" y1="973.19" x2="956.21" y2="1006.17" style="fill: #fff7ab;stroke: #000;stroke-miterlimit: 10;stroke-width: 3px"/>
      <polyline points="946.5 973.19 946.38 1008.2 946.38 1025.26" style="fill: #fff7ab;stroke: #000;stroke-miterlimit: 10;stroke-width: 3px"/>
      <polyline points="904.52 1006.17 854.47 1006.17 1093.81 1006.17 1093.81 1025.26" style="fill: none;stroke: #000;stroke-miterlimit: 10;stroke-width: 3px"/>
      <polyline points="1266.71 1025.26 1263.1 1025.26 854.47 1025.26" style="fill: #fff7ab;stroke: #000;stroke-miterlimit: 10;stroke-width: 3px"/>
      <line x1="1263.07" y1="964.51" x2="1263.07" y2="1025.26" style="fill: #fff7ab;stroke: #000;stroke-miterlimit: 10;stroke-width: 3px"/>
      <polyline points="1235.77 1008.77 1204.83 1008.77 1204.83 992.28 1237.59 992.28" style="fill: none;stroke: #000;stroke-miterlimit: 10;stroke-width: 3px"/>
      <polyline points="1230.31 988.81 1230.31 954.96 1168.43 954.96 1168.43 1010.51 1134.76 1010.51" style="fill: none;stroke: #000;stroke-miterlimit: 10;stroke-width: 3px"/>
      <path d="M1187.54,972.32s16.38-6.07,24.57-5.21,22.75,5.21,26.39,6.08,11.83,1.73,11.83,1.73" style="fill: none;stroke: #000;stroke-miterlimit: 10;stroke-width: 3px"/>
      <line x1="1134.76" y1="955.83" x2="1168.43" y2="955.83" style="fill: #fff7ab;stroke: #000;stroke-miterlimit: 10;stroke-width: 3px"/>
      <line x1="1167.52" y1="974.92" x2="1134.76" y2="974.92" style="fill: #fff7ab;stroke: #000;stroke-miterlimit: 10;stroke-width: 3px"/>
      <line x1="1167.52" y1="992.28" x2="1134.76" y2="992.28" style="fill: #fff7ab;stroke: #000;stroke-miterlimit: 10;stroke-width: 3px"/>
      <line x1="854.47" y1="989.68" x2="902.7" y2="989.68" style="fill: #fff7ab;stroke: #000;stroke-miterlimit: 10;stroke-width: 3px"/>
      <line x1="854.47" y1="974.92" x2="902.7" y2="974.92" style="fill: #fff7ab;stroke: #000;stroke-miterlimit: 10;stroke-width: 3px"/>
      <line x1="854.47" y1="957.57" x2="902.7" y2="957.57" style="fill: #fff7ab;stroke: #000;stroke-miterlimit: 10;stroke-width: 3px"/>
      <polyline points="868.12 1025.26 868.12 950.62 879.04 944.55" style="fill: #fff7ab;stroke: #000;stroke-miterlimit: 10;stroke-width: 3px"/>
      <line x1="1229.86" y1="1010.07" x2="1229.86" y2="1025.26" style="fill: #fff7ab;stroke: #000;stroke-miterlimit: 10;stroke-width: 3px"/>
      <line x1="1167.97" y1="1010.07" x2="1167.97" y2="1025.26" style="fill: #fff7ab;stroke: #000;stroke-miterlimit: 10;stroke-width: 3px"/>
      <line x1="1075.15" y1="1007.47" x2="1075.15" y2="1025.26" style="fill: #fff7ab;stroke: #000;stroke-miterlimit: 10;stroke-width: 3px"/>
      <line x1="1056.95" y1="1007.47" x2="1056.95" y2="1025.26" style="fill: #fff7ab;stroke: #000;stroke-miterlimit: 10;stroke-width: 3px"/>
      <line x1="1041.29" y1="1006.17" x2="1041.29" y2="1025.26" style="fill: #fff7ab;stroke: #000;stroke-miterlimit: 10;stroke-width: 3px"/>
      <line x1="1024.19" y1="1007.47" x2="1024.19" y2="1025.26" style="fill: #fff7ab;stroke: #000;stroke-miterlimit: 10;stroke-width: 3px"/>
      <line x1="1003.26" y1="1007.47" x2="1003.26" y2="1026.41" style="fill: #fff7ab;stroke: #000;stroke-miterlimit: 10;stroke-width: 3px"/>
      <line x1="917.71" y1="1007.47" x2="917.71" y2="1026.41" style="fill: #fff7ab;stroke: #000;stroke-miterlimit: 10;stroke-width: 3px"/>
      <line x1="931.45" y1="1006.17" x2="931.45" y2="1025.26" style="fill: #fff7ab;stroke: #000;stroke-miterlimit: 10;stroke-width: 3px"/>
      <line x1="939.55" y1="1007.47" x2="939.55" y2="1025.26" style="fill: #fff7ab;stroke: #000;stroke-miterlimit: 10;stroke-width: 3px"/>
      <line x1="959.57" y1="1007.47" x2="959.57" y2="1025.26" style="fill: #fff7ab;stroke: #000;stroke-miterlimit: 10;stroke-width: 3px"/>
      <line x1="974.14" y1="1007.47" x2="974.14" y2="1025.26" style="fill: #fff7ab;stroke: #000;stroke-miterlimit: 10;stroke-width: 3px"/>
      <line x1="988.7" y1="1007.47" x2="988.7" y2="1025.26" style="fill: #fff7ab;stroke: #000;stroke-miterlimit: 10;stroke-width: 3px"/>
    </g>
    <g>
      <path d="M87.72,979.21s6.7,12.73,10,16.08,2,0,6,8,22.11,24.12,22.11,24.12H321.57s-2.68-2.68-6-2.68-1.34-3.35-1.34-3.35,10.72-10,18.09-15.41,26.81-19.43,26.81-19.43-49.25,12.4-62.65,15.08-16.08,2-16.08,2S263.61,1005,254.9,1005c-.94,0-2.52,0-4.58,0-16.93.11-66.44.65-66.44.65l-12.06.67s-20.11-4-26.14-12.06-11.39-14.75-11.39-14.75Z" style="fill: #c69c6d;stroke: #000;stroke-miterlimit: 10;stroke-width: 3px"/>
      <path d="M114.19,966.14h136s-8.71-8-15.41-8.71-103.86,0-103.86,0S120.89,958.1,114.19,966.14Z" style="fill: #c69c6d;stroke: #000;stroke-miterlimit: 10;stroke-width: 3px"/>
      <line x1="199.6" y1="967.45" x2="199.29" y2="1005.51" style="fill: none;stroke: #000;stroke-miterlimit: 10;stroke-width: 3px"/>
      <line x1="223.6" y1="967.45" x2="223.6" y2="1005.45" style="fill: none;stroke: #000;stroke-miterlimit: 10;stroke-width: 3px"/>
      <line x1="250.6" y1="966.45" x2="250.21" y2="1005.68" style="fill: none;stroke: #000;stroke-miterlimit: 10;stroke-width: 3px"/>
      <line x1="160.6" y1="966.45" x2="161.6" y2="1002.95" style="fill: none;stroke: #000;stroke-miterlimit: 10;stroke-width: 3px"/>
      <line x1="179.86" y1="966.14" x2="179.86" y2="1005.68" style="fill: none;stroke: #000;stroke-miterlimit: 10;stroke-width: 3px"/>
      <line x1="133.6" y1="965.45" x2="133.62" y2="978.87" style="fill: none;stroke: #000;stroke-miterlimit: 10;stroke-width: 3px"/>
      <line x1="114.19" y1="966.14" x2="114.19" y2="978.87" style="fill: none;stroke: #000;stroke-miterlimit: 10;stroke-width: 3px"/>
      <line x1="134.1" y1="978.95" x2="250.6" y2="977.95" style="fill: none;stroke: #000;stroke-miterlimit: 10;stroke-width: 3px"/>
      <line x1="145.68" y1="994.29" x2="250.21" y2="994.29" style="fill: none;stroke: #000;stroke-miterlimit: 10;stroke-width: 3px"/>
      <line x1="250.21" y1="975.62" x2="279.31" y2="1004.72" style="fill: none;stroke: #000;stroke-miterlimit: 10;stroke-width: 3px"/>
      <polyline points="252.22 986.91 269.64 1004.34 252.22 990.26 260.93 1004.72" style="fill: none;stroke: #000;stroke-linecap: round;stroke-linejoin: round;stroke-width: 3px"/>
      <polyline points="256.28 981.69 256.28 990.98 261.13 995.82 261.13 987.59 269.12 995.58 269.12 1005.01" style="fill: none;stroke: #000;stroke-miterlimit: 10;stroke-width: 3px"/>
      <line x1="94.41" y1="979.21" x2="94.41" y2="960.46" style="fill: none;stroke: #000;stroke-miterlimit: 10;stroke-width: 3px"/>
      <g>
        <path d="M72.49,888.51S56.66,914.89,56.66,933,65,966.14,65,966.14l45.22-9.79s-7.54-11.31-6-24.88,6-21.85,6-21.85Z" style="fill: #ed1c24;stroke: #000;stroke-miterlimit: 10;stroke-width: 3px"/>
        <line x1="95.64" y1="901.48" x2="95.64" y2="876.45" style="fill: none;stroke: #000;stroke-miterlimit: 10;stroke-width: 3px"/>
        <line x1="64.53" y1="904.06" x2="104.14" y2="931.47" style="fill: none;stroke: #000;stroke-miterlimit: 10;stroke-width: 3px"/>
        <line x1="104.14" y1="938.83" x2="56.66" y2="926.56" style="fill: none;stroke: #000;stroke-miterlimit: 10;stroke-width: 3px"/>
        <path d="M106,947.36s-11.11-1.68-20.71-3.83c-5.93-1.33-28.64-3.47-28.64-3.47" style="fill: none;stroke: #000;stroke-miterlimit: 10;stroke-width: 3px"/>
        <path d="M107.79,951.89s-39.47,2-47.76,2.79" style="fill: none;stroke: #000;stroke-miterlimit: 10;stroke-width: 3px"/>
      </g>
      <path d="M226.09,953.41s20.77-5.36,34.84-4,36.86,2,36.86,2-.67-4.69,0-20.1-1.34-37.52-4-41.54S269,877.7,269,877.7,266.6,881,254.6,886c-12.32,5.13-15,5-15,5l1.9,17.57-4.69,15.41-2,11.39Z" style="fill: #ed1c24;stroke: #000;stroke-miterlimit: 10;stroke-width: 3px"/>
      <path d="M234.6,935s24.32-1,35,.37,27.91,3.2,27.91,3.2" style="fill: none;stroke: #000;stroke-miterlimit: 10;stroke-width: 3px"/>
      <polyline points="236.81 923.93 279.02 923.93 297.79 931.3" style="fill: none;stroke: #000;stroke-miterlimit: 10;stroke-width: 3px"/>
      <path d="M241.5,908.52c4,.67,39.45,6.23,40.88,6.7C287.6,917,297.55,922,297.55,922" style="fill: none;stroke: #000;stroke-miterlimit: 10;stroke-width: 3px"/>
      <polyline points="254.6 885.95 287.07 901.82 297.38 910.5" style="fill: none;stroke: #000;stroke-miterlimit: 10;stroke-width: 3px"/>
      <line x1="286.61" y1="1003.33" x2="286.6" y2="951.45" style="fill: none;stroke: #000;stroke-miterlimit: 10;stroke-width: 3px"/>
      <line x1="286.4" y1="885.45" x2="286.4" y2="863.62" style="fill: none;stroke: #000;stroke-miterlimit: 10;stroke-width: 3px"/>
      <polygon points="327.94 927.95 313.87 949.39 311.86 990.26 356.75 979.54 348.71 949.39 327.94 927.95" style="fill: #ed1c24;stroke: #000;stroke-miterlimit: 10;stroke-width: 3px"/>
      <line x1="314.1" y1="948.95" x2="349.1" y2="949.39" style="fill: none;stroke: #000;stroke-miterlimit: 10;stroke-width: 3px"/>
      <path d="M313.6,959c3,0,38.06,1.51,38.06,1.51" style="fill: none;stroke: #000;stroke-miterlimit: 10;stroke-width: 3px"/>
      <path d="M312.6,982c5-1,42-9,42-9s-37-2-41-2" style="fill: none;stroke: #000;stroke-linejoin: round;stroke-width: 3px"/>
      <line x1="337.26" y1="992.02" x2="337.6" y2="924.45" style="fill: none;stroke: #000;stroke-miterlimit: 10;stroke-width: 3px"/>
      <path d="M118.21,995.63s-2,8,0,9.38a18.13,18.13,0,0,0,5.36,2h4.69Z"/>
      <path d="M139.65,1012.38l2.68,4.69h10v-2.68S145.68,1008.36,139.65,1012.38Z"/>
      <path d="M169.14,1019.08c-.17,1.49,13.4.67,13.4.67s0-4.69-5.36-4.69S169.81,1013.05,169.14,1019.08Z"/>
      <path d="M198,1018.41l12.06,1.34,1.34-4.69a17.85,17.85,0,0,0-9.38-1.34C196.61,1014.39,198,1018.41,198,1018.41Z"/>
      <path d="M226.09,1019.75h14.07l1.34-3.35s-8-1.34-10.05-1.34S222.74,1015.73,226.09,1019.75Z"/>
      <path d="M258.92,1019.75h10.72s2-4-5.36-4.69S258.92,1019.75,258.92,1019.75Z"/>
    </g>
  </g>  <g id="faceBody">
    <g>
      <path d="M692.17,674.13l-58-25s-47-41-55-66c-1.6-5-3.24-11.61-4.84-19s-10.72,31-12.16,23c-.63-3.5,6.32-53.52,5.75-56.93-.71-4.19-15.14,12.73-15.75,8.93-.65-4.1,12.52-28.89,12-32.23s-16.69,18.51-17,16.23c-.46-3.2,15-30,15-30s-9-42-13-55c-2.59-8.42-16.15-41.59-19-46-11-17,5-86,5-86s51,15,90,57c13.7,14.75,47,73,47,73l14,12,47-7,27,2,40,8a436.64,436.64,0,0,1,47-77c31.6-41.26,73.28-62.84,74-59,12,64-12,182-12,182l10,26-10-7.08s10,49.08,5,35.08c-1.35-3.78-8.38-13.71-8.38-13.71l-1.11,27.24a1.8,1.8,0,0,1-3.54.36l-2.2-8.76-13.77,37.87s-39,59-70,67-45,20-45,25,9,20,9,20l8,35,68-7,56-15,24-116,20-58s14-10,22-8-2,48-15,73c-10.24,19.7-18,80-18,80l-17,52-66,14-63,14,53,283,23,105s-107,2-194-4c-8.22-.56-44-41-39-51s26-357,31-362,22-50,22-50Z" style="fill: #fff;stroke: #000;stroke-miterlimit: 10;stroke-width: 3px"/>
      <path d="M764.67,1155.37s-4.5-20.24,7.5-22.24,26,0,26,0,13-4,16-1,7,2,12-1-37-237-37-237" style="fill: none;stroke: #000;stroke-miterlimit: 10;stroke-width: 3px"/>
      <path d="M640.23,1132.09S611.14,1151,623.11,1156s23,.11,25-.88,12-.94,12,.06,16.5-.63,16.5-.63S655.29,1120.17,640.23,1132.09Z" style="fill: #fff;stroke: #000;stroke-miterlimit: 10;stroke-width: 3px"/>
      <path d="M868,1125.72s19,5.9,46.19,7.41c36,2,149-15.29,144-9-8,10-29,11-85,21s-103.79-13.38-103.79-13.38Z" style="fill: #fff;stroke: #000;stroke-miterlimit: 10;stroke-width: 3px"/>
      <path d="M672.17,754.13s-21,7-24,11-6,21-6,21-7,33-8,35-16,110-18,113-13,32-15,38-12,20-14,26-32,77-32,77,0,12,7,10,70-137,70-152,10-52,10-55,7-72,7-72l19-13" style="fill: #fff;stroke: #000;stroke-miterlimit: 10;stroke-width: 3px"/>
      <path d="M546.67,334.63s4.1,22.74,8.43,44.32c.95,4.72,9.29,38.33,10.57,42.68,5,17,10,60,10,60s15-15,33-22,58-10,58-10-39-55-53-69S546.67,334.63,546.67,334.63Z" style="fill: #f50"/>
      <path d="M820.67,452.63s36-43,40-51,45-62,51-67-2,54-9,73-17,67-17,67-21-11-32-15S820.67,452.63,820.67,452.63Z" style="fill: #f50"/>
    </g>
  </g>  <g id="bell">
    <path d="M690,713s27,14,46,13,46-18,46-18" style="fill: none;stroke: #ff4200;stroke-miterlimit: 10;stroke-width: 6px"/>
    <g>
      <g>
        <g>
          <g>
            <path d="M774.65,753.17c-1-1.2-3.6-2-7.44-2.24a32.59,32.59,0,0,0-60,23.32c-5.57,5.15-8.64,10.08-6.3,12.84,2.07,2.44,9.37,2.12,13.54,1.71a32.6,32.6,0,0,0,56.86-26.24C774,760.68,777.87,757,774.65,753.17Z" style="fill: #24ba00"/>
            <path d="M736.24,803.08a35.51,35.51,0,0,1-23-11c-11.42.87-13.83-2-14.64-2.93-2.31-2.71-3.16-7.65,5.29-16A35.72,35.72,0,0,1,769,747.94c3.86.41,6.55,1.49,8,3.21a7.58,7.58,0,0,1,1.91,5.9c-.35,2.82-2.29,5.17-4.27,6.87a36.47,36.47,0,0,1,.06,6.44A35.77,35.77,0,0,1,736.24,803.08ZM715.8,785.52l1.06,1.23a29.46,29.46,0,0,0,51.63-16.89,30.08,30.08,0,0,0-.24-6.83l-.29-1.9,1.56-1.12c2.22-1.6,3.11-3,3.2-3.72,0-.14.06-.47-.44-1.07-.29-.26-1.76-1-5.24-1.16l-1.68-.09-.85-1.44a29.46,29.46,0,0,0-54.2,21.07l.65.39-1.46,2.39c-6,5.59-6.34,8.47-6.16,8.68.45.41,3.32,1.36,10.84.62Z" style="fill: #0000b4"/>
          </g>
          <path d="M708.15,777.53l-2.69-5.27c.38-.43,9.7-10.61,27.08-17a139.37,139.37,0,0,1,34.15-7.54l.45,6.25a105.07,105.07,0,0,0-32.34,5.92C719,765.72,708.24,777.44,708.15,777.53Z" style="fill: #0000b4"/>
        </g>
        <g>
          <path d="M737.53,781.11a34.85,34.85,0,0,0,3.58,7.64,8.78,8.78,0,1,0-5.21,1.09,40.67,40.67,0,0,1-3.16-7.24Z" style="fill: #0000b4"/>
          <path d="M752,794.36a.49.49,0,0,1,.1-.09s-1.81,1.33-6.21-.74a12.89,12.89,0,0,1-4.76-4.78,8.68,8.68,0,0,1-5,1.11l-.18,0c1.81,3.21,4.4,6.6,7.83,8.22a16.19,16.19,0,0,0,5.61,1.62,7.9,7.9,0,0,0,6.15-1.73Z" style="fill: #0000b4"/>
          <path d="M741.11,788.75a34.85,34.85,0,0,1-3.58-7.64l-4.79,1.49a40.67,40.67,0,0,0,3.16,7.24l.18,0A8.68,8.68,0,0,0,741.11,788.75Z" style="fill: #0000b4"/>
        </g>
      </g>
      <circle cx="732.26" cy="730.42" r="5.64" style="fill: #0000b4"/>
    </g>
  </g>  <g id="nose">
    <path d="M726.58,548.06c-3.83,1.15-13.5,2.5-7.5,7.5s14,13,14,13v30l-4.5,11.5,6.5-4.5,8.5,3.5-6.5-17.5.5-23.5s12.5-10.5,14.5-12.5S746.58,542.06,726.58,548.06Z"/>
  </g>  <g id="eyes">
    <path d="M777.13,534.69s-4.46-14.73,14-23c29-13,77,0,89,6s26.23,9.21,26.12,17c-.12,8-29.12,18-71.12,28C800.91,570.84,778.13,540.69,777.13,534.69Z" style="fill: #03a3db;stroke: #000;stroke-miterlimit: 10"/>
    <path d="M566.45,525.26c2.44,4.67,32.47,25.56,73.68,32.43,12,2,39-2,41-32,.33-5.09-19-27-57-27C612.08,498.69,555.78,504.82,566.45,525.26Z" style="fill: #03a3db;stroke: #000;stroke-miterlimit: 10"/>
    <path d="M812.13,529.69s2.27,25.31,8.13,25.66,9.87-25.66,9.87-25.66-3-25.35-9.52-19.18S812.13,529.69,812.13,529.69Z"/>
    <path d="M643.44,508s-7.31,14.09-6.31,18.62-.37,17.83,6.31,18.51a11.58,11.58,0,0,0,12.69-10.37C657.63,522.19,655.76,500.21,643.44,508Z"/>
  </g>  <g id="luckyItem">
    <g>
      <polygon points="432.56 830.19 429.17 898.63 428.8 946.41 429.82 997.06 430.87 1046.28 431.05 1068.04 443.15 1070.98 470.94 1075.48 509.83 1072.58 536.91 1075.64 576.85 1075.95 612.5 1076.23 659.61 1071.61 671.08 1065.28 676.83 1059.62 679.08 1044.66 679.39 1004.72 681.96 949.82 680.78 919.14 678.84 893.45 677.18 832.1 652.41 807.66 614.14 776.69 602.08 768.04 592.84 764.4 577.15 764.27 529.02 761.4 519.03 762.04 507.6 764.8 487.86 780.69 464.17 801.19 432.56 830.19"/>
      <path d="M440.75,832l-4.27,89.12,1,52.08,1.5,82s2.08,7.86,5.64,8.6,46.33,3.93,46.33,3.93l62,.49,30.67.24s26.4-1.22,28.53.22,23.53.19,23.53.19l15-3.45,10-2.78,7.89-5.64,3.3-11,.35-44.93.1-12.84,3.73-21.37.27-33.52-3.32-32.12-1.85-37.1-.48-30-35.39-34.51-12.74-12.23-22.7-15.15L580,767.86,540,767.55l-25.67-.2L495,780,472,802,445.43,825.3Z" style="fill: red"/>
      <path d="M541.39,822.12s-1.54,14.26-.14,17.83a16.47,16.47,0,0,0,6,7.54c2.13,1.44,7.82,2.91,10,2.22s7.89-5.65,9.34-9.2,1.53-12.12,1.53-12.12L566,822l10.7-.63s3.49,9.3,2.73,15S575.75,852,568.59,855.5a33.87,33.87,0,0,1-23.56,2c-7.11-2.2-13.48-8-14.15-14.38s1-16.42,1-16.42Z"/>
      <path d="M535.29,826.71s-2.88,3.55-2.93,10,1.34,11.43,6.31,14.32a29.81,29.81,0,0,0,17.8,3.7C562.89,854,570,852,573,844.84s.89-22.11.89-22.11l-3.57,0s1.33,12.84-1.57,18.53-2.92,8.53-8.64,9.92a21.11,21.11,0,0,1-15-1.55c-4.27-2.17-8.52-5.77-7.75-12.18s1.5-10,1.5-10Z" style="fill: #fff"/>
      <g style="opacity: 0.79">
        <path d="M496.16,882.49a12.56,12.56,0,0,0-13.06-21.08,12.56,12.56,0,0,0-24,5.08,11.74,11.74,0,0,0,.24,2.53h-.26a12.55,12.55,0,0,0-1.8,25,12.56,12.56,0,0,0,12.16,15.29,12.55,12.55,0,0,0,11.36-7,12.55,12.55,0,0,0,15.36-19.78Z" style="fill: #ffbdde;stroke: #fff;stroke-miterlimit: 10;stroke-width: 5px"/>
        <circle cx="475.07" cy="872.59" r="2.2" style="fill: #fff"/>
        <circle cx="475.54" cy="892.69" r="2.2" style="fill: #fff"/>
        <circle cx="466.15" cy="888.22" r="2.2" style="fill: #fff"/>
        <circle cx="466.23" cy="878.17" r="2.2" style="fill: #fff"/>
        <circle cx="484.69" cy="888.05" r="1.88" style="fill: #fff"/>
        <circle cx="483.83" cy="877.05" r="2.2" style="fill: #fff"/>
        <line x1="468.36" y1="887.29" x2="482.25" y2="877.98" style="fill: none;stroke: #fff;stroke-miterlimit: 10"/>
        <line x1="475.24" y1="890.49" x2="475.37" y2="874.79" style="fill: none;stroke: #fff;stroke-miterlimit: 10"/>
        <line x1="482.81" y1="887.41" x2="468.42" y2="879.48" style="fill: none;stroke: #fff;stroke-miterlimit: 10"/>
      </g>
      <path d="M530,813.48a22,22,0,0,1-11.46,6.33A11.44,11.44,0,0,1,505.79,814c-1.4-2.86,1.88-12.47,4.76-15.3s8.61-7.06,13.6-6.31,12.78,7.23,12.78,7.23l2.87-2.83,6.46-4.23c2.15-1.41,7.16-4.22,7.16-4.22s-7.08-7.19-11.34-8.65-17.09-3.7-25-1.62a40.56,40.56,0,0,0-20.79,13.39c-5,6.38-11.57,20.59-6.65,29.9,5.65,10.7,14.16,12.95,21.29,13s15-.6,17.85-2.72,12.91-9.17,12.91-9.17Z"/>
      <path d="M531.45,816.34l2.12,2.16s-7.92,9.21-17.9,8.41-17-8-17.74-11.55-2.75-12.86,6.58-20.63,15.06-9.87,24.31-7.65,12.8,5.8,12.8,5.8L539.46,795s-6.37-5.76-14.93-5.83S508.1,792.62,503,800.43s-1.55,16.39-1.55,16.39,4.21,8.59,13.49,7.24S531.45,816.34,531.45,816.34Z" style="fill: #fff"/>
      <path d="M535,821.36l2.12,1.44s-5.77,8.52-15.05,9.16-19.95-2.3-24.2-5.9-8.47-11.48-7-17.88,8.68-16.34,14.42-20.57,10-6.34,17.88-6.28,15,2.25,17.81,3.7a26.6,26.6,0,0,1,5.67,4.33l-2.16,2.12s-4.23-6.45-10.64-7.22-10-1.5-16.4-.13-12.17,5.62-15.77,9.87-7.91,8.49-8,14.2,1.33,12.85,7,15.74,10.65,5.79,18.5,5.14S535,821.36,535,821.36Z" style="fill: #fff"/>
      <path d="M528.28,811.91s-.73-1.49.78-4.45,18.71-19.16,25.4-19.11,6.68,0,11.12,2.31,12.54,11.24,13.27,12.73.69,6.69-.81,8.91-12.75,15.49-15.73,17-6.72,3.67-11.16,2.15S528.28,811.91,528.28,811.91Z"/>
      <path d="M534,807.44a2.77,2.77,0,0,0,0,3.57,82,82,0,0,0,5.65,7.18,3.13,3.13,0,0,0,3.56.74c1.43-.7.74-3.56.74-3.56l-7.08-7.19C536.15,807.46,534,807.44,534,807.44Z" style="fill: #fff"/>
      <path d="M543.89,821.07s5.76-7.08,7.2-7.79,1.44-2.12,2.86-1.4,3.56.74,2.11,3.58-7.19,7.08-7.19,7.08-1.44,2.13-2.86,1.4S543.17,822.49,543.89,821.07Z" style="fill: #fff"/>
      <path d="M549.56,826.11s2.12,2.16,4.27,1.46,10-7.05,10-8.48-.7-2.15-2.84-2.16S549.58,824,549.56,826.11Z" style="fill: #fff"/>
      <path d="M556.12,807.62a3.72,3.72,0,0,0,.69,3.57s6.38,5,8.52,5.06,3.57-1.4,3.59-2.83-4.95-5.74-6.37-6.47-2.13-2.15-4.28-.74Z" style="fill: #fff"/>
      <path d="M561.87,802s6.39,4.33,7.1,5,1.41,1.44,2.84.74.74-3.56,0-5-3.53-4.31-5.68-3.61S562.6,800.54,561.87,802Z" style="fill: #fff"/>
      <path d="M539.06,800.35s-4.29,1.39-3.59,2.83,9.2,10.05,10.62,10.06,3.58-.68,4.3-2.1-.7-2.15-2.82-4.3S541.21,799.66,539.06,800.35Z" style="fill: #fff"/>
      <path d="M541.94,797.52s7.9-7.07,9.32-7.06,3.57,0,4.28.75-8.64,9.92-10.78,9.9S540.5,798.94,541.94,797.52Z" style="fill: #fff"/>
      <path d="M547.6,802.56s7.19-7.08,9.34-7.77,2.86-1.41,5-.68,2.11,4.3,1.4,4.29-8.63,8.49-10.05,8.48S548.29,805.42,547.6,802.56Z" style="fill: #fff"/>
      <g>
        <path d="M576.69,813.33a19,19,0,0,0,9.93,6.43,9.68,9.68,0,0,0,11.26-5.56c1.27-2.81-1.46-12.37-3.93-15.22s-7.43-7.12-11.79-6.45-11.28,7-11.28,7l-2.47-2.85-5.58-4.28c-1.86-1.42-6.2-4.28-6.2-4.28s6.29-7,10-8.4,15-3.42,21.83-1.24a35.44,35.44,0,0,1,18,13.56c4.31,6.39,9.81,20.56,5.38,29.71-5.1,10.51-12.57,12.61-18.8,12.57s-13.09-.81-15.56-2.95-11.15-9.27-11.15-9.27Z"/>
        <path d="M575.43,816.15l-1.89,2.1s6.78,9.24,15.52,8.6,15-7.66,15.67-11.18,2.59-12.7-5.45-20.53-13-10-21.13-7.94-11.27,5.57-11.27,5.57l1.85,2.13s5.66-5.61,13.14-5.55,14.31,3.65,18.61,11.45,1.12,16.26,1.12,16.26-3.81,8.44-11.9,7S575.43,816.15,575.43,816.15Z" style="fill: #fff"/>
        <path d="M572.27,821.07l-1.88,1.39s4.92,8.52,13,9.29,17.47-2,21.23-5.49S612.21,815,611,808.65s-7.36-16.3-12.31-20.58-8.68-6.42-15.53-6.48A35.63,35.63,0,0,0,567.57,785a23.94,23.94,0,0,0-5,4.2l1.85,2.14s3.79-6.33,9.4-7,8.74-1.34,14.34.12,10.55,5.73,13.64,10,6.79,8.53,6.74,14.18-1.34,12.71-6.35,15.49-9.4,5.58-16.25,4.82S572.27,821.07,572.27,821.07Z" style="fill: #fff"/>
      </g>
      <g style="opacity: 0.61">
        <path d="M650.9,1018.76a14.26,14.26,0,0,0-14.84-23.93,14.26,14.26,0,0,0-27,8.64l-.28,0a14.26,14.26,0,0,0-2,28.39,14.55,14.55,0,0,0-.34,3,14.26,14.26,0,0,0,27.05,6.41,14.26,14.26,0,0,0,17.44-22.47Z" style="fill: #ffbdde;stroke: #fff;stroke-miterlimit: 10;stroke-width: 5px"/>
        <circle cx="626.95" cy="1007.52" r="2.5" style="fill: #fff"/>
        <circle cx="627.49" cy="1030.35" r="2.5" style="fill: #fff"/>
        <circle cx="616.83" cy="1025.27" r="2.5" style="fill: #fff"/>
        <circle cx="616.92" cy="1013.86" r="2.5" style="fill: #fff"/>
        <circle cx="637.87" cy="1025.08" r="2.14" style="fill: #fff"/>
        <circle cx="636.9" cy="1012.59" r="2.5" style="fill: #fff"/>
        <line x1="619.33" y1="1024.22" x2="635.1" y2="1013.65" style="fill: none;stroke: #fff;stroke-miterlimit: 10"/>
        <line x1="627.15" y1="1027.85" x2="627.29" y2="1010.02" style="fill: none;stroke: #fff;stroke-miterlimit: 10"/>
        <line x1="635.73" y1="1024.35" x2="619.4" y2="1015.35" style="fill: none;stroke: #fff;stroke-miterlimit: 10"/>
      </g>
      <text transform="translate(521.76 933.35) rotate(0.45)" style="font-size: 64.04389190673828px;fill: #fff;font-family: HiraKakuProN-W6-83pv-RKSJ-H, Hiragino Kaku Gothic ProN"></text>
      <text transform="translate(521.16 1010.17) rotate(0.45)" style="font-size: 64.04389190673828px;fill: #fff;font-family: HiraKakuProN-W6-83pv-RKSJ-H, Hiragino Kaku Gothic ProN"></text>
      <path d="M548.61,783.94s-2-37.73-6.24-41.33-20.74,6.25-22.91,10.52-6.19,10.3-6.19,10.3l-11.61,7c-2.61,1.56-4.51,2.71-4.12,2.46,1.09-.68,6.93-18.47,10.53-22.72s14.38-14.86,23.66-14.79,15.69-.59,19.21,5.14S562,782.81,562,782.81l-6.48,7.69Z"/>
      <path d="M508.74,756.61s3.62-7.11,6.49-9.22,5-5,10.76-8.48,17.14-2.72,20,.16,8.31,20,9.72,28.6,3.42,18.61,3.42,18.61l-2.47,1.82-3.21.24-2-14.28-5.47-29.29s-.68-5-4.24-5a32.23,32.23,0,0,0-11.43,2c-3.58,1.4-11.47,7-13.63,9.88s-8,14.53-8,14.53l-7.16,3.89Z" style="fill: #fff"/>
      <path d="M429.09,909s-32.37,80.34-29.67,100.33S433.08,991,433.08,991l.12-15s-21.64,31.21-25.2,29.76,7.4-34.18,9.6-42,13.14-37.7,13.14-37.7Z"/>
      <path d="M429.63,914.62s-19.92,55.54-22.11,61.94-7.38,31.32-6,33.47,2.11,4.3,6.41,1.48S428.8,991,428.8,991l0-2.85s-21.58,22.65-23,22.64-2.13-.73-2.11-3.58,4.49-26.36,6-30.62S429,923.85,429,923.85Z" style="fill: #fff"/>
    </g>
    <path d="M529.75,1091.82s-4,14.72,4.35,17.83,51.25-29.83,58.48-44.94-13.3-15.3-26.86-1.15S537.29,1077.92,529.75,1091.82Z" style="fill: #fff;stroke: #000;stroke-miterlimit: 10;stroke-width: 3px"/>
  </g><g id="luckyCaption">
    <text transform="translate(561.31 1272.52)" style="font-size: 64.3827896118164px;font-family: HiraMaruProN-W4-83pv-RKSJ-H, Hiragino Maru Gothic ProN"><tspan style="letter-spacing: -0.03599058496540004em"></tspan><tspan x="62.07" y="0" style="letter-spacing: -0.04900361568613886em"></tspan><tspan x="123.29" y="0" style="letter-spacing: -0.017987709131464157em"></tspan><tspan x="186.52" y="0" style="letter-spacing: -0.020004880560203397em"></tspan><tspan x="249.61" y="0"></tspan></text>
  </g>  <g id="weather">
    <g>
      <path d="M1410,294.59c-4.56-13.18-20.85-9-20.85-9s7.81-11.57-6.44-22.88-30.54-7.15-30.54-7.15-7.66-13.59-26.23-16-28.42,15.16-28.42,15.16-7.24-7.24-23.52-3.08a24,24,0,0,0-16.59,14,21.5,21.5,0,0,0-14.2,5.06c-5.48.14-11.67.88-16.18,3.1-.44.22-.89.47-1.33.74a31.11,31.11,0,0,0-8,1,20,20,0,0,0-7.57,3.67,30.09,30.09,0,0,0-18.91-9.88c-15-2-23,12.26-23,12.26s-5.85-5.86-19-2.49A19.91,19.91,0,0,0,1134.41,295s-15-2-23.18,2-15.14,18.38-7.42,37.21,36.55,12.43,36.55,12.43,7.72,18.83,22.41,23.3,29.82-13.91,29.82-13.91,13.05,17,25.47,12.66a23.53,23.53,0,0,0,8.09-4.55,24.26,24.26,0,0,0,5.1,2.25c14.69,4.47,29.83-13.92,29.83-13.92s13.05,17,25.47,12.66a30,30,0,0,0,3.47-1.46l.73.25c18.16,5.52,36.88-17.2,36.88-17.2s16.13,21,31.49,15.64,15.73-15.75,15.73-15.75,15.48,2,22.88-6.44,2.84-21.66,2.84-21.66S1414.57,307.78,1410,294.59Z" style="fill: #29abe2"/>
      <path d="M1405.84,285.13c-4.56-13.19-20.85-9-20.85-9s7.82-11.56-6.44-22.87-30.54-7.15-30.54-7.15-7.66-13.6-26.22-16-28.43,15.16-28.43,15.16-7.23-7.25-23.52-3.08A24.19,24.19,0,0,0,1252.53,258a21,21,0,0,0-10.11,3.21c-6.14-.08-14.08.44-19.55,3.13a18,18,0,0,0-4,2.74,32.92,32.92,0,0,0-4.53.85,20.26,20.26,0,0,0-7.57,3.66,30,30,0,0,0-18.9-9.87c-15-2-23,12.26-23,12.26s-5.85-5.86-19-2.5a19.93,19.93,0,0,0-14.81,15.88s-15-2-23.18,2.06-15.14,18.38-7.43,37.21S1137,339,1137,339s7.71,18.83,22.4,23.3,29.83-13.91,29.83-13.91,13,17,25.47,12.65a23.8,23.8,0,0,0,8.09-4.54,24.29,24.29,0,0,0,5.1,2.24c14.69,4.47,29.83-13.91,29.83-13.91s13,17,25.47,12.66a27.16,27.16,0,0,0,5.39-2.54c17.51,3.4,34.89-17.69,34.89-17.69s16.13,21,31.49,15.65,15.73-15.75,15.73-15.75,15.48,2,22.88-6.45,2.84-21.66,2.84-21.66S1410.41,298.32,1405.84,285.13Z" style="fill: #d9f7ff;stroke: #29abe2;stroke-miterlimit: 10;stroke-width: 2px"/>
      <g>
        <path d="M1299.42,312.39s-9.05,9.05-24.12,6-21.1-21.1-18.09-33.16,9-15.07,15.08-18.08,14.74,0,14.74,0,6.36-30.15,33.49-30.15,39.19,30.15,39.19,30.15,25.85-8.17,31.88,6.9,1.27,38.31-16.81,41.33-24.12-6-24.12-6-11.44,13-28.29,12.4S1299.42,312.39,1299.42,312.39Z" style="fill: #29abe2"/>
        <path d="M1297.58,307s-9,9.05-24.12,6-21.1-21.1-18.08-33.16,9-15.07,15.07-18.08,14.74,0,14.74,0,6.36-30.15,33.49-30.15,39.19,30.15,39.19,30.15,24.11-3,30.14,12.06,3,33.15-15.07,36.17-24.12-6-24.12-6-9.6,13.72-26.45,13.11S1297.58,307,1297.58,307Z" style="fill: #fff"/>
      </g>
      <path d="M1227.93,305.89s-15.14,18.38-29.82,13.91-22.41-23.3-22.41-23.3-28.84,6.4-36.55-12.43-.75-33.19,7.42-37.21,23.18-2.06,23.18-2.06a19.91,19.91,0,0,1,14.81-15.87c13.17-3.37,19,2.49,19,2.49s8-14.23,23-12.26,21.21,13,21.21,13a30.49,30.49,0,0,1,24.7,5.78c11.53,9.15,5.21,18.51,5.21,18.51s13.17-3.37,16.87,7.3-7.63,19.36-7.63,19.36,3.69,10.67-2.3,17.52-18.5,5.21-18.5,5.21-.3,8.42-12.73,12.74S1227.93,305.89,1227.93,305.89Z" style="fill: #29abe2"/>
      <path d="M1224.57,298.24s-15.14,18.38-29.83,13.91-22.4-23.31-22.4-23.31-28.84,6.41-36.56-12.42-.74-33.19,7.42-37.22,23.19-2,23.19-2a19.93,19.93,0,0,1,14.81-15.88c13.16-3.36,19,2.49,19,2.49s8-14.22,23-12.26,21.21,13,21.21,13a30.45,30.45,0,0,1,24.7,5.78c11.53,9.15,5.21,18.5,5.21,18.5s13.17-3.36,16.86,7.3-7.63,19.37-7.63,19.37,3.7,10.67-2.29,17.52-18.51,5.21-18.51,5.21-.3,8.41-12.72,12.74S1224.57,298.24,1224.57,298.24Z" style="fill: #e4f2f7;stroke: #29abe2;stroke-miterlimit: 10;stroke-width: 2px"/>
      <path d="M1260.89,280s16.81,22.84,37,20,33.61-22.84,33.61-22.84,37,11.42,50.43-8.56,6.73-37.12-3.36-42.83-30.26-5.71-30.26-5.71,0-14.27-16.81-20-25.55,0-25.55,0S1297.87,183,1277.7,183s-30.26,11.42-30.26,11.42-16.81-5.71-33.62,2.85-10.08,20-10.08,20-16.81-5.71-23.54,5.71,6.73,22.84,6.73,22.84-6.73,11.42,0,20,23.53,8.57,23.53,8.57-1.06,9.47,14.6,16.16S1260.89,280,1260.89,280Z" style="fill: #29abe2"/>
      <path d="M1257.73,272s16.6,22.83,36.53,20,33.21-22.84,33.21-22.84,36.53,11.42,49.82-8.56,6.64-37.1-3.32-42.8-29.89-5.71-29.89-5.71,0-14.27-16.61-20-25.24,0-25.24,0-8-17.12-27.9-17.12-29.89,11.41-29.89,11.41-16.61-5.7-33.21,2.86-10,20-10,20-16.6-5.7-23.24,5.71,6.64,22.83,6.64,22.83-6.64,11.42,0,20,23.25,8.56,23.25,8.56-1.05,9.47,14.42,16.15S1257.73,272,1257.73,272Z" style="fill: #edf9fb;stroke: #29abe2;stroke-miterlimit: 10;stroke-width: 2px"/>
      <path d="M1191.8,329.14s-9,9.05-24.11,6-21.11-21.1-18.09-33.16,9-15.07,15.07-18.08,14.74,0,14.74,0,6.36-30.15,33.49-30.15,39.19,30.15,39.19,30.15,24.12-3,30.15,12.05,3,33.16-15.08,36.18-24.11-6-24.11-6-5.49,10.27-22.34,9.66A77.09,77.09,0,0,1,1191.8,329.14Z" style="fill: #29abe2"/>
      <path d="M1190,323.76s-9,9.05-24.11,6-21.1-21.1-18.09-33.16,9-15.07,15.07-18.09,14.74,0,14.74,0,6.37-30.14,33.5-30.14,39.18,30.14,39.18,30.14,24.12-3,30.15,12.06,3,33.16-15.07,36.18-24.12-6-24.12-6-5.48,10.27-22.33,9.66A77.1,77.1,0,0,1,1190,323.76Z" style="fill: #fff;stroke: #29abe2;stroke-miterlimit: 10;stroke-width: 3px"/>
    </g>
  </g>
<g id="generation">
  <text transform="translate(38.41 1285.15)" style="font-size: 65.69450378417969px;font-family: HiraKakuStd-W8-83pv-RKSJ-H, Hiragino Kaku Gothic Std"></text>
  <text transform="translate(200 1290)" style="font-size: 90px;font-family: MyriadPro-Regular, Myriad Pro"></text>
</g>  <g id="_5element" data-name="5element">
    <g>
      <g style="opacity: 0.49">
        <ellipse cx="1327.5" cy="1334.36" rx="129.5" ry="129.49" style="fill: #fa0"/>
      </g>
      <g>
        <path d="M1313.48,1308a1.94,1.94,0,0,1-1.68.64,69.2,69.2,0,0,1-4.72,6.57h23.62v4.4h-73.5v-4.4H1280a42.05,42.05,0,0,0-4-7.53l4.09-1.44h-11v-15.45h49.64v15.45h-9.61Zm15.7-25.86v4.17h-70.3v-4.17Zm-7.37-28.42v23.94h-55.72V1253.7h16.81v-6.65l6.16.41c-.08.56-.48,1-1.44,1v5.2h12v-6.65l6.25.41c-.08.56-.48,1-1.52,1v5.2Zm-50.84,4v5.93h11.93v-5.93Zm0,9.85v6.09h11.93v-6.09Zm3.2,27.14v7.61h39.23v-7.61ZM1302,1315a62.59,62.59,0,0,0,5.52-8.81h-27.06a35.32,35.32,0,0,1,4.72,8.81l-.4.16h17.54Zm-2.33-57.33h-12v5.93h12Zm0,9.85h-12v6.09h12Zm17.14-3.92v-5.93h-12.41v5.93Zm0,10v-6.09h-12.41v6.09Z" style="fill: #fff"/>
        <path d="M1367.76,1251c-.16,1-1.12,1.36-2.64,1.44-.88,4.48-2.32,12.25-3.28,17,3.6-.4,6.88-.72,8.88-.72,12.17-.16,16.34,7.93,16.34,19.94a62.46,62.46,0,0,1-2.72,17.93c-2.49,8.17-7.61,12.09-14.26,12.09-3.28,0-7.6-1.36-14.49-7a30.54,30.54,0,0,0,2.16-4.89c6.41,5,9.77,6.09,12.25,6.09,4.57,0,7.29-2.89,8.89-8a60.45,60.45,0,0,0,2.56-16.41c-.08-9.13-3-14.57-11-14.49a92.15,92.15,0,0,0-9.76.8c-4,16.33-8.73,30.34-16.42,43.23l-5.28-2.56c7.77-12.41,12.17-24.82,15.93-40-4.08.48-9.92,1.2-14.25,1.92l-.48-5.61c3.92-.48,10.49-1.2,15.85-1.84,1.2-5.84,2.48-13,3.45-20.09Zm37.07,38.51a48,48,0,0,0-18-27.38l4.32-3.37c8.49,6,16.89,17.06,19.46,28.51Z" style="fill: #fff"/>
      </g>
    </g>
  </g>
<g id="manekiPower">
  <text transform="translate(205.81 1456.78)" style="font-size: 121.63294982910156px;fill: #070707;font-family: MyriadPro-Regular, Myriad Pro">437,141</text>
  <ellipse cx="82.99" cy="1415.19" rx="49.5" ry="49.5"/>
  <polygon points="82.92 1378.7 99.5 1378.7 81.54 1414.62 99.5 1414.62 68.55 1454.33 83.19 1421.63 67.58 1422.06 82.92 1378.7" style="fill: #fff"/>
  <text text-anchor="middle" transform="translate(1332 1425.38)" style="font-size: 104.09490966796875px;font-family: MyriadPro-Regular, Myriad Pro">10</text>
</g><g id="tokenID">\
<text text-anchor="end" transform="translate(1400 130)" style="font-size: 100px;font-family: MyriadPro-Regular, Myriad Pro">29</text>
</g>  <g id="logo">
    <path d="M412.51,140.41l-34.29.33-.26-2-.63-.18a104.29,104.29,0,0,1-14.72-5.72l-6.77,1.86c-.39.11-1,.25-3.32.81-3.36.81-9,2.16-15.29,3.74l-10.12,2.54s-3.56-10.09-3.59-10.19c-8.45,2.14-19,3.94-27.51,3.94-6.05,0-10.75-.93-14.39-2.84-1.07-.56-2.33-1.25-3.68-2.09l-.9,4-36.89-4.45.16-1-28.76,8.94-2.28-3.49-17.92,10.06-3.65-7.14a56.94,56.94,0,0,1-17,2.6,34,34,0,0,1-16-3.76l-1,5.35-42.15-7L113,123c.36-3.14.68-8.21,1-15.11l-14.18.69c1,5.49,2.33,12,4,19.37l2.89,12.81-41.83,7.75L61.46,138c-1.72-5.28-3.28-13.16-4.79-24.07a213.34,213.34,0,0,1-2.21-27.48c0-12,1.43-21.08,4.36-27.81C64.76,45,75.72,43.57,80.15,43.57c6.68,0,13.58,3.14,21.71,9.88l.28.23L105.65,57l1.86-1.85C115,47.55,121.65,44,128.5,44a26.65,26.65,0,0,1,23.1,12.34l.16-1.75,10.41-.14h1.68c30.77,0,40.88,4.13,45.53,8.57L225.26,63c1.22-.41,2.52-.8,3.86-1.16a65.15,65.15,0,0,1,13.67-2.24c.91-.05,1.81-.07,2.68-.07,10.49,0,19.06,3.24,25.49,9.63q.6.6,1.17,1.23A43.53,43.53,0,0,1,288.77,61a47.66,47.66,0,0,1,14.08-2.21,43.39,43.39,0,0,1,13,2,39.18,39.18,0,0,1,4.72,1.84c.16-1.15.34-2.36.53-3.62l1.79-12.14,41.85,8.73-2.84,11.7c-.2.83-.39,1.64-.58,2.44,5.07-2,9.61-3.7,13.55-4.93l4.28-15.3,10.47,2.16c2.91.6,25,6.41,33.22,8.48l-1.53,21.43,13.1,2.19c5.27.87,9.86-3.72,9.86-3.72.29-.83,1.27-16.34,1.6-17.1,5.78-13.26,16.46-14.7,20.78-14.7,6.5,0,13.2,3,21.09,9.59L488,58l3.25,3c.59-.58,1.15-1.13,1.66-1.66,7.26-7.32,13.74-10.73,20.41-10.73,12.26,0,21.77,7.08,26.09,19.42a41.63,41.63,0,0,1,1.43,5,45.4,45.4,0,0,1,5-1.87A46,46,0,0,1,559.48,69,42,42,0,0,1,572.09,71a35,35,0,0,1,9.77,4.8l1-.76c8.11-6,18.49-9.1,30.88-9.1,10.36,0,19.45,2.39,27.07,7.12.84-1.54,1.75-3.08,2.71-4.62l5-8L685,75.07l30.1-15.29,5.54,8.45a108.18,108.18,0,0,1,8.83,15.55,48.93,48.93,0,0,1,4.48,19.9c0,10.81-2.82,19.88-8.39,26.95-6.51,8.33-16.15,12.74-27.86,12.74a37.7,37.7,0,0,1-16-3.38,35.11,35.11,0,0,1-14.48,3c-8.78,0-16.16-2.45-22-7.3l-.55.46c-8.13,6.62-18.24,10-30.08,10s-21.81-2.61-29.85-7.78c-8.42,2.55-21.74,5.24-31.78,5.24-5.87,0-10.45-.91-14-2.77-.15-.07-.29-.15-.43-.23l-.55,2.89-41.08-6.78,1.33-11.7c.34-3,.65-7.81.93-14.36l-13.24.65c.95,5.25,2.23,11.42,3.82,18.47l2.84,12.57-40.76,7.55-2.65-8.15L432,144.3ZM236.19,100.59a94.65,94.65,0,0,0,4.44,15.5l1.3,3.34.2-1.19a83.12,83.12,0,0,0,.94-17.53c0-.93-.11-1.69-.19-2.3A17.16,17.16,0,0,0,236.19,100.59ZM608.66,106a12.36,12.36,0,0,0,4.86.84,11.57,11.57,0,0,0,4.67-.76,13.87,13.87,0,0,0-5.55-.92A7.61,7.61,0,0,0,608.66,106ZM679,88.07A42.34,42.34,0,0,0,674.9,95l14.64-.81c-.87-1.25-2-2.84-3.44-4.86l-4-5.54Z" style="fill: #0702b0"/>
    <path d="M401.41,92.58s16.63,9.5,28.33,8.82,28.32-12.21,28.32-12.21" style="fill: none;stroke: #ff2000;stroke-miterlimit: 10;stroke-width: 6px"/>
    <path d="M383.35,129.21c-.61-4.59-.66-12.3-.16-23.56a241,241,0,0,1,2.07-24.37l.05-.32-7.94-1.76L384,55.66l5.29,1.08c3.39.69,10.4,2.39,21.41,5.17l5.75,1.46L412.13,79.1l1.33.17-.92,5.88c-1.61,10.22-2.41,24.74-2.38,43.15v5.76L384,134.3Z" style="fill: #0702b0"/>
    <path d="M409.29,67.54l-3.31,12-21.35-4.71,3.51-12.43Q393,63.44,409.29,67.54Zm-4.94,60.77-15.24.14q-.84-6.31-.12-22.54a236.41,236.41,0,0,1,2-23.73l15.8,2.07Q404.31,100.1,404.35,128.31Z" style="fill: url(#Sky_2)"/>
    <path d="M387.08,113.63l-5.81,13.23a98.76,98.76,0,0,1-15.54-6.21q-7.51-3.7-14.93-7.52.6,3.3,2.5,9.82c-.73.2-8.85,2.09-18.54,4.49-4.14-11.62-5-24.44-5-36.66,0-9.56,1.16-18,3-30.67l18.42,3.81Q346.69,82.35,347,89.58q4-3.42,16.64-8.62a163.15,163.15,0,0,1,17.54-6.32L387,88l-14.83,4.61q-11.13,4-14.24,8,3.81,2.7,13.94,7.12A152.18,152.18,0,0,0,387.08,113.63Z" style="fill: url(#Sky_2-2)"/>
    <path d="M296,129.19c-5.15,0-9-.71-11.84-2.18-7.06-3.68-14.77-9.06-18.47-21.09-2.73-8.87-1.22-17.44,4.5-25.49a37.72,37.72,0,0,1,20.21-14.5,42.69,42.69,0,0,1,12.5-2,38.5,38.5,0,0,1,11.41,1.73c9.31,2.94,15.61,9,18.26,17.65,1.7,5.54,1.44,10.63-.79,15.12l-.07.14a18,18,0,0,1-2.68,3.77l4,19.93-5,1.54C319.64,126.43,306.06,129.19,296,129.19Z" style="fill: #0702b0"/>
    <path d="M327,85.07q1.89,6.14-.45,10.83t-8.68,6.55q-7.75,2.39-30.29,3.13c7.43,7.08,27.22,1.48,35.91-1.19l2.81,13.92c-10.35,3.19-32.14,7.37-39.48,3.55-6.85-3.57-12.63-8-15.6-17.64q-3.27-10.64,3.68-20.43a31.94,31.94,0,0,1,17.19-12.31,34.07,34.07,0,0,1,20.49-.22Q323.83,74.82,327,85.07Zm-14.67,3.46c-.67-2.17-2.64-3.48-5.93-3.94a19.87,19.87,0,0,0-18.55,8.22q20.1-1.14,23.45-2.18c.7-.21,1.12-.45,1.25-.7S312.55,89.3,312.31,88.53Z" style="fill: url(#Sky_2-3)"/>
    <path d="M210.76,127.16c-3.32-5-5.95-12-8-21.34a126.14,126.14,0,0,1-3.08-21.49c-.1-2-.06-5.4.1-10.43l.19-5.6,25.58-.08c1.36-.49,2.81-.94,4.38-1.35a60.11,60.11,0,0,1,12.62-2.06c10.13-.51,18.23,2.15,24.06,7.9s8.83,13.49,9.33,23.43a98.92,98.92,0,0,1-2.49,26.46l-1.14,5.12-26-3.11,1-6a87.67,87.67,0,0,0,1-18.78C248.05,94.4,247,93,247,93l-.09-.13c-.46-.64-2.07-1-4.2-.86-4.57.23-9,2-13.55,5.25a105.08,105.08,0,0,0,5.5,20.41l2.3,5.83-23.8,7.33Z" style="fill: #0702b0"/>
    <path d="M270.12,96.43a92.78,92.78,0,0,1-2.35,24.91L253,119.57a92.78,92.78,0,0,0,1.1-20q-.36-7.31-2.52-10.11-2.58-3.57-9.19-3.25-10,.51-19.54,8.62a114.62,114.62,0,0,0,6.38,25L215.61,124q-4.35-6.61-7.2-19.41A119.62,119.62,0,0,1,205.46,84q-.14-2.7.11-9.94l15,0,.16,3.3q3.57-3,10.7-4.85a54.1,54.1,0,0,1,11.45-1.88q12.71-.64,19.68,6.23T270.12,96.43Z" style="fill: url(#linear-gradient)"/>
    <path d="M189.47,129.88a52.37,52.37,0,0,1-20,4,28.22,28.22,0,0,1-19.68-7.51,25.59,25.59,0,0,1-8.41-19.49c0-10.12,3.77-18.18,11.21-24l1.11-.82,1.94-22.27,5.25-.07h1.62c36.34,0,41.22,5.95,42.83,7.9,5.2,6.33,4.3,23.63,3.64,31.08v9.06c0,3.19,1.11,6.91,3.3,11l2.67,5-22.26,12.38Z" style="fill: #0702b0"/>
    <path d="M207.19,121.52l-12,6.7-3.08-6A47.41,47.41,0,0,1,169.51,128a22.48,22.48,0,0,1-15.76-6,19.88,19.88,0,0,1-6.52-15.21q0-12.4,9-19.38c5.43-4.23,12.49-5.64,21.1-6.34A27.26,27.26,0,0,1,192,83.89l.12,14.43c-3.8-1.75-11-3.7-14.79-3.7q-6.88,0-11.23,2.9a11.19,11.19,0,0,0-5,9.78,6.43,6.43,0,0,0,2.35,5,7.67,7.67,0,0,0,5.35,2.18q10,0,15.76-4.71t6.07-13.41s2.18-13.25-.23-16.65C186,73.52,160,77.59,160,77.59l1-12.07s34.77-.45,39.88,5.78c4.32,5.26,2.32,27.12,2.32,27.12v9.33Q203.21,114,207.19,121.52Z" style="fill: url(#Sky_2-4)"/>
    <path d="M64.72,135.63c-1.62-4.95-3.13-12.5-4.6-23.06a205.33,205.33,0,0,1-2.18-26.68c0-11.16,1.28-19.49,3.91-25.47C66.31,50.31,73.92,48.8,78.07,48.8c5.33,0,11.12,2.72,18.23,8.56l.15.12,7.44,6.86c2.27-2.15,4.25-4.07,5.9-5.72,6.38-6.38,11.81-9.36,17.08-9.36,10.26,0,17.94,5.72,21.61,16.11,2,5.52,3,13,3,22.74,0,18.22-.8,31.31-2.46,40l-1.23,6.49-31.51-5.15L117,123c.52-4.56,1-12.88,1.36-24.73,0-.25,0-.5,0-.75l-2.53,3.72-21.33,1-2.17-2.68c-.69-.87-1.34-1.65-2-2.36.65,5.89,2.28,15.54,5.88,31.35l1.58,6.9-31.28,5.74Z" style="fill: #0702b0"/>
    <path d="M149.89,87.53q0,26.44-2.34,38.73l-18.61-3q.81-7.14,1.4-25.28.58-19.18-.11-19.19-2.46,0-12.88,15.33l-14.51.7q-9.24-11.46-13-11.46-1.41,0-1.41,7.6,0,10.42,6.44,38.62l-18.49,3.39q-2.22-6.78-4.33-21.88A197.86,197.86,0,0,1,70,85.3Q70,55,83.29,55q5.38,0,13.93,7l11.94,11q6.56-6.09,10.65-10.18,7.38-7.38,12.29-7.38,11.11,0,15.21,11.59Q149.89,74.19,149.89,87.53Z" style="fill: url(#Sky_2-5)"/>
    <path d="M701.4,137a31.56,31.56,0,0,1-16.16-4.09,29.57,29.57,0,0,1-14.66,3.76c-10,0-17.7-3.59-23-10.67l0,0C643.21,120,641,112.34,641,103.1c0-10.2,3.57-21,10.63-32.15L654.14,67l28,11.18L677.86,84a50.08,50.08,0,0,0-5.78,10.26,27.58,27.58,0,0,0-2.44,10,7.76,7.76,0,0,0,.94,4.05l.06.09.06.1a2.61,2.61,0,0,0,.44.62,1,1,0,0,0,.09-.15,6,6,0,0,0,.72-3.15v-5.31l23.65-1.3,1.42,3.91c1.27,3.48,2.86,5.74,4.05,5.74.23,0,.72,0,1.59-1.1a4.4,4.4,0,0,0,1.11-2.94,19.81,19.81,0,0,0-2.52-9.73c-.27-.47-1.5-2.46-6.83-9.82L690.56,80,717,66.7l2.75,4.15a101.62,101.62,0,0,1,8.43,14.68,42.73,42.73,0,0,1,4,17.57c0,9.47-2.42,17.32-7.2,23.34C719.45,133.43,711.52,137,701.4,137Z" style="fill: #0702b0"/>
    <path d="M726.57,103.1q0,12.32-6,19.85-6.65,8.43-19.18,8.42-9.54,0-16.08-5.21A24,24,0,0,1,670.58,131q-12.21,0-18.52-8.42-5.43-7.43-5.43-19.52,0-13.74,9.75-29.15l17,6.76a54.66,54.66,0,0,0-6.43,11.42A32.59,32.59,0,0,0,664,104.32a13,13,0,0,0,1.78,7,6.13,6.13,0,0,0,5.54,3.55A5.32,5.32,0,0,0,676,112a11.53,11.53,0,0,0,1.55-6.09l14.19-.78q3.43,9.42,9.32,9.42a7.48,7.48,0,0,0,6-3.21,10,10,0,0,0,2.33-6.43,25.55,25.55,0,0,0-3.21-12.42q-1.11-2-7.21-10.42L715,74a98.39,98.39,0,0,1,8,13.85A37.22,37.22,0,0,1,726.57,103.1Z" style="fill: url(#New_Gradient_Swatch_2)"/>
    <path d="M455.32,137.28c-1.57-4.78-3-12.06-4.45-22.26a199.7,199.7,0,0,1-2.09-25.77c0-10.77,1.23-18.81,3.77-24.58,4.3-9.77,11.66-11.23,15.66-11.23,5.14,0,10.74,2.63,17.6,8.27l.15.12,7.18,6.62c2.2-2.08,4.1-3.93,5.7-5.52,6.16-6.17,11.4-9,16.49-9,9.91,0,17.32,5.53,20.87,15.55,1.92,5.33,2.86,12.53,2.86,22,0,17.6-.78,30.23-2.38,38.63l-1.19,6.26-30.42-5,.71-6.2c.5-4.4.94-12.43,1.31-23.87l0-.73-2.45,3.59-20.6,1L482,102.52c-.67-.84-1.3-1.6-1.88-2.29.63,5.69,2.19,15,5.68,30.28l1.52,6.66-30.2,5.55Z" style="fill: #0702b0"/>
    <path d="M532.51,91.4q0,25.55-2.26,37.4l-18-2.93q.79-6.9,1.36-24.41.55-18.54-.12-18.53-2.37,0-12.43,14.8l-14,.68q-8.93-11.07-12.54-11.08-1.37,0-1.36,7.35,0,10,6.22,37.29l-17.86,3.28q-2.15-6.56-4.18-21.14a191.24,191.24,0,0,1-2-24.86Q455.32,60,468.21,60q5.19,0,13.45,6.78l11.52,10.62q6.33-5.88,10.29-9.83,7.11-7.12,11.86-7.12,10.74,0,14.69,11.19Q532.51,78.52,532.51,91.4Z" style="fill: url(#New_Gradient_Swatch_2-2)"/>
    <path d="M617.45,139.79c-11.06,0-20.34-2.44-27.61-7.26-9.1-6.13-13.7-15-13.7-26.51S580.45,85.37,589,79.11c7.16-5.29,16.49-8,27.72-8,10.56,0,19.58,2.68,26.81,8l0,0c8.41,6.26,12.68,15,12.68,25.89s-4.06,19.6-12.06,26.09C637,136.87,628,139.79,617.45,139.79Zm-1.89-41a12.62,12.62,0,0,0-7.59,2,5.57,5.57,0,0,0-2.55,5.09c0,1.64.45,3,2.61,4.22a16.81,16.81,0,0,0,8.42,1.92,15.67,15.67,0,0,0,8.34-1.92,5,5,0,0,0,2.79-4.78c0-1.52-.36-3.14-3-4.65A18.44,18.44,0,0,0,615.56,98.77Z" style="fill: #0702b0"/>
    <path d="M650.6,105q0,13.64-10,21.73-9.21,7.42-23.17,7.43-15,0-24.51-6.32-11.19-7.55-11.2-21.84,0-14.64,10.54-22.4,9.32-6.87,24.39-6.87,14.08,0,23.51,6.87Q650.59,91.39,650.6,105Zm-17.41.33q0-6.21-5.88-9.53a23.82,23.82,0,0,0-11.75-2.66,18.13,18.13,0,0,0-10.86,3.1,11.11,11.11,0,0,0-4.88,9.65,9.9,9.9,0,0,0,5.43,9.09,22.26,22.26,0,0,0,11.2,2.66q6.87,0,11.31-2.77A10.57,10.57,0,0,0,633.19,105.35Z" style="fill: url(#New_Gradient_Swatch_2-3)"/>
    <path d="M555.23,137.24c-5,0-8.71-.69-11.43-2.11-6.81-3.55-14.25-8.74-17.83-20.36-2.63-8.57-1.17-16.85,4.34-24.62a36.53,36.53,0,0,1,19.52-14,41,41,0,0,1,12.07-1.88,37.23,37.23,0,0,1,11,1.67c9,2.84,15.07,8.73,17.63,17,1.64,5.34,1.38,10.25-.77,14.59l-.07.14a17,17,0,0,1-2.58,3.64L591,130.6l-4.86,1.49C578.11,134.57,565,137.24,555.23,137.24Z" style="fill: #0702b0"/>
    <path d="M585.19,94.63q1.81,5.93-.43,10.46t-8.38,6.33q-7.5,2.31-29.25,3c7.17,6.84,26.28,1.43,34.67-1.15l2.71,13.44c-10,3.08-31,7.12-38.12,3.43-6.61-3.45-12.19-7.73-15.06-17q-3.15-10.26,3.55-19.72a30.88,30.88,0,0,1,16.6-11.89,32.92,32.92,0,0,1,19.78-.21Q582.14,84.74,585.19,94.63ZM571,98q-1-3.15-5.73-3.81a19.19,19.19,0,0,0-17.91,7.94Q566.79,101,570,100a2.1,2.1,0,0,0,1.21-.68A2.7,2.7,0,0,0,571,98Z" style="fill: url(#New_Gradient_Swatch_2-4)"/>
    <g>
      <g>
        <g>
          <g>
            <path d="M475.38,131.52c-1.25-1.47-4.4-2.48-9.09-2.73a39.8,39.8,0,0,0-73.23,28.47c-6.79,6.28-10.55,12.31-7.68,15.68,2.53,3,11.43,2.58,16.53,2.08a39.79,39.79,0,0,0,69.43-32C474.54,140.68,479.31,136.14,475.38,131.52Z" style="fill: #ffd404"/>
            <path d="M428.46,192.46A43.35,43.35,0,0,1,400.35,179c-14,1.05-16.89-2.41-17.89-3.58-2.81-3.31-3.85-9.34,6.46-19.5a43.23,43.23,0,0,1-.41-10.48,43.62,43.62,0,0,1,80-20.31c4.71.5,8,1.81,9.78,3.91a9.28,9.28,0,0,1,2.32,7.22c-.42,3.44-2.79,6.3-5.21,8.39a43,43,0,0,1,.07,7.86A43.67,43.67,0,0,1,428.46,192.46ZM403.51,171l1.29,1.5a36,36,0,0,0,63.06-20.63,36.46,36.46,0,0,0-.3-8.34l-.35-2.31,1.9-1.37c2.72-2,3.8-3.63,3.91-4.54,0-.17.08-.58-.54-1.31-.35-.32-2.15-1.18-6.4-1.41L464,132.5l-1-1.77a36,36,0,0,0-66.18,25.73l.78.47-1.77,2.93c-7.38,6.83-7.75,10.34-7.53,10.6.55.49,4.06,1.65,13.24.75Z" style="fill: #0000b2"/>
          </g>
          <path d="M394.17,161.26l-3.3-6.44c.48-.52,11.85-12.95,33.08-20.73a170.54,170.54,0,0,1,41.71-9.21l.55,7.63a128.59,128.59,0,0,0-39.5,7.24C407.36,146.84,394.27,161.15,394.17,161.26Z" style="fill: #0000b2"/>
        </g>
        <g>
          <path d="M430,165.64a42.83,42.83,0,0,0,4.38,9.32,10.72,10.72,0,1,0-6.37,1.33,48.44,48.44,0,0,1-3.85-8.84Z" style="fill: #0000b2"/>
          <path d="M447.69,181.81l.12-.1s-2.21,1.62-7.58-.91c-2.22-1.05-4.19-3.32-5.81-5.84a10.61,10.61,0,0,1-6.15,1.36l-.22,0c2.22,3.92,5.38,8.07,9.57,10a19.68,19.68,0,0,0,6.85,2c4.73.39,7.15-1.78,7.5-2.12Z" style="fill: #0000b2"/>
          <path d="M434.42,175a42.83,42.83,0,0,1-4.38-9.32l-5.84,1.81a48.44,48.44,0,0,0,3.85,8.84l.22,0A10.61,10.61,0,0,0,434.42,175Z" style="fill: #0000b2"/>
        </g>
      </g>
      <circle cx="423.61" cy="103.73" r="6.89" style="fill: #0000b2"/>
    </g>
  </g>
  <defs>
    <linearGradient id="Sky_2" data-name="Sky 2" x1="406.87" y1="58.34" x2="378.85" y2="155.96" gradientUnits="userSpaceOnUse">
      <stop offset="0" stop-color="#c6e0f5"/>
      <stop offset="0.06" stop-color="#bdddf4"/>
      <stop offset="0.15" stop-color="#a3d4f1"/>
      <stop offset="0.28" stop-color="#7ac7eb"/>
      <stop offset="0.42" stop-color="#40b3e4"/>
      <stop offset="0.57" stop-color="#009edc"/>
      <stop offset="0.87" stop-color="#0077c3"/>
      <stop offset="0.99" stop-color="#005d9b"/>
    </linearGradient>
    <linearGradient id="Sky_2-2" x1="361.62" y1="50.01" x2="354.97" y2="154.01" xlink:href="#Sky_2"/>
    <linearGradient id="Sky_2-3" x1="316.67" y1="61.44" x2="282.63" y2="143.26" xlink:href="#Sky_2"/>
    <linearGradient id="linear-gradient" x1="238.54" y1="60.55" x2="236.14" y2="160.36" gradientUnits="userSpaceOnUse">
      <stop offset="0" stop-color="#c6e0f5"/>
      <stop offset="0.06" stop-color="#bdddf4"/>
      <stop offset="0.15" stop-color="#a3d4f1"/>
      <stop offset="0.28" stop-color="#7ac7eb"/>
      <stop offset="0.42" stop-color="#40b3e4"/>
      <stop offset="0.57" stop-color="#009edc"/>
      <stop offset="0.87" stop-color="#0077c3"/>
    </linearGradient>
    <linearGradient id="Sky_2-4" x1="179.56" y1="61.4" x2="176.38" y2="132.23" xlink:href="#Sky_2"/>
    <linearGradient id="Sky_2-5" x1="98.28" y1="49.18" x2="128.81" y2="163.35" xlink:href="#Sky_2"/>
    <radialGradient id="New_Gradient_Swatch_2" data-name="New Gradient Swatch 2" cx="776.17" cy="46.5" r="423.59" gradientTransform="translate(0 -0.42)" gradientUnits="userSpaceOnUse">
      <stop offset="0" stop-color="#fff700"/>
      <stop offset="0.06" stop-color="#ffea00"/>
      <stop offset="0.24" stop-color="#ffc800"/>
      <stop offset="0.42" stop-color="#ffad00"/>
      <stop offset="0.61" stop-color="#ff9a00"/>
      <stop offset="0.8" stop-color="#ff8f00"/>
      <stop offset="1" stop-color="#ff8b00"/>
    </radialGradient>
    <radialGradient id="New_Gradient_Swatch_2-2" cx="514.22" cy="57.74" r="243.37" xlink:href="#New_Gradient_Swatch_2"/>
    <radialGradient id="New_Gradient_Swatch_2-3" cx="594.62" cy="68.98" r="233.37" xlink:href="#New_Gradient_Swatch_2"/>
    <radialGradient id="New_Gradient_Swatch_2-4" cx="581.66" cy="56.88" r="327.4" xlink:href="#New_Gradient_Swatch_2"/>
  </defs></svg>