<svg xmlns="http://www.w3.org/2000/svg" xmlns:xlink="http://www.w3.org/1999/xlink" viewBox="0 0 1500 1500">  <g id="sky">
<rect width="1500" height="1499.86" style="fill: #fff5f5"/>
</g>  <g id="pattern">
<path d="M1442.34,1500l57.66-56.34v-6.2L1436,1500h-1v-81.65l65-64.86v-6.76l-65,65v-82.56l65-63.51v-6.2L1435,1323v-82.62l65-64.86v-6.76l-65,65v-82.56l65-63.51v-6.2L1435,1145v-82.62l65-64.86v-6.76l-65,65V973.17l65-63.51v-6.2L1435,967V884.35l65-64.86v-6.76l-65,65V795.17l65-63.51v-6.2L1435,789V706.35l65-64.86v-6.76l-65,65V617.17l65-63.51v-6.2L1435,611V528.35l65-64.86v-6.76l-65,65V439.17l65-63.51v-6.2L1435,433V350.35l65-64.86v-6.76l-65,65V261.17l65-63.51v-6.2L1435,255V172.35l65-64.86v-6.76l-65,65V83.17l65-63.51v-6.2L1435,77V0h-3V77l-80-77h-9.27L1264,77V0h-3V77l-80-77h-9.27L1093,77V0h-3V77l-80-77h-9.27L922,77V0h-3V77l-80-77h-9.27L751,77V0h-3V77l-80-77h-9.27L580,77V0h-3V77L497.05,0h-9.27L409,77V0h-3V77L326.05,0h-9.27L238,77V0h-3V77L155.05,0h-8.27L68,77V0H65V77L0,14.4v6.17L65,83.18v82.64l-34.22-33L0,102.83v6.48L28.72,137,65,172.36V255L0,192.4v6.17l65,62.61v82.64l-34.22-33L0,280.83v6.48L28.72,315,65,350.36V433L0,370.4v6.17l65,62.61v82.64l-34.22-33L0,458.83v6.48L28.72,493,65,528.36V611L0,548.4v6.17l65,62.61v82.64l-34.22-33L0,636.83v6.48L28.72,671,65,706.36V789L0,726.4v6.17l65,62.61v82.64l-34.22-33L0,814.83v6.48L28.72,849,65,884.36V967L0,904.4v6.17l65,62.61v82.64l-34.22-33L0,992.83v6.48L28.72,1027,65,1062.36V1145L0,1082.4v6.17l65,62.61v82.64l-34.22-33L0,1170.83v6.48L28.72,1205,65,1240.36V1323L0,1260.4v6.17l65,62.61v82.64l-34.22-33L0,1348.83v6.48L28.72,1383,65,1418.36V1500H64L0,1438.4v6.17L57.55,1500H1442.34Zm-1293.09,0H75.34l73.91-72.22Zm0-78.42L69,1500H68v-81.65l81.25-81.07Zm0-93v1.87L68,1411.73v-82.56l81.25-79.39Zm0-85L68,1323v-82.62l81.25-81.07Zm0-93v1.87L68,1233.73v-82.56l81.25-79.39Zm0-85L68,1145v-82.62l81.25-81.07Zm0-93v1.87L68,1055.73V973.17l81.25-79.39Zm0-85L68,967V884.35l81.25-81.07Zm0-93v1.87L68,877.73V795.17l81.25-79.39Zm0-85L68,789V706.35l81.25-81.07Zm0-93v1.87L68,699.73V617.17l81.25-79.39Zm0-85L68,611V528.35l81.25-81.07Zm0-93v1.87L68,521.73V439.17l81.25-79.39Zm0-85L68,433V350.35l81.25-81.07Zm0-93v1.87L68,343.73V261.17l81.25-79.39Zm0-85L68,255V172.35l81.25-81.07Zm0-93v1.87L68,165.73V83.17L149.25,3.78ZM153.75,1500v-71.09l73.8,71.09Zm81.25,0H234l-80.2-77.25v-83.11l45,43.36L235,1418.36Zm0-88.18-34.22-33-47-45.83v-82.08L235,1329.18Zm0-88.81-81.25-78.26v-83.11l45,43.36L235,1240.36Zm0-89.19-34.22-33-47-45.83v-82.08L235,1151.18Zm0-88.81-81.25-78.26V983.64l45,43.36L235,1062.36Zm0-89.19-34.22-33-47-45.83V894.91L235,973.18ZM235,967l-81.25-78.26V805.64l45,43.36L235,884.36Zm0-89.19-34.22-33-47-45.83V716.91L235,795.18ZM235,789l-81.25-78.26V627.64l45,43.36L235,706.36Zm0-89.19-34.22-33-47-45.83V538.91L235,617.18ZM235,611l-81.25-78.26V449.64l45,43.36L235,528.36Zm0-89.19-34.22-33-47-45.83V360.91L235,439.18ZM235,433l-81.25-78.26V271.64l45,43.36L235,350.36Zm0-89.19-34.22-33-47-45.83V182.91L235,261.18ZM235,255l-81.25-78.26V93.64l45,43.36L235,172.36Zm0-89.19-34.22-33L153.75,87V4.91L235,83.18ZM320.25,1500H245.34l74.91-73.2Zm0-79.39L239,1500h-1v-81.65l82.25-82.07Zm0-92v.87L238,1411.73v-82.56l82.25-80.37Zm0-86L238,1323v-82.62l82.25-82.07Zm0-92v.87L238,1233.73v-82.56l82.25-80.37Zm0-86L238,1145v-82.62l82.25-82.07Zm0-92v.87L238,1055.73V973.17l82.25-80.37Zm0-86L238,967V884.35l82.25-82.07Zm0-92v.87L238,877.73V795.17l82.25-80.37Zm0-86L238,789V706.35l82.25-82.07Zm0-92v.87L238,699.73V617.17l82.25-80.37Zm0-86L238,611V528.35l82.25-82.07Zm0-92v.87L238,521.73V439.17l82.25-80.37Zm0-86L238,433V350.35l82.25-82.07Zm0-92v.87L238,343.73V261.17l82.25-80.37Zm0-86L238,255V172.35l82.25-82.07Zm0-92v.87L238,165.73V83.17L320.25,2.8ZM323.75,1500v-72l74.8,72Zm82.25,0H405l-81.2-78.22v-83.1l46,44.32L406,1418.36Zm0-88.18-34.22-33-48-46.8V1250L406,1329.18Zm0-88.81-82.25-79.23v-83.1l46,44.32L406,1240.36Zm0-89.19-34.22-33-48-46.8V1072L406,1151.18Zm0-88.81-82.25-79.23v-83.1l46,44.32L406,1062.36Zm0-89.19-34.22-33-48-46.8V894L406,973.18ZM406,967l-82.25-79.23v-83.1l46,44.32L406,884.36Zm0-89.19-34.22-33-48-46.8V716L406,795.18ZM406,789l-82.25-79.23v-83.1l46,44.32L406,706.36Zm0-89.19-34.22-33-48-46.8V538L406,617.18ZM406,611l-82.25-79.23v-83.1l46,44.32L406,528.36Zm0-89.19-34.22-33-48-46.8V360L406,439.18ZM406,433l-82.25-79.23v-83.1l46,44.32L406,350.36Zm0-89.19-34.22-33-48-46.8V182L406,261.18ZM406,255l-82.25-79.23V92.68l46,44.32L406,172.36Zm0-89.19-34.22-33-48-46.8V4L406,83.18ZM491.25,1500H416.34l74.91-73.2Zm0-79.39L410,1500h-1v-81.65l82.25-82.07Zm0-92v.87L409,1411.73v-82.56l82.25-80.37Zm0-86L409,1323v-82.62l82.25-82.07Zm0-92v.87L409,1233.73v-82.56l82.25-80.37Zm0-86L409,1145v-82.62l82.25-82.07Zm0-92v.87L409,1055.73V973.17l82.25-80.37Zm0-86L409,967V884.35l82.25-82.07Zm0-92v.87L409,877.73V795.17l82.25-80.37Zm0-86L409,789V706.35l82.25-82.07Zm0-92v.87L409,699.73V617.17l82.25-80.37Zm0-86L409,611V528.35l82.25-82.07Zm0-92v.87L409,521.73V439.17l82.25-80.37Zm0-86L409,433V350.35l82.25-82.07Zm0-92v.87L409,343.73V261.17l82.25-80.37Zm0-86L409,255V172.35l82.25-82.07Zm0-92v.87L409,165.73V83.17L491.25,2.8ZM494.75,1500v-72l74.8,72Zm82.25,0h-1l-81.2-78.22v-83.1l46,44.32L577,1418.36Zm0-88.18-34.22-33-48-46.8V1250L577,1329.18Zm0-88.81-82.25-79.23v-83.1l46,44.32L577,1240.36Zm0-89.19-34.22-33-48-46.8V1072L577,1151.18Zm0-88.81-82.25-79.23v-83.1l46,44.32L577,1062.36Zm0-89.19-34.22-33-48-46.8V894L577,973.18ZM577,967l-82.25-79.23v-83.1l46,44.32L577,884.36Zm0-89.19-34.22-33-48-46.8V716L577,795.18ZM577,789l-82.25-79.23v-83.1l46,44.32L577,706.36Zm0-89.19-34.22-33-48-46.8V538L577,617.18ZM577,611l-82.25-79.23v-83.1l46,44.32L577,528.36Zm0-89.19-34.22-33-48-46.8V360L577,439.18ZM577,433l-82.25-79.23v-83.1l46,44.32L577,350.36Zm0-89.19-34.22-33-48-46.8V182L577,261.18ZM577,255l-82.25-79.23V92.68l46,44.32L577,172.36Zm0-89.19-34.22-33-48-46.8V4L577,83.18ZM662.25,1500H587.34l74.91-73.2Zm0-79.39L581,1500h-1v-81.65l82.25-82.07Zm0-92v.87L580,1411.73v-82.56l82.25-80.37Zm0-86L580,1323v-82.62l82.25-82.07Zm0-92v.87L580,1233.73v-82.56l82.25-80.37Zm0-86L580,1145v-82.62l82.25-82.07Zm0-92v.87L580,1055.73V973.17l82.25-80.37Zm0-86L580,967V884.35l82.25-82.07Zm0-92v.87L580,877.73V795.17l82.25-80.37Zm0-86L580,789V706.35l82.25-82.07Zm0-92v.87L580,699.73V617.17l82.25-80.37Zm0-86L580,611V528.35l82.25-82.07Zm0-92v.87L580,521.73V439.17l82.25-80.37Zm0-86L580,433V350.35l82.25-82.07Zm0-92v.87L580,343.73V261.17l82.25-80.37Zm0-86L580,255V172.35l82.25-82.07Zm0-92v.87L580,165.73V83.17L662.25,2.8ZM665.75,1500v-72l74.8,72Zm82.25,0h-1l-81.2-78.22v-83.1l46,44.32L748,1418.36Zm0-88.18-34.22-33-48-46.8V1250L748,1329.18Zm0-88.81-82.25-79.23v-83.1l46,44.32L748,1240.36Zm0-89.19-34.22-33-48-46.8V1072L748,1151.18Zm0-88.81-82.25-79.23v-83.1l46,44.32L748,1062.36Zm0-89.19-34.22-33-48-46.8V894L748,973.18ZM748,967l-82.25-79.23v-83.1l46,44.32L748,884.36Zm0-89.19-34.22-33-48-46.8V716L748,795.18ZM748,789l-82.25-79.23v-83.1l46,44.32L748,706.36Zm0-89.19-34.22-33-48-46.8V538L748,617.18ZM748,611l-82.25-79.23v-83.1l46,44.32L748,528.36Zm0-89.19-34.22-33-48-46.8V360L748,439.18ZM748,433l-82.25-79.23v-83.1l46,44.32L748,350.36Zm0-89.19-34.22-33-48-46.8V182L748,261.18ZM748,255l-82.25-79.23V92.68l46,44.32L748,172.36Zm0-89.19-34.22-33-48-46.8V4L748,83.18ZM833.25,1500H758.34l74.91-73.2Zm0-79.39L752,1500h-1v-81.65l82.25-82.07Zm0-92v.87L751,1411.73v-82.56l82.25-80.37Zm0-86L751,1323v-82.62l82.25-82.07Zm0-92v.87L751,1233.73v-82.56l82.25-80.37Zm0-86L751,1145v-82.62l82.25-82.07Zm0-92v.87L751,1055.73V973.17l82.25-80.37Zm0-86L751,967V884.35l82.25-82.07Zm0-92v.87L751,877.73V795.17l82.25-80.37Zm0-86L751,789V706.35l82.25-82.07Zm0-92v.87L751,699.73V617.17l82.25-80.37Zm0-86L751,611V528.35l82.25-82.07Zm0-92v.87L751,521.73V439.17l82.25-80.37Zm0-86L751,433V350.35l82.25-82.07Zm0-92v.87L751,343.73V261.17l82.25-80.37Zm0-86L751,255V172.35l82.25-82.07Zm0-92v.87L751,165.73V83.17L833.25,2.8ZM836.75,1500v-72l74.8,72Zm82.25,0h-1l-81.2-78.22v-83.1l46,44.32L919,1418.36Zm0-88.18-34.22-33-48-46.8V1250L919,1329.18Zm0-88.81-82.25-79.23v-83.1l46,44.32L919,1240.36Zm0-89.19-34.22-33-48-46.8V1072L919,1151.18Zm0-88.81-82.25-79.23v-83.1l46,44.32L919,1062.36Zm0-89.19-34.22-33-48-46.8V894L919,973.18ZM919,967l-82.25-79.23v-83.1l46,44.32L919,884.36Zm0-89.19-34.22-33-48-46.8V716L919,795.18ZM919,789l-82.25-79.23v-83.1l46,44.32L919,706.36Zm0-89.19-34.22-33-48-46.8V538L919,617.18ZM919,611l-82.25-79.23v-83.1l46,44.32L919,528.36Zm0-89.19-34.22-33-48-46.8V360L919,439.18ZM919,433l-82.25-79.23v-83.1l46,44.32L919,350.36Zm0-89.19-34.22-33-48-46.8V182L919,261.18ZM919,255l-82.25-79.23V92.68l46,44.32L919,172.36Zm0-89.19-34.22-33-48-46.8V4L919,83.18ZM1004.25,1500H929.34l74.91-73.2Zm0-79.39L923,1500h-1v-81.65l82.25-82.07Zm0-92v.87L922,1411.73v-82.56l82.25-80.37Zm0-86L922,1323v-82.62l82.25-82.07Zm0-92v.87L922,1233.73v-82.56l82.25-80.37Zm0-86L922,1145v-82.62l82.25-82.07Zm0-92v.87L922,1055.73V973.17l82.25-80.37Zm0-86L922,967V884.35l82.25-82.07Zm0-92v.87L922,877.73V795.17l82.25-80.37Zm0-86L922,789V706.35l82.25-82.07Zm0-92v.87L922,699.73V617.17l82.25-80.37Zm0-86L922,611V528.35l82.25-82.07Zm0-92v.87L922,521.73V439.17l82.25-80.37Zm0-86L922,433V350.35l82.25-82.07Zm0-92v.87L922,343.73V261.17l82.25-80.37Zm0-86L922,255V172.35l82.25-82.07Zm0-92v.87L922,165.73V83.17L1004.25,2.8Zm3.5,1417.39v-72l74.8,72Zm82.25,0h-1l-81.2-78.22v-83.1l46,44.32,36.28,35.36Zm0-88.18-34.22-33-48-46.8V1250l82.25,79.23Zm0-88.81-82.25-79.23v-83.1l46,44.32,36.28,35.36Zm0-89.19-34.22-33-48-46.8V1072l82.25,79.23Zm0-88.81-82.25-79.23v-83.1l46,44.32,36.28,35.36Zm0-89.19-34.22-33-48-46.8V894L1090,973.18Zm0-88.81-82.25-79.23v-83.1l46,44.32L1090,884.36Zm0-89.19-34.22-33-48-46.8V716L1090,795.18Zm0-88.81-82.25-79.23v-83.1l46,44.32L1090,706.36Zm0-89.19-34.22-33-48-46.8V538L1090,617.18Zm0-88.81-82.25-79.23v-83.1l46,44.32L1090,528.36Zm0-89.19-34.22-33-48-46.8V360L1090,439.18Zm0-88.81-82.25-79.23v-83.1l46,44.32L1090,350.36Zm0-89.19-34.22-33-48-46.8V182L1090,261.18Zm0-88.81-82.25-79.23V92.68l46,44.32L1090,172.36Zm0-89.19-34.22-33-48-46.8V4L1090,83.18ZM1175.25,1500h-74.91l74.91-73.2Zm0-79.39L1094,1500h-1v-81.65l82.25-82.07Zm0-92v.87L1093,1411.73v-82.56l82.25-80.37Zm0-86L1093,1323v-82.62l82.25-82.07Zm0-92v.87L1093,1233.73v-82.56l82.25-80.37Zm0-86L1093,1145v-82.62l82.25-82.07Zm0-92v.87L1093,1055.73V973.17l82.25-80.37Zm0-86L1093,967V884.35l82.25-82.07Zm0-92v.87L1093,877.73V795.17l82.25-80.37Zm0-86L1093,789V706.35l82.25-82.07Zm0-92v.87L1093,699.73V617.17l82.25-80.37Zm0-86L1093,611V528.35l82.25-82.07Zm0-92v.87L1093,521.73V439.17l82.25-80.37Zm0-86L1093,433V350.35l82.25-82.07Zm0-92v.87L1093,343.73V261.17l82.25-80.37Zm0-86L1093,255V172.35l82.25-82.07Zm0-92v.87L1093,165.73V83.17L1175.25,2.8Zm3.5,1417.39v-72l74.8,72Zm82.25,0h-1l-81.2-78.22v-83.1l46,44.32,36.28,35.36Zm0-88.18-34.22-33-48-46.8V1250l82.25,79.23Zm0-88.81-82.25-79.23v-83.1l46,44.32,36.28,35.36Zm0-89.19-34.22-33-48-46.8V1072l82.25,79.23Zm0-88.81-82.25-79.23v-83.1l46,44.32,36.28,35.36Zm0-89.19-34.22-33-48-46.8V894L1261,973.18Zm0-88.81-82.25-79.23v-83.1l46,44.32L1261,884.36Zm0-89.19-34.22-33-48-46.8V716L1261,795.18Zm0-88.81-82.25-79.23v-83.1l46,44.32L1261,706.36Zm0-89.19-34.22-33-48-46.8V538L1261,617.18Zm0-88.81-82.25-79.23v-83.1l46,44.32L1261,528.36Zm0-89.19-34.22-33-48-46.8V360L1261,439.18Zm0-88.81-82.25-79.23v-83.1l46,44.32L1261,350.36Zm0-89.19-34.22-33-48-46.8V182L1261,261.18Zm0-88.81-82.25-79.23V92.68l46,44.32L1261,172.36Zm0-89.19-34.22-33-48-46.8V4L1261,83.18ZM1346.25,1500h-74.91l74.91-73.2Zm0-79.39L1265,1500h-1v-81.65l82.25-82.07Zm0-92v.87L1264,1411.73v-82.56l82.25-80.37Zm0-86L1264,1323v-82.62l82.25-82.07Zm0-92v.87L1264,1233.73v-82.56l82.25-80.37Zm0-86L1264,1145v-82.62l82.25-82.07Zm0-92v.87L1264,1055.73V973.17l82.25-80.37Zm0-86L1264,967V884.35l82.25-82.07Zm0-92v.87L1264,877.73V795.17l82.25-80.37Zm0-86L1264,789V706.35l82.25-82.07Zm0-92v.87L1264,699.73V617.17l82.25-80.37Zm0-86L1264,611V528.35l82.25-82.07Zm0-92v.87L1264,521.73V439.17l82.25-80.37Zm0-86L1264,433V350.35l82.25-82.07Zm0-92v.87L1264,343.73V261.17l82.25-80.37Zm0-86L1264,255V172.35l82.25-82.07Zm0-92v.87L1264,165.73V83.17L1346.25,2.8Zm3.5,1417.39v-72l74.8,72Zm82.25,0h-1l-81.2-78.22v-83.1l46,44.32,36.28,35.36Zm0-88.18-34.22-33-48-46.8V1250l82.25,79.23Zm0-88.81-82.25-79.23v-83.1l46,44.32,36.28,35.36Zm0-89.19-34.22-33-48-46.8V1072l82.25,79.23Zm0-88.81-82.25-79.23v-83.1l46,44.32,36.28,35.36Zm0-89.19-34.22-33-48-46.8V894L1432,973.18Zm0-88.81-82.25-79.23v-83.1l46,44.32L1432,884.36Zm0-89.19-34.22-33-48-46.8V716L1432,795.18Zm0-88.81-82.25-79.23v-83.1l46,44.32L1432,706.36Zm0-89.19-34.22-33-48-46.8V538L1432,617.18Zm0-88.81-82.25-79.23v-83.1l46,44.32L1432,528.36Zm0-89.19-34.22-33-48-46.8V360L1432,439.18Zm0-88.81-82.25-79.23v-83.1l46,44.32L1432,350.36Zm0-89.19-34.22-33-48-46.8V182L1432,261.18Zm0-88.81-82.25-79.23V92.68l46,44.32L1432,172.36Zm0-89.19-34.22-33-48-46.8V4L1432,83.18Z" style="fill: #050505;opacity: 0.18"/>
</g>  <g id="base">
<rect y="1330.87" width="1500" height="168.98" style="fill: #112a3f"/>
</g>  <g id="land">
<rect x="0.46" y="1028.55" width="1500.11" height="302.58" style="fill: #f9e873"/>
</g>  <g id="city">
    <line x1="0.12" y1="1028.95" x2="1500.12" y2="1028.95" style="fill: #ffc0f9;stroke: #000;stroke-miterlimit: 10;stroke-width: 3px"/>
    <path d="M1169.42,348.81h-42s-1-13-11-13-9,10-9,10-7-25-28-25-30,26-30,26-16-4-20,2-3,17-3,17h-36" style="fill: none;stroke: #000;stroke-miterlimit: 10;stroke-width: 3px"/>
    <path d="M226.92,323.81s9.23-16.19,21.61-17.59S266.36,324,266.36,324s6.52-12.93,17-14.58,21.52,14.35,21.52,14.35" style="fill: none;stroke: #000;stroke-miterlimit: 10;stroke-width: 3px"/>
    <path d="M846.15,240.08l8.27,2.23-5.5,1.48a8.52,8.52,0,0,0-6,6l-1.48,5.5-1.76-6.54a6.66,6.66,0,0,0-4.7-4.7l-6.54-1.76,6.48-1.75a6.73,6.73,0,0,0,4.77-4.77l1.75-6.48,2.23,8.27A3.53,3.53,0,0,0,846.15,240.08Z" style="fill: none;stroke: #000;stroke-miterlimit: 10;stroke-width: 2px"/>
    <path d="M492.15,172.08l8.27,2.23-5.5,1.48a8.52,8.52,0,0,0-6,6l-1.48,5.5-1.76-6.54a6.66,6.66,0,0,0-4.7-4.7l-6.54-1.76,6.48-1.75a6.73,6.73,0,0,0,4.77-4.77l1.75-6.48,2.23,8.27A3.53,3.53,0,0,0,492.15,172.08Z" style="fill: none;stroke: #000;stroke-miterlimit: 10;stroke-width: 2px"/>
    <path d="M1260.15,370.08l8.27,2.23-5.5,1.48a8.52,8.52,0,0,0-6,6l-1.48,5.5-1.76-6.54a6.66,6.66,0,0,0-4.7-4.7l-6.54-1.76,6.48-1.75a6.73,6.73,0,0,0,4.77-4.77l1.75-6.48,2.23,8.27A3.53,3.53,0,0,0,1260.15,370.08Z" style="fill: none;stroke: #000;stroke-miterlimit: 10;stroke-width: 2px"/>
    <path d="M980.36,217.37s.71-9.26,7.84-9.26,6.41,7.12,6.41,7.12,5-17.82,20-17.82S1036,216,1036,216s11.41-2.85,14.26,1.42,2.14,12.12,2.14,12.12" style="fill: none;stroke: #000;stroke-miterlimit: 10;stroke-width: 3px"/>
    <path d="M573.15,522.08l8.27,2.23-5.5,1.48a8.52,8.52,0,0,0-6,6l-1.48,5.5-1.76-6.54a6.66,6.66,0,0,0-4.7-4.7l-6.54-1.76,6.48-1.75a6.73,6.73,0,0,0,4.77-4.77l1.75-6.48,2.23,8.27A3.53,3.53,0,0,0,573.15,522.08Z" style="fill: none;stroke: #000;stroke-miterlimit: 10;stroke-width: 2px"/>
    <path d="M396.15,453.08l8.27,2.23-5.5,1.48a8.52,8.52,0,0,0-6,6l-1.48,5.5-1.76-6.54a6.66,6.66,0,0,0-4.7-4.7l-6.54-1.76,6.48-1.75a6.73,6.73,0,0,0,4.77-4.77l1.75-6.48,2.23,8.27A3.53,3.53,0,0,0,396.15,453.08Z" style="fill: none;stroke: #000;stroke-miterlimit: 10;stroke-width: 2px"/>
    <path d="M1148.15,280.08l8.27,2.23-5.5,1.48a8.52,8.52,0,0,0-6,6l-1.48,5.5-1.76-6.54a6.66,6.66,0,0,0-4.7-4.7l-6.54-1.76,6.48-1.75a6.73,6.73,0,0,0,4.77-4.77l1.75-6.48,2.23,8.27A3.53,3.53,0,0,0,1148.15,280.08Z" style="fill: none;stroke: #000;stroke-miterlimit: 10;stroke-width: 2px"/>
    <g>
      <polyline points="306.62 748.49 321.88 654.58 414.63 654.58 425.19 748.49" style="fill: #ffc299;stroke: #000;stroke-miterlimit: 10;stroke-width: 3px"/>
      <polygon points="126.42 1027.31 606.57 1027.31 606.57 967.43 588.96 938.09 147.55 938.09 126.42 967.43 126.42 1027.31" style="fill: #ffc299;stroke: #000;stroke-miterlimit: 10;stroke-width: 3px"/>
      <line x1="516.76" y1="937.5" x2="516.76" y2="1027.31" style="fill: #ffc299;stroke: #000;stroke-miterlimit: 10;stroke-width: 3px"/>
      <line x1="428.66" y1="938.09" x2="428.66" y2="1027.31" style="fill: #ffc299;stroke: #000;stroke-miterlimit: 10;stroke-width: 3px"/>
      <line x1="303.03" y1="938.09" x2="303.03" y2="1027.31" style="fill: #ffc299;stroke: #000;stroke-miterlimit: 10;stroke-width: 3px"/>
      <line x1="218.08" y1="1027.31" x2="218.08" y2="938.09" style="fill: #ffc299;stroke: #000;stroke-miterlimit: 10;stroke-width: 3px"/>
      <line x1="127.01" y1="966.85" x2="607.15" y2="966.85" style="fill: #ffc299;stroke: #000;stroke-miterlimit: 10;stroke-width: 3px"/>
      <rect x="154.01" y="989.15" width="9.39" height="12.91" style="fill: #ffc299;stroke: #000;stroke-miterlimit: 10;stroke-width: 3px"/>
      <rect x="188.05" y="989.15" width="11.74" height="12.91" style="fill: #ffc299;stroke: #000;stroke-miterlimit: 10;stroke-width: 3px"/>
      <path d="M229.14,1018.5v-34s5.87-10.57,9.39-10.57,8.22,9.39,8.22,9.39v35.22Z" style="fill: #ffc299;stroke: #000;stroke-miterlimit: 10;stroke-width: 3px"/>
      <polyline points="257.31 973.89 273.75 993.85 308.97 993.85" style="fill: #ffc299;stroke: #000;stroke-miterlimit: 10;stroke-width: 3px"/>
      <line x1="325.4" y1="966.85" x2="325.4" y2="1027.31" style="fill: #ffc299;stroke: #000;stroke-miterlimit: 10;stroke-width: 3px"/>
      <polyline points="428.66 993.85 459.24 993.85 481.31 966.85" style="fill: #ffc299;stroke: #000;stroke-miterlimit: 10;stroke-width: 3px"/>
      <rect x="533.2" y="989.15" width="11.74" height="12.91" style="fill: #ffc299;stroke: #000;stroke-miterlimit: 10;stroke-width: 3px"/>
      <rect x="570.76" y="989.15" width="8.22" height="12.91" style="fill: #ffc299;stroke: #000;stroke-miterlimit: 10;stroke-width: 3px"/>
      <g>
        <path d="M526.15,899.93s-8.22-9.39-9.39-17.61,34-32.87,34-32.87,35.22,27,35.22,32.87c0,12.92-11.74,16.44-11.74,16.44Z" style="fill: #8cc63f;stroke: #000;stroke-miterlimit: 10;stroke-width: 3px"/>
        <rect x="530.26" y="899.35" width="39.91" height="11.74" style="fill: #ffc299;stroke: #000;stroke-miterlimit: 10;stroke-width: 3px"/>
        <rect x="530.26" y="911.09" width="39.91" height="25.83" style="fill: #ffc299;stroke: #000;stroke-miterlimit: 10;stroke-width: 3px"/>
        <line x1="550.32" y1="804.25" x2="550.32" y2="850.04" style="fill: #ffc299;stroke: #000;stroke-miterlimit: 10;stroke-width: 3px"/>
        <line x1="543.86" y1="811.3" x2="556.77" y2="811.3" style="fill: #ffc299;stroke: #000;stroke-miterlimit: 10;stroke-width: 2px"/>
        <circle cx="550.32" cy="831.55" r="3.23" style="fill: #ffc299;stroke: #000;stroke-miterlimit: 10;stroke-width: 3px"/>
        <line x1="544.93" y1="853.72" x2="544.93" y2="899.35" style="fill: #ffc299;stroke: #000;stroke-miterlimit: 10;stroke-width: 3px"/>
        <line x1="556.09" y1="853.72" x2="556.09" y2="899.15" style="fill: #ffc299;stroke: #000;stroke-miterlimit: 10;stroke-width: 3px"/>
        <line x1="564.75" y1="860.61" x2="564.75" y2="897" style="fill: #ffc299;stroke: #000;stroke-miterlimit: 10;stroke-width: 3px"/>
        <line x1="573.21" y1="867.85" x2="573.21" y2="899.35" style="fill: #ffc299;stroke: #000;stroke-miterlimit: 10;stroke-width: 3px"/>
        <line x1="536.03" y1="860.61" x2="536.03" y2="899.35" style="fill: #ffc299;stroke: #000;stroke-miterlimit: 10;stroke-width: 3px"/>
        <line x1="527.52" y1="867.85" x2="527.52" y2="899.35" style="fill: #ffc299;stroke: #000;stroke-miterlimit: 10;stroke-width: 3px"/>
      </g>
      <g>
        <path d="M158.7,901.11s-8.21-9.4-9.39-17.61,34.05-32.87,34.05-32.87,35.21,27,35.21,32.87c0,12.91-11.73,16.43-11.73,16.43Z" style="fill: #7ac943;stroke: #000;stroke-miterlimit: 10;stroke-width: 3px"/>
        <rect x="162.81" y="900.52" width="39.91" height="11.74" style="fill: #ffc299;stroke: #000;stroke-miterlimit: 10;stroke-width: 3px"/>
        <rect x="162.81" y="912.26" width="39.91" height="25.83" style="fill: #ffc299;stroke: #000;stroke-miterlimit: 10;stroke-width: 3px"/>
        <line x1="182.87" y1="805.43" x2="182.87" y2="851.21" style="fill: #ffc299;stroke: #000;stroke-miterlimit: 10;stroke-width: 3px"/>
        <line x1="176.41" y1="812.47" x2="189.32" y2="812.47" style="fill: #ffc299;stroke: #000;stroke-miterlimit: 10;stroke-width: 2px"/>
        <circle cx="182.87" cy="832.72" r="3.23" style="fill: #ffc299;stroke: #000;stroke-miterlimit: 10;stroke-width: 3px"/>
        <line x1="177.49" y1="854.89" x2="177.49" y2="900.52" style="fill: #ffc299;stroke: #000;stroke-miterlimit: 10;stroke-width: 3px"/>
        <line x1="188.64" y1="854.89" x2="188.64" y2="900.32" style="fill: #ffc299;stroke: #000;stroke-miterlimit: 10;stroke-width: 3px"/>
        <line x1="197.3" y1="861.79" x2="197.3" y2="898.17" style="fill: #ffc299;stroke: #000;stroke-miterlimit: 10;stroke-width: 3px"/>
        <line x1="205.77" y1="869.02" x2="205.77" y2="900.52" style="fill: #ffc299;stroke: #000;stroke-miterlimit: 10;stroke-width: 3px"/>
        <line x1="168.58" y1="861.79" x2="168.58" y2="900.52" style="fill: #ffc299;stroke: #000;stroke-miterlimit: 10;stroke-width: 3px"/>
        <line x1="160.07" y1="869.02" x2="160.07" y2="900.52" style="fill: #ffc299;stroke: #000;stroke-miterlimit: 10;stroke-width: 3px"/>
      </g>
      <g>
        <rect x="215.05" y="928.11" width="88.05" height="8.22" style="fill: #ffc299;stroke: #000;stroke-miterlimit: 10;stroke-width: 3px"/>
        <rect x="218.57" y="919.89" width="84.52" height="8.22" style="fill: #ffc299;stroke: #000;stroke-miterlimit: 10;stroke-width: 3px"/>
        <rect x="223.27" y="911.67" width="79.83" height="7.04" style="fill: #ffc299;stroke: #000;stroke-miterlimit: 10;stroke-width: 3px"/>
        <rect x="223.27" y="838.89" width="79.83" height="70.44" style="fill: #ffc299;stroke: #000;stroke-miterlimit: 10;stroke-width: 3px"/>
        <path d="M249.1,837.71V827.15s1.17-10.57,11.74-10.57,12.91,10.57,12.91,10.57v10.56" style="fill: #8cc63f;stroke: #000;stroke-miterlimit: 10;stroke-width: 3px"/>
        <path d="M223.27,838.3V827.73s1.17-10.56,11.74-10.56,12.91,10.56,12.91,10.56V838.3" style="fill: #8cc63f;stroke: #000;stroke-miterlimit: 10;stroke-width: 3px"/>
        <path d="M276.1,837.13V826.56S277.27,816,287.84,816s12.91,10.57,12.91,10.57v10.57" style="fill: #8cc63f;stroke: #000;stroke-miterlimit: 10;stroke-width: 3px"/>
        <polyline points="222.68 908.74 235.6 838.89 249.69 906.39 263.19 838.89 276.69 906.39 290.77 840.65 302.51 908.74" style="fill: #c69c6d;stroke: #000;stroke-linejoin: round;stroke-width: 3px"/>
        <polyline points="235.6 817.17 235.6 779.6 290.77 779.6 290.77 814.82" style="fill: #ffc299;stroke: #000;stroke-miterlimit: 10;stroke-width: 3px"/>
        <polyline points="244.4 813.06 244.4 787.23 253.79 787.23 253.79 810.71" style="fill: #ffc299;stroke: #000;stroke-miterlimit: 10;stroke-width: 3px"/>
        <polyline points="259.66 813.06 259.66 787.23 264.36 787.23" style="fill: #ffc299;stroke: #000;stroke-miterlimit: 10;stroke-width: 3px"/>
        <polyline points="273.75 787.23 278.45 787.23 278.45 813.06" style="fill: #ffc299;stroke: #000;stroke-miterlimit: 10;stroke-width: 3px"/>
        <polygon points="229.14 768.45 296.06 768.45 291.36 780.19 236.18 780.19 229.14 768.45" style="fill: #ffc299;stroke: #000;stroke-miterlimit: 10;stroke-width: 3px"/>
        <path d="M294.88,768.45s9.39-11.74,12.92-16.44,4.69-12.91,2.34-18.78-46.95-44.61-46.95-44.61l-48.14,41.09s-5.87,12.91,0,21.13,14.09,17.61,14.09,17.61" style="fill: #3fa9f5;stroke: #000;stroke-miterlimit: 10;stroke-width: 3px"/>
        <line x1="262.7" y1="630.51" x2="262.7" y2="688.03" style="fill: #ffc299;stroke: #000;stroke-miterlimit: 10;stroke-width: 3px"/>
        <line x1="255.55" y1="637.55" x2="268.47" y2="637.55" style="fill: #ffc299;stroke: #000;stroke-miterlimit: 10;stroke-width: 2px"/>
        <circle cx="262.7" cy="662.5" r="3.23" style="fill: #ffc299;stroke: #000;stroke-miterlimit: 10;stroke-width: 3px"/>
        <path d="M278.45,702.71s18.78,22.22,18.78,30.52c0,10.57-2.35,12.91-5.87,17.61-5.5,7.34-13.87,17.61-13.87,17.61" style="fill: #fff;stroke: #000;stroke-linejoin: round;stroke-width: 3px"/>
        <path d="M246.75,702.71S228,724.93,228,733.23c0,10.57,2.34,12.91,5.87,17.61,5.5,7.34,13.87,17.61,13.87,17.61" style="fill: #fff;stroke: #000;stroke-linejoin: round;stroke-width: 3px"/>
        <path d="M259.66,692.14s-11.74,20-15.26,28.18-4.69,9.39-3.52,15.26,12.91,31.7,12.91,31.7" style="fill: #3fa9f5;stroke: #000;stroke-miterlimit: 10;stroke-width: 3px"/>
        <path d="M265.53,692.14s11.74,20,15.26,28.18,4.7,9.39,3.53,15.26-12.92,31.7-12.92,31.7" style="fill: #3fa9f5;stroke: #000;stroke-miterlimit: 10;stroke-width: 3px"/>
        <path d="M262,691s-8.8,22.89-8.8,40.5,8.21,37,8.21,37,9.4-20.54,9.4-35.81S263.19,691,263.19,691" style="fill: #fff;stroke: #000;stroke-linejoin: round;stroke-width: 3px"/>
      </g>
      <g>
        <rect x="428.5" y="928.11" width="88.05" height="8.22" transform="translate(945.05 1864.43) rotate(-180)" style="fill: #ffc299;stroke: #000;stroke-miterlimit: 10;stroke-width: 3px"/>
        <rect x="428.5" y="919.89" width="84.52" height="8.22" transform="translate(941.52 1848) rotate(-180)" style="fill: #ffc299;stroke: #000;stroke-miterlimit: 10;stroke-width: 3px"/>
        <rect x="428.5" y="911.67" width="79.83" height="7.04" transform="translate(936.83 1830.39) rotate(-180)" style="fill: #ffc299;stroke: #000;stroke-miterlimit: 10;stroke-width: 3px"/>
        <rect x="428.5" y="838.89" width="79.83" height="70.44" transform="translate(936.83 1748.21) rotate(-180)" style="fill: #ffc299;stroke: #000;stroke-miterlimit: 10;stroke-width: 3px"/>
        <path d="M482.5,837.71V827.15s-1.17-10.57-11.74-10.57-12.91,10.57-12.91,10.57v10.56" style="fill: #7ac943;stroke: #000;stroke-miterlimit: 10;stroke-width: 3px"/>
        <path d="M508.33,838.3V827.73s-1.17-10.56-11.74-10.56-12.91,10.56-12.91,10.56V838.3" style="fill: #7ac943;stroke: #000;stroke-miterlimit: 10;stroke-width: 3px"/>
        <path d="M455.5,837.13V826.56S454.33,816,443.76,816s-12.91,10.57-12.91,10.57v10.57" style="fill: #7ac943;stroke: #000;stroke-miterlimit: 10;stroke-width: 3px"/>
        <polyline points="508.92 908.74 496 838.89 481.92 906.39 468.41 838.89 454.91 906.39 440.83 840.65 429.09 908.74" style="fill: #a67c52;stroke: #000;stroke-linejoin: round;stroke-width: 3px"/>
        <polyline points="496 817.17 496 779.6 440.83 779.6 440.83 814.82" style="fill: #ffc299;stroke: #000;stroke-miterlimit: 10;stroke-width: 3px"/>
        <polyline points="487.2 813.06 487.2 787.23 477.81 787.23 477.81 810.71" style="fill: #ffc299;stroke: #000;stroke-miterlimit: 10;stroke-width: 3px"/>
        <polyline points="471.94 813.06 471.94 787.23 467.24 787.23" style="fill: #ffc299;stroke: #000;stroke-miterlimit: 10;stroke-width: 3px"/>
        <polyline points="457.85 787.23 453.15 787.23 453.15 813.06" style="fill: #ffc299;stroke: #000;stroke-miterlimit: 10;stroke-width: 3px"/>
        <polygon points="502.46 768.45 435.54 768.45 440.24 780.19 495.42 780.19 502.46 768.45" style="fill: #ffc299;stroke: #000;stroke-miterlimit: 10;stroke-width: 3px"/>
        <path d="M436.72,768.45S427.33,756.71,423.8,752s-4.69-12.91-2.34-18.78,47-44.61,47-44.61l48.14,41.09s5.87,12.91,0,21.13-14.09,17.61-14.09,17.61" style="fill: #f7931e;stroke: #000;stroke-miterlimit: 10;stroke-width: 3px"/>
        <line x1="468.9" y1="630.51" x2="468.9" y2="688.03" style="fill: #ffc299;stroke: #000;stroke-miterlimit: 10;stroke-width: 3px"/>
        <line x1="476.05" y1="637.55" x2="463.13" y2="637.55" style="fill: #ffc299;stroke: #000;stroke-miterlimit: 10;stroke-width: 2px"/>
        <circle cx="468.9" cy="662.5" r="3.23" style="fill: #ffc299;stroke: #000;stroke-miterlimit: 10;stroke-width: 3px"/>
        <path d="M453.15,702.71s-18.78,22.22-18.78,30.52c0,10.57,2.35,12.91,5.87,17.61,5.5,7.34,13.87,17.61,13.87,17.61" style="fill: #7ac943;stroke: #000;stroke-linejoin: round;stroke-width: 3px"/>
        <path d="M484.85,702.71s18.78,22.22,18.78,30.52c0,10.57-2.34,12.91-5.87,17.61-5.5,7.34-13.87,17.61-13.87,17.61" style="fill: #7ac943;stroke: #000;stroke-linejoin: round;stroke-width: 3px"/>
        <path d="M466.07,692.14s-11.74,20-15.26,28.18-4.7,9.39-3.53,15.26,12.92,31.7,12.92,31.7" style="fill: #f7931e;stroke: #000;stroke-miterlimit: 10;stroke-width: 3px"/>
        <path d="M471.94,692.14s11.74,20,15.26,28.18,4.69,9.39,3.52,15.26-12.91,31.7-12.91,31.7" style="fill: #f7931e;stroke: #000;stroke-miterlimit: 10;stroke-width: 3px"/>
        <path d="M469.59,691s8.8,22.89,8.8,40.5-8.21,37-8.21,37-9.4-20.54-9.4-35.81S468.41,691,468.41,691" style="fill: #7ac943;stroke: #000;stroke-linejoin: round;stroke-width: 3px"/>
      </g>
      <rect x="302.51" y="811.3" width="125.61" height="124.44" style="fill: #ff9a55;stroke: #000;stroke-miterlimit: 10;stroke-width: 3px"/>
      <path d="M333.14,861.78h3.31a9.5,9.5,0,0,1,9.5,9.5v39.81a0,0,0,0,1,0,0H323.64a0,0,0,0,1,0,0V871.28A9.5,9.5,0,0,1,333.14,861.78Z" style="fill: #ffc299;stroke: #000;stroke-miterlimit: 10;stroke-width: 3px"/>
      <path d="M364.25,862.37h3.31a9.5,9.5,0,0,1,9.5,9.5v39.81a0,0,0,0,1,0,0H354.75a0,0,0,0,1,0,0V871.87A9.5,9.5,0,0,1,364.25,862.37Z" style="fill: #ffc299;stroke: #000;stroke-miterlimit: 10;stroke-width: 3px"/>
      <path d="M397.12,862.37h3.31a9.5,9.5,0,0,1,9.5,9.5v39.81a0,0,0,0,1,0,0H387.62a0,0,0,0,1,0,0V871.87A9.5,9.5,0,0,1,397.12,862.37Z" style="fill: #ffc299;stroke: #000;stroke-miterlimit: 10;stroke-width: 3px"/>
      <line x1="303.1" y1="911.67" x2="428.5" y2="911.67" style="fill: #ffc299;stroke: #000;stroke-miterlimit: 10;stroke-width: 3px"/>
      <rect x="313.67" y="835.36" width="104.48" height="18.78" style="fill: #ffc299;stroke: #000;stroke-miterlimit: 10;stroke-width: 3px"/>
      <rect x="319.54" y="748.49" width="42.26" height="61.05" style="fill: #ffc299;stroke: #000;stroke-miterlimit: 10;stroke-width: 3px"/>
      <rect x="373.54" y="748.49" width="41.09" height="61.05" style="fill: #ffc299;stroke: #000;stroke-miterlimit: 10;stroke-width: 3px"/>
      <rect x="386.45" y="780.19" width="14.09" height="23.48" style="fill: #ffc299;stroke: #000;stroke-miterlimit: 10;stroke-width: 3px"/>
      <rect x="334.8" y="780.19" width="12.91" height="23.48" style="fill: #ffc299;stroke: #000;stroke-miterlimit: 10;stroke-width: 3px"/>
      <line x1="311.37" y1="748.49" x2="420.5" y2="748.49" style="fill: #ffc299;stroke: #000;stroke-miterlimit: 10;stroke-width: 3px"/>
      <path d="M425.19,759.06v51.65" style="fill: #ffc299;stroke: #000;stroke-miterlimit: 10;stroke-width: 3px"/>
      <line x1="308" y1="810.71" x2="308" y2="752.01" style="fill: #ffc299;stroke: #000;stroke-miterlimit: 10;stroke-width: 3px"/>
      <polyline points="325.4 652.23 355.93 563.01 361.8 563.01 375.88 563.01 411.1 652.23" style="fill: #ffc299;stroke: #000;stroke-miterlimit: 10;stroke-width: 3px"/>
      <line x1="343.38" y1="652.23" x2="361.8" y2="563.01" style="fill: #ffc299;stroke: #000;stroke-miterlimit: 10;stroke-width: 3px"/>
      <line x1="367.08" y1="652.23" x2="368.25" y2="563.01" style="fill: #ffc299;stroke: #000;stroke-miterlimit: 10;stroke-width: 3px"/>
      <line x1="388.05" y1="652.23" x2="373.54" y2="563.01" style="fill: #ffc299;stroke: #000;stroke-miterlimit: 10;stroke-width: 3px"/>
      <path d="M319.54,743.8s1.17-20,15.26-18.79,15.26,18.79,15.26,18.79" style="fill: none;stroke: #000;stroke-miterlimit: 10;stroke-width: 3px"/>
      <path d="M351.23,743.8s1.18-20,15.26-18.79,15.26,18.79,15.26,18.79" style="fill: none;stroke: #000;stroke-miterlimit: 10;stroke-width: 3px"/>
      <path d="M382.93,743.8s1.17-20,15.26-18.79,15.26,18.79,15.26,18.79" style="fill: none;stroke: #000;stroke-miterlimit: 10;stroke-width: 3px"/>
      <g>
        <path d="M319.54,726.19s1.17-20,15.26-18.79,15.26,18.79,15.26,18.79" style="fill: none;stroke: #000;stroke-miterlimit: 10;stroke-width: 3px"/>
        <path d="M351.23,726.19s1.18-20,15.26-18.79,15.26,18.79,15.26,18.79" style="fill: none;stroke: #000;stroke-miterlimit: 10;stroke-width: 3px"/>
        <path d="M382.93,726.19s1.17-20,15.26-18.79,15.26,18.79,15.26,18.79" style="fill: none;stroke: #000;stroke-miterlimit: 10;stroke-width: 3px"/>
      </g>
      <g>
        <path d="M322.47,707.4s1.14-19.95,14.78-18.78S352,707.4,352,707.4" style="fill: none;stroke: #000;stroke-miterlimit: 10;stroke-width: 3px"/>
        <path d="M353.18,707.4s1.13-19.95,14.78-18.78,14.79,18.78,14.79,18.78" style="fill: none;stroke: #000;stroke-miterlimit: 10;stroke-width: 3px"/>
        <path d="M383.88,707.4s1.14-19.95,14.79-18.78,14.78,18.78,14.78,18.78" style="fill: none;stroke: #000;stroke-miterlimit: 10;stroke-width: 3px"/>
      </g>
      <g>
        <path d="M324.82,686.27s1.05-20,13.73-18.78,13.74,18.78,13.74,18.78" style="fill: none;stroke: #000;stroke-miterlimit: 10;stroke-width: 3px"/>
        <path d="M353.35,686.27s1-20,13.73-18.78,13.74,18.78,13.74,18.78" style="fill: none;stroke: #000;stroke-miterlimit: 10;stroke-width: 3px"/>
        <path d="M381.87,686.27s1.06-20,13.74-18.78,13.73,18.78,13.73,18.78" style="fill: none;stroke: #000;stroke-miterlimit: 10;stroke-width: 3px"/>
      </g>
      <ellipse cx="366.49" cy="553.03" rx="17.02" ry="9.39" style="fill: #ffc299;stroke: #000;stroke-miterlimit: 10;stroke-width: 3px"/>
      <path d="M366.49,530.14a19.18,19.18,0,0,1-8.88-2.58,14.39,14.39,0,0,1-6.38-8c-3.52-10.57,16.44-31.7,16.44-31.7s18.78,23.48,18.78,29.35S379.41,530.14,366.49,530.14Z" style="fill: #fcee21;stroke: #000;stroke-miterlimit: 10;stroke-width: 3px"/>
      <line x1="357.1" y1="544.22" x2="357.1" y2="527.79" style="fill: #ffc299;stroke: #000;stroke-miterlimit: 10;stroke-width: 3px"/>
      <line x1="377.06" y1="544.22" x2="377.06" y2="528.1" style="fill: #ffc299;stroke: #000;stroke-miterlimit: 10;stroke-width: 3px"/>
      <line x1="367.67" y1="487.87" x2="367.67" y2="450.31" style="fill: #ffc299;stroke: #000;stroke-miterlimit: 10;stroke-width: 3px"/>
      <line x1="357.1" y1="462.05" x2="377.06" y2="462.05" style="fill: #ffc299;stroke: #000;stroke-miterlimit: 10;stroke-width: 3px"/>
    </g>
    <g>
      <path d="M892,1026.81V623.29s32.63-30.46,79.4-34.81,46.76,0,46.76,0v438.33Z" style="fill: #8d98ff;stroke: #000;stroke-miterlimit: 10;stroke-width: 3px"/>
      <polyline points="1052.98 586.31 1029.05 596.1 1029.05 1026.81 1052.98 1026.81 1052.98 586.31" style="fill: #8d98ff;stroke: #000;stroke-miterlimit: 10;stroke-width: 3px"/>
      <line x1="1018.17" y1="1026.81" x2="1029.05" y2="1026.81" style="fill: #8d98ff;stroke: #000;stroke-miterlimit: 10;stroke-width: 3px"/>
      <line x1="1018.17" y1="588.48" x2="1029.05" y2="596.1" style="fill: #8d98ff;stroke: #000;stroke-miterlimit: 10;stroke-width: 3px"/>
      <line x1="1053.52" y1="1007.23" x2="892.01" y2="1007.23" style="fill: #8d98ff;stroke: #000;stroke-miterlimit: 10;stroke-width: 3px"/>
      <line x1="1053.52" y1="993.09" x2="892.01" y2="993.09" style="fill: #8d98ff;stroke: #000;stroke-miterlimit: 10;stroke-width: 3px"/>
      <line x1="1053.52" y1="975.69" x2="892.01" y2="975.69" style="fill: #8d98ff;stroke: #000;stroke-miterlimit: 10;stroke-width: 3px"/>
      <line x1="1053.52" y1="961.55" x2="892.01" y2="961.55" style="fill: #8d98ff;stroke: #000;stroke-miterlimit: 10;stroke-width: 3px"/>
      <path d="M892,640.68s33.65-25.17,63.62-31c36.44-7.07,62.54-2,62.54-2l9.25,6.38L1053,605.2" style="fill: #8d98ff;stroke: #000;stroke-miterlimit: 10;stroke-width: 3px"/>
      <path d="M892,655.91s33.65-25.18,63.62-31c36.44-7.07,62.54-2,62.54-2l9.25,6.38,25.56-8.84" style="fill: #8d98ff;stroke: #000;stroke-miterlimit: 10;stroke-width: 3px"/>
      <path d="M892,672.23s33.65-25.18,63.62-31c36.44-7.07,62.54-2,62.54-2l10.34,6.38,24.47-8.83" style="fill: #8d98ff;stroke: #000;stroke-miterlimit: 10;stroke-width: 3px"/>
      <path d="M892,688.54s33.65-23,63.62-28.82c36.44-7.07,62.54-4.2,62.54-4.2l10.34,7.47,24.47-8.84" style="fill: #8d98ff;stroke: #000;stroke-miterlimit: 10;stroke-width: 3px"/>
      <path d="M892,703.77s33.65-21.92,63.62-27.73c36.44-7.07,62.54-3.12,62.54-3.12l10.34,7.47,24.47-8.84" style="fill: #8d98ff;stroke: #000;stroke-miterlimit: 10;stroke-width: 3px"/>
      <path d="M892,717.91s33.65-19.74,63.62-25.56c36.44-7.07,62.54-3.11,62.54-3.11l10.34,7.46,24.47-8.83" style="fill: #8d98ff;stroke: #000;stroke-miterlimit: 10;stroke-width: 3px"/>
      <path d="M892,734.22s33.65-19.74,63.62-25.55c36.44-7.07,62.54-2,62.54-2l10.34,7.47,24.47-8.84" style="fill: #8d98ff;stroke: #000;stroke-miterlimit: 10;stroke-width: 3px"/>
      <path d="M892,748.36s33.65-16.47,63.62-22.29c36.44-7.07,62.54-2,62.54-2l10.34,5.29,24.47-9.92" style="fill: #8d98ff;stroke: #000;stroke-miterlimit: 10;stroke-width: 3px"/>
      <path d="M890.92,764.68s33.25-19.21,63.63-22.29c37.52-3.81,62.54-.95,62.54-.95l10.33,4.21,24.47-4.49" style="fill: #8d98ff;stroke: #000;stroke-miterlimit: 10;stroke-width: 3px"/>
      <path d="M890.92,779.9s33.25-18.12,63.63-21.2c37.52-3.81,62.54-.94,62.54-.94l10.33,4.2,24.47-4.48" style="fill: #8d98ff;stroke: #000;stroke-miterlimit: 10;stroke-width: 3px"/>
      <path d="M890.92,796.22S924.17,778.1,954.55,775c37.52-3.8,62.54-.94,62.54-.94l10.33,4.21,24.47-1.23" style="fill: #8d98ff;stroke: #000;stroke-miterlimit: 10;stroke-width: 3px"/>
      <path d="M890.92,811.44s33.25-18.12,63.63-21.2c37.52-3.8,62.54-.94,62.54-.94l10.33,4.2,24.47-1.22" style="fill: #8d98ff;stroke: #000;stroke-miterlimit: 10;stroke-width: 3px"/>
      <path d="M890.92,827.76s33.25-18.12,63.63-21.2c37.52-3.81,62.54-.94,62.54-.94l10.33,4.2,24.47-1.23" style="fill: #8d98ff;stroke: #000;stroke-miterlimit: 10;stroke-width: 3px"/>
      <path d="M890.92,843s33.25-14.86,63.63-17.94c37.52-3.81,62.54-2,62.54-2l10.33,3.11,24.47-1.22" style="fill: #8d98ff;stroke: #000;stroke-miterlimit: 10;stroke-width: 3px"/>
      <path d="M890.92,857.13s33.25-12.69,63.63-15.77c37.52-3.81,62.54-2,62.54-2l10.33,3.12,24.47-1.23" style="fill: #8d98ff;stroke: #000;stroke-miterlimit: 10;stroke-width: 3px"/>
      <path d="M892,871.27s33.25-11.6,63.62-14.68c37.53-3.81,62.54-.94,62.54-.94l10.34,3.11,24.47-.13" style="fill: #8d98ff;stroke: #000;stroke-miterlimit: 10;stroke-width: 3px"/>
      <path d="M890.92,887.58S924.17,876,954.55,872.9c37.52-3.8,62.54,1.24,62.54,1.24l10.33,2,24.47-1.23" style="fill: #8d98ff;stroke: #000;stroke-miterlimit: 10;stroke-width: 3px"/>
      <path d="M892,902.81s33.25-9.42,63.62-12.5c37.53-3.81,62.54,1.23,62.54,1.23l10.34.94,24.47-.14" style="fill: #8d98ff;stroke: #000;stroke-miterlimit: 10;stroke-width: 3px"/>
      <path d="M892,917s33.25-6.16,63.62-9.24c37.53-3.81,62.54,1.23,62.54,1.23l10.34-.14,24.47-1.23" style="fill: #8d98ff;stroke: #000;stroke-miterlimit: 10;stroke-width: 3px"/>
      <path d="M893.09,931.09s33.13-5.81,63.63-7.07c39.7-1.63,62.54.15,62.54.15l10.34,2,24.47-.14" style="fill: #8d98ff;stroke: #000;stroke-miterlimit: 10;stroke-width: 3px"/>
      <path d="M892,946.31s33.12-3.66,63.62-4.88c40.79-1.64,62.54.14,62.54.14l10.34,2,24.47-1.22" style="fill: #8d98ff;stroke: #000;stroke-miterlimit: 10;stroke-width: 3px"/>
    </g>
    <g>
      <path d="M1342.92,626.81l45-42s56,163,64,203,16,102,12,138-13,98-13,98-41-126-47-142-37-91-42-110-12-47-14-69S1342.92,626.81,1342.92,626.81Z" style="fill: #03a6d8;stroke: #000;stroke-miterlimit: 10;stroke-width: 3px"/>
      <path d="M1361.92,783.81s-21,96-19,130,19,114,19,114h89" style="fill: #03a6d8;stroke: #000;stroke-miterlimit: 10;stroke-width: 3px"/>
      <line x1="1358.03" y1="1008.81" x2="1444.92" y2="1004.81" style="fill: #03a6d8;stroke: #000;stroke-miterlimit: 10;stroke-width: 3px"/>
      <polyline points="1354.52 990.75 1436.38 979.28 1456.37 985.01" style="fill: #03a6d8;stroke: #000;stroke-miterlimit: 10;stroke-width: 3px"/>
      <polyline points="1459.81 959.3 1427.73 952.91 1350.81 970.55" style="fill: #03a6d8;stroke: #000;stroke-miterlimit: 10;stroke-width: 3px"/>
      <path d="M1347.35,949.94c-.43-.13,72.08-22.2,72.08-22.2l43.65,5.41" style="fill: #03a6d8;stroke: #000;stroke-miterlimit: 10;stroke-width: 3px"/>
      <polyline points="1464.98 909.11 1411.14 902.8 1344.49 929.95" style="fill: #03a6d8;stroke: #000;stroke-miterlimit: 10;stroke-width: 3px"/>
      <polyline points="1342.92 902.94 1402.13 877.16 1463.08 881.76" style="fill: #03a6d8;stroke: #000;stroke-miterlimit: 10;stroke-width: 3px"/>
      <polyline points="1463.08 856.48 1392.41 852.73 1344.49 882.13" style="fill: #03a6d8;stroke: #000;stroke-miterlimit: 10;stroke-width: 3px"/>
      <polyline points="1347.97 858.25 1383.82 831.17 1459.51 833.66" style="fill: #03a6d8;stroke: #000;stroke-miterlimit: 10;stroke-width: 3px"/>
      <polyline points="1455.97 810.1 1375.24 809.23 1353.03 828.49" style="fill: #03a6d8;stroke: #000;stroke-miterlimit: 10;stroke-width: 3px"/>
      <line x1="1366.81" y1="786.72" x2="1450.92" y2="787.81" style="fill: #03a6d8;stroke: #000;stroke-miterlimit: 10;stroke-width: 3px"/>
      <path d="M1361,768.13l84.27-6.34s7.69-55,10.69-75,0-79,0-79l-68-23" style="fill: #03a6d8;stroke: #000;stroke-miterlimit: 10;stroke-width: 3px"/>
      <line x1="1356.11" y1="748.65" x2="1436.99" y2="734.15" style="fill: #03a6d8;stroke: #000;stroke-miterlimit: 10;stroke-width: 3px"/>
      <polyline points="1353.03 730.41 1429.42 709.97 1450.92 720.12" style="fill: #03a6d8;stroke: #000;stroke-miterlimit: 10;stroke-width: 3px"/>
      <line x1="1454.54" y1="696.16" x2="1422.97" y2="683.81" style="fill: #03a6d8;stroke: #000;stroke-miterlimit: 10;stroke-width: 3px"/>
      <line x1="1413.92" y1="654.81" x2="1457.01" y2="672.63" style="fill: #03a6d8;stroke: #000;stroke-miterlimit: 10;stroke-width: 3px"/>
      <line x1="1455.98" y1="646.6" x2="1404.5" y2="629.26" style="fill: #03a6d8;stroke: #000;stroke-miterlimit: 10;stroke-width: 3px"/>
      <line x1="1396.55" y1="605.06" x2="1456.65" y2="625.65" style="fill: #03a6d8;stroke: #000;stroke-miterlimit: 10;stroke-width: 3px"/>
      <line x1="1344.07" y1="646.6" x2="1396.55" y2="615.35" style="fill: #03a6d8;stroke: #000;stroke-miterlimit: 10;stroke-width: 3px"/>
      <line x1="1407.04" y1="641.43" x2="1343.92" y2="668.81" style="fill: #03a6d8;stroke: #000;stroke-miterlimit: 10;stroke-width: 3px"/>
      <line x1="1346.89" y1="689.99" x2="1415.12" y2="665.83" style="fill: #03a6d8;stroke: #000;stroke-miterlimit: 10;stroke-width: 3px"/>
      <line x1="1422.97" y1="689.86" x2="1348.72" y2="709.96" style="fill: #03a6d8;stroke: #000;stroke-miterlimit: 10;stroke-width: 3px"/>
    </g>
    <g>
      <line x1="1099.49" y1="836.15" x2="1099.49" y2="928.58" style="fill: #b0f0ff;stroke: #000;stroke-miterlimit: 10;stroke-width: 3px"/>
      <line x1="1081.92" y1="934.81" x2="1092.92" y2="939.81" style="fill: #b0f0ff;stroke: #000;stroke-miterlimit: 10;stroke-width: 3px"/>
      <g>
        <polygon points="1092.92 1028.81 1092.92 939.81 1141.92 928.81 1181.92 945.81 1181.92 1028.81 1092.92 1028.81" style="fill: #b0f0ff;stroke: #000;stroke-miterlimit: 10;stroke-width: 3px"/>
        <line x1="1141.92" y1="928.81" x2="1141.92" y2="1030.31" style="fill: #b0f0ff;stroke: #000;stroke-miterlimit: 10;stroke-width: 3px"/>
        <line x1="1157.6" y1="935.47" x2="1157.6" y2="1028.81" style="fill: #b0f0ff;stroke: #000;stroke-miterlimit: 10;stroke-width: 3px"/>
        <line x1="1169.59" y1="940.57" x2="1169.59" y2="1028.81" style="fill: #b0f0ff;stroke: #000;stroke-miterlimit: 10;stroke-width: 3px"/>
        <line x1="1141.92" y1="988.51" x2="1181.92" y2="996.92" style="fill: #b0f0ff;stroke: #000;stroke-miterlimit: 10;stroke-width: 3px"/>
        <polyline points="1092.92 947.95 1141.92 947.95 1181.92 967.59" style="fill: #b0f0ff;stroke: #000;stroke-miterlimit: 10;stroke-width: 3px"/>
        <polygon points="1081.92 841.81 1081.92 868.43 1081.92 934.81 1129.92 917.81 1129.92 853.73 1129.92 820.81 1081.92 841.81" style="fill: #b0f0ff;stroke: #000;stroke-miterlimit: 10;stroke-width: 3px"/>
        <line x1="1083.92" y1="902.81" x2="1129.92" y2="883.12" style="fill: #b0f0ff;stroke: #000;stroke-miterlimit: 10;stroke-width: 3px"/>
        <line x1="1081.92" y1="868.81" x2="1129.92" y2="853.81" style="fill: #b0f0ff;stroke: #000;stroke-miterlimit: 10;stroke-width: 3px"/>
        <line x1="1119.21" y1="825.49" x2="1118.92" y2="917.81" style="fill: #b0f0ff;stroke: #000;stroke-miterlimit: 10;stroke-width: 3px"/>
        <polyline points="1129.92 820.81 1169.92 856.81 1169.92 935.81 1129.92 917.81" style="fill: #b0f0ff;stroke: #000;stroke-miterlimit: 10;stroke-width: 3px"/>
        <polyline points="1134.92 823.81 1140.92 820.81 1178.92 850.81 1169.92 853.81" style="fill: #b0f0ff;stroke: #000;stroke-miterlimit: 10;stroke-width: 3px"/>
        <polyline points="1091.92 834.81 1091.92 749.81 1141.92 729.81 1141.92 820.81" style="fill: #b0f0ff;stroke: #000;stroke-miterlimit: 10;stroke-width: 3px"/>
        <polyline points="1141.92 729.81 1178.92 755.81 1178.92 851.81" style="fill: #b0f0ff;stroke: #000;stroke-miterlimit: 10;stroke-width: 3px"/>
        <line x1="1142.92" y1="757.81" x2="1178.92" y2="782.31" style="fill: #b0f0ff;stroke: #000;stroke-miterlimit: 10;stroke-width: 3px"/>
        <line x1="1142.92" y1="786.97" x2="1178.92" y2="813.7" style="fill: #b0f0ff;stroke: #000;stroke-miterlimit: 10;stroke-width: 3px"/>
        <line x1="1156.92" y1="739.81" x2="1156.92" y2="831.8" style="fill: #b0f0ff;stroke: #000;stroke-miterlimit: 10;stroke-width: 3px"/>
        <line x1="1169.92" y1="749.26" x2="1167.84" y2="842.06" style="fill: #b0f0ff;stroke: #000;stroke-miterlimit: 10;stroke-width: 3px"/>
        <polyline points="1088.92 745.81 1133.92 723.81 1137.92 727.81 1091.42 749.31 1087.42 747.31 1087.42 654.31 1136.42 634.31 1136.42 723.31" style="fill: #b0f0ff;stroke: #000;stroke-miterlimit: 10;stroke-width: 3px"/>
        <polyline points="1100.42 645.31 1100.42 634.31 1136.42 621.31 1136.42 634.31 1161.62 654.74 1173.42 664.31 1173.42 749.31" style="fill: #b0f0ff;stroke: #000;stroke-miterlimit: 10;stroke-width: 3px"/>
        <polyline points="1162.42 652.31 1162.42 642.31 1137.42 621.31" style="fill: #b0f0ff;stroke: #000;stroke-miterlimit: 10;stroke-width: 3px"/>
        <line x1="1105.92" y1="649.89" x2="1106.42" y2="734.31" style="fill: #b0f0ff;stroke: #000;stroke-miterlimit: 10;stroke-width: 3px"/>
        <line x1="1120.8" y1="642.43" x2="1120.8" y2="727.81" style="fill: #b0f0ff;stroke: #000;stroke-miterlimit: 10;stroke-width: 3px"/>
        <line x1="1087.92" y1="715.81" x2="1136.42" y2="697.16" style="fill: #b0f0ff;stroke: #000;stroke-miterlimit: 10;stroke-width: 3px"/>
        <line x1="1087.42" y1="681.93" x2="1136.42" y2="664.72" style="fill: #b0f0ff;stroke: #000;stroke-miterlimit: 10;stroke-width: 3px"/>
      </g>
      <g>
        <polygon points="1206.92 939.81 1206.92 850.81 1255.92 839.81 1295.92 856.81 1288.92 951.81 1251.42 939.32 1206.92 939.81" style="fill: #b0f0ff;stroke: #000;stroke-miterlimit: 10;stroke-width: 3px"/>
        <line x1="1255.92" y1="839.81" x2="1255.92" y2="941.31" style="fill: #b0f0ff;stroke: #000;stroke-miterlimit: 10;stroke-width: 3px"/>
        <line x1="1271.6" y1="846.47" x2="1271.6" y2="943.81" style="fill: #b0f0ff;stroke: #000;stroke-miterlimit: 10;stroke-width: 3px"/>
        <path d="M1283.59,851.57v97.24c0-4.35.33,80,.33,80h-35" style="fill: #b0f0ff;stroke: #000;stroke-miterlimit: 10;stroke-width: 3px"/>
        <line x1="1255.92" y1="899.51" x2="1295.92" y2="907.92" style="fill: #b0f0ff;stroke: #000;stroke-miterlimit: 10;stroke-width: 3px"/>
        <line x1="1255.92" y1="858.95" x2="1295.92" y2="878.59" style="fill: #b0f0ff;stroke: #000;stroke-miterlimit: 10;stroke-width: 3px"/>
        <polygon points="1195.92 752.81 1195.92 779.43 1195.92 845.81 1243.92 828.81 1243.92 764.73 1243.92 731.81 1195.92 752.81" style="fill: #b0f0ff;stroke: #000;stroke-miterlimit: 10;stroke-width: 3px"/>
        <line x1="1197.92" y1="813.81" x2="1243.92" y2="794.12" style="fill: #b0f0ff;stroke: #000;stroke-miterlimit: 10;stroke-width: 3px"/>
        <line x1="1195.92" y1="779.81" x2="1243.92" y2="764.81" style="fill: #b0f0ff;stroke: #000;stroke-miterlimit: 10;stroke-width: 3px"/>
        <line x1="1233.21" y1="736.49" x2="1232.92" y2="828.81" style="fill: #b0f0ff;stroke: #000;stroke-miterlimit: 10;stroke-width: 3px"/>
        <polyline points="1243.92 731.81 1283.92 767.81 1283.92 846.81 1243.92 828.81" style="fill: #b0f0ff;stroke: #000;stroke-miterlimit: 10;stroke-width: 3px"/>
        <polyline points="1248.92 734.81 1254.92 731.81 1292.92 761.81 1283.92 764.81" style="fill: #b0f0ff;stroke: #000;stroke-miterlimit: 10;stroke-width: 3px"/>
        <polyline points="1205.92 745.81 1205.92 660.81 1255.92 640.81 1255.92 731.81" style="fill: #b0f0ff;stroke: #000;stroke-miterlimit: 10;stroke-width: 3px"/>
        <polyline points="1255.92 640.81 1292.92 666.81 1292.92 762.81" style="fill: #b0f0ff;stroke: #000;stroke-miterlimit: 10;stroke-width: 3px"/>
        <line x1="1256.92" y1="668.81" x2="1292.92" y2="693.31" style="fill: #b0f0ff;stroke: #000;stroke-miterlimit: 10;stroke-width: 3px"/>
        <line x1="1256.92" y1="697.97" x2="1292.92" y2="724.7" style="fill: #b0f0ff;stroke: #000;stroke-miterlimit: 10;stroke-width: 3px"/>
        <line x1="1270.92" y1="650.81" x2="1270.92" y2="742.8" style="fill: #b0f0ff;stroke: #000;stroke-miterlimit: 10;stroke-width: 3px"/>
        <line x1="1283.92" y1="660.26" x2="1281.84" y2="753.06" style="fill: #b0f0ff;stroke: #000;stroke-miterlimit: 10;stroke-width: 3px"/>
        <polyline points="1202.92 656.81 1247.92 634.81 1251.92 638.81 1205.42 660.31 1201.42 658.31 1201.42 565.31 1250.42 545.31 1250.42 634.31" style="fill: #b0f0ff;stroke: #000;stroke-miterlimit: 10;stroke-width: 3px"/>
        <polyline points="1214.42 556.31 1214.42 545.31 1250.42 532.31 1250.42 545.31 1275.62 565.74 1287.42 575.31 1287.42 660.31" style="fill: #b0f0ff;stroke: #000;stroke-miterlimit: 10;stroke-width: 3px"/>
        <polyline points="1276.42 563.31 1276.42 553.31 1251.42 532.31" style="fill: #b0f0ff;stroke: #000;stroke-miterlimit: 10;stroke-width: 3px"/>
        <line x1="1219.92" y1="560.89" x2="1220.42" y2="645.31" style="fill: #b0f0ff;stroke: #000;stroke-miterlimit: 10;stroke-width: 3px"/>
        <line x1="1234.8" y1="553.43" x2="1234.8" y2="638.81" style="fill: #b0f0ff;stroke: #000;stroke-miterlimit: 10;stroke-width: 3px"/>
        <line x1="1201.92" y1="626.81" x2="1250.42" y2="608.16" style="fill: #b0f0ff;stroke: #000;stroke-miterlimit: 10;stroke-width: 3px"/>
        <line x1="1201.42" y1="592.93" x2="1250.42" y2="575.72" style="fill: #b0f0ff;stroke: #000;stroke-miterlimit: 10;stroke-width: 3px"/>
      </g>
      <line x1="1195.92" y1="845.81" x2="1206.92" y2="850.81" style="fill: #b0f0ff;stroke: #000;stroke-miterlimit: 10;stroke-width: 3px"/>
      <polygon points="1200.92 1028.81 1200.92 966.73 1200.92 940.81 1248.92 940.81 1248.92 1028.81 1200.92 1028.81" style="fill: #b0f0ff;stroke: #000;stroke-miterlimit: 10;stroke-width: 3px"/>
      <line x1="1243.92" y1="966.81" x2="1200.92" y2="966.81" style="fill: #b0f0ff;stroke: #000;stroke-miterlimit: 10;stroke-width: 3px"/>
      <line x1="1245.92" y1="998.81" x2="1201.42" y2="998.81" style="fill: #b0f0ff;stroke: #000;stroke-miterlimit: 10;stroke-width: 3px"/>
      <line x1="1216.92" y1="943.81" x2="1216.92" y2="1026.81" style="fill: #b0f0ff;stroke: #000;stroke-miterlimit: 10;stroke-width: 3px"/>
      <line x1="1232.92" y1="942.24" x2="1232.92" y2="1026.81" style="fill: #b0f0ff;stroke: #000;stroke-miterlimit: 10;stroke-width: 3px"/>
    </g>
    <g>
      <rect x="67.8" y="442.81" width="41" height="50" style="fill: #ff7bac;stroke: #000;stroke-miterlimit: 10;stroke-width: 3px"/>
      <rect x="73.8" y="492.81" width="29" height="17" style="fill: #ff7bac;stroke: #000;stroke-miterlimit: 10;stroke-width: 3px"/>
      <rect x="79.8" y="509.81" width="17" height="61" style="fill: #ff7bac;stroke: #000;stroke-miterlimit: 10;stroke-width: 3px"/>
      <rect x="75.3" y="568.81" width="26" height="26" style="fill: #ff7bac;stroke: #000;stroke-miterlimit: 10;stroke-width: 3px"/>
      <rect x="70.3" y="594.81" width="36" height="25" style="fill: #ff7bac;stroke: #000;stroke-miterlimit: 10;stroke-width: 3px"/>
      <polygon points="99.3 619.81 73.3 619.81 69.3 867.81 67.3 908.4 61.3 1027.81 115.3 1027.81 106.3 908.81 106.3 870.49 99.3 619.81" style="fill: #ff7bac;stroke: #000;stroke-miterlimit: 10;stroke-width: 3px"/>
      <line x1="61.3" y1="870.81" x2="115.3" y2="870.81" style="fill: #ff7bac;stroke: #000;stroke-miterlimit: 10;stroke-width: 3px"/>
      <line x1="62.8" y1="799.81" x2="113.8" y2="799.81" style="fill: #ff7bac;stroke: #000;stroke-miterlimit: 10;stroke-width: 3px"/>
      <line x1="65.8" y1="788.81" x2="110.8" y2="788.81" style="fill: #ff7bac;stroke: #000;stroke-miterlimit: 10;stroke-width: 3px"/>
      <line x1="66.8" y1="772.81" x2="109.8" y2="772.81" style="fill: #ff7bac;stroke: #000;stroke-miterlimit: 10;stroke-width: 3px"/>
      <line x1="65.8" y1="757.81" x2="110.8" y2="757.81" style="fill: #ff7bac;stroke: #000;stroke-miterlimit: 10;stroke-width: 3px"/>
      <line x1="74.3" y1="500.11" x2="102.3" y2="500.11" style="fill: #ff7bac;stroke: #000;stroke-miterlimit: 10;stroke-width: 3px"/>
      <line x1="67.8" y1="478.07" x2="108.8" y2="478.07" style="fill: #ff7bac;stroke: #000;stroke-miterlimit: 10;stroke-width: 3px"/>
      <line x1="68.3" y1="466.32" x2="108.3" y2="466.32" style="fill: #ff7bac;stroke: #000;stroke-miterlimit: 10;stroke-width: 3px"/>
      <line x1="68.3" y1="453.69" x2="108.3" y2="453.69" style="fill: #ff7bac;stroke: #000;stroke-miterlimit: 10;stroke-width: 3px"/>
      <rect x="79.3" y="418.81" width="18" height="24" style="fill: #ff7bac;stroke: #000;stroke-miterlimit: 10;stroke-width: 3px"/>
      <line x1="88.3" y1="416.81" x2="88.3" y2="268.81" style="fill: #ff7bac;stroke: #000;stroke-miterlimit: 10;stroke-width: 2px"/>
      <line x1="82.8" y1="300.31" x2="93.8" y2="300.31" style="fill: #ff7bac;stroke: #000;stroke-miterlimit: 10;stroke-width: 2px"/>
      <line x1="82.3" y1="326.31" x2="94.3" y2="326.31" style="fill: #ff7bac;stroke: #000;stroke-miterlimit: 10;stroke-width: 2px"/>
      <line x1="82.3" y1="351.31" x2="94.3" y2="351.31" style="fill: #ff7bac;stroke: #000;stroke-miterlimit: 10;stroke-width: 2px"/>
      <line x1="81.8" y1="388.31" x2="94.8" y2="388.31" style="fill: #ff7bac;stroke: #000;stroke-miterlimit: 10;stroke-width: 2px"/>
    </g>
  </g>  <g id="faceBody">
    <g>
      <path d="M765,1154.26s-4.5-20.23,7.5-22.23,26,0,26,0,13-4,16-1,7,2,12-1-37-237-37-237" style="fill: none;stroke: #000;stroke-miterlimit: 10;stroke-width: 3px"/>
      <path d="M640.56,1131s-29.09,18.86-17.12,23.92,23,.11,25-.88,12-1,12,0,16.5-.63,16.5-.63S655.61,1119.06,640.56,1131Z" style="fill: #fff;stroke: #000;stroke-miterlimit: 10;stroke-width: 3px"/>
      <path d="M868.31,1124.62s19,5.9,46.19,7.41c36,2,149-15.3,144-9-8,10-29,11-85,21s-103.79-13.39-103.79-13.39Z" style="fill: #fff;stroke: #000;stroke-miterlimit: 10;stroke-width: 3px"/>
      <path d="M672.5,753s-21,7-24,11-6,21-6,21-7,33-8,35-16,110-18,113-13,32-15,38-12,20-14,26-32,77-32,77,0,12,7,10,70-137,70-152,10-52,10-55,7-72,7-72l19-13" style="fill: #fff;stroke: #000;stroke-miterlimit: 10;stroke-width: 3px"/>
      <g>
        <path d="M692.5,673.43l-60-12s-46-13-55-58c-5.15-25.74-15-111-15-111s24-160,32-171,5-32,18-36,18,8,25,28,10,45,10,45l7,37,3,52,10,3s19-12,43-12c12.54,0,50,4,50,4l47,8,17-52,28-65s16-36,23-33,15,26,15,26l9,52v27l10,50v72l-10,66s-29,66-60,74-69,9-69,14,9,24,9,24l8,35,68-7,56-15,24-116,20-58s14-10,22-8-2,48-15,73c-10.24,19.7-18,80-18,80l-17,52-66,14-63,14,53,283,23,105s-107,2-194-4c-8.23-.57-44-41-39-51s26-357,31-362,22-50,22-50Z" style="fill: #fff;stroke: #000;stroke-miterlimit: 10;stroke-width: 3px"/>
        <path d="M603,329.43s10-28,18-22,28,87,28,87v69s-32-6-46,0L574.84,475.5Z" style="fill: #f50"/>
        <path d="M827.24,455.26c-1-3,27.46-92.87,27.46-92.87s18.39-55.55,23.28-44.7,14.52,57.56,14.52,57.56-3,33.31-.06,39.33,3.65,72-.36,75S827.24,455.26,827.24,455.26Z" style="fill: #f50"/>
        <path d="M765,1154.66s-4.5-20.23,7.5-22.23,26,0,26,0,13-4,16-1,7,2,12-1-37-237-37-237" style="fill: none;stroke: #000;stroke-miterlimit: 10;stroke-width: 3px"/>
        <path d="M640.56,1131.39s-29.09,18.86-17.12,23.92,23,.11,25-.89,12-.94,12,.06,16.5-.63,16.5-.63S655.61,1119.46,640.56,1131.39Z" style="fill: #fff;stroke: #000;stroke-miterlimit: 10;stroke-width: 3px"/>
        <path d="M868.31,1125s19,5.9,46.19,7.41c36,2,149-15.3,144-9-8,10-29,11-85,21S869.71,1131,869.71,1131Z" style="fill: #fff;stroke: #000;stroke-miterlimit: 10;stroke-width: 3px"/>
        <path d="M672.5,753.43s-21,7-24,11-6,21-6,21-7,33-8,35-16,110-18,113-13,32-15,38-12,20-14,26-32,77-32,77,0,12,7,10,70-137,70-152,10-52,10-55,7-72,7-72l19-13" style="fill: #fff;stroke: #000;stroke-miterlimit: 10;stroke-width: 3px"/>
      </g>
    </g>
  </g>  <g id="bell">
    <path d="M690,713s27,14,46,13,46-18,46-18" style="fill: none;stroke: #ff4200;stroke-miterlimit: 10;stroke-width: 6px"/>
    <g>
      <path d="M755.82,741.14a32.18,32.18,0,1,0,16.35,28A32.06,32.06,0,0,0,755.82,741.14Z" style="fill: #ffd400;stroke: #000;stroke-miterlimit: 10;stroke-width: 3px"/>
      <circle cx="737.6" cy="769.66" r="30.25" style="fill: #f50"/>
      <circle cx="734" cy="764.61" r="31.33" style="fill: #ffd400;stroke: #000;stroke-miterlimit: 10;stroke-width: 3px"/>
      <path d="M731.83,732.92s-.72-5,3.61-5,3.6,5.76,3.6,5.76" style="fill: none;stroke: #000;stroke-miterlimit: 10;stroke-width: 2px"/>
      <polygon points="730.39 752.73 730.39 754.89 742.14 754.89 728.74 767.91 723.24 762.41 721.71 763.94 727.19 769.41 718.84 777.52 720.34 779.07 728.71 770.94 734.31 776.54 735.84 775.01 730.26 769.44 744.44 755.67 744.44 768.22 746.6 768.22 746.6 752.73 730.39 752.73" style="fill: #f50"/>
      <polygon points="729.67 750.57 729.67 752.73 741.42 752.73 728.01 765.75 722.52 760.25 720.99 761.78 726.47 767.25 718.12 775.36 719.62 776.91 727.99 768.78 733.59 774.38 735.12 772.85 729.54 767.28 743.72 753.5 743.72 766.05 745.88 766.05 745.88 750.57 729.67 750.57" style="fill: #020202"/>
    </g>
  </g>  <g id="nose">
    <path d="M726.57,548.94c-3.83,1.15-13,3-7,8s7.17,8.59,9,13c1.91,4.62,3.74,15.15,2,20-1.06,2.94-5.61,7.09-9,9.91a.77.77,0,0,0,.76,1.32l8.51-3.19a8.55,8.55,0,0,1,5.56-.15l10.19,3.22a1.09,1.09,0,0,0,1-1.88c-2.82-2.28-6-5.14-7-7.23-3-6.16-1.46-20.2,2-26,2.24-3.75,8-7,10-9S746.57,542.94,726.57,548.94Z"/>
  </g>  <g id="eyes">
    <path d="M908.86,539.69s6.78,19.75-13.09,23.52-41.07,10.48-60.07,10.48c-12.37,0-55.86-29-55.86-29s37.12-26.46,73.29-22.86S907.63,533.73,908.86,539.69Z" style="fill: #03a3db;stroke: #000;stroke-miterlimit: 10"/>
    <path d="M821.49,535.35s-9,23.73,5.54,28.4S849,543.5,849,543.5s9.64-23.58-8.32-22.47S821.49,535.35,821.49,535.35Z"/>
    <path d="M571,534.69s-6.77,19.75,13.1,23.52,41.06,10.48,60.06,10.48c12.37,0,55.87-29,55.87-29s-37.12-26.46-73.29-22.86S572.18,528.73,571,534.69Z" style="fill: #03a3db;stroke: #000;stroke-miterlimit: 10"/>
    <path d="M659.17,532.31s5.45,24.79-9.62,27.29-18.76-23.23-18.76-23.23-6.09-24.74,11.51-21S659.17,532.31,659.17,532.31Z"/>
  </g>  <g id="luckyItem">
    <g>
      <polygon points="432.56 830.19 429.17 898.63 428.8 946.41 429.82 997.06 430.87 1046.28 431.05 1068.04 443.15 1070.98 470.94 1075.48 509.83 1072.58 536.91 1075.64 576.85 1075.95 612.5 1076.23 659.61 1071.61 671.08 1065.28 676.83 1059.62 679.08 1044.66 679.39 1004.72 681.96 949.82 680.78 919.14 678.84 893.45 677.18 832.1 652.41 807.66 614.14 776.69 602.08 768.04 592.84 764.4 577.15 764.27 529.02 761.4 519.03 762.04 507.6 764.8 487.86 780.69 464.17 801.19 432.56 830.19"/>
      <path d="M440.75,832l-4.27,89.12,1,52.08,1.5,82s2.08,7.86,5.64,8.6,46.33,3.93,46.33,3.93l62,.49,30.67.24s26.4-1.22,28.53.22,23.53.19,23.53.19l15-3.45,10-2.78,7.89-5.64,3.3-11,.35-44.93.1-12.84,3.73-21.37.27-33.52-3.32-32.12-1.85-37.1-.48-30-35.39-34.51-12.74-12.23-22.7-15.15L580,767.86,540,767.55l-25.67-.2L495,780,472,802,445.43,825.3Z" style="fill: red"/>
      <path d="M541.39,822.12s-1.54,14.26-.14,17.83a16.47,16.47,0,0,0,6,7.54c2.13,1.44,7.82,2.91,10,2.22s7.89-5.65,9.34-9.2,1.53-12.12,1.53-12.12L566,822l10.7-.63s3.49,9.3,2.73,15S575.75,852,568.59,855.5a33.87,33.87,0,0,1-23.56,2c-7.11-2.2-13.48-8-14.15-14.38s1-16.42,1-16.42Z"/>
      <path d="M535.29,826.71s-2.88,3.55-2.93,10,1.34,11.43,6.31,14.32a29.81,29.81,0,0,0,17.8,3.7C562.89,854,570,852,573,844.84s.89-22.11.89-22.11l-3.57,0s1.33,12.84-1.57,18.53-2.92,8.53-8.64,9.92a21.11,21.11,0,0,1-15-1.55c-4.27-2.17-8.52-5.77-7.75-12.18s1.5-10,1.5-10Z" style="fill: #fff"/>
      <g style="opacity: 0.79">
        <path d="M496.16,882.49a12.56,12.56,0,0,0-13.06-21.08,12.56,12.56,0,0,0-24,5.08,11.74,11.74,0,0,0,.24,2.53h-.26a12.55,12.55,0,0,0-1.8,25,12.56,12.56,0,0,0,12.16,15.29,12.55,12.55,0,0,0,11.36-7,12.55,12.55,0,0,0,15.36-19.78Z" style="fill: #ffbdde;stroke: #fff;stroke-miterlimit: 10;stroke-width: 5px"/>
        <circle cx="475.07" cy="872.59" r="2.2" style="fill: #fff"/>
        <circle cx="475.54" cy="892.69" r="2.2" style="fill: #fff"/>
        <circle cx="466.15" cy="888.22" r="2.2" style="fill: #fff"/>
        <circle cx="466.23" cy="878.17" r="2.2" style="fill: #fff"/>
        <circle cx="484.69" cy="888.05" r="1.88" style="fill: #fff"/>
        <circle cx="483.83" cy="877.05" r="2.2" style="fill: #fff"/>
        <line x1="468.36" y1="887.29" x2="482.25" y2="877.98" style="fill: none;stroke: #fff;stroke-miterlimit: 10"/>
        <line x1="475.24" y1="890.49" x2="475.37" y2="874.79" style="fill: none;stroke: #fff;stroke-miterlimit: 10"/>
        <line x1="482.81" y1="887.41" x2="468.42" y2="879.48" style="fill: none;stroke: #fff;stroke-miterlimit: 10"/>
      </g>
      <path d="M530,813.48a22,22,0,0,1-11.46,6.33A11.44,11.44,0,0,1,505.79,814c-1.4-2.86,1.88-12.47,4.76-15.3s8.61-7.06,13.6-6.31,12.78,7.23,12.78,7.23l2.87-2.83,6.46-4.23c2.15-1.41,7.16-4.22,7.16-4.22s-7.08-7.19-11.34-8.65-17.09-3.7-25-1.62a40.56,40.56,0,0,0-20.79,13.39c-5,6.38-11.57,20.59-6.65,29.9,5.65,10.7,14.16,12.95,21.29,13s15-.6,17.85-2.72,12.91-9.17,12.91-9.17Z"/>
      <path d="M531.45,816.34l2.12,2.16s-7.92,9.21-17.9,8.41-17-8-17.74-11.55-2.75-12.86,6.58-20.63,15.06-9.87,24.31-7.65,12.8,5.8,12.8,5.8L539.46,795s-6.37-5.76-14.93-5.83S508.1,792.62,503,800.43s-1.55,16.39-1.55,16.39,4.21,8.59,13.49,7.24S531.45,816.34,531.45,816.34Z" style="fill: #fff"/>
      <path d="M535,821.36l2.12,1.44s-5.77,8.52-15.05,9.16-19.95-2.3-24.2-5.9-8.47-11.48-7-17.88,8.68-16.34,14.42-20.57,10-6.34,17.88-6.28,15,2.25,17.81,3.7a26.6,26.6,0,0,1,5.67,4.33l-2.16,2.12s-4.23-6.45-10.64-7.22-10-1.5-16.4-.13-12.17,5.62-15.77,9.87-7.91,8.49-8,14.2,1.33,12.85,7,15.74,10.65,5.79,18.5,5.14S535,821.36,535,821.36Z" style="fill: #fff"/>
      <path d="M528.28,811.91s-.73-1.49.78-4.45,18.71-19.16,25.4-19.11,6.68,0,11.12,2.31,12.54,11.24,13.27,12.73.69,6.69-.81,8.91-12.75,15.49-15.73,17-6.72,3.67-11.16,2.15S528.28,811.91,528.28,811.91Z"/>
      <path d="M534,807.44a2.77,2.77,0,0,0,0,3.57,82,82,0,0,0,5.65,7.18,3.13,3.13,0,0,0,3.56.74c1.43-.7.74-3.56.74-3.56l-7.08-7.19C536.15,807.46,534,807.44,534,807.44Z" style="fill: #fff"/>
      <path d="M543.89,821.07s5.76-7.08,7.2-7.79,1.44-2.12,2.86-1.4,3.56.74,2.11,3.58-7.19,7.08-7.19,7.08-1.44,2.13-2.86,1.4S543.17,822.49,543.89,821.07Z" style="fill: #fff"/>
      <path d="M549.56,826.11s2.12,2.16,4.27,1.46,10-7.05,10-8.48-.7-2.15-2.84-2.16S549.58,824,549.56,826.11Z" style="fill: #fff"/>
      <path d="M556.12,807.62a3.72,3.72,0,0,0,.69,3.57s6.38,5,8.52,5.06,3.57-1.4,3.59-2.83-4.95-5.74-6.37-6.47-2.13-2.15-4.28-.74Z" style="fill: #fff"/>
      <path d="M561.87,802s6.39,4.33,7.1,5,1.41,1.44,2.84.74.74-3.56,0-5-3.53-4.31-5.68-3.61S562.6,800.54,561.87,802Z" style="fill: #fff"/>
      <path d="M539.06,800.35s-4.29,1.39-3.59,2.83,9.2,10.05,10.62,10.06,3.58-.68,4.3-2.1-.7-2.15-2.82-4.3S541.21,799.66,539.06,800.35Z" style="fill: #fff"/>
      <path d="M541.94,797.52s7.9-7.07,9.32-7.06,3.57,0,4.28.75-8.64,9.92-10.78,9.9S540.5,798.94,541.94,797.52Z" style="fill: #fff"/>
      <path d="M547.6,802.56s7.19-7.08,9.34-7.77,2.86-1.41,5-.68,2.11,4.3,1.4,4.29-8.63,8.49-10.05,8.48S548.29,805.42,547.6,802.56Z" style="fill: #fff"/>
      <g>
        <path d="M576.69,813.33a19,19,0,0,0,9.93,6.43,9.68,9.68,0,0,0,11.26-5.56c1.27-2.81-1.46-12.37-3.93-15.22s-7.43-7.12-11.79-6.45-11.28,7-11.28,7l-2.47-2.85-5.58-4.28c-1.86-1.42-6.2-4.28-6.2-4.28s6.29-7,10-8.4,15-3.42,21.83-1.24a35.44,35.44,0,0,1,18,13.56c4.31,6.39,9.81,20.56,5.38,29.71-5.1,10.51-12.57,12.61-18.8,12.57s-13.09-.81-15.56-2.95-11.15-9.27-11.15-9.27Z"/>
        <path d="M575.43,816.15l-1.89,2.1s6.78,9.24,15.52,8.6,15-7.66,15.67-11.18,2.59-12.7-5.45-20.53-13-10-21.13-7.94-11.27,5.57-11.27,5.57l1.85,2.13s5.66-5.61,13.14-5.55,14.31,3.65,18.61,11.45,1.12,16.26,1.12,16.26-3.81,8.44-11.9,7S575.43,816.15,575.43,816.15Z" style="fill: #fff"/>
        <path d="M572.27,821.07l-1.88,1.39s4.92,8.52,13,9.29,17.47-2,21.23-5.49S612.21,815,611,808.65s-7.36-16.3-12.31-20.58-8.68-6.42-15.53-6.48A35.63,35.63,0,0,0,567.57,785a23.94,23.94,0,0,0-5,4.2l1.85,2.14s3.79-6.33,9.4-7,8.74-1.34,14.34.12,10.55,5.73,13.64,10,6.79,8.53,6.74,14.18-1.34,12.71-6.35,15.49-9.4,5.58-16.25,4.82S572.27,821.07,572.27,821.07Z" style="fill: #fff"/>
      </g>
      <g style="opacity: 0.61">
        <path d="M650.9,1018.76a14.26,14.26,0,0,0-14.84-23.93,14.26,14.26,0,0,0-27,8.64l-.28,0a14.26,14.26,0,0,0-2,28.39,14.55,14.55,0,0,0-.34,3,14.26,14.26,0,0,0,27.05,6.41,14.26,14.26,0,0,0,17.44-22.47Z" style="fill: #ffbdde;stroke: #fff;stroke-miterlimit: 10;stroke-width: 5px"/>
        <circle cx="626.95" cy="1007.52" r="2.5" style="fill: #fff"/>
        <circle cx="627.49" cy="1030.35" r="2.5" style="fill: #fff"/>
        <circle cx="616.83" cy="1025.27" r="2.5" style="fill: #fff"/>
        <circle cx="616.92" cy="1013.86" r="2.5" style="fill: #fff"/>
        <circle cx="637.87" cy="1025.08" r="2.14" style="fill: #fff"/>
        <circle cx="636.9" cy="1012.59" r="2.5" style="fill: #fff"/>
        <line x1="619.33" y1="1024.22" x2="635.1" y2="1013.65" style="fill: none;stroke: #fff;stroke-miterlimit: 10"/>
        <line x1="627.15" y1="1027.85" x2="627.29" y2="1010.02" style="fill: none;stroke: #fff;stroke-miterlimit: 10"/>
        <line x1="635.73" y1="1024.35" x2="619.4" y2="1015.35" style="fill: none;stroke: #fff;stroke-miterlimit: 10"/>
      </g>
      <text transform="translate(521.76 933.35) rotate(0.45)" style="font-size: 64.04389190673828px;fill: #fff;font-family: HiraKakuProN-W6-83pv-RKSJ-H, Hiragino Kaku Gothic ProN"></text>
      <text transform="translate(521.16 1010.17) rotate(0.45)" style="font-size: 64.04389190673828px;fill: #fff;font-family: HiraKakuProN-W6-83pv-RKSJ-H, Hiragino Kaku Gothic ProN"></text>
      <path d="M548.61,783.94s-2-37.73-6.24-41.33-20.74,6.25-22.91,10.52-6.19,10.3-6.19,10.3l-11.61,7c-2.61,1.56-4.51,2.71-4.12,2.46,1.09-.68,6.93-18.47,10.53-22.72s14.38-14.86,23.66-14.79,15.69-.59,19.21,5.14S562,782.81,562,782.81l-6.48,7.69Z"/>
      <path d="M508.74,756.61s3.62-7.11,6.49-9.22,5-5,10.76-8.48,17.14-2.72,20,.16,8.31,20,9.72,28.6,3.42,18.61,3.42,18.61l-2.47,1.82-3.21.24-2-14.28-5.47-29.29s-.68-5-4.24-5a32.23,32.23,0,0,0-11.43,2c-3.58,1.4-11.47,7-13.63,9.88s-8,14.53-8,14.53l-7.16,3.89Z" style="fill: #fff"/>
      <path d="M429.09,909s-32.37,80.34-29.67,100.33S433.08,991,433.08,991l.12-15s-21.64,31.21-25.2,29.76,7.4-34.18,9.6-42,13.14-37.7,13.14-37.7Z"/>
      <path d="M429.63,914.62s-19.92,55.54-22.11,61.94-7.38,31.32-6,33.47,2.11,4.3,6.41,1.48S428.8,991,428.8,991l0-2.85s-21.58,22.65-23,22.64-2.13-.73-2.11-3.58,4.49-26.36,6-30.62S429,923.85,429,923.85Z" style="fill: #fff"/>
    </g>
    <path d="M529.75,1091.82s-4,14.72,4.35,17.83,51.25-29.83,58.48-44.94-13.3-15.3-26.86-1.15S537.29,1077.92,529.75,1091.82Z" style="fill: #fff;stroke: #000;stroke-miterlimit: 10;stroke-width: 3px"/>
  </g><g id="luckyCaption">
    <text transform="translate(561.31 1272.52)" style="font-size: 64.3827896118164px;font-family: HiraMaruProN-W4-83pv-RKSJ-H, Hiragino Maru Gothic ProN"><tspan style="letter-spacing: -0.03599058496540004em"></tspan><tspan x="62.07" y="0" style="letter-spacing: -0.04900361568613886em"></tspan><tspan x="123.29" y="0" style="letter-spacing: -0.017987709131464157em"></tspan><tspan x="186.52" y="0" style="letter-spacing: -0.020004880560203397em"></tspan><tspan x="249.61" y="0"></tspan></text>
  </g>  <g id="weather">
    <g>
      <g>
        <path d="M1291.17,175.35l3.2,18.75c2.13,12.43,18.66,15.35,24.91,4.39l9.43-16.52-3.4,18.72c-2.25,12.4,12.29,20.8,21.9,12.64l14.51-12.3-9.59,16.43c-6.36,10.88,4.43,23.75,16.26,19.37l17.83-6.59-14.63,12.15c-9.7,8.05-4,23.83,8.65,23.76l19-.09-17.9,6.41c-11.88,4.25-11.88,21,0,25.29l17.9,6.42-19-.1c-12.61-.06-18.35,15.71-8.65,23.77L1386.22,340l-17.83-6.6c-11.83-4.37-22.62,8.49-16.26,19.38l9.59,16.42-14.51-12.3c-9.61-8.15-24.15.24-21.9,12.65l3.4,18.71-9.43-16.52c-6.25-10.95-22.78-8-24.91,4.39l-3.2,18.75L1288,376.13c-2.13-12.43-18.66-15.34-24.91-4.39l-9.43,16.52,3.4-18.71c2.26-12.41-12.28-20.8-21.9-12.65l-14.51,12.3,9.59-16.42c6.37-10.89-4.43-23.75-16.25-19.38l-17.84,6.6,14.63-12.15c9.7-8.06,4-23.83-8.65-23.77l-19,.1,17.9-6.42c11.88-4.25,11.88-21,0-25.29l-17.9-6.41,19,.09c12.61.07,18.35-15.71,8.65-23.76l-14.63-12.15,17.84,6.59c11.82,4.38,22.62-8.49,16.25-19.37L1220.61,201l14.51,12.3c9.62,8.16,24.16-.24,21.9-12.64l-3.4-18.72,9.43,16.52c6.25,11,22.78,8,24.91-4.39Z" style="fill: #ff5d00"/>
        <circle cx="1291.02" cy="285.26" r="66.48" style="fill: #ffc400"/>
      </g>
      <g>
        <path d="M1247.44,417.94s20.67,33.08,45.48,28.94,41.35-33.08,41.35-33.08,45.49,16.54,62-12.4,8.27-53.76-4.14-62S1355,331.1,1355,331.1s0-20.67-20.68-28.94-31.42,0-31.42,0-9.93-24.81-34.74-24.81-37.21,16.54-37.21,16.54-20.68-8.27-41.35,4.13-12.41,29-12.41,29-20.67-8.27-28.94,8.27,8.27,33.08,8.27,33.08-8.27,16.54,0,28.94,28.94,12.41,28.94,12.41-1.29,13.72,18,23.4S1247.44,417.94,1247.44,417.94Z" style="fill: #29abe2"/>
        <path d="M1241.57,406.22s20.67,33.08,45.48,28.95,41.35-33.08,41.35-33.08,45.49,16.54,62-12.41,8.27-53.75-4.14-62-37.21-8.27-37.21-8.27,0-20.68-20.68-28.95-31.42,0-31.42,0-9.93-24.81-34.74-24.81S1225,282.17,1225,282.17s-20.68-8.27-41.35,4.14-12.41,28.94-12.41,28.94-20.67-8.27-28.94,8.27,8.27,33.08,8.27,33.08-8.27,16.54,0,28.95,28.94,12.4,28.94,12.4-1.29,13.73,18,23.4S1241.57,406.22,1241.57,406.22Z" style="fill: #edf9fb;stroke: #29abe2;stroke-miterlimit: 10;stroke-width: 3px"/>
        <path d="M1163,360.74s-12.4,12.4-33.08,8.27-28.94-28.95-24.81-45.49,12.41-20.67,20.68-24.81,20.22,0,20.22,0,8.72-41.35,45.94-41.35,53.75,41.35,53.75,41.35,33.08-4.13,41.35,16.54,4.14,45.49-20.67,49.62-33.08-8.27-33.08-8.27-7.52,14.09-30.64,13.25A105.62,105.62,0,0,1,1163,360.74Z" style="fill: #29abe2"/>
        <path d="M1160.48,353.36s-12.4,12.4-33.08,8.27-28.94-28.95-24.81-45.49,12.41-20.67,20.68-24.81,20.22,0,20.22,0,8.72-41.35,45.94-41.35,53.75,41.35,53.75,41.35,33.08-4.13,41.35,16.54,4.14,45.49-20.67,49.62-33.08-8.27-33.08-8.27-7.52,14.09-30.64,13.25A105.62,105.62,0,0,1,1160.48,353.36Z" style="fill: #edf9fb;stroke: #29abe2;stroke-miterlimit: 10;stroke-width: 3px"/>
      </g>
    </g>
  </g>
<g id="generation">
  <text transform="translate(38.41 1285.15)" style="font-size: 65.69450378417969px;font-family: HiraKakuStd-W8-83pv-RKSJ-H, Hiragino Kaku Gothic Std"></text>
  <text transform="translate(200 1290)" style="font-size: 90px;font-family: MyriadPro-Regular, Myriad Pro">13</text>
</g>  <g id="_5element" data-name="5element">
    <path d="M1321.65,1148.9S1197.76,1262.79,1214.28,1357c15,85.86,75.41,94.7,116.37,94.88,57.41.26,94-63.61,95-129,1-64-22-117-22-117s-27.5,23.74-48,14S1321.65,1148.9,1321.65,1148.9Z" style="fill: #ed1c24;opacity: 0.5"/>
    <g>
      <path d="M1281.53,1281.9c-.08.56-.64,1-1.68,1.2-1.77,15.54-5.13,29.71-24.18,37a15.79,15.79,0,0,0-3.37-4.32c17.62-6.32,20.66-19.22,21.94-34.51Zm20.81,29.15c0,2.72.64,3.36,3.93,3.36h11.12c3.45,0,4-2.24,4.41-14.89a14.62,14.62,0,0,0,4.88,2.4c-.56,13.77-2.08,17.45-8.89,17.45h-12.08c-6.89,0-8.81-1.76-8.81-8.32v-30.83h-43.56v-5.28h71.5v5.28h-22.1l-.4.08ZM1318,1251.4v5.2h-57.49v-5.2Z" style="fill: #fff"/>
      <path d="M1403.7,1259.09h-53.8c-3.69,7.28-8.33,13.77-13.37,18.33a33.07,33.07,0,0,0-4.49-3.28c7.45-6.25,13.77-17.14,17.38-28.67l6.8,1.85c-.16.56-.8.88-1.76.88-.72,2.08-1.52,4.16-2.32,6.16h51.56Zm-58,28.18c5.13,2.8,10.65,6.24,15.94,9.85a68.3,68.3,0,0,0,9.84-13.29l6.25,2.4c-.24.64-1.12.8-1.92.72a72.15,72.15,0,0,1-9.93,13.21,103.29,103.29,0,0,1,15,12.73l-4.32,4.08a102.41,102.41,0,0,0-14.49-13,95.56,95.56,0,0,1-24.26,16.49,25.19,25.19,0,0,0-3.77-4,84.26,84.26,0,0,0,23.78-15.61,175.45,175.45,0,0,0-15.93-10.09Zm-6.16-9.77h52.76c.08,21.38,1.28,37.23,7.69,37.23,1.68,0,2.08-4.64,2.24-11.69a18.8,18.8,0,0,0,3.84,3.12c-.56,10.25-1.68,13.85-6.4,13.85-10.57,0-12.33-15.13-12.82-37.79h-47.31Zm56.28-7h-47v-4.64h47Z" style="fill: #fff"/>
    </g>
  </g>
<g id="manekiPower">
  <text transform="translate(205.81 1456.78)" style="font-size: 121.63294982910156px;fill: #070707;font-family: MyriadPro-Regular, Myriad Pro">517,293</text>
  <ellipse cx="82.99" cy="1415.19" rx="49.5" ry="49.5"/>
  <polygon points="82.92 1378.7 99.5 1378.7 81.54 1414.62 99.5 1414.62 68.55 1454.33 83.19 1421.63 67.58 1422.06 82.92 1378.7" style="fill: #fff"/>
  <text text-anchor="middle" transform="translate(1332 1425.38)" style="font-size: 104.09490966796875px;font-family: MyriadPro-Regular, Myriad Pro">10</text>
</g><g id="tokenID">\
<text text-anchor="end" transform="translate(1400 130)" style="font-size: 100px;font-family: MyriadPro-Regular, Myriad Pro">323</text>
</g>  <g id="logo">
    <path d="M412.51,140.41l-34.29.33-.26-2-.63-.18a104.29,104.29,0,0,1-14.72-5.72l-6.77,1.86c-.39.11-1,.25-3.32.81-3.36.81-9,2.16-15.29,3.74l-10.12,2.54s-3.56-10.09-3.59-10.19c-8.45,2.14-19,3.94-27.51,3.94-6.05,0-10.75-.93-14.39-2.84-1.07-.56-2.33-1.25-3.68-2.09l-.9,4-36.89-4.45.16-1-28.76,8.94-2.28-3.49-17.92,10.06-3.65-7.14a56.94,56.94,0,0,1-17,2.6,34,34,0,0,1-16-3.76l-1,5.35-42.15-7L113,123c.36-3.14.68-8.21,1-15.11l-14.18.69c1,5.49,2.33,12,4,19.37l2.89,12.81-41.83,7.75L61.46,138c-1.72-5.28-3.28-13.16-4.79-24.07a213.34,213.34,0,0,1-2.21-27.48c0-12,1.43-21.08,4.36-27.81C64.76,45,75.72,43.57,80.15,43.57c6.68,0,13.58,3.14,21.71,9.88l.28.23L105.65,57l1.86-1.85C115,47.55,121.65,44,128.5,44a26.65,26.65,0,0,1,23.1,12.34l.16-1.75,10.41-.14h1.68c30.77,0,40.88,4.13,45.53,8.57L225.26,63c1.22-.41,2.52-.8,3.86-1.16a65.15,65.15,0,0,1,13.67-2.24c.91-.05,1.81-.07,2.68-.07,10.49,0,19.06,3.24,25.49,9.63q.6.6,1.17,1.23A43.53,43.53,0,0,1,288.77,61a47.66,47.66,0,0,1,14.08-2.21,43.39,43.39,0,0,1,13,2,39.18,39.18,0,0,1,4.72,1.84c.16-1.15.34-2.36.53-3.62l1.79-12.14,41.85,8.73-2.84,11.7c-.2.83-.39,1.64-.58,2.44,5.07-2,9.61-3.7,13.55-4.93l4.28-15.3,10.47,2.16c2.91.6,25,6.41,33.22,8.48l-1.53,21.43,13.1,2.19c5.27.87,9.86-3.72,9.86-3.72.29-.83,1.27-16.34,1.6-17.1,5.78-13.26,16.46-14.7,20.78-14.7,6.5,0,13.2,3,21.09,9.59L488,58l3.25,3c.59-.58,1.15-1.13,1.66-1.66,7.26-7.32,13.74-10.73,20.41-10.73,12.26,0,21.77,7.08,26.09,19.42a41.63,41.63,0,0,1,1.43,5,45.4,45.4,0,0,1,5-1.87A46,46,0,0,1,559.48,69,42,42,0,0,1,572.09,71a35,35,0,0,1,9.77,4.8l1-.76c8.11-6,18.49-9.1,30.88-9.1,10.36,0,19.45,2.39,27.07,7.12.84-1.54,1.75-3.08,2.71-4.62l5-8L685,75.07l30.1-15.29,5.54,8.45a108.18,108.18,0,0,1,8.83,15.55,48.93,48.93,0,0,1,4.48,19.9c0,10.81-2.82,19.88-8.39,26.95-6.51,8.33-16.15,12.74-27.86,12.74a37.7,37.7,0,0,1-16-3.38,35.11,35.11,0,0,1-14.48,3c-8.78,0-16.16-2.45-22-7.3l-.55.46c-8.13,6.62-18.24,10-30.08,10s-21.81-2.61-29.85-7.78c-8.42,2.55-21.74,5.24-31.78,5.24-5.87,0-10.45-.91-14-2.77-.15-.07-.29-.15-.43-.23l-.55,2.89-41.08-6.78,1.33-11.7c.34-3,.65-7.81.93-14.36l-13.24.65c.95,5.25,2.23,11.42,3.82,18.47l2.84,12.57-40.76,7.55-2.65-8.15L432,144.3ZM236.19,100.59a94.65,94.65,0,0,0,4.44,15.5l1.3,3.34.2-1.19a83.12,83.12,0,0,0,.94-17.53c0-.93-.11-1.69-.19-2.3A17.16,17.16,0,0,0,236.19,100.59ZM608.66,106a12.36,12.36,0,0,0,4.86.84,11.57,11.57,0,0,0,4.67-.76,13.87,13.87,0,0,0-5.55-.92A7.61,7.61,0,0,0,608.66,106ZM679,88.07A42.34,42.34,0,0,0,674.9,95l14.64-.81c-.87-1.25-2-2.84-3.44-4.86l-4-5.54Z" style="fill: #0702b0"/>
    <path d="M401.41,92.58s16.63,9.5,28.33,8.82,28.32-12.21,28.32-12.21" style="fill: none;stroke: #ff2000;stroke-miterlimit: 10;stroke-width: 6px"/>
    <path d="M383.35,129.21c-.61-4.59-.66-12.3-.16-23.56a241,241,0,0,1,2.07-24.37l.05-.32-7.94-1.76L384,55.66l5.29,1.08c3.39.69,10.4,2.39,21.41,5.17l5.75,1.46L412.13,79.1l1.33.17-.92,5.88c-1.61,10.22-2.41,24.74-2.38,43.15v5.76L384,134.3Z" style="fill: #0702b0"/>
    <path d="M409.29,67.54l-3.31,12-21.35-4.71,3.51-12.43Q393,63.44,409.29,67.54Zm-4.94,60.77-15.24.14q-.84-6.31-.12-22.54a236.41,236.41,0,0,1,2-23.73l15.8,2.07Q404.31,100.1,404.35,128.31Z" style="fill: url(#Sky_2)"/>
    <path d="M387.08,113.63l-5.81,13.23a98.76,98.76,0,0,1-15.54-6.21q-7.51-3.7-14.93-7.52.6,3.3,2.5,9.82c-.73.2-8.85,2.09-18.54,4.49-4.14-11.62-5-24.44-5-36.66,0-9.56,1.16-18,3-30.67l18.42,3.81Q346.69,82.35,347,89.58q4-3.42,16.64-8.62a163.15,163.15,0,0,1,17.54-6.32L387,88l-14.83,4.61q-11.13,4-14.24,8,3.81,2.7,13.94,7.12A152.18,152.18,0,0,0,387.08,113.63Z" style="fill: url(#Sky_2-2)"/>
    <path d="M296,129.19c-5.15,0-9-.71-11.84-2.18-7.06-3.68-14.77-9.06-18.47-21.09-2.73-8.87-1.22-17.44,4.5-25.49a37.72,37.72,0,0,1,20.21-14.5,42.69,42.69,0,0,1,12.5-2,38.5,38.5,0,0,1,11.41,1.73c9.31,2.94,15.61,9,18.26,17.65,1.7,5.54,1.44,10.63-.79,15.12l-.07.14a18,18,0,0,1-2.68,3.77l4,19.93-5,1.54C319.64,126.43,306.06,129.19,296,129.19Z" style="fill: #0702b0"/>
    <path d="M327,85.07q1.89,6.14-.45,10.83t-8.68,6.55q-7.75,2.39-30.29,3.13c7.43,7.08,27.22,1.48,35.91-1.19l2.81,13.92c-10.35,3.19-32.14,7.37-39.48,3.55-6.85-3.57-12.63-8-15.6-17.64q-3.27-10.64,3.68-20.43a31.94,31.94,0,0,1,17.19-12.31,34.07,34.07,0,0,1,20.49-.22Q323.83,74.82,327,85.07Zm-14.67,3.46c-.67-2.17-2.64-3.48-5.93-3.94a19.87,19.87,0,0,0-18.55,8.22q20.1-1.14,23.45-2.18c.7-.21,1.12-.45,1.25-.7S312.55,89.3,312.31,88.53Z" style="fill: url(#Sky_2-3)"/>
    <path d="M210.76,127.16c-3.32-5-5.95-12-8-21.34a126.14,126.14,0,0,1-3.08-21.49c-.1-2-.06-5.4.1-10.43l.19-5.6,25.58-.08c1.36-.49,2.81-.94,4.38-1.35a60.11,60.11,0,0,1,12.62-2.06c10.13-.51,18.23,2.15,24.06,7.9s8.83,13.49,9.33,23.43a98.92,98.92,0,0,1-2.49,26.46l-1.14,5.12-26-3.11,1-6a87.67,87.67,0,0,0,1-18.78C248.05,94.4,247,93,247,93l-.09-.13c-.46-.64-2.07-1-4.2-.86-4.57.23-9,2-13.55,5.25a105.08,105.08,0,0,0,5.5,20.41l2.3,5.83-23.8,7.33Z" style="fill: #0702b0"/>
    <path d="M270.12,96.43a92.78,92.78,0,0,1-2.35,24.91L253,119.57a92.78,92.78,0,0,0,1.1-20q-.36-7.31-2.52-10.11-2.58-3.57-9.19-3.25-10,.51-19.54,8.62a114.62,114.62,0,0,0,6.38,25L215.61,124q-4.35-6.61-7.2-19.41A119.62,119.62,0,0,1,205.46,84q-.14-2.7.11-9.94l15,0,.16,3.3q3.57-3,10.7-4.85a54.1,54.1,0,0,1,11.45-1.88q12.71-.64,19.68,6.23T270.12,96.43Z" style="fill: url(#linear-gradient)"/>
    <path d="M189.47,129.88a52.37,52.37,0,0,1-20,4,28.22,28.22,0,0,1-19.68-7.51,25.59,25.59,0,0,1-8.41-19.49c0-10.12,3.77-18.18,11.21-24l1.11-.82,1.94-22.27,5.25-.07h1.62c36.34,0,41.22,5.95,42.83,7.9,5.2,6.33,4.3,23.63,3.64,31.08v9.06c0,3.19,1.11,6.91,3.3,11l2.67,5-22.26,12.38Z" style="fill: #0702b0"/>
    <path d="M207.19,121.52l-12,6.7-3.08-6A47.41,47.41,0,0,1,169.51,128a22.48,22.48,0,0,1-15.76-6,19.88,19.88,0,0,1-6.52-15.21q0-12.4,9-19.38c5.43-4.23,12.49-5.64,21.1-6.34A27.26,27.26,0,0,1,192,83.89l.12,14.43c-3.8-1.75-11-3.7-14.79-3.7q-6.88,0-11.23,2.9a11.19,11.19,0,0,0-5,9.78,6.43,6.43,0,0,0,2.35,5,7.67,7.67,0,0,0,5.35,2.18q10,0,15.76-4.71t6.07-13.41s2.18-13.25-.23-16.65C186,73.52,160,77.59,160,77.59l1-12.07s34.77-.45,39.88,5.78c4.32,5.26,2.32,27.12,2.32,27.12v9.33Q203.21,114,207.19,121.52Z" style="fill: url(#Sky_2-4)"/>
    <path d="M64.72,135.63c-1.62-4.95-3.13-12.5-4.6-23.06a205.33,205.33,0,0,1-2.18-26.68c0-11.16,1.28-19.49,3.91-25.47C66.31,50.31,73.92,48.8,78.07,48.8c5.33,0,11.12,2.72,18.23,8.56l.15.12,7.44,6.86c2.27-2.15,4.25-4.07,5.9-5.72,6.38-6.38,11.81-9.36,17.08-9.36,10.26,0,17.94,5.72,21.61,16.11,2,5.52,3,13,3,22.74,0,18.22-.8,31.31-2.46,40l-1.23,6.49-31.51-5.15L117,123c.52-4.56,1-12.88,1.36-24.73,0-.25,0-.5,0-.75l-2.53,3.72-21.33,1-2.17-2.68c-.69-.87-1.34-1.65-2-2.36.65,5.89,2.28,15.54,5.88,31.35l1.58,6.9-31.28,5.74Z" style="fill: #0702b0"/>
    <path d="M149.89,87.53q0,26.44-2.34,38.73l-18.61-3q.81-7.14,1.4-25.28.58-19.18-.11-19.19-2.46,0-12.88,15.33l-14.51.7q-9.24-11.46-13-11.46-1.41,0-1.41,7.6,0,10.42,6.44,38.62l-18.49,3.39q-2.22-6.78-4.33-21.88A197.86,197.86,0,0,1,70,85.3Q70,55,83.29,55q5.38,0,13.93,7l11.94,11q6.56-6.09,10.65-10.18,7.38-7.38,12.29-7.38,11.11,0,15.21,11.59Q149.89,74.19,149.89,87.53Z" style="fill: url(#Sky_2-5)"/>
    <path d="M701.4,137a31.56,31.56,0,0,1-16.16-4.09,29.57,29.57,0,0,1-14.66,3.76c-10,0-17.7-3.59-23-10.67l0,0C643.21,120,641,112.34,641,103.1c0-10.2,3.57-21,10.63-32.15L654.14,67l28,11.18L677.86,84a50.08,50.08,0,0,0-5.78,10.26,27.58,27.58,0,0,0-2.44,10,7.76,7.76,0,0,0,.94,4.05l.06.09.06.1a2.61,2.61,0,0,0,.44.62,1,1,0,0,0,.09-.15,6,6,0,0,0,.72-3.15v-5.31l23.65-1.3,1.42,3.91c1.27,3.48,2.86,5.74,4.05,5.74.23,0,.72,0,1.59-1.1a4.4,4.4,0,0,0,1.11-2.94,19.81,19.81,0,0,0-2.52-9.73c-.27-.47-1.5-2.46-6.83-9.82L690.56,80,717,66.7l2.75,4.15a101.62,101.62,0,0,1,8.43,14.68,42.73,42.73,0,0,1,4,17.57c0,9.47-2.42,17.32-7.2,23.34C719.45,133.43,711.52,137,701.4,137Z" style="fill: #0702b0"/>
    <path d="M726.57,103.1q0,12.32-6,19.85-6.65,8.43-19.18,8.42-9.54,0-16.08-5.21A24,24,0,0,1,670.58,131q-12.21,0-18.52-8.42-5.43-7.43-5.43-19.52,0-13.74,9.75-29.15l17,6.76a54.66,54.66,0,0,0-6.43,11.42A32.59,32.59,0,0,0,664,104.32a13,13,0,0,0,1.78,7,6.13,6.13,0,0,0,5.54,3.55A5.32,5.32,0,0,0,676,112a11.53,11.53,0,0,0,1.55-6.09l14.19-.78q3.43,9.42,9.32,9.42a7.48,7.48,0,0,0,6-3.21,10,10,0,0,0,2.33-6.43,25.55,25.55,0,0,0-3.21-12.42q-1.11-2-7.21-10.42L715,74a98.39,98.39,0,0,1,8,13.85A37.22,37.22,0,0,1,726.57,103.1Z" style="fill: url(#New_Gradient_Swatch_2)"/>
    <path d="M455.32,137.28c-1.57-4.78-3-12.06-4.45-22.26a199.7,199.7,0,0,1-2.09-25.77c0-10.77,1.23-18.81,3.77-24.58,4.3-9.77,11.66-11.23,15.66-11.23,5.14,0,10.74,2.63,17.6,8.27l.15.12,7.18,6.62c2.2-2.08,4.1-3.93,5.7-5.52,6.16-6.17,11.4-9,16.49-9,9.91,0,17.32,5.53,20.87,15.55,1.92,5.33,2.86,12.53,2.86,22,0,17.6-.78,30.23-2.38,38.63l-1.19,6.26-30.42-5,.71-6.2c.5-4.4.94-12.43,1.31-23.87l0-.73-2.45,3.59-20.6,1L482,102.52c-.67-.84-1.3-1.6-1.88-2.29.63,5.69,2.19,15,5.68,30.28l1.52,6.66-30.2,5.55Z" style="fill: #0702b0"/>
    <path d="M532.51,91.4q0,25.55-2.26,37.4l-18-2.93q.79-6.9,1.36-24.41.55-18.54-.12-18.53-2.37,0-12.43,14.8l-14,.68q-8.93-11.07-12.54-11.08-1.37,0-1.36,7.35,0,10,6.22,37.29l-17.86,3.28q-2.15-6.56-4.18-21.14a191.24,191.24,0,0,1-2-24.86Q455.32,60,468.21,60q5.19,0,13.45,6.78l11.52,10.62q6.33-5.88,10.29-9.83,7.11-7.12,11.86-7.12,10.74,0,14.69,11.19Q532.51,78.52,532.51,91.4Z" style="fill: url(#New_Gradient_Swatch_2-2)"/>
    <path d="M617.45,139.79c-11.06,0-20.34-2.44-27.61-7.26-9.1-6.13-13.7-15-13.7-26.51S580.45,85.37,589,79.11c7.16-5.29,16.49-8,27.72-8,10.56,0,19.58,2.68,26.81,8l0,0c8.41,6.26,12.68,15,12.68,25.89s-4.06,19.6-12.06,26.09C637,136.87,628,139.79,617.45,139.79Zm-1.89-41a12.62,12.62,0,0,0-7.59,2,5.57,5.57,0,0,0-2.55,5.09c0,1.64.45,3,2.61,4.22a16.81,16.81,0,0,0,8.42,1.92,15.67,15.67,0,0,0,8.34-1.92,5,5,0,0,0,2.79-4.78c0-1.52-.36-3.14-3-4.65A18.44,18.44,0,0,0,615.56,98.77Z" style="fill: #0702b0"/>
    <path d="M650.6,105q0,13.64-10,21.73-9.21,7.42-23.17,7.43-15,0-24.51-6.32-11.19-7.55-11.2-21.84,0-14.64,10.54-22.4,9.32-6.87,24.39-6.87,14.08,0,23.51,6.87Q650.59,91.39,650.6,105Zm-17.41.33q0-6.21-5.88-9.53a23.82,23.82,0,0,0-11.75-2.66,18.13,18.13,0,0,0-10.86,3.1,11.11,11.11,0,0,0-4.88,9.65,9.9,9.9,0,0,0,5.43,9.09,22.26,22.26,0,0,0,11.2,2.66q6.87,0,11.31-2.77A10.57,10.57,0,0,0,633.19,105.35Z" style="fill: url(#New_Gradient_Swatch_2-3)"/>
    <path d="M555.23,137.24c-5,0-8.71-.69-11.43-2.11-6.81-3.55-14.25-8.74-17.83-20.36-2.63-8.57-1.17-16.85,4.34-24.62a36.53,36.53,0,0,1,19.52-14,41,41,0,0,1,12.07-1.88,37.23,37.23,0,0,1,11,1.67c9,2.84,15.07,8.73,17.63,17,1.64,5.34,1.38,10.25-.77,14.59l-.07.14a17,17,0,0,1-2.58,3.64L591,130.6l-4.86,1.49C578.11,134.57,565,137.24,555.23,137.24Z" style="fill: #0702b0"/>
    <path d="M585.19,94.63q1.81,5.93-.43,10.46t-8.38,6.33q-7.5,2.31-29.25,3c7.17,6.84,26.28,1.43,34.67-1.15l2.71,13.44c-10,3.08-31,7.12-38.12,3.43-6.61-3.45-12.19-7.73-15.06-17q-3.15-10.26,3.55-19.72a30.88,30.88,0,0,1,16.6-11.89,32.92,32.92,0,0,1,19.78-.21Q582.14,84.74,585.19,94.63ZM571,98q-1-3.15-5.73-3.81a19.19,19.19,0,0,0-17.91,7.94Q566.79,101,570,100a2.1,2.1,0,0,0,1.21-.68A2.7,2.7,0,0,0,571,98Z" style="fill: url(#New_Gradient_Swatch_2-4)"/>
    <g>
      <g>
        <g>
          <g>
            <path d="M475.38,131.52c-1.25-1.47-4.4-2.48-9.09-2.73a39.8,39.8,0,0,0-73.23,28.47c-6.79,6.28-10.55,12.31-7.68,15.68,2.53,3,11.43,2.58,16.53,2.08a39.79,39.79,0,0,0,69.43-32C474.54,140.68,479.31,136.14,475.38,131.52Z" style="fill: #ffd404"/>
            <path d="M428.46,192.46A43.35,43.35,0,0,1,400.35,179c-14,1.05-16.89-2.41-17.89-3.58-2.81-3.31-3.85-9.34,6.46-19.5a43.23,43.23,0,0,1-.41-10.48,43.62,43.62,0,0,1,80-20.31c4.71.5,8,1.81,9.78,3.91a9.28,9.28,0,0,1,2.32,7.22c-.42,3.44-2.79,6.3-5.21,8.39a43,43,0,0,1,.07,7.86A43.67,43.67,0,0,1,428.46,192.46ZM403.51,171l1.29,1.5a36,36,0,0,0,63.06-20.63,36.46,36.46,0,0,0-.3-8.34l-.35-2.31,1.9-1.37c2.72-2,3.8-3.63,3.91-4.54,0-.17.08-.58-.54-1.31-.35-.32-2.15-1.18-6.4-1.41L464,132.5l-1-1.77a36,36,0,0,0-66.18,25.73l.78.47-1.77,2.93c-7.38,6.83-7.75,10.34-7.53,10.6.55.49,4.06,1.65,13.24.75Z" style="fill: #0000b2"/>
          </g>
          <path d="M394.17,161.26l-3.3-6.44c.48-.52,11.85-12.95,33.08-20.73a170.54,170.54,0,0,1,41.71-9.21l.55,7.63a128.59,128.59,0,0,0-39.5,7.24C407.36,146.84,394.27,161.15,394.17,161.26Z" style="fill: #0000b2"/>
        </g>
        <g>
          <path d="M430,165.64a42.83,42.83,0,0,0,4.38,9.32,10.72,10.72,0,1,0-6.37,1.33,48.44,48.44,0,0,1-3.85-8.84Z" style="fill: #0000b2"/>
          <path d="M447.69,181.81l.12-.1s-2.21,1.62-7.58-.91c-2.22-1.05-4.19-3.32-5.81-5.84a10.61,10.61,0,0,1-6.15,1.36l-.22,0c2.22,3.92,5.38,8.07,9.57,10a19.68,19.68,0,0,0,6.85,2c4.73.39,7.15-1.78,7.5-2.12Z" style="fill: #0000b2"/>
          <path d="M434.42,175a42.83,42.83,0,0,1-4.38-9.32l-5.84,1.81a48.44,48.44,0,0,0,3.85,8.84l.22,0A10.61,10.61,0,0,0,434.42,175Z" style="fill: #0000b2"/>
        </g>
      </g>
      <circle cx="423.61" cy="103.73" r="6.89" style="fill: #0000b2"/>
    </g>
  </g>
  <defs>
    <linearGradient id="Sky_2" data-name="Sky 2" x1="406.87" y1="58.34" x2="378.85" y2="155.96" gradientUnits="userSpaceOnUse">
      <stop offset="0" stop-color="#c6e0f5"/>
      <stop offset="0.06" stop-color="#bdddf4"/>
      <stop offset="0.15" stop-color="#a3d4f1"/>
      <stop offset="0.28" stop-color="#7ac7eb"/>
      <stop offset="0.42" stop-color="#40b3e4"/>
      <stop offset="0.57" stop-color="#009edc"/>
      <stop offset="0.87" stop-color="#0077c3"/>
      <stop offset="0.99" stop-color="#005d9b"/>
    </linearGradient>
    <linearGradient id="Sky_2-2" x1="361.62" y1="50.01" x2="354.97" y2="154.01" xlink:href="#Sky_2"/>
    <linearGradient id="Sky_2-3" x1="316.67" y1="61.44" x2="282.63" y2="143.26" xlink:href="#Sky_2"/>
    <linearGradient id="linear-gradient" x1="238.54" y1="60.55" x2="236.14" y2="160.36" gradientUnits="userSpaceOnUse">
      <stop offset="0" stop-color="#c6e0f5"/>
      <stop offset="0.06" stop-color="#bdddf4"/>
      <stop offset="0.15" stop-color="#a3d4f1"/>
      <stop offset="0.28" stop-color="#7ac7eb"/>
      <stop offset="0.42" stop-color="#40b3e4"/>
      <stop offset="0.57" stop-color="#009edc"/>
      <stop offset="0.87" stop-color="#0077c3"/>
    </linearGradient>
    <linearGradient id="Sky_2-4" x1="179.56" y1="61.4" x2="176.38" y2="132.23" xlink:href="#Sky_2"/>
    <linearGradient id="Sky_2-5" x1="98.28" y1="49.18" x2="128.81" y2="163.35" xlink:href="#Sky_2"/>
    <radialGradient id="New_Gradient_Swatch_2" data-name="New Gradient Swatch 2" cx="776.17" cy="46.5" r="423.59" gradientTransform="translate(0 -0.42)" gradientUnits="userSpaceOnUse">
      <stop offset="0" stop-color="#fff700"/>
      <stop offset="0.06" stop-color="#ffea00"/>
      <stop offset="0.24" stop-color="#ffc800"/>
      <stop offset="0.42" stop-color="#ffad00"/>
      <stop offset="0.61" stop-color="#ff9a00"/>
      <stop offset="0.8" stop-color="#ff8f00"/>
      <stop offset="1" stop-color="#ff8b00"/>
    </radialGradient>
    <radialGradient id="New_Gradient_Swatch_2-2" cx="514.22" cy="57.74" r="243.37" xlink:href="#New_Gradient_Swatch_2"/>
    <radialGradient id="New_Gradient_Swatch_2-3" cx="594.62" cy="68.98" r="233.37" xlink:href="#New_Gradient_Swatch_2"/>
    <radialGradient id="New_Gradient_Swatch_2-4" cx="581.66" cy="56.88" r="327.4" xlink:href="#New_Gradient_Swatch_2"/>
  </defs></svg>