<svg xmlns="http://www.w3.org/2000/svg" xmlns:xlink="http://www.w3.org/1999/xlink" viewBox="0 0 1500 1500">  <g id="sky">
<rect width="1500" height="1499.86" style="fill: #114212"/>
</g>  <g id="pattern">
<path d="M0,0H0V1500H1500V0H0ZM0,0ZM0,0ZM0,0ZM0,0ZM0,0ZM0,0ZM0,0ZM0,0ZM0,0ZM0,0ZM0,0ZM0,0ZM0,0ZM0,0ZM0,0ZM0,0ZM0,0ZM0,0ZM0,0ZM0,0ZM0,0ZM0,0ZM0,0ZM0,0ZM0,0ZM0,0ZM0,0ZM0,0ZM0,0ZM0,0ZM0,0ZM0,0ZM0,0ZM0,0ZM0,0ZM0,0ZM0,0ZM0,0ZM0,0ZM0,0ZM0,0ZM0,0ZM0,0ZM0,0ZM0,0ZM0,0ZM0,0ZM0,0ZM0,0ZM0,0ZM0,0ZM0,0ZM0,0ZM0,0ZM0,0ZM0,0ZM0,0ZM0,0ZM0,0ZM0,0ZM0,0ZM0,0ZM0,0ZM0,0ZM0,0ZM0,0ZM0,0ZM0,0ZM0,0ZM0,0ZM0,0ZM0,0ZM0,0ZM0,0ZM0,0ZM0,0ZM0,0ZM0,0ZM0,0ZM0,0ZM0,0ZM0,0ZM0,0ZM0,0ZM0,0ZM0,0ZM0,0ZM0,0ZM0,0ZM0,0ZM0,0ZM0,0ZM0,0ZM0,0ZM0,0ZM0,0ZM0,0ZM0,0ZM0,0ZM0,0ZM0,0ZM0,0ZM0,0ZM0,0ZM0,0ZM0,0ZM0,0ZM0,0ZM0,0ZM0,0ZM0,0ZM0,0ZM0,0ZM0,0ZM0,0ZM0,0ZM0,0ZM0,0ZM0,0ZM0,0ZM0,0ZM0,0ZM0,0ZM0,0ZM0,0ZM0,0ZM0,0ZM0,0ZM0,0ZM0,0ZM0,0ZM0,0ZM0,0ZM0,0ZM0,0ZM0,0ZM0,0ZM0,0ZM0,0ZM0,0ZM0,0ZM0,0ZM0,0ZM0,0ZM0,0ZM0,0ZM0,0ZM0,0ZM0,0ZM0,0ZM0,0ZM0,0ZM0,0ZM0,0ZM0,0ZM0,0ZM0,0ZM0,0ZM0,0ZM0,0ZM0,0ZM0,0ZM0,0ZM0,0ZM0,0ZM0,0ZM0,0ZM0,0ZM0,0ZM0,0ZM0,0ZM0,0ZM0,0ZM0,0ZM0,0ZM0,0ZM0,0ZM0,0ZM0,0ZM0,0ZM0,0ZM0,0ZM0,0ZM0,0ZM0,0ZM0,0ZM0,0ZM0,0ZM0,0ZM0,0ZM0,0ZM0,0ZM0,0ZM0,0ZM0,0ZM0,0ZM0,0ZM0,0ZM0,0ZM0,0ZM0,0ZM0,0ZM0,0ZM0,0ZM0,0ZM0,0ZM0,0ZM0,0ZM0,0ZM0,0ZM0,0ZM0,0ZM0,0ZM0,0ZM0,0ZM0,0ZM0,0ZM0,0ZM0,0ZM0,0ZM0,0ZM0,0ZM0,0ZM0,0ZM0,0ZM0,0ZM0,0ZM0,0ZM0,0ZM0,0ZM0,0ZM0,0ZM0,0ZM0,0ZM0,0ZM0,0ZM0,0ZM0,0ZM0,0ZM0,0ZM0,0ZM0,0ZM0,0ZM0,0ZM0,0ZM0,0ZM0,0ZM0,0ZM0,0ZM0,0ZM0,0ZM0,0ZM0,0ZM0,0ZM0,0ZM0,0ZM0,0ZM0,0ZM0,0ZM0,0ZM0,0ZM0,0ZM0,0ZM0,0ZM0,0ZM0,0ZM0,0ZM0,0ZM0,0ZM0,0ZM0,0ZM0,0ZM0,0ZM0,0ZM0,0ZM0,0ZM0,0ZM0,0ZM0,0ZM0,0ZM0,0ZM0,0ZM0,0ZM0,0ZM0,0ZM0,0ZM0,0ZM0,0ZM0,0ZM0,0ZM0,0ZM0,0ZM0,0ZM0,0ZM0,0ZM0,0ZM0,0ZM0,0ZM0,0ZM0,0ZM0,0ZM0,0ZM0,0ZM0,0ZM0,0ZM0,0ZM0,0ZM0,0ZM0,0ZM0,0ZM0,0ZM0,0ZM0,0ZM0,0ZM0,0ZM0,0ZM0,0ZM0,0ZM0,0ZM0,0ZM0,0ZM0,0ZM0,0ZM0,0ZM0,0ZM0,0ZM0,0ZM0,0ZM0,0ZM0,0ZM0,0ZM0,0ZM0,0ZM0,0ZM0,0ZM0,0ZM0,0ZM0,0ZM0,0ZM0,0ZM0,0ZM0,0ZM0,0ZM0,0ZM0,0ZM0,0ZM0,0ZM0,0ZM0,0ZM0,0ZM0,0ZM0,0ZM0,0ZM0,0ZM0,0ZM0,0ZM0,0ZM0,0ZM0,0ZM0,0Z" style="fill: #cccccc;opacity: 0.18"/>
</g>  <g id="base">
<rect y="1330.87" width="1500" height="168.98" style="fill: #be1e6f"/>
</g>  <g id="land">
<rect x="0.46" y="1028.55" width="1500.11" height="302.58" style="fill: #444411"/>
</g>  <g id="city">
    <polygon points="502 493 548 443 587 493 587 1018 502 1018 502 493" style="fill: #fff3a9"/>
    <polygon points="1273.44 1026.83 1273.08 948.02 1200.28 922.85 1119.74 930.66 1038.95 890.22 974.14 881.5 931.46 908.1 923.46 917.64 882.68 930.66 871.11 958.33 875.25 1024.93 1273.44 1026.83" style="fill: #cccbca;stroke: #000;stroke-miterlimit: 10;stroke-width: 3px"/>
    <line x1="0.12" y1="1028.95" x2="1500.12" y2="1028.95" style="fill: #ffc0f9;stroke: #000;stroke-miterlimit: 10;stroke-width: 3px"/>
    <path d="M1157,652.5h-42s-1-13-11-13-9,10-9,10-7-25-28-25-30,26-30,26-16-4-20,2-3,17-3,17H978" style="fill: none;stroke: #000;stroke-miterlimit: 10;stroke-width: 3px"/>
    <path d="M147.92,476.81s9.23-16.19,21.61-17.59S187.36,477,187.36,477s6.52-12.93,17-14.58,21.52,14.35,21.52,14.35" style="fill: none;stroke: #000;stroke-miterlimit: 10;stroke-width: 3px"/>
    <path d="M846.15,240.08l8.27,2.23-5.5,1.48a8.52,8.52,0,0,0-6,6l-1.48,5.5-1.76-6.54a6.66,6.66,0,0,0-4.7-4.7l-6.54-1.76,6.48-1.75a6.73,6.73,0,0,0,4.77-4.77l1.75-6.48,2.23,8.27A3.53,3.53,0,0,0,846.15,240.08Z" style="fill: none;stroke: #000;stroke-miterlimit: 10;stroke-width: 2px"/>
    <path d="M305.15,306.08l8.27,2.23-5.5,1.48a8.52,8.52,0,0,0-6,6l-1.48,5.5-1.76-6.54a6.66,6.66,0,0,0-4.7-4.7l-6.54-1.76,6.48-1.75a6.73,6.73,0,0,0,4.77-4.77l1.75-6.48,2.23,8.27A3.53,3.53,0,0,0,305.15,306.08Z" style="fill: none;stroke: #000;stroke-miterlimit: 10;stroke-width: 2px"/>
    <path d="M1147.15,722.08l8.27,2.23-5.5,1.48a8.52,8.52,0,0,0-6,6l-1.48,5.5-1.76-6.54a6.66,6.66,0,0,0-4.7-4.7l-6.54-1.76,6.48-1.75a6.73,6.73,0,0,0,4.77-4.77l1.75-6.48,2.23,8.27A3.53,3.53,0,0,0,1147.15,722.08Z" style="fill: none;stroke: #000;stroke-miterlimit: 10;stroke-width: 2px"/>
    <path d="M1168.36,423.37s.71-9.26,7.84-9.26,6.41,7.12,6.41,7.12,5-17.82,20-17.82S1224,422,1224,422s11.41-2.85,14.26,1.42,2.14,12.12,2.14,12.12" style="fill: none;stroke: #000;stroke-miterlimit: 10;stroke-width: 3px"/>
    <path d="M586.15,319.08l8.27,2.23-5.5,1.48a8.52,8.52,0,0,0-6,6l-1.48,5.5-1.76-6.54a6.66,6.66,0,0,0-4.7-4.7l-6.54-1.76,6.48-1.75a6.73,6.73,0,0,0,4.77-4.77l1.75-6.48,2.23,8.27A3.53,3.53,0,0,0,586.15,319.08Z" style="fill: none;stroke: #000;stroke-miterlimit: 10;stroke-width: 2px"/>
    <path d="M396.15,453.08l8.27,2.23-5.5,1.48a8.52,8.52,0,0,0-6,6l-1.48,5.5-1.76-6.54a6.66,6.66,0,0,0-4.7-4.7l-6.54-1.76,6.48-1.75a6.73,6.73,0,0,0,4.77-4.77l1.75-6.48,2.23,8.27A3.53,3.53,0,0,0,396.15,453.08Z" style="fill: none;stroke: #000;stroke-miterlimit: 10;stroke-width: 2px"/>
    <path d="M1285.15,671.08l8.27,2.23-5.5,1.48a8.52,8.52,0,0,0-6,6l-1.48,5.5-1.76-6.54a6.66,6.66,0,0,0-4.7-4.7l-6.54-1.76,6.48-1.75a6.73,6.73,0,0,0,4.77-4.77l1.75-6.48,2.23,8.27A3.53,3.53,0,0,0,1285.15,671.08Z" style="fill: none;stroke: #000;stroke-miterlimit: 10;stroke-width: 2px"/>
    <g>
      <polygon points="310 1028.81 310 682.51 439.39 579.76 439.39 1028.81 310 1028.81" style="fill: #2eaecc;stroke: #000;stroke-miterlimit: 10;stroke-width: 3px"/>
      <polygon points="357.57 646.36 357.57 488.43 366.95 464.98 376.6 440.86 439.39 486.53 439.39 579.76 357.57 646.36" style="fill: #2eaecc;stroke: #000;stroke-miterlimit: 10;stroke-width: 3px"/>
      <polyline points="391.82 457.99 374.69 473.21 374.69 830.93 437.48 973.63" style="fill: none;stroke: #000;stroke-miterlimit: 10;stroke-width: 3px"/>
      <polyline points="310 973.63 392.35 871.05 439.39 779.96 310 682.51" style="fill: none;stroke: #000;stroke-miterlimit: 10;stroke-width: 3px"/>
      <polyline points="357.57 488.43 374.69 537.31 357.57 586.23 374.69 631.14 437.48 678.71 374.69 731.5 310 785.89 374.69 830.93 311.9 872.79 389.92 973.63 439.39 873.85 391.82 781.46 376.6 737.69" style="fill: none;stroke: #000;stroke-miterlimit: 10;stroke-width: 3px"/>
      <polyline points="433.68 779.55 391.82 779.55 374.69 830.93" style="fill: none;stroke: #000;stroke-miterlimit: 10;stroke-width: 3px"/>
      <polyline points="310 872.79 391.82 872.79 391.82 973.63" style="fill: none;stroke: #000;stroke-miterlimit: 10;stroke-width: 3px"/>
      <line x1="391.82" y1="786.88" x2="391.82" y2="864.96" style="fill: #2eaecc;stroke: #000;stroke-miterlimit: 10;stroke-width: 3px"/>
      <polyline points="435.58 577.86 374.69 537.9 437.48 492.24" style="fill: #2eaecc;stroke: #000;stroke-miterlimit: 10;stroke-width: 2px"/>
      <line x1="369.94" y1="449.42" x2="369.94" y2="346.68" style="fill: #2eaecc;stroke: #000;stroke-miterlimit: 10;stroke-width: 2px"/>
      <line x1="388.96" y1="346.68" x2="391.06" y2="451.38" style="fill: #2eaecc;stroke: #000;stroke-miterlimit: 10;stroke-width: 2px"/>
    </g>
    <g>
      <rect x="1320.61" y="575.88" width="129.39" height="452.85" style="fill: #60d82e;stroke: #000;stroke-miterlimit: 10;stroke-width: 3px"/>
      <rect x="1325.37" y="477.89" width="119.87" height="97.04" style="fill: #60d82e;stroke: #000;stroke-miterlimit: 10;stroke-width: 3px"/>
      <rect x="1327.27" y="382.75" width="116.07" height="95.14" style="fill: #60d82e;stroke: #000;stroke-miterlimit: 10;stroke-width: 3px"/>
      <polygon points="1441.44 382.75 1332.98 382.75 1338.69 331.38 1435.73 331.38 1441.44 382.75" style="fill: #60d82e;stroke: #000;stroke-miterlimit: 10;stroke-width: 3px"/>
      <polyline points="1348.2 293.32 1357.72 259.07 1412.9 259.07 1422.41 293.32" style="fill: #60d82e;stroke: #000;stroke-miterlimit: 10;stroke-width: 3px"/>
      <polyline points="1344.4 306.64 1344.4 295.22 1428.12 295.22 1428.12 306.64" style="fill: #60d82e;stroke: #000;stroke-miterlimit: 10;stroke-width: 3px"/>
      <polyline points="1338.69 327.57 1338.69 306.64 1433.83 306.64 1433.83 327.57" style="fill: #60d82e;stroke: #000;stroke-miterlimit: 10;stroke-width: 3px"/>
      <line x1="1371.99" y1="260.02" x2="1368.18" y2="292.37" style="fill: #60d82e;stroke: #000;stroke-miterlimit: 10;stroke-width: 3px"/>
      <line x1="1380.55" y1="297.13" x2="1380.55" y2="331.38" style="fill: #60d82e;stroke: #000;stroke-miterlimit: 10;stroke-width: 3px"/>
      <line x1="1373.91" y1="331.38" x2="1373.91" y2="380.85" style="fill: #60d82e;stroke: #000;stroke-miterlimit: 10;stroke-width: 3px"/>
      <line x1="1369.13" y1="386.55" x2="1369.13" y2="475.98" style="fill: #60d82e;stroke: #000;stroke-miterlimit: 10;stroke-width: 3px"/>
      <line x1="1369.13" y1="481.69" x2="1369.13" y2="573.02" style="fill: #60d82e;stroke: #000;stroke-miterlimit: 10;stroke-width: 2px"/>
      <line x1="1368.18" y1="296.17" x2="1368.18" y2="306.64" style="fill: #60d82e;stroke: #000;stroke-miterlimit: 10;stroke-width: 2px"/>
      <line x1="1362.47" y1="309.49" x2="1362.47" y2="326.62" style="fill: #60d82e;stroke: #000;stroke-miterlimit: 10;stroke-width: 2px"/>
      <polyline points="1360.57 332.33 1355.78 382.75 1354.86 475.03" style="fill: #60d82e;stroke: #000;stroke-miterlimit: 10;stroke-width: 2px"/>
      <line x1="1385.31" y1="334.23" x2="1385.31" y2="475.03" style="fill: #60d82e;stroke: #000;stroke-miterlimit: 10;stroke-width: 2px"/>
      <line x1="1430.62" y1="331.38" x2="1430.62" y2="382.75" style="fill: #60d82e;stroke: #000;stroke-miterlimit: 10;stroke-width: 2px"/>
      <line x1="1432.88" y1="385.6" x2="1432.88" y2="475.03" style="fill: #60d82e;stroke: #000;stroke-miterlimit: 10;stroke-width: 2px"/>
      <line x1="1351.06" y1="480.74" x2="1351.06" y2="572.07" style="fill: #60d82e;stroke: #000;stroke-miterlimit: 10;stroke-width: 2px"/>
      <line x1="1387.21" y1="480.74" x2="1387.21" y2="1026.83" style="fill: #60d82e;stroke: #000;stroke-miterlimit: 10;stroke-width: 2px"/>
      <line x1="1436.68" y1="1024.93" x2="1436.68" y2="477.89" style="fill: #60d82e;stroke: #000;stroke-miterlimit: 10;stroke-width: 2px"/>
      <line x1="1387.21" y1="488.49" x2="1434.78" y2="488.49" style="fill: #60d82e;stroke: #000;stroke-miterlimit: 10;stroke-width: 2px"/>
      <line x1="1387.21" y1="499.64" x2="1434.78" y2="499.64" style="fill: #60d82e;stroke: #000;stroke-miterlimit: 10;stroke-width: 2px"/>
      <line x1="1368.18" y1="488.35" x2="1326.32" y2="488.35" style="fill: #60d82e;stroke: #000;stroke-miterlimit: 10;stroke-width: 2px"/>
      <line x1="1326.32" y1="499.64" x2="1368.18" y2="499.64" style="fill: #60d82e;stroke: #000;stroke-miterlimit: 10;stroke-width: 2px"/>
      <line x1="1364.38" y1="577.78" x2="1364.38" y2="1024.93" style="fill: #60d82e;stroke: #000;stroke-miterlimit: 10;stroke-width: 2px"/>
      <line x1="1351.06" y1="1026.83" x2="1351.06" y2="577.78" style="fill: #60d82e;stroke: #000;stroke-miterlimit: 10;stroke-width: 2px"/>
      <line x1="1320.61" y1="589.56" x2="1364.38" y2="589.56" style="fill: #60d82e;stroke: #000;stroke-miterlimit: 10;stroke-width: 2px"/>
      <line x1="1320.61" y1="600.71" x2="1364.38" y2="600.71" style="fill: #60d82e;stroke: #000;stroke-miterlimit: 10;stroke-width: 2px"/>
      <line x1="1387.21" y1="588.12" x2="1436.68" y2="588.12" style="fill: #60d82e;stroke: #000;stroke-miterlimit: 10;stroke-width: 2px"/>
      <line x1="1387.21" y1="600.71" x2="1434.78" y2="600.71" style="fill: #60d82e;stroke: #000;stroke-miterlimit: 10;stroke-width: 2px"/>
      <line x1="1320.61" y1="759.34" x2="1366.28" y2="759.34" style="fill: #60d82e;stroke: #000;stroke-miterlimit: 10;stroke-width: 2px"/>
      <line x1="1364.38" y1="771.21" x2="1320.61" y2="771.21" style="fill: #60d82e;stroke: #000;stroke-miterlimit: 10;stroke-width: 2px"/>
      <line x1="1387.21" y1="760.78" x2="1436.68" y2="760.78" style="fill: #60d82e;stroke: #000;stroke-miterlimit: 10;stroke-width: 2px"/>
      <line x1="1387.21" y1="771.21" x2="1436.68" y2="771.21" style="fill: #60d82e;stroke: #000;stroke-miterlimit: 10;stroke-width: 2px"/>
      <line x1="1392.92" y1="956.43" x2="1392.92" y2="1024.93" style="fill: #60d82e;stroke: #000;stroke-miterlimit: 10;stroke-width: 2px"/>
      <line x1="1398.63" y1="956.43" x2="1398.63" y2="1024.93" style="fill: #60d82e;stroke: #000;stroke-miterlimit: 10;stroke-width: 2px"/>
      <line x1="1406.24" y1="956.43" x2="1406.24" y2="1026.83" style="fill: #60d82e;stroke: #000;stroke-miterlimit: 10;stroke-width: 2px"/>
      <line x1="1411.94" y1="956.43" x2="1411.94" y2="1026.83" style="fill: #60d82e;stroke: #000;stroke-miterlimit: 10;stroke-width: 2px"/>
      <line x1="1419.56" y1="956.43" x2="1419.56" y2="1024.93" style="fill: #60d82e;stroke: #000;stroke-miterlimit: 10;stroke-width: 2px"/>
      <line x1="1425.26" y1="958.33" x2="1425.26" y2="1024.93" style="fill: #60d82e;stroke: #000;stroke-miterlimit: 10;stroke-width: 2px"/>
      <line x1="1430.97" y1="958.33" x2="1430.97" y2="1026.83" style="fill: #60d82e;stroke: #000;stroke-miterlimit: 10;stroke-width: 2px"/>
      <line x1="1379.6" y1="261.92" x2="1379.6" y2="292.37" style="fill: #60d82e;stroke: #000;stroke-miterlimit: 10;stroke-width: 2px"/>
      <path d="M1386.26,260c1,1.9,1,32.35,1,32.35" style="fill: #60d82e;stroke: #000;stroke-miterlimit: 10;stroke-width: 2px"/>
      <line x1="1394.32" y1="260.02" x2="1394.82" y2="294.27" style="fill: #60d82e;stroke: #000;stroke-miterlimit: 10;stroke-width: 2px"/>
      <line x1="1402.43" y1="261.92" x2="1402.43" y2="294.27" style="fill: #60d82e;stroke: #000;stroke-miterlimit: 10;stroke-width: 2px"/>
      <line x1="1408.21" y1="259.07" x2="1410.04" y2="294.27" style="fill: #60d82e;stroke: #000;stroke-miterlimit: 10;stroke-width: 2px"/>
      <line x1="1364.38" y1="260.02" x2="1358.67" y2="294.27" style="fill: #60d82e;stroke: #000;stroke-miterlimit: 10;stroke-width: 2px"/>
    </g>
    <g>
      <rect x="536.76" y="415.45" width="19.22" height="36.52" style="fill: #fff3a9;stroke: #ce1800;stroke-miterlimit: 10;stroke-width: 3px"/>
      <polyline points="496.4 523.07 496.4 496.17 538.69 453.88" style="fill: #fff3a9;stroke: #ce1800;stroke-miterlimit: 10;stroke-width: 3px"/>
      <polyline points="596.35 523.07 596.35 498.09 555.98 451.96" style="fill: #fff3a9;stroke: #ce1800;stroke-miterlimit: 10;stroke-width: 3px"/>
      <line x1="496.4" y1="496.17" x2="596.34" y2="496.17" style="fill: #fff3a9;stroke: #ce1800;stroke-miterlimit: 10;stroke-width: 3px"/>
      <line x1="496.4" y1="512.16" x2="596.34" y2="512.16" style="fill: #fff3a9;stroke: #ce1800;stroke-miterlimit: 10;stroke-width: 3px"/>
      <polyline points="550.36 453.88 566.96 496.17 566.96 961.28" style="fill: #fff3a9;stroke: #ce1800;stroke-miterlimit: 10;stroke-width: 3px"/>
      <polygon points="609.8 1028.55 482.95 1028.55 482.95 981.28 482.95 961.28 609.8 961.28 609.8 1028.55" style="fill: #fff3a9;stroke: #ce1800;stroke-miterlimit: 10;stroke-width: 3px"/>
      <line x1="605.95" y1="980.5" x2="482.95" y2="980.5" style="fill: #fff3a9;stroke: #ce1800;stroke-miterlimit: 10;stroke-width: 3px"/>
      <line x1="502.17" y1="1026.62" x2="502.17" y2="980.5" style="fill: #fff3a9;stroke: #ce1800;stroke-miterlimit: 10;stroke-width: 3px"/>
      <line x1="518.76" y1="1027.58" x2="518.76" y2="980.5" style="fill: #fff3a9;stroke: #ce1800;stroke-miterlimit: 10;stroke-width: 3px"/>
      <line x1="536.76" y1="1026.62" x2="536.76" y2="980.5" style="fill: #fff3a9;stroke: #ce1800;stroke-miterlimit: 10;stroke-width: 3px"/>
      <line x1="554.06" y1="1024.7" x2="554.06" y2="980.5" style="fill: #fff3a9;stroke: #ce1800;stroke-miterlimit: 10;stroke-width: 3px"/>
      <line x1="573.28" y1="1026.62" x2="573.28" y2="980.5" style="fill: #fff3a9;stroke: #ce1800;stroke-miterlimit: 10;stroke-width: 3px"/>
      <line x1="592.5" y1="1026.62" x2="592.5" y2="980.5" style="fill: #fff3a9;stroke: #ce1800;stroke-miterlimit: 10;stroke-width: 3px"/>
      <rect x="482.95" y="523.07" width="73.03" height="434.36" style="fill: #fff3a9;stroke: #ce1800;stroke-miterlimit: 10;stroke-width: 3px"/>
      <rect x="577.13" y="523.07" width="32.67" height="438.2" style="fill: #fff3a9;stroke: #ce1800;stroke-miterlimit: 10;stroke-width: 3px"/>
      <rect x="496.4" y="711.42" width="53.81" height="244.09" style="fill: #fff3a9;stroke: #ce1800;stroke-miterlimit: 10;stroke-width: 3px"/>
      <polygon points="538.69 557.67 538.69 544.22 506.86 544.22 506.01 557.67 496.4 558.06 496.4 703.74 546.37 703.74 546.37 559.08 538.69 557.67" style="fill: #fff3a9;stroke: #ce1800;stroke-miterlimit: 10;stroke-width: 3px"/>
      <g>
        <line x1="506.97" y1="600.91" x2="506.97" y2="681.63" style="fill: #fff3a9;stroke: #ce1800;stroke-miterlimit: 10;stroke-width: 2px"/>
        <line x1="516.58" y1="589.38" x2="516.58" y2="681.63" style="fill: #fff3a9;stroke: #ce1800;stroke-miterlimit: 10;stroke-width: 2px"/>
        <line x1="522.35" y1="581.69" x2="522.35" y2="681.63" style="fill: #fff3a9;stroke: #ce1800;stroke-miterlimit: 10;stroke-width: 2px"/>
        <line x1="531.96" y1="589.38" x2="531.96" y2="681.63" style="fill: #fff3a9;stroke: #ce1800;stroke-miterlimit: 10;stroke-width: 2px"/>
        <line x1="537.73" y1="600.91" x2="537.73" y2="681.63" style="fill: #fff3a9;stroke: #ce1800;stroke-miterlimit: 10;stroke-width: 2px"/>
      </g>
      <line x1="512.74" y1="727.76" x2="512.74" y2="825.78" style="fill: #fff3a9;stroke: #ce1800;stroke-miterlimit: 10;stroke-width: 2px"/>
      <line x1="522.35" y1="725.84" x2="522.35" y2="825.78" style="fill: #fff3a9;stroke: #ce1800;stroke-miterlimit: 10;stroke-width: 2px"/>
      <line x1="531.96" y1="727.76" x2="531.96" y2="825.78" style="fill: #fff3a9;stroke: #ce1800;stroke-miterlimit: 10;stroke-width: 2px"/>
      <line x1="522.35" y1="854.61" x2="522.35" y2="948.78" style="fill: #fff3a9;stroke: #ce1800;stroke-miterlimit: 10;stroke-width: 2px"/>
      <line x1="593.46" y1="727.76" x2="593.46" y2="825.78" style="fill: #fff3a9;stroke: #ce1800;stroke-miterlimit: 10;stroke-width: 2px"/>
      <polyline points="593.46 662.3 593.46 691.24 593.46 581.69 593.46 611.21" style="fill: #fff3a9;stroke: #ce1800;stroke-miterlimit: 10;stroke-width: 2px"/>
      <polygon points="585.77 702.78 601.15 702.78 601.15 558.63 599.23 558.63 599.23 543.25 589.62 543.25 589.62 560.55 585.77 560.55 585.77 702.78" style="fill: #fff3a9;stroke: #ce1800;stroke-miterlimit: 10;stroke-width: 3px"/>
      <rect x="585.77" y="714.31" width="17.3" height="246.01" style="fill: #fff3a9;stroke: #ce1800;stroke-miterlimit: 10;stroke-width: 2px"/>
      <line x1="510.82" y1="499.05" x2="510.82" y2="512.16" style="fill: #fff3a9;stroke: #ce1800;stroke-miterlimit: 10;stroke-width: 3px"/>
      <line x1="504.49" y1="512.16" x2="504.49" y2="523.07" style="fill: #fff3a9;stroke: #ce1800;stroke-miterlimit: 10;stroke-width: 3px"/>
      <line x1="589.5" y1="512.16" x2="589.5" y2="520.19" style="fill: #fff3a9;stroke: #ce1800;stroke-miterlimit: 10;stroke-width: 3px"/>
      <line x1="585.77" y1="496.17" x2="586.74" y2="511.54" style="fill: #fff3a9;stroke: #ce1800;stroke-miterlimit: 10;stroke-width: 3px"/>
      <polyline points="576.16 493.28 576.16 481.75 516.58 481.75 516.58 496.17" style="fill: #fff3a9;stroke: #ce1800;stroke-miterlimit: 10;stroke-width: 3px"/>
      <line x1="593.46" y1="852.69" x2="593.46" y2="950.71" style="fill: #fff3a9;stroke: #ce1800;stroke-miterlimit: 10;stroke-width: 2px"/>
      <line x1="545.41" y1="326.08" x2="545.41" y2="412.56" style="fill: #fff3a9;stroke: #ce1800;stroke-miterlimit: 10;stroke-width: 2px"/>
    </g>
    <g>
      <path d="M998.25,872.51s30,5.21,41,7.81,60.07,20,65.53,22.57,10,20,10,20l-16.38,14.75S1072,915.91,1056.49,902s-45.5-25.17-68.25-28.64-42.77,6.08-57.33,19.09-15.47,45.13-15.47,45.13l33.67,18.23-12.74-20s9.1-25.17,15.47-30.38,17.29-19.09,35.49-18.22,56.42,10.41,61,13,15.47,10.41,15.47,10.41" style="fill: #fff7ab;stroke: #000;stroke-miterlimit: 10;stroke-width: 3px"/>
      <path d="M1206.65,917.64s11.83-3.47,17.29-5.2,13.65-7.82,13.65-7.82-30.94-13.88-47.32-13c-13,.68-29.42.28-39.74,2.68a22,22,0,0,0-6.67,2.52c-8.19,5.21-20.93,13.89-22.75,20.83l-1.82,5.21h3.64s10-21.7,28.21-24.3,39.13-2.6,44.59,3.47,7.28,8.68,7.28,11.28S1206.65,917.64,1206.65,917.64Z" style="fill: #fff7ab;stroke: #000;stroke-miterlimit: 10;stroke-width: 3px"/>
      <path d="M1093.81,896.81s34.58-1.73,38.22-1.73,13.65-.87,13.65-.87" style="fill: #fff7ab;stroke: #000;stroke-miterlimit: 10;stroke-width: 3px"/>
      <path d="M1057.4,957.57s41.87-13.89,51-18.23,33.67-14.75,48.23-14.75,41.86,6.07,49.14,6.94,30,8.68,35.49,11.28,21.84,9.55,21.84,9.55l21.84.87-1.82-2.61s-1.82.87-10-2.6-25.48-14.75-25.48-14.75-17.29-10.42-29.12-13S1193,915,1183.9,915s-37.31-.87-47.32,1.74-21.84,6.07-21.84,6.07l-16.38,14.75-41,17.36Z" style="fill: #fff7ab;stroke: #000;stroke-miterlimit: 10;stroke-width: 3px"/>
      <polyline points="1289.46 974.92 1198.46 940.21 1187.54 935.87" style="fill: #fff7ab;stroke: #000;stroke-miterlimit: 10;stroke-width: 3px"/>
      <path d="M1143.86,903.76s19.11.86,27.3,1.73,29.12,4.34,29.12,4.34" style="fill: #fff7ab;stroke: #000;stroke-miterlimit: 10;stroke-width: 3px"/>
      <path d="M1156.6,898.55s33.67,3.47,37.31,4.34" style="fill: #fff7ab;stroke: #000;stroke-miterlimit: 10;stroke-width: 3px"/>
      <path d="M1135.67,908.1s52.78,3.47,57.33,4.34a101.69,101.69,0,0,1,10,2.6" style="fill: #fff7ab;stroke: #000;stroke-miterlimit: 10;stroke-width: 3px"/>
      <line x1="1128.89" y1="913.33" x2="1146.59" y2="913.3" style="fill: #fff7ab;stroke: #000;stroke-miterlimit: 10;stroke-width: 3px"/>
      <path d="M896.33,944.55h-18.2s-3.64-17.36-2.73-19.1,1.82-6.94,5.46-6.94,15.47,7.81,15.47,7.81Z" style="fill: #fff7ab;stroke: #000;stroke-miterlimit: 10;stroke-width: 3px"/>
      <line x1="882.68" y1="917.64" x2="915.44" y2="917.64" style="fill: #fff7ab;stroke: #000;stroke-miterlimit: 10;stroke-width: 3px"/>
      <polyline points="887.9 921.27 904.52 934.13 917.26 940.21" style="fill: #fff7ab;stroke: #000;stroke-miterlimit: 10;stroke-width: 3px"/>
      <line x1="979.14" y1="888.13" x2="979.14" y2="981.87" style="fill: #fff7ab;stroke: #000;stroke-miterlimit: 10;stroke-width: 3px"/>
      <line x1="1009" y1="890.22" x2="1009" y2="986.21" style="fill: #fff7ab;stroke: #000;stroke-miterlimit: 10;stroke-width: 3px"/>
      <line x1="1031.01" y1="895.08" x2="1031.01" y2="973.19" style="fill: #fff7ab;stroke: #000;stroke-miterlimit: 10;stroke-width: 3px"/>
      <line x1="1049.12" y1="900.29" x2="1049.12" y2="1006.17" style="fill: #fff7ab;stroke: #000;stroke-miterlimit: 10;stroke-width: 3px"/>
      <line x1="1065.59" y1="910.7" x2="1065.59" y2="950.62" style="fill: #fff7ab;stroke: #000;stroke-miterlimit: 10;stroke-width: 3px"/>
      <line x1="965.49" y1="894.21" x2="965.49" y2="984.47" style="fill: #fff7ab;stroke: #000;stroke-miterlimit: 10;stroke-width: 3px"/>
      <line x1="956.21" y1="900.29" x2="956.21" y2="992.28" style="fill: #fff7ab;stroke: #000;stroke-miterlimit: 10;stroke-width: 3px"/>
      <line x1="935.46" y1="973.19" x2="1081.07" y2="973.19" style="fill: #fff7ab;stroke: #000;stroke-miterlimit: 10;stroke-width: 3px"/>
      <line x1="935.46" y1="989.68" x2="1081.07" y2="989.68" style="fill: #fff7ab;stroke: #000;stroke-miterlimit: 10;stroke-width: 3px"/>
      <line x1="1049.12" y1="974.92" x2="1049.12" y2="1003.57" style="fill: #fff7ab;stroke: #000;stroke-miterlimit: 10;stroke-width: 3px"/>
      <line x1="1065.59" y1="974.92" x2="1065.59" y2="1006.17" style="fill: #fff7ab;stroke: #000;stroke-miterlimit: 10;stroke-width: 3px"/>
      <line x1="1009" y1="977.53" x2="1009" y2="1006.17" style="fill: #fff7ab;stroke: #000;stroke-miterlimit: 10;stroke-width: 3px"/>
      <line x1="979.14" y1="977.53" x2="979.14" y2="1006.17" style="fill: #fff7ab;stroke: #000;stroke-miterlimit: 10;stroke-width: 3px"/>
      <line x1="965.49" y1="974.92" x2="965.49" y2="1006.17" style="fill: #fff7ab;stroke: #000;stroke-miterlimit: 10;stroke-width: 3px"/>
      <line x1="956.21" y1="973.19" x2="956.21" y2="1006.17" style="fill: #fff7ab;stroke: #000;stroke-miterlimit: 10;stroke-width: 3px"/>
      <polyline points="946.5 973.19 946.38 1008.2 946.38 1025.26" style="fill: #fff7ab;stroke: #000;stroke-miterlimit: 10;stroke-width: 3px"/>
      <polyline points="904.52 1006.17 854.47 1006.17 1093.81 1006.17 1093.81 1025.26" style="fill: none;stroke: #000;stroke-miterlimit: 10;stroke-width: 3px"/>
      <polyline points="1266.71 1025.26 1263.1 1025.26 854.47 1025.26" style="fill: #fff7ab;stroke: #000;stroke-miterlimit: 10;stroke-width: 3px"/>
      <line x1="1263.07" y1="964.51" x2="1263.07" y2="1025.26" style="fill: #fff7ab;stroke: #000;stroke-miterlimit: 10;stroke-width: 3px"/>
      <polyline points="1235.77 1008.77 1204.83 1008.77 1204.83 992.28 1237.59 992.28" style="fill: none;stroke: #000;stroke-miterlimit: 10;stroke-width: 3px"/>
      <polyline points="1230.31 988.81 1230.31 954.96 1168.43 954.96 1168.43 1010.51 1134.76 1010.51" style="fill: none;stroke: #000;stroke-miterlimit: 10;stroke-width: 3px"/>
      <path d="M1187.54,972.32s16.38-6.07,24.57-5.21,22.75,5.21,26.39,6.08,11.83,1.73,11.83,1.73" style="fill: none;stroke: #000;stroke-miterlimit: 10;stroke-width: 3px"/>
      <line x1="1134.76" y1="955.83" x2="1168.43" y2="955.83" style="fill: #fff7ab;stroke: #000;stroke-miterlimit: 10;stroke-width: 3px"/>
      <line x1="1167.52" y1="974.92" x2="1134.76" y2="974.92" style="fill: #fff7ab;stroke: #000;stroke-miterlimit: 10;stroke-width: 3px"/>
      <line x1="1167.52" y1="992.28" x2="1134.76" y2="992.28" style="fill: #fff7ab;stroke: #000;stroke-miterlimit: 10;stroke-width: 3px"/>
      <line x1="854.47" y1="989.68" x2="902.7" y2="989.68" style="fill: #fff7ab;stroke: #000;stroke-miterlimit: 10;stroke-width: 3px"/>
      <line x1="854.47" y1="974.92" x2="902.7" y2="974.92" style="fill: #fff7ab;stroke: #000;stroke-miterlimit: 10;stroke-width: 3px"/>
      <line x1="854.47" y1="957.57" x2="902.7" y2="957.57" style="fill: #fff7ab;stroke: #000;stroke-miterlimit: 10;stroke-width: 3px"/>
      <polyline points="868.12 1025.26 868.12 950.62 879.04 944.55" style="fill: #fff7ab;stroke: #000;stroke-miterlimit: 10;stroke-width: 3px"/>
      <line x1="1229.86" y1="1010.07" x2="1229.86" y2="1025.26" style="fill: #fff7ab;stroke: #000;stroke-miterlimit: 10;stroke-width: 3px"/>
      <line x1="1167.97" y1="1010.07" x2="1167.97" y2="1025.26" style="fill: #fff7ab;stroke: #000;stroke-miterlimit: 10;stroke-width: 3px"/>
      <line x1="1075.15" y1="1007.47" x2="1075.15" y2="1025.26" style="fill: #fff7ab;stroke: #000;stroke-miterlimit: 10;stroke-width: 3px"/>
      <line x1="1056.95" y1="1007.47" x2="1056.95" y2="1025.26" style="fill: #fff7ab;stroke: #000;stroke-miterlimit: 10;stroke-width: 3px"/>
      <line x1="1041.29" y1="1006.17" x2="1041.29" y2="1025.26" style="fill: #fff7ab;stroke: #000;stroke-miterlimit: 10;stroke-width: 3px"/>
      <line x1="1024.19" y1="1007.47" x2="1024.19" y2="1025.26" style="fill: #fff7ab;stroke: #000;stroke-miterlimit: 10;stroke-width: 3px"/>
      <line x1="1003.26" y1="1007.47" x2="1003.26" y2="1026.41" style="fill: #fff7ab;stroke: #000;stroke-miterlimit: 10;stroke-width: 3px"/>
      <line x1="917.71" y1="1007.47" x2="917.71" y2="1026.41" style="fill: #fff7ab;stroke: #000;stroke-miterlimit: 10;stroke-width: 3px"/>
      <line x1="931.45" y1="1006.17" x2="931.45" y2="1025.26" style="fill: #fff7ab;stroke: #000;stroke-miterlimit: 10;stroke-width: 3px"/>
      <line x1="939.55" y1="1007.47" x2="939.55" y2="1025.26" style="fill: #fff7ab;stroke: #000;stroke-miterlimit: 10;stroke-width: 3px"/>
      <line x1="959.57" y1="1007.47" x2="959.57" y2="1025.26" style="fill: #fff7ab;stroke: #000;stroke-miterlimit: 10;stroke-width: 3px"/>
      <line x1="974.14" y1="1007.47" x2="974.14" y2="1025.26" style="fill: #fff7ab;stroke: #000;stroke-miterlimit: 10;stroke-width: 3px"/>
      <line x1="988.7" y1="1007.47" x2="988.7" y2="1025.26" style="fill: #fff7ab;stroke: #000;stroke-miterlimit: 10;stroke-width: 3px"/>
    </g>
    <g>
      <path d="M87.72,979.21s6.7,12.73,10,16.08,2,0,6,8,22.11,24.12,22.11,24.12H321.57s-2.68-2.68-6-2.68-1.34-3.35-1.34-3.35,10.72-10,18.09-15.41,26.81-19.43,26.81-19.43-49.25,12.4-62.65,15.08-16.08,2-16.08,2S263.61,1005,254.9,1005c-.94,0-2.52,0-4.58,0-16.93.11-66.44.65-66.44.65l-12.06.67s-20.11-4-26.14-12.06-11.39-14.75-11.39-14.75Z" style="fill: #c69c6d;stroke: #000;stroke-miterlimit: 10;stroke-width: 3px"/>
      <path d="M114.19,966.14h136s-8.71-8-15.41-8.71-103.86,0-103.86,0S120.89,958.1,114.19,966.14Z" style="fill: #c69c6d;stroke: #000;stroke-miterlimit: 10;stroke-width: 3px"/>
      <line x1="199.6" y1="967.45" x2="199.29" y2="1005.51" style="fill: none;stroke: #000;stroke-miterlimit: 10;stroke-width: 3px"/>
      <line x1="223.6" y1="967.45" x2="223.6" y2="1005.45" style="fill: none;stroke: #000;stroke-miterlimit: 10;stroke-width: 3px"/>
      <line x1="250.6" y1="966.45" x2="250.21" y2="1005.68" style="fill: none;stroke: #000;stroke-miterlimit: 10;stroke-width: 3px"/>
      <line x1="160.6" y1="966.45" x2="161.6" y2="1002.95" style="fill: none;stroke: #000;stroke-miterlimit: 10;stroke-width: 3px"/>
      <line x1="179.86" y1="966.14" x2="179.86" y2="1005.68" style="fill: none;stroke: #000;stroke-miterlimit: 10;stroke-width: 3px"/>
      <line x1="133.6" y1="965.45" x2="133.62" y2="978.87" style="fill: none;stroke: #000;stroke-miterlimit: 10;stroke-width: 3px"/>
      <line x1="114.19" y1="966.14" x2="114.19" y2="978.87" style="fill: none;stroke: #000;stroke-miterlimit: 10;stroke-width: 3px"/>
      <line x1="134.1" y1="978.95" x2="250.6" y2="977.95" style="fill: none;stroke: #000;stroke-miterlimit: 10;stroke-width: 3px"/>
      <line x1="145.68" y1="994.29" x2="250.21" y2="994.29" style="fill: none;stroke: #000;stroke-miterlimit: 10;stroke-width: 3px"/>
      <line x1="250.21" y1="975.62" x2="279.31" y2="1004.72" style="fill: none;stroke: #000;stroke-miterlimit: 10;stroke-width: 3px"/>
      <polyline points="252.22 986.91 269.64 1004.34 252.22 990.26 260.93 1004.72" style="fill: none;stroke: #000;stroke-linecap: round;stroke-linejoin: round;stroke-width: 3px"/>
      <polyline points="256.28 981.69 256.28 990.98 261.13 995.82 261.13 987.59 269.12 995.58 269.12 1005.01" style="fill: none;stroke: #000;stroke-miterlimit: 10;stroke-width: 3px"/>
      <line x1="94.41" y1="979.21" x2="94.41" y2="960.46" style="fill: none;stroke: #000;stroke-miterlimit: 10;stroke-width: 3px"/>
      <g>
        <path d="M72.49,888.51S56.66,914.89,56.66,933,65,966.14,65,966.14l45.22-9.79s-7.54-11.31-6-24.88,6-21.85,6-21.85Z" style="fill: #ed1c24;stroke: #000;stroke-miterlimit: 10;stroke-width: 3px"/>
        <line x1="95.64" y1="901.48" x2="95.64" y2="876.45" style="fill: none;stroke: #000;stroke-miterlimit: 10;stroke-width: 3px"/>
        <line x1="64.53" y1="904.06" x2="104.14" y2="931.47" style="fill: none;stroke: #000;stroke-miterlimit: 10;stroke-width: 3px"/>
        <line x1="104.14" y1="938.83" x2="56.66" y2="926.56" style="fill: none;stroke: #000;stroke-miterlimit: 10;stroke-width: 3px"/>
        <path d="M106,947.36s-11.11-1.68-20.71-3.83c-5.93-1.33-28.64-3.47-28.64-3.47" style="fill: none;stroke: #000;stroke-miterlimit: 10;stroke-width: 3px"/>
        <path d="M107.79,951.89s-39.47,2-47.76,2.79" style="fill: none;stroke: #000;stroke-miterlimit: 10;stroke-width: 3px"/>
      </g>
      <path d="M226.09,953.41s20.77-5.36,34.84-4,36.86,2,36.86,2-.67-4.69,0-20.1-1.34-37.52-4-41.54S269,877.7,269,877.7,266.6,881,254.6,886c-12.32,5.13-15,5-15,5l1.9,17.57-4.69,15.41-2,11.39Z" style="fill: #ed1c24;stroke: #000;stroke-miterlimit: 10;stroke-width: 3px"/>
      <path d="M234.6,935s24.32-1,35,.37,27.91,3.2,27.91,3.2" style="fill: none;stroke: #000;stroke-miterlimit: 10;stroke-width: 3px"/>
      <polyline points="236.81 923.93 279.02 923.93 297.79 931.3" style="fill: none;stroke: #000;stroke-miterlimit: 10;stroke-width: 3px"/>
      <path d="M241.5,908.52c4,.67,39.45,6.23,40.88,6.7C287.6,917,297.55,922,297.55,922" style="fill: none;stroke: #000;stroke-miterlimit: 10;stroke-width: 3px"/>
      <polyline points="254.6 885.95 287.07 901.82 297.38 910.5" style="fill: none;stroke: #000;stroke-miterlimit: 10;stroke-width: 3px"/>
      <line x1="286.61" y1="1003.33" x2="286.6" y2="951.45" style="fill: none;stroke: #000;stroke-miterlimit: 10;stroke-width: 3px"/>
      <line x1="286.4" y1="885.45" x2="286.4" y2="863.62" style="fill: none;stroke: #000;stroke-miterlimit: 10;stroke-width: 3px"/>
      <polygon points="327.94 927.95 313.87 949.39 311.86 990.26 356.75 979.54 348.71 949.39 327.94 927.95" style="fill: #ed1c24;stroke: #000;stroke-miterlimit: 10;stroke-width: 3px"/>
      <line x1="314.1" y1="948.95" x2="349.1" y2="949.39" style="fill: none;stroke: #000;stroke-miterlimit: 10;stroke-width: 3px"/>
      <path d="M313.6,959c3,0,38.06,1.51,38.06,1.51" style="fill: none;stroke: #000;stroke-miterlimit: 10;stroke-width: 3px"/>
      <path d="M312.6,982c5-1,42-9,42-9s-37-2-41-2" style="fill: none;stroke: #000;stroke-linejoin: round;stroke-width: 3px"/>
      <line x1="337.26" y1="992.02" x2="337.6" y2="924.45" style="fill: none;stroke: #000;stroke-miterlimit: 10;stroke-width: 3px"/>
      <path d="M118.21,995.63s-2,8,0,9.38a18.13,18.13,0,0,0,5.36,2h4.69Z"/>
      <path d="M139.65,1012.38l2.68,4.69h10v-2.68S145.68,1008.36,139.65,1012.38Z"/>
      <path d="M169.14,1019.08c-.17,1.49,13.4.67,13.4.67s0-4.69-5.36-4.69S169.81,1013.05,169.14,1019.08Z"/>
      <path d="M198,1018.41l12.06,1.34,1.34-4.69a17.85,17.85,0,0,0-9.38-1.34C196.61,1014.39,198,1018.41,198,1018.41Z"/>
      <path d="M226.09,1019.75h14.07l1.34-3.35s-8-1.34-10.05-1.34S222.74,1015.73,226.09,1019.75Z"/>
      <path d="M258.92,1019.75h10.72s2-4-5.36-4.69S258.92,1019.75,258.92,1019.75Z"/>
    </g>
  </g>  <g id="faceBody">
    <g>
      <path d="M694.5,672.85l-63-9s-44-26-52-51c-3.69-11.52-7.16-46-9.84-69-3.13-27-5.16-52-5.16-52s-19-47-23-60c-12-39,2-130,2-130s65,47,83,70c12.4,15.85,48,63,48,63l14,12,47-7,27,2,40,8s19-43.84,49-83c31.6-41.26,81.28-77.84,82-74,12,64-22,203-22,203v31l-3,19.7s3.55,56.61-3,66.3c-23,34-39,41-83,59-29.63,12.13-50,8-50,13s9,20,9,20l8,35,68-7,56-15,24-116,20-58s14-10,22-8-2,48-15,73c-10.24,19.7-18,80-18,80l-17,52-66,14-63,14,53,283,23,105s-107,2-194-4c-8.23-.56-44-41-39-51s26-357,31-362,22-50,22-50Z" style="fill: #fff;stroke: #000;stroke-miterlimit: 10;stroke-width: 3px"/>
      <path d="M767,1154.09s-4.5-20.24,7.5-22.24,26,0,26,0,13-4,16-1,7,2,12-1-37-237-37-237" style="fill: none;stroke: #000;stroke-miterlimit: 10;stroke-width: 3px"/>
      <path d="M642.56,1130.81s-29.09,18.86-17.12,23.92,23,.11,25-.88,12-.94,12,.06,16.5-.63,16.5-.63S657.61,1118.89,642.56,1130.81Z" style="fill: #fff;stroke: #000;stroke-miterlimit: 10;stroke-width: 3px"/>
      <path d="M870.31,1124.44s19,5.9,46.19,7.41c36,2,149-15.29,144-9-8,10-29,11-85,21s-103.79-13.38-103.79-13.38Z" style="fill: #fff;stroke: #000;stroke-miterlimit: 10;stroke-width: 3px"/>
      <path d="M674.5,752.85s-21,7-24,11-6,21-6,21-7,33-8,35-16,110-18,113-13,32-15,38-12,20-14,26-32,77-32,77,0,12,7,10,70-137,70-152,10-52,10-55,7-72,7-72l19-13" style="fill: #fff;stroke: #000;stroke-miterlimit: 10;stroke-width: 3px"/>
      <path d="M575.89,352.83a9.79,9.79,0,0,0-17.33,5.79c-1,21.52-1.57,50.52,1.44,60.73,3.43,11.65,15.77,36,23.2,50.13a9.78,9.78,0,0,0,14.68,3.18c6.06-4.76,14.67-10.63,24.12-14.31,8.52-3.31,22-5.73,33.79-7.36a9.78,9.78,0,0,0,4.62-17.46c-17.25-13.19-40.9-31.67-49.41-40.18C603.05,385.4,587.68,367.13,575.89,352.83Z" style="fill: #f50"/>
      <path d="M838.68,454a9.28,9.28,0,0,1-5.43-15c11-13.35,27.15-33.41,29.75-38.62,4-8,45-62,51-67s-2,54-9,73c-4.81,13.07-11,39.83-14.47,55.29A9.29,9.29,0,0,1,877.35,468c-6.84-3.38-15.5-7.48-21.35-9.61A126.78,126.78,0,0,0,838.68,454Z" style="fill: #f50"/>
    </g>
  </g>  <g id="bell">
    <path d="M690,713s27,14,46,13,46-18,46-18" style="fill: none;stroke: #ff4200;stroke-miterlimit: 10;stroke-width: 6px"/>
    <g>
      <path d="M755.82,741.14a32.18,32.18,0,1,0,16.35,28A32.06,32.06,0,0,0,755.82,741.14Z" style="fill: #ffd400;stroke: #000;stroke-miterlimit: 10;stroke-width: 3px"/>
      <circle cx="737.6" cy="769.66" r="30.25" style="fill: #f50"/>
      <circle cx="734" cy="764.61" r="31.33" style="fill: #ffd400;stroke: #000;stroke-miterlimit: 10;stroke-width: 3px"/>
      <path d="M731.83,732.92s-.72-5,3.61-5,3.6,5.76,3.6,5.76" style="fill: none;stroke: #000;stroke-miterlimit: 10;stroke-width: 2px"/>
      <polygon points="730.39 752.73 730.39 754.89 742.14 754.89 728.74 767.91 723.24 762.41 721.71 763.94 727.19 769.41 718.84 777.52 720.34 779.07 728.71 770.94 734.31 776.54 735.84 775.01 730.26 769.44 744.44 755.67 744.44 768.22 746.6 768.22 746.6 752.73 730.39 752.73" style="fill: #f50"/>
      <polygon points="729.67 750.57 729.67 752.73 741.42 752.73 728.01 765.75 722.52 760.25 720.99 761.78 726.47 767.25 718.12 775.36 719.62 776.91 727.99 768.78 733.59 774.38 735.12 772.85 729.54 767.28 743.72 753.5 743.72 766.05 745.88 766.05 745.88 750.57 729.67 750.57" style="fill: #020202"/>
    </g>
  </g>  <g id="nose">
    <path d="M726.57,548.26c-4.25,1.5-13,3-7,8s9.92,9.09,11.75,13.5c1.91,4.62,5.62,15.94,2.25,19.5-1.27,1.34-4.75,1.57-8.16,1.42a1.14,1.14,0,0,0-.44,2.21c3.64,1.36,7.75,2.69,10.35,2.87,4.14.3,12.79-2.28,17.6-3.84a.44.44,0,0,0-.17-.85c-4.76.32-12.87.49-15.18-1.81-3.65-3.62-1.33-15.35,1.75-20.5,2.24-3.75,11.25-10.5,13.25-12.5S746.26,541.31,726.57,548.26Z"/>
  </g>  <g id="eyes">
    <path d="M779.18,553.92s-4.45-14.73,14-23c29-13,77,0,89,6s26.12,17,26.12,17-38.12,25-74.12,20S780.18,559.92,779.18,553.92Z" style="fill: #03a3db;stroke: #000;stroke-miterlimit: 10"/>
    <path d="M568.51,544.49c2.44,4.67,67.67,16.43,80.67,15.43s35-10,34-15-19-27-57-27C614.14,517.92,557.84,524.05,568.51,544.49Z" style="fill: #03a3db;stroke: #000;stroke-miterlimit: 10"/>
    <path d="M817.18,548.92s-.72,25.31,5.14,25.66,5.86-25.66,5.86-25.66,1-25.35-5.51-19.18S817.18,548.92,817.18,548.92Z"/>
    <path d="M645.5,527.21s-4.32,14.09-3.32,18.62-3.36,15.83,3.32,16.51,15.68-2.94,12.68-8.37S657.82,519.44,645.5,527.21Z"/>
  </g>  <g id="luckyItem">
    <g>
      <path d="M511.24,746.19s5,.51,9,6,14.58,26.15,17.1,36.71,2.51,41.23,1.51,44.25-5,9-8.55,9-17.1-1-25.65,0-38.72,11.07-46.26,16.6-33.19,17.6-38.72,19.61-22.13,7.54-27.66,8A122.68,122.68,0,0,1,363.39,885c-11.56-2-36.21-7-40.23-7s-14.58,2-25.65,4.52-27.15,7-29.67,8.55-11.06,7-11.06,7S257,875.54,258,869s9.84-19.72,15.88-25.25a102.52,102.52,0,0,0,8.55-8.55,16.64,16.64,0,0,0-1.51-3c-.5-.51-6.54-1-11.06-5S256,819,249.74,805.53c-2.09-4.49-6-11.56-6-11.56s23.13-12.07,34.7-12.58S297.69,780,304,781c10.72,1.76,26.44,6.11,40,7,19.12,1.26,30,1.42,44-7,10-6,46.3-22.24,52.84-25.25s18.49-10,25.16-10.75C492,742,511.24,746.19,511.24,746.19Z" style="fill: #070707"/>
      <path d="M482,748l25.84,1s-2.89,0-4.4,4.52-2,37.22,3,54.32,18.11,32.68,18.11,32.68-14.08-1.51-23.64,0-17.6,3-17.6,3-15.59-2.51-20.12-6,6.29-7.8,10.31-13.83S479,814,477,807a40.25,40.25,0,0,0-3-7c-1-2,11.09-4,13.6-10.56S487,775,483,771c-2.07-2.07-4-3.48-5-7s2-5.1,3-8S483.51,748,482,748Z" style="fill: #f50"/>
      <path d="M367.67,793.21c13.57-1.51,24.14-6.54,48.27-21.12S461.2,749,471.76,749h8.05s-.5,6.54-2.51,9-2.52,4-1.51,8,7.54,8,8,11.06,4,8,1.51,11.57-12.07,7-13.07,9-.51,4,1.5,8-1,13.08-3.52,16.1-11.06,9-11.06,11.56.5,7.55,5.53,8,16.6,2.51,16.6,2.51-23.13,8.55-33.19,16.1-43.25,25.14-64.37,25.14-41.24-6.54-53.81-8.55-24.64,0-25.14,0-9.06-3-12.58-13.07,5-20.62,5-20.62l5-4s-4.52-5-6-8-3-13.58,1-19.11a71.22,71.22,0,0,1,5.54-7,64.49,64.49,0,0,1-3.53-6c-1.5-3-2-14.58-2-14.58s26.66,4.53,32.19,5.53,15.08,3,21.62,3.52A164.49,164.49,0,0,0,367.67,793.21Z" style="fill: #f2adbd"/>
      <path d="M301.79,877.19s-9.05.51-23.64,5.54-17.6,7-17.6,7,.51-24.14,6.54-33.7,18.1-20.62,18.1-20.62,2-4.52-5-6.53-18.61-10.56-23.64-17.6-10.06-16.1-10.06-16.1,16.09-7.54,23.64-9.05,14.08-3.52,17.1-3,8.54,1,8.54,1-2.76,8.3-1.76,12.32S298.52,807,298.52,807s-5.28,6.29-5.28,11.32-1.76,12.82.25,15.84a26.63,26.63,0,0,1,3,6.53s-4.28,4.78-5.28,8.3-3,7-1,14.59S301.79,877.19,301.79,877.19Z" style="fill: #00c8dd"/>
      <path d="M467,771.34s4.52,9,0,15.59-11.57,9.55-18.11,8-13.58-9.05-13.58-15.08,3-15.59,11.07-16.6,12.57,0,15.59,2A18.1,18.1,0,0,1,467,771.34Z" style="fill: #e4dbb5"/>
      <path d="M462,773.85s4,6,1.51,9-7,4.53-10.06,2.52-5-6-4-9a6.93,6.93,0,0,1,6.53-5C458.94,771.34,461,771.34,462,773.85Z" style="fill: #111b38"/>
      <path d="M420.35,769.48s-2.14,11.91-.13,15.94,8,7,9.55,8.55-1.51,8-3,10.56-2.52,6.53-1,10.05,8.05,7,9.55,9.06-2.51,12.57-1.5,16.09,1.5,9,7,12.07,11.31,5.62,11.31,5.62l-8,5.39s-10.37-5-13.39-9-5.53-12.07-4.53-18.61.51-7.54.51-7.54a18,18,0,0,1-10.06-13.58C415.19,804,420.22,799,420.22,799s-7-6-8.05-12.58a40.75,40.75,0,0,1,0-12.06Z" style="fill: #f8d4db"/>
      <path d="M291.63,861.31c.15,3,2.36,6.08,4.22,8.88s9.21,6.25,8.71,6.75,5.53-.5,10.41-1.09a50,50,0,0,1,11.21.35v-5.8c0-3,0-5.53,2.51-8.54s11.07-6,11.07-6l5,7c2.51,3.52,12.06,7,12.06,7s-2.51,2-3,3.52-2.15,7.89-2.15,7.89l5.16,1s-1-4.4,0-5.91,7-7.54,7-7.54,2,3.52,2.51,4.52,5.53,6,8,7,14.58,0,14.58,0l-.23,3.8h4.53a33.45,33.45,0,0,1,1.23-10.34c1.51-4.52,5-6.53,6-7.54s5.53-.5,5.53-.5.5,2,1,4.52,8,7.19,8,7.19l5.6-2.16-4.53-2.51c-4.52-2.52-5.53-7-7-10.06s6.54-17.6,6.54-17.6h5c3,0,6.27.11,6.27.11l-.84-4.64s-4.42,1.51-11.46,0-7.55-6-11.07-10.56-.5-8,2-13.07,10.79-6.63,10.79-6.63l.69-5.44a61.74,61.74,0,0,1-10.47,0c-5.53-.5-3.52-1.51-8.55-5s-3.15-15.88-3.15-15.88l-4.19,2.09.3,10.27a28,28,0,0,0-7,3.52,50.81,50.81,0,0,0-6,6.54s-6.54-.5-11.07-2.52-6.3-10.6-6.3-10.6l-7.85-.1s-12.5,6.18-16.52,9.2-4.53,11.06-5.54,9.55-3.52-8.55-4-12.57,2.52-9.56,2.52-9.56l-3.35-.88a41,41,0,0,0-3.19,7.42c-1,3.52.5,8.55.5,8.55s-7,3.52-15.08-2-6.75-18.17-6.75-18.17l-4.32-.94V796c0,5,4.53,9,4.53,9a61.41,61.41,0,0,0-6.85,16.05c-2.32,9,6.85,18.15,6.85,18.15a73,73,0,0,0-7.69,9.37C290.19,854,291.48,858.34,291.63,861.31ZM329.2,817.1s-9.06,3.52-11.07,6.54a25.29,25.29,0,0,0-3,7.54,41,41,0,0,0-1,5h-8.05s-8.55-9.05-8-14.08c0,0,1-7.55,2.51-9.56a37.23,37.23,0,0,1,5.53-5s3,3.52,9.56,3,8.55-1.51,8.55-1.51Zm36.71-9.05s-7.55,7-8.55,10.56-2,10.06-2,10.06l-5.54,2.51s-9.05-2-11.06-5.53-5-11.07-3-15.09,8-9.55,12.58-11.06,8.54-3,8.54-3,1.51,5,3,6.54S365.91,808.05,365.91,808.05ZM379,821.12c2,5,8.55,9,8.55,9s-5,5.54-5.53,7.55a22.18,22.18,0,0,0-.5,4.52s-12.07,2-15.59-2-7-10.56-5.54-16.59,9.06-13.08,9.06-13.08H378A21.62,21.62,0,0,0,379,821.12Zm21.12-3c-1,4.53-1.51,8-1.51,8s-4,1.51-7,1-9.55-7-10.05-11.57,2.51-9.55,6-12.07a19.12,19.12,0,0,1,5.53-3s1.51,4,4,5.54,9.55,3.52,9.55,3.52S401.11,813.58,400.1,818.1Zm-8.55,40.74c-5.53-3-5-7.54-6.53-15.09s13.07-13.58,13.07-13.58a28.1,28.1,0,0,0,5,8.05,45.76,45.76,0,0,0,8.55,6s-1.51,2.52-4,6-2.52,11.06-2.52,11.06S397.09,861.86,391.55,858.84Zm-25.64,2.51c.5-7,6.53-14.08,6.53-14.08l7.55-1.51s3,10.06,5,12.58,9.05,7.54,9.05,7.54a13.7,13.7,0,0,0-3.52,4.52,12.49,12.49,0,0,0-1.51,5S380,878,377,876.44,365.4,868.39,365.91,861.35Zm-21.12-17.6c2-4.52,12.06-9.55,12.06-9.55s2.52,6,4,7.54a39.93,39.93,0,0,0,6,4s-5,6-5,8.55v10.06s-9.05,1.51-13.07-3S342.77,848.28,344.79,843.75Zm-13.08,8.55s-7-2.51-9-6.54-4.53-10.56-3.52-14.58,4.52-6.54,6.54-7.54,6.53-1.51,6.53-1.51,3,6.54,5.54,9,7.54,3.52,7.54,3.52-3.52,6.54-4.53,9a38,38,0,0,0-1.51,7.55Zm-34.7-3c3-9,18.61-8,18.61-8s1.51,5,4.52,8,9.06,5.54,9.06,5.54-6,5.53-7,9a34.62,34.62,0,0,0-1,8,9.74,9.74,0,0,1-5.53,1.51c-3.52,0-10.56,0-15.59-5S294,858.34,297,849.28Z" style="fill: #f8d4db"/>
      <path d="M500.74,858.35s5-.35,9.94,4.42,18.78,23.32,23,33.3,9.44,40.22,9,43.36-3.43,9.78-6.9,10.37-17,1.89-25.28,4.33-36.3,17.43-42.8,24.16S439.47,1001.17,435,1005c-7,6-21.58,12.8-27,14a132.08,132.08,0,0,1-30,3c-11.74,0-36.45-2.73-40.42-2s-14,4.44-24.51,8.79-25.58,11.52-27.8,13.43-9.72,8.81-9.72,8.81-2-20.58-2.1-27.19,4.77-22.76,9.79-29.23a102.11,102.11,0,0,0,7-9.87,16.42,16.42,0,0,0-2-2.72c-.58-.41-6.62.11-11.76-3.09S258,969,253,961c-2.62-4.2-12-9-12-9s22.2-17.83,33-22c13.82-5.33,32-3,32-3s22.41,1,36,1c13,0,28.58-1.86,43-13s42-31.28,47.95-35.35S450.7,867.32,457,865C476,858,500.74,858.35,500.74,858.35Z" style="fill: #070707"/>
      <path d="M472,866l25.85-4.35s-2.84.49-3.57,5.2,4.3,37,12.14,53S529.78,949,529.78,949s-14.13.89-23.3,4A125.33,125.33,0,0,1,493,957s-19.15,2.12-24.2-.58,4.88-8.75,7.83-15.37,1.21-15.26-.2-17.57S473,920,474,918s9.36-6.17,10.74-13S482,891,477,888c-2.51-1.51-5.45-2-7-5.25s1.07-5.85,2-8.75S473.49,865.75,472,866Z" style="fill: #0037e8"/>
      <path d="M367.15,928.92c13.13-3.78,22.69-10.52,44-29s40.7-30.44,51.11-32.22l7.93-1.36s.61,6.53-1,9.35-1.8,4.39-.13,8.18,8.79,6.66,9.8,9.55,5.32,7.25,3.44,11.14-10.71,9-11.36,11.13.18,4,2.84,7.68,1.22,13.06-.75,16.45-9.38,10.79-9,13.27,1.77,7.35,6.81,7,16.79-.32,16.79-.32-21.36,12.33-30,21.46-38.39,32.08-59.21,35.64-41.74.52-54.48.66-24.28,4.15-24.78,4.24-9.43-1.45-14.6-10.77,1.48-21.17,1.48-21.17l4.28-4.81s-5.31-4.2-7.31-6.92-5.26-12.87-2.23-19a70.89,70.89,0,0,1,4.26-7.87,65.1,65.1,0,0,1-4.48-5.36c-2-2.72-4.45-14-4.45-14s27,0,32.66,0,15.38.43,21.91-.18S367.15,928.92,367.15,928.92Z" style="fill: #67d6e8"/>
      <path d="M316.39,1022.81s-8.84,2-22.36,9.44-16.16,9.91-16.16,9.91-3.58-23.88.76-34.31S293,984.47,293,984.47s1.22-4.8-6.06-5.59-20.12-7.27-26.26-13.36S248,951.35,248,951.35s14.59-10.15,21.77-12.91,13.28-5.84,16.34-5.86,8.6-.45,8.6-.45-1.33,8.65.34,12.44,6.24,9.65,6.24,9.65-4.14,7.08-3.29,12,.43,12.94,2.92,15.57a26.85,26.85,0,0,1,4.08,5.94s-3.41,5.43-3.81,9.07-1.79,7.44,1.47,14.54S316.39,1022.81,316.39,1022.81Z" style="fill: #008413"/>
      <path d="M461.36,890.6s6,8.16,2.63,15.37-9.79,11.37-16.49,11-14.91-6.63-15.93-12.58.35-15.87,8.11-18.22,12.39-2.12,15.7-.65A17.93,17.93,0,0,1,461.36,890.6Z" style="fill: #e4dbb5"/>
      <path d="M456.83,893.93s5,5.27,3,8.66-6.18,5.65-9.49,4.18-6-5.1-5.49-8.24a6.93,6.93,0,0,1,5.59-6.06C453.43,892,455.41,891.62,456.83,893.93Z" style="fill: #111b38"/>
      <g>
        <path d="M415.08,896.64s-.1,12.1,2.56,15.73,9.12,5.58,10.86,6.81-.13,8.19-1.2,10.92-1.37,6.87.71,10.09,9.12,5.58,10.95,7.31-.36,12.81,1.22,16.11,3,8.67,9,10.71,12.1,3.63,12.1,3.63l-6.95,6.66s-11.07-3.15-14.72-6.61-7.49-11-7.6-17.58-.78-7.52-.78-7.52A18,18,0,0,1,419,941.22c-3.18-9.66.93-15.47.93-15.47s-8-4.76-10.05-11a40.39,40.39,0,0,1-2-11.89Z" style="fill: #00a4ff"/>
        <path d="M303.7,1008.87c.65,2.91,3.35,5.59,5.65,8s10.14,4.61,9.72,5.19,5.37-1.43,10.08-2.84a50.19,50.19,0,0,1,11.11-1.54l-1-5.71c-.51-3-.94-5.46,1-8.86s9.89-7.81,9.89-7.81l6.14,6.09c3.08,3.05,13.09,4.9,13.09,4.9s-2.14,2.41-2.38,4-.79,8.14-.79,8.14l5.27.16s-1.74-4.18-1-5.83,5.67-8.63,5.67-8.63,2.57,3.14,3.24,4,6.47,5,9.12,5.58,14.37-2.46,14.37-2.46l.42,3.79,4.47-.77a33.44,33.44,0,0,1-.54-10.39c.72-4.72,3.85-7.3,4.68-8.46s5.36-1.43,5.36-1.43.84,1.9,1.76,4.29,9.07,5.74,9.07,5.74l5.16-3.07-4.88-1.71c-4.89-1.72-6.64-6-8.64-8.73s3.47-18.45,3.47-18.45l5-.85c3-.51,6.19-.95,6.19-.95l-1.6-4.43s-4.11,2.24-11.3,1.94-8.46-4.68-12.69-8.54-1.85-7.85-.22-13.23,9.51-8.36,9.51-8.36l-.24-5.47A62,62,0,0,1,407.56,934c-5.53.44-3.72-.89-9.27-3.51s-5.79-15.12-5.79-15.12l-3.77,2.76,2,10.08a28.15,28.15,0,0,0-6.34,4.65,51,51,0,0,0-4.85,7.47s-6.52.6-11.32-.62-8-9.39-8-9.39l-7.76,1.23s-11.28,8.2-14.74,11.85-2.59,11.67-3.84,10.35S329,945.91,327.82,942s.86-9.84.86-9.84l-3.45-.31a41.9,41.9,0,0,0-1.89,7.86c-.39,3.64,1.94,8.34,1.94,8.34s-6.34,4.65-15.21.56-9.71-16.77-9.71-16.77l-4.42-.2,2,11.9c.85,4.95,6,8.16,6,8.16a61.17,61.17,0,0,0-4,17c-.77,9.27,9.81,16.73,9.81,16.73a73.31,73.31,0,0,0-6,10.54C301,1001.87,303.05,1006,303.7,1008.87ZM333.27,959s-8.33,5-9.81,8.31a25.52,25.52,0,0,0-1.7,7.94,42.22,42.22,0,0,0-.14,5.13l-7.93,1.35s-9.95-7.48-10.31-12.52c0,0-.28-7.6.87-9.84a37.08,37.08,0,0,1,4.6-5.89s3.57,3,9.93,1.36,8.17-2.93,8.17-2.93Zm34.65-15.12s-6.24,8.21-6.64,11.85-.29,10.25-.29,10.25l-5,3.42s-9.26-.46-11.83-3.59-6.83-10.06-5.52-14.36,6.32-10.78,10.52-13,7.92-4.41,7.92-4.41,2.33,4.7,4.08,5.93S367.92,943.84,367.92,943.84ZM383,954.52c2.83,4.62,10,7.48,10,7.48s-4,6.3-4.18,8.37a21.66,21.66,0,0,0,.27,4.54s-11.56,4-15.71.65-8.72-9.22-8.25-15.42,6.72-14.42,6.72-14.42l8.42-1.44A21.58,21.58,0,0,0,383,954.52ZM403.33,948c-.23,4.63-.13,8.19-.13,8.19s-3.72,2.16-6.77,2.18-10.61-5.33-11.87-9.71.87-9.84,3.91-12.91a19.07,19.07,0,0,1,4.95-3.91s2.16,3.71,4.89,4.78,10,1.85,10,1.85S403.55,943.35,403.33,948Zm-1.56,41.59c-6-2-6.23-6.58-9-13.76s10.6-15.59,10.6-15.59a28.05,28.05,0,0,0,6.31,7.08,45.92,45.92,0,0,0,9.45,4.51s-1.06,2.73-2.95,6.62-.61,11.33-.61,11.33S407.73,991.62,401.77,989.57Zm-24.85,6.81c-.7-7,4.06-15,4.06-15l7.19-2.76s4.67,9.4,7.07,11.54,10.2,5.91,10.2,5.91a13.69,13.69,0,0,0-2.71,5,12.5,12.5,0,0,0-.64,5.22s-8.49,4-11.72,3S377.61,1003.4,376.92,996.38ZM353.13,982.6c1.22-4.8,10.28-11.46,10.28-11.46s3.5,5.53,5.24,6.76a40,40,0,0,0,6.63,2.94s-3.94,6.8-3.52,9.28l1.7,9.91s-8.67,3-13.4-.76S351.91,987.4,353.13,982.6Zm-11.45,10.63s-7.36-1.29-10-4.92-6.24-9.64-5.93-13.78,3.36-7.21,5.17-8.54,6.19-2.59,6.19-2.59,4.08,5.94,7,8,8,2.2,8,2.2-2.37,7-2.94,9.68A37.84,37.84,0,0,0,349,991ZM307,996.11c1.45-9.43,17-11.07,17-11.07s2.33,4.7,5.81,7.17,9.86,3.92,9.86,3.92-5,6.47-5.41,10.11a34.8,34.8,0,0,0,.36,8.1,9.67,9.67,0,0,1-5.19,2.42c-3.47.6-10.41,1.78-16.22-2.33S305.53,1005.54,307,996.11Z" style="fill: #00a4ff"/>
      </g>
      <path d="M579,747l-23,369s-3,10-11.57,6.85c-3.89-1.43-1.51-26.15-1.51-26.15l23.64-350.51a13,13,0,0,1,3.52-3.52C577,739,579,747,579,747Z" style="fill: #008413"/>
      <path d="M514.76,749.21s20.11,15.59,28.16,20.12,24.64,11.56,23.64,13.07S553.48,805,551,810.06s-15.2,28.11-15.2,28.11l-.63-1.79S552.48,804,554.49,801s11.06-18.61,11.06-18.61-22.63-12.07-23.63-12.57-21.13-13.58-21.63-13.58-3.81-4.16-3.81-4.16Z" style="fill: #070707"/>
      <path d="M560.89,863.94s-27-.58-32-1.08-16.09-3-18.61-3.52-9.55-1-9.55-1l4,3a105.89,105.89,0,0,1,11.07.51c3,.5,17.09,4.52,25.14,4s17.75-.85,17.75-.85-9.2,47.11-11.21,52.14-7.3,20.76-7.92,23.46a18.46,18.46,0,0,0,0,6.22,8.24,8.24,0,0,0,1.6-2.78c.28-1.25,7.83-26.9,7.83-26.9s4-15.59,4.52-19.11S558,872.42,559,871.91,560.76,864,560.89,863.94Z" style="fill: #070707"/>
      <path d="M506.25,861s17.21,16.95,23.93,36.72,15.63,48.09,6.44,50.17-25.69-24.68-31.15-42.63S490.29,858.35,506.25,861Z" style="fill: #fffdfd"/>
      <path d="M516.6,749.71s13.86,19.62,17.09,40.23,7.16,50-2.08,50.54-20.78-28.66-23.09-47.27S501.59,744.43,516.6,749.71Z" style="fill: #fff"/>
    </g>
    <path d="M529.75,1091.82s-4,14.72,4.35,17.83,51.25-29.83,58.48-44.94-13.3-15.3-26.86-1.15S537.29,1077.92,529.75,1091.82Z" style="fill: #fff;stroke: #000;stroke-miterlimit: 10;stroke-width: 3px"/>
  </g><g id="luckyCaption">
    <text transform="translate(561.31 1272.52)" style="font-size: 64.3827896118164px;font-family: HiraMaruProN-W4-83pv-RKSJ-H, Hiragino Maru Gothic ProN"><tspan style="letter-spacing: -0.03599058496540004em"></tspan><tspan x="62.07" y="0" style="letter-spacing: -0.04900361568613886em"></tspan><tspan x="123.29" y="0" style="letter-spacing: -0.017987709131464157em"></tspan><tspan x="186.52" y="0" style="letter-spacing: -0.020004880560203397em"></tspan><tspan x="249.61" y="0"></tspan></text>
  </g>  <g id="weather">
    <g>
      <path d="M1253.65,175l3.57,20.87c2.36,13.83,20.77,17.08,27.72,4.89l10.49-18.39-3.78,20.83c-2.51,13.81,13.67,23.15,24.38,14.07l16.14-13.69-10.67,18.28c-7.08,12.12,4.93,26.43,18.09,21.57l19.85-7.34-16.28,13.52c-10.8,9-4.41,26.52,9.63,26.45L1374,276,1354,283.11c-13.22,4.73-13.22,23.42,0,28.15L1374,318.4l-21.16-.11c-14-.07-20.43,17.49-9.63,26.45l16.28,13.53-19.85-7.35c-13.16-4.86-25.17,9.45-18.09,21.57l10.67,18.28L1316,377.08c-10.71-9.08-26.89.26-24.38,14.07l3.78,20.83-10.49-18.39c-7-12.19-25.36-8.94-27.72,4.89l-3.57,20.87-3.57-20.87c-2.37-13.83-20.77-17.08-27.72-4.89L1211.87,412l3.78-20.83c2.51-13.81-13.67-23.15-24.38-14.07l-16.14,13.69,10.67-18.28c7.08-12.12-4.93-26.43-18.09-21.57l-19.86,7.35,16.29-13.53c10.8-9,4.41-26.52-9.63-26.45l-21.17.11,19.93-7.14c13.21-4.73,13.21-23.42,0-28.15L1133.34,276l21.17.11c14,.07,20.43-17.49,9.63-26.45l-16.29-13.52,19.86,7.34c13.16,4.86,25.17-9.45,18.09-21.57l-10.67-18.28,16.14,13.69c10.71,9.08,26.89-.26,24.38-14.07l-3.78-20.83,10.49,18.39c7,12.19,25.35,8.94,27.72-4.89Z" style="fill: #ff5d00"/>
      <circle cx="1253.49" cy="297.35" r="73.98" style="fill: #ffc400"/>
    </g>
  </g>
<g id="generation">
  <text transform="translate(38.41 1285.15)" style="font-size: 65.69450378417969px;font-family: HiraKakuStd-W8-83pv-RKSJ-H, Hiragino Kaku Gothic Std"></text>
  <text transform="translate(200 1290)" style="font-size: 90px;font-family: MyriadPro-Regular, Myriad Pro">8</text>
</g>  <g id="_5element" data-name="5element">
    <path d="M1321.65,1148.9S1197.76,1262.79,1214.28,1357c15,85.86,75.41,94.7,116.37,94.88,57.41.26,94-63.61,95-129,1-64-22-117-22-117s-27.5,23.74-48,14S1321.65,1148.9,1321.65,1148.9Z" style="fill: #ed1c24;opacity: 0.5"/>
    <g>
      <path d="M1281.53,1281.9c-.08.56-.64,1-1.68,1.2-1.77,15.54-5.13,29.71-24.18,37a15.79,15.79,0,0,0-3.37-4.32c17.62-6.32,20.66-19.22,21.94-34.51Zm20.81,29.15c0,2.72.64,3.36,3.93,3.36h11.12c3.45,0,4-2.24,4.41-14.89a14.62,14.62,0,0,0,4.88,2.4c-.56,13.77-2.08,17.45-8.89,17.45h-12.08c-6.89,0-8.81-1.76-8.81-8.32v-30.83h-43.56v-5.28h71.5v5.28h-22.1l-.4.08ZM1318,1251.4v5.2h-57.49v-5.2Z" style="fill: #fff"/>
      <path d="M1403.7,1259.09h-53.8c-3.69,7.28-8.33,13.77-13.37,18.33a33.07,33.07,0,0,0-4.49-3.28c7.45-6.25,13.77-17.14,17.38-28.67l6.8,1.85c-.16.56-.8.88-1.76.88-.72,2.08-1.52,4.16-2.32,6.16h51.56Zm-58,28.18c5.13,2.8,10.65,6.24,15.94,9.85a68.3,68.3,0,0,0,9.84-13.29l6.25,2.4c-.24.64-1.12.8-1.92.72a72.15,72.15,0,0,1-9.93,13.21,103.29,103.29,0,0,1,15,12.73l-4.32,4.08a102.41,102.41,0,0,0-14.49-13,95.56,95.56,0,0,1-24.26,16.49,25.19,25.19,0,0,0-3.77-4,84.26,84.26,0,0,0,23.78-15.61,175.45,175.45,0,0,0-15.93-10.09Zm-6.16-9.77h52.76c.08,21.38,1.28,37.23,7.69,37.23,1.68,0,2.08-4.64,2.24-11.69a18.8,18.8,0,0,0,3.84,3.12c-.56,10.25-1.68,13.85-6.4,13.85-10.57,0-12.33-15.13-12.82-37.79h-47.31Zm56.28-7h-47v-4.64h47Z" style="fill: #fff"/>
    </g>
  </g>
<g id="manekiPower">
  <text transform="translate(205.81 1456.78)" style="font-size: 121.63294982910156px;fill: #070707;font-family: MyriadPro-Regular, Myriad Pro">461,842</text>
  <ellipse cx="82.99" cy="1415.19" rx="49.5" ry="49.5"/>
  <polygon points="82.92 1378.7 99.5 1378.7 81.54 1414.62 99.5 1414.62 68.55 1454.33 83.19 1421.63 67.58 1422.06 82.92 1378.7" style="fill: #fff"/>
  <text text-anchor="middle" transform="translate(1332 1425.38)" style="font-size: 104.09490966796875px;font-family: MyriadPro-Regular, Myriad Pro">9</text>
</g><g id="tokenID">\
<text text-anchor="end" transform="translate(1400 130)" style="font-size: 100px;font-family: MyriadPro-Regular, Myriad Pro">40</text>
</g>  <g id="logo">
    <path d="M412.51,140.41l-34.29.33-.26-2-.63-.18a104.29,104.29,0,0,1-14.72-5.72l-6.77,1.86c-.39.11-1,.25-3.32.81-3.36.81-9,2.16-15.29,3.74l-10.12,2.54s-3.56-10.09-3.59-10.19c-8.45,2.14-19,3.94-27.51,3.94-6.05,0-10.75-.93-14.39-2.84-1.07-.56-2.33-1.25-3.68-2.09l-.9,4-36.89-4.45.16-1-28.76,8.94-2.28-3.49-17.92,10.06-3.65-7.14a56.94,56.94,0,0,1-17,2.6,34,34,0,0,1-16-3.76l-1,5.35-42.15-7L113,123c.36-3.14.68-8.21,1-15.11l-14.18.69c1,5.49,2.33,12,4,19.37l2.89,12.81-41.83,7.75L61.46,138c-1.72-5.28-3.28-13.16-4.79-24.07a213.34,213.34,0,0,1-2.21-27.48c0-12,1.43-21.08,4.36-27.81C64.76,45,75.72,43.57,80.15,43.57c6.68,0,13.58,3.14,21.71,9.88l.28.23L105.65,57l1.86-1.85C115,47.55,121.65,44,128.5,44a26.65,26.65,0,0,1,23.1,12.34l.16-1.75,10.41-.14h1.68c30.77,0,40.88,4.13,45.53,8.57L225.26,63c1.22-.41,2.52-.8,3.86-1.16a65.15,65.15,0,0,1,13.67-2.24c.91-.05,1.81-.07,2.68-.07,10.49,0,19.06,3.24,25.49,9.63q.6.6,1.17,1.23A43.53,43.53,0,0,1,288.77,61a47.66,47.66,0,0,1,14.08-2.21,43.39,43.39,0,0,1,13,2,39.18,39.18,0,0,1,4.72,1.84c.16-1.15.34-2.36.53-3.62l1.79-12.14,41.85,8.73-2.84,11.7c-.2.83-.39,1.64-.58,2.44,5.07-2,9.61-3.7,13.55-4.93l4.28-15.3,10.47,2.16c2.91.6,25,6.41,33.22,8.48l-1.53,21.43,13.1,2.19c5.27.87,9.86-3.72,9.86-3.72.29-.83,1.27-16.34,1.6-17.1,5.78-13.26,16.46-14.7,20.78-14.7,6.5,0,13.2,3,21.09,9.59L488,58l3.25,3c.59-.58,1.15-1.13,1.66-1.66,7.26-7.32,13.74-10.73,20.41-10.73,12.26,0,21.77,7.08,26.09,19.42a41.63,41.63,0,0,1,1.43,5,45.4,45.4,0,0,1,5-1.87A46,46,0,0,1,559.48,69,42,42,0,0,1,572.09,71a35,35,0,0,1,9.77,4.8l1-.76c8.11-6,18.49-9.1,30.88-9.1,10.36,0,19.45,2.39,27.07,7.12.84-1.54,1.75-3.08,2.71-4.62l5-8L685,75.07l30.1-15.29,5.54,8.45a108.18,108.18,0,0,1,8.83,15.55,48.93,48.93,0,0,1,4.48,19.9c0,10.81-2.82,19.88-8.39,26.95-6.51,8.33-16.15,12.74-27.86,12.74a37.7,37.7,0,0,1-16-3.38,35.11,35.11,0,0,1-14.48,3c-8.78,0-16.16-2.45-22-7.3l-.55.46c-8.13,6.62-18.24,10-30.08,10s-21.81-2.61-29.85-7.78c-8.42,2.55-21.74,5.24-31.78,5.24-5.87,0-10.45-.91-14-2.77-.15-.07-.29-.15-.43-.23l-.55,2.89-41.08-6.78,1.33-11.7c.34-3,.65-7.81.93-14.36l-13.24.65c.95,5.25,2.23,11.42,3.82,18.47l2.84,12.57-40.76,7.55-2.65-8.15L432,144.3ZM236.19,100.59a94.65,94.65,0,0,0,4.44,15.5l1.3,3.34.2-1.19a83.12,83.12,0,0,0,.94-17.53c0-.93-.11-1.69-.19-2.3A17.16,17.16,0,0,0,236.19,100.59ZM608.66,106a12.36,12.36,0,0,0,4.86.84,11.57,11.57,0,0,0,4.67-.76,13.87,13.87,0,0,0-5.55-.92A7.61,7.61,0,0,0,608.66,106ZM679,88.07A42.34,42.34,0,0,0,674.9,95l14.64-.81c-.87-1.25-2-2.84-3.44-4.86l-4-5.54Z" style="fill: #0702b0"/>
    <path d="M401.41,92.58s16.63,9.5,28.33,8.82,28.32-12.21,28.32-12.21" style="fill: none;stroke: #ff2000;stroke-miterlimit: 10;stroke-width: 6px"/>
    <path d="M383.35,129.21c-.61-4.59-.66-12.3-.16-23.56a241,241,0,0,1,2.07-24.37l.05-.32-7.94-1.76L384,55.66l5.29,1.08c3.39.69,10.4,2.39,21.41,5.17l5.75,1.46L412.13,79.1l1.33.17-.92,5.88c-1.61,10.22-2.41,24.74-2.38,43.15v5.76L384,134.3Z" style="fill: #0702b0"/>
    <path d="M409.29,67.54l-3.31,12-21.35-4.71,3.51-12.43Q393,63.44,409.29,67.54Zm-4.94,60.77-15.24.14q-.84-6.31-.12-22.54a236.41,236.41,0,0,1,2-23.73l15.8,2.07Q404.31,100.1,404.35,128.31Z" style="fill: url(#Sky_2)"/>
    <path d="M387.08,113.63l-5.81,13.23a98.76,98.76,0,0,1-15.54-6.21q-7.51-3.7-14.93-7.52.6,3.3,2.5,9.82c-.73.2-8.85,2.09-18.54,4.49-4.14-11.62-5-24.44-5-36.66,0-9.56,1.16-18,3-30.67l18.42,3.81Q346.69,82.35,347,89.58q4-3.42,16.64-8.62a163.15,163.15,0,0,1,17.54-6.32L387,88l-14.83,4.61q-11.13,4-14.24,8,3.81,2.7,13.94,7.12A152.18,152.18,0,0,0,387.08,113.63Z" style="fill: url(#Sky_2-2)"/>
    <path d="M296,129.19c-5.15,0-9-.71-11.84-2.18-7.06-3.68-14.77-9.06-18.47-21.09-2.73-8.87-1.22-17.44,4.5-25.49a37.72,37.72,0,0,1,20.21-14.5,42.69,42.69,0,0,1,12.5-2,38.5,38.5,0,0,1,11.41,1.73c9.31,2.94,15.61,9,18.26,17.65,1.7,5.54,1.44,10.63-.79,15.12l-.07.14a18,18,0,0,1-2.68,3.77l4,19.93-5,1.54C319.64,126.43,306.06,129.19,296,129.19Z" style="fill: #0702b0"/>
    <path d="M327,85.07q1.89,6.14-.45,10.83t-8.68,6.55q-7.75,2.39-30.29,3.13c7.43,7.08,27.22,1.48,35.91-1.19l2.81,13.92c-10.35,3.19-32.14,7.37-39.48,3.55-6.85-3.57-12.63-8-15.6-17.64q-3.27-10.64,3.68-20.43a31.94,31.94,0,0,1,17.19-12.31,34.07,34.07,0,0,1,20.49-.22Q323.83,74.82,327,85.07Zm-14.67,3.46c-.67-2.17-2.64-3.48-5.93-3.94a19.87,19.87,0,0,0-18.55,8.22q20.1-1.14,23.45-2.18c.7-.21,1.12-.45,1.25-.7S312.55,89.3,312.31,88.53Z" style="fill: url(#Sky_2-3)"/>
    <path d="M210.76,127.16c-3.32-5-5.95-12-8-21.34a126.14,126.14,0,0,1-3.08-21.49c-.1-2-.06-5.4.1-10.43l.19-5.6,25.58-.08c1.36-.49,2.81-.94,4.38-1.35a60.11,60.11,0,0,1,12.62-2.06c10.13-.51,18.23,2.15,24.06,7.9s8.83,13.49,9.33,23.43a98.92,98.92,0,0,1-2.49,26.46l-1.14,5.12-26-3.11,1-6a87.67,87.67,0,0,0,1-18.78C248.05,94.4,247,93,247,93l-.09-.13c-.46-.64-2.07-1-4.2-.86-4.57.23-9,2-13.55,5.25a105.08,105.08,0,0,0,5.5,20.41l2.3,5.83-23.8,7.33Z" style="fill: #0702b0"/>
    <path d="M270.12,96.43a92.78,92.78,0,0,1-2.35,24.91L253,119.57a92.78,92.78,0,0,0,1.1-20q-.36-7.31-2.52-10.11-2.58-3.57-9.19-3.25-10,.51-19.54,8.62a114.62,114.62,0,0,0,6.38,25L215.61,124q-4.35-6.61-7.2-19.41A119.62,119.62,0,0,1,205.46,84q-.14-2.7.11-9.94l15,0,.16,3.3q3.57-3,10.7-4.85a54.1,54.1,0,0,1,11.45-1.88q12.71-.64,19.68,6.23T270.12,96.43Z" style="fill: url(#linear-gradient)"/>
    <path d="M189.47,129.88a52.37,52.37,0,0,1-20,4,28.22,28.22,0,0,1-19.68-7.51,25.59,25.59,0,0,1-8.41-19.49c0-10.12,3.77-18.18,11.21-24l1.11-.82,1.94-22.27,5.25-.07h1.62c36.34,0,41.22,5.95,42.83,7.9,5.2,6.33,4.3,23.63,3.64,31.08v9.06c0,3.19,1.11,6.91,3.3,11l2.67,5-22.26,12.38Z" style="fill: #0702b0"/>
    <path d="M207.19,121.52l-12,6.7-3.08-6A47.41,47.41,0,0,1,169.51,128a22.48,22.48,0,0,1-15.76-6,19.88,19.88,0,0,1-6.52-15.21q0-12.4,9-19.38c5.43-4.23,12.49-5.64,21.1-6.34A27.26,27.26,0,0,1,192,83.89l.12,14.43c-3.8-1.75-11-3.7-14.79-3.7q-6.88,0-11.23,2.9a11.19,11.19,0,0,0-5,9.78,6.43,6.43,0,0,0,2.35,5,7.67,7.67,0,0,0,5.35,2.18q10,0,15.76-4.71t6.07-13.41s2.18-13.25-.23-16.65C186,73.52,160,77.59,160,77.59l1-12.07s34.77-.45,39.88,5.78c4.32,5.26,2.32,27.12,2.32,27.12v9.33Q203.21,114,207.19,121.52Z" style="fill: url(#Sky_2-4)"/>
    <path d="M64.72,135.63c-1.62-4.95-3.13-12.5-4.6-23.06a205.33,205.33,0,0,1-2.18-26.68c0-11.16,1.28-19.49,3.91-25.47C66.31,50.31,73.92,48.8,78.07,48.8c5.33,0,11.12,2.72,18.23,8.56l.15.12,7.44,6.86c2.27-2.15,4.25-4.07,5.9-5.72,6.38-6.38,11.81-9.36,17.08-9.36,10.26,0,17.94,5.72,21.61,16.11,2,5.52,3,13,3,22.74,0,18.22-.8,31.31-2.46,40l-1.23,6.49-31.51-5.15L117,123c.52-4.56,1-12.88,1.36-24.73,0-.25,0-.5,0-.75l-2.53,3.72-21.33,1-2.17-2.68c-.69-.87-1.34-1.65-2-2.36.65,5.89,2.28,15.54,5.88,31.35l1.58,6.9-31.28,5.74Z" style="fill: #0702b0"/>
    <path d="M149.89,87.53q0,26.44-2.34,38.73l-18.61-3q.81-7.14,1.4-25.28.58-19.18-.11-19.19-2.46,0-12.88,15.33l-14.51.7q-9.24-11.46-13-11.46-1.41,0-1.41,7.6,0,10.42,6.44,38.62l-18.49,3.39q-2.22-6.78-4.33-21.88A197.86,197.86,0,0,1,70,85.3Q70,55,83.29,55q5.38,0,13.93,7l11.94,11q6.56-6.09,10.65-10.18,7.38-7.38,12.29-7.38,11.11,0,15.21,11.59Q149.89,74.19,149.89,87.53Z" style="fill: url(#Sky_2-5)"/>
    <path d="M701.4,137a31.56,31.56,0,0,1-16.16-4.09,29.57,29.57,0,0,1-14.66,3.76c-10,0-17.7-3.59-23-10.67l0,0C643.21,120,641,112.34,641,103.1c0-10.2,3.57-21,10.63-32.15L654.14,67l28,11.18L677.86,84a50.08,50.08,0,0,0-5.78,10.26,27.58,27.58,0,0,0-2.44,10,7.76,7.76,0,0,0,.94,4.05l.06.09.06.1a2.61,2.61,0,0,0,.44.62,1,1,0,0,0,.09-.15,6,6,0,0,0,.72-3.15v-5.31l23.65-1.3,1.42,3.91c1.27,3.48,2.86,5.74,4.05,5.74.23,0,.72,0,1.59-1.1a4.4,4.4,0,0,0,1.11-2.94,19.81,19.81,0,0,0-2.52-9.73c-.27-.47-1.5-2.46-6.83-9.82L690.56,80,717,66.7l2.75,4.15a101.62,101.62,0,0,1,8.43,14.68,42.73,42.73,0,0,1,4,17.57c0,9.47-2.42,17.32-7.2,23.34C719.45,133.43,711.52,137,701.4,137Z" style="fill: #0702b0"/>
    <path d="M726.57,103.1q0,12.32-6,19.85-6.65,8.43-19.18,8.42-9.54,0-16.08-5.21A24,24,0,0,1,670.58,131q-12.21,0-18.52-8.42-5.43-7.43-5.43-19.52,0-13.74,9.75-29.15l17,6.76a54.66,54.66,0,0,0-6.43,11.42A32.59,32.59,0,0,0,664,104.32a13,13,0,0,0,1.78,7,6.13,6.13,0,0,0,5.54,3.55A5.32,5.32,0,0,0,676,112a11.53,11.53,0,0,0,1.55-6.09l14.19-.78q3.43,9.42,9.32,9.42a7.48,7.48,0,0,0,6-3.21,10,10,0,0,0,2.33-6.43,25.55,25.55,0,0,0-3.21-12.42q-1.11-2-7.21-10.42L715,74a98.39,98.39,0,0,1,8,13.85A37.22,37.22,0,0,1,726.57,103.1Z" style="fill: url(#New_Gradient_Swatch_2)"/>
    <path d="M455.32,137.28c-1.57-4.78-3-12.06-4.45-22.26a199.7,199.7,0,0,1-2.09-25.77c0-10.77,1.23-18.81,3.77-24.58,4.3-9.77,11.66-11.23,15.66-11.23,5.14,0,10.74,2.63,17.6,8.27l.15.12,7.18,6.62c2.2-2.08,4.1-3.93,5.7-5.52,6.16-6.17,11.4-9,16.49-9,9.91,0,17.32,5.53,20.87,15.55,1.92,5.33,2.86,12.53,2.86,22,0,17.6-.78,30.23-2.38,38.63l-1.19,6.26-30.42-5,.71-6.2c.5-4.4.94-12.43,1.31-23.87l0-.73-2.45,3.59-20.6,1L482,102.52c-.67-.84-1.3-1.6-1.88-2.29.63,5.69,2.19,15,5.68,30.28l1.52,6.66-30.2,5.55Z" style="fill: #0702b0"/>
    <path d="M532.51,91.4q0,25.55-2.26,37.4l-18-2.93q.79-6.9,1.36-24.41.55-18.54-.12-18.53-2.37,0-12.43,14.8l-14,.68q-8.93-11.07-12.54-11.08-1.37,0-1.36,7.35,0,10,6.22,37.29l-17.86,3.28q-2.15-6.56-4.18-21.14a191.24,191.24,0,0,1-2-24.86Q455.32,60,468.21,60q5.19,0,13.45,6.78l11.52,10.62q6.33-5.88,10.29-9.83,7.11-7.12,11.86-7.12,10.74,0,14.69,11.19Q532.51,78.52,532.51,91.4Z" style="fill: url(#New_Gradient_Swatch_2-2)"/>
    <path d="M617.45,139.79c-11.06,0-20.34-2.44-27.61-7.26-9.1-6.13-13.7-15-13.7-26.51S580.45,85.37,589,79.11c7.16-5.29,16.49-8,27.72-8,10.56,0,19.58,2.68,26.81,8l0,0c8.41,6.26,12.68,15,12.68,25.89s-4.06,19.6-12.06,26.09C637,136.87,628,139.79,617.45,139.79Zm-1.89-41a12.62,12.62,0,0,0-7.59,2,5.57,5.57,0,0,0-2.55,5.09c0,1.64.45,3,2.61,4.22a16.81,16.81,0,0,0,8.42,1.92,15.67,15.67,0,0,0,8.34-1.92,5,5,0,0,0,2.79-4.78c0-1.52-.36-3.14-3-4.65A18.44,18.44,0,0,0,615.56,98.77Z" style="fill: #0702b0"/>
    <path d="M650.6,105q0,13.64-10,21.73-9.21,7.42-23.17,7.43-15,0-24.51-6.32-11.19-7.55-11.2-21.84,0-14.64,10.54-22.4,9.32-6.87,24.39-6.87,14.08,0,23.51,6.87Q650.59,91.39,650.6,105Zm-17.41.33q0-6.21-5.88-9.53a23.82,23.82,0,0,0-11.75-2.66,18.13,18.13,0,0,0-10.86,3.1,11.11,11.11,0,0,0-4.88,9.65,9.9,9.9,0,0,0,5.43,9.09,22.26,22.26,0,0,0,11.2,2.66q6.87,0,11.31-2.77A10.57,10.57,0,0,0,633.19,105.35Z" style="fill: url(#New_Gradient_Swatch_2-3)"/>
    <path d="M555.23,137.24c-5,0-8.71-.69-11.43-2.11-6.81-3.55-14.25-8.74-17.83-20.36-2.63-8.57-1.17-16.85,4.34-24.62a36.53,36.53,0,0,1,19.52-14,41,41,0,0,1,12.07-1.88,37.23,37.23,0,0,1,11,1.67c9,2.84,15.07,8.73,17.63,17,1.64,5.34,1.38,10.25-.77,14.59l-.07.14a17,17,0,0,1-2.58,3.64L591,130.6l-4.86,1.49C578.11,134.57,565,137.24,555.23,137.24Z" style="fill: #0702b0"/>
    <path d="M585.19,94.63q1.81,5.93-.43,10.46t-8.38,6.33q-7.5,2.31-29.25,3c7.17,6.84,26.28,1.43,34.67-1.15l2.71,13.44c-10,3.08-31,7.12-38.12,3.43-6.61-3.45-12.19-7.73-15.06-17q-3.15-10.26,3.55-19.72a30.88,30.88,0,0,1,16.6-11.89,32.92,32.92,0,0,1,19.78-.21Q582.14,84.74,585.19,94.63ZM571,98q-1-3.15-5.73-3.81a19.19,19.19,0,0,0-17.91,7.94Q566.79,101,570,100a2.1,2.1,0,0,0,1.21-.68A2.7,2.7,0,0,0,571,98Z" style="fill: url(#New_Gradient_Swatch_2-4)"/>
    <g>
      <g>
        <g>
          <g>
            <path d="M475.38,131.52c-1.25-1.47-4.4-2.48-9.09-2.73a39.8,39.8,0,0,0-73.23,28.47c-6.79,6.28-10.55,12.31-7.68,15.68,2.53,3,11.43,2.58,16.53,2.08a39.79,39.79,0,0,0,69.43-32C474.54,140.68,479.31,136.14,475.38,131.52Z" style="fill: #ffd404"/>
            <path d="M428.46,192.46A43.35,43.35,0,0,1,400.35,179c-14,1.05-16.89-2.41-17.89-3.58-2.81-3.31-3.85-9.34,6.46-19.5a43.23,43.23,0,0,1-.41-10.48,43.62,43.62,0,0,1,80-20.31c4.71.5,8,1.81,9.78,3.91a9.28,9.28,0,0,1,2.32,7.22c-.42,3.44-2.79,6.3-5.21,8.39a43,43,0,0,1,.07,7.86A43.67,43.67,0,0,1,428.46,192.46ZM403.51,171l1.29,1.5a36,36,0,0,0,63.06-20.63,36.46,36.46,0,0,0-.3-8.34l-.35-2.31,1.9-1.37c2.72-2,3.8-3.63,3.91-4.54,0-.17.08-.58-.54-1.31-.35-.32-2.15-1.18-6.4-1.41L464,132.5l-1-1.77a36,36,0,0,0-66.18,25.73l.78.47-1.77,2.93c-7.38,6.83-7.75,10.34-7.53,10.6.55.49,4.06,1.65,13.24.75Z" style="fill: #0000b2"/>
          </g>
          <path d="M394.17,161.26l-3.3-6.44c.48-.52,11.85-12.95,33.08-20.73a170.54,170.54,0,0,1,41.71-9.21l.55,7.63a128.59,128.59,0,0,0-39.5,7.24C407.36,146.84,394.27,161.15,394.17,161.26Z" style="fill: #0000b2"/>
        </g>
        <g>
          <path d="M430,165.64a42.83,42.83,0,0,0,4.38,9.32,10.72,10.72,0,1,0-6.37,1.33,48.44,48.44,0,0,1-3.85-8.84Z" style="fill: #0000b2"/>
          <path d="M447.69,181.81l.12-.1s-2.21,1.62-7.58-.91c-2.22-1.05-4.19-3.32-5.81-5.84a10.61,10.61,0,0,1-6.15,1.36l-.22,0c2.22,3.92,5.38,8.07,9.57,10a19.68,19.68,0,0,0,6.85,2c4.73.39,7.15-1.78,7.5-2.12Z" style="fill: #0000b2"/>
          <path d="M434.42,175a42.83,42.83,0,0,1-4.38-9.32l-5.84,1.81a48.44,48.44,0,0,0,3.85,8.84l.22,0A10.61,10.61,0,0,0,434.42,175Z" style="fill: #0000b2"/>
        </g>
      </g>
      <circle cx="423.61" cy="103.73" r="6.89" style="fill: #0000b2"/>
    </g>
  </g>
  <defs>
    <linearGradient id="Sky_2" data-name="Sky 2" x1="406.87" y1="58.34" x2="378.85" y2="155.96" gradientUnits="userSpaceOnUse">
      <stop offset="0" stop-color="#c6e0f5"/>
      <stop offset="0.06" stop-color="#bdddf4"/>
      <stop offset="0.15" stop-color="#a3d4f1"/>
      <stop offset="0.28" stop-color="#7ac7eb"/>
      <stop offset="0.42" stop-color="#40b3e4"/>
      <stop offset="0.57" stop-color="#009edc"/>
      <stop offset="0.87" stop-color="#0077c3"/>
      <stop offset="0.99" stop-color="#005d9b"/>
    </linearGradient>
    <linearGradient id="Sky_2-2" x1="361.62" y1="50.01" x2="354.97" y2="154.01" xlink:href="#Sky_2"/>
    <linearGradient id="Sky_2-3" x1="316.67" y1="61.44" x2="282.63" y2="143.26" xlink:href="#Sky_2"/>
    <linearGradient id="linear-gradient" x1="238.54" y1="60.55" x2="236.14" y2="160.36" gradientUnits="userSpaceOnUse">
      <stop offset="0" stop-color="#c6e0f5"/>
      <stop offset="0.06" stop-color="#bdddf4"/>
      <stop offset="0.15" stop-color="#a3d4f1"/>
      <stop offset="0.28" stop-color="#7ac7eb"/>
      <stop offset="0.42" stop-color="#40b3e4"/>
      <stop offset="0.57" stop-color="#009edc"/>
      <stop offset="0.87" stop-color="#0077c3"/>
    </linearGradient>
    <linearGradient id="Sky_2-4" x1="179.56" y1="61.4" x2="176.38" y2="132.23" xlink:href="#Sky_2"/>
    <linearGradient id="Sky_2-5" x1="98.28" y1="49.18" x2="128.81" y2="163.35" xlink:href="#Sky_2"/>
    <radialGradient id="New_Gradient_Swatch_2" data-name="New Gradient Swatch 2" cx="776.17" cy="46.5" r="423.59" gradientTransform="translate(0 -0.42)" gradientUnits="userSpaceOnUse">
      <stop offset="0" stop-color="#fff700"/>
      <stop offset="0.06" stop-color="#ffea00"/>
      <stop offset="0.24" stop-color="#ffc800"/>
      <stop offset="0.42" stop-color="#ffad00"/>
      <stop offset="0.61" stop-color="#ff9a00"/>
      <stop offset="0.8" stop-color="#ff8f00"/>
      <stop offset="1" stop-color="#ff8b00"/>
    </radialGradient>
    <radialGradient id="New_Gradient_Swatch_2-2" cx="514.22" cy="57.74" r="243.37" xlink:href="#New_Gradient_Swatch_2"/>
    <radialGradient id="New_Gradient_Swatch_2-3" cx="594.62" cy="68.98" r="233.37" xlink:href="#New_Gradient_Swatch_2"/>
    <radialGradient id="New_Gradient_Swatch_2-4" cx="581.66" cy="56.88" r="327.4" xlink:href="#New_Gradient_Swatch_2"/>
  </defs></svg>